<?xml version="1.0" encoding="utf-8" standalone="no"?>
<!DOCTYPE svg PUBLIC "-//W3C//DTD SVG 1.1//EN"
  "http://www.w3.org/Graphics/SVG/1.1/DTD/svg11.dtd">
<svg xmlns:xlink="http://www.w3.org/1999/xlink" width="936pt" height="720pt" viewBox="0 0 936 720" xmlns="http://www.w3.org/2000/svg" version="1.1">
 <metadata>
  <rdf:RDF xmlns:dc="http://purl.org/dc/elements/1.1/" xmlns:cc="http://creativecommons.org/ns#" xmlns:rdf="http://www.w3.org/1999/02/22-rdf-syntax-ns#">
   <cc:Work>
    <dc:type rdf:resource="http://purl.org/dc/dcmitype/StillImage"/>
    <dc:date>2024-02-23T11:43:32.979026</dc:date>
    <dc:format>image/svg+xml</dc:format>
    <dc:creator>
     <cc:Agent>
      <dc:title>Matplotlib v3.8.0, https://matplotlib.org/</dc:title>
     </cc:Agent>
    </dc:creator>
   </cc:Work>
  </rdf:RDF>
 </metadata>
 <defs>
  <style type="text/css">*{stroke-linejoin: round; stroke-linecap: butt}</style>
 </defs>
 <g id="figure_1">
  <g id="patch_1">
   <path d="M 0 720 
L 936 720 
L 936 0 
L 0 0 
z
" style="fill: #ffffff"/>
  </g>
  <g id="axes_1">
   <g id="patch_2">
    <path d="M 117 640.8 
L 842.4 640.8 
L 842.4 86.4 
L 117 86.4 
z
" style="fill: #ffffff"/>
   </g>
   <g id="matplotlib.axis_1">
    <g id="xtick_1">
     <g id="line2d_1">
      <defs>
       <path id="m3cbcdc42b4" d="M 0 0 
L 0 3.5 
" style="stroke: #000000; stroke-width: 0.8"/>
      </defs>
      <g>
       <use xlink:href="#m3cbcdc42b4" x="149.972727" y="640.8" style="stroke: #000000; stroke-width: 0.8"/>
      </g>
     </g>
     <g id="text_1">
      <!-- 10.700 -->
      <g transform="translate(132.477415 655.398438) scale(0.1 -0.1)">
       <defs>
        <path id="DejaVuSans-31" d="M 794 531 
L 1825 531 
L 1825 4091 
L 703 3866 
L 703 4441 
L 1819 4666 
L 2450 4666 
L 2450 531 
L 3481 531 
L 3481 0 
L 794 0 
L 794 531 
z
" transform="scale(0.015625)"/>
        <path id="DejaVuSans-30" d="M 2034 4250 
Q 1547 4250 1301 3770 
Q 1056 3291 1056 2328 
Q 1056 1369 1301 889 
Q 1547 409 2034 409 
Q 2525 409 2770 889 
Q 3016 1369 3016 2328 
Q 3016 3291 2770 3770 
Q 2525 4250 2034 4250 
z
M 2034 4750 
Q 2819 4750 3233 4129 
Q 3647 3509 3647 2328 
Q 3647 1150 3233 529 
Q 2819 -91 2034 -91 
Q 1250 -91 836 529 
Q 422 1150 422 2328 
Q 422 3509 836 4129 
Q 1250 4750 2034 4750 
z
" transform="scale(0.015625)"/>
        <path id="DejaVuSans-2e" d="M 684 794 
L 1344 794 
L 1344 0 
L 684 0 
L 684 794 
z
" transform="scale(0.015625)"/>
        <path id="DejaVuSans-37" d="M 525 4666 
L 3525 4666 
L 3525 4397 
L 1831 0 
L 1172 0 
L 2766 4134 
L 525 4134 
L 525 4666 
z
" transform="scale(0.015625)"/>
       </defs>
       <use xlink:href="#DejaVuSans-31"/>
       <use xlink:href="#DejaVuSans-30" x="63.623047"/>
       <use xlink:href="#DejaVuSans-2e" x="127.246094"/>
       <use xlink:href="#DejaVuSans-37" x="159.033203"/>
       <use xlink:href="#DejaVuSans-30" x="222.65625"/>
       <use xlink:href="#DejaVuSans-30" x="286.279297"/>
      </g>
     </g>
    </g>
    <g id="xtick_2">
     <g id="line2d_2">
      <g>
       <use xlink:href="#m3cbcdc42b4" x="232.404545" y="640.8" style="stroke: #000000; stroke-width: 0.8"/>
      </g>
     </g>
     <g id="text_2">
      <!-- 10.725 -->
      <g transform="translate(214.909233 655.398438) scale(0.1 -0.1)">
       <defs>
        <path id="DejaVuSans-32" d="M 1228 531 
L 3431 531 
L 3431 0 
L 469 0 
L 469 531 
Q 828 903 1448 1529 
Q 2069 2156 2228 2338 
Q 2531 2678 2651 2914 
Q 2772 3150 2772 3378 
Q 2772 3750 2511 3984 
Q 2250 4219 1831 4219 
Q 1534 4219 1204 4116 
Q 875 4013 500 3803 
L 500 4441 
Q 881 4594 1212 4672 
Q 1544 4750 1819 4750 
Q 2544 4750 2975 4387 
Q 3406 4025 3406 3419 
Q 3406 3131 3298 2873 
Q 3191 2616 2906 2266 
Q 2828 2175 2409 1742 
Q 1991 1309 1228 531 
z
" transform="scale(0.015625)"/>
        <path id="DejaVuSans-35" d="M 691 4666 
L 3169 4666 
L 3169 4134 
L 1269 4134 
L 1269 2991 
Q 1406 3038 1543 3061 
Q 1681 3084 1819 3084 
Q 2600 3084 3056 2656 
Q 3513 2228 3513 1497 
Q 3513 744 3044 326 
Q 2575 -91 1722 -91 
Q 1428 -91 1123 -41 
Q 819 9 494 109 
L 494 744 
Q 775 591 1075 516 
Q 1375 441 1709 441 
Q 2250 441 2565 725 
Q 2881 1009 2881 1497 
Q 2881 1984 2565 2268 
Q 2250 2553 1709 2553 
Q 1456 2553 1204 2497 
Q 953 2441 691 2322 
L 691 4666 
z
" transform="scale(0.015625)"/>
       </defs>
       <use xlink:href="#DejaVuSans-31"/>
       <use xlink:href="#DejaVuSans-30" x="63.623047"/>
       <use xlink:href="#DejaVuSans-2e" x="127.246094"/>
       <use xlink:href="#DejaVuSans-37" x="159.033203"/>
       <use xlink:href="#DejaVuSans-32" x="222.65625"/>
       <use xlink:href="#DejaVuSans-35" x="286.279297"/>
      </g>
     </g>
    </g>
    <g id="xtick_3">
     <g id="line2d_3">
      <g>
       <use xlink:href="#m3cbcdc42b4" x="314.836364" y="640.8" style="stroke: #000000; stroke-width: 0.8"/>
      </g>
     </g>
     <g id="text_3">
      <!-- 10.750 -->
      <g transform="translate(297.341051 655.398438) scale(0.1 -0.1)">
       <use xlink:href="#DejaVuSans-31"/>
       <use xlink:href="#DejaVuSans-30" x="63.623047"/>
       <use xlink:href="#DejaVuSans-2e" x="127.246094"/>
       <use xlink:href="#DejaVuSans-37" x="159.033203"/>
       <use xlink:href="#DejaVuSans-35" x="222.65625"/>
       <use xlink:href="#DejaVuSans-30" x="286.279297"/>
      </g>
     </g>
    </g>
    <g id="xtick_4">
     <g id="line2d_4">
      <g>
       <use xlink:href="#m3cbcdc42b4" x="397.268182" y="640.8" style="stroke: #000000; stroke-width: 0.8"/>
      </g>
     </g>
     <g id="text_4">
      <!-- 10.775 -->
      <g transform="translate(379.772869 655.398438) scale(0.1 -0.1)">
       <use xlink:href="#DejaVuSans-31"/>
       <use xlink:href="#DejaVuSans-30" x="63.623047"/>
       <use xlink:href="#DejaVuSans-2e" x="127.246094"/>
       <use xlink:href="#DejaVuSans-37" x="159.033203"/>
       <use xlink:href="#DejaVuSans-37" x="222.65625"/>
       <use xlink:href="#DejaVuSans-35" x="286.279297"/>
      </g>
     </g>
    </g>
    <g id="xtick_5">
     <g id="line2d_5">
      <g>
       <use xlink:href="#m3cbcdc42b4" x="479.7" y="640.8" style="stroke: #000000; stroke-width: 0.8"/>
      </g>
     </g>
     <g id="text_5">
      <!-- 10.800 -->
      <g transform="translate(462.204688 655.398438) scale(0.1 -0.1)">
       <defs>
        <path id="DejaVuSans-38" d="M 2034 2216 
Q 1584 2216 1326 1975 
Q 1069 1734 1069 1313 
Q 1069 891 1326 650 
Q 1584 409 2034 409 
Q 2484 409 2743 651 
Q 3003 894 3003 1313 
Q 3003 1734 2745 1975 
Q 2488 2216 2034 2216 
z
M 1403 2484 
Q 997 2584 770 2862 
Q 544 3141 544 3541 
Q 544 4100 942 4425 
Q 1341 4750 2034 4750 
Q 2731 4750 3128 4425 
Q 3525 4100 3525 3541 
Q 3525 3141 3298 2862 
Q 3072 2584 2669 2484 
Q 3125 2378 3379 2068 
Q 3634 1759 3634 1313 
Q 3634 634 3220 271 
Q 2806 -91 2034 -91 
Q 1263 -91 848 271 
Q 434 634 434 1313 
Q 434 1759 690 2068 
Q 947 2378 1403 2484 
z
M 1172 3481 
Q 1172 3119 1398 2916 
Q 1625 2713 2034 2713 
Q 2441 2713 2670 2916 
Q 2900 3119 2900 3481 
Q 2900 3844 2670 4047 
Q 2441 4250 2034 4250 
Q 1625 4250 1398 4047 
Q 1172 3844 1172 3481 
z
" transform="scale(0.015625)"/>
       </defs>
       <use xlink:href="#DejaVuSans-31"/>
       <use xlink:href="#DejaVuSans-30" x="63.623047"/>
       <use xlink:href="#DejaVuSans-2e" x="127.246094"/>
       <use xlink:href="#DejaVuSans-38" x="159.033203"/>
       <use xlink:href="#DejaVuSans-30" x="222.65625"/>
       <use xlink:href="#DejaVuSans-30" x="286.279297"/>
      </g>
     </g>
    </g>
    <g id="xtick_6">
     <g id="line2d_6">
      <g>
       <use xlink:href="#m3cbcdc42b4" x="562.131818" y="640.8" style="stroke: #000000; stroke-width: 0.8"/>
      </g>
     </g>
     <g id="text_6">
      <!-- 10.825 -->
      <g transform="translate(544.636506 655.398438) scale(0.1 -0.1)">
       <use xlink:href="#DejaVuSans-31"/>
       <use xlink:href="#DejaVuSans-30" x="63.623047"/>
       <use xlink:href="#DejaVuSans-2e" x="127.246094"/>
       <use xlink:href="#DejaVuSans-38" x="159.033203"/>
       <use xlink:href="#DejaVuSans-32" x="222.65625"/>
       <use xlink:href="#DejaVuSans-35" x="286.279297"/>
      </g>
     </g>
    </g>
    <g id="xtick_7">
     <g id="line2d_7">
      <g>
       <use xlink:href="#m3cbcdc42b4" x="644.563636" y="640.8" style="stroke: #000000; stroke-width: 0.8"/>
      </g>
     </g>
     <g id="text_7">
      <!-- 10.850 -->
      <g transform="translate(627.068324 655.398438) scale(0.1 -0.1)">
       <use xlink:href="#DejaVuSans-31"/>
       <use xlink:href="#DejaVuSans-30" x="63.623047"/>
       <use xlink:href="#DejaVuSans-2e" x="127.246094"/>
       <use xlink:href="#DejaVuSans-38" x="159.033203"/>
       <use xlink:href="#DejaVuSans-35" x="222.65625"/>
       <use xlink:href="#DejaVuSans-30" x="286.279297"/>
      </g>
     </g>
    </g>
    <g id="xtick_8">
     <g id="line2d_8">
      <g>
       <use xlink:href="#m3cbcdc42b4" x="726.995455" y="640.8" style="stroke: #000000; stroke-width: 0.8"/>
      </g>
     </g>
     <g id="text_8">
      <!-- 10.875 -->
      <g transform="translate(709.500142 655.398438) scale(0.1 -0.1)">
       <use xlink:href="#DejaVuSans-31"/>
       <use xlink:href="#DejaVuSans-30" x="63.623047"/>
       <use xlink:href="#DejaVuSans-2e" x="127.246094"/>
       <use xlink:href="#DejaVuSans-38" x="159.033203"/>
       <use xlink:href="#DejaVuSans-37" x="222.65625"/>
       <use xlink:href="#DejaVuSans-35" x="286.279297"/>
      </g>
     </g>
    </g>
    <g id="xtick_9">
     <g id="line2d_9">
      <g>
       <use xlink:href="#m3cbcdc42b4" x="809.427273" y="640.8" style="stroke: #000000; stroke-width: 0.8"/>
      </g>
     </g>
     <g id="text_9">
      <!-- 10.900 -->
      <g transform="translate(791.93196 655.398438) scale(0.1 -0.1)">
       <defs>
        <path id="DejaVuSans-39" d="M 703 97 
L 703 672 
Q 941 559 1184 500 
Q 1428 441 1663 441 
Q 2288 441 2617 861 
Q 2947 1281 2994 2138 
Q 2813 1869 2534 1725 
Q 2256 1581 1919 1581 
Q 1219 1581 811 2004 
Q 403 2428 403 3163 
Q 403 3881 828 4315 
Q 1253 4750 1959 4750 
Q 2769 4750 3195 4129 
Q 3622 3509 3622 2328 
Q 3622 1225 3098 567 
Q 2575 -91 1691 -91 
Q 1453 -91 1209 -44 
Q 966 3 703 97 
z
M 1959 2075 
Q 2384 2075 2632 2365 
Q 2881 2656 2881 3163 
Q 2881 3666 2632 3958 
Q 2384 4250 1959 4250 
Q 1534 4250 1286 3958 
Q 1038 3666 1038 3163 
Q 1038 2656 1286 2365 
Q 1534 2075 1959 2075 
z
" transform="scale(0.015625)"/>
       </defs>
       <use xlink:href="#DejaVuSans-31"/>
       <use xlink:href="#DejaVuSans-30" x="63.623047"/>
       <use xlink:href="#DejaVuSans-2e" x="127.246094"/>
       <use xlink:href="#DejaVuSans-39" x="159.033203"/>
       <use xlink:href="#DejaVuSans-30" x="222.65625"/>
       <use xlink:href="#DejaVuSans-30" x="286.279297"/>
      </g>
     </g>
    </g>
    <g id="text_10">
     <!-- $\beta$ -->
     <g transform="translate(476.5 669.178125) scale(0.1 -0.1)">
      <defs>
       <path id="DejaVuSans-Oblique-3b2" d="M 872 216 
L 572 -1331 
L -6 -1331 
L 928 3478 
Q 1206 4903 2538 4903 
Q 3888 4903 3659 3700 
Q 3503 2844 2894 2531 
Q 3713 2250 3553 1416 
Q 3272 -69 1759 -66 
Q 1097 -63 872 216 
z
M 1019 966 
Q 1259 422 1875 425 
Q 2775 425 2966 1406 
Q 3138 2288 1675 2219 
L 1778 2750 
Q 2909 2731 3106 3750 
Q 3241 4438 2509 4434 
Q 1691 4434 1503 3459 
L 1019 966 
z
" transform="scale(0.015625)"/>
      </defs>
      <use xlink:href="#DejaVuSans-Oblique-3b2" transform="translate(0 0.390625)"/>
     </g>
    </g>
   </g>
   <g id="matplotlib.axis_2">
    <g id="ytick_1">
     <g id="line2d_10">
      <defs>
       <path id="md178b46a42" d="M 0 0 
L -3.5 0 
" style="stroke: #000000; stroke-width: 0.8"/>
      </defs>
      <g>
       <use xlink:href="#md178b46a42" x="117" y="614.315547" style="stroke: #000000; stroke-width: 0.8"/>
      </g>
     </g>
     <g id="text_11">
      <!-- 0.000 -->
      <g transform="translate(81.371875 618.114766) scale(0.1 -0.1)">
       <use xlink:href="#DejaVuSans-30"/>
       <use xlink:href="#DejaVuSans-2e" x="63.623047"/>
       <use xlink:href="#DejaVuSans-30" x="95.410156"/>
       <use xlink:href="#DejaVuSans-30" x="159.033203"/>
       <use xlink:href="#DejaVuSans-30" x="222.65625"/>
      </g>
     </g>
    </g>
    <g id="ytick_2">
     <g id="line2d_11">
      <g>
       <use xlink:href="#md178b46a42" x="117" y="551.689401" style="stroke: #000000; stroke-width: 0.8"/>
      </g>
     </g>
     <g id="text_12">
      <!-- 0.005 -->
      <g transform="translate(81.371875 555.48862) scale(0.1 -0.1)">
       <use xlink:href="#DejaVuSans-30"/>
       <use xlink:href="#DejaVuSans-2e" x="63.623047"/>
       <use xlink:href="#DejaVuSans-30" x="95.410156"/>
       <use xlink:href="#DejaVuSans-30" x="159.033203"/>
       <use xlink:href="#DejaVuSans-35" x="222.65625"/>
      </g>
     </g>
    </g>
    <g id="ytick_3">
     <g id="line2d_12">
      <g>
       <use xlink:href="#md178b46a42" x="117" y="489.063256" style="stroke: #000000; stroke-width: 0.8"/>
      </g>
     </g>
     <g id="text_13">
      <!-- 0.010 -->
      <g transform="translate(81.371875 492.862474) scale(0.1 -0.1)">
       <use xlink:href="#DejaVuSans-30"/>
       <use xlink:href="#DejaVuSans-2e" x="63.623047"/>
       <use xlink:href="#DejaVuSans-30" x="95.410156"/>
       <use xlink:href="#DejaVuSans-31" x="159.033203"/>
       <use xlink:href="#DejaVuSans-30" x="222.65625"/>
      </g>
     </g>
    </g>
    <g id="ytick_4">
     <g id="line2d_13">
      <g>
       <use xlink:href="#md178b46a42" x="117" y="426.43711" style="stroke: #000000; stroke-width: 0.8"/>
      </g>
     </g>
     <g id="text_14">
      <!-- 0.015 -->
      <g transform="translate(81.371875 430.236329) scale(0.1 -0.1)">
       <use xlink:href="#DejaVuSans-30"/>
       <use xlink:href="#DejaVuSans-2e" x="63.623047"/>
       <use xlink:href="#DejaVuSans-30" x="95.410156"/>
       <use xlink:href="#DejaVuSans-31" x="159.033203"/>
       <use xlink:href="#DejaVuSans-35" x="222.65625"/>
      </g>
     </g>
    </g>
    <g id="ytick_5">
     <g id="line2d_14">
      <g>
       <use xlink:href="#md178b46a42" x="117" y="363.810964" style="stroke: #000000; stroke-width: 0.8"/>
      </g>
     </g>
     <g id="text_15">
      <!-- 0.020 -->
      <g transform="translate(81.371875 367.610183) scale(0.1 -0.1)">
       <use xlink:href="#DejaVuSans-30"/>
       <use xlink:href="#DejaVuSans-2e" x="63.623047"/>
       <use xlink:href="#DejaVuSans-30" x="95.410156"/>
       <use xlink:href="#DejaVuSans-32" x="159.033203"/>
       <use xlink:href="#DejaVuSans-30" x="222.65625"/>
      </g>
     </g>
    </g>
    <g id="ytick_6">
     <g id="line2d_15">
      <g>
       <use xlink:href="#md178b46a42" x="117" y="301.184819" style="stroke: #000000; stroke-width: 0.8"/>
      </g>
     </g>
     <g id="text_16">
      <!-- 0.025 -->
      <g transform="translate(81.371875 304.984037) scale(0.1 -0.1)">
       <use xlink:href="#DejaVuSans-30"/>
       <use xlink:href="#DejaVuSans-2e" x="63.623047"/>
       <use xlink:href="#DejaVuSans-30" x="95.410156"/>
       <use xlink:href="#DejaVuSans-32" x="159.033203"/>
       <use xlink:href="#DejaVuSans-35" x="222.65625"/>
      </g>
     </g>
    </g>
    <g id="ytick_7">
     <g id="line2d_16">
      <g>
       <use xlink:href="#md178b46a42" x="117" y="238.558673" style="stroke: #000000; stroke-width: 0.8"/>
      </g>
     </g>
     <g id="text_17">
      <!-- 0.030 -->
      <g transform="translate(81.371875 242.357892) scale(0.1 -0.1)">
       <defs>
        <path id="DejaVuSans-33" d="M 2597 2516 
Q 3050 2419 3304 2112 
Q 3559 1806 3559 1356 
Q 3559 666 3084 287 
Q 2609 -91 1734 -91 
Q 1441 -91 1130 -33 
Q 819 25 488 141 
L 488 750 
Q 750 597 1062 519 
Q 1375 441 1716 441 
Q 2309 441 2620 675 
Q 2931 909 2931 1356 
Q 2931 1769 2642 2001 
Q 2353 2234 1838 2234 
L 1294 2234 
L 1294 2753 
L 1863 2753 
Q 2328 2753 2575 2939 
Q 2822 3125 2822 3475 
Q 2822 3834 2567 4026 
Q 2313 4219 1838 4219 
Q 1578 4219 1281 4162 
Q 984 4106 628 3988 
L 628 4550 
Q 988 4650 1302 4700 
Q 1616 4750 1894 4750 
Q 2613 4750 3031 4423 
Q 3450 4097 3450 3541 
Q 3450 3153 3228 2886 
Q 3006 2619 2597 2516 
z
" transform="scale(0.015625)"/>
       </defs>
       <use xlink:href="#DejaVuSans-30"/>
       <use xlink:href="#DejaVuSans-2e" x="63.623047"/>
       <use xlink:href="#DejaVuSans-30" x="95.410156"/>
       <use xlink:href="#DejaVuSans-33" x="159.033203"/>
       <use xlink:href="#DejaVuSans-30" x="222.65625"/>
      </g>
     </g>
    </g>
    <g id="ytick_8">
     <g id="line2d_17">
      <g>
       <use xlink:href="#md178b46a42" x="117" y="175.932527" style="stroke: #000000; stroke-width: 0.8"/>
      </g>
     </g>
     <g id="text_18">
      <!-- 0.035 -->
      <g transform="translate(81.371875 179.731746) scale(0.1 -0.1)">
       <use xlink:href="#DejaVuSans-30"/>
       <use xlink:href="#DejaVuSans-2e" x="63.623047"/>
       <use xlink:href="#DejaVuSans-30" x="95.410156"/>
       <use xlink:href="#DejaVuSans-33" x="159.033203"/>
       <use xlink:href="#DejaVuSans-35" x="222.65625"/>
      </g>
     </g>
    </g>
    <g id="ytick_9">
     <g id="line2d_18">
      <g>
       <use xlink:href="#md178b46a42" x="117" y="113.306381" style="stroke: #000000; stroke-width: 0.8"/>
      </g>
     </g>
     <g id="text_19">
      <!-- 0.040 -->
      <g transform="translate(81.371875 117.1056) scale(0.1 -0.1)">
       <defs>
        <path id="DejaVuSans-34" d="M 2419 4116 
L 825 1625 
L 2419 1625 
L 2419 4116 
z
M 2253 4666 
L 3047 4666 
L 3047 1625 
L 3713 1625 
L 3713 1100 
L 3047 1100 
L 3047 0 
L 2419 0 
L 2419 1100 
L 313 1100 
L 313 1709 
L 2253 4666 
z
" transform="scale(0.015625)"/>
       </defs>
       <use xlink:href="#DejaVuSans-30"/>
       <use xlink:href="#DejaVuSans-2e" x="63.623047"/>
       <use xlink:href="#DejaVuSans-30" x="95.410156"/>
       <use xlink:href="#DejaVuSans-34" x="159.033203"/>
       <use xlink:href="#DejaVuSans-30" x="222.65625"/>
      </g>
     </g>
    </g>
    <g id="text_20">
     <!-- $\int \langle S_{t} - S_{nt} \rangle$ -->
     <g transform="translate(74.271875 388.95) rotate(-90) scale(0.1 -0.1)">
      <defs>
       <path id="DejaVuSansDisplay-222b" d="M 2134 5525 
Q 2172 6263 2528 6556 
Q 2884 6850 3218 6850 
Q 3553 6850 3833 6575 
Q 4113 6300 4200 5678 
L 3544 5613 
Q 3469 6188 3219 6188 
Q 2906 6188 2869 5413 
L 2581 -597 
Q 2547 -1334 2187 -1628 
Q 1828 -1922 1497 -1922 
Q 1163 -1922 883 -1647 
Q 603 -1372 516 -750 
L 1172 -684 
Q 1247 -1259 1497 -1259 
Q 1809 -1259 1847 -488 
L 2134 5525 
z
" transform="scale(0.015625)"/>
       <path id="DejaVuSans-27e8" d="M 572 2006 
L 1453 4856 
L 1984 4856 
L 1103 2006 
L 1984 -844 
L 1453 -844 
L 572 2006 
z
" transform="scale(0.015625)"/>
       <path id="DejaVuSans-Oblique-53" d="M 3859 4513 
L 3738 3897 
Q 3422 4066 3111 4152 
Q 2800 4238 2509 4238 
Q 1944 4238 1609 3991 
Q 1275 3744 1275 3334 
Q 1275 3109 1398 2989 
Q 1522 2869 2034 2731 
L 2413 2638 
Q 3053 2472 3303 2217 
Q 3553 1963 3553 1503 
Q 3553 797 2998 353 
Q 2444 -91 1538 -91 
Q 1166 -91 791 -17 
Q 416 56 38 206 
L 166 856 
Q 513 641 861 531 
Q 1209 422 1556 422 
Q 2147 422 2503 684 
Q 2859 947 2859 1369 
Q 2859 1650 2717 1795 
Q 2575 1941 2106 2059 
L 1728 2156 
Q 1081 2325 845 2545 
Q 609 2766 609 3163 
Q 609 3859 1145 4304 
Q 1681 4750 2541 4750 
Q 2875 4750 3203 4690 
Q 3531 4631 3859 4513 
z
" transform="scale(0.015625)"/>
       <path id="DejaVuSans-Oblique-74" d="M 2706 3500 
L 2619 3053 
L 1472 3053 
L 1100 1153 
Q 1081 1047 1072 975 
Q 1063 903 1063 863 
Q 1063 663 1183 572 
Q 1303 481 1569 481 
L 2150 481 
L 2053 0 
L 1503 0 
Q 991 0 739 200 
Q 488 400 488 806 
Q 488 878 497 964 
Q 506 1050 525 1153 
L 897 3053 
L 409 3053 
L 500 3500 
L 978 3500 
L 1172 4494 
L 1747 4494 
L 1556 3500 
L 2706 3500 
z
" transform="scale(0.015625)"/>
       <path id="DejaVuSans-2212" d="M 678 2272 
L 4684 2272 
L 4684 1741 
L 678 1741 
L 678 2272 
z
" transform="scale(0.015625)"/>
       <path id="DejaVuSans-Oblique-6e" d="M 3566 2113 
L 3156 0 
L 2578 0 
L 2988 2091 
Q 3016 2238 3031 2350 
Q 3047 2463 3047 2528 
Q 3047 2791 2881 2937 
Q 2716 3084 2419 3084 
Q 1956 3084 1622 2776 
Q 1288 2469 1184 1941 
L 800 0 
L 225 0 
L 903 3500 
L 1478 3500 
L 1363 2950 
Q 1603 3253 1940 3418 
Q 2278 3584 2650 3584 
Q 3113 3584 3367 3334 
Q 3622 3084 3622 2631 
Q 3622 2519 3608 2391 
Q 3594 2263 3566 2113 
z
" transform="scale(0.015625)"/>
       <path id="DejaVuSans-27e9" d="M 1925 2006 
L 1044 -844 
L 513 -844 
L 1394 2006 
L 513 4856 
L 1044 4856 
L 1925 2006 
z
" transform="scale(0.015625)"/>
      </defs>
      <use xlink:href="#DejaVuSansDisplay-222b" transform="translate(0 0.96875)"/>
      <use xlink:href="#DejaVuSans-27e8" transform="translate(73.632812 0.96875)"/>
      <use xlink:href="#DejaVuSans-Oblique-53" transform="translate(112.646484 0.96875)"/>
      <use xlink:href="#DejaVuSans-Oblique-74" transform="translate(176.123047 -15.4375) scale(0.7)"/>
      <use xlink:href="#DejaVuSans-2212" transform="translate(225.786133 0.96875)"/>
      <use xlink:href="#DejaVuSans-Oblique-53" transform="translate(329.057617 0.96875)"/>
      <use xlink:href="#DejaVuSans-Oblique-6e" transform="translate(392.53418 -15.4375) scale(0.7)"/>
      <use xlink:href="#DejaVuSans-Oblique-74" transform="translate(436.899414 -15.4375) scale(0.7)"/>
      <use xlink:href="#DejaVuSans-27e9" transform="translate(467.080078 0.96875)"/>
     </g>
    </g>
   </g>
   <g id="LineCollection_1">
    <path d="M 149.972727 614.315547 
L 149.972727 614.315547 
" clip-path="url(#pf3364e00ef)" style="fill: none; stroke: #ff0000; stroke-width: 1.5"/>
    <path d="M 153.27 614.394852 
L 153.27 614.306008 
" clip-path="url(#pf3364e00ef)" style="fill: none; stroke: #ff0000; stroke-width: 1.5"/>
    <path d="M 156.567273 614.465694 
L 156.567273 614.293254 
" clip-path="url(#pf3364e00ef)" style="fill: none; stroke: #ff0000; stroke-width: 1.5"/>
    <path d="M 159.864545 614.523528 
L 159.864545 614.272795 
" clip-path="url(#pf3364e00ef)" style="fill: none; stroke: #ff0000; stroke-width: 1.5"/>
    <path d="M 163.161818 614.564576 
L 163.161818 614.240979 
" clip-path="url(#pf3364e00ef)" style="fill: none; stroke: #ff0000; stroke-width: 1.5"/>
    <path d="M 166.459091 614.58637 
L 166.459091 614.195319 
" clip-path="url(#pf3364e00ef)" style="fill: none; stroke: #ff0000; stroke-width: 1.5"/>
    <path d="M 169.756364 614.588076 
L 169.756364 614.134681 
" clip-path="url(#pf3364e00ef)" style="fill: none; stroke: #ff0000; stroke-width: 1.5"/>
    <path d="M 173.053636 614.570585 
L 173.053636 614.059352 
" clip-path="url(#pf3364e00ef)" style="fill: none; stroke: #ff0000; stroke-width: 1.5"/>
    <path d="M 176.350909 614.536392 
L 176.350909 613.970962 
" clip-path="url(#pf3364e00ef)" style="fill: none; stroke: #ff0000; stroke-width: 1.5"/>
    <path d="M 179.648182 614.489291 
L 179.648182 613.872284 
" clip-path="url(#pf3364e00ef)" style="fill: none; stroke: #ff0000; stroke-width: 1.5"/>
    <path d="M 182.945455 614.433967 
L 182.945455 613.766927 
" clip-path="url(#pf3364e00ef)" style="fill: none; stroke: #ff0000; stroke-width: 1.5"/>
    <path d="M 186.242727 614.375523 
L 186.242727 613.658962 
" clip-path="url(#pf3364e00ef)" style="fill: none; stroke: #ff0000; stroke-width: 1.5"/>
    <path d="M 189.54 614.319026 
L 189.54 613.55251 
" clip-path="url(#pf3364e00ef)" style="fill: none; stroke: #ff0000; stroke-width: 1.5"/>
    <path d="M 192.837273 614.269094 
L 192.837273 613.451359 
" clip-path="url(#pf3364e00ef)" style="fill: none; stroke: #ff0000; stroke-width: 1.5"/>
    <path d="M 196.134545 614.229573 
L 196.134545 613.358653 
" clip-path="url(#pf3364e00ef)" style="fill: none; stroke: #ff0000; stroke-width: 1.5"/>
    <path d="M 199.431818 614.203327 
L 199.431818 613.276684 
" clip-path="url(#pf3364e00ef)" style="fill: none; stroke: #ff0000; stroke-width: 1.5"/>
    <path d="M 202.729091 614.192132 
L 202.729091 613.206812 
" clip-path="url(#pf3364e00ef)" style="fill: none; stroke: #ff0000; stroke-width: 1.5"/>
    <path d="M 206.026364 614.196711 
L 206.026364 613.149498 
" clip-path="url(#pf3364e00ef)" style="fill: none; stroke: #ff0000; stroke-width: 1.5"/>
    <path d="M 209.323636 614.216863 
L 209.323636 613.104448 
" clip-path="url(#pf3364e00ef)" style="fill: none; stroke: #ff0000; stroke-width: 1.5"/>
    <path d="M 212.620909 614.251673 
L 212.620909 613.07081 
" clip-path="url(#pf3364e00ef)" style="fill: none; stroke: #ff0000; stroke-width: 1.5"/>
    <path d="M 215.918182 614.299762 
L 215.918182 613.047409 
" clip-path="url(#pf3364e00ef)" style="fill: none; stroke: #ff0000; stroke-width: 1.5"/>
    <path d="M 219.215455 614.359521 
L 219.215455 613.032979 
" clip-path="url(#pf3364e00ef)" style="fill: none; stroke: #ff0000; stroke-width: 1.5"/>
    <path d="M 222.512727 614.429307 
L 222.512727 613.026334 
" clip-path="url(#pf3364e00ef)" style="fill: none; stroke: #ff0000; stroke-width: 1.5"/>
    <path d="M 225.81 614.507563 
L 225.81 613.026491 
" clip-path="url(#pf3364e00ef)" style="fill: none; stroke: #ff0000; stroke-width: 1.5"/>
    <path d="M 229.107273 614.59286 
L 229.107273 613.032693 
" clip-path="url(#pf3364e00ef)" style="fill: none; stroke: #ff0000; stroke-width: 1.5"/>
    <path d="M 232.404545 614.68387 
L 232.404545 613.044375 
" clip-path="url(#pf3364e00ef)" style="fill: none; stroke: #ff0000; stroke-width: 1.5"/>
    <path d="M 235.701818 614.779275 
L 235.701818 613.06107 
" clip-path="url(#pf3364e00ef)" style="fill: none; stroke: #ff0000; stroke-width: 1.5"/>
    <path d="M 238.999091 614.877664 
L 238.999091 613.082297 
" clip-path="url(#pf3364e00ef)" style="fill: none; stroke: #ff0000; stroke-width: 1.5"/>
    <path d="M 242.296364 614.977433 
L 242.296364 613.10744 
" clip-path="url(#pf3364e00ef)" style="fill: none; stroke: #ff0000; stroke-width: 1.5"/>
    <path d="M 245.593636 615.076727 
L 245.593636 613.135672 
" clip-path="url(#pf3364e00ef)" style="fill: none; stroke: #ff0000; stroke-width: 1.5"/>
    <path d="M 248.890909 615.173436 
L 248.890909 613.165908 
" clip-path="url(#pf3364e00ef)" style="fill: none; stroke: #ff0000; stroke-width: 1.5"/>
    <path d="M 252.188182 615.265258 
L 252.188182 613.196822 
" clip-path="url(#pf3364e00ef)" style="fill: none; stroke: #ff0000; stroke-width: 1.5"/>
    <path d="M 255.485455 615.349815 
L 255.485455 613.226912 
" clip-path="url(#pf3364e00ef)" style="fill: none; stroke: #ff0000; stroke-width: 1.5"/>
    <path d="M 258.782727 615.424803 
L 258.782727 613.254605 
" clip-path="url(#pf3364e00ef)" style="fill: none; stroke: #ff0000; stroke-width: 1.5"/>
    <path d="M 262.08 615.488155 
L 262.08 613.278386 
" clip-path="url(#pf3364e00ef)" style="fill: none; stroke: #ff0000; stroke-width: 1.5"/>
    <path d="M 265.377273 615.538201 
L 265.377273 613.296932 
" clip-path="url(#pf3364e00ef)" style="fill: none; stroke: #ff0000; stroke-width: 1.5"/>
    <path d="M 268.674545 615.573787 
L 268.674545 613.309205 
" clip-path="url(#pf3364e00ef)" style="fill: none; stroke: #ff0000; stroke-width: 1.5"/>
    <path d="M 271.971818 615.594361 
L 271.971818 613.31452 
" clip-path="url(#pf3364e00ef)" style="fill: none; stroke: #ff0000; stroke-width: 1.5"/>
    <path d="M 275.269091 615.6 
L 275.269091 613.312542 
" clip-path="url(#pf3364e00ef)" style="fill: none; stroke: #ff0000; stroke-width: 1.5"/>
    <path d="M 278.566364 615.591378 
L 278.566364 613.303234 
" clip-path="url(#pf3364e00ef)" style="fill: none; stroke: #ff0000; stroke-width: 1.5"/>
    <path d="M 281.863636 615.56968 
L 281.863636 613.286756 
" clip-path="url(#pf3364e00ef)" style="fill: none; stroke: #ff0000; stroke-width: 1.5"/>
    <path d="M 285.160909 615.536472 
L 285.160909 613.263342 
" clip-path="url(#pf3364e00ef)" style="fill: none; stroke: #ff0000; stroke-width: 1.5"/>
    <path d="M 288.458182 615.49353 
L 288.458182 613.233169 
" clip-path="url(#pf3364e00ef)" style="fill: none; stroke: #ff0000; stroke-width: 1.5"/>
    <path d="M 291.755455 615.442662 
L 291.755455 613.196258 
" clip-path="url(#pf3364e00ef)" style="fill: none; stroke: #ff0000; stroke-width: 1.5"/>
    <path d="M 295.052727 615.385544 
L 295.052727 613.152411 
" clip-path="url(#pf3364e00ef)" style="fill: none; stroke: #ff0000; stroke-width: 1.5"/>
    <path d="M 298.35 615.323582 
L 298.35 613.101228 
" clip-path="url(#pf3364e00ef)" style="fill: none; stroke: #ff0000; stroke-width: 1.5"/>
    <path d="M 301.647273 615.25783 
L 301.647273 613.042176 
" clip-path="url(#pf3364e00ef)" style="fill: none; stroke: #ff0000; stroke-width: 1.5"/>
    <path d="M 304.944545 615.188971 
L 304.944545 612.974722 
" clip-path="url(#pf3364e00ef)" style="fill: none; stroke: #ff0000; stroke-width: 1.5"/>
    <path d="M 308.241818 615.117355 
L 308.241818 612.898497 
" clip-path="url(#pf3364e00ef)" style="fill: none; stroke: #ff0000; stroke-width: 1.5"/>
    <path d="M 311.539091 615.043101 
L 311.539091 612.813459 
" clip-path="url(#pf3364e00ef)" style="fill: none; stroke: #ff0000; stroke-width: 1.5"/>
    <path d="M 314.836364 614.966223 
L 314.836364 612.720003 
" clip-path="url(#pf3364e00ef)" style="fill: none; stroke: #ff0000; stroke-width: 1.5"/>
    <path d="M 318.133636 614.88677 
L 318.133636 612.619011 
" clip-path="url(#pf3364e00ef)" style="fill: none; stroke: #ff0000; stroke-width: 1.5"/>
    <path d="M 321.430909 614.804937 
L 321.430909 612.51179 
" clip-path="url(#pf3364e00ef)" style="fill: none; stroke: #ff0000; stroke-width: 1.5"/>
    <path d="M 324.728182 614.721128 
L 324.728182 612.39993 
" clip-path="url(#pf3364e00ef)" style="fill: none; stroke: #ff0000; stroke-width: 1.5"/>
    <path d="M 328.025455 614.635957 
L 328.025455 612.285091 
" clip-path="url(#pf3364e00ef)" style="fill: none; stroke: #ff0000; stroke-width: 1.5"/>
    <path d="M 331.322727 614.550182 
L 331.322727 612.168746 
" clip-path="url(#pf3364e00ef)" style="fill: none; stroke: #ff0000; stroke-width: 1.5"/>
    <path d="M 334.62 614.464593 
L 334.62 612.051945 
" clip-path="url(#pf3364e00ef)" style="fill: none; stroke: #ff0000; stroke-width: 1.5"/>
    <path d="M 337.917273 614.379873 
L 337.917273 611.935122 
" clip-path="url(#pf3364e00ef)" style="fill: none; stroke: #ff0000; stroke-width: 1.5"/>
    <path d="M 341.214545 614.296464 
L 341.214545 611.817976 
" clip-path="url(#pf3364e00ef)" style="fill: none; stroke: #ff0000; stroke-width: 1.5"/>
    <path d="M 344.511818 614.214441 
L 344.511818 611.699449 
" clip-path="url(#pf3364e00ef)" style="fill: none; stroke: #ff0000; stroke-width: 1.5"/>
    <path d="M 347.809091 614.133423 
L 347.809091 611.577784 
" clip-path="url(#pf3364e00ef)" style="fill: none; stroke: #ff0000; stroke-width: 1.5"/>
    <path d="M 351.106364 614.052498 
L 351.106364 611.450643 
" clip-path="url(#pf3364e00ef)" style="fill: none; stroke: #ff0000; stroke-width: 1.5"/>
    <path d="M 354.403636 613.97016 
L 354.403636 611.315246 
" clip-path="url(#pf3364e00ef)" style="fill: none; stroke: #ff0000; stroke-width: 1.5"/>
    <path d="M 357.700909 613.884245 
L 357.700909 611.168497 
" clip-path="url(#pf3364e00ef)" style="fill: none; stroke: #ff0000; stroke-width: 1.5"/>
    <path d="M 360.998182 613.79185 
L 360.998182 611.007055 
" clip-path="url(#pf3364e00ef)" style="fill: none; stroke: #ff0000; stroke-width: 1.5"/>
    <path d="M 364.295455 613.689244 
L 364.295455 610.827336 
" clip-path="url(#pf3364e00ef)" style="fill: none; stroke: #ff0000; stroke-width: 1.5"/>
    <path d="M 367.592727 613.571771 
L 367.592727 610.625436 
" clip-path="url(#pf3364e00ef)" style="fill: none; stroke: #ff0000; stroke-width: 1.5"/>
    <path d="M 370.89 613.433768 
L 370.89 610.396999 
" clip-path="url(#pf3364e00ef)" style="fill: none; stroke: #ff0000; stroke-width: 1.5"/>
    <path d="M 374.187273 613.268516 
L 374.187273 610.137033 
" clip-path="url(#pf3364e00ef)" style="fill: none; stroke: #ff0000; stroke-width: 1.5"/>
    <path d="M 377.484545 613.068247 
L 377.484545 609.839719 
" clip-path="url(#pf3364e00ef)" style="fill: none; stroke: #ff0000; stroke-width: 1.5"/>
    <path d="M 380.781818 612.824225 
L 380.781818 609.49823 
" clip-path="url(#pf3364e00ef)" style="fill: none; stroke: #ff0000; stroke-width: 1.5"/>
    <path d="M 384.079091 612.526886 
L 384.079091 609.10456 
" clip-path="url(#pf3364e00ef)" style="fill: none; stroke: #ff0000; stroke-width: 1.5"/>
    <path d="M 387.376364 612.166027 
L 387.376364 608.649375 
" clip-path="url(#pf3364e00ef)" style="fill: none; stroke: #ff0000; stroke-width: 1.5"/>
    <path d="M 390.673636 611.73099 
L 390.673636 608.121859 
" clip-path="url(#pf3364e00ef)" style="fill: none; stroke: #ff0000; stroke-width: 1.5"/>
    <path d="M 393.970909 611.210788 
L 393.970909 607.509554 
" clip-path="url(#pf3364e00ef)" style="fill: none; stroke: #ff0000; stroke-width: 1.5"/>
    <path d="M 397.268182 610.594104 
L 397.268182 606.79818 
" clip-path="url(#pf3364e00ef)" style="fill: none; stroke: #ff0000; stroke-width: 1.5"/>
    <path d="M 400.565455 609.869118 
L 400.565455 605.971431 
" clip-path="url(#pf3364e00ef)" style="fill: none; stroke: #ff0000; stroke-width: 1.5"/>
    <path d="M 403.862727 609.023142 
L 403.862727 605.010791 
" clip-path="url(#pf3364e00ef)" style="fill: none; stroke: #ff0000; stroke-width: 1.5"/>
    <path d="M 407.16 608.042094 
L 407.16 603.895398 
" clip-path="url(#pf3364e00ef)" style="fill: none; stroke: #ff0000; stroke-width: 1.5"/>
    <path d="M 410.457273 606.909888 
L 410.457273 602.602002 
" clip-path="url(#pf3364e00ef)" style="fill: none; stroke: #ff0000; stroke-width: 1.5"/>
    <path d="M 413.754545 605.607896 
L 413.754545 601.105092 
" clip-path="url(#pf3364e00ef)" style="fill: none; stroke: #ff0000; stroke-width: 1.5"/>
    <path d="M 417.051818 604.114624 
L 417.051818 599.377252 
" clip-path="url(#pf3364e00ef)" style="fill: none; stroke: #ff0000; stroke-width: 1.5"/>
    <path d="M 420.349091 602.405761 
L 420.349091 597.389795 
" clip-path="url(#pf3364e00ef)" style="fill: none; stroke: #ff0000; stroke-width: 1.5"/>
    <path d="M 423.646364 600.454715 
L 423.646364 595.113777 
" clip-path="url(#pf3364e00ef)" style="fill: none; stroke: #ff0000; stroke-width: 1.5"/>
    <path d="M 426.943636 598.233652 
L 426.943636 592.52138 
" clip-path="url(#pf3364e00ef)" style="fill: none; stroke: #ff0000; stroke-width: 1.5"/>
    <path d="M 430.240909 595.71503 
L 430.240909 589.587657 
" clip-path="url(#pf3364e00ef)" style="fill: none; stroke: #ff0000; stroke-width: 1.5"/>
    <path d="M 433.538182 592.873491 
L 433.538182 586.292446 
" clip-path="url(#pf3364e00ef)" style="fill: none; stroke: #ff0000; stroke-width: 1.5"/>
    <path d="M 436.835455 589.687965 
L 436.835455 582.622209 
" clip-path="url(#pf3364e00ef)" style="fill: none; stroke: #ff0000; stroke-width: 1.5"/>
    <path d="M 440.132727 586.143707 
L 440.132727 578.571479 
" clip-path="url(#pf3364e00ef)" style="fill: none; stroke: #ff0000; stroke-width: 1.5"/>
    <path d="M 443.43 582.23397 
L 443.43 574.143621 
" clip-path="url(#pf3364e00ef)" style="fill: none; stroke: #ff0000; stroke-width: 1.5"/>
    <path d="M 446.727273 577.961003 
L 446.727273 569.350786 
" clip-path="url(#pf3364e00ef)" style="fill: none; stroke: #ff0000; stroke-width: 1.5"/>
    <path d="M 450.024545 573.336153 
L 450.024545 564.213049 
" clip-path="url(#pf3364e00ef)" style="fill: none; stroke: #ff0000; stroke-width: 1.5"/>
    <path d="M 453.321818 568.379022 
L 453.321818 558.756909 
" clip-path="url(#pf3364e00ef)" style="fill: none; stroke: #ff0000; stroke-width: 1.5"/>
    <path d="M 456.619091 563.115815 
L 456.619091 553.013426 
" clip-path="url(#pf3364e00ef)" style="fill: none; stroke: #ff0000; stroke-width: 1.5"/>
    <path d="M 459.916364 557.577202 
L 459.916364 547.016281 
" clip-path="url(#pf3364e00ef)" style="fill: none; stroke: #ff0000; stroke-width: 1.5"/>
    <path d="M 463.213636 551.796062 
L 463.213636 540.800008 
" clip-path="url(#pf3364e00ef)" style="fill: none; stroke: #ff0000; stroke-width: 1.5"/>
    <path d="M 466.510909 545.805461 
L 466.510909 534.398568 
" clip-path="url(#pf3364e00ef)" style="fill: none; stroke: #ff0000; stroke-width: 1.5"/>
    <path d="M 469.808182 539.637122 
L 469.808182 527.844333 
" clip-path="url(#pf3364e00ef)" style="fill: none; stroke: #ff0000; stroke-width: 1.5"/>
    <path d="M 473.105455 533.320475 
L 473.105455 521.167483 
" clip-path="url(#pf3364e00ef)" style="fill: none; stroke: #ff0000; stroke-width: 1.5"/>
    <path d="M 476.402727 526.88229 
L 476.402727 514.395755 
" clip-path="url(#pf3364e00ef)" style="fill: none; stroke: #ff0000; stroke-width: 1.5"/>
    <path d="M 479.7 520.346767 
L 479.7 507.554454 
" clip-path="url(#pf3364e00ef)" style="fill: none; stroke: #ff0000; stroke-width: 1.5"/>
    <path d="M 482.997273 513.735929 
L 482.997273 500.666637 
" clip-path="url(#pf3364e00ef)" style="fill: none; stroke: #ff0000; stroke-width: 1.5"/>
    <path d="M 486.294545 507.070163 
L 486.294545 493.753387 
" clip-path="url(#pf3364e00ef)" style="fill: none; stroke: #ff0000; stroke-width: 1.5"/>
    <path d="M 489.591818 500.36875 
L 489.591818 486.834105 
" clip-path="url(#pf3364e00ef)" style="fill: none; stroke: #ff0000; stroke-width: 1.5"/>
    <path d="M 492.889091 493.650306 
L 492.889091 479.926773 
" clip-path="url(#pf3364e00ef)" style="fill: none; stroke: #ff0000; stroke-width: 1.5"/>
    <path d="M 496.186364 486.933048 
L 496.186364 473.048164 
" clip-path="url(#pf3364e00ef)" style="fill: none; stroke: #ff0000; stroke-width: 1.5"/>
    <path d="M 499.483636 480.234888 
L 499.483636 466.213971 
" clip-path="url(#pf3364e00ef)" style="fill: none; stroke: #ff0000; stroke-width: 1.5"/>
    <path d="M 502.780909 473.573345 
L 502.780909 459.438858 
" clip-path="url(#pf3364e00ef)" style="fill: none; stroke: #ff0000; stroke-width: 1.5"/>
    <path d="M 506.078182 466.96532 
L 506.078182 452.736444 
" clip-path="url(#pf3364e00ef)" style="fill: none; stroke: #ff0000; stroke-width: 1.5"/>
    <path d="M 509.375455 460.426775 
L 509.375455 446.119214 
" clip-path="url(#pf3364e00ef)" style="fill: none; stroke: #ff0000; stroke-width: 1.5"/>
    <path d="M 512.672727 453.972357 
L 512.672727 439.598394 
" clip-path="url(#pf3364e00ef)" style="fill: none; stroke: #ff0000; stroke-width: 1.5"/>
    <path d="M 515.97 447.615028 
L 515.97 433.1838 
" clip-path="url(#pf3364e00ef)" style="fill: none; stroke: #ff0000; stroke-width: 1.5"/>
    <path d="M 519.267273 441.365725 
L 519.267273 426.883688 
" clip-path="url(#pf3364e00ef)" style="fill: none; stroke: #ff0000; stroke-width: 1.5"/>
    <path d="M 522.564545 435.233117 
L 522.564545 420.704629 
" clip-path="url(#pf3364e00ef)" style="fill: none; stroke: #ff0000; stroke-width: 1.5"/>
    <path d="M 525.861818 429.223465 
L 525.861818 414.651432 
" clip-path="url(#pf3364e00ef)" style="fill: none; stroke: #ff0000; stroke-width: 1.5"/>
    <path d="M 529.159091 423.340616 
L 529.159091 408.727132 
" clip-path="url(#pf3364e00ef)" style="fill: none; stroke: #ff0000; stroke-width: 1.5"/>
    <path d="M 532.456364 417.586132 
L 532.456364 402.933044 
" clip-path="url(#pf3364e00ef)" style="fill: none; stroke: #ff0000; stroke-width: 1.5"/>
    <path d="M 535.753636 411.959548 
L 535.753636 397.268899 
" clip-path="url(#pf3364e00ef)" style="fill: none; stroke: #ff0000; stroke-width: 1.5"/>
    <path d="M 539.050909 406.458725 
L 539.050909 391.733039 
" clip-path="url(#pf3364e00ef)" style="fill: none; stroke: #ff0000; stroke-width: 1.5"/>
    <path d="M 542.348182 401.080267 
L 542.348182 386.322665 
" clip-path="url(#pf3364e00ef)" style="fill: none; stroke: #ff0000; stroke-width: 1.5"/>
    <path d="M 545.645455 395.819944 
L 545.645455 381.03411 
" clip-path="url(#pf3364e00ef)" style="fill: none; stroke: #ff0000; stroke-width: 1.5"/>
    <path d="M 548.942727 390.673097 
L 548.942727 375.86311 
" clip-path="url(#pf3364e00ef)" style="fill: none; stroke: #ff0000; stroke-width: 1.5"/>
    <path d="M 552.24 385.634966 
L 552.24 370.805055 
" clip-path="url(#pf3364e00ef)" style="fill: none; stroke: #ff0000; stroke-width: 1.5"/>
    <path d="M 555.537273 380.700931 
L 555.537273 365.855189 
" clip-path="url(#pf3364e00ef)" style="fill: none; stroke: #ff0000; stroke-width: 1.5"/>
    <path d="M 558.834545 375.866656 
L 558.834545 361.00875 
" clip-path="url(#pf3364e00ef)" style="fill: none; stroke: #ff0000; stroke-width: 1.5"/>
    <path d="M 562.131818 371.128134 
L 562.131818 356.261042 
" clip-path="url(#pf3364e00ef)" style="fill: none; stroke: #ff0000; stroke-width: 1.5"/>
    <path d="M 565.429091 366.481655 
L 565.429091 351.607457 
" clip-path="url(#pf3364e00ef)" style="fill: none; stroke: #ff0000; stroke-width: 1.5"/>
    <path d="M 568.726364 361.92372 
L 568.726364 347.043445 
" clip-path="url(#pf3364e00ef)" style="fill: none; stroke: #ff0000; stroke-width: 1.5"/>
    <path d="M 572.023636 357.450931 
L 572.023636 342.564465 
" clip-path="url(#pf3364e00ef)" style="fill: none; stroke: #ff0000; stroke-width: 1.5"/>
    <path d="M 575.320909 353.059881 
L 575.320909 338.165934 
" clip-path="url(#pf3364e00ef)" style="fill: none; stroke: #ff0000; stroke-width: 1.5"/>
    <path d="M 578.618182 348.747061 
L 578.618182 333.843207 
" clip-path="url(#pf3364e00ef)" style="fill: none; stroke: #ff0000; stroke-width: 1.5"/>
    <path d="M 581.915455 344.508811 
L 581.915455 329.591577 
" clip-path="url(#pf3364e00ef)" style="fill: none; stroke: #ff0000; stroke-width: 1.5"/>
    <path d="M 585.212727 340.341309 
L 585.212727 325.406332 
" clip-path="url(#pf3364e00ef)" style="fill: none; stroke: #ff0000; stroke-width: 1.5"/>
    <path d="M 588.51 336.240605 
L 588.51 321.282843 
" clip-path="url(#pf3364e00ef)" style="fill: none; stroke: #ff0000; stroke-width: 1.5"/>
    <path d="M 591.807273 332.20269 
L 591.807273 317.216685 
" clip-path="url(#pf3364e00ef)" style="fill: none; stroke: #ff0000; stroke-width: 1.5"/>
    <path d="M 595.104545 328.223594 
L 595.104545 313.203764 
" clip-path="url(#pf3364e00ef)" style="fill: none; stroke: #ff0000; stroke-width: 1.5"/>
    <path d="M 598.401818 324.299488 
L 598.401818 309.240446 
" clip-path="url(#pf3364e00ef)" style="fill: none; stroke: #ff0000; stroke-width: 1.5"/>
    <path d="M 601.699091 320.42679 
L 601.699091 305.323649 
" clip-path="url(#pf3364e00ef)" style="fill: none; stroke: #ff0000; stroke-width: 1.5"/>
    <path d="M 604.996364 316.602249 
L 604.996364 301.450909 
" clip-path="url(#pf3364e00ef)" style="fill: none; stroke: #ff0000; stroke-width: 1.5"/>
    <path d="M 608.293636 312.82301 
L 608.293636 297.620383 
" clip-path="url(#pf3364e00ef)" style="fill: none; stroke: #ff0000; stroke-width: 1.5"/>
    <path d="M 611.590909 309.086646 
L 611.590909 293.830812 
" clip-path="url(#pf3364e00ef)" style="fill: none; stroke: #ff0000; stroke-width: 1.5"/>
    <path d="M 614.888182 305.391165 
L 614.888182 290.081436 
" clip-path="url(#pf3364e00ef)" style="fill: none; stroke: #ff0000; stroke-width: 1.5"/>
    <path d="M 618.185455 301.73498 
L 618.185455 286.371878 
" clip-path="url(#pf3364e00ef)" style="fill: none; stroke: #ff0000; stroke-width: 1.5"/>
    <path d="M 621.482727 298.116856 
L 621.482727 282.702005 
" clip-path="url(#pf3364e00ef)" style="fill: none; stroke: #ff0000; stroke-width: 1.5"/>
    <path d="M 624.78 294.535841 
L 624.78 279.071792 
" clip-path="url(#pf3364e00ef)" style="fill: none; stroke: #ff0000; stroke-width: 1.5"/>
    <path d="M 628.077273 290.99117 
L 628.077273 275.481195 
" clip-path="url(#pf3364e00ef)" style="fill: none; stroke: #ff0000; stroke-width: 1.5"/>
    <path d="M 631.374545 287.482175 
L 631.374545 271.930045 
" clip-path="url(#pf3364e00ef)" style="fill: none; stroke: #ff0000; stroke-width: 1.5"/>
    <path d="M 634.671818 284.008189 
L 634.671818 268.41798 
" clip-path="url(#pf3364e00ef)" style="fill: none; stroke: #ff0000; stroke-width: 1.5"/>
    <path d="M 637.969091 280.568461 
L 637.969091 264.944396 
" clip-path="url(#pf3364e00ef)" style="fill: none; stroke: #ff0000; stroke-width: 1.5"/>
    <path d="M 641.266364 277.162084 
L 641.266364 261.508439 
" clip-path="url(#pf3364e00ef)" style="fill: none; stroke: #ff0000; stroke-width: 1.5"/>
    <path d="M 644.563636 273.787951 
L 644.563636 258.109007 
" clip-path="url(#pf3364e00ef)" style="fill: none; stroke: #ff0000; stroke-width: 1.5"/>
    <path d="M 647.860909 270.444732 
L 647.860909 254.744773 
" clip-path="url(#pf3364e00ef)" style="fill: none; stroke: #ff0000; stroke-width: 1.5"/>
    <path d="M 651.158182 267.130882 
L 651.158182 251.414219 
" clip-path="url(#pf3364e00ef)" style="fill: none; stroke: #ff0000; stroke-width: 1.5"/>
    <path d="M 654.455455 263.84467 
L 654.455455 248.115661 
" clip-path="url(#pf3364e00ef)" style="fill: none; stroke: #ff0000; stroke-width: 1.5"/>
    <path d="M 657.752727 260.584226 
L 657.752727 244.84729 
" clip-path="url(#pf3364e00ef)" style="fill: none; stroke: #ff0000; stroke-width: 1.5"/>
    <path d="M 661.05 257.347608 
L 661.05 241.607201 
" clip-path="url(#pf3364e00ef)" style="fill: none; stroke: #ff0000; stroke-width: 1.5"/>
    <path d="M 664.347273 254.132864 
L 664.347273 238.393433 
" clip-path="url(#pf3364e00ef)" style="fill: none; stroke: #ff0000; stroke-width: 1.5"/>
    <path d="M 667.644545 250.93811 
L 667.644545 235.204011 
" clip-path="url(#pf3364e00ef)" style="fill: none; stroke: #ff0000; stroke-width: 1.5"/>
    <path d="M 670.941818 247.761594 
L 670.941818 232.036993 
" clip-path="url(#pf3364e00ef)" style="fill: none; stroke: #ff0000; stroke-width: 1.5"/>
    <path d="M 674.239091 244.601761 
L 674.239091 228.890534 
" clip-path="url(#pf3364e00ef)" style="fill: none; stroke: #ff0000; stroke-width: 1.5"/>
    <path d="M 677.536364 241.45731 
L 677.536364 225.762944 
" clip-path="url(#pf3364e00ef)" style="fill: none; stroke: #ff0000; stroke-width: 1.5"/>
    <path d="M 680.833636 238.327244 
L 680.833636 222.652761 
" clip-path="url(#pf3364e00ef)" style="fill: none; stroke: #ff0000; stroke-width: 1.5"/>
    <path d="M 684.130909 235.210904 
L 684.130909 219.558808 
" clip-path="url(#pf3364e00ef)" style="fill: none; stroke: #ff0000; stroke-width: 1.5"/>
    <path d="M 687.428182 232.107992 
L 687.428182 216.480245 
" clip-path="url(#pf3364e00ef)" style="fill: none; stroke: #ff0000; stroke-width: 1.5"/>
    <path d="M 690.725455 229.018573 
L 690.725455 213.416592 
" clip-path="url(#pf3364e00ef)" style="fill: none; stroke: #ff0000; stroke-width: 1.5"/>
    <path d="M 694.022727 225.94305 
L 694.022727 210.367724 
" clip-path="url(#pf3364e00ef)" style="fill: none; stroke: #ff0000; stroke-width: 1.5"/>
    <path d="M 697.32 222.882118 
L 697.32 207.33383 
" clip-path="url(#pf3364e00ef)" style="fill: none; stroke: #ff0000; stroke-width: 1.5"/>
    <path d="M 700.617273 219.836685 
L 700.617273 204.315328 
" clip-path="url(#pf3364e00ef)" style="fill: none; stroke: #ff0000; stroke-width: 1.5"/>
    <path d="M 703.914545 216.807784 
L 703.914545 201.312764 
" clip-path="url(#pf3364e00ef)" style="fill: none; stroke: #ff0000; stroke-width: 1.5"/>
    <path d="M 707.211818 213.796463 
L 707.211818 198.32668 
" clip-path="url(#pf3364e00ef)" style="fill: none; stroke: #ff0000; stroke-width: 1.5"/>
    <path d="M 710.509091 210.803682 
L 710.509091 195.357489 
" clip-path="url(#pf3364e00ef)" style="fill: none; stroke: #ff0000; stroke-width: 1.5"/>
    <path d="M 713.806364 207.830217 
L 713.806364 192.405361 
" clip-path="url(#pf3364e00ef)" style="fill: none; stroke: #ff0000; stroke-width: 1.5"/>
    <path d="M 717.103636 204.876591 
L 717.103636 189.470142 
" clip-path="url(#pf3364e00ef)" style="fill: none; stroke: #ff0000; stroke-width: 1.5"/>
    <path d="M 720.400909 201.943027 
L 720.400909 186.551314 
" clip-path="url(#pf3364e00ef)" style="fill: none; stroke: #ff0000; stroke-width: 1.5"/>
    <path d="M 723.698182 199.029444 
L 723.698182 183.648007 
" clip-path="url(#pf3364e00ef)" style="fill: none; stroke: #ff0000; stroke-width: 1.5"/>
    <path d="M 726.995455 196.135473 
L 726.995455 180.759043 
" clip-path="url(#pf3364e00ef)" style="fill: none; stroke: #ff0000; stroke-width: 1.5"/>
    <path d="M 730.292727 193.260499 
L 730.292727 177.883029 
" clip-path="url(#pf3364e00ef)" style="fill: none; stroke: #ff0000; stroke-width: 1.5"/>
    <path d="M 733.59 190.403716 
L 733.59 175.018464 
" clip-path="url(#pf3364e00ef)" style="fill: none; stroke: #ff0000; stroke-width: 1.5"/>
    <path d="M 736.887273 187.564183 
L 736.887273 172.16385 
" clip-path="url(#pf3364e00ef)" style="fill: none; stroke: #ff0000; stroke-width: 1.5"/>
    <path d="M 740.184545 184.740874 
L 740.184545 169.317803 
" clip-path="url(#pf3364e00ef)" style="fill: none; stroke: #ff0000; stroke-width: 1.5"/>
    <path d="M 743.481818 181.932717 
L 743.481818 166.479138 
" clip-path="url(#pf3364e00ef)" style="fill: none; stroke: #ff0000; stroke-width: 1.5"/>
    <path d="M 746.779091 179.138611 
L 746.779091 163.646935 
" clip-path="url(#pf3364e00ef)" style="fill: none; stroke: #ff0000; stroke-width: 1.5"/>
    <path d="M 750.076364 176.357444 
L 750.076364 160.820572 
" clip-path="url(#pf3364e00ef)" style="fill: none; stroke: #ff0000; stroke-width: 1.5"/>
    <path d="M 753.373636 173.5881 
L 753.373636 157.999741 
" clip-path="url(#pf3364e00ef)" style="fill: none; stroke: #ff0000; stroke-width: 1.5"/>
    <path d="M 756.670909 170.829462 
L 756.670909 155.184431 
" clip-path="url(#pf3364e00ef)" style="fill: none; stroke: #ff0000; stroke-width: 1.5"/>
    <path d="M 759.968182 168.080434 
L 759.968182 152.374913 
" clip-path="url(#pf3364e00ef)" style="fill: none; stroke: #ff0000; stroke-width: 1.5"/>
    <path d="M 763.265455 165.339975 
L 763.265455 149.571707 
" clip-path="url(#pf3364e00ef)" style="fill: none; stroke: #ff0000; stroke-width: 1.5"/>
    <path d="M 766.562727 162.60714 
L 766.562727 146.77555 
" clip-path="url(#pf3364e00ef)" style="fill: none; stroke: #ff0000; stroke-width: 1.5"/>
    <path d="M 769.86 159.881139 
L 769.86 143.98737 
" clip-path="url(#pf3364e00ef)" style="fill: none; stroke: #ff0000; stroke-width: 1.5"/>
    <path d="M 773.157273 157.161404 
L 773.157273 141.208257 
" clip-path="url(#pf3364e00ef)" style="fill: none; stroke: #ff0000; stroke-width: 1.5"/>
    <path d="M 776.454545 154.447642 
L 776.454545 138.43944 
" clip-path="url(#pf3364e00ef)" style="fill: none; stroke: #ff0000; stroke-width: 1.5"/>
    <path d="M 779.751818 151.739884 
L 779.751818 135.682256 
" clip-path="url(#pf3364e00ef)" style="fill: none; stroke: #ff0000; stroke-width: 1.5"/>
    <path d="M 783.049091 149.038498 
L 783.049091 132.938117 
" clip-path="url(#pf3364e00ef)" style="fill: none; stroke: #ff0000; stroke-width: 1.5"/>
    <path d="M 786.346364 146.344177 
L 786.346364 130.208468 
" clip-path="url(#pf3364e00ef)" style="fill: none; stroke: #ff0000; stroke-width: 1.5"/>
    <path d="M 789.643636 143.657892 
L 789.643636 127.494722 
" clip-path="url(#pf3364e00ef)" style="fill: none; stroke: #ff0000; stroke-width: 1.5"/>
    <path d="M 792.940909 140.9808 
L 792.940909 124.798187 
" clip-path="url(#pf3364e00ef)" style="fill: none; stroke: #ff0000; stroke-width: 1.5"/>
    <path d="M 796.238182 138.314141 
L 796.238182 122.119977 
" clip-path="url(#pf3364e00ef)" style="fill: none; stroke: #ff0000; stroke-width: 1.5"/>
    <path d="M 799.535455 135.659101 
L 799.535455 119.460907 
" clip-path="url(#pf3364e00ef)" style="fill: none; stroke: #ff0000; stroke-width: 1.5"/>
    <path d="M 802.832727 133.01668 
L 802.832727 116.821392 
" clip-path="url(#pf3364e00ef)" style="fill: none; stroke: #ff0000; stroke-width: 1.5"/>
    <path d="M 806.13 130.387561 
L 806.13 114.201331 
" clip-path="url(#pf3364e00ef)" style="fill: none; stroke: #ff0000; stroke-width: 1.5"/>
    <path d="M 809.427273 127.771983 
L 809.427273 111.6 
" clip-path="url(#pf3364e00ef)" style="fill: none; stroke: #ff0000; stroke-width: 1.5"/>
   </g>
   <g id="line2d_19">
    <path d="M 149.972727 614.315547 
L 166.459091 614.390844 
L 179.648182 614.180787 
L 202.729091 613.699472 
L 215.918182 613.673585 
L 235.701818 613.920173 
L 268.674545 614.441496 
L 285.160909 614.399907 
L 304.944545 614.081846 
L 328.025455 613.460524 
L 364.295455 612.25829 
L 374.187273 611.702774 
L 380.781818 611.161227 
L 387.376364 610.407701 
L 393.970909 609.360171 
L 400.565455 607.920274 
L 403.862727 607.016967 
L 407.16 605.968746 
L 410.457273 604.755945 
L 413.754545 603.356494 
L 417.051818 601.745938 
L 420.349091 599.897778 
L 423.646364 597.784246 
L 426.943636 595.377516 
L 430.240909 592.651343 
L 433.538182 589.582968 
L 436.835455 586.155087 
L 440.132727 582.357593 
L 443.43 578.188795 
L 446.727273 573.655894 
L 450.024545 568.774601 
L 453.321818 563.567966 
L 456.619091 558.064621 
L 459.916364 552.296742 
L 466.510909 540.102015 
L 473.105455 527.243979 
L 482.997273 507.201283 
L 506.078182 459.850882 
L 512.672727 446.785376 
L 519.267273 434.124706 
L 525.861818 421.937449 
L 532.456364 410.259588 
L 539.050909 399.095882 
L 545.645455 388.427027 
L 552.24 378.22001 
L 558.834545 368.437703 
L 565.429091 359.044556 
L 572.023636 350.007698 
L 578.618182 341.295134 
L 585.212727 332.873821 
L 595.104545 320.713679 
L 604.996364 309.026579 
L 614.888182 297.736301 
L 624.78 286.803817 
L 634.671818 276.213085 
L 644.563636 265.948479 
L 654.455455 255.980166 
L 667.644545 243.07106 
L 680.833636 230.490003 
L 697.32 215.107974 
L 710.509091 203.080585 
L 723.698182 191.338725 
L 736.887273 179.864017 
L 753.373636 165.79392 
L 773.157273 149.184831 
L 789.643636 135.576307 
L 802.832727 124.919036 
L 809.427273 119.685992 
L 809.427273 119.685992 
" clip-path="url(#pf3364e00ef)" style="fill: none; stroke: #1f77b4; stroke-width: 1.5; stroke-linecap: square"/>
   </g>
   <g id="patch_3">
    <path d="M 117 640.8 
L 117 86.4 
" style="fill: none; stroke: #000000; stroke-width: 0.8; stroke-linejoin: miter; stroke-linecap: square"/>
   </g>
   <g id="patch_4">
    <path d="M 842.4 640.8 
L 842.4 86.4 
" style="fill: none; stroke: #000000; stroke-width: 0.8; stroke-linejoin: miter; stroke-linecap: square"/>
   </g>
   <g id="patch_5">
    <path d="M 117 640.8 
L 842.4 640.8 
" style="fill: none; stroke: #000000; stroke-width: 0.8; stroke-linejoin: miter; stroke-linecap: square"/>
   </g>
   <g id="patch_6">
    <path d="M 117 86.4 
L 842.4 86.4 
" style="fill: none; stroke: #000000; stroke-width: 0.8; stroke-linejoin: miter; stroke-linecap: square"/>
   </g>
   <g id="text_21">
    <!-- Integral of difference between twist and no-twist wilson action. Averaged over set of jackknife data paired with FS reweighting. -->
    <g transform="translate(97.669688 80.4) scale(0.12 -0.12)">
     <defs>
      <path id="DejaVuSans-49" d="M 628 4666 
L 1259 4666 
L 1259 0 
L 628 0 
L 628 4666 
z
" transform="scale(0.015625)"/>
      <path id="DejaVuSans-6e" d="M 3513 2113 
L 3513 0 
L 2938 0 
L 2938 2094 
Q 2938 2591 2744 2837 
Q 2550 3084 2163 3084 
Q 1697 3084 1428 2787 
Q 1159 2491 1159 1978 
L 1159 0 
L 581 0 
L 581 3500 
L 1159 3500 
L 1159 2956 
Q 1366 3272 1645 3428 
Q 1925 3584 2291 3584 
Q 2894 3584 3203 3211 
Q 3513 2838 3513 2113 
z
" transform="scale(0.015625)"/>
      <path id="DejaVuSans-74" d="M 1172 4494 
L 1172 3500 
L 2356 3500 
L 2356 3053 
L 1172 3053 
L 1172 1153 
Q 1172 725 1289 603 
Q 1406 481 1766 481 
L 2356 481 
L 2356 0 
L 1766 0 
Q 1100 0 847 248 
Q 594 497 594 1153 
L 594 3053 
L 172 3053 
L 172 3500 
L 594 3500 
L 594 4494 
L 1172 4494 
z
" transform="scale(0.015625)"/>
      <path id="DejaVuSans-65" d="M 3597 1894 
L 3597 1613 
L 953 1613 
Q 991 1019 1311 708 
Q 1631 397 2203 397 
Q 2534 397 2845 478 
Q 3156 559 3463 722 
L 3463 178 
Q 3153 47 2828 -22 
Q 2503 -91 2169 -91 
Q 1331 -91 842 396 
Q 353 884 353 1716 
Q 353 2575 817 3079 
Q 1281 3584 2069 3584 
Q 2775 3584 3186 3129 
Q 3597 2675 3597 1894 
z
M 3022 2063 
Q 3016 2534 2758 2815 
Q 2500 3097 2075 3097 
Q 1594 3097 1305 2825 
Q 1016 2553 972 2059 
L 3022 2063 
z
" transform="scale(0.015625)"/>
      <path id="DejaVuSans-67" d="M 2906 1791 
Q 2906 2416 2648 2759 
Q 2391 3103 1925 3103 
Q 1463 3103 1205 2759 
Q 947 2416 947 1791 
Q 947 1169 1205 825 
Q 1463 481 1925 481 
Q 2391 481 2648 825 
Q 2906 1169 2906 1791 
z
M 3481 434 
Q 3481 -459 3084 -895 
Q 2688 -1331 1869 -1331 
Q 1566 -1331 1297 -1286 
Q 1028 -1241 775 -1147 
L 775 -588 
Q 1028 -725 1275 -790 
Q 1522 -856 1778 -856 
Q 2344 -856 2625 -561 
Q 2906 -266 2906 331 
L 2906 616 
Q 2728 306 2450 153 
Q 2172 0 1784 0 
Q 1141 0 747 490 
Q 353 981 353 1791 
Q 353 2603 747 3093 
Q 1141 3584 1784 3584 
Q 2172 3584 2450 3431 
Q 2728 3278 2906 2969 
L 2906 3500 
L 3481 3500 
L 3481 434 
z
" transform="scale(0.015625)"/>
      <path id="DejaVuSans-72" d="M 2631 2963 
Q 2534 3019 2420 3045 
Q 2306 3072 2169 3072 
Q 1681 3072 1420 2755 
Q 1159 2438 1159 1844 
L 1159 0 
L 581 0 
L 581 3500 
L 1159 3500 
L 1159 2956 
Q 1341 3275 1631 3429 
Q 1922 3584 2338 3584 
Q 2397 3584 2469 3576 
Q 2541 3569 2628 3553 
L 2631 2963 
z
" transform="scale(0.015625)"/>
      <path id="DejaVuSans-61" d="M 2194 1759 
Q 1497 1759 1228 1600 
Q 959 1441 959 1056 
Q 959 750 1161 570 
Q 1363 391 1709 391 
Q 2188 391 2477 730 
Q 2766 1069 2766 1631 
L 2766 1759 
L 2194 1759 
z
M 3341 1997 
L 3341 0 
L 2766 0 
L 2766 531 
Q 2569 213 2275 61 
Q 1981 -91 1556 -91 
Q 1019 -91 701 211 
Q 384 513 384 1019 
Q 384 1609 779 1909 
Q 1175 2209 1959 2209 
L 2766 2209 
L 2766 2266 
Q 2766 2663 2505 2880 
Q 2244 3097 1772 3097 
Q 1472 3097 1187 3025 
Q 903 2953 641 2809 
L 641 3341 
Q 956 3463 1253 3523 
Q 1550 3584 1831 3584 
Q 2591 3584 2966 3190 
Q 3341 2797 3341 1997 
z
" transform="scale(0.015625)"/>
      <path id="DejaVuSans-6c" d="M 603 4863 
L 1178 4863 
L 1178 0 
L 603 0 
L 603 4863 
z
" transform="scale(0.015625)"/>
      <path id="DejaVuSans-20" transform="scale(0.015625)"/>
      <path id="DejaVuSans-6f" d="M 1959 3097 
Q 1497 3097 1228 2736 
Q 959 2375 959 1747 
Q 959 1119 1226 758 
Q 1494 397 1959 397 
Q 2419 397 2687 759 
Q 2956 1122 2956 1747 
Q 2956 2369 2687 2733 
Q 2419 3097 1959 3097 
z
M 1959 3584 
Q 2709 3584 3137 3096 
Q 3566 2609 3566 1747 
Q 3566 888 3137 398 
Q 2709 -91 1959 -91 
Q 1206 -91 779 398 
Q 353 888 353 1747 
Q 353 2609 779 3096 
Q 1206 3584 1959 3584 
z
" transform="scale(0.015625)"/>
      <path id="DejaVuSans-66" d="M 2375 4863 
L 2375 4384 
L 1825 4384 
Q 1516 4384 1395 4259 
Q 1275 4134 1275 3809 
L 1275 3500 
L 2222 3500 
L 2222 3053 
L 1275 3053 
L 1275 0 
L 697 0 
L 697 3053 
L 147 3053 
L 147 3500 
L 697 3500 
L 697 3744 
Q 697 4328 969 4595 
Q 1241 4863 1831 4863 
L 2375 4863 
z
" transform="scale(0.015625)"/>
      <path id="DejaVuSans-64" d="M 2906 2969 
L 2906 4863 
L 3481 4863 
L 3481 0 
L 2906 0 
L 2906 525 
Q 2725 213 2448 61 
Q 2172 -91 1784 -91 
Q 1150 -91 751 415 
Q 353 922 353 1747 
Q 353 2572 751 3078 
Q 1150 3584 1784 3584 
Q 2172 3584 2448 3432 
Q 2725 3281 2906 2969 
z
M 947 1747 
Q 947 1113 1208 752 
Q 1469 391 1925 391 
Q 2381 391 2643 752 
Q 2906 1113 2906 1747 
Q 2906 2381 2643 2742 
Q 2381 3103 1925 3103 
Q 1469 3103 1208 2742 
Q 947 2381 947 1747 
z
" transform="scale(0.015625)"/>
      <path id="DejaVuSans-69" d="M 603 3500 
L 1178 3500 
L 1178 0 
L 603 0 
L 603 3500 
z
M 603 4863 
L 1178 4863 
L 1178 4134 
L 603 4134 
L 603 4863 
z
" transform="scale(0.015625)"/>
      <path id="DejaVuSans-63" d="M 3122 3366 
L 3122 2828 
Q 2878 2963 2633 3030 
Q 2388 3097 2138 3097 
Q 1578 3097 1268 2742 
Q 959 2388 959 1747 
Q 959 1106 1268 751 
Q 1578 397 2138 397 
Q 2388 397 2633 464 
Q 2878 531 3122 666 
L 3122 134 
Q 2881 22 2623 -34 
Q 2366 -91 2075 -91 
Q 1284 -91 818 406 
Q 353 903 353 1747 
Q 353 2603 823 3093 
Q 1294 3584 2113 3584 
Q 2378 3584 2631 3529 
Q 2884 3475 3122 3366 
z
" transform="scale(0.015625)"/>
      <path id="DejaVuSans-62" d="M 3116 1747 
Q 3116 2381 2855 2742 
Q 2594 3103 2138 3103 
Q 1681 3103 1420 2742 
Q 1159 2381 1159 1747 
Q 1159 1113 1420 752 
Q 1681 391 2138 391 
Q 2594 391 2855 752 
Q 3116 1113 3116 1747 
z
M 1159 2969 
Q 1341 3281 1617 3432 
Q 1894 3584 2278 3584 
Q 2916 3584 3314 3078 
Q 3713 2572 3713 1747 
Q 3713 922 3314 415 
Q 2916 -91 2278 -91 
Q 1894 -91 1617 61 
Q 1341 213 1159 525 
L 1159 0 
L 581 0 
L 581 4863 
L 1159 4863 
L 1159 2969 
z
" transform="scale(0.015625)"/>
      <path id="DejaVuSans-77" d="M 269 3500 
L 844 3500 
L 1563 769 
L 2278 3500 
L 2956 3500 
L 3675 769 
L 4391 3500 
L 4966 3500 
L 4050 0 
L 3372 0 
L 2619 2869 
L 1863 0 
L 1184 0 
L 269 3500 
z
" transform="scale(0.015625)"/>
      <path id="DejaVuSans-73" d="M 2834 3397 
L 2834 2853 
Q 2591 2978 2328 3040 
Q 2066 3103 1784 3103 
Q 1356 3103 1142 2972 
Q 928 2841 928 2578 
Q 928 2378 1081 2264 
Q 1234 2150 1697 2047 
L 1894 2003 
Q 2506 1872 2764 1633 
Q 3022 1394 3022 966 
Q 3022 478 2636 193 
Q 2250 -91 1575 -91 
Q 1294 -91 989 -36 
Q 684 19 347 128 
L 347 722 
Q 666 556 975 473 
Q 1284 391 1588 391 
Q 1994 391 2212 530 
Q 2431 669 2431 922 
Q 2431 1156 2273 1281 
Q 2116 1406 1581 1522 
L 1381 1569 
Q 847 1681 609 1914 
Q 372 2147 372 2553 
Q 372 3047 722 3315 
Q 1072 3584 1716 3584 
Q 2034 3584 2315 3537 
Q 2597 3491 2834 3397 
z
" transform="scale(0.015625)"/>
      <path id="DejaVuSans-2d" d="M 313 2009 
L 1997 2009 
L 1997 1497 
L 313 1497 
L 313 2009 
z
" transform="scale(0.015625)"/>
      <path id="DejaVuSans-41" d="M 2188 4044 
L 1331 1722 
L 3047 1722 
L 2188 4044 
z
M 1831 4666 
L 2547 4666 
L 4325 0 
L 3669 0 
L 3244 1197 
L 1141 1197 
L 716 0 
L 50 0 
L 1831 4666 
z
" transform="scale(0.015625)"/>
      <path id="DejaVuSans-76" d="M 191 3500 
L 800 3500 
L 1894 563 
L 2988 3500 
L 3597 3500 
L 2284 0 
L 1503 0 
L 191 3500 
z
" transform="scale(0.015625)"/>
      <path id="DejaVuSans-6a" d="M 603 3500 
L 1178 3500 
L 1178 -63 
Q 1178 -731 923 -1031 
Q 669 -1331 103 -1331 
L -116 -1331 
L -116 -844 
L 38 -844 
Q 366 -844 484 -692 
Q 603 -541 603 -63 
L 603 3500 
z
M 603 4863 
L 1178 4863 
L 1178 4134 
L 603 4134 
L 603 4863 
z
" transform="scale(0.015625)"/>
      <path id="DejaVuSans-6b" d="M 581 4863 
L 1159 4863 
L 1159 1991 
L 2875 3500 
L 3609 3500 
L 1753 1863 
L 3688 0 
L 2938 0 
L 1159 1709 
L 1159 0 
L 581 0 
L 581 4863 
z
" transform="scale(0.015625)"/>
      <path id="DejaVuSans-70" d="M 1159 525 
L 1159 -1331 
L 581 -1331 
L 581 3500 
L 1159 3500 
L 1159 2969 
Q 1341 3281 1617 3432 
Q 1894 3584 2278 3584 
Q 2916 3584 3314 3078 
Q 3713 2572 3713 1747 
Q 3713 922 3314 415 
Q 2916 -91 2278 -91 
Q 1894 -91 1617 61 
Q 1341 213 1159 525 
z
M 3116 1747 
Q 3116 2381 2855 2742 
Q 2594 3103 2138 3103 
Q 1681 3103 1420 2742 
Q 1159 2381 1159 1747 
Q 1159 1113 1420 752 
Q 1681 391 2138 391 
Q 2594 391 2855 752 
Q 3116 1113 3116 1747 
z
" transform="scale(0.015625)"/>
      <path id="DejaVuSans-68" d="M 3513 2113 
L 3513 0 
L 2938 0 
L 2938 2094 
Q 2938 2591 2744 2837 
Q 2550 3084 2163 3084 
Q 1697 3084 1428 2787 
Q 1159 2491 1159 1978 
L 1159 0 
L 581 0 
L 581 4863 
L 1159 4863 
L 1159 2956 
Q 1366 3272 1645 3428 
Q 1925 3584 2291 3584 
Q 2894 3584 3203 3211 
Q 3513 2838 3513 2113 
z
" transform="scale(0.015625)"/>
      <path id="DejaVuSans-46" d="M 628 4666 
L 3309 4666 
L 3309 4134 
L 1259 4134 
L 1259 2759 
L 3109 2759 
L 3109 2228 
L 1259 2228 
L 1259 0 
L 628 0 
L 628 4666 
z
" transform="scale(0.015625)"/>
      <path id="DejaVuSans-53" d="M 3425 4513 
L 3425 3897 
Q 3066 4069 2747 4153 
Q 2428 4238 2131 4238 
Q 1616 4238 1336 4038 
Q 1056 3838 1056 3469 
Q 1056 3159 1242 3001 
Q 1428 2844 1947 2747 
L 2328 2669 
Q 3034 2534 3370 2195 
Q 3706 1856 3706 1288 
Q 3706 609 3251 259 
Q 2797 -91 1919 -91 
Q 1588 -91 1214 -16 
Q 841 59 441 206 
L 441 856 
Q 825 641 1194 531 
Q 1563 422 1919 422 
Q 2459 422 2753 634 
Q 3047 847 3047 1241 
Q 3047 1584 2836 1778 
Q 2625 1972 2144 2069 
L 1759 2144 
Q 1053 2284 737 2584 
Q 422 2884 422 3419 
Q 422 4038 858 4394 
Q 1294 4750 2059 4750 
Q 2388 4750 2728 4690 
Q 3069 4631 3425 4513 
z
" transform="scale(0.015625)"/>
     </defs>
     <use xlink:href="#DejaVuSans-49"/>
     <use xlink:href="#DejaVuSans-6e" x="29.492188"/>
     <use xlink:href="#DejaVuSans-74" x="92.871094"/>
     <use xlink:href="#DejaVuSans-65" x="132.080078"/>
     <use xlink:href="#DejaVuSans-67" x="193.603516"/>
     <use xlink:href="#DejaVuSans-72" x="257.080078"/>
     <use xlink:href="#DejaVuSans-61" x="298.193359"/>
     <use xlink:href="#DejaVuSans-6c" x="359.472656"/>
     <use xlink:href="#DejaVuSans-20" x="387.255859"/>
     <use xlink:href="#DejaVuSans-6f" x="419.042969"/>
     <use xlink:href="#DejaVuSans-66" x="480.224609"/>
     <use xlink:href="#DejaVuSans-20" x="515.429688"/>
     <use xlink:href="#DejaVuSans-64" x="547.216797"/>
     <use xlink:href="#DejaVuSans-69" x="610.693359"/>
     <use xlink:href="#DejaVuSans-66" x="638.476562"/>
     <use xlink:href="#DejaVuSans-66" x="673.681641"/>
     <use xlink:href="#DejaVuSans-65" x="708.886719"/>
     <use xlink:href="#DejaVuSans-72" x="770.410156"/>
     <use xlink:href="#DejaVuSans-65" x="809.273438"/>
     <use xlink:href="#DejaVuSans-6e" x="870.796875"/>
     <use xlink:href="#DejaVuSans-63" x="934.175781"/>
     <use xlink:href="#DejaVuSans-65" x="989.15625"/>
     <use xlink:href="#DejaVuSans-20" x="1050.679688"/>
     <use xlink:href="#DejaVuSans-62" x="1082.466797"/>
     <use xlink:href="#DejaVuSans-65" x="1145.943359"/>
     <use xlink:href="#DejaVuSans-74" x="1207.466797"/>
     <use xlink:href="#DejaVuSans-77" x="1246.675781"/>
     <use xlink:href="#DejaVuSans-65" x="1328.462891"/>
     <use xlink:href="#DejaVuSans-65" x="1389.986328"/>
     <use xlink:href="#DejaVuSans-6e" x="1451.509766"/>
     <use xlink:href="#DejaVuSans-20" x="1514.888672"/>
     <use xlink:href="#DejaVuSans-74" x="1546.675781"/>
     <use xlink:href="#DejaVuSans-77" x="1585.884766"/>
     <use xlink:href="#DejaVuSans-69" x="1667.671875"/>
     <use xlink:href="#DejaVuSans-73" x="1695.455078"/>
     <use xlink:href="#DejaVuSans-74" x="1747.554688"/>
     <use xlink:href="#DejaVuSans-20" x="1786.763672"/>
     <use xlink:href="#DejaVuSans-61" x="1818.550781"/>
     <use xlink:href="#DejaVuSans-6e" x="1879.830078"/>
     <use xlink:href="#DejaVuSans-64" x="1943.208984"/>
     <use xlink:href="#DejaVuSans-20" x="2006.685547"/>
     <use xlink:href="#DejaVuSans-6e" x="2038.472656"/>
     <use xlink:href="#DejaVuSans-6f" x="2101.851562"/>
     <use xlink:href="#DejaVuSans-2d" x="2164.908203"/>
     <use xlink:href="#DejaVuSans-74" x="2200.992188"/>
     <use xlink:href="#DejaVuSans-77" x="2240.201172"/>
     <use xlink:href="#DejaVuSans-69" x="2321.988281"/>
     <use xlink:href="#DejaVuSans-73" x="2349.771484"/>
     <use xlink:href="#DejaVuSans-74" x="2401.871094"/>
     <use xlink:href="#DejaVuSans-20" x="2441.080078"/>
     <use xlink:href="#DejaVuSans-77" x="2472.867188"/>
     <use xlink:href="#DejaVuSans-69" x="2554.654297"/>
     <use xlink:href="#DejaVuSans-6c" x="2582.4375"/>
     <use xlink:href="#DejaVuSans-73" x="2610.220703"/>
     <use xlink:href="#DejaVuSans-6f" x="2662.320312"/>
     <use xlink:href="#DejaVuSans-6e" x="2723.501953"/>
     <use xlink:href="#DejaVuSans-20" x="2786.880859"/>
     <use xlink:href="#DejaVuSans-61" x="2818.667969"/>
     <use xlink:href="#DejaVuSans-63" x="2879.947266"/>
     <use xlink:href="#DejaVuSans-74" x="2934.927734"/>
     <use xlink:href="#DejaVuSans-69" x="2974.136719"/>
     <use xlink:href="#DejaVuSans-6f" x="3001.919922"/>
     <use xlink:href="#DejaVuSans-6e" x="3063.101562"/>
     <use xlink:href="#DejaVuSans-2e" x="3126.480469"/>
     <use xlink:href="#DejaVuSans-20" x="3158.267578"/>
     <use xlink:href="#DejaVuSans-41" x="3190.054688"/>
     <use xlink:href="#DejaVuSans-76" x="3252.587891"/>
     <use xlink:href="#DejaVuSans-65" x="3311.767578"/>
     <use xlink:href="#DejaVuSans-72" x="3373.291016"/>
     <use xlink:href="#DejaVuSans-61" x="3414.404297"/>
     <use xlink:href="#DejaVuSans-67" x="3475.683594"/>
     <use xlink:href="#DejaVuSans-65" x="3539.160156"/>
     <use xlink:href="#DejaVuSans-64" x="3600.683594"/>
     <use xlink:href="#DejaVuSans-20" x="3664.160156"/>
     <use xlink:href="#DejaVuSans-6f" x="3695.947266"/>
     <use xlink:href="#DejaVuSans-76" x="3757.128906"/>
     <use xlink:href="#DejaVuSans-65" x="3816.308594"/>
     <use xlink:href="#DejaVuSans-72" x="3877.832031"/>
     <use xlink:href="#DejaVuSans-20" x="3918.945312"/>
     <use xlink:href="#DejaVuSans-73" x="3950.732422"/>
     <use xlink:href="#DejaVuSans-65" x="4002.832031"/>
     <use xlink:href="#DejaVuSans-74" x="4064.355469"/>
     <use xlink:href="#DejaVuSans-20" x="4103.564453"/>
     <use xlink:href="#DejaVuSans-6f" x="4135.351562"/>
     <use xlink:href="#DejaVuSans-66" x="4196.533203"/>
     <use xlink:href="#DejaVuSans-20" x="4231.738281"/>
     <use xlink:href="#DejaVuSans-6a" x="4263.525391"/>
     <use xlink:href="#DejaVuSans-61" x="4291.308594"/>
     <use xlink:href="#DejaVuSans-63" x="4352.587891"/>
     <use xlink:href="#DejaVuSans-6b" x="4407.568359"/>
     <use xlink:href="#DejaVuSans-6b" x="4465.478516"/>
     <use xlink:href="#DejaVuSans-6e" x="4523.388672"/>
     <use xlink:href="#DejaVuSans-69" x="4586.767578"/>
     <use xlink:href="#DejaVuSans-66" x="4614.550781"/>
     <use xlink:href="#DejaVuSans-65" x="4649.755859"/>
     <use xlink:href="#DejaVuSans-20" x="4711.279297"/>
     <use xlink:href="#DejaVuSans-64" x="4743.066406"/>
     <use xlink:href="#DejaVuSans-61" x="4806.542969"/>
     <use xlink:href="#DejaVuSans-74" x="4867.822266"/>
     <use xlink:href="#DejaVuSans-61" x="4907.03125"/>
     <use xlink:href="#DejaVuSans-20" x="4968.310547"/>
     <use xlink:href="#DejaVuSans-70" x="5000.097656"/>
     <use xlink:href="#DejaVuSans-61" x="5063.574219"/>
     <use xlink:href="#DejaVuSans-69" x="5124.853516"/>
     <use xlink:href="#DejaVuSans-72" x="5152.636719"/>
     <use xlink:href="#DejaVuSans-65" x="5191.5"/>
     <use xlink:href="#DejaVuSans-64" x="5253.023438"/>
     <use xlink:href="#DejaVuSans-20" x="5316.5"/>
     <use xlink:href="#DejaVuSans-77" x="5348.287109"/>
     <use xlink:href="#DejaVuSans-69" x="5430.074219"/>
     <use xlink:href="#DejaVuSans-74" x="5457.857422"/>
     <use xlink:href="#DejaVuSans-68" x="5497.066406"/>
     <use xlink:href="#DejaVuSans-20" x="5560.445312"/>
     <use xlink:href="#DejaVuSans-46" x="5592.232422"/>
     <use xlink:href="#DejaVuSans-53" x="5648.001953"/>
     <use xlink:href="#DejaVuSans-20" x="5711.478516"/>
     <use xlink:href="#DejaVuSans-72" x="5743.265625"/>
     <use xlink:href="#DejaVuSans-65" x="5782.128906"/>
     <use xlink:href="#DejaVuSans-77" x="5843.652344"/>
     <use xlink:href="#DejaVuSans-65" x="5925.439453"/>
     <use xlink:href="#DejaVuSans-69" x="5986.962891"/>
     <use xlink:href="#DejaVuSans-67" x="6014.746094"/>
     <use xlink:href="#DejaVuSans-68" x="6078.222656"/>
     <use xlink:href="#DejaVuSans-74" x="6141.601562"/>
     <use xlink:href="#DejaVuSans-69" x="6180.810547"/>
     <use xlink:href="#DejaVuSans-6e" x="6208.59375"/>
     <use xlink:href="#DejaVuSans-67" x="6271.972656"/>
     <use xlink:href="#DejaVuSans-2e" x="6335.449219"/>
    </g>
   </g>
  </g>
  <g id="text_22">
   <!-- Twist coefficients 0 and 1. N=10 Jackknife bins -->
   <g transform="translate(0 720) scale(0.1 -0.1)">
    <defs>
     <path id="DejaVuSans-Oblique-54" d="M 378 4666 
L 4325 4666 
L 4225 4134 
L 2559 4134 
L 1759 0 
L 1125 0 
L 1925 4134 
L 275 4134 
L 378 4666 
z
" transform="scale(0.015625)"/>
     <path id="DejaVuSans-Oblique-77" d="M 544 3500 
L 1113 3500 
L 1259 684 
L 2566 3500 
L 3231 3500 
L 3425 684 
L 4666 3500 
L 5241 3500 
L 3641 0 
L 2969 0 
L 2797 2900 
L 1459 0 
L 781 0 
L 544 3500 
z
" transform="scale(0.015625)"/>
     <path id="DejaVuSans-Oblique-69" d="M 1172 4863 
L 1747 4863 
L 1606 4134 
L 1031 4134 
L 1172 4863 
z
M 909 3500 
L 1484 3500 
L 800 0 
L 225 0 
L 909 3500 
z
" transform="scale(0.015625)"/>
     <path id="DejaVuSans-Oblique-73" d="M 3200 3397 
L 3091 2853 
Q 2863 2978 2609 3040 
Q 2356 3103 2088 3103 
Q 1634 3103 1373 2948 
Q 1113 2794 1113 2528 
Q 1113 2219 1719 2053 
Q 1766 2041 1788 2034 
L 1972 1978 
Q 2547 1819 2739 1644 
Q 2931 1469 2931 1166 
Q 2931 609 2489 259 
Q 2047 -91 1331 -91 
Q 1053 -91 747 -37 
Q 441 16 72 128 
L 184 722 
Q 500 559 806 475 
Q 1113 391 1394 391 
Q 1816 391 2080 572 
Q 2344 753 2344 1031 
Q 2344 1331 1650 1516 
L 1591 1531 
L 1394 1581 
Q 956 1697 753 1886 
Q 550 2075 550 2369 
Q 550 2928 970 3256 
Q 1391 3584 2113 3584 
Q 2397 3584 2667 3537 
Q 2938 3491 3200 3397 
z
" transform="scale(0.015625)"/>
     <path id="DejaVuSans-Oblique-20" transform="scale(0.015625)"/>
     <path id="DejaVuSans-Oblique-63" d="M 3431 3366 
L 3316 2797 
Q 3109 2947 2876 3022 
Q 2644 3097 2394 3097 
Q 2119 3097 1870 3000 
Q 1622 2903 1453 2725 
Q 1184 2453 1037 2087 
Q 891 1722 891 1331 
Q 891 859 1127 628 
Q 1363 397 1844 397 
Q 2081 397 2348 469 
Q 2616 541 2906 684 
L 2797 116 
Q 2547 13 2283 -39 
Q 2019 -91 1741 -91 
Q 1044 -91 669 257 
Q 294 606 294 1253 
Q 294 1797 489 2255 
Q 684 2713 1069 3078 
Q 1331 3328 1684 3456 
Q 2038 3584 2456 3584 
Q 2700 3584 2940 3529 
Q 3181 3475 3431 3366 
z
" transform="scale(0.015625)"/>
     <path id="DejaVuSans-Oblique-6f" d="M 1625 -91 
Q 1009 -91 651 289 
Q 294 669 294 1325 
Q 294 1706 417 2101 
Q 541 2497 738 2766 
Q 1047 3184 1428 3384 
Q 1809 3584 2291 3584 
Q 2888 3584 3255 3212 
Q 3622 2841 3622 2241 
Q 3622 1825 3500 1412 
Q 3378 1000 3181 728 
Q 2875 309 2494 109 
Q 2113 -91 1625 -91 
z
M 891 1344 
Q 891 869 1089 633 
Q 1288 397 1691 397 
Q 2269 397 2648 901 
Q 3028 1406 3028 2181 
Q 3028 2634 2825 2865 
Q 2622 3097 2228 3097 
Q 1903 3097 1650 2945 
Q 1397 2794 1197 2484 
Q 1050 2253 970 1956 
Q 891 1659 891 1344 
z
" transform="scale(0.015625)"/>
     <path id="DejaVuSans-Oblique-65" d="M 3078 2063 
Q 3088 2113 3092 2166 
Q 3097 2219 3097 2272 
Q 3097 2653 2873 2875 
Q 2650 3097 2266 3097 
Q 1838 3097 1509 2826 
Q 1181 2556 1013 2059 
L 3078 2063 
z
M 3578 1613 
L 903 1613 
Q 884 1494 878 1425 
Q 872 1356 872 1306 
Q 872 872 1139 634 
Q 1406 397 1894 397 
Q 2269 397 2603 481 
Q 2938 566 3225 728 
L 3116 159 
Q 2806 34 2476 -28 
Q 2147 -91 1806 -91 
Q 1078 -91 686 257 
Q 294 606 294 1247 
Q 294 1794 489 2264 
Q 684 2734 1063 3103 
Q 1306 3334 1642 3459 
Q 1978 3584 2356 3584 
Q 2950 3584 3301 3228 
Q 3653 2872 3653 2272 
Q 3653 2128 3634 1964 
Q 3616 1800 3578 1613 
z
" transform="scale(0.015625)"/>
     <path id="DejaVuSans-Oblique-66" d="M 3059 4863 
L 2969 4384 
L 2419 4384 
Q 2106 4384 1964 4261 
Q 1822 4138 1753 3809 
L 1691 3500 
L 2638 3500 
L 2553 3053 
L 1606 3053 
L 1013 0 
L 434 0 
L 1031 3053 
L 481 3053 
L 563 3500 
L 1113 3500 
L 1159 3744 
Q 1278 4363 1576 4613 
Q 1875 4863 2516 4863 
L 3059 4863 
z
" transform="scale(0.015625)"/>
     <path id="DejaVuSans-Oblique-30" d="M 2444 4750 
Q 3078 4750 3414 4328 
Q 3750 3906 3750 3116 
Q 3750 2516 3592 1923 
Q 3434 1331 3150 863 
Q 2859 394 2467 151 
Q 2075 -91 1600 -91 
Q 988 -91 653 334 
Q 319 759 319 1544 
Q 319 2138 480 2733 
Q 641 3328 928 3794 
Q 1216 4263 1602 4506 
Q 1988 4750 2444 4750 
z
M 2406 4250 
Q 2169 4250 1955 4123 
Q 1741 3997 1569 3750 
Q 1281 3338 1111 2720 
Q 941 2103 941 1453 
Q 941 938 1123 673 
Q 1306 409 1663 409 
Q 1913 409 2125 536 
Q 2338 663 2509 909 
Q 2794 1319 2961 1936 
Q 3128 2553 3128 3206 
Q 3128 3722 2945 3986 
Q 2763 4250 2406 4250 
z
" transform="scale(0.015625)"/>
     <path id="DejaVuSans-Oblique-61" d="M 3438 1997 
L 3047 0 
L 2472 0 
L 2578 531 
Q 2325 219 2001 64 
Q 1678 -91 1281 -91 
Q 834 -91 548 182 
Q 263 456 263 884 
Q 263 1497 752 1853 
Q 1241 2209 2100 2209 
L 2900 2209 
L 2931 2363 
Q 2938 2388 2941 2417 
Q 2944 2447 2944 2509 
Q 2944 2788 2717 2942 
Q 2491 3097 2081 3097 
Q 1800 3097 1504 3025 
Q 1209 2953 897 2809 
L 997 3341 
Q 1322 3463 1633 3523 
Q 1944 3584 2234 3584 
Q 2853 3584 3176 3315 
Q 3500 3047 3500 2534 
Q 3500 2431 3484 2292 
Q 3469 2153 3438 1997 
z
M 2816 1759 
L 2241 1759 
Q 1534 1759 1195 1570 
Q 856 1381 856 984 
Q 856 709 1029 553 
Q 1203 397 1509 397 
Q 1978 397 2328 733 
Q 2678 1069 2791 1631 
L 2816 1759 
z
" transform="scale(0.015625)"/>
     <path id="DejaVuSans-Oblique-64" d="M 2675 525 
Q 2444 222 2128 65 
Q 1813 -91 1428 -91 
Q 903 -91 598 267 
Q 294 625 294 1247 
Q 294 1766 478 2236 
Q 663 2706 1013 3078 
Q 1244 3325 1534 3454 
Q 1825 3584 2144 3584 
Q 2481 3584 2739 3421 
Q 2997 3259 3138 2956 
L 3513 4863 
L 4091 4863 
L 3144 0 
L 2566 0 
L 2675 525 
z
M 891 1350 
Q 891 897 1095 644 
Q 1300 391 1663 391 
Q 1931 391 2161 520 
Q 2391 650 2566 903 
Q 2750 1166 2856 1509 
Q 2963 1853 2963 2188 
Q 2963 2622 2758 2865 
Q 2553 3109 2194 3109 
Q 1922 3109 1687 2981 
Q 1453 2853 1288 2613 
Q 1106 2353 998 2009 
Q 891 1666 891 1350 
z
" transform="scale(0.015625)"/>
     <path id="DejaVuSans-Oblique-31" d="M 416 531 
L 1447 531 
L 2144 4122 
L 978 3897 
L 1088 4441 
L 2247 4666 
L 2881 4666 
L 2075 531 
L 3103 531 
L 3003 0 
L 313 0 
L 416 531 
z
" transform="scale(0.015625)"/>
     <path id="DejaVuSans-Oblique-2e" d="M 525 794 
L 1184 794 
L 1031 0 
L 372 0 
L 525 794 
z
" transform="scale(0.015625)"/>
     <path id="DejaVuSans-Oblique-4e" d="M 1081 4666 
L 1931 4666 
L 3219 666 
L 4000 4666 
L 4616 4666 
L 3706 0 
L 2853 0 
L 1569 4025 
L 788 0 
L 172 0 
L 1081 4666 
z
" transform="scale(0.015625)"/>
     <path id="DejaVuSans-Oblique-3d" d="M 678 2906 
L 4684 2906 
L 4684 2381 
L 678 2381 
L 678 2906 
z
M 678 1631 
L 4684 1631 
L 4684 1100 
L 678 1100 
L 678 1631 
z
" transform="scale(0.015625)"/>
     <path id="DejaVuSans-Oblique-4a" d="M 1069 4666 
L 1703 4666 
L 856 325 
Q 691 -522 298 -901 
Q -94 -1281 -800 -1281 
L -1050 -1281 
L -947 -750 
L -750 -750 
Q -328 -750 -109 -509 
Q 109 -269 225 325 
L 1069 4666 
z
" transform="scale(0.015625)"/>
     <path id="DejaVuSans-Oblique-6b" d="M 1172 4863 
L 1747 4863 
L 1197 2028 
L 3169 3500 
L 3916 3500 
L 1716 1825 
L 3322 0 
L 2625 0 
L 1131 1709 
L 800 0 
L 225 0 
L 1172 4863 
z
" transform="scale(0.015625)"/>
     <path id="DejaVuSans-Oblique-62" d="M 3169 2138 
Q 3169 2591 2961 2847 
Q 2753 3103 2388 3103 
Q 2122 3103 1889 2973 
Q 1656 2844 1484 2597 
Q 1303 2338 1198 1995 
Q 1094 1653 1094 1313 
Q 1094 881 1298 636 
Q 1503 391 1863 391 
Q 2134 391 2365 517 
Q 2597 644 2772 891 
Q 2950 1147 3059 1487 
Q 3169 1828 3169 2138 
z
M 1381 2969 
Q 1594 3256 1914 3420 
Q 2234 3584 2584 3584 
Q 3122 3584 3439 3221 
Q 3756 2859 3756 2241 
Q 3756 1734 3570 1259 
Q 3384 784 3041 416 
Q 2816 172 2522 40 
Q 2228 -91 1906 -91 
Q 1566 -91 1316 65 
Q 1066 222 909 531 
L 806 0 
L 231 0 
L 1178 4863 
L 1753 4863 
L 1381 2969 
z
" transform="scale(0.015625)"/>
    </defs>
    <use xlink:href="#DejaVuSans-Oblique-54"/>
    <use xlink:href="#DejaVuSans-Oblique-77" x="52.958984"/>
    <use xlink:href="#DejaVuSans-Oblique-69" x="134.746094"/>
    <use xlink:href="#DejaVuSans-Oblique-73" x="162.529297"/>
    <use xlink:href="#DejaVuSans-Oblique-74" x="214.628906"/>
    <use xlink:href="#DejaVuSans-Oblique-20" x="253.837891"/>
    <use xlink:href="#DejaVuSans-Oblique-63" x="285.625"/>
    <use xlink:href="#DejaVuSans-Oblique-6f" x="340.605469"/>
    <use xlink:href="#DejaVuSans-Oblique-65" x="401.787109"/>
    <use xlink:href="#DejaVuSans-Oblique-66" x="463.310547"/>
    <use xlink:href="#DejaVuSans-Oblique-66" x="498.515625"/>
    <use xlink:href="#DejaVuSans-Oblique-69" x="533.720703"/>
    <use xlink:href="#DejaVuSans-Oblique-63" x="561.503906"/>
    <use xlink:href="#DejaVuSans-Oblique-69" x="616.484375"/>
    <use xlink:href="#DejaVuSans-Oblique-65" x="644.267578"/>
    <use xlink:href="#DejaVuSans-Oblique-6e" x="705.791016"/>
    <use xlink:href="#DejaVuSans-Oblique-74" x="769.169922"/>
    <use xlink:href="#DejaVuSans-Oblique-73" x="808.378906"/>
    <use xlink:href="#DejaVuSans-Oblique-20" x="860.478516"/>
    <use xlink:href="#DejaVuSans-Oblique-30" x="892.265625"/>
    <use xlink:href="#DejaVuSans-Oblique-20" x="955.888672"/>
    <use xlink:href="#DejaVuSans-Oblique-61" x="987.675781"/>
    <use xlink:href="#DejaVuSans-Oblique-6e" x="1048.955078"/>
    <use xlink:href="#DejaVuSans-Oblique-64" x="1112.333984"/>
    <use xlink:href="#DejaVuSans-Oblique-20" x="1175.810547"/>
    <use xlink:href="#DejaVuSans-Oblique-31" x="1207.597656"/>
    <use xlink:href="#DejaVuSans-Oblique-2e" x="1271.220703"/>
    <use xlink:href="#DejaVuSans-Oblique-20" x="1303.007812"/>
    <use xlink:href="#DejaVuSans-Oblique-4e" x="1334.794922"/>
    <use xlink:href="#DejaVuSans-Oblique-3d" x="1409.599609"/>
    <use xlink:href="#DejaVuSans-Oblique-31" x="1493.388672"/>
    <use xlink:href="#DejaVuSans-Oblique-30" x="1557.011719"/>
    <use xlink:href="#DejaVuSans-Oblique-20" x="1620.634766"/>
    <use xlink:href="#DejaVuSans-Oblique-4a" x="1652.421875"/>
    <use xlink:href="#DejaVuSans-Oblique-61" x="1681.914062"/>
    <use xlink:href="#DejaVuSans-Oblique-63" x="1743.193359"/>
    <use xlink:href="#DejaVuSans-Oblique-6b" x="1798.173828"/>
    <use xlink:href="#DejaVuSans-Oblique-6b" x="1856.083984"/>
    <use xlink:href="#DejaVuSans-Oblique-6e" x="1913.994141"/>
    <use xlink:href="#DejaVuSans-Oblique-69" x="1977.373047"/>
    <use xlink:href="#DejaVuSans-Oblique-66" x="2005.15625"/>
    <use xlink:href="#DejaVuSans-Oblique-65" x="2040.361328"/>
    <use xlink:href="#DejaVuSans-Oblique-20" x="2101.884766"/>
    <use xlink:href="#DejaVuSans-Oblique-62" x="2133.671875"/>
    <use xlink:href="#DejaVuSans-Oblique-69" x="2197.148438"/>
    <use xlink:href="#DejaVuSans-Oblique-6e" x="2224.931641"/>
    <use xlink:href="#DejaVuSans-Oblique-73" x="2288.310547"/>
   </g>
  </g>
 </g>
 <defs>
  <clipPath id="pf3364e00ef">
   <rect x="117" y="86.4" width="725.4" height="554.4"/>
  </clipPath>
 </defs>
</svg>
