<?xml version="1.0" encoding="utf-8" standalone="no"?>
<!DOCTYPE svg PUBLIC "-//W3C//DTD SVG 1.1//EN"
  "http://www.w3.org/Graphics/SVG/1.1/DTD/svg11.dtd">
<svg xmlns:xlink="http://www.w3.org/1999/xlink" width="936pt" height="720pt" viewBox="0 0 936 720" xmlns="http://www.w3.org/2000/svg" version="1.1">
 <metadata>
  <rdf:RDF xmlns:dc="http://purl.org/dc/elements/1.1/" xmlns:cc="http://creativecommons.org/ns#" xmlns:rdf="http://www.w3.org/1999/02/22-rdf-syntax-ns#">
   <cc:Work>
    <dc:type rdf:resource="http://purl.org/dc/dcmitype/StillImage"/>
    <dc:date>2024-02-23T11:44:08.267598</dc:date>
    <dc:format>image/svg+xml</dc:format>
    <dc:creator>
     <cc:Agent>
      <dc:title>Matplotlib v3.8.0, https://matplotlib.org/</dc:title>
     </cc:Agent>
    </dc:creator>
   </cc:Work>
  </rdf:RDF>
 </metadata>
 <defs>
  <style type="text/css">*{stroke-linejoin: round; stroke-linecap: butt}</style>
 </defs>
 <g id="figure_1">
  <g id="patch_1">
   <path d="M 0 720 
L 936 720 
L 936 0 
L 0 0 
z
" style="fill: #ffffff"/>
  </g>
  <g id="axes_1">
   <g id="patch_2">
    <path d="M 117 640.8 
L 842.4 640.8 
L 842.4 86.4 
L 117 86.4 
z
" style="fill: #ffffff"/>
   </g>
   <g id="matplotlib.axis_1">
    <g id="xtick_1">
     <g id="line2d_1">
      <defs>
       <path id="m1d3725a75d" d="M 0 0 
L 0 3.5 
" style="stroke: #000000; stroke-width: 0.8"/>
      </defs>
      <g>
       <use xlink:href="#m1d3725a75d" x="149.972727" y="640.8" style="stroke: #000000; stroke-width: 0.8"/>
      </g>
     </g>
     <g id="text_1">
      <!-- 10.700 -->
      <g transform="translate(132.477415 655.398438) scale(0.1 -0.1)">
       <defs>
        <path id="DejaVuSans-31" d="M 794 531 
L 1825 531 
L 1825 4091 
L 703 3866 
L 703 4441 
L 1819 4666 
L 2450 4666 
L 2450 531 
L 3481 531 
L 3481 0 
L 794 0 
L 794 531 
z
" transform="scale(0.015625)"/>
        <path id="DejaVuSans-30" d="M 2034 4250 
Q 1547 4250 1301 3770 
Q 1056 3291 1056 2328 
Q 1056 1369 1301 889 
Q 1547 409 2034 409 
Q 2525 409 2770 889 
Q 3016 1369 3016 2328 
Q 3016 3291 2770 3770 
Q 2525 4250 2034 4250 
z
M 2034 4750 
Q 2819 4750 3233 4129 
Q 3647 3509 3647 2328 
Q 3647 1150 3233 529 
Q 2819 -91 2034 -91 
Q 1250 -91 836 529 
Q 422 1150 422 2328 
Q 422 3509 836 4129 
Q 1250 4750 2034 4750 
z
" transform="scale(0.015625)"/>
        <path id="DejaVuSans-2e" d="M 684 794 
L 1344 794 
L 1344 0 
L 684 0 
L 684 794 
z
" transform="scale(0.015625)"/>
        <path id="DejaVuSans-37" d="M 525 4666 
L 3525 4666 
L 3525 4397 
L 1831 0 
L 1172 0 
L 2766 4134 
L 525 4134 
L 525 4666 
z
" transform="scale(0.015625)"/>
       </defs>
       <use xlink:href="#DejaVuSans-31"/>
       <use xlink:href="#DejaVuSans-30" x="63.623047"/>
       <use xlink:href="#DejaVuSans-2e" x="127.246094"/>
       <use xlink:href="#DejaVuSans-37" x="159.033203"/>
       <use xlink:href="#DejaVuSans-30" x="222.65625"/>
       <use xlink:href="#DejaVuSans-30" x="286.279297"/>
      </g>
     </g>
    </g>
    <g id="xtick_2">
     <g id="line2d_2">
      <g>
       <use xlink:href="#m1d3725a75d" x="232.404545" y="640.8" style="stroke: #000000; stroke-width: 0.8"/>
      </g>
     </g>
     <g id="text_2">
      <!-- 10.725 -->
      <g transform="translate(214.909233 655.398438) scale(0.1 -0.1)">
       <defs>
        <path id="DejaVuSans-32" d="M 1228 531 
L 3431 531 
L 3431 0 
L 469 0 
L 469 531 
Q 828 903 1448 1529 
Q 2069 2156 2228 2338 
Q 2531 2678 2651 2914 
Q 2772 3150 2772 3378 
Q 2772 3750 2511 3984 
Q 2250 4219 1831 4219 
Q 1534 4219 1204 4116 
Q 875 4013 500 3803 
L 500 4441 
Q 881 4594 1212 4672 
Q 1544 4750 1819 4750 
Q 2544 4750 2975 4387 
Q 3406 4025 3406 3419 
Q 3406 3131 3298 2873 
Q 3191 2616 2906 2266 
Q 2828 2175 2409 1742 
Q 1991 1309 1228 531 
z
" transform="scale(0.015625)"/>
        <path id="DejaVuSans-35" d="M 691 4666 
L 3169 4666 
L 3169 4134 
L 1269 4134 
L 1269 2991 
Q 1406 3038 1543 3061 
Q 1681 3084 1819 3084 
Q 2600 3084 3056 2656 
Q 3513 2228 3513 1497 
Q 3513 744 3044 326 
Q 2575 -91 1722 -91 
Q 1428 -91 1123 -41 
Q 819 9 494 109 
L 494 744 
Q 775 591 1075 516 
Q 1375 441 1709 441 
Q 2250 441 2565 725 
Q 2881 1009 2881 1497 
Q 2881 1984 2565 2268 
Q 2250 2553 1709 2553 
Q 1456 2553 1204 2497 
Q 953 2441 691 2322 
L 691 4666 
z
" transform="scale(0.015625)"/>
       </defs>
       <use xlink:href="#DejaVuSans-31"/>
       <use xlink:href="#DejaVuSans-30" x="63.623047"/>
       <use xlink:href="#DejaVuSans-2e" x="127.246094"/>
       <use xlink:href="#DejaVuSans-37" x="159.033203"/>
       <use xlink:href="#DejaVuSans-32" x="222.65625"/>
       <use xlink:href="#DejaVuSans-35" x="286.279297"/>
      </g>
     </g>
    </g>
    <g id="xtick_3">
     <g id="line2d_3">
      <g>
       <use xlink:href="#m1d3725a75d" x="314.836364" y="640.8" style="stroke: #000000; stroke-width: 0.8"/>
      </g>
     </g>
     <g id="text_3">
      <!-- 10.750 -->
      <g transform="translate(297.341051 655.398438) scale(0.1 -0.1)">
       <use xlink:href="#DejaVuSans-31"/>
       <use xlink:href="#DejaVuSans-30" x="63.623047"/>
       <use xlink:href="#DejaVuSans-2e" x="127.246094"/>
       <use xlink:href="#DejaVuSans-37" x="159.033203"/>
       <use xlink:href="#DejaVuSans-35" x="222.65625"/>
       <use xlink:href="#DejaVuSans-30" x="286.279297"/>
      </g>
     </g>
    </g>
    <g id="xtick_4">
     <g id="line2d_4">
      <g>
       <use xlink:href="#m1d3725a75d" x="397.268182" y="640.8" style="stroke: #000000; stroke-width: 0.8"/>
      </g>
     </g>
     <g id="text_4">
      <!-- 10.775 -->
      <g transform="translate(379.772869 655.398438) scale(0.1 -0.1)">
       <use xlink:href="#DejaVuSans-31"/>
       <use xlink:href="#DejaVuSans-30" x="63.623047"/>
       <use xlink:href="#DejaVuSans-2e" x="127.246094"/>
       <use xlink:href="#DejaVuSans-37" x="159.033203"/>
       <use xlink:href="#DejaVuSans-37" x="222.65625"/>
       <use xlink:href="#DejaVuSans-35" x="286.279297"/>
      </g>
     </g>
    </g>
    <g id="xtick_5">
     <g id="line2d_5">
      <g>
       <use xlink:href="#m1d3725a75d" x="479.7" y="640.8" style="stroke: #000000; stroke-width: 0.8"/>
      </g>
     </g>
     <g id="text_5">
      <!-- 10.800 -->
      <g transform="translate(462.204688 655.398438) scale(0.1 -0.1)">
       <defs>
        <path id="DejaVuSans-38" d="M 2034 2216 
Q 1584 2216 1326 1975 
Q 1069 1734 1069 1313 
Q 1069 891 1326 650 
Q 1584 409 2034 409 
Q 2484 409 2743 651 
Q 3003 894 3003 1313 
Q 3003 1734 2745 1975 
Q 2488 2216 2034 2216 
z
M 1403 2484 
Q 997 2584 770 2862 
Q 544 3141 544 3541 
Q 544 4100 942 4425 
Q 1341 4750 2034 4750 
Q 2731 4750 3128 4425 
Q 3525 4100 3525 3541 
Q 3525 3141 3298 2862 
Q 3072 2584 2669 2484 
Q 3125 2378 3379 2068 
Q 3634 1759 3634 1313 
Q 3634 634 3220 271 
Q 2806 -91 2034 -91 
Q 1263 -91 848 271 
Q 434 634 434 1313 
Q 434 1759 690 2068 
Q 947 2378 1403 2484 
z
M 1172 3481 
Q 1172 3119 1398 2916 
Q 1625 2713 2034 2713 
Q 2441 2713 2670 2916 
Q 2900 3119 2900 3481 
Q 2900 3844 2670 4047 
Q 2441 4250 2034 4250 
Q 1625 4250 1398 4047 
Q 1172 3844 1172 3481 
z
" transform="scale(0.015625)"/>
       </defs>
       <use xlink:href="#DejaVuSans-31"/>
       <use xlink:href="#DejaVuSans-30" x="63.623047"/>
       <use xlink:href="#DejaVuSans-2e" x="127.246094"/>
       <use xlink:href="#DejaVuSans-38" x="159.033203"/>
       <use xlink:href="#DejaVuSans-30" x="222.65625"/>
       <use xlink:href="#DejaVuSans-30" x="286.279297"/>
      </g>
     </g>
    </g>
    <g id="xtick_6">
     <g id="line2d_6">
      <g>
       <use xlink:href="#m1d3725a75d" x="562.131818" y="640.8" style="stroke: #000000; stroke-width: 0.8"/>
      </g>
     </g>
     <g id="text_6">
      <!-- 10.825 -->
      <g transform="translate(544.636506 655.398438) scale(0.1 -0.1)">
       <use xlink:href="#DejaVuSans-31"/>
       <use xlink:href="#DejaVuSans-30" x="63.623047"/>
       <use xlink:href="#DejaVuSans-2e" x="127.246094"/>
       <use xlink:href="#DejaVuSans-38" x="159.033203"/>
       <use xlink:href="#DejaVuSans-32" x="222.65625"/>
       <use xlink:href="#DejaVuSans-35" x="286.279297"/>
      </g>
     </g>
    </g>
    <g id="xtick_7">
     <g id="line2d_7">
      <g>
       <use xlink:href="#m1d3725a75d" x="644.563636" y="640.8" style="stroke: #000000; stroke-width: 0.8"/>
      </g>
     </g>
     <g id="text_7">
      <!-- 10.850 -->
      <g transform="translate(627.068324 655.398438) scale(0.1 -0.1)">
       <use xlink:href="#DejaVuSans-31"/>
       <use xlink:href="#DejaVuSans-30" x="63.623047"/>
       <use xlink:href="#DejaVuSans-2e" x="127.246094"/>
       <use xlink:href="#DejaVuSans-38" x="159.033203"/>
       <use xlink:href="#DejaVuSans-35" x="222.65625"/>
       <use xlink:href="#DejaVuSans-30" x="286.279297"/>
      </g>
     </g>
    </g>
    <g id="xtick_8">
     <g id="line2d_8">
      <g>
       <use xlink:href="#m1d3725a75d" x="726.995455" y="640.8" style="stroke: #000000; stroke-width: 0.8"/>
      </g>
     </g>
     <g id="text_8">
      <!-- 10.875 -->
      <g transform="translate(709.500142 655.398438) scale(0.1 -0.1)">
       <use xlink:href="#DejaVuSans-31"/>
       <use xlink:href="#DejaVuSans-30" x="63.623047"/>
       <use xlink:href="#DejaVuSans-2e" x="127.246094"/>
       <use xlink:href="#DejaVuSans-38" x="159.033203"/>
       <use xlink:href="#DejaVuSans-37" x="222.65625"/>
       <use xlink:href="#DejaVuSans-35" x="286.279297"/>
      </g>
     </g>
    </g>
    <g id="xtick_9">
     <g id="line2d_9">
      <g>
       <use xlink:href="#m1d3725a75d" x="809.427273" y="640.8" style="stroke: #000000; stroke-width: 0.8"/>
      </g>
     </g>
     <g id="text_9">
      <!-- 10.900 -->
      <g transform="translate(791.93196 655.398438) scale(0.1 -0.1)">
       <defs>
        <path id="DejaVuSans-39" d="M 703 97 
L 703 672 
Q 941 559 1184 500 
Q 1428 441 1663 441 
Q 2288 441 2617 861 
Q 2947 1281 2994 2138 
Q 2813 1869 2534 1725 
Q 2256 1581 1919 1581 
Q 1219 1581 811 2004 
Q 403 2428 403 3163 
Q 403 3881 828 4315 
Q 1253 4750 1959 4750 
Q 2769 4750 3195 4129 
Q 3622 3509 3622 2328 
Q 3622 1225 3098 567 
Q 2575 -91 1691 -91 
Q 1453 -91 1209 -44 
Q 966 3 703 97 
z
M 1959 2075 
Q 2384 2075 2632 2365 
Q 2881 2656 2881 3163 
Q 2881 3666 2632 3958 
Q 2384 4250 1959 4250 
Q 1534 4250 1286 3958 
Q 1038 3666 1038 3163 
Q 1038 2656 1286 2365 
Q 1534 2075 1959 2075 
z
" transform="scale(0.015625)"/>
       </defs>
       <use xlink:href="#DejaVuSans-31"/>
       <use xlink:href="#DejaVuSans-30" x="63.623047"/>
       <use xlink:href="#DejaVuSans-2e" x="127.246094"/>
       <use xlink:href="#DejaVuSans-39" x="159.033203"/>
       <use xlink:href="#DejaVuSans-30" x="222.65625"/>
       <use xlink:href="#DejaVuSans-30" x="286.279297"/>
      </g>
     </g>
    </g>
    <g id="text_10">
     <!-- $\beta$ -->
     <g transform="translate(476.5 669.178125) scale(0.1 -0.1)">
      <defs>
       <path id="DejaVuSans-Oblique-3b2" d="M 872 216 
L 572 -1331 
L -6 -1331 
L 928 3478 
Q 1206 4903 2538 4903 
Q 3888 4903 3659 3700 
Q 3503 2844 2894 2531 
Q 3713 2250 3553 1416 
Q 3272 -69 1759 -66 
Q 1097 -63 872 216 
z
M 1019 966 
Q 1259 422 1875 425 
Q 2775 425 2966 1406 
Q 3138 2288 1675 2219 
L 1778 2750 
Q 2909 2731 3106 3750 
Q 3241 4438 2509 4434 
Q 1691 4434 1503 3459 
L 1019 966 
z
" transform="scale(0.015625)"/>
      </defs>
      <use xlink:href="#DejaVuSans-Oblique-3b2" transform="translate(0 0.390625)"/>
     </g>
    </g>
   </g>
   <g id="matplotlib.axis_2">
    <g id="ytick_1">
     <g id="line2d_10">
      <defs>
       <path id="mf5e94f8fc1" d="M 0 0 
L -3.5 0 
" style="stroke: #000000; stroke-width: 0.8"/>
      </defs>
      <g>
       <use xlink:href="#mf5e94f8fc1" x="117" y="607.402587" style="stroke: #000000; stroke-width: 0.8"/>
      </g>
     </g>
     <g id="text_11">
      <!-- 0.0000 -->
      <g transform="translate(75.009375 611.201806) scale(0.1 -0.1)">
       <use xlink:href="#DejaVuSans-30"/>
       <use xlink:href="#DejaVuSans-2e" x="63.623047"/>
       <use xlink:href="#DejaVuSans-30" x="95.410156"/>
       <use xlink:href="#DejaVuSans-30" x="159.033203"/>
       <use xlink:href="#DejaVuSans-30" x="222.65625"/>
       <use xlink:href="#DejaVuSans-30" x="286.279297"/>
      </g>
     </g>
    </g>
    <g id="ytick_2">
     <g id="line2d_11">
      <g>
       <use xlink:href="#mf5e94f8fc1" x="117" y="515.60763" style="stroke: #000000; stroke-width: 0.8"/>
      </g>
     </g>
     <g id="text_12">
      <!-- 0.0001 -->
      <g transform="translate(75.009375 519.406849) scale(0.1 -0.1)">
       <use xlink:href="#DejaVuSans-30"/>
       <use xlink:href="#DejaVuSans-2e" x="63.623047"/>
       <use xlink:href="#DejaVuSans-30" x="95.410156"/>
       <use xlink:href="#DejaVuSans-30" x="159.033203"/>
       <use xlink:href="#DejaVuSans-30" x="222.65625"/>
       <use xlink:href="#DejaVuSans-31" x="286.279297"/>
      </g>
     </g>
    </g>
    <g id="ytick_3">
     <g id="line2d_12">
      <g>
       <use xlink:href="#mf5e94f8fc1" x="117" y="423.812673" style="stroke: #000000; stroke-width: 0.8"/>
      </g>
     </g>
     <g id="text_13">
      <!-- 0.0002 -->
      <g transform="translate(75.009375 427.611892) scale(0.1 -0.1)">
       <use xlink:href="#DejaVuSans-30"/>
       <use xlink:href="#DejaVuSans-2e" x="63.623047"/>
       <use xlink:href="#DejaVuSans-30" x="95.410156"/>
       <use xlink:href="#DejaVuSans-30" x="159.033203"/>
       <use xlink:href="#DejaVuSans-30" x="222.65625"/>
       <use xlink:href="#DejaVuSans-32" x="286.279297"/>
      </g>
     </g>
    </g>
    <g id="ytick_4">
     <g id="line2d_13">
      <g>
       <use xlink:href="#mf5e94f8fc1" x="117" y="332.017716" style="stroke: #000000; stroke-width: 0.8"/>
      </g>
     </g>
     <g id="text_14">
      <!-- 0.0003 -->
      <g transform="translate(75.009375 335.816935) scale(0.1 -0.1)">
       <defs>
        <path id="DejaVuSans-33" d="M 2597 2516 
Q 3050 2419 3304 2112 
Q 3559 1806 3559 1356 
Q 3559 666 3084 287 
Q 2609 -91 1734 -91 
Q 1441 -91 1130 -33 
Q 819 25 488 141 
L 488 750 
Q 750 597 1062 519 
Q 1375 441 1716 441 
Q 2309 441 2620 675 
Q 2931 909 2931 1356 
Q 2931 1769 2642 2001 
Q 2353 2234 1838 2234 
L 1294 2234 
L 1294 2753 
L 1863 2753 
Q 2328 2753 2575 2939 
Q 2822 3125 2822 3475 
Q 2822 3834 2567 4026 
Q 2313 4219 1838 4219 
Q 1578 4219 1281 4162 
Q 984 4106 628 3988 
L 628 4550 
Q 988 4650 1302 4700 
Q 1616 4750 1894 4750 
Q 2613 4750 3031 4423 
Q 3450 4097 3450 3541 
Q 3450 3153 3228 2886 
Q 3006 2619 2597 2516 
z
" transform="scale(0.015625)"/>
       </defs>
       <use xlink:href="#DejaVuSans-30"/>
       <use xlink:href="#DejaVuSans-2e" x="63.623047"/>
       <use xlink:href="#DejaVuSans-30" x="95.410156"/>
       <use xlink:href="#DejaVuSans-30" x="159.033203"/>
       <use xlink:href="#DejaVuSans-30" x="222.65625"/>
       <use xlink:href="#DejaVuSans-33" x="286.279297"/>
      </g>
     </g>
    </g>
    <g id="ytick_5">
     <g id="line2d_14">
      <g>
       <use xlink:href="#mf5e94f8fc1" x="117" y="240.222759" style="stroke: #000000; stroke-width: 0.8"/>
      </g>
     </g>
     <g id="text_15">
      <!-- 0.0004 -->
      <g transform="translate(75.009375 244.021977) scale(0.1 -0.1)">
       <defs>
        <path id="DejaVuSans-34" d="M 2419 4116 
L 825 1625 
L 2419 1625 
L 2419 4116 
z
M 2253 4666 
L 3047 4666 
L 3047 1625 
L 3713 1625 
L 3713 1100 
L 3047 1100 
L 3047 0 
L 2419 0 
L 2419 1100 
L 313 1100 
L 313 1709 
L 2253 4666 
z
" transform="scale(0.015625)"/>
       </defs>
       <use xlink:href="#DejaVuSans-30"/>
       <use xlink:href="#DejaVuSans-2e" x="63.623047"/>
       <use xlink:href="#DejaVuSans-30" x="95.410156"/>
       <use xlink:href="#DejaVuSans-30" x="159.033203"/>
       <use xlink:href="#DejaVuSans-30" x="222.65625"/>
       <use xlink:href="#DejaVuSans-34" x="286.279297"/>
      </g>
     </g>
    </g>
    <g id="ytick_6">
     <g id="line2d_15">
      <g>
       <use xlink:href="#mf5e94f8fc1" x="117" y="148.427802" style="stroke: #000000; stroke-width: 0.8"/>
      </g>
     </g>
     <g id="text_16">
      <!-- 0.0005 -->
      <g transform="translate(75.009375 152.22702) scale(0.1 -0.1)">
       <use xlink:href="#DejaVuSans-30"/>
       <use xlink:href="#DejaVuSans-2e" x="63.623047"/>
       <use xlink:href="#DejaVuSans-30" x="95.410156"/>
       <use xlink:href="#DejaVuSans-30" x="159.033203"/>
       <use xlink:href="#DejaVuSans-30" x="222.65625"/>
       <use xlink:href="#DejaVuSans-35" x="286.279297"/>
      </g>
     </g>
    </g>
    <g id="text_17">
     <!-- $\langle S_{t} - S_{nt} \rangle$ -->
     <g transform="translate(68.929688 385.25) rotate(-90) scale(0.1 -0.1)">
      <defs>
       <path id="DejaVuSans-27e8" d="M 572 2006 
L 1453 4856 
L 1984 4856 
L 1103 2006 
L 1984 -844 
L 1453 -844 
L 572 2006 
z
" transform="scale(0.015625)"/>
       <path id="DejaVuSans-Oblique-53" d="M 3859 4513 
L 3738 3897 
Q 3422 4066 3111 4152 
Q 2800 4238 2509 4238 
Q 1944 4238 1609 3991 
Q 1275 3744 1275 3334 
Q 1275 3109 1398 2989 
Q 1522 2869 2034 2731 
L 2413 2638 
Q 3053 2472 3303 2217 
Q 3553 1963 3553 1503 
Q 3553 797 2998 353 
Q 2444 -91 1538 -91 
Q 1166 -91 791 -17 
Q 416 56 38 206 
L 166 856 
Q 513 641 861 531 
Q 1209 422 1556 422 
Q 2147 422 2503 684 
Q 2859 947 2859 1369 
Q 2859 1650 2717 1795 
Q 2575 1941 2106 2059 
L 1728 2156 
Q 1081 2325 845 2545 
Q 609 2766 609 3163 
Q 609 3859 1145 4304 
Q 1681 4750 2541 4750 
Q 2875 4750 3203 4690 
Q 3531 4631 3859 4513 
z
" transform="scale(0.015625)"/>
       <path id="DejaVuSans-Oblique-74" d="M 2706 3500 
L 2619 3053 
L 1472 3053 
L 1100 1153 
Q 1081 1047 1072 975 
Q 1063 903 1063 863 
Q 1063 663 1183 572 
Q 1303 481 1569 481 
L 2150 481 
L 2053 0 
L 1503 0 
Q 991 0 739 200 
Q 488 400 488 806 
Q 488 878 497 964 
Q 506 1050 525 1153 
L 897 3053 
L 409 3053 
L 500 3500 
L 978 3500 
L 1172 4494 
L 1747 4494 
L 1556 3500 
L 2706 3500 
z
" transform="scale(0.015625)"/>
       <path id="DejaVuSans-2212" d="M 678 2272 
L 4684 2272 
L 4684 1741 
L 678 1741 
L 678 2272 
z
" transform="scale(0.015625)"/>
       <path id="DejaVuSans-Oblique-6e" d="M 3566 2113 
L 3156 0 
L 2578 0 
L 2988 2091 
Q 3016 2238 3031 2350 
Q 3047 2463 3047 2528 
Q 3047 2791 2881 2937 
Q 2716 3084 2419 3084 
Q 1956 3084 1622 2776 
Q 1288 2469 1184 1941 
L 800 0 
L 225 0 
L 903 3500 
L 1478 3500 
L 1363 2950 
Q 1603 3253 1940 3418 
Q 2278 3584 2650 3584 
Q 3113 3584 3367 3334 
Q 3622 3084 3622 2631 
Q 3622 2519 3608 2391 
Q 3594 2263 3566 2113 
z
" transform="scale(0.015625)"/>
       <path id="DejaVuSans-27e9" d="M 1925 2006 
L 1044 -844 
L 513 -844 
L 1394 2006 
L 513 4856 
L 1044 4856 
L 1925 2006 
z
" transform="scale(0.015625)"/>
      </defs>
      <use xlink:href="#DejaVuSans-27e8" transform="translate(0 0.125)"/>
      <use xlink:href="#DejaVuSans-Oblique-53" transform="translate(39.013672 0.125)"/>
      <use xlink:href="#DejaVuSans-Oblique-74" transform="translate(102.490234 -16.28125) scale(0.7)"/>
      <use xlink:href="#DejaVuSans-2212" transform="translate(152.15332 0.125)"/>
      <use xlink:href="#DejaVuSans-Oblique-53" transform="translate(255.424805 0.125)"/>
      <use xlink:href="#DejaVuSans-Oblique-6e" transform="translate(318.901367 -16.28125) scale(0.7)"/>
      <use xlink:href="#DejaVuSans-Oblique-74" transform="translate(363.266602 -16.28125) scale(0.7)"/>
      <use xlink:href="#DejaVuSans-27e9" transform="translate(393.447266 0.125)"/>
     </g>
    </g>
   </g>
   <g id="line2d_16">
    <path d="M 149.972727 608.896277 
L 153.27 608.846944 
L 156.567273 608.56929 
L 159.864545 608.079692 
L 166.459091 606.687194 
L 173.053636 605.272634 
L 176.350909 604.757526 
L 179.648182 604.452634 
L 182.945455 604.392627 
L 186.242727 604.586901 
L 189.54 605.019639 
L 192.837273 605.65251 
L 199.431818 607.285072 
L 206.026364 608.960324 
L 209.323636 609.666323 
L 212.620909 610.234451 
L 215.918182 610.650974 
L 219.215455 610.92053 
L 225.81 611.103408 
L 232.404545 610.997184 
L 242.296364 610.594311 
L 248.890909 610.120078 
L 255.485455 609.360927 
L 262.08 608.303702 
L 275.269091 605.925224 
L 281.863636 605.001969 
L 288.458182 604.338178 
L 304.944545 602.868713 
L 318.133636 601.490846 
L 324.728182 601.209046 
L 331.322727 601.373866 
L 344.511818 602.207845 
L 347.809091 602.251204 
L 351.106364 602.138921 
L 354.403636 601.836427 
L 357.700909 601.313219 
L 360.998182 600.538711 
L 364.295455 599.477439 
L 367.592727 598.084909 
L 370.89 596.305057 
L 374.187273 594.069869 
L 377.484545 591.301003 
L 380.781818 587.912664 
L 384.079091 583.81454 
L 387.376364 578.913524 
L 390.673636 573.113247 
L 393.970909 566.311197 
L 397.268182 558.394171 
L 400.565455 549.233826 
L 403.862727 538.684878 
L 407.16 526.58873 
L 410.457273 512.784767 
L 413.754545 497.130256 
L 417.051818 479.527694 
L 420.349091 459.956051 
L 423.646364 438.500076 
L 426.943636 415.370497 
L 430.240909 390.908395 
L 443.43 289.737999 
L 446.727273 266.273625 
L 450.024545 244.397576 
L 453.321818 224.34604 
L 456.619091 206.236698 
L 459.916364 190.087555 
L 463.213636 175.844439 
L 466.510909 163.410949 
L 469.808182 152.675825 
L 473.105455 143.534404 
L 476.402727 135.902611 
L 479.7 129.723348 
L 482.997273 124.966157 
L 486.294545 121.621662 
L 489.591818 119.692503 
L 492.889091 119.182531 
L 496.186364 120.085812 
L 499.483636 122.376753 
L 502.780909 126.002407 
L 506.078182 130.877699 
L 509.375455 136.884093 
L 512.672727 143.871868 
L 515.97 151.665887 
L 519.267273 160.074303 
L 525.861818 177.948884 
L 532.456364 196.047238 
L 539.050909 213.320468 
L 542.348182 221.47058 
L 545.645455 229.269559 
L 548.942727 236.730603 
L 552.24 243.884048 
L 558.834545 257.422783 
L 565.429091 270.156417 
L 572.023636 282.191582 
L 578.618182 293.4405 
L 581.915455 298.712149 
L 585.212727 303.718684 
L 588.51 308.446087 
L 591.807273 312.890605 
L 595.104545 317.059799 
L 598.401818 320.971948 
L 601.699091 324.654047 
L 604.996364 328.138823 
L 611.590909 334.655203 
L 618.185455 340.769266 
L 624.78 346.631279 
L 631.374545 352.263216 
L 637.969091 357.583181 
L 644.563636 362.466635 
L 647.860909 364.711081 
L 651.158182 366.813853 
L 654.455455 368.773585 
L 657.752727 370.593866 
L 664.347273 373.851114 
L 670.941818 376.684381 
L 677.536364 379.221218 
L 697.32 386.484031 
L 703.914545 389.184843 
L 723.698182 397.58559 
L 730.292727 399.854364 
L 733.59 400.806574 
L 736.887273 401.63569 
L 743.481818 402.962908 
L 750.076364 403.957412 
L 773.157273 406.912369 
L 779.751818 408.138271 
L 786.346364 409.739097 
L 792.940909 411.754809 
L 799.535455 414.116694 
L 809.427273 417.852141 
L 809.427273 417.852141 
" clip-path="url(#p630cad71b3)" style="fill: none; stroke: #1f77b4; stroke-width: 1.5; stroke-linecap: square"/>
   </g>
   <g id="line2d_17">
    <path d="M 149.972727 607.463834 
L 153.27 607.475784 
L 156.567273 607.182342 
L 159.864545 606.625152 
L 166.459091 605.027193 
L 173.053636 603.425957 
L 176.350909 602.854864 
L 179.648182 602.5284 
L 182.945455 602.484452 
L 186.242727 602.73301 
L 189.54 603.256824 
L 192.837273 604.014761 
L 199.431818 605.984783 
L 206.026364 608.088009 
L 209.323636 609.032312 
L 212.620909 609.849641 
L 215.918182 610.52184 
L 219.215455 611.048632 
L 225.81 611.729047 
L 232.404545 612.062175 
L 238.999091 612.17149 
L 245.593636 612.04608 
L 252.188182 611.587308 
L 258.782727 610.729981 
L 265.377273 609.535017 
L 278.566364 606.910049 
L 285.160909 605.84867 
L 291.755455 605.007627 
L 308.241818 603.055104 
L 321.430909 601.352177 
L 328.025455 600.786237 
L 334.62 600.48732 
L 344.511818 600.170945 
L 351.106364 599.667842 
L 354.403636 599.237121 
L 357.700909 598.651276 
L 360.998182 597.881377 
L 364.295455 596.89205 
L 367.592727 595.638019 
L 370.89 594.062052 
L 374.187273 592.094676 
L 377.484545 589.655511 
L 380.781818 586.655487 
L 384.079091 582.998894 
L 387.376364 578.584233 
L 390.673636 573.303147 
L 393.970909 567.037429 
L 397.268182 559.654965 
L 400.565455 551.006275 
L 403.862727 540.923995 
L 407.16 529.227634 
L 410.457273 515.735539 
L 413.754545 500.284776 
L 417.051818 482.757887 
L 420.349091 463.113428 
L 423.646364 441.415143 
L 426.943636 417.853384 
L 430.240909 392.752391 
L 436.835455 339.812769 
L 443.43 287.00026 
L 446.727273 262.039753 
L 450.024545 238.649256 
L 453.321818 217.144202 
L 456.619091 197.720217 
L 459.916364 180.463926 
L 463.213636 165.373768 
L 466.510909 152.385462 
L 469.808182 141.39752 
L 473.105455 132.293572 
L 476.402727 124.959578 
L 479.7 119.295163 
L 482.997273 115.219113 
L 486.294545 112.669585 
L 489.591818 111.6 
L 492.889091 111.97178 
L 496.186364 113.745273 
L 499.483636 116.870274 
L 502.780909 121.277524 
L 506.078182 126.87243 
L 509.375455 133.531978 
L 512.672727 141.105399 
L 515.97 149.418668 
L 519.267273 158.28239 
L 525.861818 176.889663 
L 532.456364 195.512445 
L 535.753636 204.493149 
L 539.050909 213.142219 
L 542.348182 221.42102 
L 545.645455 229.322609 
L 548.942727 236.865196 
L 552.24 244.083907 
L 558.834545 257.722675 
L 565.429091 270.543508 
L 572.023636 282.677499 
L 578.618182 294.041597 
L 581.915455 299.371438 
L 585.212727 304.4309 
L 588.51 309.200945 
L 591.807273 313.673096 
L 595.104545 317.851207 
L 598.401818 321.751458 
L 601.699091 325.400662 
L 604.996364 328.83333 
L 611.590909 335.203348 
L 618.185455 341.151619 
L 628.077273 349.683365 
L 634.671818 355.159602 
L 641.266364 360.361975 
L 647.860909 365.14266 
L 651.158182 367.330569 
L 654.455455 369.365753 
L 657.752727 371.240553 
L 661.05 372.952732 
L 664.347273 374.505853 
L 667.644545 375.909381 
L 674.239091 378.33383 
L 680.833636 380.406741 
L 694.022727 384.427945 
L 700.617273 386.764579 
L 707.211818 389.39211 
L 720.400909 394.897139 
L 726.995455 397.314669 
L 733.59 399.300547 
L 740.184545 400.861866 
L 746.779091 402.115352 
L 773.157273 406.644403 
L 779.751818 408.004716 
L 786.346364 409.544218 
L 792.940909 411.279948 
L 809.427273 415.844392 
L 809.427273 415.844392 
" clip-path="url(#p630cad71b3)" style="fill: none; stroke: #ff7f0e; stroke-width: 1.5; stroke-linecap: square"/>
   </g>
   <g id="line2d_18">
    <path d="M 149.972727 608.745471 
L 153.27 608.604884 
L 156.567273 608.228462 
L 159.864545 607.638627 
L 166.459091 606.075191 
L 173.053636 604.589415 
L 176.350909 604.092239 
L 179.648182 603.842859 
L 182.945455 603.872592 
L 186.242727 604.184471 
L 189.54 604.754656 
L 192.837273 605.536769 
L 199.431818 607.47979 
L 206.026364 609.471444 
L 209.323636 610.344032 
L 212.620909 611.089637 
L 215.918182 611.696602 
L 219.215455 612.167949 
L 225.81 612.757557 
L 232.404545 612.966757 
L 238.999091 612.816647 
L 242.296364 612.582882 
L 245.593636 612.225776 
L 248.890909 611.737241 
L 252.188182 611.118079 
L 258.782727 609.546134 
L 275.269091 605.132353 
L 281.863636 603.78512 
L 288.458182 602.753218 
L 304.944545 600.650571 
L 314.836364 599.52132 
L 321.430909 599.111344 
L 328.025455 599.110722 
L 344.511818 599.790278 
L 347.809091 599.718206 
L 351.106364 599.48656 
L 354.403636 599.066448 
L 357.700909 598.430802 
L 360.998182 597.550095 
L 364.295455 596.388069 
L 367.592727 594.89865 
L 370.89 593.024824 
L 374.187273 590.699745 
L 377.484545 587.849624 
L 380.781818 584.39733 
L 384.079091 580.265284 
L 387.376364 575.376199 
L 390.673636 569.650654 
L 393.970909 563.001365 
L 397.268182 555.325104 
L 400.565455 546.494412 
L 403.862727 536.352114 
L 407.16 524.712028 
L 410.457273 511.368912 
L 413.754545 496.119392 
L 417.051818 478.793647 
L 420.349091 459.294795 
L 423.646364 437.639921 
L 426.943636 413.994105 
L 430.240909 388.687745 
L 436.835455 335.169446 
L 443.43 282.096047 
L 446.727273 257.316087 
L 450.024545 234.359541 
L 453.321818 213.524189 
L 456.619091 194.949552 
L 459.916364 178.639783 
L 463.213636 164.500364 
L 466.510909 152.379148 
L 469.808182 142.104088 
L 473.105455 133.512725 
L 476.402727 126.471357 
L 479.7 120.883965 
L 482.997273 116.692383 
L 486.294545 113.869886 
L 489.591818 112.410585 
L 492.889091 112.316827 
L 496.186364 113.586535 
L 499.483636 116.201959 
L 502.780909 120.120962 
L 506.078182 125.271529 
L 509.375455 131.549871 
L 512.672727 138.822109 
L 515.97 146.92924 
L 519.267273 155.694737 
L 525.861818 174.464053 
L 535.753636 203.193014 
L 542.348182 221.284812 
L 545.645455 229.807913 
L 548.942727 237.951568 
L 552.24 245.71571 
L 555.537273 253.111645 
L 558.834545 260.1563 
L 562.131818 266.867348 
L 565.429091 273.259701 
L 568.726364 279.343577 
L 572.023636 285.124192 
L 575.320909 290.602844 
L 578.618182 295.779026 
L 581.915455 300.653089 
L 585.212727 305.228899 
L 588.51 309.516039 
L 591.807273 313.531132 
L 595.104545 317.298094 
L 598.401818 320.847292 
L 604.996364 327.434468 
L 611.590909 333.581282 
L 624.78 345.392395 
L 634.671818 354.033014 
L 641.266364 359.543057 
L 647.860909 364.703989 
L 654.455455 369.403609 
L 657.752727 371.55348 
L 661.05 373.560033 
L 664.347273 375.418991 
L 667.644545 377.129355 
L 670.941818 378.694209 
L 674.239091 380.121498 
L 680.833636 382.622683 
L 687.428182 384.803277 
L 700.617273 389.070397 
L 707.211818 391.449163 
L 723.698182 397.580158 
L 730.292727 399.604025 
L 736.887273 401.20812 
L 743.481818 402.440683 
L 753.373636 403.901358 
L 763.265455 405.352821 
L 769.86 406.497572 
L 776.454545 407.857351 
L 783.049091 409.464331 
L 789.643636 411.318069 
L 799.535455 414.433334 
L 809.427273 417.531382 
L 809.427273 417.531382 
" clip-path="url(#p630cad71b3)" style="fill: none; stroke: #2ca02c; stroke-width: 1.5; stroke-linecap: square"/>
   </g>
   <g id="line2d_19">
    <path d="M 149.972727 610.915886 
L 153.27 610.562253 
L 156.567273 609.946005 
L 159.864545 609.101319 
L 173.053636 605.100073 
L 176.350909 604.42754 
L 179.648182 604.041053 
L 182.945455 603.975152 
L 186.242727 604.234095 
L 189.54 604.79364 
L 192.837273 605.605944 
L 196.134545 606.606768 
L 212.620909 612.075705 
L 215.918182 612.927099 
L 219.215455 613.653175 
L 222.512727 614.257825 
L 229.107273 615.130425 
L 232.404545 615.404786 
L 235.701818 615.565376 
L 238.999091 615.6 
L 242.296364 615.492753 
L 245.593636 615.227776 
L 248.890909 614.793515 
L 252.188182 614.186643 
L 255.485455 613.414871 
L 262.08 611.467917 
L 275.269091 607.071578 
L 281.863636 605.267252 
L 288.458182 603.926611 
L 295.052727 602.958503 
L 308.241818 601.444122 
L 314.836364 600.800184 
L 321.430909 600.414955 
L 324.728182 600.376654 
L 328.025455 600.45599 
L 334.62 600.931601 
L 347.809091 602.246124 
L 351.106364 602.393656 
L 354.403636 602.376569 
L 357.700909 602.147809 
L 360.998182 601.656098 
L 364.295455 600.842875 
L 367.592727 599.640223 
L 370.89 597.97062 
L 374.187273 595.748905 
L 377.484545 592.886117 
L 380.781818 589.294261 
L 384.079091 584.89052 
L 387.376364 579.599355 
L 390.673636 573.351286 
L 393.970909 566.077994 
L 397.268182 557.704573 
L 400.565455 548.141041 
L 403.862727 537.276145 
L 407.16 524.976876 
L 410.457273 511.096547 
L 413.754545 495.492838 
L 417.051818 478.055045 
L 420.349091 458.737023 
L 423.646364 437.589988 
L 426.943636 414.787593 
L 430.240909 390.635902 
L 443.43 290.167205 
L 446.727273 266.755164 
L 450.024545 244.918314 
L 453.321818 224.914502 
L 456.619091 206.877907 
L 459.916364 190.835129 
L 463.213636 176.731718 
L 466.510909 164.462777 
L 469.808182 153.902206 
L 473.105455 144.926788 
L 476.402727 137.43307 
L 479.7 131.346526 
L 482.997273 126.623491 
L 486.294545 123.247167 
L 489.591818 121.219335 
L 492.889091 120.549511 
L 496.186364 121.243297 
L 499.483636 123.2914 
L 502.780909 126.660587 
L 506.078182 131.287479 
L 509.375455 137.075746 
L 512.672727 143.896938 
L 515.97 151.59474 
L 519.267273 159.992204 
L 522.564545 168.901094 
L 539.050909 215.012763 
L 542.348182 223.629712 
L 545.645455 231.874907 
L 548.942727 239.732723 
L 552.24 247.208425 
L 555.537273 254.321564 
L 558.834545 261.099245 
L 562.131818 267.570001 
L 565.429091 273.758931 
L 568.726364 279.684466 
L 572.023636 285.356951 
L 575.320909 290.778967 
L 578.618182 295.947096 
L 581.915455 300.854677 
L 585.212727 305.495002 
L 588.51 309.864402 
L 591.807273 313.964752 
L 595.104545 317.805065 
L 598.401818 321.402035 
L 601.699091 324.779542 
L 604.996364 327.967298 
L 611.590909 333.909557 
L 621.482727 342.244601 
L 647.860909 364.057156 
L 654.455455 369.006146 
L 657.752727 371.270997 
L 661.05 373.366583 
L 664.347273 375.277867 
L 667.644545 376.997274 
L 670.941818 378.525775 
L 674.239091 379.873488 
L 677.536364 381.059685 
L 684.130909 383.065317 
L 697.32 386.6738 
L 703.914545 388.814846 
L 710.509091 391.316349 
L 730.292727 399.387506 
L 736.887273 401.603856 
L 743.481818 403.446543 
L 750.076364 404.961294 
L 756.670909 406.218158 
L 766.562727 407.765818 
L 783.049091 410.166218 
L 789.643636 411.401747 
L 796.238182 412.909615 
L 806.13 415.544898 
L 809.427273 416.439849 
L 809.427273 416.439849 
" clip-path="url(#p630cad71b3)" style="fill: none; stroke: #d62728; stroke-width: 1.5; stroke-linecap: square"/>
   </g>
   <g id="line2d_20">
    <path d="M 149.972727 610.025035 
L 153.27 609.875979 
L 156.567273 609.46769 
L 159.864545 608.822823 
L 166.459091 607.058614 
L 173.053636 605.202763 
L 176.350909 604.44624 
L 179.648182 603.891941 
L 182.945455 603.582498 
L 186.242727 603.538805 
L 189.54 603.759803 
L 192.837273 604.223975 
L 196.134545 604.892341 
L 202.729091 606.62527 
L 209.323636 608.483403 
L 215.918182 610.051011 
L 219.215455 610.646776 
L 222.512727 611.102917 
L 225.81 611.42317 
L 229.107273 611.618189 
L 235.701818 611.683898 
L 242.296364 611.378048 
L 248.890909 610.727383 
L 255.485455 609.758739 
L 275.269091 606.385782 
L 281.863636 605.732855 
L 288.458182 605.38358 
L 298.35 604.986284 
L 304.944545 604.471158 
L 311.539091 603.658319 
L 324.728182 601.810111 
L 331.322727 601.213471 
L 337.917273 600.891655 
L 347.809091 600.475896 
L 354.403636 599.856984 
L 357.700909 599.356067 
L 360.998182 598.689651 
L 364.295455 597.824529 
L 367.592727 596.720145 
L 370.89 595.327145 
L 374.187273 593.587571 
L 377.484545 591.436357 
L 380.781818 588.803184 
L 384.079091 585.613475 
L 387.376364 581.787337 
L 390.673636 577.235818 
L 393.970909 571.854656 
L 397.268182 565.516735 
L 400.565455 558.065409 
L 403.862727 549.311476 
L 407.16 539.036678 
L 410.457273 527.006118 
L 413.754545 512.990732 
L 417.051818 496.79914 
L 420.349091 478.31584 
L 423.646364 457.540089 
L 426.943636 434.617743 
L 430.240909 409.857442 
L 436.835455 356.806775 
L 443.43 303.259811 
L 446.727273 277.892202 
L 450.024545 254.146992 
L 453.321818 232.36559 
L 456.619091 212.741025 
L 459.916364 195.334448 
L 463.213636 180.105264 
L 466.510909 166.946638 
L 469.808182 155.719365 
L 473.105455 146.279476 
L 476.402727 138.497381 
L 479.7 132.268342 
L 482.997273 127.515337 
L 486.294545 124.186124 
L 489.591818 122.246421 
L 492.889091 121.671043 
L 496.186364 122.434529 
L 499.483636 124.50239 
L 502.780909 127.823808 
L 506.078182 132.326345 
L 509.375455 137.912987 
L 512.672727 144.461789 
L 515.97 151.828207 
L 519.267273 159.850016 
L 522.564545 168.354519 
L 539.050909 212.471895 
L 542.348182 220.768697 
L 545.645455 228.741959 
L 548.942727 236.385472 
L 552.24 243.713481 
L 558.834545 257.538274 
L 565.429091 270.464332 
L 572.023636 282.651423 
L 578.618182 294.095499 
L 581.915455 299.50126 
L 585.212727 304.66988 
L 588.51 309.584527 
L 591.807273 314.234569 
L 595.104545 318.617599 
L 598.401818 322.740138 
L 601.699091 326.617095 
L 604.996364 330.270175 
L 608.293636 333.725585 
L 614.888182 340.154943 
L 621.482727 346.107184 
L 628.077273 351.710254 
L 634.671818 356.990625 
L 641.266364 361.888442 
L 647.860909 366.30595 
L 651.158182 368.308416 
L 654.455455 370.166363 
L 657.752727 371.880361 
L 661.05 373.455741 
L 667.644545 376.232683 
L 674.239091 378.611844 
L 684.130909 381.759783 
L 694.022727 384.875423 
L 700.617273 387.155005 
L 707.211818 389.664958 
L 717.103636 393.752029 
L 726.995455 397.848122 
L 733.59 400.375522 
L 740.184545 402.662871 
L 746.779091 404.695348 
L 753.373636 406.473639 
L 759.968182 407.997512 
L 766.562727 409.277841 
L 776.454545 410.8659 
L 786.346364 412.396283 
L 792.940909 413.572904 
L 802.832727 415.599048 
L 809.427273 416.935767 
L 809.427273 416.935767 
" clip-path="url(#p630cad71b3)" style="fill: none; stroke: #9467bd; stroke-width: 1.5; stroke-linecap: square"/>
   </g>
   <g id="line2d_21">
    <path d="M 149.972727 608.010421 
L 153.27 607.843775 
L 156.567273 607.437448 
L 159.864545 606.822058 
L 173.053636 603.771649 
L 176.350909 603.286154 
L 179.648182 603.044428 
L 182.945455 603.076516 
L 186.242727 603.387802 
L 189.54 603.960325 
L 192.837273 604.756128 
L 199.431818 606.796839 
L 209.323636 610.057856 
L 212.620909 610.994138 
L 215.918182 611.806684 
L 219.215455 612.487748 
L 222.512727 613.040569 
L 229.107273 613.802456 
L 235.701818 614.167024 
L 242.296364 614.135135 
L 245.593636 613.947545 
L 248.890909 613.630308 
L 252.188182 613.17666 
L 255.485455 612.587659 
L 262.08 611.05796 
L 278.566364 606.634249 
L 285.160909 605.299972 
L 291.755455 604.344055 
L 301.647273 603.318522 
L 318.133636 601.849487 
L 324.728182 601.550187 
L 331.322727 601.553341 
L 344.511818 601.848796 
L 347.809091 601.767596 
L 351.106364 601.546002 
L 354.403636 601.149194 
L 357.700909 600.543491 
L 360.998182 599.693275 
L 364.295455 598.557556 
L 367.592727 597.087174 
L 370.89 595.223432 
L 374.187273 592.898493 
L 377.484545 590.037328 
L 380.781818 586.560386 
L 384.079091 582.385867 
L 387.376364 577.43037 
L 390.673636 571.607061 
L 393.970909 564.821284 
L 397.268182 556.964438 
L 400.565455 547.90802 
L 403.862727 537.50046 
L 407.16 525.569674 
L 410.457273 511.933885 
L 413.754545 496.422079 
L 417.051818 478.903581 
L 420.349091 459.323687 
L 423.646364 437.73961 
L 426.943636 414.348774 
L 430.240909 389.500857 
L 443.43 286.5744 
L 446.727273 262.991966 
L 450.024545 241.247908 
L 453.321818 221.590218 
L 456.619091 204.112535 
L 459.916364 188.778106 
L 463.213636 175.457127 
L 466.510909 163.968607 
L 469.808182 154.11915 
L 473.105455 145.733625 
L 476.402727 138.67518 
L 479.7 132.854358 
L 482.997273 128.228571 
L 486.294545 124.794185 
L 489.591818 122.573849 
L 492.889091 121.601656 
L 496.186364 121.908443 
L 499.483636 123.508961 
L 502.780909 126.392107 
L 506.078182 130.514832 
L 509.375455 135.799851 
L 512.672727 142.136927 
L 515.97 149.387218 
L 519.267273 157.390036 
L 522.564545 165.971253 
L 529.159091 184.160435 
L 535.753636 202.636623 
L 542.348182 220.390422 
L 545.645455 228.79713 
L 548.942727 236.838135 
L 552.24 244.503226 
L 555.537273 251.799781 
L 558.834545 258.747306 
L 562.131818 265.371974 
L 565.429091 271.701661 
L 568.726364 277.761977 
L 572.023636 283.573538 
L 575.320909 289.150641 
L 578.618182 294.501294 
L 581.915455 299.628398 
L 585.212727 304.531696 
L 588.51 309.210106 
L 591.807273 313.663921 
L 595.104545 317.896551 
L 598.401818 321.915534 
L 601.699091 325.732698 
L 604.996364 329.363576 
L 611.590909 336.139641 
L 618.185455 342.390241 
L 624.78 348.230149 
L 631.374545 353.712513 
L 637.969091 358.825516 
L 644.563636 363.512233 
L 651.158182 367.702594 
L 654.455455 369.594195 
L 657.752727 371.34557 
L 661.05 372.957523 
L 664.347273 374.434853 
L 670.941818 377.027134 
L 677.536364 379.251786 
L 690.725455 383.407321 
L 697.32 385.750089 
L 703.914545 388.408665 
L 723.698182 396.979927 
L 730.292727 399.319123 
L 736.887273 401.193669 
L 743.481818 402.647574 
L 750.076364 403.790557 
L 759.968182 405.184943 
L 773.157273 407.004416 
L 779.751818 408.14354 
L 786.346364 409.580218 
L 792.940909 411.368118 
L 799.535455 413.46258 
L 809.427273 416.786235 
L 809.427273 416.786235 
" clip-path="url(#p630cad71b3)" style="fill: none; stroke: #8c564b; stroke-width: 1.5; stroke-linecap: square"/>
   </g>
   <g id="line2d_22">
    <path d="M 149.972727 610.785974 
L 153.27 610.364865 
L 156.567273 609.698413 
L 159.864545 608.819048 
L 173.053636 604.701659 
L 176.350909 603.953635 
L 179.648182 603.449392 
L 182.945455 603.213594 
L 186.242727 603.243806 
L 189.54 603.513278 
L 192.837273 603.976446 
L 199.431818 605.252226 
L 209.323636 607.232762 
L 215.918182 608.245703 
L 222.512727 609.014524 
L 232.404545 609.930374 
L 238.999091 610.385395 
L 245.593636 610.557767 
L 248.890909 610.484079 
L 252.188182 610.285739 
L 255.485455 609.961793 
L 262.08 608.990972 
L 278.566364 606.052723 
L 285.160909 605.227346 
L 291.755455 604.646161 
L 304.944545 603.603959 
L 321.430909 602.082482 
L 328.025455 601.791113 
L 337.917273 601.756498 
L 344.511818 601.672116 
L 347.809091 601.502645 
L 351.106364 601.206524 
L 354.403636 600.758798 
L 357.700909 600.137346 
L 360.998182 599.318901 
L 364.295455 598.274355 
L 367.592727 596.964515 
L 370.89 595.337314 
L 374.187273 593.327039 
L 377.484545 590.855563 
L 380.781818 587.834942 
L 384.079091 584.170264 
L 387.376364 579.761545 
L 390.673636 574.503673 
L 393.970909 568.284091 
L 397.268182 560.97887 
L 400.565455 552.448739 
L 403.862727 542.537481 
L 407.16 531.075328 
L 410.457273 517.889604 
L 413.754545 502.82373 
L 417.051818 485.763829 
L 420.349091 466.669905 
L 423.646364 445.606248 
L 426.943636 422.764124 
L 430.240909 398.469667 
L 443.43 296.792823 
L 446.727273 272.992683 
L 450.024545 250.743532 
L 453.321818 230.296108 
L 456.619091 211.771201 
L 459.916364 195.177856 
L 463.213636 180.442787 
L 466.510909 167.444173 
L 469.808182 156.043929 
L 473.105455 146.114295 
L 476.402727 137.556485 
L 479.7 130.310699 
L 482.997273 124.358049 
L 486.294545 119.715657 
L 489.591818 116.426659 
L 492.889091 114.546946 
L 496.186364 114.130529 
L 499.483636 115.215177 
L 502.780909 117.809864 
L 506.078182 121.885179 
L 509.375455 127.367643 
L 512.672727 134.138449 
L 515.97 142.036771 
L 519.267273 150.867316 
L 522.564545 160.411354 
L 529.159091 180.728436 
L 535.753636 201.28277 
L 539.050909 211.226676 
L 542.348182 220.797825 
L 545.645455 229.932911 
L 548.942727 238.604293 
L 552.24 246.813199 
L 555.537273 254.581276 
L 558.834545 261.941609 
L 562.131818 268.930442 
L 565.429091 275.580476 
L 568.726364 281.916387 
L 572.023636 287.952843 
L 575.320909 293.694869 
L 578.618182 299.14016 
L 581.915455 304.282604 
L 585.212727 309.116257 
L 588.51 313.639035 
L 591.807273 317.855434 
L 595.104545 321.778027 
L 598.401818 325.427525 
L 601.699091 328.831609 
L 604.996364 332.022846 
L 611.590909 337.905645 
L 618.185455 343.335031 
L 624.78 348.497923 
L 634.671818 355.900391 
L 641.266364 360.566177 
L 647.860909 364.915915 
L 654.455455 368.855 
L 661.05 372.320189 
L 667.644545 375.305456 
L 674.239091 377.877543 
L 684.130909 381.285216 
L 694.022727 384.74435 
L 700.617273 387.345046 
L 707.211818 390.2085 
L 720.400909 396.083064 
L 726.995455 398.639336 
L 730.292727 399.748349 
L 733.59 400.736826 
L 740.184545 402.376209 
L 746.779091 403.655302 
L 753.373636 404.69934 
L 763.265455 406.027544 
L 779.751818 408.164908 
L 786.346364 409.304291 
L 792.940909 410.805919 
L 799.535455 412.714324 
L 806.13 414.929093 
L 809.427273 416.076449 
L 809.427273 416.076449 
" clip-path="url(#p630cad71b3)" style="fill: none; stroke: #e377c2; stroke-width: 1.5; stroke-linecap: square"/>
   </g>
   <g id="line2d_23">
    <path d="M 149.972727 609.671385 
L 153.27 609.720354 
L 156.567273 609.404007 
L 159.864545 608.752121 
L 163.161818 607.834666 
L 176.350909 603.57402 
L 179.648182 602.864889 
L 182.945455 602.438347 
L 186.242727 602.317695 
L 189.54 602.498051 
L 192.837273 602.949901 
L 196.134545 603.62485 
L 202.729091 605.39984 
L 212.620909 608.250268 
L 219.215455 609.844382 
L 225.81 611.113933 
L 232.404545 612.099134 
L 238.999091 612.788324 
L 242.296364 612.98985 
L 245.593636 613.071033 
L 248.890909 613.015269 
L 252.188182 612.813158 
L 255.485455 612.466114 
L 262.08 611.405736 
L 275.269091 608.801321 
L 281.863636 607.820733 
L 288.458182 607.179401 
L 301.647273 606.191752 
L 308.241818 605.42065 
L 318.133636 603.869649 
L 324.728182 602.843483 
L 331.322727 602.017709 
L 351.106364 600.011266 
L 354.403636 599.473634 
L 357.700909 598.796991 
L 360.998182 597.94337 
L 364.295455 596.865539 
L 367.592727 595.504532 
L 370.89 593.788942 
L 374.187273 591.636241 
L 377.484545 588.95584 
L 380.781818 585.652964 
L 384.079091 581.632093 
L 387.376364 576.798685 
L 390.673636 571.058333 
L 393.970909 564.313186 
L 397.268182 556.45657 
L 400.565455 547.367579 
L 403.862727 536.908216 
L 407.16 524.925745 
L 410.457273 511.262477 
L 413.754545 495.773987 
L 417.051818 478.354978 
L 420.349091 458.969823 
L 423.646364 437.682698 
L 426.943636 414.680699 
L 430.240909 390.283124 
L 443.43 288.670999 
L 446.727273 265.026187 
L 450.024545 243.015012 
L 453.321818 222.905755 
L 456.619091 204.833858 
L 459.916364 188.817394 
L 463.213636 174.784962 
L 466.510909 162.609238 
L 469.808182 152.139891 
L 473.105455 143.231231 
L 476.402727 135.761847 
L 479.7 129.645308 
L 482.997273 124.832438 
L 486.294545 121.306659 
L 489.591818 119.074434 
L 492.889091 118.152995 
L 496.186364 118.557386 
L 499.483636 120.288532 
L 502.780909 123.323596 
L 506.078182 127.609469 
L 509.375455 133.059819 
L 512.672727 139.55576 
L 515.97 146.949927 
L 519.267273 155.073421 
L 522.564545 163.744859 
L 529.159091 182.004796 
L 535.753636 200.409182 
L 542.348182 218.008299 
L 545.645455 226.33866 
L 548.942727 234.32283 
L 552.24 241.96261 
L 555.537273 249.273552 
L 558.834545 256.278193 
L 562.131818 262.999878 
L 565.429091 269.457901 
L 568.726364 275.664358 
L 572.023636 281.622973 
L 575.320909 287.329808 
L 578.618182 292.775577 
L 581.915455 297.949029 
L 585.212727 302.84076 
L 588.51 307.44678 
L 591.807273 311.771219 
L 595.104545 315.827756 
L 598.401818 319.639563 
L 601.699091 323.237817 
L 608.293636 329.941868 
L 614.888182 336.235054 
L 624.78 345.351208 
L 634.671818 354.157009 
L 641.266364 359.648219 
L 644.563636 362.213366 
L 647.860909 364.632863 
L 651.158182 366.893711 
L 654.455455 368.988941 
L 657.752727 370.917928 
L 661.05 372.686187 
L 664.347273 374.304806 
L 670.941818 377.160366 
L 677.536364 379.651204 
L 697.32 386.775974 
L 707.211818 390.777004 
L 717.103636 394.783793 
L 723.698182 397.170982 
L 730.292727 399.19923 
L 736.887273 400.88037 
L 746.779091 402.999401 
L 766.562727 407.096533 
L 783.049091 410.693007 
L 789.643636 412.301116 
L 796.238182 414.10922 
L 809.427273 418.093554 
L 809.427273 418.093554 
" clip-path="url(#p630cad71b3)" style="fill: none; stroke: #7f7f7f; stroke-width: 1.5; stroke-linecap: square"/>
   </g>
   <g id="line2d_24">
    <path d="M 149.972727 610.362277 
L 153.27 610.479519 
L 156.567273 610.237162 
L 159.864545 609.684521 
L 163.161818 608.899486 
L 173.053636 606.120257 
L 176.350909 605.365536 
L 179.648182 604.817838 
L 182.945455 604.51674 
L 186.242727 604.476576 
L 189.54 604.687547 
L 192.837273 605.119025 
L 196.134545 605.724591 
L 202.729091 607.231214 
L 209.323636 608.763296 
L 215.918182 610.008082 
L 222.512727 610.862258 
L 229.107273 611.378848 
L 235.701818 611.635767 
L 242.296364 611.629975 
L 248.890909 611.273783 
L 255.485455 610.485253 
L 262.08 609.292889 
L 278.566364 605.845756 
L 285.160909 604.819562 
L 295.052727 603.684654 
L 304.944545 602.506311 
L 321.430909 600.226115 
L 328.025455 599.752589 
L 334.62 599.67579 
L 344.511818 599.798727 
L 347.809091 599.721139 
L 351.106364 599.509305 
L 354.403636 599.125382 
L 357.700909 598.535196 
L 360.998182 597.704613 
L 364.295455 596.595011 
L 367.592727 595.159124 
L 370.89 593.338409 
L 374.187273 591.062587 
L 377.484545 588.251305 
L 380.781818 584.81716 
L 384.079091 580.668802 
L 387.376364 575.712651 
L 390.673636 569.852041 
L 393.970909 562.983442 
L 397.268182 554.990448 
L 400.565455 545.737486 
L 403.862727 535.066151 
L 407.16 522.797511 
L 410.457273 508.74339 
L 413.754545 492.728286 
L 417.051818 474.621362 
L 420.349091 454.374973 
L 423.646364 432.063084 
L 426.943636 407.910532 
L 430.240909 382.303649 
L 440.132727 302.543057 
L 443.43 277.163831 
L 446.727273 253.373524 
L 450.024545 231.576501 
L 453.321818 212.012513 
L 456.619091 194.763242 
L 459.916364 179.779601 
L 463.213636 166.920911 
L 466.510909 155.996929 
L 469.808182 146.805635 
L 473.105455 139.162362 
L 476.402727 132.91837 
L 479.7 127.969044 
L 482.997273 124.253158 
L 486.294545 121.745419 
L 489.591818 120.444735 
L 492.889091 120.360585 
L 496.186364 121.499522 
L 499.483636 123.85345 
L 502.780909 127.390761 
L 506.078182 132.051012 
L 509.375455 137.743335 
L 512.672727 144.348392 
L 515.97 151.723404 
L 519.267273 159.709497 
L 525.861818 176.851892 
L 535.753636 203.226517 
L 542.348182 219.962459 
L 545.645455 227.901212 
L 548.942727 235.534311 
L 552.24 242.870676 
L 558.834545 256.742302 
L 565.429091 269.716693 
L 572.023636 281.923991 
L 578.618182 293.347414 
L 581.915455 298.726554 
L 585.212727 303.858461 
L 588.51 308.72796 
L 591.807273 313.327106 
L 595.104545 317.657156 
L 598.401818 321.728991 
L 601.699091 325.56205 
L 604.996364 329.182051 
L 611.590909 335.899112 
L 618.185455 342.097431 
L 624.78 347.922095 
L 631.374545 353.417986 
L 637.969091 358.550798 
L 644.563636 363.255039 
L 651.158182 367.481477 
L 657.752727 371.223412 
L 664.347273 374.516147 
L 670.941818 377.421059 
L 677.536364 380.014525 
L 687.428182 383.5386 
L 697.32 387.012011 
L 703.914545 389.494968 
L 713.806364 393.495904 
L 723.698182 397.433648 
L 730.292727 399.728739 
L 736.887273 401.634861 
L 743.481818 403.157309 
L 750.076364 404.374718 
L 759.968182 405.854966 
L 773.157273 407.698796 
L 779.751818 408.799465 
L 786.346364 410.155016 
L 792.940909 411.80371 
L 802.832727 414.644352 
L 809.427273 416.478983 
L 809.427273 416.478983 
" clip-path="url(#p630cad71b3)" style="fill: none; stroke: #bcbd22; stroke-width: 1.5; stroke-linecap: square"/>
   </g>
   <g id="line2d_25">
    <path d="M 149.972727 610.06393 
L 153.27 609.813645 
L 156.567273 609.214928 
L 159.864545 608.307619 
L 163.161818 607.168815 
L 173.053636 603.43727 
L 176.350909 602.455284 
L 179.648182 601.750805 
L 182.945455 601.371848 
L 186.242727 601.334372 
L 189.54 601.623344 
L 192.837273 602.197113 
L 196.134545 602.994382 
L 202.729091 604.968224 
L 209.323636 606.992051 
L 215.918182 608.701882 
L 222.512727 609.997029 
L 229.107273 610.948537 
L 235.701818 611.632653 
L 242.296364 612.017803 
L 245.593636 612.05929 
L 248.890909 611.975587 
L 252.188182 611.753319 
L 255.485455 611.387416 
L 258.782727 610.883261 
L 265.377273 609.535028 
L 281.863636 605.661768 
L 288.458182 604.462621 
L 295.052727 603.504008 
L 314.836364 601.015578 
L 321.430909 600.389615 
L 328.025455 600.07389 
L 334.62 600.054307 
L 344.511818 600.097839 
L 347.809091 599.970997 
L 351.106364 599.70645 
L 354.403636 599.268057 
L 357.700909 598.620953 
L 360.998182 597.728625 
L 364.295455 596.549653 
L 367.592727 595.035123 
L 370.89 593.127526 
L 374.187273 590.761511 
L 377.484545 587.866229 
L 380.781818 584.368542 
L 384.079091 580.195897 
L 387.376364 575.277638 
L 390.673636 569.543782 
L 393.970909 562.920935 
L 397.268182 555.32587 
L 400.565455 546.658225 
L 403.862727 536.79451 
L 407.16 525.585923 
L 410.457273 512.862431 
L 413.754545 498.444759 
L 417.051818 482.164912 
L 420.349091 463.894238 
L 423.646364 443.576262 
L 426.943636 421.259663 
L 430.240909 397.12512 
L 433.538182 371.499079 
L 446.727273 264.807307 
L 450.024545 240.195417 
L 453.321818 217.498358 
L 456.619091 197.050078 
L 459.916364 179.03173 
L 463.213636 163.484771 
L 466.510909 150.339773 
L 469.808182 139.452839 
L 473.105455 130.642013 
L 476.402727 123.718048 
L 479.7 118.506481 
L 482.997273 114.860222 
L 486.294545 112.663619 
L 489.591818 111.829893 
L 492.889091 112.29421 
L 496.186364 114.004526 
L 499.483636 116.912015 
L 502.780909 120.962354 
L 506.078182 126.088783 
L 509.375455 132.207413 
L 512.672727 139.215053 
L 515.97 146.989594 
L 519.267273 155.392828 
L 522.564545 164.275424 
L 529.159091 182.866349 
L 535.753636 201.613185 
L 542.348182 219.63348 
L 545.645455 228.200813 
L 548.942727 236.430907 
L 552.24 244.316961 
L 555.537273 251.865414 
L 558.834545 259.089906 
L 562.131818 266.005708 
L 565.429091 272.625348 
L 568.726364 278.955943 
L 572.023636 284.998359 
L 575.320909 290.748103 
L 578.618182 296.197566 
L 581.915455 301.339055 
L 585.212727 306.167999 
L 588.51 310.685744 
L 591.807273 314.901478 
L 595.104545 318.832963 
L 598.401818 322.506051 
L 601.699091 325.953092 
L 608.293636 332.316015 
L 614.888182 338.210918 
L 624.78 346.639104 
L 634.671818 354.773476 
L 641.266364 359.933984 
L 647.860909 364.74086 
L 654.455455 369.076663 
L 657.752727 371.041939 
L 661.05 372.865175 
L 664.347273 374.546091 
L 667.644545 376.08862 
L 674.239091 378.796302 
L 680.833636 381.107689 
L 700.617273 387.534412 
L 707.211818 390.010838 
L 726.995455 397.775113 
L 733.59 399.930066 
L 740.184545 401.732535 
L 746.779091 403.224007 
L 753.373636 404.485632 
L 766.562727 406.672349 
L 776.454545 408.39949 
L 783.049091 409.811307 
L 789.643636 411.551735 
L 796.238182 413.642502 
L 809.427273 418.32806 
L 809.427273 418.32806 
" clip-path="url(#p630cad71b3)" style="fill: none; stroke: #17becf; stroke-width: 1.5; stroke-linecap: square"/>
   </g>
   <g id="patch_3">
    <path d="M 117 640.8 
L 117 86.4 
" style="fill: none; stroke: #000000; stroke-width: 0.8; stroke-linejoin: miter; stroke-linecap: square"/>
   </g>
   <g id="patch_4">
    <path d="M 842.4 640.8 
L 842.4 86.4 
" style="fill: none; stroke: #000000; stroke-width: 0.8; stroke-linejoin: miter; stroke-linecap: square"/>
   </g>
   <g id="patch_5">
    <path d="M 117 640.8 
L 842.4 640.8 
" style="fill: none; stroke: #000000; stroke-width: 0.8; stroke-linejoin: miter; stroke-linecap: square"/>
   </g>
   <g id="patch_6">
    <path d="M 117 86.4 
L 842.4 86.4 
" style="fill: none; stroke: #000000; stroke-width: 0.8; stroke-linejoin: miter; stroke-linecap: square"/>
   </g>
   <g id="text_18">
    <!-- Wilson action difference between twist and notwist with respect to $\beta$ using jackknife and FS reweighting -->
    <g transform="translate(166.56 80.4) scale(0.12 -0.12)">
     <defs>
      <path id="DejaVuSans-57" d="M 213 4666 
L 850 4666 
L 1831 722 
L 2809 4666 
L 3519 4666 
L 4500 722 
L 5478 4666 
L 6119 4666 
L 4947 0 
L 4153 0 
L 3169 4050 
L 2175 0 
L 1381 0 
L 213 4666 
z
" transform="scale(0.015625)"/>
      <path id="DejaVuSans-69" d="M 603 3500 
L 1178 3500 
L 1178 0 
L 603 0 
L 603 3500 
z
M 603 4863 
L 1178 4863 
L 1178 4134 
L 603 4134 
L 603 4863 
z
" transform="scale(0.015625)"/>
      <path id="DejaVuSans-6c" d="M 603 4863 
L 1178 4863 
L 1178 0 
L 603 0 
L 603 4863 
z
" transform="scale(0.015625)"/>
      <path id="DejaVuSans-73" d="M 2834 3397 
L 2834 2853 
Q 2591 2978 2328 3040 
Q 2066 3103 1784 3103 
Q 1356 3103 1142 2972 
Q 928 2841 928 2578 
Q 928 2378 1081 2264 
Q 1234 2150 1697 2047 
L 1894 2003 
Q 2506 1872 2764 1633 
Q 3022 1394 3022 966 
Q 3022 478 2636 193 
Q 2250 -91 1575 -91 
Q 1294 -91 989 -36 
Q 684 19 347 128 
L 347 722 
Q 666 556 975 473 
Q 1284 391 1588 391 
Q 1994 391 2212 530 
Q 2431 669 2431 922 
Q 2431 1156 2273 1281 
Q 2116 1406 1581 1522 
L 1381 1569 
Q 847 1681 609 1914 
Q 372 2147 372 2553 
Q 372 3047 722 3315 
Q 1072 3584 1716 3584 
Q 2034 3584 2315 3537 
Q 2597 3491 2834 3397 
z
" transform="scale(0.015625)"/>
      <path id="DejaVuSans-6f" d="M 1959 3097 
Q 1497 3097 1228 2736 
Q 959 2375 959 1747 
Q 959 1119 1226 758 
Q 1494 397 1959 397 
Q 2419 397 2687 759 
Q 2956 1122 2956 1747 
Q 2956 2369 2687 2733 
Q 2419 3097 1959 3097 
z
M 1959 3584 
Q 2709 3584 3137 3096 
Q 3566 2609 3566 1747 
Q 3566 888 3137 398 
Q 2709 -91 1959 -91 
Q 1206 -91 779 398 
Q 353 888 353 1747 
Q 353 2609 779 3096 
Q 1206 3584 1959 3584 
z
" transform="scale(0.015625)"/>
      <path id="DejaVuSans-6e" d="M 3513 2113 
L 3513 0 
L 2938 0 
L 2938 2094 
Q 2938 2591 2744 2837 
Q 2550 3084 2163 3084 
Q 1697 3084 1428 2787 
Q 1159 2491 1159 1978 
L 1159 0 
L 581 0 
L 581 3500 
L 1159 3500 
L 1159 2956 
Q 1366 3272 1645 3428 
Q 1925 3584 2291 3584 
Q 2894 3584 3203 3211 
Q 3513 2838 3513 2113 
z
" transform="scale(0.015625)"/>
      <path id="DejaVuSans-20" transform="scale(0.015625)"/>
      <path id="DejaVuSans-61" d="M 2194 1759 
Q 1497 1759 1228 1600 
Q 959 1441 959 1056 
Q 959 750 1161 570 
Q 1363 391 1709 391 
Q 2188 391 2477 730 
Q 2766 1069 2766 1631 
L 2766 1759 
L 2194 1759 
z
M 3341 1997 
L 3341 0 
L 2766 0 
L 2766 531 
Q 2569 213 2275 61 
Q 1981 -91 1556 -91 
Q 1019 -91 701 211 
Q 384 513 384 1019 
Q 384 1609 779 1909 
Q 1175 2209 1959 2209 
L 2766 2209 
L 2766 2266 
Q 2766 2663 2505 2880 
Q 2244 3097 1772 3097 
Q 1472 3097 1187 3025 
Q 903 2953 641 2809 
L 641 3341 
Q 956 3463 1253 3523 
Q 1550 3584 1831 3584 
Q 2591 3584 2966 3190 
Q 3341 2797 3341 1997 
z
" transform="scale(0.015625)"/>
      <path id="DejaVuSans-63" d="M 3122 3366 
L 3122 2828 
Q 2878 2963 2633 3030 
Q 2388 3097 2138 3097 
Q 1578 3097 1268 2742 
Q 959 2388 959 1747 
Q 959 1106 1268 751 
Q 1578 397 2138 397 
Q 2388 397 2633 464 
Q 2878 531 3122 666 
L 3122 134 
Q 2881 22 2623 -34 
Q 2366 -91 2075 -91 
Q 1284 -91 818 406 
Q 353 903 353 1747 
Q 353 2603 823 3093 
Q 1294 3584 2113 3584 
Q 2378 3584 2631 3529 
Q 2884 3475 3122 3366 
z
" transform="scale(0.015625)"/>
      <path id="DejaVuSans-74" d="M 1172 4494 
L 1172 3500 
L 2356 3500 
L 2356 3053 
L 1172 3053 
L 1172 1153 
Q 1172 725 1289 603 
Q 1406 481 1766 481 
L 2356 481 
L 2356 0 
L 1766 0 
Q 1100 0 847 248 
Q 594 497 594 1153 
L 594 3053 
L 172 3053 
L 172 3500 
L 594 3500 
L 594 4494 
L 1172 4494 
z
" transform="scale(0.015625)"/>
      <path id="DejaVuSans-64" d="M 2906 2969 
L 2906 4863 
L 3481 4863 
L 3481 0 
L 2906 0 
L 2906 525 
Q 2725 213 2448 61 
Q 2172 -91 1784 -91 
Q 1150 -91 751 415 
Q 353 922 353 1747 
Q 353 2572 751 3078 
Q 1150 3584 1784 3584 
Q 2172 3584 2448 3432 
Q 2725 3281 2906 2969 
z
M 947 1747 
Q 947 1113 1208 752 
Q 1469 391 1925 391 
Q 2381 391 2643 752 
Q 2906 1113 2906 1747 
Q 2906 2381 2643 2742 
Q 2381 3103 1925 3103 
Q 1469 3103 1208 2742 
Q 947 2381 947 1747 
z
" transform="scale(0.015625)"/>
      <path id="DejaVuSans-66" d="M 2375 4863 
L 2375 4384 
L 1825 4384 
Q 1516 4384 1395 4259 
Q 1275 4134 1275 3809 
L 1275 3500 
L 2222 3500 
L 2222 3053 
L 1275 3053 
L 1275 0 
L 697 0 
L 697 3053 
L 147 3053 
L 147 3500 
L 697 3500 
L 697 3744 
Q 697 4328 969 4595 
Q 1241 4863 1831 4863 
L 2375 4863 
z
" transform="scale(0.015625)"/>
      <path id="DejaVuSans-65" d="M 3597 1894 
L 3597 1613 
L 953 1613 
Q 991 1019 1311 708 
Q 1631 397 2203 397 
Q 2534 397 2845 478 
Q 3156 559 3463 722 
L 3463 178 
Q 3153 47 2828 -22 
Q 2503 -91 2169 -91 
Q 1331 -91 842 396 
Q 353 884 353 1716 
Q 353 2575 817 3079 
Q 1281 3584 2069 3584 
Q 2775 3584 3186 3129 
Q 3597 2675 3597 1894 
z
M 3022 2063 
Q 3016 2534 2758 2815 
Q 2500 3097 2075 3097 
Q 1594 3097 1305 2825 
Q 1016 2553 972 2059 
L 3022 2063 
z
" transform="scale(0.015625)"/>
      <path id="DejaVuSans-72" d="M 2631 2963 
Q 2534 3019 2420 3045 
Q 2306 3072 2169 3072 
Q 1681 3072 1420 2755 
Q 1159 2438 1159 1844 
L 1159 0 
L 581 0 
L 581 3500 
L 1159 3500 
L 1159 2956 
Q 1341 3275 1631 3429 
Q 1922 3584 2338 3584 
Q 2397 3584 2469 3576 
Q 2541 3569 2628 3553 
L 2631 2963 
z
" transform="scale(0.015625)"/>
      <path id="DejaVuSans-62" d="M 3116 1747 
Q 3116 2381 2855 2742 
Q 2594 3103 2138 3103 
Q 1681 3103 1420 2742 
Q 1159 2381 1159 1747 
Q 1159 1113 1420 752 
Q 1681 391 2138 391 
Q 2594 391 2855 752 
Q 3116 1113 3116 1747 
z
M 1159 2969 
Q 1341 3281 1617 3432 
Q 1894 3584 2278 3584 
Q 2916 3584 3314 3078 
Q 3713 2572 3713 1747 
Q 3713 922 3314 415 
Q 2916 -91 2278 -91 
Q 1894 -91 1617 61 
Q 1341 213 1159 525 
L 1159 0 
L 581 0 
L 581 4863 
L 1159 4863 
L 1159 2969 
z
" transform="scale(0.015625)"/>
      <path id="DejaVuSans-77" d="M 269 3500 
L 844 3500 
L 1563 769 
L 2278 3500 
L 2956 3500 
L 3675 769 
L 4391 3500 
L 4966 3500 
L 4050 0 
L 3372 0 
L 2619 2869 
L 1863 0 
L 1184 0 
L 269 3500 
z
" transform="scale(0.015625)"/>
      <path id="DejaVuSans-68" d="M 3513 2113 
L 3513 0 
L 2938 0 
L 2938 2094 
Q 2938 2591 2744 2837 
Q 2550 3084 2163 3084 
Q 1697 3084 1428 2787 
Q 1159 2491 1159 1978 
L 1159 0 
L 581 0 
L 581 4863 
L 1159 4863 
L 1159 2956 
Q 1366 3272 1645 3428 
Q 1925 3584 2291 3584 
Q 2894 3584 3203 3211 
Q 3513 2838 3513 2113 
z
" transform="scale(0.015625)"/>
      <path id="DejaVuSans-70" d="M 1159 525 
L 1159 -1331 
L 581 -1331 
L 581 3500 
L 1159 3500 
L 1159 2969 
Q 1341 3281 1617 3432 
Q 1894 3584 2278 3584 
Q 2916 3584 3314 3078 
Q 3713 2572 3713 1747 
Q 3713 922 3314 415 
Q 2916 -91 2278 -91 
Q 1894 -91 1617 61 
Q 1341 213 1159 525 
z
M 3116 1747 
Q 3116 2381 2855 2742 
Q 2594 3103 2138 3103 
Q 1681 3103 1420 2742 
Q 1159 2381 1159 1747 
Q 1159 1113 1420 752 
Q 1681 391 2138 391 
Q 2594 391 2855 752 
Q 3116 1113 3116 1747 
z
" transform="scale(0.015625)"/>
      <path id="DejaVuSans-75" d="M 544 1381 
L 544 3500 
L 1119 3500 
L 1119 1403 
Q 1119 906 1312 657 
Q 1506 409 1894 409 
Q 2359 409 2629 706 
Q 2900 1003 2900 1516 
L 2900 3500 
L 3475 3500 
L 3475 0 
L 2900 0 
L 2900 538 
Q 2691 219 2414 64 
Q 2138 -91 1772 -91 
Q 1169 -91 856 284 
Q 544 659 544 1381 
z
M 1991 3584 
L 1991 3584 
z
" transform="scale(0.015625)"/>
      <path id="DejaVuSans-67" d="M 2906 1791 
Q 2906 2416 2648 2759 
Q 2391 3103 1925 3103 
Q 1463 3103 1205 2759 
Q 947 2416 947 1791 
Q 947 1169 1205 825 
Q 1463 481 1925 481 
Q 2391 481 2648 825 
Q 2906 1169 2906 1791 
z
M 3481 434 
Q 3481 -459 3084 -895 
Q 2688 -1331 1869 -1331 
Q 1566 -1331 1297 -1286 
Q 1028 -1241 775 -1147 
L 775 -588 
Q 1028 -725 1275 -790 
Q 1522 -856 1778 -856 
Q 2344 -856 2625 -561 
Q 2906 -266 2906 331 
L 2906 616 
Q 2728 306 2450 153 
Q 2172 0 1784 0 
Q 1141 0 747 490 
Q 353 981 353 1791 
Q 353 2603 747 3093 
Q 1141 3584 1784 3584 
Q 2172 3584 2450 3431 
Q 2728 3278 2906 2969 
L 2906 3500 
L 3481 3500 
L 3481 434 
z
" transform="scale(0.015625)"/>
      <path id="DejaVuSans-6a" d="M 603 3500 
L 1178 3500 
L 1178 -63 
Q 1178 -731 923 -1031 
Q 669 -1331 103 -1331 
L -116 -1331 
L -116 -844 
L 38 -844 
Q 366 -844 484 -692 
Q 603 -541 603 -63 
L 603 3500 
z
M 603 4863 
L 1178 4863 
L 1178 4134 
L 603 4134 
L 603 4863 
z
" transform="scale(0.015625)"/>
      <path id="DejaVuSans-6b" d="M 581 4863 
L 1159 4863 
L 1159 1991 
L 2875 3500 
L 3609 3500 
L 1753 1863 
L 3688 0 
L 2938 0 
L 1159 1709 
L 1159 0 
L 581 0 
L 581 4863 
z
" transform="scale(0.015625)"/>
      <path id="DejaVuSans-46" d="M 628 4666 
L 3309 4666 
L 3309 4134 
L 1259 4134 
L 1259 2759 
L 3109 2759 
L 3109 2228 
L 1259 2228 
L 1259 0 
L 628 0 
L 628 4666 
z
" transform="scale(0.015625)"/>
      <path id="DejaVuSans-53" d="M 3425 4513 
L 3425 3897 
Q 3066 4069 2747 4153 
Q 2428 4238 2131 4238 
Q 1616 4238 1336 4038 
Q 1056 3838 1056 3469 
Q 1056 3159 1242 3001 
Q 1428 2844 1947 2747 
L 2328 2669 
Q 3034 2534 3370 2195 
Q 3706 1856 3706 1288 
Q 3706 609 3251 259 
Q 2797 -91 1919 -91 
Q 1588 -91 1214 -16 
Q 841 59 441 206 
L 441 856 
Q 825 641 1194 531 
Q 1563 422 1919 422 
Q 2459 422 2753 634 
Q 3047 847 3047 1241 
Q 3047 1584 2836 1778 
Q 2625 1972 2144 2069 
L 1759 2144 
Q 1053 2284 737 2584 
Q 422 2884 422 3419 
Q 422 4038 858 4394 
Q 1294 4750 2059 4750 
Q 2388 4750 2728 4690 
Q 3069 4631 3425 4513 
z
" transform="scale(0.015625)"/>
     </defs>
     <use xlink:href="#DejaVuSans-57" transform="translate(0 0.390625)"/>
     <use xlink:href="#DejaVuSans-69" transform="translate(98.876953 0.390625)"/>
     <use xlink:href="#DejaVuSans-6c" transform="translate(126.660156 0.390625)"/>
     <use xlink:href="#DejaVuSans-73" transform="translate(154.443359 0.390625)"/>
     <use xlink:href="#DejaVuSans-6f" transform="translate(206.542969 0.390625)"/>
     <use xlink:href="#DejaVuSans-6e" transform="translate(267.724609 0.390625)"/>
     <use xlink:href="#DejaVuSans-20" transform="translate(331.103516 0.390625)"/>
     <use xlink:href="#DejaVuSans-61" transform="translate(362.890625 0.390625)"/>
     <use xlink:href="#DejaVuSans-63" transform="translate(424.169922 0.390625)"/>
     <use xlink:href="#DejaVuSans-74" transform="translate(479.150391 0.390625)"/>
     <use xlink:href="#DejaVuSans-69" transform="translate(518.359375 0.390625)"/>
     <use xlink:href="#DejaVuSans-6f" transform="translate(546.142578 0.390625)"/>
     <use xlink:href="#DejaVuSans-6e" transform="translate(607.324219 0.390625)"/>
     <use xlink:href="#DejaVuSans-20" transform="translate(670.703125 0.390625)"/>
     <use xlink:href="#DejaVuSans-64" transform="translate(702.490234 0.390625)"/>
     <use xlink:href="#DejaVuSans-69" transform="translate(765.966797 0.390625)"/>
     <use xlink:href="#DejaVuSans-66" transform="translate(793.75 0.390625)"/>
     <use xlink:href="#DejaVuSans-66" transform="translate(828.955078 0.390625)"/>
     <use xlink:href="#DejaVuSans-65" transform="translate(864.160156 0.390625)"/>
     <use xlink:href="#DejaVuSans-72" transform="translate(925.683594 0.390625)"/>
     <use xlink:href="#DejaVuSans-65" transform="translate(966.796875 0.390625)"/>
     <use xlink:href="#DejaVuSans-6e" transform="translate(1028.320312 0.390625)"/>
     <use xlink:href="#DejaVuSans-63" transform="translate(1091.699219 0.390625)"/>
     <use xlink:href="#DejaVuSans-65" transform="translate(1146.679688 0.390625)"/>
     <use xlink:href="#DejaVuSans-20" transform="translate(1208.203125 0.390625)"/>
     <use xlink:href="#DejaVuSans-62" transform="translate(1239.990234 0.390625)"/>
     <use xlink:href="#DejaVuSans-65" transform="translate(1303.466797 0.390625)"/>
     <use xlink:href="#DejaVuSans-74" transform="translate(1364.990234 0.390625)"/>
     <use xlink:href="#DejaVuSans-77" transform="translate(1404.199219 0.390625)"/>
     <use xlink:href="#DejaVuSans-65" transform="translate(1485.986328 0.390625)"/>
     <use xlink:href="#DejaVuSans-65" transform="translate(1547.509766 0.390625)"/>
     <use xlink:href="#DejaVuSans-6e" transform="translate(1609.033203 0.390625)"/>
     <use xlink:href="#DejaVuSans-20" transform="translate(1672.412109 0.390625)"/>
     <use xlink:href="#DejaVuSans-74" transform="translate(1704.199219 0.390625)"/>
     <use xlink:href="#DejaVuSans-77" transform="translate(1743.408203 0.390625)"/>
     <use xlink:href="#DejaVuSans-69" transform="translate(1825.195312 0.390625)"/>
     <use xlink:href="#DejaVuSans-73" transform="translate(1852.978516 0.390625)"/>
     <use xlink:href="#DejaVuSans-74" transform="translate(1905.078125 0.390625)"/>
     <use xlink:href="#DejaVuSans-20" transform="translate(1944.287109 0.390625)"/>
     <use xlink:href="#DejaVuSans-61" transform="translate(1976.074219 0.390625)"/>
     <use xlink:href="#DejaVuSans-6e" transform="translate(2037.353516 0.390625)"/>
     <use xlink:href="#DejaVuSans-64" transform="translate(2100.732422 0.390625)"/>
     <use xlink:href="#DejaVuSans-20" transform="translate(2164.208984 0.390625)"/>
     <use xlink:href="#DejaVuSans-6e" transform="translate(2195.996094 0.390625)"/>
     <use xlink:href="#DejaVuSans-6f" transform="translate(2259.375 0.390625)"/>
     <use xlink:href="#DejaVuSans-74" transform="translate(2320.556641 0.390625)"/>
     <use xlink:href="#DejaVuSans-77" transform="translate(2359.765625 0.390625)"/>
     <use xlink:href="#DejaVuSans-69" transform="translate(2441.552734 0.390625)"/>
     <use xlink:href="#DejaVuSans-73" transform="translate(2469.335938 0.390625)"/>
     <use xlink:href="#DejaVuSans-74" transform="translate(2521.435547 0.390625)"/>
     <use xlink:href="#DejaVuSans-20" transform="translate(2560.644531 0.390625)"/>
     <use xlink:href="#DejaVuSans-77" transform="translate(2592.431641 0.390625)"/>
     <use xlink:href="#DejaVuSans-69" transform="translate(2674.21875 0.390625)"/>
     <use xlink:href="#DejaVuSans-74" transform="translate(2702.001953 0.390625)"/>
     <use xlink:href="#DejaVuSans-68" transform="translate(2741.210938 0.390625)"/>
     <use xlink:href="#DejaVuSans-20" transform="translate(2804.589844 0.390625)"/>
     <use xlink:href="#DejaVuSans-72" transform="translate(2836.376953 0.390625)"/>
     <use xlink:href="#DejaVuSans-65" transform="translate(2877.490234 0.390625)"/>
     <use xlink:href="#DejaVuSans-73" transform="translate(2939.013672 0.390625)"/>
     <use xlink:href="#DejaVuSans-70" transform="translate(2991.113281 0.390625)"/>
     <use xlink:href="#DejaVuSans-65" transform="translate(3054.589844 0.390625)"/>
     <use xlink:href="#DejaVuSans-63" transform="translate(3116.113281 0.390625)"/>
     <use xlink:href="#DejaVuSans-74" transform="translate(3171.09375 0.390625)"/>
     <use xlink:href="#DejaVuSans-20" transform="translate(3210.302734 0.390625)"/>
     <use xlink:href="#DejaVuSans-74" transform="translate(3242.089844 0.390625)"/>
     <use xlink:href="#DejaVuSans-6f" transform="translate(3281.298828 0.390625)"/>
     <use xlink:href="#DejaVuSans-20" transform="translate(3342.480469 0.390625)"/>
     <use xlink:href="#DejaVuSans-Oblique-3b2" transform="translate(3374.267578 0.390625)"/>
     <use xlink:href="#DejaVuSans-20" transform="translate(3438.085938 0.390625)"/>
     <use xlink:href="#DejaVuSans-75" transform="translate(3469.873047 0.390625)"/>
     <use xlink:href="#DejaVuSans-73" transform="translate(3533.251953 0.390625)"/>
     <use xlink:href="#DejaVuSans-69" transform="translate(3585.351562 0.390625)"/>
     <use xlink:href="#DejaVuSans-6e" transform="translate(3613.134766 0.390625)"/>
     <use xlink:href="#DejaVuSans-67" transform="translate(3676.513672 0.390625)"/>
     <use xlink:href="#DejaVuSans-20" transform="translate(3739.990234 0.390625)"/>
     <use xlink:href="#DejaVuSans-6a" transform="translate(3771.777344 0.390625)"/>
     <use xlink:href="#DejaVuSans-61" transform="translate(3799.560547 0.390625)"/>
     <use xlink:href="#DejaVuSans-63" transform="translate(3860.839844 0.390625)"/>
     <use xlink:href="#DejaVuSans-6b" transform="translate(3915.820312 0.390625)"/>
     <use xlink:href="#DejaVuSans-6b" transform="translate(3973.730469 0.390625)"/>
     <use xlink:href="#DejaVuSans-6e" transform="translate(4031.640625 0.390625)"/>
     <use xlink:href="#DejaVuSans-69" transform="translate(4095.019531 0.390625)"/>
     <use xlink:href="#DejaVuSans-66" transform="translate(4122.802734 0.390625)"/>
     <use xlink:href="#DejaVuSans-65" transform="translate(4158.007812 0.390625)"/>
     <use xlink:href="#DejaVuSans-20" transform="translate(4219.53125 0.390625)"/>
     <use xlink:href="#DejaVuSans-61" transform="translate(4251.318359 0.390625)"/>
     <use xlink:href="#DejaVuSans-6e" transform="translate(4312.597656 0.390625)"/>
     <use xlink:href="#DejaVuSans-64" transform="translate(4375.976562 0.390625)"/>
     <use xlink:href="#DejaVuSans-20" transform="translate(4439.453125 0.390625)"/>
     <use xlink:href="#DejaVuSans-46" transform="translate(4471.240234 0.390625)"/>
     <use xlink:href="#DejaVuSans-53" transform="translate(4528.759766 0.390625)"/>
     <use xlink:href="#DejaVuSans-20" transform="translate(4592.236328 0.390625)"/>
     <use xlink:href="#DejaVuSans-72" transform="translate(4624.023438 0.390625)"/>
     <use xlink:href="#DejaVuSans-65" transform="translate(4665.136719 0.390625)"/>
     <use xlink:href="#DejaVuSans-77" transform="translate(4726.660156 0.390625)"/>
     <use xlink:href="#DejaVuSans-65" transform="translate(4808.447266 0.390625)"/>
     <use xlink:href="#DejaVuSans-69" transform="translate(4869.970703 0.390625)"/>
     <use xlink:href="#DejaVuSans-67" transform="translate(4897.753906 0.390625)"/>
     <use xlink:href="#DejaVuSans-68" transform="translate(4961.230469 0.390625)"/>
     <use xlink:href="#DejaVuSans-74" transform="translate(5024.609375 0.390625)"/>
     <use xlink:href="#DejaVuSans-69" transform="translate(5063.818359 0.390625)"/>
     <use xlink:href="#DejaVuSans-6e" transform="translate(5091.601562 0.390625)"/>
     <use xlink:href="#DejaVuSans-67" transform="translate(5154.980469 0.390625)"/>
    </g>
   </g>
  </g>
  <g id="text_19">
   <!-- Twist coefficients 0 and 1. N=10 Jackknife bins -->
   <g transform="translate(0 720) scale(0.1 -0.1)">
    <defs>
     <path id="DejaVuSans-Oblique-54" d="M 378 4666 
L 4325 4666 
L 4225 4134 
L 2559 4134 
L 1759 0 
L 1125 0 
L 1925 4134 
L 275 4134 
L 378 4666 
z
" transform="scale(0.015625)"/>
     <path id="DejaVuSans-Oblique-77" d="M 544 3500 
L 1113 3500 
L 1259 684 
L 2566 3500 
L 3231 3500 
L 3425 684 
L 4666 3500 
L 5241 3500 
L 3641 0 
L 2969 0 
L 2797 2900 
L 1459 0 
L 781 0 
L 544 3500 
z
" transform="scale(0.015625)"/>
     <path id="DejaVuSans-Oblique-69" d="M 1172 4863 
L 1747 4863 
L 1606 4134 
L 1031 4134 
L 1172 4863 
z
M 909 3500 
L 1484 3500 
L 800 0 
L 225 0 
L 909 3500 
z
" transform="scale(0.015625)"/>
     <path id="DejaVuSans-Oblique-73" d="M 3200 3397 
L 3091 2853 
Q 2863 2978 2609 3040 
Q 2356 3103 2088 3103 
Q 1634 3103 1373 2948 
Q 1113 2794 1113 2528 
Q 1113 2219 1719 2053 
Q 1766 2041 1788 2034 
L 1972 1978 
Q 2547 1819 2739 1644 
Q 2931 1469 2931 1166 
Q 2931 609 2489 259 
Q 2047 -91 1331 -91 
Q 1053 -91 747 -37 
Q 441 16 72 128 
L 184 722 
Q 500 559 806 475 
Q 1113 391 1394 391 
Q 1816 391 2080 572 
Q 2344 753 2344 1031 
Q 2344 1331 1650 1516 
L 1591 1531 
L 1394 1581 
Q 956 1697 753 1886 
Q 550 2075 550 2369 
Q 550 2928 970 3256 
Q 1391 3584 2113 3584 
Q 2397 3584 2667 3537 
Q 2938 3491 3200 3397 
z
" transform="scale(0.015625)"/>
     <path id="DejaVuSans-Oblique-20" transform="scale(0.015625)"/>
     <path id="DejaVuSans-Oblique-63" d="M 3431 3366 
L 3316 2797 
Q 3109 2947 2876 3022 
Q 2644 3097 2394 3097 
Q 2119 3097 1870 3000 
Q 1622 2903 1453 2725 
Q 1184 2453 1037 2087 
Q 891 1722 891 1331 
Q 891 859 1127 628 
Q 1363 397 1844 397 
Q 2081 397 2348 469 
Q 2616 541 2906 684 
L 2797 116 
Q 2547 13 2283 -39 
Q 2019 -91 1741 -91 
Q 1044 -91 669 257 
Q 294 606 294 1253 
Q 294 1797 489 2255 
Q 684 2713 1069 3078 
Q 1331 3328 1684 3456 
Q 2038 3584 2456 3584 
Q 2700 3584 2940 3529 
Q 3181 3475 3431 3366 
z
" transform="scale(0.015625)"/>
     <path id="DejaVuSans-Oblique-6f" d="M 1625 -91 
Q 1009 -91 651 289 
Q 294 669 294 1325 
Q 294 1706 417 2101 
Q 541 2497 738 2766 
Q 1047 3184 1428 3384 
Q 1809 3584 2291 3584 
Q 2888 3584 3255 3212 
Q 3622 2841 3622 2241 
Q 3622 1825 3500 1412 
Q 3378 1000 3181 728 
Q 2875 309 2494 109 
Q 2113 -91 1625 -91 
z
M 891 1344 
Q 891 869 1089 633 
Q 1288 397 1691 397 
Q 2269 397 2648 901 
Q 3028 1406 3028 2181 
Q 3028 2634 2825 2865 
Q 2622 3097 2228 3097 
Q 1903 3097 1650 2945 
Q 1397 2794 1197 2484 
Q 1050 2253 970 1956 
Q 891 1659 891 1344 
z
" transform="scale(0.015625)"/>
     <path id="DejaVuSans-Oblique-65" d="M 3078 2063 
Q 3088 2113 3092 2166 
Q 3097 2219 3097 2272 
Q 3097 2653 2873 2875 
Q 2650 3097 2266 3097 
Q 1838 3097 1509 2826 
Q 1181 2556 1013 2059 
L 3078 2063 
z
M 3578 1613 
L 903 1613 
Q 884 1494 878 1425 
Q 872 1356 872 1306 
Q 872 872 1139 634 
Q 1406 397 1894 397 
Q 2269 397 2603 481 
Q 2938 566 3225 728 
L 3116 159 
Q 2806 34 2476 -28 
Q 2147 -91 1806 -91 
Q 1078 -91 686 257 
Q 294 606 294 1247 
Q 294 1794 489 2264 
Q 684 2734 1063 3103 
Q 1306 3334 1642 3459 
Q 1978 3584 2356 3584 
Q 2950 3584 3301 3228 
Q 3653 2872 3653 2272 
Q 3653 2128 3634 1964 
Q 3616 1800 3578 1613 
z
" transform="scale(0.015625)"/>
     <path id="DejaVuSans-Oblique-66" d="M 3059 4863 
L 2969 4384 
L 2419 4384 
Q 2106 4384 1964 4261 
Q 1822 4138 1753 3809 
L 1691 3500 
L 2638 3500 
L 2553 3053 
L 1606 3053 
L 1013 0 
L 434 0 
L 1031 3053 
L 481 3053 
L 563 3500 
L 1113 3500 
L 1159 3744 
Q 1278 4363 1576 4613 
Q 1875 4863 2516 4863 
L 3059 4863 
z
" transform="scale(0.015625)"/>
     <path id="DejaVuSans-Oblique-30" d="M 2444 4750 
Q 3078 4750 3414 4328 
Q 3750 3906 3750 3116 
Q 3750 2516 3592 1923 
Q 3434 1331 3150 863 
Q 2859 394 2467 151 
Q 2075 -91 1600 -91 
Q 988 -91 653 334 
Q 319 759 319 1544 
Q 319 2138 480 2733 
Q 641 3328 928 3794 
Q 1216 4263 1602 4506 
Q 1988 4750 2444 4750 
z
M 2406 4250 
Q 2169 4250 1955 4123 
Q 1741 3997 1569 3750 
Q 1281 3338 1111 2720 
Q 941 2103 941 1453 
Q 941 938 1123 673 
Q 1306 409 1663 409 
Q 1913 409 2125 536 
Q 2338 663 2509 909 
Q 2794 1319 2961 1936 
Q 3128 2553 3128 3206 
Q 3128 3722 2945 3986 
Q 2763 4250 2406 4250 
z
" transform="scale(0.015625)"/>
     <path id="DejaVuSans-Oblique-61" d="M 3438 1997 
L 3047 0 
L 2472 0 
L 2578 531 
Q 2325 219 2001 64 
Q 1678 -91 1281 -91 
Q 834 -91 548 182 
Q 263 456 263 884 
Q 263 1497 752 1853 
Q 1241 2209 2100 2209 
L 2900 2209 
L 2931 2363 
Q 2938 2388 2941 2417 
Q 2944 2447 2944 2509 
Q 2944 2788 2717 2942 
Q 2491 3097 2081 3097 
Q 1800 3097 1504 3025 
Q 1209 2953 897 2809 
L 997 3341 
Q 1322 3463 1633 3523 
Q 1944 3584 2234 3584 
Q 2853 3584 3176 3315 
Q 3500 3047 3500 2534 
Q 3500 2431 3484 2292 
Q 3469 2153 3438 1997 
z
M 2816 1759 
L 2241 1759 
Q 1534 1759 1195 1570 
Q 856 1381 856 984 
Q 856 709 1029 553 
Q 1203 397 1509 397 
Q 1978 397 2328 733 
Q 2678 1069 2791 1631 
L 2816 1759 
z
" transform="scale(0.015625)"/>
     <path id="DejaVuSans-Oblique-64" d="M 2675 525 
Q 2444 222 2128 65 
Q 1813 -91 1428 -91 
Q 903 -91 598 267 
Q 294 625 294 1247 
Q 294 1766 478 2236 
Q 663 2706 1013 3078 
Q 1244 3325 1534 3454 
Q 1825 3584 2144 3584 
Q 2481 3584 2739 3421 
Q 2997 3259 3138 2956 
L 3513 4863 
L 4091 4863 
L 3144 0 
L 2566 0 
L 2675 525 
z
M 891 1350 
Q 891 897 1095 644 
Q 1300 391 1663 391 
Q 1931 391 2161 520 
Q 2391 650 2566 903 
Q 2750 1166 2856 1509 
Q 2963 1853 2963 2188 
Q 2963 2622 2758 2865 
Q 2553 3109 2194 3109 
Q 1922 3109 1687 2981 
Q 1453 2853 1288 2613 
Q 1106 2353 998 2009 
Q 891 1666 891 1350 
z
" transform="scale(0.015625)"/>
     <path id="DejaVuSans-Oblique-31" d="M 416 531 
L 1447 531 
L 2144 4122 
L 978 3897 
L 1088 4441 
L 2247 4666 
L 2881 4666 
L 2075 531 
L 3103 531 
L 3003 0 
L 313 0 
L 416 531 
z
" transform="scale(0.015625)"/>
     <path id="DejaVuSans-Oblique-2e" d="M 525 794 
L 1184 794 
L 1031 0 
L 372 0 
L 525 794 
z
" transform="scale(0.015625)"/>
     <path id="DejaVuSans-Oblique-4e" d="M 1081 4666 
L 1931 4666 
L 3219 666 
L 4000 4666 
L 4616 4666 
L 3706 0 
L 2853 0 
L 1569 4025 
L 788 0 
L 172 0 
L 1081 4666 
z
" transform="scale(0.015625)"/>
     <path id="DejaVuSans-Oblique-3d" d="M 678 2906 
L 4684 2906 
L 4684 2381 
L 678 2381 
L 678 2906 
z
M 678 1631 
L 4684 1631 
L 4684 1100 
L 678 1100 
L 678 1631 
z
" transform="scale(0.015625)"/>
     <path id="DejaVuSans-Oblique-4a" d="M 1069 4666 
L 1703 4666 
L 856 325 
Q 691 -522 298 -901 
Q -94 -1281 -800 -1281 
L -1050 -1281 
L -947 -750 
L -750 -750 
Q -328 -750 -109 -509 
Q 109 -269 225 325 
L 1069 4666 
z
" transform="scale(0.015625)"/>
     <path id="DejaVuSans-Oblique-6b" d="M 1172 4863 
L 1747 4863 
L 1197 2028 
L 3169 3500 
L 3916 3500 
L 1716 1825 
L 3322 0 
L 2625 0 
L 1131 1709 
L 800 0 
L 225 0 
L 1172 4863 
z
" transform="scale(0.015625)"/>
     <path id="DejaVuSans-Oblique-62" d="M 3169 2138 
Q 3169 2591 2961 2847 
Q 2753 3103 2388 3103 
Q 2122 3103 1889 2973 
Q 1656 2844 1484 2597 
Q 1303 2338 1198 1995 
Q 1094 1653 1094 1313 
Q 1094 881 1298 636 
Q 1503 391 1863 391 
Q 2134 391 2365 517 
Q 2597 644 2772 891 
Q 2950 1147 3059 1487 
Q 3169 1828 3169 2138 
z
M 1381 2969 
Q 1594 3256 1914 3420 
Q 2234 3584 2584 3584 
Q 3122 3584 3439 3221 
Q 3756 2859 3756 2241 
Q 3756 1734 3570 1259 
Q 3384 784 3041 416 
Q 2816 172 2522 40 
Q 2228 -91 1906 -91 
Q 1566 -91 1316 65 
Q 1066 222 909 531 
L 806 0 
L 231 0 
L 1178 4863 
L 1753 4863 
L 1381 2969 
z
" transform="scale(0.015625)"/>
    </defs>
    <use xlink:href="#DejaVuSans-Oblique-54"/>
    <use xlink:href="#DejaVuSans-Oblique-77" x="52.958984"/>
    <use xlink:href="#DejaVuSans-Oblique-69" x="134.746094"/>
    <use xlink:href="#DejaVuSans-Oblique-73" x="162.529297"/>
    <use xlink:href="#DejaVuSans-Oblique-74" x="214.628906"/>
    <use xlink:href="#DejaVuSans-Oblique-20" x="253.837891"/>
    <use xlink:href="#DejaVuSans-Oblique-63" x="285.625"/>
    <use xlink:href="#DejaVuSans-Oblique-6f" x="340.605469"/>
    <use xlink:href="#DejaVuSans-Oblique-65" x="401.787109"/>
    <use xlink:href="#DejaVuSans-Oblique-66" x="463.310547"/>
    <use xlink:href="#DejaVuSans-Oblique-66" x="498.515625"/>
    <use xlink:href="#DejaVuSans-Oblique-69" x="533.720703"/>
    <use xlink:href="#DejaVuSans-Oblique-63" x="561.503906"/>
    <use xlink:href="#DejaVuSans-Oblique-69" x="616.484375"/>
    <use xlink:href="#DejaVuSans-Oblique-65" x="644.267578"/>
    <use xlink:href="#DejaVuSans-Oblique-6e" x="705.791016"/>
    <use xlink:href="#DejaVuSans-Oblique-74" x="769.169922"/>
    <use xlink:href="#DejaVuSans-Oblique-73" x="808.378906"/>
    <use xlink:href="#DejaVuSans-Oblique-20" x="860.478516"/>
    <use xlink:href="#DejaVuSans-Oblique-30" x="892.265625"/>
    <use xlink:href="#DejaVuSans-Oblique-20" x="955.888672"/>
    <use xlink:href="#DejaVuSans-Oblique-61" x="987.675781"/>
    <use xlink:href="#DejaVuSans-Oblique-6e" x="1048.955078"/>
    <use xlink:href="#DejaVuSans-Oblique-64" x="1112.333984"/>
    <use xlink:href="#DejaVuSans-Oblique-20" x="1175.810547"/>
    <use xlink:href="#DejaVuSans-Oblique-31" x="1207.597656"/>
    <use xlink:href="#DejaVuSans-Oblique-2e" x="1271.220703"/>
    <use xlink:href="#DejaVuSans-Oblique-20" x="1303.007812"/>
    <use xlink:href="#DejaVuSans-Oblique-4e" x="1334.794922"/>
    <use xlink:href="#DejaVuSans-Oblique-3d" x="1409.599609"/>
    <use xlink:href="#DejaVuSans-Oblique-31" x="1493.388672"/>
    <use xlink:href="#DejaVuSans-Oblique-30" x="1557.011719"/>
    <use xlink:href="#DejaVuSans-Oblique-20" x="1620.634766"/>
    <use xlink:href="#DejaVuSans-Oblique-4a" x="1652.421875"/>
    <use xlink:href="#DejaVuSans-Oblique-61" x="1681.914062"/>
    <use xlink:href="#DejaVuSans-Oblique-63" x="1743.193359"/>
    <use xlink:href="#DejaVuSans-Oblique-6b" x="1798.173828"/>
    <use xlink:href="#DejaVuSans-Oblique-6b" x="1856.083984"/>
    <use xlink:href="#DejaVuSans-Oblique-6e" x="1913.994141"/>
    <use xlink:href="#DejaVuSans-Oblique-69" x="1977.373047"/>
    <use xlink:href="#DejaVuSans-Oblique-66" x="2005.15625"/>
    <use xlink:href="#DejaVuSans-Oblique-65" x="2040.361328"/>
    <use xlink:href="#DejaVuSans-Oblique-20" x="2101.884766"/>
    <use xlink:href="#DejaVuSans-Oblique-62" x="2133.671875"/>
    <use xlink:href="#DejaVuSans-Oblique-69" x="2197.148438"/>
    <use xlink:href="#DejaVuSans-Oblique-6e" x="2224.931641"/>
    <use xlink:href="#DejaVuSans-Oblique-73" x="2288.310547"/>
   </g>
  </g>
 </g>
 <defs>
  <clipPath id="p630cad71b3">
   <rect x="117" y="86.4" width="725.4" height="554.4"/>
  </clipPath>
 </defs>
</svg>
