<?xml version="1.0" encoding="utf-8" standalone="no"?>
<!DOCTYPE svg PUBLIC "-//W3C//DTD SVG 1.1//EN"
  "http://www.w3.org/Graphics/SVG/1.1/DTD/svg11.dtd">
<svg xmlns:xlink="http://www.w3.org/1999/xlink" width="936pt" height="720pt" viewBox="0 0 936 720" xmlns="http://www.w3.org/2000/svg" version="1.1">
 <metadata>
  <rdf:RDF xmlns:dc="http://purl.org/dc/elements/1.1/" xmlns:cc="http://creativecommons.org/ns#" xmlns:rdf="http://www.w3.org/1999/02/22-rdf-syntax-ns#">
   <cc:Work>
    <dc:type rdf:resource="http://purl.org/dc/dcmitype/StillImage"/>
    <dc:date>2024-02-23T11:37:56.917239</dc:date>
    <dc:format>image/svg+xml</dc:format>
    <dc:creator>
     <cc:Agent>
      <dc:title>Matplotlib v3.8.0, https://matplotlib.org/</dc:title>
     </cc:Agent>
    </dc:creator>
   </cc:Work>
  </rdf:RDF>
 </metadata>
 <defs>
  <style type="text/css">*{stroke-linejoin: round; stroke-linecap: butt}</style>
 </defs>
 <g id="figure_1">
  <g id="patch_1">
   <path d="M 0 720 
L 936 720 
L 936 0 
L 0 0 
z
" style="fill: #ffffff"/>
  </g>
  <g id="axes_1">
   <g id="patch_2">
    <path d="M 117 640.8 
L 842.4 640.8 
L 842.4 86.4 
L 117 86.4 
z
" style="fill: #ffffff"/>
   </g>
   <g id="matplotlib.axis_1">
    <g id="xtick_1">
     <g id="line2d_1">
      <defs>
       <path id="m0bec76d133" d="M 0 0 
L 0 3.5 
" style="stroke: #000000; stroke-width: 0.8"/>
      </defs>
      <g>
       <use xlink:href="#m0bec76d133" x="149.972727" y="640.8" style="stroke: #000000; stroke-width: 0.8"/>
      </g>
     </g>
     <g id="text_1">
      <!-- 10.700 -->
      <g transform="translate(132.477415 655.398438) scale(0.1 -0.1)">
       <defs>
        <path id="DejaVuSans-31" d="M 794 531 
L 1825 531 
L 1825 4091 
L 703 3866 
L 703 4441 
L 1819 4666 
L 2450 4666 
L 2450 531 
L 3481 531 
L 3481 0 
L 794 0 
L 794 531 
z
" transform="scale(0.015625)"/>
        <path id="DejaVuSans-30" d="M 2034 4250 
Q 1547 4250 1301 3770 
Q 1056 3291 1056 2328 
Q 1056 1369 1301 889 
Q 1547 409 2034 409 
Q 2525 409 2770 889 
Q 3016 1369 3016 2328 
Q 3016 3291 2770 3770 
Q 2525 4250 2034 4250 
z
M 2034 4750 
Q 2819 4750 3233 4129 
Q 3647 3509 3647 2328 
Q 3647 1150 3233 529 
Q 2819 -91 2034 -91 
Q 1250 -91 836 529 
Q 422 1150 422 2328 
Q 422 3509 836 4129 
Q 1250 4750 2034 4750 
z
" transform="scale(0.015625)"/>
        <path id="DejaVuSans-2e" d="M 684 794 
L 1344 794 
L 1344 0 
L 684 0 
L 684 794 
z
" transform="scale(0.015625)"/>
        <path id="DejaVuSans-37" d="M 525 4666 
L 3525 4666 
L 3525 4397 
L 1831 0 
L 1172 0 
L 2766 4134 
L 525 4134 
L 525 4666 
z
" transform="scale(0.015625)"/>
       </defs>
       <use xlink:href="#DejaVuSans-31"/>
       <use xlink:href="#DejaVuSans-30" x="63.623047"/>
       <use xlink:href="#DejaVuSans-2e" x="127.246094"/>
       <use xlink:href="#DejaVuSans-37" x="159.033203"/>
       <use xlink:href="#DejaVuSans-30" x="222.65625"/>
       <use xlink:href="#DejaVuSans-30" x="286.279297"/>
      </g>
     </g>
    </g>
    <g id="xtick_2">
     <g id="line2d_2">
      <g>
       <use xlink:href="#m0bec76d133" x="232.404545" y="640.8" style="stroke: #000000; stroke-width: 0.8"/>
      </g>
     </g>
     <g id="text_2">
      <!-- 10.725 -->
      <g transform="translate(214.909233 655.398438) scale(0.1 -0.1)">
       <defs>
        <path id="DejaVuSans-32" d="M 1228 531 
L 3431 531 
L 3431 0 
L 469 0 
L 469 531 
Q 828 903 1448 1529 
Q 2069 2156 2228 2338 
Q 2531 2678 2651 2914 
Q 2772 3150 2772 3378 
Q 2772 3750 2511 3984 
Q 2250 4219 1831 4219 
Q 1534 4219 1204 4116 
Q 875 4013 500 3803 
L 500 4441 
Q 881 4594 1212 4672 
Q 1544 4750 1819 4750 
Q 2544 4750 2975 4387 
Q 3406 4025 3406 3419 
Q 3406 3131 3298 2873 
Q 3191 2616 2906 2266 
Q 2828 2175 2409 1742 
Q 1991 1309 1228 531 
z
" transform="scale(0.015625)"/>
        <path id="DejaVuSans-35" d="M 691 4666 
L 3169 4666 
L 3169 4134 
L 1269 4134 
L 1269 2991 
Q 1406 3038 1543 3061 
Q 1681 3084 1819 3084 
Q 2600 3084 3056 2656 
Q 3513 2228 3513 1497 
Q 3513 744 3044 326 
Q 2575 -91 1722 -91 
Q 1428 -91 1123 -41 
Q 819 9 494 109 
L 494 744 
Q 775 591 1075 516 
Q 1375 441 1709 441 
Q 2250 441 2565 725 
Q 2881 1009 2881 1497 
Q 2881 1984 2565 2268 
Q 2250 2553 1709 2553 
Q 1456 2553 1204 2497 
Q 953 2441 691 2322 
L 691 4666 
z
" transform="scale(0.015625)"/>
       </defs>
       <use xlink:href="#DejaVuSans-31"/>
       <use xlink:href="#DejaVuSans-30" x="63.623047"/>
       <use xlink:href="#DejaVuSans-2e" x="127.246094"/>
       <use xlink:href="#DejaVuSans-37" x="159.033203"/>
       <use xlink:href="#DejaVuSans-32" x="222.65625"/>
       <use xlink:href="#DejaVuSans-35" x="286.279297"/>
      </g>
     </g>
    </g>
    <g id="xtick_3">
     <g id="line2d_3">
      <g>
       <use xlink:href="#m0bec76d133" x="314.836364" y="640.8" style="stroke: #000000; stroke-width: 0.8"/>
      </g>
     </g>
     <g id="text_3">
      <!-- 10.750 -->
      <g transform="translate(297.341051 655.398438) scale(0.1 -0.1)">
       <use xlink:href="#DejaVuSans-31"/>
       <use xlink:href="#DejaVuSans-30" x="63.623047"/>
       <use xlink:href="#DejaVuSans-2e" x="127.246094"/>
       <use xlink:href="#DejaVuSans-37" x="159.033203"/>
       <use xlink:href="#DejaVuSans-35" x="222.65625"/>
       <use xlink:href="#DejaVuSans-30" x="286.279297"/>
      </g>
     </g>
    </g>
    <g id="xtick_4">
     <g id="line2d_4">
      <g>
       <use xlink:href="#m0bec76d133" x="397.268182" y="640.8" style="stroke: #000000; stroke-width: 0.8"/>
      </g>
     </g>
     <g id="text_4">
      <!-- 10.775 -->
      <g transform="translate(379.772869 655.398438) scale(0.1 -0.1)">
       <use xlink:href="#DejaVuSans-31"/>
       <use xlink:href="#DejaVuSans-30" x="63.623047"/>
       <use xlink:href="#DejaVuSans-2e" x="127.246094"/>
       <use xlink:href="#DejaVuSans-37" x="159.033203"/>
       <use xlink:href="#DejaVuSans-37" x="222.65625"/>
       <use xlink:href="#DejaVuSans-35" x="286.279297"/>
      </g>
     </g>
    </g>
    <g id="xtick_5">
     <g id="line2d_5">
      <g>
       <use xlink:href="#m0bec76d133" x="479.7" y="640.8" style="stroke: #000000; stroke-width: 0.8"/>
      </g>
     </g>
     <g id="text_5">
      <!-- 10.800 -->
      <g transform="translate(462.204688 655.398438) scale(0.1 -0.1)">
       <defs>
        <path id="DejaVuSans-38" d="M 2034 2216 
Q 1584 2216 1326 1975 
Q 1069 1734 1069 1313 
Q 1069 891 1326 650 
Q 1584 409 2034 409 
Q 2484 409 2743 651 
Q 3003 894 3003 1313 
Q 3003 1734 2745 1975 
Q 2488 2216 2034 2216 
z
M 1403 2484 
Q 997 2584 770 2862 
Q 544 3141 544 3541 
Q 544 4100 942 4425 
Q 1341 4750 2034 4750 
Q 2731 4750 3128 4425 
Q 3525 4100 3525 3541 
Q 3525 3141 3298 2862 
Q 3072 2584 2669 2484 
Q 3125 2378 3379 2068 
Q 3634 1759 3634 1313 
Q 3634 634 3220 271 
Q 2806 -91 2034 -91 
Q 1263 -91 848 271 
Q 434 634 434 1313 
Q 434 1759 690 2068 
Q 947 2378 1403 2484 
z
M 1172 3481 
Q 1172 3119 1398 2916 
Q 1625 2713 2034 2713 
Q 2441 2713 2670 2916 
Q 2900 3119 2900 3481 
Q 2900 3844 2670 4047 
Q 2441 4250 2034 4250 
Q 1625 4250 1398 4047 
Q 1172 3844 1172 3481 
z
" transform="scale(0.015625)"/>
       </defs>
       <use xlink:href="#DejaVuSans-31"/>
       <use xlink:href="#DejaVuSans-30" x="63.623047"/>
       <use xlink:href="#DejaVuSans-2e" x="127.246094"/>
       <use xlink:href="#DejaVuSans-38" x="159.033203"/>
       <use xlink:href="#DejaVuSans-30" x="222.65625"/>
       <use xlink:href="#DejaVuSans-30" x="286.279297"/>
      </g>
     </g>
    </g>
    <g id="xtick_6">
     <g id="line2d_6">
      <g>
       <use xlink:href="#m0bec76d133" x="562.131818" y="640.8" style="stroke: #000000; stroke-width: 0.8"/>
      </g>
     </g>
     <g id="text_6">
      <!-- 10.825 -->
      <g transform="translate(544.636506 655.398438) scale(0.1 -0.1)">
       <use xlink:href="#DejaVuSans-31"/>
       <use xlink:href="#DejaVuSans-30" x="63.623047"/>
       <use xlink:href="#DejaVuSans-2e" x="127.246094"/>
       <use xlink:href="#DejaVuSans-38" x="159.033203"/>
       <use xlink:href="#DejaVuSans-32" x="222.65625"/>
       <use xlink:href="#DejaVuSans-35" x="286.279297"/>
      </g>
     </g>
    </g>
    <g id="xtick_7">
     <g id="line2d_7">
      <g>
       <use xlink:href="#m0bec76d133" x="644.563636" y="640.8" style="stroke: #000000; stroke-width: 0.8"/>
      </g>
     </g>
     <g id="text_7">
      <!-- 10.850 -->
      <g transform="translate(627.068324 655.398438) scale(0.1 -0.1)">
       <use xlink:href="#DejaVuSans-31"/>
       <use xlink:href="#DejaVuSans-30" x="63.623047"/>
       <use xlink:href="#DejaVuSans-2e" x="127.246094"/>
       <use xlink:href="#DejaVuSans-38" x="159.033203"/>
       <use xlink:href="#DejaVuSans-35" x="222.65625"/>
       <use xlink:href="#DejaVuSans-30" x="286.279297"/>
      </g>
     </g>
    </g>
    <g id="xtick_8">
     <g id="line2d_8">
      <g>
       <use xlink:href="#m0bec76d133" x="726.995455" y="640.8" style="stroke: #000000; stroke-width: 0.8"/>
      </g>
     </g>
     <g id="text_8">
      <!-- 10.875 -->
      <g transform="translate(709.500142 655.398438) scale(0.1 -0.1)">
       <use xlink:href="#DejaVuSans-31"/>
       <use xlink:href="#DejaVuSans-30" x="63.623047"/>
       <use xlink:href="#DejaVuSans-2e" x="127.246094"/>
       <use xlink:href="#DejaVuSans-38" x="159.033203"/>
       <use xlink:href="#DejaVuSans-37" x="222.65625"/>
       <use xlink:href="#DejaVuSans-35" x="286.279297"/>
      </g>
     </g>
    </g>
    <g id="xtick_9">
     <g id="line2d_9">
      <g>
       <use xlink:href="#m0bec76d133" x="809.427273" y="640.8" style="stroke: #000000; stroke-width: 0.8"/>
      </g>
     </g>
     <g id="text_9">
      <!-- 10.900 -->
      <g transform="translate(791.93196 655.398438) scale(0.1 -0.1)">
       <defs>
        <path id="DejaVuSans-39" d="M 703 97 
L 703 672 
Q 941 559 1184 500 
Q 1428 441 1663 441 
Q 2288 441 2617 861 
Q 2947 1281 2994 2138 
Q 2813 1869 2534 1725 
Q 2256 1581 1919 1581 
Q 1219 1581 811 2004 
Q 403 2428 403 3163 
Q 403 3881 828 4315 
Q 1253 4750 1959 4750 
Q 2769 4750 3195 4129 
Q 3622 3509 3622 2328 
Q 3622 1225 3098 567 
Q 2575 -91 1691 -91 
Q 1453 -91 1209 -44 
Q 966 3 703 97 
z
M 1959 2075 
Q 2384 2075 2632 2365 
Q 2881 2656 2881 3163 
Q 2881 3666 2632 3958 
Q 2384 4250 1959 4250 
Q 1534 4250 1286 3958 
Q 1038 3666 1038 3163 
Q 1038 2656 1286 2365 
Q 1534 2075 1959 2075 
z
" transform="scale(0.015625)"/>
       </defs>
       <use xlink:href="#DejaVuSans-31"/>
       <use xlink:href="#DejaVuSans-30" x="63.623047"/>
       <use xlink:href="#DejaVuSans-2e" x="127.246094"/>
       <use xlink:href="#DejaVuSans-39" x="159.033203"/>
       <use xlink:href="#DejaVuSans-30" x="222.65625"/>
       <use xlink:href="#DejaVuSans-30" x="286.279297"/>
      </g>
     </g>
    </g>
    <g id="text_10">
     <!-- $\beta$ -->
     <g transform="translate(476.5 669.178125) scale(0.1 -0.1)">
      <defs>
       <path id="DejaVuSans-Oblique-3b2" d="M 872 216 
L 572 -1331 
L -6 -1331 
L 928 3478 
Q 1206 4903 2538 4903 
Q 3888 4903 3659 3700 
Q 3503 2844 2894 2531 
Q 3713 2250 3553 1416 
Q 3272 -69 1759 -66 
Q 1097 -63 872 216 
z
M 1019 966 
Q 1259 422 1875 425 
Q 2775 425 2966 1406 
Q 3138 2288 1675 2219 
L 1778 2750 
Q 2909 2731 3106 3750 
Q 3241 4438 2509 4434 
Q 1691 4434 1503 3459 
L 1019 966 
z
" transform="scale(0.015625)"/>
      </defs>
      <use xlink:href="#DejaVuSans-Oblique-3b2" transform="translate(0 0.390625)"/>
     </g>
    </g>
   </g>
   <g id="matplotlib.axis_2">
    <g id="ytick_1">
     <g id="line2d_10">
      <defs>
       <path id="mae30ba241a" d="M 0 0 
L -3.5 0 
" style="stroke: #000000; stroke-width: 0.8"/>
      </defs>
      <g>
       <use xlink:href="#mae30ba241a" x="117" y="612.618785" style="stroke: #000000; stroke-width: 0.8"/>
      </g>
     </g>
     <g id="text_11">
      <!-- 0.0000 -->
      <g transform="translate(75.009375 616.418004) scale(0.1 -0.1)">
       <use xlink:href="#DejaVuSans-30"/>
       <use xlink:href="#DejaVuSans-2e" x="63.623047"/>
       <use xlink:href="#DejaVuSans-30" x="95.410156"/>
       <use xlink:href="#DejaVuSans-30" x="159.033203"/>
       <use xlink:href="#DejaVuSans-30" x="222.65625"/>
       <use xlink:href="#DejaVuSans-30" x="286.279297"/>
      </g>
     </g>
    </g>
    <g id="ytick_2">
     <g id="line2d_11">
      <g>
       <use xlink:href="#mae30ba241a" x="117" y="539.983907" style="stroke: #000000; stroke-width: 0.8"/>
      </g>
     </g>
     <g id="text_12">
      <!-- 0.0001 -->
      <g transform="translate(75.009375 543.783126) scale(0.1 -0.1)">
       <use xlink:href="#DejaVuSans-30"/>
       <use xlink:href="#DejaVuSans-2e" x="63.623047"/>
       <use xlink:href="#DejaVuSans-30" x="95.410156"/>
       <use xlink:href="#DejaVuSans-30" x="159.033203"/>
       <use xlink:href="#DejaVuSans-30" x="222.65625"/>
       <use xlink:href="#DejaVuSans-31" x="286.279297"/>
      </g>
     </g>
    </g>
    <g id="ytick_3">
     <g id="line2d_12">
      <g>
       <use xlink:href="#mae30ba241a" x="117" y="467.349029" style="stroke: #000000; stroke-width: 0.8"/>
      </g>
     </g>
     <g id="text_13">
      <!-- 0.0002 -->
      <g transform="translate(75.009375 471.148248) scale(0.1 -0.1)">
       <use xlink:href="#DejaVuSans-30"/>
       <use xlink:href="#DejaVuSans-2e" x="63.623047"/>
       <use xlink:href="#DejaVuSans-30" x="95.410156"/>
       <use xlink:href="#DejaVuSans-30" x="159.033203"/>
       <use xlink:href="#DejaVuSans-30" x="222.65625"/>
       <use xlink:href="#DejaVuSans-32" x="286.279297"/>
      </g>
     </g>
    </g>
    <g id="ytick_4">
     <g id="line2d_13">
      <g>
       <use xlink:href="#mae30ba241a" x="117" y="394.714151" style="stroke: #000000; stroke-width: 0.8"/>
      </g>
     </g>
     <g id="text_14">
      <!-- 0.0003 -->
      <g transform="translate(75.009375 398.51337) scale(0.1 -0.1)">
       <defs>
        <path id="DejaVuSans-33" d="M 2597 2516 
Q 3050 2419 3304 2112 
Q 3559 1806 3559 1356 
Q 3559 666 3084 287 
Q 2609 -91 1734 -91 
Q 1441 -91 1130 -33 
Q 819 25 488 141 
L 488 750 
Q 750 597 1062 519 
Q 1375 441 1716 441 
Q 2309 441 2620 675 
Q 2931 909 2931 1356 
Q 2931 1769 2642 2001 
Q 2353 2234 1838 2234 
L 1294 2234 
L 1294 2753 
L 1863 2753 
Q 2328 2753 2575 2939 
Q 2822 3125 2822 3475 
Q 2822 3834 2567 4026 
Q 2313 4219 1838 4219 
Q 1578 4219 1281 4162 
Q 984 4106 628 3988 
L 628 4550 
Q 988 4650 1302 4700 
Q 1616 4750 1894 4750 
Q 2613 4750 3031 4423 
Q 3450 4097 3450 3541 
Q 3450 3153 3228 2886 
Q 3006 2619 2597 2516 
z
" transform="scale(0.015625)"/>
       </defs>
       <use xlink:href="#DejaVuSans-30"/>
       <use xlink:href="#DejaVuSans-2e" x="63.623047"/>
       <use xlink:href="#DejaVuSans-30" x="95.410156"/>
       <use xlink:href="#DejaVuSans-30" x="159.033203"/>
       <use xlink:href="#DejaVuSans-30" x="222.65625"/>
       <use xlink:href="#DejaVuSans-33" x="286.279297"/>
      </g>
     </g>
    </g>
    <g id="ytick_5">
     <g id="line2d_14">
      <g>
       <use xlink:href="#mae30ba241a" x="117" y="322.079273" style="stroke: #000000; stroke-width: 0.8"/>
      </g>
     </g>
     <g id="text_15">
      <!-- 0.0004 -->
      <g transform="translate(75.009375 325.878491) scale(0.1 -0.1)">
       <defs>
        <path id="DejaVuSans-34" d="M 2419 4116 
L 825 1625 
L 2419 1625 
L 2419 4116 
z
M 2253 4666 
L 3047 4666 
L 3047 1625 
L 3713 1625 
L 3713 1100 
L 3047 1100 
L 3047 0 
L 2419 0 
L 2419 1100 
L 313 1100 
L 313 1709 
L 2253 4666 
z
" transform="scale(0.015625)"/>
       </defs>
       <use xlink:href="#DejaVuSans-30"/>
       <use xlink:href="#DejaVuSans-2e" x="63.623047"/>
       <use xlink:href="#DejaVuSans-30" x="95.410156"/>
       <use xlink:href="#DejaVuSans-30" x="159.033203"/>
       <use xlink:href="#DejaVuSans-30" x="222.65625"/>
       <use xlink:href="#DejaVuSans-34" x="286.279297"/>
      </g>
     </g>
    </g>
    <g id="ytick_6">
     <g id="line2d_15">
      <g>
       <use xlink:href="#mae30ba241a" x="117" y="249.444394" style="stroke: #000000; stroke-width: 0.8"/>
      </g>
     </g>
     <g id="text_16">
      <!-- 0.0005 -->
      <g transform="translate(75.009375 253.243613) scale(0.1 -0.1)">
       <use xlink:href="#DejaVuSans-30"/>
       <use xlink:href="#DejaVuSans-2e" x="63.623047"/>
       <use xlink:href="#DejaVuSans-30" x="95.410156"/>
       <use xlink:href="#DejaVuSans-30" x="159.033203"/>
       <use xlink:href="#DejaVuSans-30" x="222.65625"/>
       <use xlink:href="#DejaVuSans-35" x="286.279297"/>
      </g>
     </g>
    </g>
    <g id="ytick_7">
     <g id="line2d_16">
      <g>
       <use xlink:href="#mae30ba241a" x="117" y="176.809516" style="stroke: #000000; stroke-width: 0.8"/>
      </g>
     </g>
     <g id="text_17">
      <!-- 0.0006 -->
      <g transform="translate(75.009375 180.608735) scale(0.1 -0.1)">
       <defs>
        <path id="DejaVuSans-36" d="M 2113 2584 
Q 1688 2584 1439 2293 
Q 1191 2003 1191 1497 
Q 1191 994 1439 701 
Q 1688 409 2113 409 
Q 2538 409 2786 701 
Q 3034 994 3034 1497 
Q 3034 2003 2786 2293 
Q 2538 2584 2113 2584 
z
M 3366 4563 
L 3366 3988 
Q 3128 4100 2886 4159 
Q 2644 4219 2406 4219 
Q 1781 4219 1451 3797 
Q 1122 3375 1075 2522 
Q 1259 2794 1537 2939 
Q 1816 3084 2150 3084 
Q 2853 3084 3261 2657 
Q 3669 2231 3669 1497 
Q 3669 778 3244 343 
Q 2819 -91 2113 -91 
Q 1303 -91 875 529 
Q 447 1150 447 2328 
Q 447 3434 972 4092 
Q 1497 4750 2381 4750 
Q 2619 4750 2861 4703 
Q 3103 4656 3366 4563 
z
" transform="scale(0.015625)"/>
       </defs>
       <use xlink:href="#DejaVuSans-30"/>
       <use xlink:href="#DejaVuSans-2e" x="63.623047"/>
       <use xlink:href="#DejaVuSans-30" x="95.410156"/>
       <use xlink:href="#DejaVuSans-30" x="159.033203"/>
       <use xlink:href="#DejaVuSans-30" x="222.65625"/>
       <use xlink:href="#DejaVuSans-36" x="286.279297"/>
      </g>
     </g>
    </g>
    <g id="ytick_8">
     <g id="line2d_17">
      <g>
       <use xlink:href="#mae30ba241a" x="117" y="104.174638" style="stroke: #000000; stroke-width: 0.8"/>
      </g>
     </g>
     <g id="text_18">
      <!-- 0.0007 -->
      <g transform="translate(75.009375 107.973857) scale(0.1 -0.1)">
       <use xlink:href="#DejaVuSans-30"/>
       <use xlink:href="#DejaVuSans-2e" x="63.623047"/>
       <use xlink:href="#DejaVuSans-30" x="95.410156"/>
       <use xlink:href="#DejaVuSans-30" x="159.033203"/>
       <use xlink:href="#DejaVuSans-30" x="222.65625"/>
       <use xlink:href="#DejaVuSans-37" x="286.279297"/>
      </g>
     </g>
    </g>
    <g id="text_19">
     <!-- $\langle S_{t} - S_{nt} \rangle$ -->
     <g transform="translate(68.929688 385.25) rotate(-90) scale(0.1 -0.1)">
      <defs>
       <path id="DejaVuSans-27e8" d="M 572 2006 
L 1453 4856 
L 1984 4856 
L 1103 2006 
L 1984 -844 
L 1453 -844 
L 572 2006 
z
" transform="scale(0.015625)"/>
       <path id="DejaVuSans-Oblique-53" d="M 3859 4513 
L 3738 3897 
Q 3422 4066 3111 4152 
Q 2800 4238 2509 4238 
Q 1944 4238 1609 3991 
Q 1275 3744 1275 3334 
Q 1275 3109 1398 2989 
Q 1522 2869 2034 2731 
L 2413 2638 
Q 3053 2472 3303 2217 
Q 3553 1963 3553 1503 
Q 3553 797 2998 353 
Q 2444 -91 1538 -91 
Q 1166 -91 791 -17 
Q 416 56 38 206 
L 166 856 
Q 513 641 861 531 
Q 1209 422 1556 422 
Q 2147 422 2503 684 
Q 2859 947 2859 1369 
Q 2859 1650 2717 1795 
Q 2575 1941 2106 2059 
L 1728 2156 
Q 1081 2325 845 2545 
Q 609 2766 609 3163 
Q 609 3859 1145 4304 
Q 1681 4750 2541 4750 
Q 2875 4750 3203 4690 
Q 3531 4631 3859 4513 
z
" transform="scale(0.015625)"/>
       <path id="DejaVuSans-Oblique-74" d="M 2706 3500 
L 2619 3053 
L 1472 3053 
L 1100 1153 
Q 1081 1047 1072 975 
Q 1063 903 1063 863 
Q 1063 663 1183 572 
Q 1303 481 1569 481 
L 2150 481 
L 2053 0 
L 1503 0 
Q 991 0 739 200 
Q 488 400 488 806 
Q 488 878 497 964 
Q 506 1050 525 1153 
L 897 3053 
L 409 3053 
L 500 3500 
L 978 3500 
L 1172 4494 
L 1747 4494 
L 1556 3500 
L 2706 3500 
z
" transform="scale(0.015625)"/>
       <path id="DejaVuSans-2212" d="M 678 2272 
L 4684 2272 
L 4684 1741 
L 678 1741 
L 678 2272 
z
" transform="scale(0.015625)"/>
       <path id="DejaVuSans-Oblique-6e" d="M 3566 2113 
L 3156 0 
L 2578 0 
L 2988 2091 
Q 3016 2238 3031 2350 
Q 3047 2463 3047 2528 
Q 3047 2791 2881 2937 
Q 2716 3084 2419 3084 
Q 1956 3084 1622 2776 
Q 1288 2469 1184 1941 
L 800 0 
L 225 0 
L 903 3500 
L 1478 3500 
L 1363 2950 
Q 1603 3253 1940 3418 
Q 2278 3584 2650 3584 
Q 3113 3584 3367 3334 
Q 3622 3084 3622 2631 
Q 3622 2519 3608 2391 
Q 3594 2263 3566 2113 
z
" transform="scale(0.015625)"/>
       <path id="DejaVuSans-27e9" d="M 1925 2006 
L 1044 -844 
L 513 -844 
L 1394 2006 
L 513 4856 
L 1044 4856 
L 1925 2006 
z
" transform="scale(0.015625)"/>
      </defs>
      <use xlink:href="#DejaVuSans-27e8" transform="translate(0 0.125)"/>
      <use xlink:href="#DejaVuSans-Oblique-53" transform="translate(39.013672 0.125)"/>
      <use xlink:href="#DejaVuSans-Oblique-74" transform="translate(102.490234 -16.28125) scale(0.7)"/>
      <use xlink:href="#DejaVuSans-2212" transform="translate(152.15332 0.125)"/>
      <use xlink:href="#DejaVuSans-Oblique-53" transform="translate(255.424805 0.125)"/>
      <use xlink:href="#DejaVuSans-Oblique-6e" transform="translate(318.901367 -16.28125) scale(0.7)"/>
      <use xlink:href="#DejaVuSans-Oblique-74" transform="translate(363.266602 -16.28125) scale(0.7)"/>
      <use xlink:href="#DejaVuSans-27e9" transform="translate(393.447266 0.125)"/>
     </g>
    </g>
   </g>
   <g id="line2d_18">
    <path d="M 149.972727 612.653639 
L 156.567273 613.505092 
L 159.864545 613.685193 
L 163.161818 613.42193 
L 166.459091 612.715846 
L 173.053636 610.925814 
L 176.350909 610.385799 
L 179.648182 610.247155 
L 182.945455 610.444937 
L 192.837273 611.481336 
L 196.134545 611.604489 
L 199.431818 611.587651 
L 206.026364 611.235983 
L 209.323636 611.018728 
L 212.620909 610.921097 
L 215.918182 611.046995 
L 219.215455 611.424157 
L 225.81 612.510826 
L 229.107273 612.823014 
L 232.404545 612.780621 
L 235.701818 612.43169 
L 242.296364 611.549425 
L 245.593636 611.269021 
L 252.188182 611.04394 
L 255.485455 611.145381 
L 258.782727 611.49598 
L 262.08 612.128062 
L 268.674545 613.701721 
L 271.971818 614.122305 
L 275.269091 614.016768 
L 278.566364 613.398596 
L 285.160909 611.51102 
L 288.458182 610.786456 
L 291.755455 610.472275 
L 295.052727 610.626242 
L 298.35 611.158165 
L 304.944545 612.48124 
L 308.241818 612.939342 
L 318.133636 613.881694 
L 321.430909 614.124329 
L 328.025455 614.286614 
L 341.214545 614.162173 
L 357.700909 613.508515 
L 367.592727 612.822219 
L 370.89 612.786319 
L 380.781818 613.005845 
L 387.376364 612.741529 
L 393.970909 612.108423 
L 400.565455 611.048931 
L 407.16 609.782512 
L 410.457273 609.322676 
L 413.754545 609.223708 
L 417.051818 609.675631 
L 420.349091 610.689272 
L 423.646364 611.844126 
L 426.943636 611.681099 
L 430.240909 605.550274 
L 433.538182 579.499494 
L 436.835455 503.666429 
L 440.132727 365.203178 
L 443.43 233.753748 
L 446.727273 165.425682 
L 450.024545 139.106754 
L 453.321818 128.472367 
L 456.619091 122.751865 
L 459.916364 118.771763 
L 463.213636 115.734819 
L 466.510909 113.548925 
L 469.808182 112.601633 
L 473.105455 114.122622 
L 476.402727 120.918302 
L 479.7 138.187478 
L 482.997273 172.801904 
L 486.294545 227.476719 
L 489.591818 291.980942 
L 492.889091 347.828541 
L 496.186364 385.510038 
L 499.483636 407.677048 
L 502.780909 420.427124 
L 506.078182 428.317747 
L 509.375455 433.936492 
L 512.672727 438.50996 
L 515.97 442.421054 
L 519.267273 445.673057 
L 522.564545 448.264672 
L 525.861818 450.328325 
L 529.159091 452.058153 
L 542.348182 458.40047 
L 548.942727 462.372998 
L 552.24 464.382871 
L 555.537273 466.1964 
L 558.834545 467.735972 
L 562.131818 469.027937 
L 568.726364 471.236265 
L 575.320909 473.422949 
L 581.915455 475.919655 
L 591.807273 480.251362 
L 608.293636 487.402359 
L 611.590909 488.676389 
L 618.185455 490.824757 
L 644.563636 498.373848 
L 651.158182 499.916233 
L 664.347273 502.309421 
L 670.941818 503.508043 
L 677.536364 504.411562 
L 684.130909 505.168957 
L 687.428182 505.711463 
L 690.725455 506.462806 
L 697.32 508.440277 
L 700.617273 509.446892 
L 703.914545 510.334477 
L 707.211818 511.058374 
L 710.509091 511.591093 
L 713.806364 511.897885 
L 717.103636 511.956238 
L 726.995455 511.46102 
L 730.292727 511.598612 
L 733.59 512.039602 
L 736.887273 512.722385 
L 756.670909 517.547533 
L 759.968182 518.206603 
L 763.265455 518.726321 
L 766.562727 519.088359 
L 776.454545 519.824261 
L 779.751818 520.302859 
L 783.049091 521.020975 
L 792.940909 523.77179 
L 796.238182 524.32957 
L 799.535455 524.540903 
L 802.832727 524.48334 
L 809.427273 524.188494 
L 809.427273 524.188494 
" clip-path="url(#p8983e9c142)" style="fill: none; stroke: #1f77b4; stroke-width: 1.5; stroke-linecap: square"/>
   </g>
   <g id="line2d_19">
    <path d="M 149.972727 612.40806 
L 156.567273 613.324792 
L 159.864545 613.576231 
L 163.161818 613.452118 
L 166.459091 612.97503 
L 173.053636 611.70517 
L 176.350909 611.203626 
L 179.648182 610.848545 
L 186.242727 610.504167 
L 192.837273 610.152382 
L 196.134545 609.768591 
L 206.026364 608.307356 
L 209.323636 608.201982 
L 212.620909 608.518304 
L 215.918182 609.269439 
L 219.215455 610.364499 
L 225.81 612.842827 
L 229.107273 613.695886 
L 232.404545 613.954449 
L 235.701818 613.57417 
L 245.593636 611.140175 
L 248.890909 610.744321 
L 252.188182 610.658597 
L 255.485455 610.849052 
L 258.782727 611.305448 
L 262.08 612.003066 
L 268.674545 613.580313 
L 271.971818 613.996668 
L 275.269091 613.910604 
L 278.566364 613.313853 
L 288.458182 610.465175 
L 291.755455 610.048516 
L 295.052727 610.190816 
L 298.35 610.838448 
L 308.241818 613.607385 
L 311.539091 614.293388 
L 314.836364 614.82132 
L 318.133636 615.164609 
L 321.430909 615.270795 
L 324.728182 615.126952 
L 331.322727 614.352825 
L 341.214545 613.032838 
L 344.511818 612.80424 
L 347.809091 612.789733 
L 357.700909 613.187133 
L 360.998182 613.033556 
L 367.592727 612.252371 
L 370.89 611.845831 
L 374.187273 611.558325 
L 380.781818 611.342394 
L 387.376364 611.098771 
L 390.673636 610.755685 
L 393.970909 610.229905 
L 400.565455 608.967755 
L 403.862727 608.491 
L 407.16 608.237955 
L 410.457273 608.238824 
L 417.051818 608.703184 
L 420.349091 608.059439 
L 423.646364 603.982415 
L 426.943636 589.626244 
L 430.240909 548.781344 
L 433.538182 458.069625 
L 436.835455 327.48176 
L 440.132727 220.851273 
L 443.43 166.121715 
L 446.727273 143.056624 
L 450.024545 132.498337 
L 453.321818 126.160453 
L 456.619091 121.351591 
L 459.916364 117.393829 
L 463.213636 114.220425 
L 466.510909 112.048457 
L 469.808182 111.6 
L 473.105455 114.677315 
L 476.402727 124.966793 
L 479.7 148.391482 
L 482.997273 190.60446 
L 486.294545 249.381453 
L 489.591818 310.20503 
L 492.889091 357.818461 
L 496.186364 388.570409 
L 499.483636 406.930018 
L 502.780909 418.138433 
L 506.078182 425.763361 
L 509.375455 431.844933 
L 512.672727 437.258787 
L 515.97 442.056327 
L 519.267273 445.978462 
L 522.564545 448.938704 
L 525.861818 451.164383 
L 532.456364 454.785457 
L 539.050909 458.480457 
L 545.645455 462.32421 
L 548.942727 464.134623 
L 552.24 465.752822 
L 555.537273 467.125749 
L 558.834545 468.263865 
L 568.726364 471.219568 
L 572.023636 472.417461 
L 575.320909 473.807269 
L 588.51 479.886646 
L 595.104545 482.169741 
L 598.401818 483.29556 
L 604.996364 485.922229 
L 611.590909 488.602988 
L 614.888182 489.712154 
L 621.482727 491.475769 
L 628.077273 493.198604 
L 631.374545 494.210904 
L 637.969091 496.593991 
L 644.563636 499.155535 
L 647.860909 500.251965 
L 651.158182 501.082485 
L 654.455455 501.621203 
L 661.05 502.150518 
L 674.239091 503.08594 
L 680.833636 503.665735 
L 684.130909 504.136684 
L 687.428182 504.814145 
L 690.725455 505.706603 
L 700.617273 508.800888 
L 703.914545 509.625205 
L 707.211818 510.285478 
L 710.509091 510.796546 
L 713.806364 511.158349 
L 717.103636 511.35966 
L 730.292727 511.680181 
L 733.59 512.132356 
L 736.887273 512.812136 
L 740.184545 513.672318 
L 746.779091 515.697645 
L 753.373636 517.76774 
L 756.670909 518.654282 
L 759.968182 519.328658 
L 763.265455 519.729762 
L 766.562727 519.863078 
L 776.454545 519.814167 
L 779.751818 520.131219 
L 783.049091 520.731396 
L 792.940909 523.19493 
L 796.238182 523.66857 
L 799.535455 523.799492 
L 806.13 523.409131 
L 809.427273 523.22342 
L 809.427273 523.22342 
" clip-path="url(#p8983e9c142)" style="fill: none; stroke: #ff7f0e; stroke-width: 1.5; stroke-linecap: square"/>
   </g>
   <g id="line2d_20">
    <path d="M 149.972727 612.85158 
L 153.27 613.241044 
L 156.567273 613.494073 
L 159.864545 613.475907 
L 163.161818 613.075331 
L 173.053636 610.957504 
L 176.350909 610.577787 
L 179.648182 610.427829 
L 192.837273 610.33904 
L 199.431818 609.989306 
L 202.729091 609.937546 
L 206.026364 610.028307 
L 212.620909 610.553029 
L 219.215455 611.466214 
L 225.81 612.586531 
L 229.107273 612.8473 
L 232.404545 612.693083 
L 235.701818 612.177002 
L 242.296364 610.95328 
L 245.593636 610.576138 
L 248.890909 610.377142 
L 252.188182 610.323083 
L 255.485455 610.418489 
L 258.782727 610.687082 
L 265.377273 611.657637 
L 268.674545 612.169945 
L 271.971818 612.511486 
L 275.269091 612.560849 
L 278.566364 612.275424 
L 288.458182 610.552704 
L 291.755455 610.388643 
L 295.052727 610.677351 
L 304.944545 612.633643 
L 308.241818 612.935076 
L 314.836364 613.240313 
L 328.025455 614.225757 
L 331.322727 614.250159 
L 334.62 614.161024 
L 341.214545 613.666318 
L 347.809091 613.190462 
L 354.403636 613.25333 
L 357.700909 613.300202 
L 360.998182 613.189416 
L 364.295455 612.884973 
L 374.187273 611.634673 
L 377.484545 611.425749 
L 390.673636 611.079948 
L 397.268182 610.362271 
L 403.862727 609.476721 
L 407.16 609.205134 
L 410.457273 609.196759 
L 417.051818 609.802945 
L 420.349091 609.164003 
L 423.646364 604.904683 
L 426.943636 590.20074 
L 430.240909 549.244283 
L 433.538182 459.702122 
L 436.835455 331.565724 
L 440.132727 226.139797 
L 443.43 170.870005 
L 446.727273 146.673506 
L 450.024545 134.980231 
L 453.321818 127.720642 
L 456.619091 122.304103 
L 459.916364 118.067121 
L 463.213636 114.87225 
L 466.510909 112.787987 
L 469.808182 112.322154 
L 473.105455 115.014956 
L 476.402727 124.285909 
L 479.7 145.971626 
L 482.997273 186.313347 
L 486.294545 244.552643 
L 489.591818 306.924237 
L 492.889091 356.849998 
L 496.186364 389.156601 
L 499.483636 408.018082 
L 502.780909 419.040806 
L 506.078182 426.195413 
L 509.375455 431.801211 
L 512.672727 436.901891 
L 515.97 441.622079 
L 519.267273 445.681498 
L 522.564545 448.900202 
L 525.861818 451.393208 
L 529.159091 453.445559 
L 539.050909 459.12925 
L 548.942727 465.216076 
L 552.24 466.922129 
L 555.537273 468.289761 
L 558.834545 469.34425 
L 565.429091 470.960119 
L 572.023636 472.644701 
L 575.320909 473.639736 
L 578.618182 474.760312 
L 581.915455 476.026667 
L 588.51 478.96339 
L 598.401818 483.583878 
L 604.996364 486.428394 
L 611.590909 488.988593 
L 618.185455 491.286436 
L 624.78 493.356451 
L 631.374545 495.086419 
L 641.266364 497.454775 
L 651.158182 500.011484 
L 654.455455 500.663551 
L 670.941818 503.399095 
L 677.536364 504.521454 
L 684.130909 505.269166 
L 687.428182 505.619951 
L 690.725455 506.106639 
L 694.022727 506.806636 
L 697.32 507.710914 
L 707.211818 510.699301 
L 710.509091 511.44169 
L 713.806364 511.923658 
L 717.103636 512.119136 
L 723.698182 511.946738 
L 726.995455 511.891721 
L 730.292727 512.05161 
L 733.59 512.467978 
L 736.887273 513.093267 
L 743.481818 514.662799 
L 750.076364 516.474084 
L 756.670909 518.44054 
L 759.968182 519.277912 
L 763.265455 519.868139 
L 766.562727 520.174202 
L 773.157273 520.248513 
L 776.454545 520.289545 
L 779.751818 520.490137 
L 783.049091 520.904406 
L 789.643636 522.234011 
L 792.940909 522.901605 
L 796.238182 523.369988 
L 799.535455 523.574711 
L 809.427273 523.605553 
L 809.427273 523.605553 
" clip-path="url(#p8983e9c142)" style="fill: none; stroke: #2ca02c; stroke-width: 1.5; stroke-linecap: square"/>
   </g>
   <g id="line2d_21">
    <path d="M 149.972727 613.093039 
L 156.567273 613.637322 
L 159.864545 613.663567 
L 163.161818 613.196488 
L 166.459091 612.269059 
L 169.756364 611.198351 
L 173.053636 610.368179 
L 176.350909 609.996682 
L 179.648182 610.073342 
L 182.945455 610.450185 
L 189.54 611.445268 
L 192.837273 611.829074 
L 196.134545 612.054067 
L 199.431818 612.099025 
L 202.729091 611.971536 
L 209.323636 611.494503 
L 212.620909 611.409888 
L 215.918182 611.568044 
L 219.215455 611.963274 
L 225.81 612.970921 
L 229.107273 613.207076 
L 232.404545 613.084176 
L 235.701818 612.646382 
L 242.296364 611.540767 
L 245.593636 611.148564 
L 252.188182 610.728403 
L 255.485455 610.697413 
L 258.782727 610.836523 
L 268.674545 611.647724 
L 271.971818 611.525192 
L 275.269091 611.087862 
L 281.863636 609.836817 
L 285.160909 609.392051 
L 288.458182 609.274585 
L 291.755455 609.574404 
L 295.052727 610.262877 
L 301.647273 611.91704 
L 304.944545 612.371224 
L 314.836364 612.842969 
L 324.728182 613.95376 
L 328.025455 613.997244 
L 331.322727 613.824118 
L 341.214545 612.919438 
L 344.511818 612.859447 
L 347.809091 613.060459 
L 357.700909 614.190963 
L 360.998182 614.271281 
L 367.592727 613.97267 
L 387.376364 612.482772 
L 390.673636 612.075527 
L 400.565455 610.450486 
L 403.862727 610.135061 
L 407.16 610.083866 
L 410.457273 610.279306 
L 413.754545 610.593431 
L 417.051818 610.66226 
L 420.349091 609.536285 
L 423.646364 604.731295 
L 426.943636 589.579798 
L 430.240909 547.924876 
L 433.538182 456.202059 
L 436.835455 324.905119 
L 440.132727 218.765354 
L 443.43 164.950794 
L 446.727273 142.408582 
L 450.024545 131.96658 
L 453.321818 125.609745 
L 456.619091 120.874045 
L 459.916364 117.160567 
L 463.213636 114.353508 
L 466.510909 112.54323 
L 469.808182 112.268287 
L 473.105455 115.087932 
L 476.402727 124.420507 
L 479.7 146.12009 
L 482.997273 186.543537 
L 486.294545 245.13545 
L 489.591818 308.181488 
L 492.889091 358.906434 
L 496.186364 391.91882 
L 499.483636 411.197839 
L 502.780909 422.165939 
L 506.078182 428.753987 
L 509.375455 433.45077 
L 512.672727 437.563857 
L 515.97 441.409087 
L 519.267273 444.761137 
L 522.564545 447.415852 
L 525.861818 449.46331 
L 539.050909 456.391234 
L 552.24 464.24788 
L 555.537273 465.895999 
L 562.131818 468.746207 
L 568.726364 471.633527 
L 578.618182 476.376583 
L 581.915455 477.820431 
L 585.212727 479.127688 
L 591.807273 481.377197 
L 598.401818 483.525392 
L 604.996364 486.079767 
L 611.590909 488.721008 
L 618.185455 490.918648 
L 624.78 492.825998 
L 631.374545 494.5415 
L 644.563636 497.699402 
L 651.158182 499.313606 
L 654.455455 499.942456 
L 661.05 500.835771 
L 680.833636 503.063261 
L 684.130909 503.590307 
L 687.428182 504.307349 
L 690.725455 505.243049 
L 697.32 507.555944 
L 703.914545 509.814881 
L 707.211818 510.771523 
L 710.509091 511.568237 
L 713.806364 512.145597 
L 717.103636 512.440264 
L 720.400909 512.446939 
L 726.995455 512.074749 
L 730.292727 512.067636 
L 733.59 512.356257 
L 736.887273 512.948371 
L 740.184545 513.774753 
L 746.779091 515.78186 
L 753.373636 517.852719 
L 756.670909 518.754622 
L 759.968182 519.449729 
L 763.265455 519.871285 
L 766.562727 520.022433 
L 776.454545 519.922585 
L 779.751818 520.136712 
L 783.049091 520.60418 
L 786.346364 521.310513 
L 792.940909 522.995801 
L 796.238182 523.648457 
L 799.535455 524.026657 
L 802.832727 524.152894 
L 809.427273 524.128133 
L 809.427273 524.128133 
" clip-path="url(#p8983e9c142)" style="fill: none; stroke: #d62728; stroke-width: 1.5; stroke-linecap: square"/>
   </g>
   <g id="line2d_22">
    <path d="M 149.972727 612.182654 
L 153.27 612.925693 
L 156.567273 613.500168 
L 159.864545 613.594269 
L 163.161818 613.009894 
L 169.756364 610.688631 
L 173.053636 609.814715 
L 176.350909 609.453642 
L 179.648182 609.520628 
L 192.837273 610.675479 
L 196.134545 610.764551 
L 199.431818 610.732744 
L 212.620909 610.22243 
L 215.918182 610.452824 
L 225.81 611.757378 
L 229.107273 611.920871 
L 232.404545 611.753 
L 242.296364 610.39947 
L 245.593636 610.274156 
L 248.890909 610.388687 
L 255.485455 611.021971 
L 262.08 612.06456 
L 265.377273 612.659431 
L 268.674545 613.089017 
L 271.971818 613.146815 
L 275.269091 612.726431 
L 278.566364 611.887428 
L 285.160909 609.796361 
L 288.458182 609.033539 
L 291.755455 608.709788 
L 295.052727 608.878663 
L 298.35 609.431648 
L 304.944545 610.75916 
L 311.539091 611.631135 
L 321.430909 612.809039 
L 328.025455 613.293186 
L 337.917273 613.78831 
L 360.998182 613.92529 
L 377.484545 613.150719 
L 384.079091 612.393585 
L 390.673636 611.322443 
L 400.565455 609.277213 
L 403.862727 608.849813 
L 407.16 608.816328 
L 410.457273 609.224461 
L 413.754545 609.939919 
L 417.051818 610.534775 
L 420.349091 609.969617 
L 423.646364 605.635254 
L 426.943636 590.620665 
L 430.240909 548.274726 
L 433.538182 454.772952 
L 436.835455 322.358306 
L 440.132727 217.046015 
L 443.43 164.157093 
L 446.727273 141.799566 
L 450.024545 131.152611 
L 453.321818 124.556571 
L 456.619091 119.683504 
L 459.916364 115.953567 
L 463.213636 113.258326 
L 466.510909 111.714812 
L 469.808182 111.891295 
L 473.105455 115.404995 
L 476.402727 125.925098 
L 479.7 149.952393 
L 482.997273 194.361387 
L 489.591818 320.920087 
L 492.889091 368.587912 
L 496.186364 397.42201 
L 499.483636 413.654581 
L 502.780909 423.317092 
L 506.078182 429.952584 
L 509.375455 435.290775 
L 512.672727 439.966138 
L 515.97 443.985103 
L 519.267273 447.178307 
L 522.564545 449.550541 
L 525.861818 451.342484 
L 539.050909 457.525687 
L 545.645455 461.190279 
L 548.942727 463.064412 
L 552.24 464.810133 
L 555.537273 466.338633 
L 558.834545 467.634192 
L 575.320909 473.352959 
L 581.915455 476.201194 
L 595.104545 482.402317 
L 601.699091 485.11724 
L 608.293636 487.610187 
L 614.888182 489.737816 
L 621.482727 491.513654 
L 641.266364 496.542614 
L 651.158182 499.711256 
L 654.455455 500.59895 
L 661.05 502.005128 
L 667.644545 503.195374 
L 674.239091 504.117384 
L 687.428182 505.377601 
L 690.725455 506.009129 
L 694.022727 506.891689 
L 700.617273 509.118313 
L 703.914545 510.233558 
L 707.211818 511.226851 
L 710.509091 512.029888 
L 713.806364 512.57417 
L 717.103636 512.813698 
L 720.400909 512.779649 
L 726.995455 512.499709 
L 730.292727 512.616326 
L 733.59 513.01477 
L 736.887273 513.641114 
L 753.373636 517.349507 
L 759.968182 518.504455 
L 763.265455 518.888409 
L 769.86 519.255475 
L 776.454545 519.590368 
L 779.751818 519.993971 
L 783.049091 520.622834 
L 792.940909 523.074822 
L 796.238182 523.563165 
L 799.535455 523.712151 
L 802.832727 523.584711 
L 809.427273 523.169556 
L 809.427273 523.169556 
" clip-path="url(#p8983e9c142)" style="fill: none; stroke: #9467bd; stroke-width: 1.5; stroke-linecap: square"/>
   </g>
   <g id="line2d_23">
    <path d="M 149.972727 611.053396 
L 159.864545 612.841066 
L 163.161818 612.888253 
L 166.459091 612.450858 
L 173.053636 611.139338 
L 176.350909 610.81358 
L 179.648182 610.837548 
L 182.945455 611.133883 
L 189.54 611.863453 
L 192.837273 611.892082 
L 196.134545 611.53054 
L 199.431818 610.841872 
L 202.729091 610.032959 
L 206.026364 609.361346 
L 209.323636 609.022283 
L 212.620909 609.075135 
L 215.918182 609.4484 
L 225.81 611.133234 
L 229.107273 611.442773 
L 232.404545 611.458703 
L 235.701818 611.199391 
L 245.593636 610.051486 
L 248.890909 609.887813 
L 252.188182 609.909811 
L 255.485455 610.15241 
L 258.782727 610.61682 
L 265.377273 611.784947 
L 268.674545 612.118692 
L 271.971818 612.103293 
L 275.269091 611.756655 
L 285.160909 610.071174 
L 288.458182 609.765395 
L 291.755455 609.779499 
L 295.052727 610.140278 
L 304.944545 611.969949 
L 324.728182 614.684238 
L 334.62 615.566716 
L 337.917273 615.6 
L 341.214545 615.33568 
L 351.106364 613.847367 
L 357.700909 613.358911 
L 374.187273 612.396036 
L 384.079091 612.056213 
L 390.673636 611.444246 
L 397.268182 610.439055 
L 407.16 608.425187 
L 410.457273 608.0387 
L 413.754545 608.099067 
L 417.051818 608.463674 
L 420.349091 608.145929 
L 423.646364 604.351409 
L 426.943636 590.06022 
L 430.240909 549.168951 
L 433.538182 458.639896 
L 436.835455 328.246361 
L 440.132727 221.26021 
L 443.43 166.025978 
L 446.727273 142.668703 
L 450.024545 132.035451 
L 453.321818 125.798528 
L 456.619091 121.214134 
L 459.916364 117.518853 
L 463.213636 114.550658 
L 466.510909 112.441213 
L 469.808182 111.85906 
L 473.105455 114.743493 
L 476.402727 125.600562 
L 479.7 152.526612 
L 482.997273 203.653813 
L 486.294545 274.201848 
L 489.591818 341.041701 
L 492.889091 385.778642 
L 496.186364 409.474419 
L 499.483636 421.020742 
L 502.780909 427.2371 
L 506.078182 431.685952 
L 515.97 444.095546 
L 519.267273 447.423254 
L 522.564545 449.985117 
L 525.861818 451.98686 
L 535.753636 457.28475 
L 542.348182 461.239574 
L 545.645455 463.257448 
L 548.942727 465.117312 
L 552.24 466.671781 
L 555.537273 467.856697 
L 558.834545 468.727715 
L 565.429091 470.139312 
L 568.726364 470.963601 
L 572.023636 471.942255 
L 575.320909 473.060348 
L 581.915455 475.645087 
L 595.104545 481.280891 
L 608.293636 486.336398 
L 614.888182 488.652573 
L 628.077273 492.751816 
L 637.969091 495.748764 
L 644.563636 497.550193 
L 651.158182 499.045924 
L 657.752727 500.06416 
L 664.347273 500.989266 
L 670.941818 502.256675 
L 694.022727 507.448847 
L 703.914545 509.979928 
L 707.211818 510.647624 
L 710.509091 511.12951 
L 713.806364 511.380597 
L 717.103636 511.397659 
L 726.995455 511.046916 
L 730.292727 511.261626 
L 733.59 511.750831 
L 736.887273 512.469644 
L 743.481818 514.323771 
L 756.670909 518.439545 
L 759.968182 519.193873 
L 763.265455 519.680976 
L 766.562727 519.903511 
L 776.454545 520.056069 
L 779.751818 520.359796 
L 783.049091 520.900949 
L 792.940909 523.195455 
L 796.238182 523.673872 
L 799.535455 523.835696 
L 809.427273 523.501706 
L 809.427273 523.501706 
" clip-path="url(#p8983e9c142)" style="fill: none; stroke: #8c564b; stroke-width: 1.5; stroke-linecap: square"/>
   </g>
   <g id="line2d_24">
    <path d="M 149.972727 612.972414 
L 153.27 613.636436 
L 156.567273 614.071393 
L 159.864545 614.074566 
L 163.161818 613.492933 
L 166.459091 612.429976 
L 169.756364 611.218336 
L 173.053636 610.217922 
L 176.350909 609.633814 
L 179.648182 609.482843 
L 182.945455 609.667509 
L 196.134545 611.194781 
L 199.431818 611.293922 
L 202.729091 611.188048 
L 212.620909 610.40295 
L 215.918182 610.482434 
L 219.215455 610.897362 
L 229.107273 612.926067 
L 232.404545 613.120283 
L 235.701818 612.902323 
L 245.593636 611.475044 
L 248.890909 611.254746 
L 252.188182 611.258878 
L 255.485455 611.501337 
L 258.782727 611.973696 
L 265.377273 613.238466 
L 268.674545 613.644375 
L 271.971818 613.627545 
L 275.269091 613.127023 
L 278.566364 612.247597 
L 285.160909 610.177661 
L 288.458182 609.379595 
L 291.755455 608.935742 
L 295.052727 608.913681 
L 298.35 609.267747 
L 318.133636 612.809867 
L 324.728182 614.082412 
L 328.025455 614.546127 
L 331.322727 614.804998 
L 334.62 614.79609 
L 337.917273 614.498218 
L 344.511818 613.46639 
L 347.809091 613.112198 
L 351.106364 613.011154 
L 360.998182 613.205524 
L 364.295455 613.050336 
L 370.89 612.346217 
L 377.484545 611.551981 
L 384.079091 611.112168 
L 390.673636 610.889725 
L 393.970909 610.648734 
L 397.268182 610.239755 
L 407.16 608.596095 
L 410.457273 608.33715 
L 413.754545 608.455181 
L 417.051818 608.823319 
L 420.349091 608.546831 
L 423.646364 604.923644 
L 426.943636 590.957358 
L 430.240909 550.606826 
L 433.538182 461.168599 
L 436.835455 332.137277 
L 440.132727 225.236343 
L 443.43 168.863238 
L 446.727273 144.239734 
L 450.024545 132.737497 
L 453.321818 126.077663 
L 456.619091 121.381909 
L 459.916364 117.735182 
L 463.213636 114.868207 
L 466.510909 112.834562 
L 469.808182 112.16923 
L 473.105455 114.398894 
L 476.402727 122.882346 
L 479.7 143.498819 
L 482.997273 182.93278 
L 486.294545 241.234178 
L 489.591818 304.805172 
L 492.889091 356.165455 
L 496.186364 389.458849 
L 499.483636 408.884174 
L 502.780909 420.240997 
L 506.078182 427.582845 
L 509.375455 433.224633 
L 512.672727 438.190433 
L 515.97 442.619555 
L 519.267273 446.291408 
L 522.564545 449.096604 
L 525.861818 451.188142 
L 529.159091 452.850561 
L 535.753636 455.850503 
L 539.050909 457.523254 
L 542.348182 459.440188 
L 552.24 465.715797 
L 555.537273 467.385979 
L 558.834545 468.729842 
L 575.320909 474.437854 
L 581.915455 477.13164 
L 591.807273 481.292457 
L 604.996364 486.248122 
L 611.590909 488.648886 
L 614.888182 489.694282 
L 621.482727 491.456905 
L 628.077273 493.151254 
L 631.374545 494.10716 
L 634.671818 495.179333 
L 641.266364 497.667393 
L 647.860909 500.167165 
L 651.158182 501.128965 
L 654.455455 501.79529 
L 657.752727 502.203027 
L 674.239091 503.618408 
L 684.130909 504.509663 
L 687.428182 505.012676 
L 690.725455 505.762856 
L 694.022727 506.75593 
L 703.914545 510.152917 
L 707.211818 511.091041 
L 710.509091 511.823456 
L 713.806364 512.281537 
L 717.103636 512.414954 
L 720.400909 512.253461 
L 726.995455 511.701944 
L 730.292727 511.734221 
L 733.59 512.126644 
L 736.887273 512.831331 
L 750.076364 516.377643 
L 756.670909 517.792425 
L 759.968182 518.329229 
L 763.265455 518.712825 
L 769.86 519.059798 
L 776.454545 519.360359 
L 779.751818 519.77658 
L 783.049091 520.468502 
L 792.940909 523.323969 
L 796.238182 523.907216 
L 799.535455 524.10492 
L 809.427273 523.693732 
L 809.427273 523.693732 
" clip-path="url(#p8983e9c142)" style="fill: none; stroke: #e377c2; stroke-width: 1.5; stroke-linecap: square"/>
   </g>
   <g id="line2d_25">
    <path d="M 149.972727 610.956635 
L 159.864545 611.323171 
L 163.161818 611.139255 
L 173.053636 610.023337 
L 176.350909 609.95115 
L 182.945455 610.273235 
L 189.54 610.66574 
L 192.837273 610.680522 
L 196.134545 610.514127 
L 209.323636 609.273372 
L 212.620909 609.316117 
L 215.918182 609.589113 
L 225.81 611.01883 
L 229.107273 611.230827 
L 232.404545 611.083917 
L 242.296364 609.732514 
L 245.593636 609.60431 
L 252.188182 609.757998 
L 258.782727 610.07329 
L 262.08 610.417659 
L 268.674545 611.409528 
L 271.971818 611.737887 
L 275.269091 611.75291 
L 278.566364 611.450799 
L 285.160909 610.447926 
L 288.458182 610.106502 
L 291.755455 610.059958 
L 295.052727 610.34691 
L 304.944545 611.926641 
L 314.836364 613.036379 
L 321.430909 614.024146 
L 324.728182 614.331917 
L 331.322727 614.565768 
L 337.917273 614.656195 
L 344.511818 614.408044 
L 354.403636 613.821454 
L 374.187273 612.900151 
L 380.781818 612.841792 
L 384.079091 612.685384 
L 387.376364 612.36374 
L 390.673636 611.870427 
L 397.268182 610.516604 
L 403.862727 609.175091 
L 407.16 608.763737 
L 410.457273 608.638642 
L 417.051818 608.949039 
L 420.349091 608.220538 
L 423.646364 604.062877 
L 426.943636 589.734504 
L 430.240909 549.366262 
L 433.538182 460.154439 
L 436.835455 331.455731 
L 440.132727 225.286703 
L 443.43 169.919773 
L 446.727273 146.030976 
L 450.024545 134.72445 
L 453.321818 127.810039 
L 456.619091 122.667343 
L 459.916364 118.609455 
L 463.213636 115.483183 
L 466.510909 113.3998 
L 469.808182 113.009776 
L 473.105455 116.109199 
L 476.402727 126.470499 
L 479.7 150.197399 
L 482.997273 193.049804 
L 489.591818 313.232847 
L 492.889091 360.039312 
L 496.186364 389.657178 
L 499.483636 406.86753 
L 502.780909 417.027441 
L 506.078182 423.805784 
L 509.375455 429.380223 
L 515.97 439.87264 
L 519.267273 444.407403 
L 522.564545 448.045236 
L 525.861818 450.858321 
L 529.159091 453.13825 
L 542.348182 461.134146 
L 548.942727 465.052739 
L 552.24 466.75547 
L 555.537273 468.196069 
L 558.834545 469.382709 
L 565.429091 471.312873 
L 572.023636 473.310069 
L 578.618182 475.697829 
L 595.104545 482.317749 
L 608.293636 487.706078 
L 611.590909 488.808765 
L 614.888182 489.739976 
L 624.78 492.074123 
L 634.671818 494.516754 
L 641.266364 496.472193 
L 651.158182 499.618042 
L 654.455455 500.432132 
L 657.752727 501.075187 
L 664.347273 502.077761 
L 677.536364 503.837174 
L 684.130909 504.771935 
L 687.428182 505.434535 
L 690.725455 506.282579 
L 700.617273 509.228866 
L 703.914545 510.049926 
L 707.211818 510.739439 
L 710.509091 511.283768 
L 713.806364 511.638822 
L 717.103636 511.764099 
L 726.995455 511.529744 
L 730.292727 511.809698 
L 733.59 512.448535 
L 736.887273 513.38699 
L 746.779091 516.620575 
L 750.076364 517.509455 
L 753.373636 518.263268 
L 756.670909 518.879153 
L 759.968182 519.330624 
L 763.265455 519.581288 
L 766.562727 519.625027 
L 776.454545 519.376325 
L 779.751818 519.61779 
L 783.049091 520.174585 
L 786.346364 521.010554 
L 792.940909 522.868295 
L 796.238182 523.472654 
L 799.535455 523.706841 
L 802.832727 523.639421 
L 809.427273 523.338311 
L 809.427273 523.338311 
" clip-path="url(#p8983e9c142)" style="fill: none; stroke: #7f7f7f; stroke-width: 1.5; stroke-linecap: square"/>
   </g>
   <g id="line2d_26">
    <path d="M 149.972727 612.587588 
L 153.27 613.304516 
L 156.567273 613.796906 
L 159.864545 613.818593 
L 163.161818 613.222731 
L 173.053636 610.128013 
L 176.350909 609.708853 
L 179.648182 609.695219 
L 182.945455 609.944722 
L 196.134545 611.426399 
L 199.431818 611.599217 
L 202.729091 611.573641 
L 206.026364 611.319785 
L 212.620909 610.504912 
L 215.918182 610.309141 
L 219.215455 610.429381 
L 229.107273 611.634234 
L 232.404545 611.642317 
L 235.701818 611.357836 
L 242.296364 610.60497 
L 245.593636 610.392118 
L 252.188182 610.269959 
L 258.782727 610.483123 
L 265.377273 611.135318 
L 268.674545 611.469881 
L 271.971818 611.661072 
L 275.269091 611.647489 
L 278.566364 611.431055 
L 288.458182 610.219495 
L 291.755455 610.054945 
L 295.052727 610.224944 
L 308.241818 611.998794 
L 314.836364 612.379468 
L 321.430909 613.078252 
L 328.025455 613.81781 
L 331.322727 614.08535 
L 334.62 614.213711 
L 337.917273 614.145558 
L 347.809091 613.327065 
L 351.106364 613.262224 
L 360.998182 613.479603 
L 364.295455 613.356936 
L 377.484545 612.357612 
L 390.673636 611.772624 
L 393.970909 611.367485 
L 397.268182 610.708563 
L 400.565455 609.722629 
L 403.862727 608.411857 
L 407.16 606.955181 
L 410.457273 605.751644 
L 413.754545 605.25246 
L 417.051818 605.523973 
L 420.349091 605.62387 
L 423.646364 602.631818 
L 426.943636 589.311104 
L 430.240909 549.441889 
L 433.538182 460.344322 
L 436.835455 332.077867 
L 440.132727 226.61781 
L 443.43 171.605123 
L 446.727273 147.737649 
L 450.024545 136.301919 
L 453.321818 129.160379 
L 456.619091 123.707012 
L 459.916364 119.319558 
L 463.213636 115.951156 
L 466.510909 113.785289 
L 469.808182 113.438447 
L 473.105455 116.549158 
L 476.402727 126.664056 
L 479.7 149.75757 
L 482.997273 191.865611 
L 486.294545 251.15453 
L 489.591818 312.757771 
L 492.889091 360.656909 
L 496.186364 391.026725 
L 499.483636 408.643575 
L 502.780909 419.067796 
L 506.078182 426.058454 
L 509.375455 431.723617 
L 512.672727 436.92145 
L 515.97 441.662404 
L 519.267273 445.66447 
L 522.564545 448.821033 
L 525.861818 451.305565 
L 529.159091 453.39718 
L 548.942727 464.908383 
L 552.24 466.588492 
L 555.537273 467.993979 
L 558.834545 469.16075 
L 572.023636 473.265484 
L 578.618182 475.671857 
L 588.51 479.756148 
L 608.293636 487.933199 
L 614.888182 490.20813 
L 621.482727 492.113081 
L 631.374545 494.587488 
L 637.969091 496.299209 
L 644.563636 498.187849 
L 647.860909 499.014168 
L 651.158182 499.650325 
L 664.347273 501.466881 
L 680.833636 504.808793 
L 694.022727 506.972724 
L 700.617273 508.556806 
L 710.509091 511.131391 
L 713.806364 511.727879 
L 717.103636 512.048551 
L 720.400909 512.114618 
L 726.995455 512.0617 
L 730.292727 512.254267 
L 733.59 512.66717 
L 736.887273 513.254825 
L 743.481818 514.75396 
L 750.076364 516.604005 
L 756.670909 518.531398 
L 759.968182 519.272258 
L 763.265455 519.729846 
L 766.562727 519.882932 
L 769.86 519.795426 
L 776.454545 519.400824 
L 779.751818 519.351657 
L 783.049091 519.536376 
L 786.346364 520.008247 
L 789.643636 520.748461 
L 796.238182 522.50547 
L 799.535455 523.156297 
L 802.832727 523.50923 
L 809.427273 523.628747 
L 809.427273 523.628747 
" clip-path="url(#p8983e9c142)" style="fill: none; stroke: #bcbd22; stroke-width: 1.5; stroke-linecap: square"/>
   </g>
   <g id="line2d_27">
    <path d="M 149.972727 612.240558 
L 156.567273 613.329687 
L 159.864545 613.581223 
L 163.161818 613.360319 
L 166.459091 612.6935 
L 173.053636 610.964168 
L 176.350909 610.359619 
L 179.648182 610.051946 
L 182.945455 610.008736 
L 189.54 610.348155 
L 196.134545 610.634159 
L 202.729091 610.531134 
L 212.620909 609.961438 
L 215.918182 609.952671 
L 219.215455 610.126183 
L 225.81 610.758659 
L 229.107273 610.899875 
L 232.404545 610.751247 
L 242.296364 609.701032 
L 245.593636 609.638886 
L 252.188182 609.873183 
L 255.485455 610.122791 
L 258.782727 610.522895 
L 265.377273 611.783794 
L 268.674545 612.391627 
L 271.971818 612.703282 
L 275.269091 612.577009 
L 278.566364 612.031465 
L 288.458182 609.705438 
L 291.755455 609.337215 
L 295.052727 609.345651 
L 298.35 609.688896 
L 304.944545 610.883025 
L 311.539091 612.320924 
L 318.133636 613.908897 
L 321.430909 614.535959 
L 324.728182 614.936093 
L 328.025455 615.12132 
L 334.62 615.083688 
L 344.511818 614.719056 
L 357.700909 614.591034 
L 360.998182 614.250411 
L 364.295455 613.736687 
L 374.187273 611.811938 
L 377.484545 611.3402 
L 380.781818 611.070805 
L 387.376364 610.991513 
L 390.673636 610.943862 
L 393.970909 610.7107 
L 397.268182 610.225973 
L 403.862727 608.709268 
L 407.16 607.965355 
L 410.457273 607.470043 
L 413.754545 607.336267 
L 417.051818 607.412833 
L 420.349091 606.847159 
L 423.646364 603.053681 
L 426.943636 589.06379 
L 430.240909 548.379511 
L 433.538182 457.372889 
L 436.835455 326.724799 
L 440.132727 220.924257 
L 443.43 167.001344 
L 446.727273 144.184889 
L 450.024545 133.492996 
L 453.321818 126.918012 
L 456.619091 121.92776 
L 459.916364 117.885338 
L 463.213636 114.705032 
L 466.510909 112.535819 
L 469.808182 111.921546 
L 473.105455 114.275298 
L 476.402727 122.628888 
L 479.7 142.298012 
L 482.997273 179.655455 
L 486.294545 235.810316 
L 489.591818 299.132951 
L 492.889091 352.158118 
L 496.186364 387.343087 
L 499.483636 408.031637 
L 502.780909 420.167066 
L 506.078182 428.074837 
L 509.375455 434.130076 
L 512.672727 439.290472 
L 515.97 443.66393 
L 519.267273 447.10185 
L 522.564545 449.632363 
L 525.861818 451.536643 
L 535.753636 456.456483 
L 539.050909 458.280534 
L 545.645455 462.30324 
L 548.942727 464.337614 
L 552.24 466.210479 
L 555.537273 467.82622 
L 558.834545 469.17382 
L 565.429091 471.369897 
L 572.023636 473.553346 
L 578.618182 476.078231 
L 588.51 480.035899 
L 601.699091 485.057604 
L 604.996364 486.336106 
L 608.293636 487.491041 
L 611.590909 488.465735 
L 624.78 491.825602 
L 641.266364 496.884958 
L 647.860909 498.562023 
L 654.455455 499.806818 
L 664.347273 501.496674 
L 674.239091 503.406509 
L 680.833636 504.301381 
L 687.428182 505.048546 
L 690.725455 505.606069 
L 694.022727 506.376973 
L 700.617273 508.379045 
L 703.914545 509.39056 
L 707.211818 510.248151 
L 710.509091 510.854865 
L 713.806364 511.157802 
L 717.103636 511.178323 
L 723.698182 510.89059 
L 726.995455 510.938647 
L 730.292727 511.275734 
L 733.59 511.899386 
L 740.184545 513.673296 
L 756.670909 518.613258 
L 759.968182 519.286188 
L 763.265455 519.668843 
L 766.562727 519.778284 
L 776.454545 519.643888 
L 779.751818 519.852151 
L 783.049091 520.299564 
L 786.346364 520.980463 
L 792.940909 522.66621 
L 796.238182 523.347777 
L 799.535455 523.740738 
L 802.832727 523.83178 
L 809.427273 523.533036 
L 809.427273 523.533036 
" clip-path="url(#p8983e9c142)" style="fill: none; stroke: #17becf; stroke-width: 1.5; stroke-linecap: square"/>
   </g>
   <g id="patch_3">
    <path d="M 117 640.8 
L 117 86.4 
" style="fill: none; stroke: #000000; stroke-width: 0.8; stroke-linejoin: miter; stroke-linecap: square"/>
   </g>
   <g id="patch_4">
    <path d="M 842.4 640.8 
L 842.4 86.4 
" style="fill: none; stroke: #000000; stroke-width: 0.8; stroke-linejoin: miter; stroke-linecap: square"/>
   </g>
   <g id="patch_5">
    <path d="M 117 640.8 
L 842.4 640.8 
" style="fill: none; stroke: #000000; stroke-width: 0.8; stroke-linejoin: miter; stroke-linecap: square"/>
   </g>
   <g id="patch_6">
    <path d="M 117 86.4 
L 842.4 86.4 
" style="fill: none; stroke: #000000; stroke-width: 0.8; stroke-linejoin: miter; stroke-linecap: square"/>
   </g>
   <g id="text_20">
    <!-- Wilson action difference between twist and notwist with respect to $\beta$ using jackknife and FS reweighting -->
    <g transform="translate(166.56 80.4) scale(0.12 -0.12)">
     <defs>
      <path id="DejaVuSans-57" d="M 213 4666 
L 850 4666 
L 1831 722 
L 2809 4666 
L 3519 4666 
L 4500 722 
L 5478 4666 
L 6119 4666 
L 4947 0 
L 4153 0 
L 3169 4050 
L 2175 0 
L 1381 0 
L 213 4666 
z
" transform="scale(0.015625)"/>
      <path id="DejaVuSans-69" d="M 603 3500 
L 1178 3500 
L 1178 0 
L 603 0 
L 603 3500 
z
M 603 4863 
L 1178 4863 
L 1178 4134 
L 603 4134 
L 603 4863 
z
" transform="scale(0.015625)"/>
      <path id="DejaVuSans-6c" d="M 603 4863 
L 1178 4863 
L 1178 0 
L 603 0 
L 603 4863 
z
" transform="scale(0.015625)"/>
      <path id="DejaVuSans-73" d="M 2834 3397 
L 2834 2853 
Q 2591 2978 2328 3040 
Q 2066 3103 1784 3103 
Q 1356 3103 1142 2972 
Q 928 2841 928 2578 
Q 928 2378 1081 2264 
Q 1234 2150 1697 2047 
L 1894 2003 
Q 2506 1872 2764 1633 
Q 3022 1394 3022 966 
Q 3022 478 2636 193 
Q 2250 -91 1575 -91 
Q 1294 -91 989 -36 
Q 684 19 347 128 
L 347 722 
Q 666 556 975 473 
Q 1284 391 1588 391 
Q 1994 391 2212 530 
Q 2431 669 2431 922 
Q 2431 1156 2273 1281 
Q 2116 1406 1581 1522 
L 1381 1569 
Q 847 1681 609 1914 
Q 372 2147 372 2553 
Q 372 3047 722 3315 
Q 1072 3584 1716 3584 
Q 2034 3584 2315 3537 
Q 2597 3491 2834 3397 
z
" transform="scale(0.015625)"/>
      <path id="DejaVuSans-6f" d="M 1959 3097 
Q 1497 3097 1228 2736 
Q 959 2375 959 1747 
Q 959 1119 1226 758 
Q 1494 397 1959 397 
Q 2419 397 2687 759 
Q 2956 1122 2956 1747 
Q 2956 2369 2687 2733 
Q 2419 3097 1959 3097 
z
M 1959 3584 
Q 2709 3584 3137 3096 
Q 3566 2609 3566 1747 
Q 3566 888 3137 398 
Q 2709 -91 1959 -91 
Q 1206 -91 779 398 
Q 353 888 353 1747 
Q 353 2609 779 3096 
Q 1206 3584 1959 3584 
z
" transform="scale(0.015625)"/>
      <path id="DejaVuSans-6e" d="M 3513 2113 
L 3513 0 
L 2938 0 
L 2938 2094 
Q 2938 2591 2744 2837 
Q 2550 3084 2163 3084 
Q 1697 3084 1428 2787 
Q 1159 2491 1159 1978 
L 1159 0 
L 581 0 
L 581 3500 
L 1159 3500 
L 1159 2956 
Q 1366 3272 1645 3428 
Q 1925 3584 2291 3584 
Q 2894 3584 3203 3211 
Q 3513 2838 3513 2113 
z
" transform="scale(0.015625)"/>
      <path id="DejaVuSans-20" transform="scale(0.015625)"/>
      <path id="DejaVuSans-61" d="M 2194 1759 
Q 1497 1759 1228 1600 
Q 959 1441 959 1056 
Q 959 750 1161 570 
Q 1363 391 1709 391 
Q 2188 391 2477 730 
Q 2766 1069 2766 1631 
L 2766 1759 
L 2194 1759 
z
M 3341 1997 
L 3341 0 
L 2766 0 
L 2766 531 
Q 2569 213 2275 61 
Q 1981 -91 1556 -91 
Q 1019 -91 701 211 
Q 384 513 384 1019 
Q 384 1609 779 1909 
Q 1175 2209 1959 2209 
L 2766 2209 
L 2766 2266 
Q 2766 2663 2505 2880 
Q 2244 3097 1772 3097 
Q 1472 3097 1187 3025 
Q 903 2953 641 2809 
L 641 3341 
Q 956 3463 1253 3523 
Q 1550 3584 1831 3584 
Q 2591 3584 2966 3190 
Q 3341 2797 3341 1997 
z
" transform="scale(0.015625)"/>
      <path id="DejaVuSans-63" d="M 3122 3366 
L 3122 2828 
Q 2878 2963 2633 3030 
Q 2388 3097 2138 3097 
Q 1578 3097 1268 2742 
Q 959 2388 959 1747 
Q 959 1106 1268 751 
Q 1578 397 2138 397 
Q 2388 397 2633 464 
Q 2878 531 3122 666 
L 3122 134 
Q 2881 22 2623 -34 
Q 2366 -91 2075 -91 
Q 1284 -91 818 406 
Q 353 903 353 1747 
Q 353 2603 823 3093 
Q 1294 3584 2113 3584 
Q 2378 3584 2631 3529 
Q 2884 3475 3122 3366 
z
" transform="scale(0.015625)"/>
      <path id="DejaVuSans-74" d="M 1172 4494 
L 1172 3500 
L 2356 3500 
L 2356 3053 
L 1172 3053 
L 1172 1153 
Q 1172 725 1289 603 
Q 1406 481 1766 481 
L 2356 481 
L 2356 0 
L 1766 0 
Q 1100 0 847 248 
Q 594 497 594 1153 
L 594 3053 
L 172 3053 
L 172 3500 
L 594 3500 
L 594 4494 
L 1172 4494 
z
" transform="scale(0.015625)"/>
      <path id="DejaVuSans-64" d="M 2906 2969 
L 2906 4863 
L 3481 4863 
L 3481 0 
L 2906 0 
L 2906 525 
Q 2725 213 2448 61 
Q 2172 -91 1784 -91 
Q 1150 -91 751 415 
Q 353 922 353 1747 
Q 353 2572 751 3078 
Q 1150 3584 1784 3584 
Q 2172 3584 2448 3432 
Q 2725 3281 2906 2969 
z
M 947 1747 
Q 947 1113 1208 752 
Q 1469 391 1925 391 
Q 2381 391 2643 752 
Q 2906 1113 2906 1747 
Q 2906 2381 2643 2742 
Q 2381 3103 1925 3103 
Q 1469 3103 1208 2742 
Q 947 2381 947 1747 
z
" transform="scale(0.015625)"/>
      <path id="DejaVuSans-66" d="M 2375 4863 
L 2375 4384 
L 1825 4384 
Q 1516 4384 1395 4259 
Q 1275 4134 1275 3809 
L 1275 3500 
L 2222 3500 
L 2222 3053 
L 1275 3053 
L 1275 0 
L 697 0 
L 697 3053 
L 147 3053 
L 147 3500 
L 697 3500 
L 697 3744 
Q 697 4328 969 4595 
Q 1241 4863 1831 4863 
L 2375 4863 
z
" transform="scale(0.015625)"/>
      <path id="DejaVuSans-65" d="M 3597 1894 
L 3597 1613 
L 953 1613 
Q 991 1019 1311 708 
Q 1631 397 2203 397 
Q 2534 397 2845 478 
Q 3156 559 3463 722 
L 3463 178 
Q 3153 47 2828 -22 
Q 2503 -91 2169 -91 
Q 1331 -91 842 396 
Q 353 884 353 1716 
Q 353 2575 817 3079 
Q 1281 3584 2069 3584 
Q 2775 3584 3186 3129 
Q 3597 2675 3597 1894 
z
M 3022 2063 
Q 3016 2534 2758 2815 
Q 2500 3097 2075 3097 
Q 1594 3097 1305 2825 
Q 1016 2553 972 2059 
L 3022 2063 
z
" transform="scale(0.015625)"/>
      <path id="DejaVuSans-72" d="M 2631 2963 
Q 2534 3019 2420 3045 
Q 2306 3072 2169 3072 
Q 1681 3072 1420 2755 
Q 1159 2438 1159 1844 
L 1159 0 
L 581 0 
L 581 3500 
L 1159 3500 
L 1159 2956 
Q 1341 3275 1631 3429 
Q 1922 3584 2338 3584 
Q 2397 3584 2469 3576 
Q 2541 3569 2628 3553 
L 2631 2963 
z
" transform="scale(0.015625)"/>
      <path id="DejaVuSans-62" d="M 3116 1747 
Q 3116 2381 2855 2742 
Q 2594 3103 2138 3103 
Q 1681 3103 1420 2742 
Q 1159 2381 1159 1747 
Q 1159 1113 1420 752 
Q 1681 391 2138 391 
Q 2594 391 2855 752 
Q 3116 1113 3116 1747 
z
M 1159 2969 
Q 1341 3281 1617 3432 
Q 1894 3584 2278 3584 
Q 2916 3584 3314 3078 
Q 3713 2572 3713 1747 
Q 3713 922 3314 415 
Q 2916 -91 2278 -91 
Q 1894 -91 1617 61 
Q 1341 213 1159 525 
L 1159 0 
L 581 0 
L 581 4863 
L 1159 4863 
L 1159 2969 
z
" transform="scale(0.015625)"/>
      <path id="DejaVuSans-77" d="M 269 3500 
L 844 3500 
L 1563 769 
L 2278 3500 
L 2956 3500 
L 3675 769 
L 4391 3500 
L 4966 3500 
L 4050 0 
L 3372 0 
L 2619 2869 
L 1863 0 
L 1184 0 
L 269 3500 
z
" transform="scale(0.015625)"/>
      <path id="DejaVuSans-68" d="M 3513 2113 
L 3513 0 
L 2938 0 
L 2938 2094 
Q 2938 2591 2744 2837 
Q 2550 3084 2163 3084 
Q 1697 3084 1428 2787 
Q 1159 2491 1159 1978 
L 1159 0 
L 581 0 
L 581 4863 
L 1159 4863 
L 1159 2956 
Q 1366 3272 1645 3428 
Q 1925 3584 2291 3584 
Q 2894 3584 3203 3211 
Q 3513 2838 3513 2113 
z
" transform="scale(0.015625)"/>
      <path id="DejaVuSans-70" d="M 1159 525 
L 1159 -1331 
L 581 -1331 
L 581 3500 
L 1159 3500 
L 1159 2969 
Q 1341 3281 1617 3432 
Q 1894 3584 2278 3584 
Q 2916 3584 3314 3078 
Q 3713 2572 3713 1747 
Q 3713 922 3314 415 
Q 2916 -91 2278 -91 
Q 1894 -91 1617 61 
Q 1341 213 1159 525 
z
M 3116 1747 
Q 3116 2381 2855 2742 
Q 2594 3103 2138 3103 
Q 1681 3103 1420 2742 
Q 1159 2381 1159 1747 
Q 1159 1113 1420 752 
Q 1681 391 2138 391 
Q 2594 391 2855 752 
Q 3116 1113 3116 1747 
z
" transform="scale(0.015625)"/>
      <path id="DejaVuSans-75" d="M 544 1381 
L 544 3500 
L 1119 3500 
L 1119 1403 
Q 1119 906 1312 657 
Q 1506 409 1894 409 
Q 2359 409 2629 706 
Q 2900 1003 2900 1516 
L 2900 3500 
L 3475 3500 
L 3475 0 
L 2900 0 
L 2900 538 
Q 2691 219 2414 64 
Q 2138 -91 1772 -91 
Q 1169 -91 856 284 
Q 544 659 544 1381 
z
M 1991 3584 
L 1991 3584 
z
" transform="scale(0.015625)"/>
      <path id="DejaVuSans-67" d="M 2906 1791 
Q 2906 2416 2648 2759 
Q 2391 3103 1925 3103 
Q 1463 3103 1205 2759 
Q 947 2416 947 1791 
Q 947 1169 1205 825 
Q 1463 481 1925 481 
Q 2391 481 2648 825 
Q 2906 1169 2906 1791 
z
M 3481 434 
Q 3481 -459 3084 -895 
Q 2688 -1331 1869 -1331 
Q 1566 -1331 1297 -1286 
Q 1028 -1241 775 -1147 
L 775 -588 
Q 1028 -725 1275 -790 
Q 1522 -856 1778 -856 
Q 2344 -856 2625 -561 
Q 2906 -266 2906 331 
L 2906 616 
Q 2728 306 2450 153 
Q 2172 0 1784 0 
Q 1141 0 747 490 
Q 353 981 353 1791 
Q 353 2603 747 3093 
Q 1141 3584 1784 3584 
Q 2172 3584 2450 3431 
Q 2728 3278 2906 2969 
L 2906 3500 
L 3481 3500 
L 3481 434 
z
" transform="scale(0.015625)"/>
      <path id="DejaVuSans-6a" d="M 603 3500 
L 1178 3500 
L 1178 -63 
Q 1178 -731 923 -1031 
Q 669 -1331 103 -1331 
L -116 -1331 
L -116 -844 
L 38 -844 
Q 366 -844 484 -692 
Q 603 -541 603 -63 
L 603 3500 
z
M 603 4863 
L 1178 4863 
L 1178 4134 
L 603 4134 
L 603 4863 
z
" transform="scale(0.015625)"/>
      <path id="DejaVuSans-6b" d="M 581 4863 
L 1159 4863 
L 1159 1991 
L 2875 3500 
L 3609 3500 
L 1753 1863 
L 3688 0 
L 2938 0 
L 1159 1709 
L 1159 0 
L 581 0 
L 581 4863 
z
" transform="scale(0.015625)"/>
      <path id="DejaVuSans-46" d="M 628 4666 
L 3309 4666 
L 3309 4134 
L 1259 4134 
L 1259 2759 
L 3109 2759 
L 3109 2228 
L 1259 2228 
L 1259 0 
L 628 0 
L 628 4666 
z
" transform="scale(0.015625)"/>
      <path id="DejaVuSans-53" d="M 3425 4513 
L 3425 3897 
Q 3066 4069 2747 4153 
Q 2428 4238 2131 4238 
Q 1616 4238 1336 4038 
Q 1056 3838 1056 3469 
Q 1056 3159 1242 3001 
Q 1428 2844 1947 2747 
L 2328 2669 
Q 3034 2534 3370 2195 
Q 3706 1856 3706 1288 
Q 3706 609 3251 259 
Q 2797 -91 1919 -91 
Q 1588 -91 1214 -16 
Q 841 59 441 206 
L 441 856 
Q 825 641 1194 531 
Q 1563 422 1919 422 
Q 2459 422 2753 634 
Q 3047 847 3047 1241 
Q 3047 1584 2836 1778 
Q 2625 1972 2144 2069 
L 1759 2144 
Q 1053 2284 737 2584 
Q 422 2884 422 3419 
Q 422 4038 858 4394 
Q 1294 4750 2059 4750 
Q 2388 4750 2728 4690 
Q 3069 4631 3425 4513 
z
" transform="scale(0.015625)"/>
     </defs>
     <use xlink:href="#DejaVuSans-57" transform="translate(0 0.390625)"/>
     <use xlink:href="#DejaVuSans-69" transform="translate(98.876953 0.390625)"/>
     <use xlink:href="#DejaVuSans-6c" transform="translate(126.660156 0.390625)"/>
     <use xlink:href="#DejaVuSans-73" transform="translate(154.443359 0.390625)"/>
     <use xlink:href="#DejaVuSans-6f" transform="translate(206.542969 0.390625)"/>
     <use xlink:href="#DejaVuSans-6e" transform="translate(267.724609 0.390625)"/>
     <use xlink:href="#DejaVuSans-20" transform="translate(331.103516 0.390625)"/>
     <use xlink:href="#DejaVuSans-61" transform="translate(362.890625 0.390625)"/>
     <use xlink:href="#DejaVuSans-63" transform="translate(424.169922 0.390625)"/>
     <use xlink:href="#DejaVuSans-74" transform="translate(479.150391 0.390625)"/>
     <use xlink:href="#DejaVuSans-69" transform="translate(518.359375 0.390625)"/>
     <use xlink:href="#DejaVuSans-6f" transform="translate(546.142578 0.390625)"/>
     <use xlink:href="#DejaVuSans-6e" transform="translate(607.324219 0.390625)"/>
     <use xlink:href="#DejaVuSans-20" transform="translate(670.703125 0.390625)"/>
     <use xlink:href="#DejaVuSans-64" transform="translate(702.490234 0.390625)"/>
     <use xlink:href="#DejaVuSans-69" transform="translate(765.966797 0.390625)"/>
     <use xlink:href="#DejaVuSans-66" transform="translate(793.75 0.390625)"/>
     <use xlink:href="#DejaVuSans-66" transform="translate(828.955078 0.390625)"/>
     <use xlink:href="#DejaVuSans-65" transform="translate(864.160156 0.390625)"/>
     <use xlink:href="#DejaVuSans-72" transform="translate(925.683594 0.390625)"/>
     <use xlink:href="#DejaVuSans-65" transform="translate(966.796875 0.390625)"/>
     <use xlink:href="#DejaVuSans-6e" transform="translate(1028.320312 0.390625)"/>
     <use xlink:href="#DejaVuSans-63" transform="translate(1091.699219 0.390625)"/>
     <use xlink:href="#DejaVuSans-65" transform="translate(1146.679688 0.390625)"/>
     <use xlink:href="#DejaVuSans-20" transform="translate(1208.203125 0.390625)"/>
     <use xlink:href="#DejaVuSans-62" transform="translate(1239.990234 0.390625)"/>
     <use xlink:href="#DejaVuSans-65" transform="translate(1303.466797 0.390625)"/>
     <use xlink:href="#DejaVuSans-74" transform="translate(1364.990234 0.390625)"/>
     <use xlink:href="#DejaVuSans-77" transform="translate(1404.199219 0.390625)"/>
     <use xlink:href="#DejaVuSans-65" transform="translate(1485.986328 0.390625)"/>
     <use xlink:href="#DejaVuSans-65" transform="translate(1547.509766 0.390625)"/>
     <use xlink:href="#DejaVuSans-6e" transform="translate(1609.033203 0.390625)"/>
     <use xlink:href="#DejaVuSans-20" transform="translate(1672.412109 0.390625)"/>
     <use xlink:href="#DejaVuSans-74" transform="translate(1704.199219 0.390625)"/>
     <use xlink:href="#DejaVuSans-77" transform="translate(1743.408203 0.390625)"/>
     <use xlink:href="#DejaVuSans-69" transform="translate(1825.195312 0.390625)"/>
     <use xlink:href="#DejaVuSans-73" transform="translate(1852.978516 0.390625)"/>
     <use xlink:href="#DejaVuSans-74" transform="translate(1905.078125 0.390625)"/>
     <use xlink:href="#DejaVuSans-20" transform="translate(1944.287109 0.390625)"/>
     <use xlink:href="#DejaVuSans-61" transform="translate(1976.074219 0.390625)"/>
     <use xlink:href="#DejaVuSans-6e" transform="translate(2037.353516 0.390625)"/>
     <use xlink:href="#DejaVuSans-64" transform="translate(2100.732422 0.390625)"/>
     <use xlink:href="#DejaVuSans-20" transform="translate(2164.208984 0.390625)"/>
     <use xlink:href="#DejaVuSans-6e" transform="translate(2195.996094 0.390625)"/>
     <use xlink:href="#DejaVuSans-6f" transform="translate(2259.375 0.390625)"/>
     <use xlink:href="#DejaVuSans-74" transform="translate(2320.556641 0.390625)"/>
     <use xlink:href="#DejaVuSans-77" transform="translate(2359.765625 0.390625)"/>
     <use xlink:href="#DejaVuSans-69" transform="translate(2441.552734 0.390625)"/>
     <use xlink:href="#DejaVuSans-73" transform="translate(2469.335938 0.390625)"/>
     <use xlink:href="#DejaVuSans-74" transform="translate(2521.435547 0.390625)"/>
     <use xlink:href="#DejaVuSans-20" transform="translate(2560.644531 0.390625)"/>
     <use xlink:href="#DejaVuSans-77" transform="translate(2592.431641 0.390625)"/>
     <use xlink:href="#DejaVuSans-69" transform="translate(2674.21875 0.390625)"/>
     <use xlink:href="#DejaVuSans-74" transform="translate(2702.001953 0.390625)"/>
     <use xlink:href="#DejaVuSans-68" transform="translate(2741.210938 0.390625)"/>
     <use xlink:href="#DejaVuSans-20" transform="translate(2804.589844 0.390625)"/>
     <use xlink:href="#DejaVuSans-72" transform="translate(2836.376953 0.390625)"/>
     <use xlink:href="#DejaVuSans-65" transform="translate(2877.490234 0.390625)"/>
     <use xlink:href="#DejaVuSans-73" transform="translate(2939.013672 0.390625)"/>
     <use xlink:href="#DejaVuSans-70" transform="translate(2991.113281 0.390625)"/>
     <use xlink:href="#DejaVuSans-65" transform="translate(3054.589844 0.390625)"/>
     <use xlink:href="#DejaVuSans-63" transform="translate(3116.113281 0.390625)"/>
     <use xlink:href="#DejaVuSans-74" transform="translate(3171.09375 0.390625)"/>
     <use xlink:href="#DejaVuSans-20" transform="translate(3210.302734 0.390625)"/>
     <use xlink:href="#DejaVuSans-74" transform="translate(3242.089844 0.390625)"/>
     <use xlink:href="#DejaVuSans-6f" transform="translate(3281.298828 0.390625)"/>
     <use xlink:href="#DejaVuSans-20" transform="translate(3342.480469 0.390625)"/>
     <use xlink:href="#DejaVuSans-Oblique-3b2" transform="translate(3374.267578 0.390625)"/>
     <use xlink:href="#DejaVuSans-20" transform="translate(3438.085938 0.390625)"/>
     <use xlink:href="#DejaVuSans-75" transform="translate(3469.873047 0.390625)"/>
     <use xlink:href="#DejaVuSans-73" transform="translate(3533.251953 0.390625)"/>
     <use xlink:href="#DejaVuSans-69" transform="translate(3585.351562 0.390625)"/>
     <use xlink:href="#DejaVuSans-6e" transform="translate(3613.134766 0.390625)"/>
     <use xlink:href="#DejaVuSans-67" transform="translate(3676.513672 0.390625)"/>
     <use xlink:href="#DejaVuSans-20" transform="translate(3739.990234 0.390625)"/>
     <use xlink:href="#DejaVuSans-6a" transform="translate(3771.777344 0.390625)"/>
     <use xlink:href="#DejaVuSans-61" transform="translate(3799.560547 0.390625)"/>
     <use xlink:href="#DejaVuSans-63" transform="translate(3860.839844 0.390625)"/>
     <use xlink:href="#DejaVuSans-6b" transform="translate(3915.820312 0.390625)"/>
     <use xlink:href="#DejaVuSans-6b" transform="translate(3973.730469 0.390625)"/>
     <use xlink:href="#DejaVuSans-6e" transform="translate(4031.640625 0.390625)"/>
     <use xlink:href="#DejaVuSans-69" transform="translate(4095.019531 0.390625)"/>
     <use xlink:href="#DejaVuSans-66" transform="translate(4122.802734 0.390625)"/>
     <use xlink:href="#DejaVuSans-65" transform="translate(4158.007812 0.390625)"/>
     <use xlink:href="#DejaVuSans-20" transform="translate(4219.53125 0.390625)"/>
     <use xlink:href="#DejaVuSans-61" transform="translate(4251.318359 0.390625)"/>
     <use xlink:href="#DejaVuSans-6e" transform="translate(4312.597656 0.390625)"/>
     <use xlink:href="#DejaVuSans-64" transform="translate(4375.976562 0.390625)"/>
     <use xlink:href="#DejaVuSans-20" transform="translate(4439.453125 0.390625)"/>
     <use xlink:href="#DejaVuSans-46" transform="translate(4471.240234 0.390625)"/>
     <use xlink:href="#DejaVuSans-53" transform="translate(4528.759766 0.390625)"/>
     <use xlink:href="#DejaVuSans-20" transform="translate(4592.236328 0.390625)"/>
     <use xlink:href="#DejaVuSans-72" transform="translate(4624.023438 0.390625)"/>
     <use xlink:href="#DejaVuSans-65" transform="translate(4665.136719 0.390625)"/>
     <use xlink:href="#DejaVuSans-77" transform="translate(4726.660156 0.390625)"/>
     <use xlink:href="#DejaVuSans-65" transform="translate(4808.447266 0.390625)"/>
     <use xlink:href="#DejaVuSans-69" transform="translate(4869.970703 0.390625)"/>
     <use xlink:href="#DejaVuSans-67" transform="translate(4897.753906 0.390625)"/>
     <use xlink:href="#DejaVuSans-68" transform="translate(4961.230469 0.390625)"/>
     <use xlink:href="#DejaVuSans-74" transform="translate(5024.609375 0.390625)"/>
     <use xlink:href="#DejaVuSans-69" transform="translate(5063.818359 0.390625)"/>
     <use xlink:href="#DejaVuSans-6e" transform="translate(5091.601562 0.390625)"/>
     <use xlink:href="#DejaVuSans-67" transform="translate(5154.980469 0.390625)"/>
    </g>
   </g>
  </g>
  <g id="text_21">
   <!-- Twist coefficients 0 and 1. N=10 Jackknife bins -->
   <g transform="translate(0 720) scale(0.1 -0.1)">
    <defs>
     <path id="DejaVuSans-Oblique-54" d="M 378 4666 
L 4325 4666 
L 4225 4134 
L 2559 4134 
L 1759 0 
L 1125 0 
L 1925 4134 
L 275 4134 
L 378 4666 
z
" transform="scale(0.015625)"/>
     <path id="DejaVuSans-Oblique-77" d="M 544 3500 
L 1113 3500 
L 1259 684 
L 2566 3500 
L 3231 3500 
L 3425 684 
L 4666 3500 
L 5241 3500 
L 3641 0 
L 2969 0 
L 2797 2900 
L 1459 0 
L 781 0 
L 544 3500 
z
" transform="scale(0.015625)"/>
     <path id="DejaVuSans-Oblique-69" d="M 1172 4863 
L 1747 4863 
L 1606 4134 
L 1031 4134 
L 1172 4863 
z
M 909 3500 
L 1484 3500 
L 800 0 
L 225 0 
L 909 3500 
z
" transform="scale(0.015625)"/>
     <path id="DejaVuSans-Oblique-73" d="M 3200 3397 
L 3091 2853 
Q 2863 2978 2609 3040 
Q 2356 3103 2088 3103 
Q 1634 3103 1373 2948 
Q 1113 2794 1113 2528 
Q 1113 2219 1719 2053 
Q 1766 2041 1788 2034 
L 1972 1978 
Q 2547 1819 2739 1644 
Q 2931 1469 2931 1166 
Q 2931 609 2489 259 
Q 2047 -91 1331 -91 
Q 1053 -91 747 -37 
Q 441 16 72 128 
L 184 722 
Q 500 559 806 475 
Q 1113 391 1394 391 
Q 1816 391 2080 572 
Q 2344 753 2344 1031 
Q 2344 1331 1650 1516 
L 1591 1531 
L 1394 1581 
Q 956 1697 753 1886 
Q 550 2075 550 2369 
Q 550 2928 970 3256 
Q 1391 3584 2113 3584 
Q 2397 3584 2667 3537 
Q 2938 3491 3200 3397 
z
" transform="scale(0.015625)"/>
     <path id="DejaVuSans-Oblique-20" transform="scale(0.015625)"/>
     <path id="DejaVuSans-Oblique-63" d="M 3431 3366 
L 3316 2797 
Q 3109 2947 2876 3022 
Q 2644 3097 2394 3097 
Q 2119 3097 1870 3000 
Q 1622 2903 1453 2725 
Q 1184 2453 1037 2087 
Q 891 1722 891 1331 
Q 891 859 1127 628 
Q 1363 397 1844 397 
Q 2081 397 2348 469 
Q 2616 541 2906 684 
L 2797 116 
Q 2547 13 2283 -39 
Q 2019 -91 1741 -91 
Q 1044 -91 669 257 
Q 294 606 294 1253 
Q 294 1797 489 2255 
Q 684 2713 1069 3078 
Q 1331 3328 1684 3456 
Q 2038 3584 2456 3584 
Q 2700 3584 2940 3529 
Q 3181 3475 3431 3366 
z
" transform="scale(0.015625)"/>
     <path id="DejaVuSans-Oblique-6f" d="M 1625 -91 
Q 1009 -91 651 289 
Q 294 669 294 1325 
Q 294 1706 417 2101 
Q 541 2497 738 2766 
Q 1047 3184 1428 3384 
Q 1809 3584 2291 3584 
Q 2888 3584 3255 3212 
Q 3622 2841 3622 2241 
Q 3622 1825 3500 1412 
Q 3378 1000 3181 728 
Q 2875 309 2494 109 
Q 2113 -91 1625 -91 
z
M 891 1344 
Q 891 869 1089 633 
Q 1288 397 1691 397 
Q 2269 397 2648 901 
Q 3028 1406 3028 2181 
Q 3028 2634 2825 2865 
Q 2622 3097 2228 3097 
Q 1903 3097 1650 2945 
Q 1397 2794 1197 2484 
Q 1050 2253 970 1956 
Q 891 1659 891 1344 
z
" transform="scale(0.015625)"/>
     <path id="DejaVuSans-Oblique-65" d="M 3078 2063 
Q 3088 2113 3092 2166 
Q 3097 2219 3097 2272 
Q 3097 2653 2873 2875 
Q 2650 3097 2266 3097 
Q 1838 3097 1509 2826 
Q 1181 2556 1013 2059 
L 3078 2063 
z
M 3578 1613 
L 903 1613 
Q 884 1494 878 1425 
Q 872 1356 872 1306 
Q 872 872 1139 634 
Q 1406 397 1894 397 
Q 2269 397 2603 481 
Q 2938 566 3225 728 
L 3116 159 
Q 2806 34 2476 -28 
Q 2147 -91 1806 -91 
Q 1078 -91 686 257 
Q 294 606 294 1247 
Q 294 1794 489 2264 
Q 684 2734 1063 3103 
Q 1306 3334 1642 3459 
Q 1978 3584 2356 3584 
Q 2950 3584 3301 3228 
Q 3653 2872 3653 2272 
Q 3653 2128 3634 1964 
Q 3616 1800 3578 1613 
z
" transform="scale(0.015625)"/>
     <path id="DejaVuSans-Oblique-66" d="M 3059 4863 
L 2969 4384 
L 2419 4384 
Q 2106 4384 1964 4261 
Q 1822 4138 1753 3809 
L 1691 3500 
L 2638 3500 
L 2553 3053 
L 1606 3053 
L 1013 0 
L 434 0 
L 1031 3053 
L 481 3053 
L 563 3500 
L 1113 3500 
L 1159 3744 
Q 1278 4363 1576 4613 
Q 1875 4863 2516 4863 
L 3059 4863 
z
" transform="scale(0.015625)"/>
     <path id="DejaVuSans-Oblique-30" d="M 2444 4750 
Q 3078 4750 3414 4328 
Q 3750 3906 3750 3116 
Q 3750 2516 3592 1923 
Q 3434 1331 3150 863 
Q 2859 394 2467 151 
Q 2075 -91 1600 -91 
Q 988 -91 653 334 
Q 319 759 319 1544 
Q 319 2138 480 2733 
Q 641 3328 928 3794 
Q 1216 4263 1602 4506 
Q 1988 4750 2444 4750 
z
M 2406 4250 
Q 2169 4250 1955 4123 
Q 1741 3997 1569 3750 
Q 1281 3338 1111 2720 
Q 941 2103 941 1453 
Q 941 938 1123 673 
Q 1306 409 1663 409 
Q 1913 409 2125 536 
Q 2338 663 2509 909 
Q 2794 1319 2961 1936 
Q 3128 2553 3128 3206 
Q 3128 3722 2945 3986 
Q 2763 4250 2406 4250 
z
" transform="scale(0.015625)"/>
     <path id="DejaVuSans-Oblique-61" d="M 3438 1997 
L 3047 0 
L 2472 0 
L 2578 531 
Q 2325 219 2001 64 
Q 1678 -91 1281 -91 
Q 834 -91 548 182 
Q 263 456 263 884 
Q 263 1497 752 1853 
Q 1241 2209 2100 2209 
L 2900 2209 
L 2931 2363 
Q 2938 2388 2941 2417 
Q 2944 2447 2944 2509 
Q 2944 2788 2717 2942 
Q 2491 3097 2081 3097 
Q 1800 3097 1504 3025 
Q 1209 2953 897 2809 
L 997 3341 
Q 1322 3463 1633 3523 
Q 1944 3584 2234 3584 
Q 2853 3584 3176 3315 
Q 3500 3047 3500 2534 
Q 3500 2431 3484 2292 
Q 3469 2153 3438 1997 
z
M 2816 1759 
L 2241 1759 
Q 1534 1759 1195 1570 
Q 856 1381 856 984 
Q 856 709 1029 553 
Q 1203 397 1509 397 
Q 1978 397 2328 733 
Q 2678 1069 2791 1631 
L 2816 1759 
z
" transform="scale(0.015625)"/>
     <path id="DejaVuSans-Oblique-64" d="M 2675 525 
Q 2444 222 2128 65 
Q 1813 -91 1428 -91 
Q 903 -91 598 267 
Q 294 625 294 1247 
Q 294 1766 478 2236 
Q 663 2706 1013 3078 
Q 1244 3325 1534 3454 
Q 1825 3584 2144 3584 
Q 2481 3584 2739 3421 
Q 2997 3259 3138 2956 
L 3513 4863 
L 4091 4863 
L 3144 0 
L 2566 0 
L 2675 525 
z
M 891 1350 
Q 891 897 1095 644 
Q 1300 391 1663 391 
Q 1931 391 2161 520 
Q 2391 650 2566 903 
Q 2750 1166 2856 1509 
Q 2963 1853 2963 2188 
Q 2963 2622 2758 2865 
Q 2553 3109 2194 3109 
Q 1922 3109 1687 2981 
Q 1453 2853 1288 2613 
Q 1106 2353 998 2009 
Q 891 1666 891 1350 
z
" transform="scale(0.015625)"/>
     <path id="DejaVuSans-Oblique-31" d="M 416 531 
L 1447 531 
L 2144 4122 
L 978 3897 
L 1088 4441 
L 2247 4666 
L 2881 4666 
L 2075 531 
L 3103 531 
L 3003 0 
L 313 0 
L 416 531 
z
" transform="scale(0.015625)"/>
     <path id="DejaVuSans-Oblique-2e" d="M 525 794 
L 1184 794 
L 1031 0 
L 372 0 
L 525 794 
z
" transform="scale(0.015625)"/>
     <path id="DejaVuSans-Oblique-4e" d="M 1081 4666 
L 1931 4666 
L 3219 666 
L 4000 4666 
L 4616 4666 
L 3706 0 
L 2853 0 
L 1569 4025 
L 788 0 
L 172 0 
L 1081 4666 
z
" transform="scale(0.015625)"/>
     <path id="DejaVuSans-Oblique-3d" d="M 678 2906 
L 4684 2906 
L 4684 2381 
L 678 2381 
L 678 2906 
z
M 678 1631 
L 4684 1631 
L 4684 1100 
L 678 1100 
L 678 1631 
z
" transform="scale(0.015625)"/>
     <path id="DejaVuSans-Oblique-4a" d="M 1069 4666 
L 1703 4666 
L 856 325 
Q 691 -522 298 -901 
Q -94 -1281 -800 -1281 
L -1050 -1281 
L -947 -750 
L -750 -750 
Q -328 -750 -109 -509 
Q 109 -269 225 325 
L 1069 4666 
z
" transform="scale(0.015625)"/>
     <path id="DejaVuSans-Oblique-6b" d="M 1172 4863 
L 1747 4863 
L 1197 2028 
L 3169 3500 
L 3916 3500 
L 1716 1825 
L 3322 0 
L 2625 0 
L 1131 1709 
L 800 0 
L 225 0 
L 1172 4863 
z
" transform="scale(0.015625)"/>
     <path id="DejaVuSans-Oblique-62" d="M 3169 2138 
Q 3169 2591 2961 2847 
Q 2753 3103 2388 3103 
Q 2122 3103 1889 2973 
Q 1656 2844 1484 2597 
Q 1303 2338 1198 1995 
Q 1094 1653 1094 1313 
Q 1094 881 1298 636 
Q 1503 391 1863 391 
Q 2134 391 2365 517 
Q 2597 644 2772 891 
Q 2950 1147 3059 1487 
Q 3169 1828 3169 2138 
z
M 1381 2969 
Q 1594 3256 1914 3420 
Q 2234 3584 2584 3584 
Q 3122 3584 3439 3221 
Q 3756 2859 3756 2241 
Q 3756 1734 3570 1259 
Q 3384 784 3041 416 
Q 2816 172 2522 40 
Q 2228 -91 1906 -91 
Q 1566 -91 1316 65 
Q 1066 222 909 531 
L 806 0 
L 231 0 
L 1178 4863 
L 1753 4863 
L 1381 2969 
z
" transform="scale(0.015625)"/>
    </defs>
    <use xlink:href="#DejaVuSans-Oblique-54"/>
    <use xlink:href="#DejaVuSans-Oblique-77" x="52.958984"/>
    <use xlink:href="#DejaVuSans-Oblique-69" x="134.746094"/>
    <use xlink:href="#DejaVuSans-Oblique-73" x="162.529297"/>
    <use xlink:href="#DejaVuSans-Oblique-74" x="214.628906"/>
    <use xlink:href="#DejaVuSans-Oblique-20" x="253.837891"/>
    <use xlink:href="#DejaVuSans-Oblique-63" x="285.625"/>
    <use xlink:href="#DejaVuSans-Oblique-6f" x="340.605469"/>
    <use xlink:href="#DejaVuSans-Oblique-65" x="401.787109"/>
    <use xlink:href="#DejaVuSans-Oblique-66" x="463.310547"/>
    <use xlink:href="#DejaVuSans-Oblique-66" x="498.515625"/>
    <use xlink:href="#DejaVuSans-Oblique-69" x="533.720703"/>
    <use xlink:href="#DejaVuSans-Oblique-63" x="561.503906"/>
    <use xlink:href="#DejaVuSans-Oblique-69" x="616.484375"/>
    <use xlink:href="#DejaVuSans-Oblique-65" x="644.267578"/>
    <use xlink:href="#DejaVuSans-Oblique-6e" x="705.791016"/>
    <use xlink:href="#DejaVuSans-Oblique-74" x="769.169922"/>
    <use xlink:href="#DejaVuSans-Oblique-73" x="808.378906"/>
    <use xlink:href="#DejaVuSans-Oblique-20" x="860.478516"/>
    <use xlink:href="#DejaVuSans-Oblique-30" x="892.265625"/>
    <use xlink:href="#DejaVuSans-Oblique-20" x="955.888672"/>
    <use xlink:href="#DejaVuSans-Oblique-61" x="987.675781"/>
    <use xlink:href="#DejaVuSans-Oblique-6e" x="1048.955078"/>
    <use xlink:href="#DejaVuSans-Oblique-64" x="1112.333984"/>
    <use xlink:href="#DejaVuSans-Oblique-20" x="1175.810547"/>
    <use xlink:href="#DejaVuSans-Oblique-31" x="1207.597656"/>
    <use xlink:href="#DejaVuSans-Oblique-2e" x="1271.220703"/>
    <use xlink:href="#DejaVuSans-Oblique-20" x="1303.007812"/>
    <use xlink:href="#DejaVuSans-Oblique-4e" x="1334.794922"/>
    <use xlink:href="#DejaVuSans-Oblique-3d" x="1409.599609"/>
    <use xlink:href="#DejaVuSans-Oblique-31" x="1493.388672"/>
    <use xlink:href="#DejaVuSans-Oblique-30" x="1557.011719"/>
    <use xlink:href="#DejaVuSans-Oblique-20" x="1620.634766"/>
    <use xlink:href="#DejaVuSans-Oblique-4a" x="1652.421875"/>
    <use xlink:href="#DejaVuSans-Oblique-61" x="1681.914062"/>
    <use xlink:href="#DejaVuSans-Oblique-63" x="1743.193359"/>
    <use xlink:href="#DejaVuSans-Oblique-6b" x="1798.173828"/>
    <use xlink:href="#DejaVuSans-Oblique-6b" x="1856.083984"/>
    <use xlink:href="#DejaVuSans-Oblique-6e" x="1913.994141"/>
    <use xlink:href="#DejaVuSans-Oblique-69" x="1977.373047"/>
    <use xlink:href="#DejaVuSans-Oblique-66" x="2005.15625"/>
    <use xlink:href="#DejaVuSans-Oblique-65" x="2040.361328"/>
    <use xlink:href="#DejaVuSans-Oblique-20" x="2101.884766"/>
    <use xlink:href="#DejaVuSans-Oblique-62" x="2133.671875"/>
    <use xlink:href="#DejaVuSans-Oblique-69" x="2197.148438"/>
    <use xlink:href="#DejaVuSans-Oblique-6e" x="2224.931641"/>
    <use xlink:href="#DejaVuSans-Oblique-73" x="2288.310547"/>
   </g>
  </g>
 </g>
 <defs>
  <clipPath id="p8983e9c142">
   <rect x="117" y="86.4" width="725.4" height="554.4"/>
  </clipPath>
 </defs>
</svg>
