<?xml version="1.0" encoding="utf-8" standalone="no"?>
<!DOCTYPE svg PUBLIC "-//W3C//DTD SVG 1.1//EN"
  "http://www.w3.org/Graphics/SVG/1.1/DTD/svg11.dtd">
<svg xmlns:xlink="http://www.w3.org/1999/xlink" width="936pt" height="720pt" viewBox="0 0 936 720" xmlns="http://www.w3.org/2000/svg" version="1.1">
 <metadata>
  <rdf:RDF xmlns:dc="http://purl.org/dc/elements/1.1/" xmlns:cc="http://creativecommons.org/ns#" xmlns:rdf="http://www.w3.org/1999/02/22-rdf-syntax-ns#">
   <cc:Work>
    <dc:type rdf:resource="http://purl.org/dc/dcmitype/StillImage"/>
    <dc:date>2024-02-23T11:37:04.823081</dc:date>
    <dc:format>image/svg+xml</dc:format>
    <dc:creator>
     <cc:Agent>
      <dc:title>Matplotlib v3.8.0, https://matplotlib.org/</dc:title>
     </cc:Agent>
    </dc:creator>
   </cc:Work>
  </rdf:RDF>
 </metadata>
 <defs>
  <style type="text/css">*{stroke-linejoin: round; stroke-linecap: butt}</style>
 </defs>
 <g id="figure_1">
  <g id="patch_1">
   <path d="M 0 720 
L 936 720 
L 936 0 
L 0 0 
z
" style="fill: #ffffff"/>
  </g>
  <g id="axes_1">
   <g id="patch_2">
    <path d="M 117 640.8 
L 842.4 640.8 
L 842.4 86.4 
L 117 86.4 
z
" style="fill: #ffffff"/>
   </g>
   <g id="matplotlib.axis_1">
    <g id="xtick_1">
     <g id="line2d_1">
      <defs>
       <path id="mf3586f9182" d="M 0 0 
L 0 3.5 
" style="stroke: #000000; stroke-width: 0.8"/>
      </defs>
      <g>
       <use xlink:href="#mf3586f9182" x="149.972727" y="640.8" style="stroke: #000000; stroke-width: 0.8"/>
      </g>
     </g>
     <g id="text_1">
      <!-- 10.700 -->
      <g transform="translate(132.477415 655.398438) scale(0.1 -0.1)">
       <defs>
        <path id="DejaVuSans-31" d="M 794 531 
L 1825 531 
L 1825 4091 
L 703 3866 
L 703 4441 
L 1819 4666 
L 2450 4666 
L 2450 531 
L 3481 531 
L 3481 0 
L 794 0 
L 794 531 
z
" transform="scale(0.015625)"/>
        <path id="DejaVuSans-30" d="M 2034 4250 
Q 1547 4250 1301 3770 
Q 1056 3291 1056 2328 
Q 1056 1369 1301 889 
Q 1547 409 2034 409 
Q 2525 409 2770 889 
Q 3016 1369 3016 2328 
Q 3016 3291 2770 3770 
Q 2525 4250 2034 4250 
z
M 2034 4750 
Q 2819 4750 3233 4129 
Q 3647 3509 3647 2328 
Q 3647 1150 3233 529 
Q 2819 -91 2034 -91 
Q 1250 -91 836 529 
Q 422 1150 422 2328 
Q 422 3509 836 4129 
Q 1250 4750 2034 4750 
z
" transform="scale(0.015625)"/>
        <path id="DejaVuSans-2e" d="M 684 794 
L 1344 794 
L 1344 0 
L 684 0 
L 684 794 
z
" transform="scale(0.015625)"/>
        <path id="DejaVuSans-37" d="M 525 4666 
L 3525 4666 
L 3525 4397 
L 1831 0 
L 1172 0 
L 2766 4134 
L 525 4134 
L 525 4666 
z
" transform="scale(0.015625)"/>
       </defs>
       <use xlink:href="#DejaVuSans-31"/>
       <use xlink:href="#DejaVuSans-30" x="63.623047"/>
       <use xlink:href="#DejaVuSans-2e" x="127.246094"/>
       <use xlink:href="#DejaVuSans-37" x="159.033203"/>
       <use xlink:href="#DejaVuSans-30" x="222.65625"/>
       <use xlink:href="#DejaVuSans-30" x="286.279297"/>
      </g>
     </g>
    </g>
    <g id="xtick_2">
     <g id="line2d_2">
      <g>
       <use xlink:href="#mf3586f9182" x="232.404545" y="640.8" style="stroke: #000000; stroke-width: 0.8"/>
      </g>
     </g>
     <g id="text_2">
      <!-- 10.725 -->
      <g transform="translate(214.909233 655.398438) scale(0.1 -0.1)">
       <defs>
        <path id="DejaVuSans-32" d="M 1228 531 
L 3431 531 
L 3431 0 
L 469 0 
L 469 531 
Q 828 903 1448 1529 
Q 2069 2156 2228 2338 
Q 2531 2678 2651 2914 
Q 2772 3150 2772 3378 
Q 2772 3750 2511 3984 
Q 2250 4219 1831 4219 
Q 1534 4219 1204 4116 
Q 875 4013 500 3803 
L 500 4441 
Q 881 4594 1212 4672 
Q 1544 4750 1819 4750 
Q 2544 4750 2975 4387 
Q 3406 4025 3406 3419 
Q 3406 3131 3298 2873 
Q 3191 2616 2906 2266 
Q 2828 2175 2409 1742 
Q 1991 1309 1228 531 
z
" transform="scale(0.015625)"/>
        <path id="DejaVuSans-35" d="M 691 4666 
L 3169 4666 
L 3169 4134 
L 1269 4134 
L 1269 2991 
Q 1406 3038 1543 3061 
Q 1681 3084 1819 3084 
Q 2600 3084 3056 2656 
Q 3513 2228 3513 1497 
Q 3513 744 3044 326 
Q 2575 -91 1722 -91 
Q 1428 -91 1123 -41 
Q 819 9 494 109 
L 494 744 
Q 775 591 1075 516 
Q 1375 441 1709 441 
Q 2250 441 2565 725 
Q 2881 1009 2881 1497 
Q 2881 1984 2565 2268 
Q 2250 2553 1709 2553 
Q 1456 2553 1204 2497 
Q 953 2441 691 2322 
L 691 4666 
z
" transform="scale(0.015625)"/>
       </defs>
       <use xlink:href="#DejaVuSans-31"/>
       <use xlink:href="#DejaVuSans-30" x="63.623047"/>
       <use xlink:href="#DejaVuSans-2e" x="127.246094"/>
       <use xlink:href="#DejaVuSans-37" x="159.033203"/>
       <use xlink:href="#DejaVuSans-32" x="222.65625"/>
       <use xlink:href="#DejaVuSans-35" x="286.279297"/>
      </g>
     </g>
    </g>
    <g id="xtick_3">
     <g id="line2d_3">
      <g>
       <use xlink:href="#mf3586f9182" x="314.836364" y="640.8" style="stroke: #000000; stroke-width: 0.8"/>
      </g>
     </g>
     <g id="text_3">
      <!-- 10.750 -->
      <g transform="translate(297.341051 655.398438) scale(0.1 -0.1)">
       <use xlink:href="#DejaVuSans-31"/>
       <use xlink:href="#DejaVuSans-30" x="63.623047"/>
       <use xlink:href="#DejaVuSans-2e" x="127.246094"/>
       <use xlink:href="#DejaVuSans-37" x="159.033203"/>
       <use xlink:href="#DejaVuSans-35" x="222.65625"/>
       <use xlink:href="#DejaVuSans-30" x="286.279297"/>
      </g>
     </g>
    </g>
    <g id="xtick_4">
     <g id="line2d_4">
      <g>
       <use xlink:href="#mf3586f9182" x="397.268182" y="640.8" style="stroke: #000000; stroke-width: 0.8"/>
      </g>
     </g>
     <g id="text_4">
      <!-- 10.775 -->
      <g transform="translate(379.772869 655.398438) scale(0.1 -0.1)">
       <use xlink:href="#DejaVuSans-31"/>
       <use xlink:href="#DejaVuSans-30" x="63.623047"/>
       <use xlink:href="#DejaVuSans-2e" x="127.246094"/>
       <use xlink:href="#DejaVuSans-37" x="159.033203"/>
       <use xlink:href="#DejaVuSans-37" x="222.65625"/>
       <use xlink:href="#DejaVuSans-35" x="286.279297"/>
      </g>
     </g>
    </g>
    <g id="xtick_5">
     <g id="line2d_5">
      <g>
       <use xlink:href="#mf3586f9182" x="479.7" y="640.8" style="stroke: #000000; stroke-width: 0.8"/>
      </g>
     </g>
     <g id="text_5">
      <!-- 10.800 -->
      <g transform="translate(462.204688 655.398438) scale(0.1 -0.1)">
       <defs>
        <path id="DejaVuSans-38" d="M 2034 2216 
Q 1584 2216 1326 1975 
Q 1069 1734 1069 1313 
Q 1069 891 1326 650 
Q 1584 409 2034 409 
Q 2484 409 2743 651 
Q 3003 894 3003 1313 
Q 3003 1734 2745 1975 
Q 2488 2216 2034 2216 
z
M 1403 2484 
Q 997 2584 770 2862 
Q 544 3141 544 3541 
Q 544 4100 942 4425 
Q 1341 4750 2034 4750 
Q 2731 4750 3128 4425 
Q 3525 4100 3525 3541 
Q 3525 3141 3298 2862 
Q 3072 2584 2669 2484 
Q 3125 2378 3379 2068 
Q 3634 1759 3634 1313 
Q 3634 634 3220 271 
Q 2806 -91 2034 -91 
Q 1263 -91 848 271 
Q 434 634 434 1313 
Q 434 1759 690 2068 
Q 947 2378 1403 2484 
z
M 1172 3481 
Q 1172 3119 1398 2916 
Q 1625 2713 2034 2713 
Q 2441 2713 2670 2916 
Q 2900 3119 2900 3481 
Q 2900 3844 2670 4047 
Q 2441 4250 2034 4250 
Q 1625 4250 1398 4047 
Q 1172 3844 1172 3481 
z
" transform="scale(0.015625)"/>
       </defs>
       <use xlink:href="#DejaVuSans-31"/>
       <use xlink:href="#DejaVuSans-30" x="63.623047"/>
       <use xlink:href="#DejaVuSans-2e" x="127.246094"/>
       <use xlink:href="#DejaVuSans-38" x="159.033203"/>
       <use xlink:href="#DejaVuSans-30" x="222.65625"/>
       <use xlink:href="#DejaVuSans-30" x="286.279297"/>
      </g>
     </g>
    </g>
    <g id="xtick_6">
     <g id="line2d_6">
      <g>
       <use xlink:href="#mf3586f9182" x="562.131818" y="640.8" style="stroke: #000000; stroke-width: 0.8"/>
      </g>
     </g>
     <g id="text_6">
      <!-- 10.825 -->
      <g transform="translate(544.636506 655.398438) scale(0.1 -0.1)">
       <use xlink:href="#DejaVuSans-31"/>
       <use xlink:href="#DejaVuSans-30" x="63.623047"/>
       <use xlink:href="#DejaVuSans-2e" x="127.246094"/>
       <use xlink:href="#DejaVuSans-38" x="159.033203"/>
       <use xlink:href="#DejaVuSans-32" x="222.65625"/>
       <use xlink:href="#DejaVuSans-35" x="286.279297"/>
      </g>
     </g>
    </g>
    <g id="xtick_7">
     <g id="line2d_7">
      <g>
       <use xlink:href="#mf3586f9182" x="644.563636" y="640.8" style="stroke: #000000; stroke-width: 0.8"/>
      </g>
     </g>
     <g id="text_7">
      <!-- 10.850 -->
      <g transform="translate(627.068324 655.398438) scale(0.1 -0.1)">
       <use xlink:href="#DejaVuSans-31"/>
       <use xlink:href="#DejaVuSans-30" x="63.623047"/>
       <use xlink:href="#DejaVuSans-2e" x="127.246094"/>
       <use xlink:href="#DejaVuSans-38" x="159.033203"/>
       <use xlink:href="#DejaVuSans-35" x="222.65625"/>
       <use xlink:href="#DejaVuSans-30" x="286.279297"/>
      </g>
     </g>
    </g>
    <g id="xtick_8">
     <g id="line2d_8">
      <g>
       <use xlink:href="#mf3586f9182" x="726.995455" y="640.8" style="stroke: #000000; stroke-width: 0.8"/>
      </g>
     </g>
     <g id="text_8">
      <!-- 10.875 -->
      <g transform="translate(709.500142 655.398438) scale(0.1 -0.1)">
       <use xlink:href="#DejaVuSans-31"/>
       <use xlink:href="#DejaVuSans-30" x="63.623047"/>
       <use xlink:href="#DejaVuSans-2e" x="127.246094"/>
       <use xlink:href="#DejaVuSans-38" x="159.033203"/>
       <use xlink:href="#DejaVuSans-37" x="222.65625"/>
       <use xlink:href="#DejaVuSans-35" x="286.279297"/>
      </g>
     </g>
    </g>
    <g id="xtick_9">
     <g id="line2d_9">
      <g>
       <use xlink:href="#mf3586f9182" x="809.427273" y="640.8" style="stroke: #000000; stroke-width: 0.8"/>
      </g>
     </g>
     <g id="text_9">
      <!-- 10.900 -->
      <g transform="translate(791.93196 655.398438) scale(0.1 -0.1)">
       <defs>
        <path id="DejaVuSans-39" d="M 703 97 
L 703 672 
Q 941 559 1184 500 
Q 1428 441 1663 441 
Q 2288 441 2617 861 
Q 2947 1281 2994 2138 
Q 2813 1869 2534 1725 
Q 2256 1581 1919 1581 
Q 1219 1581 811 2004 
Q 403 2428 403 3163 
Q 403 3881 828 4315 
Q 1253 4750 1959 4750 
Q 2769 4750 3195 4129 
Q 3622 3509 3622 2328 
Q 3622 1225 3098 567 
Q 2575 -91 1691 -91 
Q 1453 -91 1209 -44 
Q 966 3 703 97 
z
M 1959 2075 
Q 2384 2075 2632 2365 
Q 2881 2656 2881 3163 
Q 2881 3666 2632 3958 
Q 2384 4250 1959 4250 
Q 1534 4250 1286 3958 
Q 1038 3666 1038 3163 
Q 1038 2656 1286 2365 
Q 1534 2075 1959 2075 
z
" transform="scale(0.015625)"/>
       </defs>
       <use xlink:href="#DejaVuSans-31"/>
       <use xlink:href="#DejaVuSans-30" x="63.623047"/>
       <use xlink:href="#DejaVuSans-2e" x="127.246094"/>
       <use xlink:href="#DejaVuSans-39" x="159.033203"/>
       <use xlink:href="#DejaVuSans-30" x="222.65625"/>
       <use xlink:href="#DejaVuSans-30" x="286.279297"/>
      </g>
     </g>
    </g>
    <g id="text_10">
     <!-- $\beta$ -->
     <g transform="translate(476.5 669.178125) scale(0.1 -0.1)">
      <defs>
       <path id="DejaVuSans-Oblique-3b2" d="M 872 216 
L 572 -1331 
L -6 -1331 
L 928 3478 
Q 1206 4903 2538 4903 
Q 3888 4903 3659 3700 
Q 3503 2844 2894 2531 
Q 3713 2250 3553 1416 
Q 3272 -69 1759 -66 
Q 1097 -63 872 216 
z
M 1019 966 
Q 1259 422 1875 425 
Q 2775 425 2966 1406 
Q 3138 2288 1675 2219 
L 1778 2750 
Q 2909 2731 3106 3750 
Q 3241 4438 2509 4434 
Q 1691 4434 1503 3459 
L 1019 966 
z
" transform="scale(0.015625)"/>
      </defs>
      <use xlink:href="#DejaVuSans-Oblique-3b2" transform="translate(0 0.390625)"/>
     </g>
    </g>
   </g>
   <g id="matplotlib.axis_2">
    <g id="ytick_1">
     <g id="line2d_10">
      <defs>
       <path id="mb85c6221bb" d="M 0 0 
L -3.5 0 
" style="stroke: #000000; stroke-width: 0.8"/>
      </defs>
      <g>
       <use xlink:href="#mb85c6221bb" x="117" y="592.179042" style="stroke: #000000; stroke-width: 0.8"/>
      </g>
     </g>
     <g id="text_11">
      <!-- 0.4300 -->
      <g transform="translate(75.009375 595.978261) scale(0.1 -0.1)">
       <defs>
        <path id="DejaVuSans-34" d="M 2419 4116 
L 825 1625 
L 2419 1625 
L 2419 4116 
z
M 2253 4666 
L 3047 4666 
L 3047 1625 
L 3713 1625 
L 3713 1100 
L 3047 1100 
L 3047 0 
L 2419 0 
L 2419 1100 
L 313 1100 
L 313 1709 
L 2253 4666 
z
" transform="scale(0.015625)"/>
        <path id="DejaVuSans-33" d="M 2597 2516 
Q 3050 2419 3304 2112 
Q 3559 1806 3559 1356 
Q 3559 666 3084 287 
Q 2609 -91 1734 -91 
Q 1441 -91 1130 -33 
Q 819 25 488 141 
L 488 750 
Q 750 597 1062 519 
Q 1375 441 1716 441 
Q 2309 441 2620 675 
Q 2931 909 2931 1356 
Q 2931 1769 2642 2001 
Q 2353 2234 1838 2234 
L 1294 2234 
L 1294 2753 
L 1863 2753 
Q 2328 2753 2575 2939 
Q 2822 3125 2822 3475 
Q 2822 3834 2567 4026 
Q 2313 4219 1838 4219 
Q 1578 4219 1281 4162 
Q 984 4106 628 3988 
L 628 4550 
Q 988 4650 1302 4700 
Q 1616 4750 1894 4750 
Q 2613 4750 3031 4423 
Q 3450 4097 3450 3541 
Q 3450 3153 3228 2886 
Q 3006 2619 2597 2516 
z
" transform="scale(0.015625)"/>
       </defs>
       <use xlink:href="#DejaVuSans-30"/>
       <use xlink:href="#DejaVuSans-2e" x="63.623047"/>
       <use xlink:href="#DejaVuSans-34" x="95.410156"/>
       <use xlink:href="#DejaVuSans-33" x="159.033203"/>
       <use xlink:href="#DejaVuSans-30" x="222.65625"/>
       <use xlink:href="#DejaVuSans-30" x="286.279297"/>
      </g>
     </g>
    </g>
    <g id="ytick_2">
     <g id="line2d_11">
      <g>
       <use xlink:href="#mb85c6221bb" x="117" y="516.679989" style="stroke: #000000; stroke-width: 0.8"/>
      </g>
     </g>
     <g id="text_12">
      <!-- 0.4325 -->
      <g transform="translate(75.009375 520.479207) scale(0.1 -0.1)">
       <use xlink:href="#DejaVuSans-30"/>
       <use xlink:href="#DejaVuSans-2e" x="63.623047"/>
       <use xlink:href="#DejaVuSans-34" x="95.410156"/>
       <use xlink:href="#DejaVuSans-33" x="159.033203"/>
       <use xlink:href="#DejaVuSans-32" x="222.65625"/>
       <use xlink:href="#DejaVuSans-35" x="286.279297"/>
      </g>
     </g>
    </g>
    <g id="ytick_3">
     <g id="line2d_12">
      <g>
       <use xlink:href="#mb85c6221bb" x="117" y="441.180935" style="stroke: #000000; stroke-width: 0.8"/>
      </g>
     </g>
     <g id="text_13">
      <!-- 0.4350 -->
      <g transform="translate(75.009375 444.980154) scale(0.1 -0.1)">
       <use xlink:href="#DejaVuSans-30"/>
       <use xlink:href="#DejaVuSans-2e" x="63.623047"/>
       <use xlink:href="#DejaVuSans-34" x="95.410156"/>
       <use xlink:href="#DejaVuSans-33" x="159.033203"/>
       <use xlink:href="#DejaVuSans-35" x="222.65625"/>
       <use xlink:href="#DejaVuSans-30" x="286.279297"/>
      </g>
     </g>
    </g>
    <g id="ytick_4">
     <g id="line2d_13">
      <g>
       <use xlink:href="#mb85c6221bb" x="117" y="365.681881" style="stroke: #000000; stroke-width: 0.8"/>
      </g>
     </g>
     <g id="text_14">
      <!-- 0.4375 -->
      <g transform="translate(75.009375 369.4811) scale(0.1 -0.1)">
       <use xlink:href="#DejaVuSans-30"/>
       <use xlink:href="#DejaVuSans-2e" x="63.623047"/>
       <use xlink:href="#DejaVuSans-34" x="95.410156"/>
       <use xlink:href="#DejaVuSans-33" x="159.033203"/>
       <use xlink:href="#DejaVuSans-37" x="222.65625"/>
       <use xlink:href="#DejaVuSans-35" x="286.279297"/>
      </g>
     </g>
    </g>
    <g id="ytick_5">
     <g id="line2d_14">
      <g>
       <use xlink:href="#mb85c6221bb" x="117" y="290.182827" style="stroke: #000000; stroke-width: 0.8"/>
      </g>
     </g>
     <g id="text_15">
      <!-- 0.4400 -->
      <g transform="translate(75.009375 293.982046) scale(0.1 -0.1)">
       <use xlink:href="#DejaVuSans-30"/>
       <use xlink:href="#DejaVuSans-2e" x="63.623047"/>
       <use xlink:href="#DejaVuSans-34" x="95.410156"/>
       <use xlink:href="#DejaVuSans-34" x="159.033203"/>
       <use xlink:href="#DejaVuSans-30" x="222.65625"/>
       <use xlink:href="#DejaVuSans-30" x="286.279297"/>
      </g>
     </g>
    </g>
    <g id="ytick_6">
     <g id="line2d_15">
      <g>
       <use xlink:href="#mb85c6221bb" x="117" y="214.683774" style="stroke: #000000; stroke-width: 0.8"/>
      </g>
     </g>
     <g id="text_16">
      <!-- 0.4425 -->
      <g transform="translate(75.009375 218.482992) scale(0.1 -0.1)">
       <use xlink:href="#DejaVuSans-30"/>
       <use xlink:href="#DejaVuSans-2e" x="63.623047"/>
       <use xlink:href="#DejaVuSans-34" x="95.410156"/>
       <use xlink:href="#DejaVuSans-34" x="159.033203"/>
       <use xlink:href="#DejaVuSans-32" x="222.65625"/>
       <use xlink:href="#DejaVuSans-35" x="286.279297"/>
      </g>
     </g>
    </g>
    <g id="ytick_7">
     <g id="line2d_16">
      <g>
       <use xlink:href="#mb85c6221bb" x="117" y="139.18472" style="stroke: #000000; stroke-width: 0.8"/>
      </g>
     </g>
     <g id="text_17">
      <!-- 0.4450 -->
      <g transform="translate(75.009375 142.983939) scale(0.1 -0.1)">
       <use xlink:href="#DejaVuSans-30"/>
       <use xlink:href="#DejaVuSans-2e" x="63.623047"/>
       <use xlink:href="#DejaVuSans-34" x="95.410156"/>
       <use xlink:href="#DejaVuSans-34" x="159.033203"/>
       <use xlink:href="#DejaVuSans-35" x="222.65625"/>
       <use xlink:href="#DejaVuSans-30" x="286.279297"/>
      </g>
     </g>
    </g>
    <g id="text_18">
     <!-- $\langle$ S $\rangle$ -->
     <g transform="translate(68.929688 373.9) rotate(-90) scale(0.1 -0.1)">
      <defs>
       <path id="DejaVuSans-27e8" d="M 572 2006 
L 1453 4856 
L 1984 4856 
L 1103 2006 
L 1984 -844 
L 1453 -844 
L 572 2006 
z
" transform="scale(0.015625)"/>
       <path id="DejaVuSans-20" transform="scale(0.015625)"/>
       <path id="DejaVuSans-53" d="M 3425 4513 
L 3425 3897 
Q 3066 4069 2747 4153 
Q 2428 4238 2131 4238 
Q 1616 4238 1336 4038 
Q 1056 3838 1056 3469 
Q 1056 3159 1242 3001 
Q 1428 2844 1947 2747 
L 2328 2669 
Q 3034 2534 3370 2195 
Q 3706 1856 3706 1288 
Q 3706 609 3251 259 
Q 2797 -91 1919 -91 
Q 1588 -91 1214 -16 
Q 841 59 441 206 
L 441 856 
Q 825 641 1194 531 
Q 1563 422 1919 422 
Q 2459 422 2753 634 
Q 3047 847 3047 1241 
Q 3047 1584 2836 1778 
Q 2625 1972 2144 2069 
L 1759 2144 
Q 1053 2284 737 2584 
Q 422 2884 422 3419 
Q 422 4038 858 4394 
Q 1294 4750 2059 4750 
Q 2388 4750 2728 4690 
Q 3069 4631 3425 4513 
z
" transform="scale(0.015625)"/>
       <path id="DejaVuSans-27e9" d="M 1925 2006 
L 1044 -844 
L 513 -844 
L 1394 2006 
L 513 4856 
L 1044 4856 
L 1925 2006 
z
" transform="scale(0.015625)"/>
      </defs>
      <use xlink:href="#DejaVuSans-27e8" transform="translate(0 0.125)"/>
      <use xlink:href="#DejaVuSans-20" transform="translate(39.013672 0.125)"/>
      <use xlink:href="#DejaVuSans-53" transform="translate(70.800781 0.125)"/>
      <use xlink:href="#DejaVuSans-20" transform="translate(134.277344 0.125)"/>
      <use xlink:href="#DejaVuSans-27e9" transform="translate(166.064453 0.125)"/>
     </g>
    </g>
   </g>
   <g id="line2d_17">
    <path d="M 149.972727 111.62976 
L 186.242727 142.062661 
L 222.512727 171.561075 
L 281.863636 219.200652 
L 308.241818 240.059669 
L 324.728182 252.782087 
L 347.809091 270.403017 
L 417.051818 323.031399 
L 426.943636 330.318443 
L 430.240909 333.01424 
L 433.538182 336.542914 
L 436.835455 342.154212 
L 443.43 358.33754 
L 446.727273 363.666965 
L 450.024545 367.239534 
L 453.321818 370.141465 
L 459.916364 375.412116 
L 473.105455 385.515717 
L 489.591818 397.911597 
L 509.375455 412.488713 
L 552.24 443.402552 
L 581.915455 464.307912 
L 604.996364 480.159652 
L 631.374545 498.113343 
L 687.428182 535.932012 
L 723.698182 560.038646 
L 740.184545 570.848727 
L 786.346364 600.659541 
L 809.427273 615.580069 
L 809.427273 615.580069 
" clip-path="url(#p59ef6902be)" style="fill: none; stroke: #1f77b4; stroke-width: 1.5; stroke-linecap: square"/>
   </g>
   <g id="line2d_18">
    <path d="M 149.972727 111.635765 
L 186.242727 142.06933 
L 215.918182 166.298415 
L 281.863636 219.216427 
L 304.944545 237.440332 
L 321.430909 250.199265 
L 347.809091 270.404266 
L 410.457273 318.098348 
L 420.349091 325.552551 
L 423.646364 328.180276 
L 426.943636 331.226743 
L 430.240909 335.372661 
L 433.538182 341.597006 
L 436.835455 349.488453 
L 440.132727 356.392279 
L 443.43 361.14172 
L 446.727273 364.571266 
L 450.024545 367.471374 
L 456.619091 372.819569 
L 466.510909 380.510035 
L 482.997273 393.020685 
L 499.483636 405.234123 
L 522.564545 421.99248 
L 542.348182 436.306936 
L 565.429091 452.744967 
L 585.212727 466.571248 
L 614.888182 486.917648 
L 661.05 518.236675 
L 687.428182 535.944451 
L 733.59 566.548025 
L 753.373636 579.372327 
L 809.427273 615.6 
L 809.427273 615.6 
" clip-path="url(#p59ef6902be)" style="fill: none; stroke: #ff7f0e; stroke-width: 1.5; stroke-linecap: square"/>
   </g>
   <g id="line2d_19">
    <path d="M 149.972727 111.648131 
L 182.945455 139.361056 
L 206.026364 158.192358 
L 235.701818 182.208688 
L 258.782727 200.842898 
L 304.944545 237.46997 
L 318.133636 247.727922 
L 354.403636 275.43573 
L 393.970909 305.584994 
L 423.646364 328.144622 
L 426.943636 331.212898 
L 430.240909 335.365075 
L 433.538182 341.538094 
L 436.835455 349.323616 
L 440.132727 356.174999 
L 443.43 360.947768 
L 446.727273 364.428134 
L 450.024545 367.380303 
L 456.619091 372.797953 
L 466.510909 380.496509 
L 486.294545 395.467125 
L 506.078182 410.059005 
L 545.645455 438.659886 
L 575.320909 459.699386 
L 591.807273 471.126559 
L 628.077273 495.880228 
L 677.536364 529.29084 
L 707.211818 549.078462 
L 743.481818 573.011997 
L 809.427273 615.590326 
L 809.427273 615.590326 
" clip-path="url(#p59ef6902be)" style="fill: none; stroke: #2ca02c; stroke-width: 1.5; stroke-linecap: square"/>
   </g>
   <g id="line2d_20">
    <path d="M 149.972727 111.622807 
L 182.945455 139.36519 
L 219.215455 168.881289 
L 275.269091 214.014275 
L 295.052727 229.652723 
L 318.133636 247.726834 
L 344.511818 267.899699 
L 420.349091 325.499856 
L 423.646364 328.155648 
L 426.943636 331.228823 
L 430.240909 335.399983 
L 433.538182 341.659572 
L 436.835455 349.578737 
L 440.132727 356.466671 
L 443.43 361.187359 
L 446.727273 364.605987 
L 450.024545 367.510494 
L 456.619091 372.865993 
L 466.510909 380.517535 
L 486.294545 395.434335 
L 506.078182 410.042263 
L 539.050909 433.998707 
L 565.429091 452.712205 
L 588.51 468.841905 
L 614.888182 486.921075 
L 661.05 518.253395 
L 700.617273 544.723417 
L 750.076364 577.243879 
L 796.238182 607.041502 
L 809.427273 615.585649 
L 809.427273 615.585649 
" clip-path="url(#p59ef6902be)" style="fill: none; stroke: #d62728; stroke-width: 1.5; stroke-linecap: square"/>
   </g>
   <g id="line2d_21">
    <path d="M 149.972727 111.631155 
L 186.242727 142.058527 
L 229.107273 176.922753 
L 265.377273 206.081148 
L 308.241818 240.066111 
L 324.728182 252.814821 
L 347.809091 270.408957 
L 410.457273 318.012385 
L 420.349091 325.466811 
L 423.646364 328.11755 
L 426.943636 331.199749 
L 430.240909 335.413437 
L 433.538182 341.757742 
L 436.835455 349.728744 
L 440.132727 356.581215 
L 443.43 361.257039 
L 446.727273 364.658849 
L 450.024545 367.562343 
L 456.619091 372.916797 
L 466.510909 380.547169 
L 489.591818 397.91422 
L 509.375455 412.44839 
L 552.24 443.395401 
L 581.915455 464.297387 
L 604.996364 480.171367 
L 634.671818 500.360426 
L 670.941818 524.881664 
L 700.617273 544.711587 
L 746.779091 575.117561 
L 809.427273 615.594455 
L 809.427273 615.594455 
" clip-path="url(#p59ef6902be)" style="fill: none; stroke: #9467bd; stroke-width: 1.5; stroke-linecap: square"/>
   </g>
   <g id="line2d_22">
    <path d="M 149.972727 111.669103 
L 186.242727 142.038827 
L 225.81 174.245258 
L 285.160909 221.842692 
L 318.133636 247.690943 
L 344.511818 267.85061 
L 413.754545 320.620499 
L 420.349091 325.573996 
L 423.646364 328.186667 
L 426.943636 331.222595 
L 430.240909 335.359826 
L 433.538182 341.566896 
L 436.835455 349.44517 
L 440.132727 356.364983 
L 443.43 361.141999 
L 446.727273 364.593006 
L 450.024545 367.505378 
L 456.619091 372.851932 
L 466.510909 380.525393 
L 482.997273 393.038511 
L 499.483636 405.220365 
L 522.564545 422.004481 
L 542.348182 436.307896 
L 575.320909 459.719157 
L 591.807273 471.135802 
L 634.671818 500.358365 
L 674.239091 527.100594 
L 717.103636 555.633884 
L 740.184545 570.859532 
L 783.049091 598.540293 
L 809.427273 615.577574 
L 809.427273 615.577574 
" clip-path="url(#p59ef6902be)" style="fill: none; stroke: #8c564b; stroke-width: 1.5; stroke-linecap: square"/>
   </g>
   <g id="line2d_23">
    <path d="M 149.972727 111.632799 
L 186.242727 142.077999 
L 229.107273 176.879903 
L 278.566364 216.61164 
L 304.944545 237.521965 
L 318.133636 247.748087 
L 384.079091 298.109076 
L 420.349091 325.557034 
L 423.646364 328.173403 
L 426.943636 331.205041 
L 430.240909 335.324626 
L 433.538182 341.4846 
L 436.835455 349.298015 
L 440.132727 356.202738 
L 443.43 361.017129 
L 446.727273 364.516161 
L 450.024545 367.465867 
L 456.619091 372.843329 
L 466.510909 380.50348 
L 486.294545 395.481764 
L 506.078182 410.059274 
L 542.348182 436.358127 
L 572.023636 457.382613 
L 588.51 468.848858 
L 624.78 493.657967 
L 677.536364 529.324876 
L 700.617273 544.714469 
L 750.076364 577.2674 
L 809.427273 615.582084 
L 809.427273 615.582084 
" clip-path="url(#p59ef6902be)" style="fill: none; stroke: #e377c2; stroke-width: 1.5; stroke-linecap: square"/>
   </g>
   <g id="line2d_24">
    <path d="M 149.972727 111.669108 
L 179.648182 136.65933 
L 202.729091 155.544521 
L 235.701818 182.286942 
L 255.485455 198.243445 
L 288.458182 224.456184 
L 314.836364 245.173324 
L 344.511818 267.872541 
L 417.051818 323.046158 
L 423.646364 328.191124 
L 426.943636 331.240134 
L 430.240909 335.367192 
L 433.538182 341.528986 
L 436.835455 349.342587 
L 440.132727 356.229773 
L 443.43 361.009295 
L 446.727273 364.475806 
L 450.024545 367.407409 
L 456.619091 372.788887 
L 466.510909 380.482834 
L 482.997273 393.032791 
L 499.483636 405.227906 
L 515.97 417.238395 
L 555.537273 445.708056 
L 581.915455 464.286607 
L 601.699091 477.903478 
L 637.969091 502.603297 
L 684.130909 533.736788 
L 710.509091 551.259658 
L 736.887273 568.706573 
L 783.049091 598.54964 
L 809.427273 615.583953 
L 809.427273 615.583953 
" clip-path="url(#p59ef6902be)" style="fill: none; stroke: #7f7f7f; stroke-width: 1.5; stroke-linecap: square"/>
   </g>
   <g id="line2d_25">
    <path d="M 149.972727 111.652318 
L 189.54 144.778676 
L 225.81 174.216909 
L 245.593636 190.247181 
L 262.08 203.482233 
L 308.241818 240.076786 
L 321.430909 250.277601 
L 374.187273 290.582445 
L 423.646364 328.231106 
L 426.943636 331.244641 
L 430.240909 335.356004 
L 433.538182 341.515407 
L 436.835455 349.311459 
L 440.132727 356.170062 
L 443.43 360.938644 
L 446.727273 364.411495 
L 450.024545 367.35717 
L 456.619091 372.771274 
L 466.510909 380.486174 
L 482.997273 393.001186 
L 499.483636 405.224338 
L 519.267273 419.628041 
L 548.942727 441.019159 
L 575.320909 459.691848 
L 591.807273 471.109052 
L 628.077273 495.869703 
L 674.239091 527.104169 
L 710.509091 551.251209 
L 743.481818 572.974338 
L 809.427273 615.599435 
L 809.427273 615.599435 
" clip-path="url(#p59ef6902be)" style="fill: none; stroke: #bcbd22; stroke-width: 1.5; stroke-linecap: square"/>
   </g>
   <g id="line2d_26">
    <path d="M 149.972727 111.659911 
L 186.242727 142.091596 
L 222.512727 171.60706 
L 278.566364 216.602563 
L 308.241818 240.071899 
L 328.025455 255.300068 
L 387.376364 300.615547 
L 417.051818 323.095346 
L 423.646364 328.21516 
L 426.943636 331.248597 
L 430.240909 335.387496 
L 433.538182 341.622201 
L 436.835455 349.514304 
L 440.132727 356.383409 
L 443.43 361.101539 
L 446.727273 364.524864 
L 450.024545 367.434673 
L 456.619091 372.801595 
L 466.510909 380.491418 
L 482.997273 393.007756 
L 499.483636 405.195812 
L 519.267273 419.589383 
L 545.645455 438.685927 
L 575.320909 459.691162 
L 591.807273 471.141001 
L 628.077273 495.899505 
L 687.428182 535.959472 
L 707.211818 549.088581 
L 743.481818 573.008718 
L 809.427273 615.599005 
L 809.427273 615.599005 
" clip-path="url(#p59ef6902be)" style="fill: none; stroke: #17becf; stroke-width: 1.5; stroke-linecap: square"/>
   </g>
   <g id="line2d_27">
    <path d="M 149.972727 111.631209 
L 173.053636 131.036377 
L 189.54 144.696724 
L 222.512727 171.534207 
L 252.188182 195.496098 
L 281.863636 219.194411 
L 298.35 232.206483 
L 311.539091 242.653489 
L 331.322727 257.91827 
L 377.484545 293.094972 
L 420.349091 325.377977 
L 473.105455 364.789593 
L 476.402727 367.573246 
L 479.7 370.782393 
L 482.997273 374.70073 
L 486.294545 379.441156 
L 489.591818 384.580341 
L 492.889091 389.352438 
L 496.186364 393.363755 
L 499.483636 396.723866 
L 502.780909 399.683077 
L 509.375455 405.059585 
L 519.267273 412.697618 
L 535.753636 425.060317 
L 558.834545 442.048868 
L 581.915455 458.624331 
L 604.996364 474.895669 
L 624.78 488.663664 
L 670.941818 520.348537 
L 720.400909 553.657302 
L 759.968182 579.712701 
L 809.427273 611.903377 
L 809.427273 611.903377 
" clip-path="url(#p59ef6902be)" style="fill: none; stroke: #1f77b4; stroke-width: 1.5; stroke-linecap: square"/>
   </g>
   <g id="line2d_28">
    <path d="M 149.972727 111.627004 
L 173.053636 131.062557 
L 189.54 144.682304 
L 238.999091 184.897306 
L 278.566364 216.619216 
L 304.944545 237.446043 
L 318.133636 247.766041 
L 337.917273 262.900297 
L 357.700909 277.993683 
L 380.781818 295.564975 
L 436.835455 337.633226 
L 459.916364 354.822143 
L 469.808182 362.200831 
L 473.105455 364.840557 
L 476.402727 367.771632 
L 479.7 371.238791 
L 482.997273 375.474468 
L 489.591818 385.365757 
L 492.889091 389.785996 
L 496.186364 393.495865 
L 499.483636 396.68214 
L 502.780909 399.561474 
L 509.375455 404.922118 
L 519.267273 412.663432 
L 532.456364 422.630014 
L 555.537273 439.693223 
L 578.618182 456.289628 
L 595.104545 467.958468 
L 624.78 488.648606 
L 667.644545 518.112151 
L 717.103636 551.436966 
L 753.373636 575.428677 
L 776.454545 590.429802 
L 809.427273 611.883182 
L 809.427273 611.883182 
" clip-path="url(#p59ef6902be)" style="fill: none; stroke: #ff7f0e; stroke-width: 1.5; stroke-linecap: square"/>
   </g>
   <g id="line2d_29">
    <path d="M 149.972727 111.65781 
L 166.459091 125.510066 
L 186.242727 141.97999 
L 222.512727 171.539285 
L 248.890909 192.821338 
L 278.566364 216.581786 
L 324.728182 252.849215 
L 344.511818 267.91979 
L 413.754545 320.385327 
L 433.538182 335.180232 
L 469.808182 362.211186 
L 473.105455 364.830699 
L 476.402727 367.718088 
L 479.7 371.11392 
L 482.997273 375.273914 
L 489.591818 385.211763 
L 492.889091 389.730764 
L 496.186364 393.509172 
L 499.483636 396.722196 
L 502.780909 399.601407 
L 509.375455 404.935694 
L 522.564545 415.180969 
L 535.753636 425.103602 
L 555.537273 439.707843 
L 575.320909 453.921012 
L 598.401818 470.281746 
L 621.482727 486.404293 
L 657.752727 511.370544 
L 694.022727 535.938898 
L 720.400909 553.664565 
L 753.373636 575.433422 
L 779.751818 592.589021 
L 809.427273 611.889396 
L 809.427273 611.889396 
" clip-path="url(#p59ef6902be)" style="fill: none; stroke: #2ca02c; stroke-width: 1.5; stroke-linecap: square"/>
   </g>
   <g id="line2d_30">
    <path d="M 149.972727 111.642526 
L 169.756364 128.307908 
L 186.242727 141.989642 
L 209.323636 160.792362 
L 242.296364 187.525622 
L 268.674545 208.714884 
L 288.458182 224.328908 
L 324.728182 252.854315 
L 341.214545 265.409836 
L 360.998182 280.537545 
L 384.079091 298.072305 
L 453.321818 349.980892 
L 469.808182 362.220036 
L 473.105455 364.835009 
L 476.402727 367.714959 
L 479.7 371.101766 
L 482.997273 375.256869 
L 492.889091 389.778948 
L 496.186364 393.588325 
L 499.483636 396.822771 
L 502.780909 399.706114 
L 509.375455 404.997644 
L 522.564545 415.162996 
L 535.753636 425.059842 
L 555.537273 439.626105 
L 581.915455 458.660625 
L 598.401818 470.283477 
L 624.78 488.66963 
L 664.347273 515.838401 
L 723.698182 555.83976 
L 759.968182 579.735406 
L 809.427273 611.906446 
L 809.427273 611.906446 
" clip-path="url(#p59ef6902be)" style="fill: none; stroke: #d62728; stroke-width: 1.5; stroke-linecap: square"/>
   </g>
   <g id="line2d_31">
    <path d="M 149.972727 111.613022 
L 166.459091 125.509629 
L 186.242727 141.956725 
L 219.215455 168.874119 
L 245.593636 190.177187 
L 271.971818 211.353465 
L 311.539091 242.595363 
L 331.322727 257.906578 
L 377.484545 293.095024 
L 433.538182 335.194938 
L 473.105455 364.866938 
L 476.402727 367.795199 
L 479.7 371.280598 
L 482.997273 375.604927 
L 489.591818 385.786175 
L 492.889091 390.210314 
L 496.186364 393.843287 
L 499.483636 396.946074 
L 506.078182 402.455325 
L 515.97 410.209257 
L 529.159091 420.18315 
L 548.942727 434.836991 
L 565.429091 446.790524 
L 591.807273 465.646531 
L 614.888182 481.819848 
L 661.05 513.638801 
L 700.617273 540.408317 
L 723.698182 555.860025 
L 753.373636 575.404372 
L 809.427273 611.875398 
L 809.427273 611.875398 
" clip-path="url(#p59ef6902be)" style="fill: none; stroke: #9467bd; stroke-width: 1.5; stroke-linecap: square"/>
   </g>
   <g id="line2d_32">
    <path d="M 149.972727 111.604018 
L 173.053636 131.043804 
L 189.54 144.701717 
L 225.81 174.183493 
L 271.971818 211.345961 
L 311.539091 242.610699 
L 331.322727 257.924485 
L 354.403636 275.453701 
L 390.673636 303.004193 
L 430.240909 332.721753 
L 446.727273 345.05375 
L 463.213636 357.28258 
L 469.808182 362.228013 
L 473.105455 364.862703 
L 476.402727 367.819808 
L 479.7 371.432321 
L 482.997273 376.034852 
L 489.591818 386.65045 
L 492.889091 390.942857 
L 496.186364 394.353233 
L 499.483636 397.254236 
L 506.078182 402.524547 
L 519.267273 412.741079 
L 535.753636 425.121131 
L 555.537273 439.685249 
L 581.915455 458.631188 
L 601.699091 472.556789 
L 624.78 488.625521 
L 661.05 513.587641 
L 703.914545 542.618543 
L 726.995455 557.98362 
L 759.968182 579.731138 
L 809.427273 611.872327 
L 809.427273 611.872327 
" clip-path="url(#p59ef6902be)" style="fill: none; stroke: #8c564b; stroke-width: 1.5; stroke-linecap: square"/>
   </g>
   <g id="line2d_33">
    <path d="M 149.972727 111.647502 
L 163.161818 122.772698 
L 189.54 144.676213 
L 225.81 174.219894 
L 258.782727 200.806093 
L 278.566364 216.596207 
L 301.647273 234.803979 
L 314.836364 245.197961 
L 334.62 260.427434 
L 367.592727 285.55755 
L 387.376364 300.530683 
L 433.538182 335.18771 
L 469.808182 362.212659 
L 473.105455 364.816811 
L 476.402727 367.675612 
L 479.7 371.029316 
L 482.997273 375.151072 
L 486.294545 380.040595 
L 489.591818 385.133749 
L 492.889091 389.707612 
L 496.186364 393.522961 
L 499.483636 396.756747 
L 502.780909 399.649328 
L 509.375455 405.00005 
L 519.267273 412.703397 
L 532.456364 422.650989 
L 555.537273 439.693485 
L 575.320909 453.948993 
L 595.104545 467.972522 
L 621.482727 486.381176 
L 667.644545 518.110891 
L 713.806364 549.26001 
L 750.076364 573.265954 
L 799.535455 605.495663 
L 809.427273 611.88482 
L 809.427273 611.88482 
" clip-path="url(#p59ef6902be)" style="fill: none; stroke: #e377c2; stroke-width: 1.5; stroke-linecap: square"/>
   </g>
   <g id="line2d_34">
    <path d="M 149.972727 111.6 
L 173.053636 131.052067 
L 186.242727 141.993361 
L 206.026364 158.101658 
L 248.890909 192.834501 
L 278.566364 216.581866 
L 328.025455 255.391435 
L 351.106364 272.96363 
L 390.673636 303.027896 
L 453.321818 349.984438 
L 469.808182 362.238323 
L 473.105455 364.889386 
L 476.402727 367.835067 
L 479.7 371.323415 
L 482.997273 375.588245 
L 489.591818 385.492223 
L 492.889091 389.871496 
L 496.186364 393.531144 
L 499.483636 396.673324 
L 502.780909 399.519305 
L 509.375455 404.850179 
L 522.564545 415.168271 
L 535.753636 425.113283 
L 552.24 437.302866 
L 568.726364 449.197622 
L 591.807273 465.652533 
L 621.482727 486.38637 
L 667.644545 518.104325 
L 713.806364 549.252997 
L 743.481818 568.949187 
L 763.265455 581.88813 
L 809.427273 611.871911 
L 809.427273 611.871911 
" clip-path="url(#p59ef6902be)" style="fill: none; stroke: #7f7f7f; stroke-width: 1.5; stroke-linecap: square"/>
   </g>
   <g id="line2d_35">
    <path d="M 149.972727 111.651021 
L 166.459091 125.521504 
L 189.54 144.700417 
L 209.323636 160.808425 
L 255.485455 198.126863 
L 285.160909 221.758417 
L 304.944545 237.443855 
L 318.133636 247.74999 
L 341.214545 265.437538 
L 364.295455 283.029579 
L 384.079091 298.057664 
L 426.943636 330.275571 
L 469.808182 362.2527 
L 473.105455 364.893458 
L 476.402727 367.818349 
L 479.7 371.273883 
L 482.997273 375.507405 
L 489.591818 385.454781 
L 492.889091 389.887668 
L 496.186364 393.583552 
L 499.483636 396.743599 
L 502.780909 399.599072 
L 509.375455 404.942798 
L 519.267273 412.686531 
L 532.456364 422.649517 
L 552.24 437.298235 
L 568.726364 449.218323 
L 588.51 463.318663 
L 618.185455 484.098155 
L 661.05 513.603111 
L 694.022727 535.946632 
L 723.698182 555.814332 
L 756.670909 577.551769 
L 802.832727 607.633811 
L 809.427273 611.89947 
L 809.427273 611.89947 
" clip-path="url(#p59ef6902be)" style="fill: none; stroke: #bcbd22; stroke-width: 1.5; stroke-linecap: square"/>
   </g>
   <g id="line2d_36">
    <path d="M 149.972727 111.644185 
L 169.756364 128.314561 
L 186.242727 141.988673 
L 209.323636 160.791287 
L 232.404545 179.502588 
L 281.863636 219.165953 
L 298.35 232.157989 
L 314.836364 245.197364 
L 331.322727 257.92931 
L 390.673636 303.028854 
L 453.321818 349.964472 
L 469.808182 362.197187 
L 473.105455 364.810415 
L 476.402727 367.664574 
L 479.7 370.976373 
L 482.997273 375.006309 
L 486.294545 379.79926 
L 489.591818 384.874775 
L 492.889091 389.512399 
L 496.186364 393.403694 
L 499.483636 396.689631 
L 502.780909 399.615208 
L 509.375455 405.006522 
L 519.267273 412.707636 
L 535.753636 425.105638 
L 555.537273 439.69384 
L 578.618182 456.328161 
L 595.104545 467.993123 
L 621.482727 486.367757 
L 664.347273 515.846825 
L 703.914545 542.618362 
L 726.995455 558.000125 
L 756.670909 577.595331 
L 809.427273 611.89506 
L 809.427273 611.89506 
" clip-path="url(#p59ef6902be)" style="fill: none; stroke: #17becf; stroke-width: 1.5; stroke-linecap: square"/>
   </g>
   <g id="patch_3">
    <path d="M 117 640.8 
L 117 86.4 
" style="fill: none; stroke: #000000; stroke-width: 0.8; stroke-linejoin: miter; stroke-linecap: square"/>
   </g>
   <g id="patch_4">
    <path d="M 842.4 640.8 
L 842.4 86.4 
" style="fill: none; stroke: #000000; stroke-width: 0.8; stroke-linejoin: miter; stroke-linecap: square"/>
   </g>
   <g id="patch_5">
    <path d="M 117 640.8 
L 842.4 640.8 
" style="fill: none; stroke: #000000; stroke-width: 0.8; stroke-linejoin: miter; stroke-linecap: square"/>
   </g>
   <g id="patch_6">
    <path d="M 117 86.4 
L 842.4 86.4 
" style="fill: none; stroke: #000000; stroke-width: 0.8; stroke-linejoin: miter; stroke-linecap: square"/>
   </g>
   <g id="text_19">
    <!-- Wilson action total average with respect to $\beta$ produced with jackknife and FS reweighting -->
    <g transform="translate(211.08 80.4) scale(0.12 -0.12)">
     <defs>
      <path id="DejaVuSans-57" d="M 213 4666 
L 850 4666 
L 1831 722 
L 2809 4666 
L 3519 4666 
L 4500 722 
L 5478 4666 
L 6119 4666 
L 4947 0 
L 4153 0 
L 3169 4050 
L 2175 0 
L 1381 0 
L 213 4666 
z
" transform="scale(0.015625)"/>
      <path id="DejaVuSans-69" d="M 603 3500 
L 1178 3500 
L 1178 0 
L 603 0 
L 603 3500 
z
M 603 4863 
L 1178 4863 
L 1178 4134 
L 603 4134 
L 603 4863 
z
" transform="scale(0.015625)"/>
      <path id="DejaVuSans-6c" d="M 603 4863 
L 1178 4863 
L 1178 0 
L 603 0 
L 603 4863 
z
" transform="scale(0.015625)"/>
      <path id="DejaVuSans-73" d="M 2834 3397 
L 2834 2853 
Q 2591 2978 2328 3040 
Q 2066 3103 1784 3103 
Q 1356 3103 1142 2972 
Q 928 2841 928 2578 
Q 928 2378 1081 2264 
Q 1234 2150 1697 2047 
L 1894 2003 
Q 2506 1872 2764 1633 
Q 3022 1394 3022 966 
Q 3022 478 2636 193 
Q 2250 -91 1575 -91 
Q 1294 -91 989 -36 
Q 684 19 347 128 
L 347 722 
Q 666 556 975 473 
Q 1284 391 1588 391 
Q 1994 391 2212 530 
Q 2431 669 2431 922 
Q 2431 1156 2273 1281 
Q 2116 1406 1581 1522 
L 1381 1569 
Q 847 1681 609 1914 
Q 372 2147 372 2553 
Q 372 3047 722 3315 
Q 1072 3584 1716 3584 
Q 2034 3584 2315 3537 
Q 2597 3491 2834 3397 
z
" transform="scale(0.015625)"/>
      <path id="DejaVuSans-6f" d="M 1959 3097 
Q 1497 3097 1228 2736 
Q 959 2375 959 1747 
Q 959 1119 1226 758 
Q 1494 397 1959 397 
Q 2419 397 2687 759 
Q 2956 1122 2956 1747 
Q 2956 2369 2687 2733 
Q 2419 3097 1959 3097 
z
M 1959 3584 
Q 2709 3584 3137 3096 
Q 3566 2609 3566 1747 
Q 3566 888 3137 398 
Q 2709 -91 1959 -91 
Q 1206 -91 779 398 
Q 353 888 353 1747 
Q 353 2609 779 3096 
Q 1206 3584 1959 3584 
z
" transform="scale(0.015625)"/>
      <path id="DejaVuSans-6e" d="M 3513 2113 
L 3513 0 
L 2938 0 
L 2938 2094 
Q 2938 2591 2744 2837 
Q 2550 3084 2163 3084 
Q 1697 3084 1428 2787 
Q 1159 2491 1159 1978 
L 1159 0 
L 581 0 
L 581 3500 
L 1159 3500 
L 1159 2956 
Q 1366 3272 1645 3428 
Q 1925 3584 2291 3584 
Q 2894 3584 3203 3211 
Q 3513 2838 3513 2113 
z
" transform="scale(0.015625)"/>
      <path id="DejaVuSans-61" d="M 2194 1759 
Q 1497 1759 1228 1600 
Q 959 1441 959 1056 
Q 959 750 1161 570 
Q 1363 391 1709 391 
Q 2188 391 2477 730 
Q 2766 1069 2766 1631 
L 2766 1759 
L 2194 1759 
z
M 3341 1997 
L 3341 0 
L 2766 0 
L 2766 531 
Q 2569 213 2275 61 
Q 1981 -91 1556 -91 
Q 1019 -91 701 211 
Q 384 513 384 1019 
Q 384 1609 779 1909 
Q 1175 2209 1959 2209 
L 2766 2209 
L 2766 2266 
Q 2766 2663 2505 2880 
Q 2244 3097 1772 3097 
Q 1472 3097 1187 3025 
Q 903 2953 641 2809 
L 641 3341 
Q 956 3463 1253 3523 
Q 1550 3584 1831 3584 
Q 2591 3584 2966 3190 
Q 3341 2797 3341 1997 
z
" transform="scale(0.015625)"/>
      <path id="DejaVuSans-63" d="M 3122 3366 
L 3122 2828 
Q 2878 2963 2633 3030 
Q 2388 3097 2138 3097 
Q 1578 3097 1268 2742 
Q 959 2388 959 1747 
Q 959 1106 1268 751 
Q 1578 397 2138 397 
Q 2388 397 2633 464 
Q 2878 531 3122 666 
L 3122 134 
Q 2881 22 2623 -34 
Q 2366 -91 2075 -91 
Q 1284 -91 818 406 
Q 353 903 353 1747 
Q 353 2603 823 3093 
Q 1294 3584 2113 3584 
Q 2378 3584 2631 3529 
Q 2884 3475 3122 3366 
z
" transform="scale(0.015625)"/>
      <path id="DejaVuSans-74" d="M 1172 4494 
L 1172 3500 
L 2356 3500 
L 2356 3053 
L 1172 3053 
L 1172 1153 
Q 1172 725 1289 603 
Q 1406 481 1766 481 
L 2356 481 
L 2356 0 
L 1766 0 
Q 1100 0 847 248 
Q 594 497 594 1153 
L 594 3053 
L 172 3053 
L 172 3500 
L 594 3500 
L 594 4494 
L 1172 4494 
z
" transform="scale(0.015625)"/>
      <path id="DejaVuSans-76" d="M 191 3500 
L 800 3500 
L 1894 563 
L 2988 3500 
L 3597 3500 
L 2284 0 
L 1503 0 
L 191 3500 
z
" transform="scale(0.015625)"/>
      <path id="DejaVuSans-65" d="M 3597 1894 
L 3597 1613 
L 953 1613 
Q 991 1019 1311 708 
Q 1631 397 2203 397 
Q 2534 397 2845 478 
Q 3156 559 3463 722 
L 3463 178 
Q 3153 47 2828 -22 
Q 2503 -91 2169 -91 
Q 1331 -91 842 396 
Q 353 884 353 1716 
Q 353 2575 817 3079 
Q 1281 3584 2069 3584 
Q 2775 3584 3186 3129 
Q 3597 2675 3597 1894 
z
M 3022 2063 
Q 3016 2534 2758 2815 
Q 2500 3097 2075 3097 
Q 1594 3097 1305 2825 
Q 1016 2553 972 2059 
L 3022 2063 
z
" transform="scale(0.015625)"/>
      <path id="DejaVuSans-72" d="M 2631 2963 
Q 2534 3019 2420 3045 
Q 2306 3072 2169 3072 
Q 1681 3072 1420 2755 
Q 1159 2438 1159 1844 
L 1159 0 
L 581 0 
L 581 3500 
L 1159 3500 
L 1159 2956 
Q 1341 3275 1631 3429 
Q 1922 3584 2338 3584 
Q 2397 3584 2469 3576 
Q 2541 3569 2628 3553 
L 2631 2963 
z
" transform="scale(0.015625)"/>
      <path id="DejaVuSans-67" d="M 2906 1791 
Q 2906 2416 2648 2759 
Q 2391 3103 1925 3103 
Q 1463 3103 1205 2759 
Q 947 2416 947 1791 
Q 947 1169 1205 825 
Q 1463 481 1925 481 
Q 2391 481 2648 825 
Q 2906 1169 2906 1791 
z
M 3481 434 
Q 3481 -459 3084 -895 
Q 2688 -1331 1869 -1331 
Q 1566 -1331 1297 -1286 
Q 1028 -1241 775 -1147 
L 775 -588 
Q 1028 -725 1275 -790 
Q 1522 -856 1778 -856 
Q 2344 -856 2625 -561 
Q 2906 -266 2906 331 
L 2906 616 
Q 2728 306 2450 153 
Q 2172 0 1784 0 
Q 1141 0 747 490 
Q 353 981 353 1791 
Q 353 2603 747 3093 
Q 1141 3584 1784 3584 
Q 2172 3584 2450 3431 
Q 2728 3278 2906 2969 
L 2906 3500 
L 3481 3500 
L 3481 434 
z
" transform="scale(0.015625)"/>
      <path id="DejaVuSans-77" d="M 269 3500 
L 844 3500 
L 1563 769 
L 2278 3500 
L 2956 3500 
L 3675 769 
L 4391 3500 
L 4966 3500 
L 4050 0 
L 3372 0 
L 2619 2869 
L 1863 0 
L 1184 0 
L 269 3500 
z
" transform="scale(0.015625)"/>
      <path id="DejaVuSans-68" d="M 3513 2113 
L 3513 0 
L 2938 0 
L 2938 2094 
Q 2938 2591 2744 2837 
Q 2550 3084 2163 3084 
Q 1697 3084 1428 2787 
Q 1159 2491 1159 1978 
L 1159 0 
L 581 0 
L 581 4863 
L 1159 4863 
L 1159 2956 
Q 1366 3272 1645 3428 
Q 1925 3584 2291 3584 
Q 2894 3584 3203 3211 
Q 3513 2838 3513 2113 
z
" transform="scale(0.015625)"/>
      <path id="DejaVuSans-70" d="M 1159 525 
L 1159 -1331 
L 581 -1331 
L 581 3500 
L 1159 3500 
L 1159 2969 
Q 1341 3281 1617 3432 
Q 1894 3584 2278 3584 
Q 2916 3584 3314 3078 
Q 3713 2572 3713 1747 
Q 3713 922 3314 415 
Q 2916 -91 2278 -91 
Q 1894 -91 1617 61 
Q 1341 213 1159 525 
z
M 3116 1747 
Q 3116 2381 2855 2742 
Q 2594 3103 2138 3103 
Q 1681 3103 1420 2742 
Q 1159 2381 1159 1747 
Q 1159 1113 1420 752 
Q 1681 391 2138 391 
Q 2594 391 2855 752 
Q 3116 1113 3116 1747 
z
" transform="scale(0.015625)"/>
      <path id="DejaVuSans-64" d="M 2906 2969 
L 2906 4863 
L 3481 4863 
L 3481 0 
L 2906 0 
L 2906 525 
Q 2725 213 2448 61 
Q 2172 -91 1784 -91 
Q 1150 -91 751 415 
Q 353 922 353 1747 
Q 353 2572 751 3078 
Q 1150 3584 1784 3584 
Q 2172 3584 2448 3432 
Q 2725 3281 2906 2969 
z
M 947 1747 
Q 947 1113 1208 752 
Q 1469 391 1925 391 
Q 2381 391 2643 752 
Q 2906 1113 2906 1747 
Q 2906 2381 2643 2742 
Q 2381 3103 1925 3103 
Q 1469 3103 1208 2742 
Q 947 2381 947 1747 
z
" transform="scale(0.015625)"/>
      <path id="DejaVuSans-75" d="M 544 1381 
L 544 3500 
L 1119 3500 
L 1119 1403 
Q 1119 906 1312 657 
Q 1506 409 1894 409 
Q 2359 409 2629 706 
Q 2900 1003 2900 1516 
L 2900 3500 
L 3475 3500 
L 3475 0 
L 2900 0 
L 2900 538 
Q 2691 219 2414 64 
Q 2138 -91 1772 -91 
Q 1169 -91 856 284 
Q 544 659 544 1381 
z
M 1991 3584 
L 1991 3584 
z
" transform="scale(0.015625)"/>
      <path id="DejaVuSans-6a" d="M 603 3500 
L 1178 3500 
L 1178 -63 
Q 1178 -731 923 -1031 
Q 669 -1331 103 -1331 
L -116 -1331 
L -116 -844 
L 38 -844 
Q 366 -844 484 -692 
Q 603 -541 603 -63 
L 603 3500 
z
M 603 4863 
L 1178 4863 
L 1178 4134 
L 603 4134 
L 603 4863 
z
" transform="scale(0.015625)"/>
      <path id="DejaVuSans-6b" d="M 581 4863 
L 1159 4863 
L 1159 1991 
L 2875 3500 
L 3609 3500 
L 1753 1863 
L 3688 0 
L 2938 0 
L 1159 1709 
L 1159 0 
L 581 0 
L 581 4863 
z
" transform="scale(0.015625)"/>
      <path id="DejaVuSans-66" d="M 2375 4863 
L 2375 4384 
L 1825 4384 
Q 1516 4384 1395 4259 
Q 1275 4134 1275 3809 
L 1275 3500 
L 2222 3500 
L 2222 3053 
L 1275 3053 
L 1275 0 
L 697 0 
L 697 3053 
L 147 3053 
L 147 3500 
L 697 3500 
L 697 3744 
Q 697 4328 969 4595 
Q 1241 4863 1831 4863 
L 2375 4863 
z
" transform="scale(0.015625)"/>
      <path id="DejaVuSans-46" d="M 628 4666 
L 3309 4666 
L 3309 4134 
L 1259 4134 
L 1259 2759 
L 3109 2759 
L 3109 2228 
L 1259 2228 
L 1259 0 
L 628 0 
L 628 4666 
z
" transform="scale(0.015625)"/>
     </defs>
     <use xlink:href="#DejaVuSans-57" transform="translate(0 0.390625)"/>
     <use xlink:href="#DejaVuSans-69" transform="translate(98.876953 0.390625)"/>
     <use xlink:href="#DejaVuSans-6c" transform="translate(126.660156 0.390625)"/>
     <use xlink:href="#DejaVuSans-73" transform="translate(154.443359 0.390625)"/>
     <use xlink:href="#DejaVuSans-6f" transform="translate(206.542969 0.390625)"/>
     <use xlink:href="#DejaVuSans-6e" transform="translate(267.724609 0.390625)"/>
     <use xlink:href="#DejaVuSans-20" transform="translate(331.103516 0.390625)"/>
     <use xlink:href="#DejaVuSans-61" transform="translate(362.890625 0.390625)"/>
     <use xlink:href="#DejaVuSans-63" transform="translate(424.169922 0.390625)"/>
     <use xlink:href="#DejaVuSans-74" transform="translate(479.150391 0.390625)"/>
     <use xlink:href="#DejaVuSans-69" transform="translate(518.359375 0.390625)"/>
     <use xlink:href="#DejaVuSans-6f" transform="translate(546.142578 0.390625)"/>
     <use xlink:href="#DejaVuSans-6e" transform="translate(607.324219 0.390625)"/>
     <use xlink:href="#DejaVuSans-20" transform="translate(670.703125 0.390625)"/>
     <use xlink:href="#DejaVuSans-74" transform="translate(702.490234 0.390625)"/>
     <use xlink:href="#DejaVuSans-6f" transform="translate(741.699219 0.390625)"/>
     <use xlink:href="#DejaVuSans-74" transform="translate(802.880859 0.390625)"/>
     <use xlink:href="#DejaVuSans-61" transform="translate(842.089844 0.390625)"/>
     <use xlink:href="#DejaVuSans-6c" transform="translate(903.369141 0.390625)"/>
     <use xlink:href="#DejaVuSans-20" transform="translate(931.152344 0.390625)"/>
     <use xlink:href="#DejaVuSans-61" transform="translate(962.939453 0.390625)"/>
     <use xlink:href="#DejaVuSans-76" transform="translate(1024.21875 0.390625)"/>
     <use xlink:href="#DejaVuSans-65" transform="translate(1083.398438 0.390625)"/>
     <use xlink:href="#DejaVuSans-72" transform="translate(1144.921875 0.390625)"/>
     <use xlink:href="#DejaVuSans-61" transform="translate(1186.035156 0.390625)"/>
     <use xlink:href="#DejaVuSans-67" transform="translate(1247.314453 0.390625)"/>
     <use xlink:href="#DejaVuSans-65" transform="translate(1310.791016 0.390625)"/>
     <use xlink:href="#DejaVuSans-20" transform="translate(1372.314453 0.390625)"/>
     <use xlink:href="#DejaVuSans-77" transform="translate(1404.101562 0.390625)"/>
     <use xlink:href="#DejaVuSans-69" transform="translate(1485.888672 0.390625)"/>
     <use xlink:href="#DejaVuSans-74" transform="translate(1513.671875 0.390625)"/>
     <use xlink:href="#DejaVuSans-68" transform="translate(1552.880859 0.390625)"/>
     <use xlink:href="#DejaVuSans-20" transform="translate(1616.259766 0.390625)"/>
     <use xlink:href="#DejaVuSans-72" transform="translate(1648.046875 0.390625)"/>
     <use xlink:href="#DejaVuSans-65" transform="translate(1689.160156 0.390625)"/>
     <use xlink:href="#DejaVuSans-73" transform="translate(1750.683594 0.390625)"/>
     <use xlink:href="#DejaVuSans-70" transform="translate(1802.783203 0.390625)"/>
     <use xlink:href="#DejaVuSans-65" transform="translate(1866.259766 0.390625)"/>
     <use xlink:href="#DejaVuSans-63" transform="translate(1927.783203 0.390625)"/>
     <use xlink:href="#DejaVuSans-74" transform="translate(1982.763672 0.390625)"/>
     <use xlink:href="#DejaVuSans-20" transform="translate(2021.972656 0.390625)"/>
     <use xlink:href="#DejaVuSans-74" transform="translate(2053.759766 0.390625)"/>
     <use xlink:href="#DejaVuSans-6f" transform="translate(2092.96875 0.390625)"/>
     <use xlink:href="#DejaVuSans-20" transform="translate(2154.150391 0.390625)"/>
     <use xlink:href="#DejaVuSans-Oblique-3b2" transform="translate(2185.9375 0.390625)"/>
     <use xlink:href="#DejaVuSans-20" transform="translate(2249.755859 0.390625)"/>
     <use xlink:href="#DejaVuSans-70" transform="translate(2281.542969 0.390625)"/>
     <use xlink:href="#DejaVuSans-72" transform="translate(2345.019531 0.390625)"/>
     <use xlink:href="#DejaVuSans-6f" transform="translate(2386.132812 0.390625)"/>
     <use xlink:href="#DejaVuSans-64" transform="translate(2447.314453 0.390625)"/>
     <use xlink:href="#DejaVuSans-75" transform="translate(2510.791016 0.390625)"/>
     <use xlink:href="#DejaVuSans-63" transform="translate(2574.169922 0.390625)"/>
     <use xlink:href="#DejaVuSans-65" transform="translate(2629.150391 0.390625)"/>
     <use xlink:href="#DejaVuSans-64" transform="translate(2690.673828 0.390625)"/>
     <use xlink:href="#DejaVuSans-20" transform="translate(2754.150391 0.390625)"/>
     <use xlink:href="#DejaVuSans-77" transform="translate(2785.9375 0.390625)"/>
     <use xlink:href="#DejaVuSans-69" transform="translate(2867.724609 0.390625)"/>
     <use xlink:href="#DejaVuSans-74" transform="translate(2895.507812 0.390625)"/>
     <use xlink:href="#DejaVuSans-68" transform="translate(2934.716797 0.390625)"/>
     <use xlink:href="#DejaVuSans-20" transform="translate(2998.095703 0.390625)"/>
     <use xlink:href="#DejaVuSans-6a" transform="translate(3029.882812 0.390625)"/>
     <use xlink:href="#DejaVuSans-61" transform="translate(3057.666016 0.390625)"/>
     <use xlink:href="#DejaVuSans-63" transform="translate(3118.945312 0.390625)"/>
     <use xlink:href="#DejaVuSans-6b" transform="translate(3173.925781 0.390625)"/>
     <use xlink:href="#DejaVuSans-6b" transform="translate(3231.835938 0.390625)"/>
     <use xlink:href="#DejaVuSans-6e" transform="translate(3289.746094 0.390625)"/>
     <use xlink:href="#DejaVuSans-69" transform="translate(3353.125 0.390625)"/>
     <use xlink:href="#DejaVuSans-66" transform="translate(3380.908203 0.390625)"/>
     <use xlink:href="#DejaVuSans-65" transform="translate(3416.113281 0.390625)"/>
     <use xlink:href="#DejaVuSans-20" transform="translate(3477.636719 0.390625)"/>
     <use xlink:href="#DejaVuSans-61" transform="translate(3509.423828 0.390625)"/>
     <use xlink:href="#DejaVuSans-6e" transform="translate(3570.703125 0.390625)"/>
     <use xlink:href="#DejaVuSans-64" transform="translate(3634.082031 0.390625)"/>
     <use xlink:href="#DejaVuSans-20" transform="translate(3697.558594 0.390625)"/>
     <use xlink:href="#DejaVuSans-46" transform="translate(3729.345703 0.390625)"/>
     <use xlink:href="#DejaVuSans-53" transform="translate(3786.865234 0.390625)"/>
     <use xlink:href="#DejaVuSans-20" transform="translate(3850.341797 0.390625)"/>
     <use xlink:href="#DejaVuSans-72" transform="translate(3882.128906 0.390625)"/>
     <use xlink:href="#DejaVuSans-65" transform="translate(3923.242188 0.390625)"/>
     <use xlink:href="#DejaVuSans-77" transform="translate(3984.765625 0.390625)"/>
     <use xlink:href="#DejaVuSans-65" transform="translate(4066.552734 0.390625)"/>
     <use xlink:href="#DejaVuSans-69" transform="translate(4128.076172 0.390625)"/>
     <use xlink:href="#DejaVuSans-67" transform="translate(4155.859375 0.390625)"/>
     <use xlink:href="#DejaVuSans-68" transform="translate(4219.335938 0.390625)"/>
     <use xlink:href="#DejaVuSans-74" transform="translate(4282.714844 0.390625)"/>
     <use xlink:href="#DejaVuSans-69" transform="translate(4321.923828 0.390625)"/>
     <use xlink:href="#DejaVuSans-6e" transform="translate(4349.707031 0.390625)"/>
     <use xlink:href="#DejaVuSans-67" transform="translate(4413.085938 0.390625)"/>
    </g>
   </g>
  </g>
  <g id="text_20">
   <!-- Twist coefficients 0 and 1. N=10 Jackknife bins -->
   <g transform="translate(0 720) scale(0.1 -0.1)">
    <defs>
     <path id="DejaVuSans-Oblique-54" d="M 378 4666 
L 4325 4666 
L 4225 4134 
L 2559 4134 
L 1759 0 
L 1125 0 
L 1925 4134 
L 275 4134 
L 378 4666 
z
" transform="scale(0.015625)"/>
     <path id="DejaVuSans-Oblique-77" d="M 544 3500 
L 1113 3500 
L 1259 684 
L 2566 3500 
L 3231 3500 
L 3425 684 
L 4666 3500 
L 5241 3500 
L 3641 0 
L 2969 0 
L 2797 2900 
L 1459 0 
L 781 0 
L 544 3500 
z
" transform="scale(0.015625)"/>
     <path id="DejaVuSans-Oblique-69" d="M 1172 4863 
L 1747 4863 
L 1606 4134 
L 1031 4134 
L 1172 4863 
z
M 909 3500 
L 1484 3500 
L 800 0 
L 225 0 
L 909 3500 
z
" transform="scale(0.015625)"/>
     <path id="DejaVuSans-Oblique-73" d="M 3200 3397 
L 3091 2853 
Q 2863 2978 2609 3040 
Q 2356 3103 2088 3103 
Q 1634 3103 1373 2948 
Q 1113 2794 1113 2528 
Q 1113 2219 1719 2053 
Q 1766 2041 1788 2034 
L 1972 1978 
Q 2547 1819 2739 1644 
Q 2931 1469 2931 1166 
Q 2931 609 2489 259 
Q 2047 -91 1331 -91 
Q 1053 -91 747 -37 
Q 441 16 72 128 
L 184 722 
Q 500 559 806 475 
Q 1113 391 1394 391 
Q 1816 391 2080 572 
Q 2344 753 2344 1031 
Q 2344 1331 1650 1516 
L 1591 1531 
L 1394 1581 
Q 956 1697 753 1886 
Q 550 2075 550 2369 
Q 550 2928 970 3256 
Q 1391 3584 2113 3584 
Q 2397 3584 2667 3537 
Q 2938 3491 3200 3397 
z
" transform="scale(0.015625)"/>
     <path id="DejaVuSans-Oblique-74" d="M 2706 3500 
L 2619 3053 
L 1472 3053 
L 1100 1153 
Q 1081 1047 1072 975 
Q 1063 903 1063 863 
Q 1063 663 1183 572 
Q 1303 481 1569 481 
L 2150 481 
L 2053 0 
L 1503 0 
Q 991 0 739 200 
Q 488 400 488 806 
Q 488 878 497 964 
Q 506 1050 525 1153 
L 897 3053 
L 409 3053 
L 500 3500 
L 978 3500 
L 1172 4494 
L 1747 4494 
L 1556 3500 
L 2706 3500 
z
" transform="scale(0.015625)"/>
     <path id="DejaVuSans-Oblique-20" transform="scale(0.015625)"/>
     <path id="DejaVuSans-Oblique-63" d="M 3431 3366 
L 3316 2797 
Q 3109 2947 2876 3022 
Q 2644 3097 2394 3097 
Q 2119 3097 1870 3000 
Q 1622 2903 1453 2725 
Q 1184 2453 1037 2087 
Q 891 1722 891 1331 
Q 891 859 1127 628 
Q 1363 397 1844 397 
Q 2081 397 2348 469 
Q 2616 541 2906 684 
L 2797 116 
Q 2547 13 2283 -39 
Q 2019 -91 1741 -91 
Q 1044 -91 669 257 
Q 294 606 294 1253 
Q 294 1797 489 2255 
Q 684 2713 1069 3078 
Q 1331 3328 1684 3456 
Q 2038 3584 2456 3584 
Q 2700 3584 2940 3529 
Q 3181 3475 3431 3366 
z
" transform="scale(0.015625)"/>
     <path id="DejaVuSans-Oblique-6f" d="M 1625 -91 
Q 1009 -91 651 289 
Q 294 669 294 1325 
Q 294 1706 417 2101 
Q 541 2497 738 2766 
Q 1047 3184 1428 3384 
Q 1809 3584 2291 3584 
Q 2888 3584 3255 3212 
Q 3622 2841 3622 2241 
Q 3622 1825 3500 1412 
Q 3378 1000 3181 728 
Q 2875 309 2494 109 
Q 2113 -91 1625 -91 
z
M 891 1344 
Q 891 869 1089 633 
Q 1288 397 1691 397 
Q 2269 397 2648 901 
Q 3028 1406 3028 2181 
Q 3028 2634 2825 2865 
Q 2622 3097 2228 3097 
Q 1903 3097 1650 2945 
Q 1397 2794 1197 2484 
Q 1050 2253 970 1956 
Q 891 1659 891 1344 
z
" transform="scale(0.015625)"/>
     <path id="DejaVuSans-Oblique-65" d="M 3078 2063 
Q 3088 2113 3092 2166 
Q 3097 2219 3097 2272 
Q 3097 2653 2873 2875 
Q 2650 3097 2266 3097 
Q 1838 3097 1509 2826 
Q 1181 2556 1013 2059 
L 3078 2063 
z
M 3578 1613 
L 903 1613 
Q 884 1494 878 1425 
Q 872 1356 872 1306 
Q 872 872 1139 634 
Q 1406 397 1894 397 
Q 2269 397 2603 481 
Q 2938 566 3225 728 
L 3116 159 
Q 2806 34 2476 -28 
Q 2147 -91 1806 -91 
Q 1078 -91 686 257 
Q 294 606 294 1247 
Q 294 1794 489 2264 
Q 684 2734 1063 3103 
Q 1306 3334 1642 3459 
Q 1978 3584 2356 3584 
Q 2950 3584 3301 3228 
Q 3653 2872 3653 2272 
Q 3653 2128 3634 1964 
Q 3616 1800 3578 1613 
z
" transform="scale(0.015625)"/>
     <path id="DejaVuSans-Oblique-66" d="M 3059 4863 
L 2969 4384 
L 2419 4384 
Q 2106 4384 1964 4261 
Q 1822 4138 1753 3809 
L 1691 3500 
L 2638 3500 
L 2553 3053 
L 1606 3053 
L 1013 0 
L 434 0 
L 1031 3053 
L 481 3053 
L 563 3500 
L 1113 3500 
L 1159 3744 
Q 1278 4363 1576 4613 
Q 1875 4863 2516 4863 
L 3059 4863 
z
" transform="scale(0.015625)"/>
     <path id="DejaVuSans-Oblique-6e" d="M 3566 2113 
L 3156 0 
L 2578 0 
L 2988 2091 
Q 3016 2238 3031 2350 
Q 3047 2463 3047 2528 
Q 3047 2791 2881 2937 
Q 2716 3084 2419 3084 
Q 1956 3084 1622 2776 
Q 1288 2469 1184 1941 
L 800 0 
L 225 0 
L 903 3500 
L 1478 3500 
L 1363 2950 
Q 1603 3253 1940 3418 
Q 2278 3584 2650 3584 
Q 3113 3584 3367 3334 
Q 3622 3084 3622 2631 
Q 3622 2519 3608 2391 
Q 3594 2263 3566 2113 
z
" transform="scale(0.015625)"/>
     <path id="DejaVuSans-Oblique-30" d="M 2444 4750 
Q 3078 4750 3414 4328 
Q 3750 3906 3750 3116 
Q 3750 2516 3592 1923 
Q 3434 1331 3150 863 
Q 2859 394 2467 151 
Q 2075 -91 1600 -91 
Q 988 -91 653 334 
Q 319 759 319 1544 
Q 319 2138 480 2733 
Q 641 3328 928 3794 
Q 1216 4263 1602 4506 
Q 1988 4750 2444 4750 
z
M 2406 4250 
Q 2169 4250 1955 4123 
Q 1741 3997 1569 3750 
Q 1281 3338 1111 2720 
Q 941 2103 941 1453 
Q 941 938 1123 673 
Q 1306 409 1663 409 
Q 1913 409 2125 536 
Q 2338 663 2509 909 
Q 2794 1319 2961 1936 
Q 3128 2553 3128 3206 
Q 3128 3722 2945 3986 
Q 2763 4250 2406 4250 
z
" transform="scale(0.015625)"/>
     <path id="DejaVuSans-Oblique-61" d="M 3438 1997 
L 3047 0 
L 2472 0 
L 2578 531 
Q 2325 219 2001 64 
Q 1678 -91 1281 -91 
Q 834 -91 548 182 
Q 263 456 263 884 
Q 263 1497 752 1853 
Q 1241 2209 2100 2209 
L 2900 2209 
L 2931 2363 
Q 2938 2388 2941 2417 
Q 2944 2447 2944 2509 
Q 2944 2788 2717 2942 
Q 2491 3097 2081 3097 
Q 1800 3097 1504 3025 
Q 1209 2953 897 2809 
L 997 3341 
Q 1322 3463 1633 3523 
Q 1944 3584 2234 3584 
Q 2853 3584 3176 3315 
Q 3500 3047 3500 2534 
Q 3500 2431 3484 2292 
Q 3469 2153 3438 1997 
z
M 2816 1759 
L 2241 1759 
Q 1534 1759 1195 1570 
Q 856 1381 856 984 
Q 856 709 1029 553 
Q 1203 397 1509 397 
Q 1978 397 2328 733 
Q 2678 1069 2791 1631 
L 2816 1759 
z
" transform="scale(0.015625)"/>
     <path id="DejaVuSans-Oblique-64" d="M 2675 525 
Q 2444 222 2128 65 
Q 1813 -91 1428 -91 
Q 903 -91 598 267 
Q 294 625 294 1247 
Q 294 1766 478 2236 
Q 663 2706 1013 3078 
Q 1244 3325 1534 3454 
Q 1825 3584 2144 3584 
Q 2481 3584 2739 3421 
Q 2997 3259 3138 2956 
L 3513 4863 
L 4091 4863 
L 3144 0 
L 2566 0 
L 2675 525 
z
M 891 1350 
Q 891 897 1095 644 
Q 1300 391 1663 391 
Q 1931 391 2161 520 
Q 2391 650 2566 903 
Q 2750 1166 2856 1509 
Q 2963 1853 2963 2188 
Q 2963 2622 2758 2865 
Q 2553 3109 2194 3109 
Q 1922 3109 1687 2981 
Q 1453 2853 1288 2613 
Q 1106 2353 998 2009 
Q 891 1666 891 1350 
z
" transform="scale(0.015625)"/>
     <path id="DejaVuSans-Oblique-31" d="M 416 531 
L 1447 531 
L 2144 4122 
L 978 3897 
L 1088 4441 
L 2247 4666 
L 2881 4666 
L 2075 531 
L 3103 531 
L 3003 0 
L 313 0 
L 416 531 
z
" transform="scale(0.015625)"/>
     <path id="DejaVuSans-Oblique-2e" d="M 525 794 
L 1184 794 
L 1031 0 
L 372 0 
L 525 794 
z
" transform="scale(0.015625)"/>
     <path id="DejaVuSans-Oblique-4e" d="M 1081 4666 
L 1931 4666 
L 3219 666 
L 4000 4666 
L 4616 4666 
L 3706 0 
L 2853 0 
L 1569 4025 
L 788 0 
L 172 0 
L 1081 4666 
z
" transform="scale(0.015625)"/>
     <path id="DejaVuSans-Oblique-3d" d="M 678 2906 
L 4684 2906 
L 4684 2381 
L 678 2381 
L 678 2906 
z
M 678 1631 
L 4684 1631 
L 4684 1100 
L 678 1100 
L 678 1631 
z
" transform="scale(0.015625)"/>
     <path id="DejaVuSans-Oblique-4a" d="M 1069 4666 
L 1703 4666 
L 856 325 
Q 691 -522 298 -901 
Q -94 -1281 -800 -1281 
L -1050 -1281 
L -947 -750 
L -750 -750 
Q -328 -750 -109 -509 
Q 109 -269 225 325 
L 1069 4666 
z
" transform="scale(0.015625)"/>
     <path id="DejaVuSans-Oblique-6b" d="M 1172 4863 
L 1747 4863 
L 1197 2028 
L 3169 3500 
L 3916 3500 
L 1716 1825 
L 3322 0 
L 2625 0 
L 1131 1709 
L 800 0 
L 225 0 
L 1172 4863 
z
" transform="scale(0.015625)"/>
     <path id="DejaVuSans-Oblique-62" d="M 3169 2138 
Q 3169 2591 2961 2847 
Q 2753 3103 2388 3103 
Q 2122 3103 1889 2973 
Q 1656 2844 1484 2597 
Q 1303 2338 1198 1995 
Q 1094 1653 1094 1313 
Q 1094 881 1298 636 
Q 1503 391 1863 391 
Q 2134 391 2365 517 
Q 2597 644 2772 891 
Q 2950 1147 3059 1487 
Q 3169 1828 3169 2138 
z
M 1381 2969 
Q 1594 3256 1914 3420 
Q 2234 3584 2584 3584 
Q 3122 3584 3439 3221 
Q 3756 2859 3756 2241 
Q 3756 1734 3570 1259 
Q 3384 784 3041 416 
Q 2816 172 2522 40 
Q 2228 -91 1906 -91 
Q 1566 -91 1316 65 
Q 1066 222 909 531 
L 806 0 
L 231 0 
L 1178 4863 
L 1753 4863 
L 1381 2969 
z
" transform="scale(0.015625)"/>
    </defs>
    <use xlink:href="#DejaVuSans-Oblique-54"/>
    <use xlink:href="#DejaVuSans-Oblique-77" x="52.958984"/>
    <use xlink:href="#DejaVuSans-Oblique-69" x="134.746094"/>
    <use xlink:href="#DejaVuSans-Oblique-73" x="162.529297"/>
    <use xlink:href="#DejaVuSans-Oblique-74" x="214.628906"/>
    <use xlink:href="#DejaVuSans-Oblique-20" x="253.837891"/>
    <use xlink:href="#DejaVuSans-Oblique-63" x="285.625"/>
    <use xlink:href="#DejaVuSans-Oblique-6f" x="340.605469"/>
    <use xlink:href="#DejaVuSans-Oblique-65" x="401.787109"/>
    <use xlink:href="#DejaVuSans-Oblique-66" x="463.310547"/>
    <use xlink:href="#DejaVuSans-Oblique-66" x="498.515625"/>
    <use xlink:href="#DejaVuSans-Oblique-69" x="533.720703"/>
    <use xlink:href="#DejaVuSans-Oblique-63" x="561.503906"/>
    <use xlink:href="#DejaVuSans-Oblique-69" x="616.484375"/>
    <use xlink:href="#DejaVuSans-Oblique-65" x="644.267578"/>
    <use xlink:href="#DejaVuSans-Oblique-6e" x="705.791016"/>
    <use xlink:href="#DejaVuSans-Oblique-74" x="769.169922"/>
    <use xlink:href="#DejaVuSans-Oblique-73" x="808.378906"/>
    <use xlink:href="#DejaVuSans-Oblique-20" x="860.478516"/>
    <use xlink:href="#DejaVuSans-Oblique-30" x="892.265625"/>
    <use xlink:href="#DejaVuSans-Oblique-20" x="955.888672"/>
    <use xlink:href="#DejaVuSans-Oblique-61" x="987.675781"/>
    <use xlink:href="#DejaVuSans-Oblique-6e" x="1048.955078"/>
    <use xlink:href="#DejaVuSans-Oblique-64" x="1112.333984"/>
    <use xlink:href="#DejaVuSans-Oblique-20" x="1175.810547"/>
    <use xlink:href="#DejaVuSans-Oblique-31" x="1207.597656"/>
    <use xlink:href="#DejaVuSans-Oblique-2e" x="1271.220703"/>
    <use xlink:href="#DejaVuSans-Oblique-20" x="1303.007812"/>
    <use xlink:href="#DejaVuSans-Oblique-4e" x="1334.794922"/>
    <use xlink:href="#DejaVuSans-Oblique-3d" x="1409.599609"/>
    <use xlink:href="#DejaVuSans-Oblique-31" x="1493.388672"/>
    <use xlink:href="#DejaVuSans-Oblique-30" x="1557.011719"/>
    <use xlink:href="#DejaVuSans-Oblique-20" x="1620.634766"/>
    <use xlink:href="#DejaVuSans-Oblique-4a" x="1652.421875"/>
    <use xlink:href="#DejaVuSans-Oblique-61" x="1681.914062"/>
    <use xlink:href="#DejaVuSans-Oblique-63" x="1743.193359"/>
    <use xlink:href="#DejaVuSans-Oblique-6b" x="1798.173828"/>
    <use xlink:href="#DejaVuSans-Oblique-6b" x="1856.083984"/>
    <use xlink:href="#DejaVuSans-Oblique-6e" x="1913.994141"/>
    <use xlink:href="#DejaVuSans-Oblique-69" x="1977.373047"/>
    <use xlink:href="#DejaVuSans-Oblique-66" x="2005.15625"/>
    <use xlink:href="#DejaVuSans-Oblique-65" x="2040.361328"/>
    <use xlink:href="#DejaVuSans-Oblique-20" x="2101.884766"/>
    <use xlink:href="#DejaVuSans-Oblique-62" x="2133.671875"/>
    <use xlink:href="#DejaVuSans-Oblique-69" x="2197.148438"/>
    <use xlink:href="#DejaVuSans-Oblique-6e" x="2224.931641"/>
    <use xlink:href="#DejaVuSans-Oblique-73" x="2288.310547"/>
   </g>
  </g>
 </g>
 <defs>
  <clipPath id="p59ef6902be">
   <rect x="117" y="86.4" width="725.4" height="554.4"/>
  </clipPath>
 </defs>
</svg>
