<?xml version="1.0" encoding="utf-8" standalone="no"?>
<!DOCTYPE svg PUBLIC "-//W3C//DTD SVG 1.1//EN"
  "http://www.w3.org/Graphics/SVG/1.1/DTD/svg11.dtd">
<svg xmlns:xlink="http://www.w3.org/1999/xlink" width="576pt" height="576pt" viewBox="0 0 576 576" xmlns="http://www.w3.org/2000/svg" version="1.1">
 <metadata>
  <rdf:RDF xmlns:dc="http://purl.org/dc/elements/1.1/" xmlns:cc="http://creativecommons.org/ns#" xmlns:rdf="http://www.w3.org/1999/02/22-rdf-syntax-ns#">
   <cc:Work>
    <dc:type rdf:resource="http://purl.org/dc/dcmitype/StillImage"/>
    <dc:date>2024-05-07T12:51:20.073047</dc:date>
    <dc:format>image/svg+xml</dc:format>
    <dc:creator>
     <cc:Agent>
      <dc:title>Matplotlib v3.8.0, https://matplotlib.org/</dc:title>
     </cc:Agent>
    </dc:creator>
   </cc:Work>
  </rdf:RDF>
 </metadata>
 <defs>
  <style type="text/css">*{stroke-linejoin: round; stroke-linecap: butt}</style>
 </defs>
 <g id="figure_1">
  <g id="patch_1">
   <path d="M 0 576 
L 576 576 
L 576 0 
L 0 0 
z
" style="fill: #ffffff"/>
  </g>
  <g id="axes_1">
   <g id="patch_2">
    <path d="M 72 199.567059 
L 518.4 199.567059 
L 518.4 69.12 
L 72 69.12 
z
" style="fill: #ffffff"/>
   </g>
   <g id="matplotlib.axis_1">
    <g id="xtick_1">
     <g id="line2d_1">
      <defs>
       <path id="mb520fb38f4" d="M 0 0 
L 0 3.5 
" style="stroke: #000000; stroke-width: 0.8"/>
      </defs>
      <g>
       <use xlink:href="#mb520fb38f4" x="109.935178" y="199.567059" style="stroke: #000000; stroke-width: 0.8"/>
      </g>
     </g>
     <g id="text_1">
      <!-- 10.76 -->
      <g transform="translate(94.189709 214.92534) scale(0.11 -0.11)">
       <defs>
        <path id="DejaVuSans-31" d="M 794 531 
L 1825 531 
L 1825 4091 
L 703 3866 
L 703 4441 
L 1819 4666 
L 2450 4666 
L 2450 531 
L 3481 531 
L 3481 0 
L 794 0 
L 794 531 
z
" transform="scale(0.015625)"/>
        <path id="DejaVuSans-30" d="M 2034 4250 
Q 1547 4250 1301 3770 
Q 1056 3291 1056 2328 
Q 1056 1369 1301 889 
Q 1547 409 2034 409 
Q 2525 409 2770 889 
Q 3016 1369 3016 2328 
Q 3016 3291 2770 3770 
Q 2525 4250 2034 4250 
z
M 2034 4750 
Q 2819 4750 3233 4129 
Q 3647 3509 3647 2328 
Q 3647 1150 3233 529 
Q 2819 -91 2034 -91 
Q 1250 -91 836 529 
Q 422 1150 422 2328 
Q 422 3509 836 4129 
Q 1250 4750 2034 4750 
z
" transform="scale(0.015625)"/>
        <path id="DejaVuSans-2e" d="M 684 794 
L 1344 794 
L 1344 0 
L 684 0 
L 684 794 
z
" transform="scale(0.015625)"/>
        <path id="DejaVuSans-37" d="M 525 4666 
L 3525 4666 
L 3525 4397 
L 1831 0 
L 1172 0 
L 2766 4134 
L 525 4134 
L 525 4666 
z
" transform="scale(0.015625)"/>
        <path id="DejaVuSans-36" d="M 2113 2584 
Q 1688 2584 1439 2293 
Q 1191 2003 1191 1497 
Q 1191 994 1439 701 
Q 1688 409 2113 409 
Q 2538 409 2786 701 
Q 3034 994 3034 1497 
Q 3034 2003 2786 2293 
Q 2538 2584 2113 2584 
z
M 3366 4563 
L 3366 3988 
Q 3128 4100 2886 4159 
Q 2644 4219 2406 4219 
Q 1781 4219 1451 3797 
Q 1122 3375 1075 2522 
Q 1259 2794 1537 2939 
Q 1816 3084 2150 3084 
Q 2853 3084 3261 2657 
Q 3669 2231 3669 1497 
Q 3669 778 3244 343 
Q 2819 -91 2113 -91 
Q 1303 -91 875 529 
Q 447 1150 447 2328 
Q 447 3434 972 4092 
Q 1497 4750 2381 4750 
Q 2619 4750 2861 4703 
Q 3103 4656 3366 4563 
z
" transform="scale(0.015625)"/>
       </defs>
       <use xlink:href="#DejaVuSans-31"/>
       <use xlink:href="#DejaVuSans-30" x="63.623047"/>
       <use xlink:href="#DejaVuSans-2e" x="127.246094"/>
       <use xlink:href="#DejaVuSans-37" x="159.033203"/>
       <use xlink:href="#DejaVuSans-36" x="222.65625"/>
      </g>
     </g>
    </g>
    <g id="xtick_2">
     <g id="line2d_2">
      <g>
       <use xlink:href="#mb520fb38f4" x="168.749407" y="199.567059" style="stroke: #000000; stroke-width: 0.8"/>
      </g>
     </g>
     <g id="text_2">
      <!-- 10.77 -->
      <g transform="translate(153.003938 214.92534) scale(0.11 -0.11)">
       <use xlink:href="#DejaVuSans-31"/>
       <use xlink:href="#DejaVuSans-30" x="63.623047"/>
       <use xlink:href="#DejaVuSans-2e" x="127.246094"/>
       <use xlink:href="#DejaVuSans-37" x="159.033203"/>
       <use xlink:href="#DejaVuSans-37" x="222.65625"/>
      </g>
     </g>
    </g>
    <g id="xtick_3">
     <g id="line2d_3">
      <g>
       <use xlink:href="#mb520fb38f4" x="227.563636" y="199.567059" style="stroke: #000000; stroke-width: 0.8"/>
      </g>
     </g>
     <g id="text_3">
      <!-- 10.78 -->
      <g transform="translate(211.818168 214.92534) scale(0.11 -0.11)">
       <defs>
        <path id="DejaVuSans-38" d="M 2034 2216 
Q 1584 2216 1326 1975 
Q 1069 1734 1069 1313 
Q 1069 891 1326 650 
Q 1584 409 2034 409 
Q 2484 409 2743 651 
Q 3003 894 3003 1313 
Q 3003 1734 2745 1975 
Q 2488 2216 2034 2216 
z
M 1403 2484 
Q 997 2584 770 2862 
Q 544 3141 544 3541 
Q 544 4100 942 4425 
Q 1341 4750 2034 4750 
Q 2731 4750 3128 4425 
Q 3525 4100 3525 3541 
Q 3525 3141 3298 2862 
Q 3072 2584 2669 2484 
Q 3125 2378 3379 2068 
Q 3634 1759 3634 1313 
Q 3634 634 3220 271 
Q 2806 -91 2034 -91 
Q 1263 -91 848 271 
Q 434 634 434 1313 
Q 434 1759 690 2068 
Q 947 2378 1403 2484 
z
M 1172 3481 
Q 1172 3119 1398 2916 
Q 1625 2713 2034 2713 
Q 2441 2713 2670 2916 
Q 2900 3119 2900 3481 
Q 2900 3844 2670 4047 
Q 2441 4250 2034 4250 
Q 1625 4250 1398 4047 
Q 1172 3844 1172 3481 
z
" transform="scale(0.015625)"/>
       </defs>
       <use xlink:href="#DejaVuSans-31"/>
       <use xlink:href="#DejaVuSans-30" x="63.623047"/>
       <use xlink:href="#DejaVuSans-2e" x="127.246094"/>
       <use xlink:href="#DejaVuSans-37" x="159.033203"/>
       <use xlink:href="#DejaVuSans-38" x="222.65625"/>
      </g>
     </g>
    </g>
    <g id="xtick_4">
     <g id="line2d_4">
      <g>
       <use xlink:href="#mb520fb38f4" x="286.377866" y="199.567059" style="stroke: #000000; stroke-width: 0.8"/>
      </g>
     </g>
     <g id="text_4">
      <!-- 10.79 -->
      <g transform="translate(270.632397 214.92534) scale(0.11 -0.11)">
       <defs>
        <path id="DejaVuSans-39" d="M 703 97 
L 703 672 
Q 941 559 1184 500 
Q 1428 441 1663 441 
Q 2288 441 2617 861 
Q 2947 1281 2994 2138 
Q 2813 1869 2534 1725 
Q 2256 1581 1919 1581 
Q 1219 1581 811 2004 
Q 403 2428 403 3163 
Q 403 3881 828 4315 
Q 1253 4750 1959 4750 
Q 2769 4750 3195 4129 
Q 3622 3509 3622 2328 
Q 3622 1225 3098 567 
Q 2575 -91 1691 -91 
Q 1453 -91 1209 -44 
Q 966 3 703 97 
z
M 1959 2075 
Q 2384 2075 2632 2365 
Q 2881 2656 2881 3163 
Q 2881 3666 2632 3958 
Q 2384 4250 1959 4250 
Q 1534 4250 1286 3958 
Q 1038 3666 1038 3163 
Q 1038 2656 1286 2365 
Q 1534 2075 1959 2075 
z
" transform="scale(0.015625)"/>
       </defs>
       <use xlink:href="#DejaVuSans-31"/>
       <use xlink:href="#DejaVuSans-30" x="63.623047"/>
       <use xlink:href="#DejaVuSans-2e" x="127.246094"/>
       <use xlink:href="#DejaVuSans-37" x="159.033203"/>
       <use xlink:href="#DejaVuSans-39" x="222.65625"/>
      </g>
     </g>
    </g>
    <g id="xtick_5">
     <g id="line2d_5">
      <g>
       <use xlink:href="#mb520fb38f4" x="345.192095" y="199.567059" style="stroke: #000000; stroke-width: 0.8"/>
      </g>
     </g>
     <g id="text_5">
      <!-- 10.80 -->
      <g transform="translate(329.446626 214.92534) scale(0.11 -0.11)">
       <use xlink:href="#DejaVuSans-31"/>
       <use xlink:href="#DejaVuSans-30" x="63.623047"/>
       <use xlink:href="#DejaVuSans-2e" x="127.246094"/>
       <use xlink:href="#DejaVuSans-38" x="159.033203"/>
       <use xlink:href="#DejaVuSans-30" x="222.65625"/>
      </g>
     </g>
    </g>
    <g id="xtick_6">
     <g id="line2d_6">
      <g>
       <use xlink:href="#mb520fb38f4" x="404.006324" y="199.567059" style="stroke: #000000; stroke-width: 0.8"/>
      </g>
     </g>
     <g id="text_6">
      <!-- 10.81 -->
      <g transform="translate(388.260855 214.92534) scale(0.11 -0.11)">
       <use xlink:href="#DejaVuSans-31"/>
       <use xlink:href="#DejaVuSans-30" x="63.623047"/>
       <use xlink:href="#DejaVuSans-2e" x="127.246094"/>
       <use xlink:href="#DejaVuSans-38" x="159.033203"/>
       <use xlink:href="#DejaVuSans-31" x="222.65625"/>
      </g>
     </g>
    </g>
    <g id="xtick_7">
     <g id="line2d_7">
      <g>
       <use xlink:href="#mb520fb38f4" x="462.820553" y="199.567059" style="stroke: #000000; stroke-width: 0.8"/>
      </g>
     </g>
     <g id="text_7">
      <!-- 10.82 -->
      <g transform="translate(447.075085 214.92534) scale(0.11 -0.11)">
       <defs>
        <path id="DejaVuSans-32" d="M 1228 531 
L 3431 531 
L 3431 0 
L 469 0 
L 469 531 
Q 828 903 1448 1529 
Q 2069 2156 2228 2338 
Q 2531 2678 2651 2914 
Q 2772 3150 2772 3378 
Q 2772 3750 2511 3984 
Q 2250 4219 1831 4219 
Q 1534 4219 1204 4116 
Q 875 4013 500 3803 
L 500 4441 
Q 881 4594 1212 4672 
Q 1544 4750 1819 4750 
Q 2544 4750 2975 4387 
Q 3406 4025 3406 3419 
Q 3406 3131 3298 2873 
Q 3191 2616 2906 2266 
Q 2828 2175 2409 1742 
Q 1991 1309 1228 531 
z
" transform="scale(0.015625)"/>
       </defs>
       <use xlink:href="#DejaVuSans-31"/>
       <use xlink:href="#DejaVuSans-30" x="63.623047"/>
       <use xlink:href="#DejaVuSans-2e" x="127.246094"/>
       <use xlink:href="#DejaVuSans-38" x="159.033203"/>
       <use xlink:href="#DejaVuSans-32" x="222.65625"/>
      </g>
     </g>
    </g>
   </g>
   <g id="matplotlib.axis_2">
    <g id="ytick_1">
     <g id="line2d_8">
      <defs>
       <path id="m9ca9d5b1b8" d="M 0 0 
L -3.5 0 
" style="stroke: #000000; stroke-width: 0.8"/>
      </defs>
      <g>
       <use xlink:href="#m9ca9d5b1b8" x="72" y="167.616388" style="stroke: #000000; stroke-width: 0.8"/>
      </g>
     </g>
     <g id="text_8">
      <!-- 0.436 -->
      <g transform="translate(33.509062 171.795528) scale(0.11 -0.11)">
       <defs>
        <path id="DejaVuSans-34" d="M 2419 4116 
L 825 1625 
L 2419 1625 
L 2419 4116 
z
M 2253 4666 
L 3047 4666 
L 3047 1625 
L 3713 1625 
L 3713 1100 
L 3047 1100 
L 3047 0 
L 2419 0 
L 2419 1100 
L 313 1100 
L 313 1709 
L 2253 4666 
z
" transform="scale(0.015625)"/>
        <path id="DejaVuSans-33" d="M 2597 2516 
Q 3050 2419 3304 2112 
Q 3559 1806 3559 1356 
Q 3559 666 3084 287 
Q 2609 -91 1734 -91 
Q 1441 -91 1130 -33 
Q 819 25 488 141 
L 488 750 
Q 750 597 1062 519 
Q 1375 441 1716 441 
Q 2309 441 2620 675 
Q 2931 909 2931 1356 
Q 2931 1769 2642 2001 
Q 2353 2234 1838 2234 
L 1294 2234 
L 1294 2753 
L 1863 2753 
Q 2328 2753 2575 2939 
Q 2822 3125 2822 3475 
Q 2822 3834 2567 4026 
Q 2313 4219 1838 4219 
Q 1578 4219 1281 4162 
Q 984 4106 628 3988 
L 628 4550 
Q 988 4650 1302 4700 
Q 1616 4750 1894 4750 
Q 2613 4750 3031 4423 
Q 3450 4097 3450 3541 
Q 3450 3153 3228 2886 
Q 3006 2619 2597 2516 
z
" transform="scale(0.015625)"/>
       </defs>
       <use xlink:href="#DejaVuSans-30"/>
       <use xlink:href="#DejaVuSans-2e" x="63.623047"/>
       <use xlink:href="#DejaVuSans-34" x="95.410156"/>
       <use xlink:href="#DejaVuSans-33" x="159.033203"/>
       <use xlink:href="#DejaVuSans-36" x="222.65625"/>
      </g>
     </g>
    </g>
    <g id="ytick_2">
     <g id="line2d_9">
      <g>
       <use xlink:href="#m9ca9d5b1b8" x="72" y="129.880702" style="stroke: #000000; stroke-width: 0.8"/>
      </g>
     </g>
     <g id="text_9">
      <!-- 0.438 -->
      <g transform="translate(33.509062 134.059843) scale(0.11 -0.11)">
       <use xlink:href="#DejaVuSans-30"/>
       <use xlink:href="#DejaVuSans-2e" x="63.623047"/>
       <use xlink:href="#DejaVuSans-34" x="95.410156"/>
       <use xlink:href="#DejaVuSans-33" x="159.033203"/>
       <use xlink:href="#DejaVuSans-38" x="222.65625"/>
      </g>
     </g>
    </g>
    <g id="ytick_3">
     <g id="line2d_10">
      <g>
       <use xlink:href="#m9ca9d5b1b8" x="72" y="92.145017" style="stroke: #000000; stroke-width: 0.8"/>
      </g>
     </g>
     <g id="text_10">
      <!-- 0.440 -->
      <g transform="translate(33.509062 96.324157) scale(0.11 -0.11)">
       <use xlink:href="#DejaVuSans-30"/>
       <use xlink:href="#DejaVuSans-2e" x="63.623047"/>
       <use xlink:href="#DejaVuSans-34" x="95.410156"/>
       <use xlink:href="#DejaVuSans-34" x="159.033203"/>
       <use xlink:href="#DejaVuSans-30" x="222.65625"/>
      </g>
     </g>
    </g>
    <g id="text_11">
     <!-- S = $\frac{1}{6\cdot V \cdot\beta}\langle$ S $\rangle$ -->
     <g transform="translate(23.349062 170.918529) rotate(-90) scale(0.11 -0.11)">
      <defs>
       <path id="DejaVuSans-53" d="M 3425 4513 
L 3425 3897 
Q 3066 4069 2747 4153 
Q 2428 4238 2131 4238 
Q 1616 4238 1336 4038 
Q 1056 3838 1056 3469 
Q 1056 3159 1242 3001 
Q 1428 2844 1947 2747 
L 2328 2669 
Q 3034 2534 3370 2195 
Q 3706 1856 3706 1288 
Q 3706 609 3251 259 
Q 2797 -91 1919 -91 
Q 1588 -91 1214 -16 
Q 841 59 441 206 
L 441 856 
Q 825 641 1194 531 
Q 1563 422 1919 422 
Q 2459 422 2753 634 
Q 3047 847 3047 1241 
Q 3047 1584 2836 1778 
Q 2625 1972 2144 2069 
L 1759 2144 
Q 1053 2284 737 2584 
Q 422 2884 422 3419 
Q 422 4038 858 4394 
Q 1294 4750 2059 4750 
Q 2388 4750 2728 4690 
Q 3069 4631 3425 4513 
z
" transform="scale(0.015625)"/>
       <path id="DejaVuSans-20" transform="scale(0.015625)"/>
       <path id="DejaVuSans-3d" d="M 678 2906 
L 4684 2906 
L 4684 2381 
L 678 2381 
L 678 2906 
z
M 678 1631 
L 4684 1631 
L 4684 1100 
L 678 1100 
L 678 1631 
z
" transform="scale(0.015625)"/>
       <path id="DejaVuSans-22c5" d="M 684 2619 
L 1344 2619 
L 1344 1825 
L 684 1825 
L 684 2619 
z
" transform="scale(0.015625)"/>
       <path id="DejaVuSans-Oblique-56" d="M 1319 0 
L 500 4666 
L 1119 4666 
L 1797 653 
L 4063 4666 
L 4750 4666 
L 2053 0 
L 1319 0 
z
" transform="scale(0.015625)"/>
       <path id="DejaVuSans-Oblique-3b2" d="M 872 216 
L 572 -1331 
L -6 -1331 
L 928 3478 
Q 1206 4903 2538 4903 
Q 3888 4903 3659 3700 
Q 3503 2844 2894 2531 
Q 3713 2250 3553 1416 
Q 3272 -69 1759 -66 
Q 1097 -63 872 216 
z
M 1019 966 
Q 1259 422 1875 425 
Q 2775 425 2966 1406 
Q 3138 2288 1675 2219 
L 1778 2750 
Q 2909 2731 3106 3750 
Q 3241 4438 2509 4434 
Q 1691 4434 1503 3459 
L 1019 966 
z
" transform="scale(0.015625)"/>
       <path id="DejaVuSans-27e8" d="M 572 2006 
L 1453 4856 
L 1984 4856 
L 1103 2006 
L 1984 -844 
L 1453 -844 
L 572 2006 
z
" transform="scale(0.015625)"/>
       <path id="DejaVuSans-27e9" d="M 1925 2006 
L 1044 -844 
L 513 -844 
L 1394 2006 
L 513 4856 
L 1044 4856 
L 1925 2006 
z
" transform="scale(0.015625)"/>
      </defs>
      <use xlink:href="#DejaVuSans-53" transform="translate(0 0.16875)"/>
      <use xlink:href="#DejaVuSans-20" transform="translate(63.476562 0.16875)"/>
      <use xlink:href="#DejaVuSans-3d" transform="translate(95.263672 0.16875)"/>
      <use xlink:href="#DejaVuSans-20" transform="translate(179.052734 0.16875)"/>
      <use xlink:href="#DejaVuSans-31" transform="translate(306.839844 43.965625) scale(0.7)"/>
      <use xlink:href="#DejaVuSans-36" transform="translate(210.839844 -40.910937) scale(0.7)"/>
      <use xlink:href="#DejaVuSans-22c5" transform="translate(269.013672 -40.910937) scale(0.7)"/>
      <use xlink:href="#DejaVuSans-Oblique-56" transform="translate(304.902344 -40.910937) scale(0.7)"/>
      <use xlink:href="#DejaVuSans-22c5" transform="translate(366.425781 -40.910937) scale(0.7)"/>
      <use xlink:href="#DejaVuSans-Oblique-3b2" transform="translate(402.314453 -40.910937) scale(0.7)"/>
      <use xlink:href="#DejaVuSans-27e8" transform="translate(459.487305 0.16875)"/>
      <use xlink:href="#DejaVuSans-20" transform="translate(498.500977 0.16875)"/>
      <use xlink:href="#DejaVuSans-53" transform="translate(530.288086 0.16875)"/>
      <use xlink:href="#DejaVuSans-20" transform="translate(593.764648 0.16875)"/>
      <use xlink:href="#DejaVuSans-27e9" transform="translate(625.551758 0.16875)"/>
      <path d="M 210.839844 18.965625 
L 210.839844 25.215625 
L 446.987305 25.215625 
L 446.987305 18.965625 
L 210.839844 18.965625 
z
"/>
     </g>
    </g>
   </g>
   <g id="line2d_11">
    <path d="M 92.290909 75.049412 
L 98.172332 76.660856 
L 104.053755 78.27356 
L 109.935178 79.874401 
L 115.816601 81.458888 
L 121.698024 83.02959 
L 127.579447 84.591509 
L 133.46087 86.150806 
L 139.342292 87.71136 
L 145.223715 89.271274 
L 151.105138 90.829638 
L 156.986561 92.39435 
L 162.867984 93.972626 
L 168.749407 95.55771 
L 174.63083 97.135012 
L 180.512253 98.697182 
L 186.393676 100.24717 
L 192.275099 101.790097 
L 198.156522 103.327071 
L 204.037945 104.858421 
L 209.919368 106.389359 
L 215.800791 107.92831 
L 221.682213 109.47972 
L 227.563636 111.039324 
L 233.445059 112.597297 
L 239.326482 114.147171 
L 245.207905 115.688952 
L 251.089328 117.222636 
L 256.970751 118.747188 
L 262.852174 120.268414 
L 268.733597 121.803462 
L 274.61502 123.386885 
L 280.496443 125.074148 
L 286.377866 126.874191 
L 292.259289 128.639734 
L 298.140711 130.196242 
L 304.022134 131.558747 
L 309.903557 132.877189 
L 315.78498 134.440787 
L 321.666403 137.430575 
L 327.547826 143.030032 
L 333.429249 146.760433 
L 339.310672 148.731027 
L 345.192095 150.426361 
L 351.073518 152.101026 
L 356.954941 153.761816 
L 362.836364 155.402075 
L 368.717787 157.02336 
L 374.599209 158.630894 
L 380.480632 160.230232 
L 386.362055 161.828365 
L 392.243478 163.432135 
L 398.124901 165.039805 
L 404.006324 166.639544 
L 409.887747 168.218562 
L 415.76917 169.769632 
L 421.650593 171.293521 
L 427.532016 172.801036 
L 433.413439 174.308866 
L 439.294862 175.828397 
L 445.176285 177.359016 
L 451.057708 178.892767 
L 456.93913 180.422688 
L 462.820553 181.945169 
L 468.701976 183.458269 
L 474.583399 184.961582 
L 480.464822 186.453603 
L 486.346245 187.929638 
L 492.227668 189.389318 
L 498.109091 190.841316 
" clip-path="url(#pd1a612d2ec)" style="fill: none; stroke: #ff0000; stroke-width: 1.5; stroke-linecap: square"/>
   </g>
   <g id="line2d_12">
    <path d="M 92.290909 75.051248 
L 98.172332 76.657882 
L 104.053755 78.262911 
L 109.935178 79.860077 
L 115.816601 81.444868 
L 121.698024 83.017138 
L 127.579447 84.577372 
L 133.46087 86.129051 
L 139.342292 87.684971 
L 145.223715 89.256682 
L 151.105138 90.840054 
L 156.986561 92.423361 
L 162.867984 94.002549 
L 168.749407 95.578503 
L 174.63083 97.147354 
L 180.512253 98.703019 
L 186.393676 100.24505 
L 192.275099 101.778447 
L 198.156522 103.311185 
L 204.037945 104.851471 
L 209.919368 106.400097 
L 215.800791 107.951207 
L 221.682213 109.503573 
L 227.563636 111.06017 
L 233.445059 112.617582 
L 239.326482 114.166206 
L 245.207905 115.697816 
L 251.089328 117.204427 
L 256.970751 118.692837 
L 262.852174 120.602134 
L 268.733597 126.915607 
L 274.61502 134.614975 
L 280.496443 137.134813 
L 286.377866 138.867778 
L 292.259289 140.551555 
L 298.140711 142.218018 
L 304.022134 143.859892 
L 309.903557 145.4772 
L 315.78498 147.078803 
L 321.666403 148.672371 
L 327.547826 150.257591 
L 333.429249 151.829749 
L 339.310672 153.388875 
L 345.192095 154.938853 
L 351.073518 156.477169 
L 356.954941 157.996187 
L 362.836364 159.497013 
L 368.717787 160.992909 
L 374.599209 162.497578 
L 380.480632 164.015238 
L 386.362055 165.541505 
L 392.243478 167.070034 
L 398.124901 168.595743 
L 404.006324 170.113071 
L 409.887747 171.616814 
L 415.76917 173.10593 
L 421.650593 174.583219 
L 427.532016 176.052148 
L 433.413439 177.516986 
L 439.294862 178.983753 
L 445.176285 180.456321 
L 451.057708 181.932957 
L 456.93913 183.408926 
L 462.820553 184.88123 
L 468.701976 186.351001 
L 474.583399 187.821226 
L 480.464822 189.291493 
L 486.346245 190.7555 
L 492.227668 192.204845 
L 498.109091 193.637647 
" clip-path="url(#pd1a612d2ec)" style="fill: none; stroke: #008000; stroke-width: 1.5; stroke-linecap: square"/>
   </g>
   <g id="line2d_13">
    <defs>
     <path id="me1a280dd2c" d="M 0 3 
C 0.795609 3 1.55874 2.683901 2.12132 2.12132 
C 2.683901 1.55874 3 0.795609 3 0 
C 3 -0.795609 2.683901 -1.55874 2.12132 -2.12132 
C 1.55874 -2.683901 0.795609 -3 0 -3 
C -0.795609 -3 -1.55874 -2.683901 -2.12132 -2.12132 
C -2.683901 -1.55874 -3 -0.795609 -3 0 
C -3 0.795609 -2.683901 1.55874 -2.12132 2.12132 
C -1.55874 2.683901 -0.795609 3 0 3 
z
" style="stroke: #bf00bf"/>
    </defs>
    <g clip-path="url(#pd1a612d2ec)">
     <use xlink:href="#me1a280dd2c" x="268.733597" y="126.915607" style="fill: #bf00bf; stroke: #bf00bf"/>
    </g>
   </g>
   <g id="line2d_14">
    <defs>
     <path id="m1e5937373d" d="M 0 3 
C 0.795609 3 1.55874 2.683901 2.12132 2.12132 
C 2.683901 1.55874 3 0.795609 3 0 
C 3 -0.795609 2.683901 -1.55874 2.12132 -2.12132 
C 1.55874 -2.683901 0.795609 -3 0 -3 
C -0.795609 -3 -1.55874 -2.683901 -2.12132 -2.12132 
C -2.683901 -1.55874 -3 -0.795609 -3 0 
C -3 0.795609 -2.683901 1.55874 -2.12132 2.12132 
C -1.55874 2.683901 -0.795609 3 0 3 
z
" style="stroke: #bfbf00"/>
    </defs>
    <g clip-path="url(#pd1a612d2ec)">
     <use xlink:href="#m1e5937373d" x="327.547826" y="143.030032" style="fill: #bfbf00; stroke: #bfbf00"/>
    </g>
   </g>
   <g id="patch_3">
    <path d="M 72 199.567059 
L 72 69.12 
" style="fill: none; stroke: #000000; stroke-width: 0.8; stroke-linejoin: miter; stroke-linecap: square"/>
   </g>
   <g id="patch_4">
    <path d="M 518.4 199.567059 
L 518.4 69.12 
" style="fill: none; stroke: #000000; stroke-width: 0.8; stroke-linejoin: miter; stroke-linecap: square"/>
   </g>
   <g id="patch_5">
    <path d="M 72 199.567059 
L 518.4 199.567059 
" style="fill: none; stroke: #000000; stroke-width: 0.8; stroke-linejoin: miter; stroke-linecap: square"/>
   </g>
   <g id="patch_6">
    <path d="M 72 69.12 
L 518.4 69.12 
" style="fill: none; stroke: #000000; stroke-width: 0.8; stroke-linejoin: miter; stroke-linecap: square"/>
   </g>
  </g>
  <g id="axes_2">
   <g id="patch_7">
    <path d="M 72 356.103529 
L 518.4 356.103529 
L 518.4 225.656471 
L 72 225.656471 
z
" style="fill: #ffffff"/>
   </g>
   <g id="matplotlib.axis_3">
    <g id="xtick_8">
     <g id="line2d_15">
      <g>
       <use xlink:href="#mb520fb38f4" x="109.935178" y="356.103529" style="stroke: #000000; stroke-width: 0.8"/>
      </g>
     </g>
     <g id="text_12">
      <!-- 10.76 -->
      <g transform="translate(94.189709 371.461811) scale(0.11 -0.11)">
       <use xlink:href="#DejaVuSans-31"/>
       <use xlink:href="#DejaVuSans-30" x="63.623047"/>
       <use xlink:href="#DejaVuSans-2e" x="127.246094"/>
       <use xlink:href="#DejaVuSans-37" x="159.033203"/>
       <use xlink:href="#DejaVuSans-36" x="222.65625"/>
      </g>
     </g>
    </g>
    <g id="xtick_9">
     <g id="line2d_16">
      <g>
       <use xlink:href="#mb520fb38f4" x="168.749407" y="356.103529" style="stroke: #000000; stroke-width: 0.8"/>
      </g>
     </g>
     <g id="text_13">
      <!-- 10.77 -->
      <g transform="translate(153.003938 371.461811) scale(0.11 -0.11)">
       <use xlink:href="#DejaVuSans-31"/>
       <use xlink:href="#DejaVuSans-30" x="63.623047"/>
       <use xlink:href="#DejaVuSans-2e" x="127.246094"/>
       <use xlink:href="#DejaVuSans-37" x="159.033203"/>
       <use xlink:href="#DejaVuSans-37" x="222.65625"/>
      </g>
     </g>
    </g>
    <g id="xtick_10">
     <g id="line2d_17">
      <g>
       <use xlink:href="#mb520fb38f4" x="227.563636" y="356.103529" style="stroke: #000000; stroke-width: 0.8"/>
      </g>
     </g>
     <g id="text_14">
      <!-- 10.78 -->
      <g transform="translate(211.818168 371.461811) scale(0.11 -0.11)">
       <use xlink:href="#DejaVuSans-31"/>
       <use xlink:href="#DejaVuSans-30" x="63.623047"/>
       <use xlink:href="#DejaVuSans-2e" x="127.246094"/>
       <use xlink:href="#DejaVuSans-37" x="159.033203"/>
       <use xlink:href="#DejaVuSans-38" x="222.65625"/>
      </g>
     </g>
    </g>
    <g id="xtick_11">
     <g id="line2d_18">
      <g>
       <use xlink:href="#mb520fb38f4" x="286.377866" y="356.103529" style="stroke: #000000; stroke-width: 0.8"/>
      </g>
     </g>
     <g id="text_15">
      <!-- 10.79 -->
      <g transform="translate(270.632397 371.461811) scale(0.11 -0.11)">
       <use xlink:href="#DejaVuSans-31"/>
       <use xlink:href="#DejaVuSans-30" x="63.623047"/>
       <use xlink:href="#DejaVuSans-2e" x="127.246094"/>
       <use xlink:href="#DejaVuSans-37" x="159.033203"/>
       <use xlink:href="#DejaVuSans-39" x="222.65625"/>
      </g>
     </g>
    </g>
    <g id="xtick_12">
     <g id="line2d_19">
      <g>
       <use xlink:href="#mb520fb38f4" x="345.192095" y="356.103529" style="stroke: #000000; stroke-width: 0.8"/>
      </g>
     </g>
     <g id="text_16">
      <!-- 10.80 -->
      <g transform="translate(329.446626 371.461811) scale(0.11 -0.11)">
       <use xlink:href="#DejaVuSans-31"/>
       <use xlink:href="#DejaVuSans-30" x="63.623047"/>
       <use xlink:href="#DejaVuSans-2e" x="127.246094"/>
       <use xlink:href="#DejaVuSans-38" x="159.033203"/>
       <use xlink:href="#DejaVuSans-30" x="222.65625"/>
      </g>
     </g>
    </g>
    <g id="xtick_13">
     <g id="line2d_20">
      <g>
       <use xlink:href="#mb520fb38f4" x="404.006324" y="356.103529" style="stroke: #000000; stroke-width: 0.8"/>
      </g>
     </g>
     <g id="text_17">
      <!-- 10.81 -->
      <g transform="translate(388.260855 371.461811) scale(0.11 -0.11)">
       <use xlink:href="#DejaVuSans-31"/>
       <use xlink:href="#DejaVuSans-30" x="63.623047"/>
       <use xlink:href="#DejaVuSans-2e" x="127.246094"/>
       <use xlink:href="#DejaVuSans-38" x="159.033203"/>
       <use xlink:href="#DejaVuSans-31" x="222.65625"/>
      </g>
     </g>
    </g>
    <g id="xtick_14">
     <g id="line2d_21">
      <g>
       <use xlink:href="#mb520fb38f4" x="462.820553" y="356.103529" style="stroke: #000000; stroke-width: 0.8"/>
      </g>
     </g>
     <g id="text_18">
      <!-- 10.82 -->
      <g transform="translate(447.075085 371.461811) scale(0.11 -0.11)">
       <use xlink:href="#DejaVuSans-31"/>
       <use xlink:href="#DejaVuSans-30" x="63.623047"/>
       <use xlink:href="#DejaVuSans-2e" x="127.246094"/>
       <use xlink:href="#DejaVuSans-38" x="159.033203"/>
       <use xlink:href="#DejaVuSans-32" x="222.65625"/>
      </g>
     </g>
    </g>
   </g>
   <g id="matplotlib.axis_4">
    <g id="ytick_4">
     <g id="line2d_22">
      <g>
       <use xlink:href="#m9ca9d5b1b8" x="72" y="349.666309" style="stroke: #000000; stroke-width: 0.8"/>
      </g>
     </g>
     <g id="text_19">
      <!-- 0.0000 -->
      <g transform="translate(26.510312 353.845449) scale(0.11 -0.11)">
       <use xlink:href="#DejaVuSans-30"/>
       <use xlink:href="#DejaVuSans-2e" x="63.623047"/>
       <use xlink:href="#DejaVuSans-30" x="95.410156"/>
       <use xlink:href="#DejaVuSans-30" x="159.033203"/>
       <use xlink:href="#DejaVuSans-30" x="222.65625"/>
       <use xlink:href="#DejaVuSans-30" x="286.279297"/>
      </g>
     </g>
    </g>
    <g id="ytick_5">
     <g id="line2d_23">
      <g>
       <use xlink:href="#m9ca9d5b1b8" x="72" y="314.408829" style="stroke: #000000; stroke-width: 0.8"/>
      </g>
     </g>
     <g id="text_20">
      <!-- 0.0002 -->
      <g transform="translate(26.510312 318.58797) scale(0.11 -0.11)">
       <use xlink:href="#DejaVuSans-30"/>
       <use xlink:href="#DejaVuSans-2e" x="63.623047"/>
       <use xlink:href="#DejaVuSans-30" x="95.410156"/>
       <use xlink:href="#DejaVuSans-30" x="159.033203"/>
       <use xlink:href="#DejaVuSans-30" x="222.65625"/>
       <use xlink:href="#DejaVuSans-32" x="286.279297"/>
      </g>
     </g>
    </g>
    <g id="ytick_6">
     <g id="line2d_24">
      <g>
       <use xlink:href="#m9ca9d5b1b8" x="72" y="279.15135" style="stroke: #000000; stroke-width: 0.8"/>
      </g>
     </g>
     <g id="text_21">
      <!-- 0.0004 -->
      <g transform="translate(26.510312 283.33049) scale(0.11 -0.11)">
       <use xlink:href="#DejaVuSans-30"/>
       <use xlink:href="#DejaVuSans-2e" x="63.623047"/>
       <use xlink:href="#DejaVuSans-30" x="95.410156"/>
       <use xlink:href="#DejaVuSans-30" x="159.033203"/>
       <use xlink:href="#DejaVuSans-30" x="222.65625"/>
       <use xlink:href="#DejaVuSans-34" x="286.279297"/>
      </g>
     </g>
    </g>
    <g id="ytick_7">
     <g id="line2d_25">
      <g>
       <use xlink:href="#m9ca9d5b1b8" x="72" y="243.89387" style="stroke: #000000; stroke-width: 0.8"/>
      </g>
     </g>
     <g id="text_22">
      <!-- 0.0006 -->
      <g transform="translate(26.510312 248.073011) scale(0.11 -0.11)">
       <use xlink:href="#DejaVuSans-30"/>
       <use xlink:href="#DejaVuSans-2e" x="63.623047"/>
       <use xlink:href="#DejaVuSans-30" x="95.410156"/>
       <use xlink:href="#DejaVuSans-30" x="159.033203"/>
       <use xlink:href="#DejaVuSans-30" x="222.65625"/>
       <use xlink:href="#DejaVuSans-36" x="286.279297"/>
      </g>
     </g>
    </g>
    <g id="text_23">
     <!-- $\overline{S}(\beta)=S_{t}-S_{nt}$ -->
     <g transform="translate(20.200312 328.445) rotate(-90) scale(0.11 -0.11)">
      <defs>
       <path id="DejaVuSans-Oblique-53" d="M 3859 4513 
L 3738 3897 
Q 3422 4066 3111 4152 
Q 2800 4238 2509 4238 
Q 1944 4238 1609 3991 
Q 1275 3744 1275 3334 
Q 1275 3109 1398 2989 
Q 1522 2869 2034 2731 
L 2413 2638 
Q 3053 2472 3303 2217 
Q 3553 1963 3553 1503 
Q 3553 797 2998 353 
Q 2444 -91 1538 -91 
Q 1166 -91 791 -17 
Q 416 56 38 206 
L 166 856 
Q 513 641 861 531 
Q 1209 422 1556 422 
Q 2147 422 2503 684 
Q 2859 947 2859 1369 
Q 2859 1650 2717 1795 
Q 2575 1941 2106 2059 
L 1728 2156 
Q 1081 2325 845 2545 
Q 609 2766 609 3163 
Q 609 3859 1145 4304 
Q 1681 4750 2541 4750 
Q 2875 4750 3203 4690 
Q 3531 4631 3859 4513 
z
" transform="scale(0.015625)"/>
       <path id="DejaVuSans-28" d="M 1984 4856 
Q 1566 4138 1362 3434 
Q 1159 2731 1159 2009 
Q 1159 1288 1364 580 
Q 1569 -128 1984 -844 
L 1484 -844 
Q 1016 -109 783 600 
Q 550 1309 550 2009 
Q 550 2706 781 3412 
Q 1013 4119 1484 4856 
L 1984 4856 
z
" transform="scale(0.015625)"/>
       <path id="DejaVuSans-29" d="M 513 4856 
L 1013 4856 
Q 1481 4119 1714 3412 
Q 1947 2706 1947 2009 
Q 1947 1309 1714 600 
Q 1481 -109 1013 -844 
L 513 -844 
Q 928 -128 1133 580 
Q 1338 1288 1338 2009 
Q 1338 2731 1133 3434 
Q 928 4138 513 4856 
z
" transform="scale(0.015625)"/>
       <path id="DejaVuSans-Oblique-74" d="M 2706 3500 
L 2619 3053 
L 1472 3053 
L 1100 1153 
Q 1081 1047 1072 975 
Q 1063 903 1063 863 
Q 1063 663 1183 572 
Q 1303 481 1569 481 
L 2150 481 
L 2053 0 
L 1503 0 
Q 991 0 739 200 
Q 488 400 488 806 
Q 488 878 497 964 
Q 506 1050 525 1153 
L 897 3053 
L 409 3053 
L 500 3500 
L 978 3500 
L 1172 4494 
L 1747 4494 
L 1556 3500 
L 2706 3500 
z
" transform="scale(0.015625)"/>
       <path id="DejaVuSans-2212" d="M 678 2272 
L 4684 2272 
L 4684 1741 
L 678 1741 
L 678 2272 
z
" transform="scale(0.015625)"/>
       <path id="DejaVuSans-Oblique-6e" d="M 3566 2113 
L 3156 0 
L 2578 0 
L 2988 2091 
Q 3016 2238 3031 2350 
Q 3047 2463 3047 2528 
Q 3047 2791 2881 2937 
Q 2716 3084 2419 3084 
Q 1956 3084 1622 2776 
Q 1288 2469 1184 1941 
L 800 0 
L 225 0 
L 903 3500 
L 1478 3500 
L 1363 2950 
Q 1603 3253 1940 3418 
Q 2278 3584 2650 3584 
Q 3113 3584 3367 3334 
Q 3622 3084 3622 2631 
Q 3622 2519 3608 2391 
Q 3594 2263 3566 2113 
z
" transform="scale(0.015625)"/>
      </defs>
      <use xlink:href="#DejaVuSans-Oblique-53" transform="translate(0 0.53125)"/>
      <use xlink:href="#DejaVuSans-28" transform="translate(63.476562 0.03125)"/>
      <use xlink:href="#DejaVuSans-Oblique-3b2" transform="translate(102.490234 0.03125)"/>
      <use xlink:href="#DejaVuSans-29" transform="translate(166.308594 0.03125)"/>
      <use xlink:href="#DejaVuSans-3d" transform="translate(224.804688 0.03125)"/>
      <use xlink:href="#DejaVuSans-Oblique-53" transform="translate(328.076172 0.03125)"/>
      <use xlink:href="#DejaVuSans-Oblique-74" transform="translate(391.552734 -16.375) scale(0.7)"/>
      <use xlink:href="#DejaVuSans-2212" transform="translate(441.21582 0.03125)"/>
      <use xlink:href="#DejaVuSans-Oblique-53" transform="translate(544.487305 0.03125)"/>
      <use xlink:href="#DejaVuSans-Oblique-6e" transform="translate(607.963867 -16.375) scale(0.7)"/>
      <use xlink:href="#DejaVuSans-Oblique-74" transform="translate(652.329102 -16.375) scale(0.7)"/>
      <path d="M 0 86.5 
L 0 92.75 
L 63.476562 92.75 
L 63.476562 86.5 
L 0 86.5 
z
"/>
     </g>
    </g>
   </g>
   <g id="line2d_26">
    <path d="M 92.290909 349.649149 
L 98.172332 349.694095 
L 104.053755 349.765813 
L 109.935178 349.800141 
L 115.816601 349.797304 
L 121.698024 349.782644 
L 127.579447 349.79839 
L 133.46087 349.869565 
L 139.342292 349.912869 
L 145.223715 349.80265 
L 151.105138 349.568996 
L 156.986561 349.395246 
L 162.867984 349.38673 
L 168.749407 349.472035 
L 174.63083 349.550998 
L 180.512253 349.611771 
L 186.393676 349.686116 
L 192.275099 349.77516 
L 198.156522 349.81473 
L 204.037945 349.731249 
L 209.919368 349.565979 
L 215.800791 349.452379 
L 221.682213 349.44344 
L 227.563636 349.471539 
L 233.445059 349.476788 
L 239.326482 349.488455 
L 245.207905 349.583488 
L 251.089328 349.836438 
L 256.970751 350.174118 
L 262.852174 346.548272 
L 268.733597 301.902144 
L 274.61502 244.759204 
L 280.496443 236.980224 
L 286.377866 237.606956 
L 292.259289 238.370919 
L 298.140711 237.343574 
L 304.022134 234.733363 
L 309.903557 231.940976 
L 315.78498 231.585882 
L 321.666403 244.631149 
L 327.547826 282.137255 
L 333.429249 302.302306 
L 339.310672 306.146763 
L 345.192095 307.504865 
L 351.073518 308.778805 
L 356.954941 310.103431 
L 362.836364 311.406187 
L 368.717787 312.577733 
L 374.599209 313.538824 
L 380.480632 314.301965 
L 386.362055 314.973429 
L 392.243478 315.676424 
L 398.124901 316.44221 
L 404.006324 317.2122 
L 409.887747 317.915508 
L 415.76917 318.494368 
L 421.650593 318.929765 
L 427.532016 319.290284 
L 433.413439 319.691967 
L 439.294862 320.184961 
L 445.176285 320.727353 
L 451.057708 321.260986 
L 456.93913 321.765067 
L 462.820553 322.233883 
L 468.701976 322.63872 
L 474.583399 322.947877 
L 480.464822 323.151125 
L 486.346245 323.263505 
L 492.227668 323.360076 
L 498.109091 323.53943 
" clip-path="url(#p1e9e3066c9)" style="fill: none; stroke: #1f77b4; stroke-width: 1.5; stroke-linecap: square"/>
   </g>
   <g id="line2d_27">
    <g clip-path="url(#p1e9e3066c9)">
     <use xlink:href="#me1a280dd2c" x="268.733597" y="301.902144" style="fill: #bf00bf; stroke: #bf00bf"/>
    </g>
   </g>
   <g id="line2d_28">
    <g clip-path="url(#p1e9e3066c9)">
     <use xlink:href="#m1e5937373d" x="327.547826" y="282.137255" style="fill: #bfbf00; stroke: #bfbf00"/>
    </g>
   </g>
   <g id="line2d_29">
    <defs>
     <path id="m74cb8d3e1c" d="M 0 3 
C 0.795609 3 1.55874 2.683901 2.12132 2.12132 
C 2.683901 1.55874 3 0.795609 3 0 
C 3 -0.795609 2.683901 -1.55874 2.12132 -2.12132 
C 1.55874 -2.683901 0.795609 -3 0 -3 
C -0.795609 -3 -1.55874 -2.683901 -2.12132 -2.12132 
C -2.683901 -1.55874 -3 -0.795609 -3 0 
C -3 0.795609 -2.683901 1.55874 -2.12132 2.12132 
C -1.55874 2.683901 -0.795609 3 0 3 
z
" style="stroke: #008000"/>
    </defs>
    <g clip-path="url(#p1e9e3066c9)">
     <use xlink:href="#m74cb8d3e1c" x="315.78498" y="231.585882" style="fill: #008000; stroke: #008000"/>
    </g>
   </g>
   <g id="patch_8">
    <path d="M 72 356.103529 
L 72 225.656471 
" style="fill: none; stroke: #000000; stroke-width: 0.8; stroke-linejoin: miter; stroke-linecap: square"/>
   </g>
   <g id="patch_9">
    <path d="M 518.4 356.103529 
L 518.4 225.656471 
" style="fill: none; stroke: #000000; stroke-width: 0.8; stroke-linejoin: miter; stroke-linecap: square"/>
   </g>
   <g id="patch_10">
    <path d="M 72 356.103529 
L 518.4 356.103529 
" style="fill: none; stroke: #000000; stroke-width: 0.8; stroke-linejoin: miter; stroke-linecap: square"/>
   </g>
   <g id="patch_11">
    <path d="M 72 225.656471 
L 518.4 225.656471 
" style="fill: none; stroke: #000000; stroke-width: 0.8; stroke-linejoin: miter; stroke-linecap: square"/>
   </g>
  </g>
  <g id="axes_3">
   <g id="patch_12">
    <path d="M 72 512.64 
L 518.4 512.64 
L 518.4 382.192941 
L 72 382.192941 
z
" style="fill: #ffffff"/>
   </g>
   <g id="matplotlib.axis_5">
    <g id="xtick_15">
     <g id="line2d_30">
      <g>
       <use xlink:href="#mb520fb38f4" x="109.935178" y="512.64" style="stroke: #000000; stroke-width: 0.8"/>
      </g>
     </g>
     <g id="text_24">
      <!-- 10.76 -->
      <g transform="translate(94.189709 527.998281) scale(0.11 -0.11)">
       <use xlink:href="#DejaVuSans-31"/>
       <use xlink:href="#DejaVuSans-30" x="63.623047"/>
       <use xlink:href="#DejaVuSans-2e" x="127.246094"/>
       <use xlink:href="#DejaVuSans-37" x="159.033203"/>
       <use xlink:href="#DejaVuSans-36" x="222.65625"/>
      </g>
     </g>
    </g>
    <g id="xtick_16">
     <g id="line2d_31">
      <g>
       <use xlink:href="#mb520fb38f4" x="168.749407" y="512.64" style="stroke: #000000; stroke-width: 0.8"/>
      </g>
     </g>
     <g id="text_25">
      <!-- 10.77 -->
      <g transform="translate(153.003938 527.998281) scale(0.11 -0.11)">
       <use xlink:href="#DejaVuSans-31"/>
       <use xlink:href="#DejaVuSans-30" x="63.623047"/>
       <use xlink:href="#DejaVuSans-2e" x="127.246094"/>
       <use xlink:href="#DejaVuSans-37" x="159.033203"/>
       <use xlink:href="#DejaVuSans-37" x="222.65625"/>
      </g>
     </g>
    </g>
    <g id="xtick_17">
     <g id="line2d_32">
      <g>
       <use xlink:href="#mb520fb38f4" x="227.563636" y="512.64" style="stroke: #000000; stroke-width: 0.8"/>
      </g>
     </g>
     <g id="text_26">
      <!-- 10.78 -->
      <g transform="translate(211.818168 527.998281) scale(0.11 -0.11)">
       <use xlink:href="#DejaVuSans-31"/>
       <use xlink:href="#DejaVuSans-30" x="63.623047"/>
       <use xlink:href="#DejaVuSans-2e" x="127.246094"/>
       <use xlink:href="#DejaVuSans-37" x="159.033203"/>
       <use xlink:href="#DejaVuSans-38" x="222.65625"/>
      </g>
     </g>
    </g>
    <g id="xtick_18">
     <g id="line2d_33">
      <g>
       <use xlink:href="#mb520fb38f4" x="286.377866" y="512.64" style="stroke: #000000; stroke-width: 0.8"/>
      </g>
     </g>
     <g id="text_27">
      <!-- 10.79 -->
      <g transform="translate(270.632397 527.998281) scale(0.11 -0.11)">
       <use xlink:href="#DejaVuSans-31"/>
       <use xlink:href="#DejaVuSans-30" x="63.623047"/>
       <use xlink:href="#DejaVuSans-2e" x="127.246094"/>
       <use xlink:href="#DejaVuSans-37" x="159.033203"/>
       <use xlink:href="#DejaVuSans-39" x="222.65625"/>
      </g>
     </g>
    </g>
    <g id="xtick_19">
     <g id="line2d_34">
      <g>
       <use xlink:href="#mb520fb38f4" x="345.192095" y="512.64" style="stroke: #000000; stroke-width: 0.8"/>
      </g>
     </g>
     <g id="text_28">
      <!-- 10.80 -->
      <g transform="translate(329.446626 527.998281) scale(0.11 -0.11)">
       <use xlink:href="#DejaVuSans-31"/>
       <use xlink:href="#DejaVuSans-30" x="63.623047"/>
       <use xlink:href="#DejaVuSans-2e" x="127.246094"/>
       <use xlink:href="#DejaVuSans-38" x="159.033203"/>
       <use xlink:href="#DejaVuSans-30" x="222.65625"/>
      </g>
     </g>
    </g>
    <g id="xtick_20">
     <g id="line2d_35">
      <g>
       <use xlink:href="#mb520fb38f4" x="404.006324" y="512.64" style="stroke: #000000; stroke-width: 0.8"/>
      </g>
     </g>
     <g id="text_29">
      <!-- 10.81 -->
      <g transform="translate(388.260855 527.998281) scale(0.11 -0.11)">
       <use xlink:href="#DejaVuSans-31"/>
       <use xlink:href="#DejaVuSans-30" x="63.623047"/>
       <use xlink:href="#DejaVuSans-2e" x="127.246094"/>
       <use xlink:href="#DejaVuSans-38" x="159.033203"/>
       <use xlink:href="#DejaVuSans-31" x="222.65625"/>
      </g>
     </g>
    </g>
    <g id="xtick_21">
     <g id="line2d_36">
      <g>
       <use xlink:href="#mb520fb38f4" x="462.820553" y="512.64" style="stroke: #000000; stroke-width: 0.8"/>
      </g>
     </g>
     <g id="text_30">
      <!-- 10.82 -->
      <g transform="translate(447.075085 527.998281) scale(0.11 -0.11)">
       <use xlink:href="#DejaVuSans-31"/>
       <use xlink:href="#DejaVuSans-30" x="63.623047"/>
       <use xlink:href="#DejaVuSans-2e" x="127.246094"/>
       <use xlink:href="#DejaVuSans-38" x="159.033203"/>
       <use xlink:href="#DejaVuSans-32" x="222.65625"/>
      </g>
     </g>
    </g>
    <g id="text_31">
     <!-- $\beta$ -->
     <g transform="translate(291.68 542.755937) scale(0.11 -0.11)">
      <use xlink:href="#DejaVuSans-Oblique-3b2" transform="translate(0 0.390625)"/>
     </g>
    </g>
   </g>
   <g id="matplotlib.axis_6">
    <g id="ytick_8">
     <g id="line2d_37">
      <g>
       <use xlink:href="#m9ca9d5b1b8" x="72" y="490.041865" style="stroke: #000000; stroke-width: 0.8"/>
      </g>
     </g>
     <g id="text_32">
      <!-- −0.1 -->
      <g transform="translate(38.288906 494.221005) scale(0.11 -0.11)">
       <use xlink:href="#DejaVuSans-2212"/>
       <use xlink:href="#DejaVuSans-30" x="83.789062"/>
       <use xlink:href="#DejaVuSans-2e" x="147.412109"/>
       <use xlink:href="#DejaVuSans-31" x="179.199219"/>
      </g>
     </g>
    </g>
    <g id="ytick_9">
     <g id="line2d_38">
      <g>
       <use xlink:href="#m9ca9d5b1b8" x="72" y="463.821393" style="stroke: #000000; stroke-width: 0.8"/>
      </g>
     </g>
     <g id="text_33">
      <!-- 0.0 -->
      <g transform="translate(47.506563 468.000534) scale(0.11 -0.11)">
       <use xlink:href="#DejaVuSans-30"/>
       <use xlink:href="#DejaVuSans-2e" x="63.623047"/>
       <use xlink:href="#DejaVuSans-30" x="95.410156"/>
      </g>
     </g>
    </g>
    <g id="ytick_10">
     <g id="line2d_39">
      <g>
       <use xlink:href="#m9ca9d5b1b8" x="72" y="437.600922" style="stroke: #000000; stroke-width: 0.8"/>
      </g>
     </g>
     <g id="text_34">
      <!-- 0.1 -->
      <g transform="translate(47.506563 441.780062) scale(0.11 -0.11)">
       <use xlink:href="#DejaVuSans-30"/>
       <use xlink:href="#DejaVuSans-2e" x="63.623047"/>
       <use xlink:href="#DejaVuSans-31" x="95.410156"/>
      </g>
     </g>
    </g>
    <g id="ytick_11">
     <g id="line2d_40">
      <g>
       <use xlink:href="#m9ca9d5b1b8" x="72" y="411.38045" style="stroke: #000000; stroke-width: 0.8"/>
      </g>
     </g>
     <g id="text_35">
      <!-- 0.2 -->
      <g transform="translate(47.506563 415.559591) scale(0.11 -0.11)">
       <use xlink:href="#DejaVuSans-30"/>
       <use xlink:href="#DejaVuSans-2e" x="63.623047"/>
       <use xlink:href="#DejaVuSans-32" x="95.410156"/>
      </g>
     </g>
    </g>
    <g id="ytick_12">
     <g id="line2d_41">
      <g>
       <use xlink:href="#m9ca9d5b1b8" x="72" y="385.159979" style="stroke: #000000; stroke-width: 0.8"/>
      </g>
     </g>
     <g id="text_36">
      <!-- 0.3 -->
      <g transform="translate(47.506563 389.339119) scale(0.11 -0.11)">
       <use xlink:href="#DejaVuSans-30"/>
       <use xlink:href="#DejaVuSans-2e" x="63.623047"/>
       <use xlink:href="#DejaVuSans-33" x="95.410156"/>
      </g>
     </g>
    </g>
    <g id="text_37">
     <!-- $\overline{S}'(\beta)$ -->
     <g transform="translate(31.978906 460.011471) rotate(-90) scale(0.11 -0.11)">
      <defs>
       <path id="Cmsy10-30" d="M 225 347 
Q 184 359 184 409 
L 966 3316 
Q 1003 3434 1093 3506 
Q 1184 3578 1300 3578 
Q 1450 3578 1564 3479 
Q 1678 3381 1678 3231 
Q 1678 3166 1644 3084 
L 488 319 
Q 466 275 428 275 
Q 394 275 320 306 
Q 247 338 225 347 
z
" transform="scale(0.015625)"/>
      </defs>
      <use xlink:href="#DejaVuSans-Oblique-53" transform="translate(0 0.53125)"/>
      <use xlink:href="#Cmsy10-30" transform="translate(64.433594 38.3125) scale(0.7)"/>
      <use xlink:href="#DejaVuSans-28" transform="translate(86.411133 0.03125)"/>
      <use xlink:href="#DejaVuSans-Oblique-3b2" transform="translate(125.424805 0.03125)"/>
      <use xlink:href="#DejaVuSans-29" transform="translate(189.243164 0.03125)"/>
      <path d="M 0 86.5 
L 0 92.75 
L 63.476562 92.75 
L 63.476562 86.5 
L 0 86.5 
z
"/>
     </g>
    </g>
   </g>
   <g id="line2d_42">
    <g clip-path="url(#pca75d29666)">
     <use xlink:href="#me1a280dd2c" x="268.733597" y="388.122353" style="fill: #bf00bf; stroke: #bf00bf"/>
    </g>
   </g>
   <g id="line2d_43">
    <g clip-path="url(#pca75d29666)">
     <use xlink:href="#m1e5937373d" x="327.547826" y="506.710588" style="fill: #bfbf00; stroke: #bfbf00"/>
    </g>
   </g>
   <g id="line2d_44">
    <path d="M 92.290909 463.830831 
L 98.172332 463.908154 
L 104.053755 463.900258 
L 109.935178 463.844813 
L 115.816601 463.808381 
L 121.698024 463.8222 
L 127.579447 463.886035 
L 133.46087 463.90653 
L 139.342292 463.77163 
L 145.223715 463.56566 
L 151.105138 463.518413 
L 156.986561 463.685844 
L 162.867984 463.8785 
L 168.749407 463.943557 
L 174.63083 463.925313 
L 180.512253 463.921878 
L 186.393676 463.942903 
L 192.275099 463.917042 
L 198.156522 463.788737 
L 204.037945 463.6364 
L 209.919368 463.614001 
L 215.800791 463.730263 
L 221.682213 463.835643 
L 227.563636 463.846193 
L 233.445059 463.833973 
L 239.326482 463.900744 
L 245.207905 464.080183 
L 251.089328 464.260636 
L 256.970751 461.376032 
L 262.852174 427.922233 
L 268.733597 388.122353 
L 274.61502 415.539912 
L 280.496443 458.502371 
L 286.377866 464.855632 
L 292.259289 463.62552 
L 298.140711 461.116196 
L 304.022134 459.803559 
L 309.903557 461.480658 
L 315.78498 473.25889 
L 321.666403 501.415709 
L 327.547826 506.710588 
L 333.429249 481.676912 
L 339.310672 467.69046 
L 345.192095 465.778805 
L 351.073518 465.753908 
L 356.954941 465.775339 
L 362.836364 465.661496 
L 368.717787 465.407403 
L 374.599209 465.103679 
L 380.480632 464.888288 
L 386.362055 464.843558 
L 392.243478 464.913704 
L 398.124901 464.963527 
L 404.006324 464.917063 
L 409.887747 464.774922 
L 415.76917 464.575681 
L 421.650593 464.413304 
L 427.532016 464.388232 
L 433.413439 464.486751 
L 439.294862 464.591394 
L 445.176285 464.621617 
L 451.057708 464.593126 
L 456.93913 464.544923 
L 462.820553 464.471116 
L 468.701976 464.35238 
L 474.583399 464.202461 
L 480.464822 464.056121 
L 486.346245 463.976787 
L 492.227668 464.026594 
L 498.109091 464.154536 
" clip-path="url(#pca75d29666)" style="fill: none; stroke: #1f77b4; stroke-width: 1.5; stroke-linecap: square"/>
   </g>
   <g id="patch_13">
    <path d="M 72 512.64 
L 72 382.192941 
" style="fill: none; stroke: #000000; stroke-width: 0.8; stroke-linejoin: miter; stroke-linecap: square"/>
   </g>
   <g id="patch_14">
    <path d="M 518.4 512.64 
L 518.4 382.192941 
" style="fill: none; stroke: #000000; stroke-width: 0.8; stroke-linejoin: miter; stroke-linecap: square"/>
   </g>
   <g id="patch_15">
    <path d="M 72 512.64 
L 518.4 512.64 
" style="fill: none; stroke: #000000; stroke-width: 0.8; stroke-linejoin: miter; stroke-linecap: square"/>
   </g>
   <g id="patch_16">
    <path d="M 72 382.192941 
L 518.4 382.192941 
" style="fill: none; stroke: #000000; stroke-width: 0.8; stroke-linejoin: miter; stroke-linecap: square"/>
   </g>
  </g>
  <g id="legend_1">
   <g id="patch_17">
    <path d="M 475.35 64.9 
L 568.3 64.9 
Q 570.5 64.9 570.5 62.7 
L 570.5 7.7 
Q 570.5 5.5 568.3 5.5 
L 475.35 5.5 
Q 473.15 5.5 473.15 7.7 
L 473.15 62.7 
Q 473.15 64.9 475.35 64.9 
z
" style="fill: #ffffff; opacity: 0.8; stroke: #cccccc; stroke-linejoin: miter"/>
   </g>
   <g id="line2d_45">
    <g>
     <use xlink:href="#m74cb8d3e1c" x="488.55" y="16.94" style="fill: #008000; stroke: #008000"/>
    </g>
   </g>
   <g id="text_38">
    <!-- $\max(\overline{S}(\beta))$ -->
    <g transform="translate(508.35 20.79) scale(0.11 -0.11)">
     <defs>
      <path id="DejaVuSans-6d" d="M 3328 2828 
Q 3544 3216 3844 3400 
Q 4144 3584 4550 3584 
Q 5097 3584 5394 3201 
Q 5691 2819 5691 2113 
L 5691 0 
L 5113 0 
L 5113 2094 
Q 5113 2597 4934 2840 
Q 4756 3084 4391 3084 
Q 3944 3084 3684 2787 
Q 3425 2491 3425 1978 
L 3425 0 
L 2847 0 
L 2847 2094 
Q 2847 2600 2669 2842 
Q 2491 3084 2119 3084 
Q 1678 3084 1418 2786 
Q 1159 2488 1159 1978 
L 1159 0 
L 581 0 
L 581 3500 
L 1159 3500 
L 1159 2956 
Q 1356 3278 1631 3431 
Q 1906 3584 2284 3584 
Q 2666 3584 2933 3390 
Q 3200 3197 3328 2828 
z
" transform="scale(0.015625)"/>
      <path id="DejaVuSans-61" d="M 2194 1759 
Q 1497 1759 1228 1600 
Q 959 1441 959 1056 
Q 959 750 1161 570 
Q 1363 391 1709 391 
Q 2188 391 2477 730 
Q 2766 1069 2766 1631 
L 2766 1759 
L 2194 1759 
z
M 3341 1997 
L 3341 0 
L 2766 0 
L 2766 531 
Q 2569 213 2275 61 
Q 1981 -91 1556 -91 
Q 1019 -91 701 211 
Q 384 513 384 1019 
Q 384 1609 779 1909 
Q 1175 2209 1959 2209 
L 2766 2209 
L 2766 2266 
Q 2766 2663 2505 2880 
Q 2244 3097 1772 3097 
Q 1472 3097 1187 3025 
Q 903 2953 641 2809 
L 641 3341 
Q 956 3463 1253 3523 
Q 1550 3584 1831 3584 
Q 2591 3584 2966 3190 
Q 3341 2797 3341 1997 
z
" transform="scale(0.015625)"/>
      <path id="DejaVuSans-78" d="M 3513 3500 
L 2247 1797 
L 3578 0 
L 2900 0 
L 1881 1375 
L 863 0 
L 184 0 
L 1544 1831 
L 300 3500 
L 978 3500 
L 1906 2253 
L 2834 3500 
L 3513 3500 
z
" transform="scale(0.015625)"/>
     </defs>
     <use xlink:href="#DejaVuSans-6d" transform="translate(0 0.03125)"/>
     <use xlink:href="#DejaVuSans-61" transform="translate(97.412109 0.03125)"/>
     <use xlink:href="#DejaVuSans-78" transform="translate(158.691406 0.03125)"/>
     <use xlink:href="#DejaVuSans-28" transform="translate(217.871094 0.03125)"/>
     <use xlink:href="#DejaVuSans-Oblique-53" transform="translate(256.884766 0.53125)"/>
     <use xlink:href="#DejaVuSans-28" transform="translate(320.361328 0.03125)"/>
     <use xlink:href="#DejaVuSans-Oblique-3b2" transform="translate(359.375 0.03125)"/>
     <use xlink:href="#DejaVuSans-29" transform="translate(423.193359 0.03125)"/>
     <use xlink:href="#DejaVuSans-29" transform="translate(462.207031 0.03125)"/>
     <path d="M 256.884766 86.5 
L 256.884766 92.75 
L 320.361328 92.75 
L 320.361328 86.5 
L 256.884766 86.5 
z
"/>
    </g>
   </g>
   <g id="line2d_46">
    <g>
     <use xlink:href="#me1a280dd2c" x="488.55" y="35.64" style="fill: #bf00bf; stroke: #bf00bf"/>
    </g>
   </g>
   <g id="text_39">
    <!-- $\max(\overline{S}'(\beta))$ -->
    <g transform="translate(508.35 39.49) scale(0.11 -0.11)">
     <use xlink:href="#DejaVuSans-6d" transform="translate(0 0.03125)"/>
     <use xlink:href="#DejaVuSans-61" transform="translate(97.412109 0.03125)"/>
     <use xlink:href="#DejaVuSans-78" transform="translate(158.691406 0.03125)"/>
     <use xlink:href="#DejaVuSans-28" transform="translate(217.871094 0.03125)"/>
     <use xlink:href="#DejaVuSans-Oblique-53" transform="translate(256.884766 0.53125)"/>
     <use xlink:href="#Cmsy10-30" transform="translate(321.318359 38.3125) scale(0.7)"/>
     <use xlink:href="#DejaVuSans-28" transform="translate(343.295898 0.03125)"/>
     <use xlink:href="#DejaVuSans-Oblique-3b2" transform="translate(382.30957 0.03125)"/>
     <use xlink:href="#DejaVuSans-29" transform="translate(446.12793 0.03125)"/>
     <use xlink:href="#DejaVuSans-29" transform="translate(485.141602 0.03125)"/>
     <path d="M 256.884766 86.5 
L 256.884766 92.75 
L 320.361328 92.75 
L 320.361328 86.5 
L 256.884766 86.5 
z
"/>
    </g>
   </g>
   <g id="line2d_47">
    <g>
     <use xlink:href="#m1e5937373d" x="488.55" y="54.34" style="fill: #bfbf00; stroke: #bfbf00"/>
    </g>
   </g>
   <g id="text_40">
    <!-- $\min(\overline{S}'(\beta))$ -->
    <g transform="translate(508.35 58.19) scale(0.11 -0.11)">
     <defs>
      <path id="DejaVuSans-69" d="M 603 3500 
L 1178 3500 
L 1178 0 
L 603 0 
L 603 3500 
z
M 603 4863 
L 1178 4863 
L 1178 4134 
L 603 4134 
L 603 4863 
z
" transform="scale(0.015625)"/>
      <path id="DejaVuSans-6e" d="M 3513 2113 
L 3513 0 
L 2938 0 
L 2938 2094 
Q 2938 2591 2744 2837 
Q 2550 3084 2163 3084 
Q 1697 3084 1428 2787 
Q 1159 2491 1159 1978 
L 1159 0 
L 581 0 
L 581 3500 
L 1159 3500 
L 1159 2956 
Q 1366 3272 1645 3428 
Q 1925 3584 2291 3584 
Q 2894 3584 3203 3211 
Q 3513 2838 3513 2113 
z
" transform="scale(0.015625)"/>
     </defs>
     <use xlink:href="#DejaVuSans-6d" transform="translate(0 0.03125)"/>
     <use xlink:href="#DejaVuSans-69" transform="translate(97.412109 0.03125)"/>
     <use xlink:href="#DejaVuSans-6e" transform="translate(125.195312 0.03125)"/>
     <use xlink:href="#DejaVuSans-28" transform="translate(188.574219 0.03125)"/>
     <use xlink:href="#DejaVuSans-Oblique-53" transform="translate(227.587891 0.53125)"/>
     <use xlink:href="#Cmsy10-30" transform="translate(292.021484 38.3125) scale(0.7)"/>
     <use xlink:href="#DejaVuSans-28" transform="translate(313.999023 0.03125)"/>
     <use xlink:href="#DejaVuSans-Oblique-3b2" transform="translate(353.012695 0.03125)"/>
     <use xlink:href="#DejaVuSans-29" transform="translate(416.831055 0.03125)"/>
     <use xlink:href="#DejaVuSans-29" transform="translate(455.844727 0.03125)"/>
     <path d="M 227.587891 86.5 
L 227.587891 92.75 
L 291.064453 92.75 
L 291.064453 86.5 
L 227.587891 86.5 
z
"/>
    </g>
   </g>
  </g>
 </g>
 <defs>
  <clipPath id="pd1a612d2ec">
   <rect x="72" y="69.12" width="446.4" height="130.447059"/>
  </clipPath>
  <clipPath id="p1e9e3066c9">
   <rect x="72" y="225.656471" width="446.4" height="130.447059"/>
  </clipPath>
  <clipPath id="pca75d29666">
   <rect x="72" y="382.192941" width="446.4" height="130.447059"/>
  </clipPath>
 </defs>
</svg>
