<?xml version="1.0" encoding="utf-8" standalone="no"?>
<!DOCTYPE svg PUBLIC "-//W3C//DTD SVG 1.1//EN"
  "http://www.w3.org/Graphics/SVG/1.1/DTD/svg11.dtd">
<svg xmlns:xlink="http://www.w3.org/1999/xlink" width="576pt" height="432pt" viewBox="0 0 576 432" xmlns="http://www.w3.org/2000/svg" version="1.1">
 <metadata>
  <rdf:RDF xmlns:dc="http://purl.org/dc/elements/1.1/" xmlns:cc="http://creativecommons.org/ns#" xmlns:rdf="http://www.w3.org/1999/02/22-rdf-syntax-ns#">
   <cc:Work>
    <dc:type rdf:resource="http://purl.org/dc/dcmitype/StillImage"/>
    <dc:date>2024-05-19T22:46:05.409955</dc:date>
    <dc:format>image/svg+xml</dc:format>
    <dc:creator>
     <cc:Agent>
      <dc:title>Matplotlib v3.8.0, https://matplotlib.org/</dc:title>
     </cc:Agent>
    </dc:creator>
   </cc:Work>
  </rdf:RDF>
 </metadata>
 <defs>
  <style type="text/css">*{stroke-linejoin: round; stroke-linecap: butt}</style>
 </defs>
 <g id="figure_1">
  <g id="patch_1">
   <path d="M 0 432 
L 576 432 
L 576 0 
L 0 0 
z
" style="fill: #ffffff"/>
  </g>
  <g id="axes_1">
   <g id="patch_2">
    <path d="M 72 384.48 
L 518.4 384.48 
L 518.4 51.84 
L 72 51.84 
z
" style="fill: #ffffff"/>
   </g>
   <g id="PolyCollection_1">
    <path d="M 92.290909 357.518594 
L 92.290909 360.888131 
L 96.349091 360.764703 
L 100.407273 360.687532 
L 104.465455 360.670988 
L 108.523636 360.717373 
L 112.581818 360.815144 
L 116.64 360.940358 
L 120.698182 361.061464 
L 124.756364 361.145934 
L 128.814545 361.166546 
L 132.872727 361.10561 
L 136.930909 360.956351 
L 140.989091 360.721441 
L 145.047273 360.409231 
L 149.105455 360.028702 
L 153.163636 359.58446 
L 157.221818 359.073053 
L 161.28 358.481544 
L 165.338182 357.788596 
L 169.396364 356.967836 
L 173.454545 355.993305 
L 177.512727 354.847594 
L 181.570909 353.535886 
L 185.629091 352.106853 
L 189.687273 350.621977 
L 193.745455 349.052997 
L 197.803636 347.329319 
L 201.861818 345.399145 
L 205.92 343.221018 
L 209.978182 340.754192 
L 214.036364 337.957246 
L 218.094545 334.792097 
L 222.152727 331.232107 
L 226.210909 327.27306 
L 230.269091 322.944316 
L 234.327273 318.315223 
L 238.385455 313.490588 
L 242.443636 308.592897 
L 246.501818 303.739243 
L 250.56 299.025856 
L 254.618182 294.524013 
L 258.676364 290.281748 
L 262.734545 286.326722 
L 266.792727 282.669431 
L 270.850909 279.307143 
L 274.909091 276.228669 
L 278.967273 273.419682 
L 283.025455 270.868169 
L 287.083636 268.569433 
L 291.141818 266.529989 
L 295.2 264.769727 
L 299.258182 263.321667 
L 303.316364 262.228211 
L 307.374545 261.531812 
L 311.432727 261.259134 
L 315.490909 261.406697 
L 319.549091 261.942888 
L 323.607273 262.824571 
L 327.665455 264.010377 
L 331.723636 265.463416 
L 335.781818 267.147869 
L 339.84 269.024226 
L 343.898182 271.046056 
L 347.956364 273.160405 
L 352.014545 275.312207 
L 356.072727 277.45058 
L 360.130909 279.534019 
L 364.189091 281.532654 
L 368.247273 283.427418 
L 372.305455 285.207117 
L 376.363636 286.864815 
L 380.421818 288.394918 
L 384.48 289.79185 
L 388.538182 291.050536 
L 392.596364 292.168416 
L 396.654545 293.148543 
L 400.712727 294.003524 
L 404.770909 294.76053 
L 408.829091 295.467405 
L 412.887273 296.193232 
L 416.945455 296.997976 
L 421.003636 297.880743 
L 425.061818 298.795293 
L 429.12 299.7004 
L 433.178182 300.573095 
L 437.236364 301.403554 
L 441.294545 302.190155 
L 445.352727 302.936683 
L 449.410909 303.650616 
L 453.469091 304.341673 
L 457.527273 305.019952 
L 461.585455 305.693174 
L 465.643636 306.363403 
L 469.701818 307.025417 
L 473.76 307.668959 
L 477.818182 308.283719 
L 481.876364 308.863355 
L 485.934545 309.406728 
L 489.992727 309.917259 
L 494.050909 310.401993 
L 498.109091 310.871548 
L 498.109091 309.482104 
L 498.109091 309.482104 
L 494.050909 308.848581 
L 489.992727 308.219327 
L 485.934545 307.597016 
L 481.876364 306.97688 
L 477.818182 306.348902 
L 473.76 305.699333 
L 469.701818 305.012366 
L 465.643636 304.273253 
L 461.585455 303.473493 
L 457.527273 302.616108 
L 453.469091 301.717207 
L 449.410909 300.802698 
L 445.352727 299.902577 
L 441.294545 299.045225 
L 437.236364 298.252519 
L 433.178182 297.535697 
L 429.12 296.891783 
L 425.061818 296.300082 
L 421.003636 295.717819 
L 416.945455 295.076872 
L 412.887273 294.299764 
L 408.829091 293.35322 
L 404.770909 292.266704 
L 400.712727 291.082988 
L 396.654545 289.829017 
L 392.596364 288.51651 
L 388.538182 287.14714 
L 384.48 285.716143 
L 380.421818 284.215042 
L 376.363636 282.634318 
L 372.305455 280.966224 
L 368.247273 279.207414 
L 364.189091 277.360825 
L 360.130909 275.436464 
L 356.072727 273.451163 
L 352.014545 271.427882 
L 347.956364 269.395301 
L 343.898182 267.388325 
L 339.84 265.449351 
L 335.781818 263.628882 
L 331.723636 261.983149 
L 327.665455 260.567508 
L 323.607273 259.426908 
L 319.549091 258.586335 
L 315.490909 258.044791 
L 311.432727 257.777946 
L 307.374545 257.753995 
L 303.316364 257.955207 
L 299.258182 258.386649 
L 295.2 259.069435 
L 291.141818 260.032295 
L 287.083636 261.308241 
L 283.025455 262.934245 
L 278.967273 264.950893 
L 274.909091 267.400266 
L 270.850909 270.32128 
L 266.792727 273.742327 
L 262.734545 277.671897 
L 258.676364 282.088753 
L 254.618182 286.934261 
L 250.56 292.109933 
L 246.501818 297.48324 
L 242.443636 302.903377 
L 238.385455 308.224957 
L 234.327273 313.331035 
L 230.269091 318.144054 
L 226.210909 322.622621 
L 222.152727 326.752978 
L 218.094545 330.542069 
L 214.036364 334.011858 
L 209.978182 337.19272 
L 205.92 340.11561 
L 201.861818 342.804427 
L 197.803636 345.269963 
L 193.745455 347.505051 
L 189.687273 349.477338 
L 185.629091 351.127147 
L 181.570909 352.436355 
L 177.512727 353.482526 
L 173.454545 354.340319 
L 169.396364 355.051194 
L 165.338182 355.641367 
L 161.28 356.130633 
L 157.221818 356.534576 
L 153.163636 356.864942 
L 149.105455 357.130081 
L 145.047273 357.335923 
L 140.989091 357.487236 
L 136.930909 357.588771 
L 132.872727 357.646044 
L 128.814545 357.665703 
L 124.756364 357.655509 
L 120.698182 357.624003 
L 116.64 357.580043 
L 112.581818 357.532471 
L 108.523636 357.490042 
L 104.465455 357.461314 
L 100.407273 357.453864 
L 96.349091 357.472666 
L 92.290909 357.518594 
z
" clip-path="url(#p3fb6cc1199)" style="fill: #1f77b4; fill-opacity: 0.4"/>
   </g>
   <g id="PolyCollection_2">
    <path d="M 92.290909 357.366232 
L 92.290909 359.748467 
L 96.349091 359.597043 
L 100.407273 359.615654 
L 104.465455 360.124501 
L 108.523636 360.693051 
L 112.581818 361.145158 
L 116.64 361.4465 
L 120.698182 361.572739 
L 124.756364 361.510358 
L 128.814545 361.269462 
L 132.872727 360.896031 
L 136.930909 360.483921 
L 140.989091 360.170668 
L 145.047273 360.014925 
L 149.105455 359.937984 
L 153.163636 359.877096 
L 157.221818 359.810656 
L 161.28 359.733503 
L 165.338182 359.646375 
L 169.396364 359.552526 
L 173.454545 359.456084 
L 177.512727 359.360454 
L 181.570909 359.267047 
L 185.629091 359.17583 
L 189.687273 359.099192 
L 193.745455 359.199242 
L 197.803636 359.460902 
L 201.861818 359.701889 
L 205.92 359.870708 
L 209.978182 359.922928 
L 214.036364 359.799973 
L 218.094545 359.412733 
L 222.152727 358.618139 
L 226.210909 357.181918 
L 230.269091 354.717042 
L 234.327273 350.593313 
L 238.385455 343.859879 
L 242.443636 333.319543 
L 246.501818 317.977874 
L 250.56 297.947721 
L 254.618182 275.238849 
L 258.676364 253.297525 
L 262.734545 235.223371 
L 266.792727 222.342438 
L 270.850909 214.273567 
L 274.909091 209.850923 
L 278.967273 207.937077 
L 283.025455 207.757792 
L 287.083636 208.857939 
L 291.141818 210.968051 
L 295.2 213.947128 
L 299.258182 217.737411 
L 303.316364 222.295801 
L 307.374545 227.539169 
L 311.432727 233.326794 
L 315.490909 239.482551 
L 319.549091 245.814126 
L 323.607273 252.080662 
L 327.665455 258.043834 
L 331.723636 263.548675 
L 335.781818 268.520518 
L 339.84 272.937841 
L 343.898182 276.810808 
L 347.956364 280.168159 
L 352.014545 283.050979 
L 356.072727 285.511135 
L 360.130909 287.612533 
L 364.189091 289.433844 
L 368.247273 291.063097 
L 372.305455 292.561168 
L 376.363636 293.937253 
L 380.421818 295.186774 
L 384.48 296.311261 
L 388.538182 297.312094 
L 392.596364 298.188157 
L 396.654545 298.939951 
L 400.712727 299.57535 
L 404.770909 300.113964 
L 408.829091 300.589741 
L 412.887273 301.051292 
L 416.945455 301.547491 
L 421.003636 302.089147 
L 425.061818 302.647767 
L 429.12 303.195708 
L 433.178182 303.719796 
L 437.236364 304.216435 
L 441.294545 304.686457 
L 445.352727 305.132095 
L 449.410909 305.555383 
L 453.469091 305.957727 
L 457.527273 306.341201 
L 461.585455 306.715821 
L 465.643636 307.13475 
L 469.701818 307.636667 
L 473.76 308.128154 
L 477.818182 308.588465 
L 481.876364 309.029894 
L 485.934545 309.463567 
L 489.992727 309.893442 
L 494.050909 310.320662 
L 498.109091 310.754676 
L 498.109091 309.625735 
L 498.109091 309.625735 
L 494.050909 309.224406 
L 489.992727 308.83404 
L 485.934545 308.475499 
L 481.876364 308.150163 
L 477.818182 307.848158 
L 473.76 307.553647 
L 469.701818 307.245134 
L 465.643636 306.871846 
L 461.585455 306.325254 
L 457.527273 305.650708 
L 453.469091 304.929014 
L 449.410909 304.210276 
L 445.352727 303.536318 
L 441.294545 302.936178 
L 437.236364 302.421015 
L 433.178182 301.984214 
L 429.12 301.605522 
L 425.061818 301.255392 
L 421.003636 300.89544 
L 416.945455 300.475882 
L 412.887273 299.94873 
L 408.829091 299.306639 
L 404.770909 298.581153 
L 400.712727 297.805239 
L 396.654545 297.000321 
L 392.596364 296.176972 
L 388.538182 295.33523 
L 384.48 294.4634 
L 380.421818 293.535983 
L 376.363636 292.510246 
L 372.305455 291.31993 
L 368.247273 289.871307 
L 364.189091 288.072376 
L 360.130909 285.885024 
L 356.072727 283.31508 
L 352.014545 280.384564 
L 347.956364 277.124117 
L 343.898182 273.561817 
L 339.84 269.704937 
L 335.781818 265.526209 
L 331.723636 260.967369 
L 327.665455 255.965291 
L 323.607273 250.491533 
L 319.549091 244.582995 
L 315.490909 238.360692 
L 311.432727 232.074267 
L 307.374545 226.064691 
L 303.316364 220.626719 
L 299.258182 215.951447 
L 295.2 212.130578 
L 291.141818 209.183833 
L 287.083636 207.098043 
L 283.025455 205.884679 
L 278.967273 205.683422 
L 274.909091 206.867791 
L 270.850909 210.05231 
L 266.792727 216.045098 
L 262.734545 225.770553 
L 258.676364 239.96332 
L 254.618182 258.490298 
L 250.56 279.716201 
L 246.501818 300.772403 
L 242.443636 318.90315 
L 238.385455 332.71091 
L 234.327273 342.272877 
L 230.269091 348.471655 
L 226.210909 352.338645 
L 222.152727 354.722413 
L 218.094545 356.209138 
L 214.036364 357.162296 
L 209.978182 357.793871 
L 205.92 358.22502 
L 201.861818 358.525917 
L 197.803636 358.737711 
L 193.745455 358.873217 
L 189.687273 358.803779 
L 185.629091 358.559556 
L 181.570909 358.336623 
L 177.512727 358.166083 
L 173.454545 358.050637 
L 169.396364 357.983435 
L 165.338182 357.958306 
L 161.28 357.978384 
L 157.221818 358.059055 
L 153.163636 358.222041 
L 149.105455 358.480051 
L 145.047273 358.812078 
L 140.989091 359.129533 
L 136.930909 359.302342 
L 132.872727 359.323596 
L 128.814545 359.268386 
L 124.756364 359.18742 
L 120.698182 359.111503 
L 116.64 359.061727 
L 112.581818 359.050795 
L 108.523636 359.080867 
L 104.465455 359.132115 
L 100.407273 359.027537 
L 96.349091 358.329576 
L 92.290909 357.366232 
z
" clip-path="url(#p3fb6cc1199)" style="fill: #ff7f0e; fill-opacity: 0.4"/>
   </g>
   <g id="PolyCollection_3">
    <path d="M 92.290909 358.957944 
L 92.290909 369.36 
L 96.349091 366.924411 
L 100.407273 364.646013 
L 104.465455 362.771713 
L 108.523636 361.313258 
L 112.581818 360.623155 
L 116.64 360.695926 
L 120.698182 360.775744 
L 124.756364 360.763832 
L 128.814545 360.653515 
L 132.872727 360.496661 
L 136.930909 360.397155 
L 140.989091 360.390059 
L 145.047273 360.394216 
L 149.105455 360.352287 
L 153.163636 360.267219 
L 157.221818 360.178372 
L 161.28 360.109738 
L 165.338182 360.034572 
L 169.396364 359.924589 
L 173.454545 359.773755 
L 177.512727 359.588289 
L 181.570909 359.388827 
L 185.629091 359.204537 
L 189.687273 359.028709 
L 193.745455 358.828511 
L 197.803636 358.693715 
L 201.861818 358.819296 
L 205.92 359.246054 
L 209.978182 359.826927 
L 214.036364 360.282813 
L 218.094545 360.258572 
L 222.152727 359.443046 
L 226.210909 358.408679 
L 230.269091 357.849974 
L 234.327273 355.577955 
L 238.385455 346.266355 
L 242.443636 317.487805 
L 246.501818 259.868658 
L 250.56 199.501029 
L 254.618182 166.253938 
L 258.676364 153.674427 
L 262.734545 148.968197 
L 266.792727 146.252601 
L 270.850909 144.151415 
L 274.909091 142.50534 
L 278.967273 141.387124 
L 283.025455 141.043415 
L 287.083636 142.181202 
L 291.141818 147.243198 
L 295.2 160.629675 
L 299.258182 185.529721 
L 303.316364 218.437715 
L 307.374545 247.542783 
L 311.432727 265.436366 
L 315.490909 274.174527 
L 319.549091 278.277105 
L 323.607273 280.628829 
L 327.665455 282.484584 
L 331.723636 284.247436 
L 335.781818 285.923262 
L 339.84 287.352172 
L 343.898182 288.399224 
L 347.956364 289.065816 
L 352.014545 289.565242 
L 356.072727 290.154791 
L 360.130909 290.831257 
L 364.189091 291.546157 
L 368.247273 292.30434 
L 372.305455 293.131906 
L 376.363636 294.037612 
L 380.421818 294.995491 
L 384.48 295.946682 
L 388.538182 296.791296 
L 392.596364 297.454775 
L 396.654545 297.972786 
L 400.712727 298.422477 
L 404.770909 298.862261 
L 408.829091 299.330025 
L 412.887273 299.839557 
L 416.945455 300.379083 
L 421.003636 300.927783 
L 425.061818 301.469348 
L 429.12 302.000934 
L 433.178182 302.542745 
L 437.236364 303.099341 
L 441.294545 303.636952 
L 445.352727 304.161076 
L 449.410909 304.68722 
L 453.469091 305.188967 
L 457.527273 305.657143 
L 461.585455 306.164305 
L 465.643636 306.755729 
L 469.701818 307.341165 
L 473.76 307.799933 
L 477.818182 308.040251 
L 481.876364 308.129138 
L 485.934545 308.331457 
L 489.992727 308.692044 
L 494.050909 309.106301 
L 498.109091 309.519009 
L 498.109091 307.106047 
L 498.109091 307.106047 
L 494.050909 306.524448 
L 489.992727 306.473976 
L 485.934545 306.747491 
L 481.876364 306.925068 
L 477.818182 306.782419 
L 473.76 306.492305 
L 469.701818 306.186652 
L 465.643636 305.884421 
L 461.585455 305.531195 
L 457.527273 305.049153 
L 453.469091 304.48629 
L 449.410909 303.938954 
L 445.352727 303.426565 
L 441.294545 302.918541 
L 437.236364 302.383671 
L 433.178182 301.773171 
L 429.12 301.039594 
L 425.061818 300.2304 
L 421.003636 299.435536 
L 416.945455 298.704839 
L 412.887273 298.041664 
L 408.829091 297.430481 
L 404.770909 296.87084 
L 400.712727 296.381414 
L 396.654545 295.949702 
L 392.596364 295.478096 
L 388.538182 294.79209 
L 384.48 293.698687 
L 380.421818 292.10555 
L 376.363636 290.213382 
L 372.305455 288.473713 
L 368.247273 287.305138 
L 364.189091 286.865425 
L 360.130909 287.007544 
L 356.072727 287.369213 
L 352.014545 287.46968 
L 347.956364 286.882993 
L 343.898182 285.547267 
L 339.84 283.599897 
L 335.781818 281.255354 
L 331.723636 278.663579 
L 327.665455 275.586393 
L 323.607273 271.174616 
L 319.549091 263.895338 
L 315.490909 251.616067 
L 311.432727 232.334204 
L 307.374545 206.740163 
L 303.316364 180.891123 
L 299.258182 161.691157 
L 295.2 150.085542 
L 291.141818 143.614387 
L 287.083636 139.89566 
L 283.025455 138.247818 
L 278.967273 138.26332 
L 274.909091 139.321534 
L 270.850909 141.044953 
L 266.792727 143.180353 
L 262.734545 145.583257 
L 258.676364 147.931223 
L 254.618182 148.5255 
L 250.56 145.721567 
L 246.501818 149.353853 
L 242.443636 190.282578 
L 238.385455 262.370281 
L 234.327273 317.446271 
L 230.269091 343.537086 
L 226.210909 353.285631 
L 222.152727 355.546586 
L 218.094545 355.480059 
L 214.036364 355.383783 
L 209.978182 355.677115 
L 205.92 356.300122 
L 201.861818 357.031282 
L 197.803636 357.652539 
L 193.745455 358.080516 
L 189.687273 358.392528 
L 185.629091 358.612061 
L 181.570909 358.704377 
L 177.512727 358.704054 
L 173.454545 358.692127 
L 169.396364 358.725699 
L 165.338182 358.812451 
L 161.28 358.906892 
L 157.221818 358.93044 
L 153.163636 358.852584 
L 149.105455 358.76325 
L 145.047273 358.784675 
L 140.989091 358.940281 
L 136.930909 359.111261 
L 132.872727 359.130149 
L 128.814545 358.994044 
L 124.756364 358.853234 
L 120.698182 358.883189 
L 116.64 359.230915 
L 112.581818 359.904179 
L 108.523636 360.159761 
L 104.465455 359.960256 
L 100.407273 359.671806 
L 96.349091 359.324582 
L 92.290909 358.957944 
z
" clip-path="url(#p3fb6cc1199)" style="fill: #2ca02c; fill-opacity: 0.4"/>
   </g>
   <g id="PolyCollection_4">
    <path d="M 92.290909 358.542587 
L 92.290909 359.277092 
L 96.349091 359.346132 
L 100.407273 359.515341 
L 104.465455 359.622595 
L 108.523636 359.967721 
L 112.581818 360.148625 
L 116.64 360.047601 
L 120.698182 359.949289 
L 124.756364 359.98712 
L 128.814545 360.065949 
L 132.872727 360.075737 
L 136.930909 360.084004 
L 140.989091 360.08621 
L 145.047273 360.122414 
L 149.105455 360.370287 
L 153.163636 360.591597 
L 157.221818 360.353522 
L 161.28 359.729769 
L 165.338182 359.27388 
L 169.396364 359.297707 
L 173.454545 359.57122 
L 177.512727 359.812384 
L 181.570909 359.911422 
L 185.629091 359.95029 
L 189.687273 360.046678 
L 193.745455 360.145955 
L 197.803636 360.07745 
L 201.861818 359.798554 
L 205.92 359.562073 
L 209.978182 359.507817 
L 214.036364 359.514241 
L 218.094545 359.464276 
L 222.152727 359.380412 
L 226.210909 359.5234 
L 230.269091 360.77963 
L 234.327273 363.576575 
L 238.385455 366.366411 
L 242.443636 318.931531 
L 246.501818 128.494723 
L 250.56 94.311681 
L 254.618182 103.357911 
L 258.676364 111.033148 
L 262.734545 109.427032 
L 266.792727 99.245096 
L 270.850909 87.049282 
L 274.909091 82.557627 
L 278.967273 116.079821 
L 283.025455 206.218368 
L 287.083636 247.914271 
L 291.141818 255.577126 
L 295.2 259.009614 
L 299.258182 262.184281 
L 303.316364 265.255375 
L 307.374545 268.215529 
L 311.432727 270.965058 
L 315.490909 273.243876 
L 319.549091 275.05862 
L 323.607273 276.697339 
L 327.665455 278.464512 
L 331.723636 280.400063 
L 335.781818 282.22803 
L 339.84 283.792962 
L 343.898182 285.119982 
L 347.956364 286.212764 
L 352.014545 287.057936 
L 356.072727 287.87065 
L 360.130909 288.963864 
L 364.189091 290.311156 
L 368.247273 291.54489 
L 372.305455 292.728489 
L 376.363636 293.922714 
L 380.421818 294.945327 
L 384.48 295.744221 
L 388.538182 296.332829 
L 392.596364 296.771557 
L 396.654545 297.121853 
L 400.712727 297.491016 
L 404.770909 297.872336 
L 408.829091 298.338247 
L 412.887273 299.108611 
L 416.945455 299.859429 
L 421.003636 300.491318 
L 425.061818 301.177182 
L 429.12 301.994969 
L 433.178182 302.879378 
L 437.236364 303.753619 
L 441.294545 304.47322 
L 445.352727 304.978261 
L 449.410909 305.449661 
L 453.469091 306.07366 
L 457.527273 306.646466 
L 461.585455 307.11459 
L 465.643636 307.317914 
L 469.701818 307.19567 
L 473.76 307.0203 
L 477.818182 307.219784 
L 481.876364 307.831063 
L 485.934545 308.527381 
L 489.992727 309.006413 
L 494.050909 309.19312 
L 498.109091 309.342375 
L 498.109091 308.936903 
L 498.109091 308.936903 
L 494.050909 308.696615 
L 489.992727 308.510635 
L 485.934545 308.174207 
L 481.876364 307.544008 
L 477.818182 306.869393 
L 473.76 306.463057 
L 469.701818 306.330743 
L 465.643636 306.279862 
L 461.585455 306.135603 
L 457.527273 305.877159 
L 453.469091 305.574856 
L 449.410909 305.256391 
L 445.352727 304.558819 
L 441.294545 303.527352 
L 437.236364 302.473868 
L 433.178182 301.624485 
L 429.12 301.037854 
L 425.061818 300.609197 
L 421.003636 300.020586 
L 416.945455 299.186456 
L 412.887273 298.436398 
L 408.829091 297.806534 
L 404.770909 296.881161 
L 400.712727 295.973797 
L 396.654545 295.482486 
L 392.596364 295.369471 
L 388.538182 295.269039 
L 384.48 294.882542 
L 380.421818 294.198213 
L 376.363636 293.278567 
L 372.305455 292.223588 
L 368.247273 290.988789 
L 364.189091 289.66235 
L 360.130909 288.407446 
L 356.072727 287.135459 
L 352.014545 286.021044 
L 347.956364 285.136582 
L 343.898182 284.140488 
L 339.84 282.690354 
L 335.781818 280.881075 
L 331.723636 279.014913 
L 327.665455 277.276507 
L 323.607273 275.670969 
L 319.549091 274.088252 
L 315.490909 272.241724 
L 311.432727 269.909587 
L 307.374545 267.038471 
L 303.316364 263.748479 
L 299.258182 260.46451 
L 295.2 257.527285 
L 291.141818 254.444097 
L 287.083636 243.66267 
L 283.025455 188.614113 
L 278.967273 98.812224 
L 274.909091 69.748049 
L 270.850909 66.96 
L 266.792727 68.161026 
L 262.734545 70.501922 
L 258.676364 73.824624 
L 254.618182 77.834653 
L 250.56 83.874053 
L 246.501818 87.01168 
L 242.443636 170.725579 
L 238.385455 337.486322 
L 234.327273 357.671626 
L 230.269091 358.848509 
L 226.210909 358.891178 
L 222.152727 358.578235 
L 218.094545 358.438394 
L 214.036364 358.363251 
L 209.978182 358.234864 
L 205.92 358.223492 
L 201.861818 358.532024 
L 197.803636 359.046034 
L 193.745455 359.378039 
L 189.687273 359.287474 
L 185.629091 358.956659 
L 181.570909 358.638848 
L 177.512727 358.446319 
L 173.454545 358.308648 
L 169.396364 358.172898 
L 165.338182 358.237583 
L 161.28 358.615281 
L 157.221818 359.112515 
L 153.163636 359.403231 
L 149.105455 359.416783 
L 145.047273 359.323184 
L 140.989091 359.283848 
L 136.930909 359.356387 
L 132.872727 359.378265 
L 128.814545 359.223358 
L 124.756364 358.958112 
L 120.698182 358.780307 
L 116.64 358.836744 
L 112.581818 358.998088 
L 108.523636 359.158927 
L 104.465455 359.164941 
L 100.407273 358.824603 
L 96.349091 358.621087 
L 92.290909 358.542587 
z
" clip-path="url(#p3fb6cc1199)" style="fill: #d62728; fill-opacity: 0.4"/>
   </g>
   <g id="matplotlib.axis_1">
    <g id="xtick_1">
     <g id="line2d_1">
      <defs>
       <path id="m75043f76a9" d="M 0 0 
L 0 3.5 
" style="stroke: #000000; stroke-width: 0.8"/>
      </defs>
      <g>
       <use xlink:href="#m75043f76a9" x="132.872727" y="384.48" style="stroke: #000000; stroke-width: 0.8"/>
      </g>
     </g>
     <g id="text_1">
      <!-- 10.76 -->
      <g transform="translate(117.127259 399.838281) scale(0.11 -0.11)">
       <defs>
        <path id="DejaVuSans-31" d="M 794 531 
L 1825 531 
L 1825 4091 
L 703 3866 
L 703 4441 
L 1819 4666 
L 2450 4666 
L 2450 531 
L 3481 531 
L 3481 0 
L 794 0 
L 794 531 
z
" transform="scale(0.015625)"/>
        <path id="DejaVuSans-30" d="M 2034 4250 
Q 1547 4250 1301 3770 
Q 1056 3291 1056 2328 
Q 1056 1369 1301 889 
Q 1547 409 2034 409 
Q 2525 409 2770 889 
Q 3016 1369 3016 2328 
Q 3016 3291 2770 3770 
Q 2525 4250 2034 4250 
z
M 2034 4750 
Q 2819 4750 3233 4129 
Q 3647 3509 3647 2328 
Q 3647 1150 3233 529 
Q 2819 -91 2034 -91 
Q 1250 -91 836 529 
Q 422 1150 422 2328 
Q 422 3509 836 4129 
Q 1250 4750 2034 4750 
z
" transform="scale(0.015625)"/>
        <path id="DejaVuSans-2e" d="M 684 794 
L 1344 794 
L 1344 0 
L 684 0 
L 684 794 
z
" transform="scale(0.015625)"/>
        <path id="DejaVuSans-37" d="M 525 4666 
L 3525 4666 
L 3525 4397 
L 1831 0 
L 1172 0 
L 2766 4134 
L 525 4134 
L 525 4666 
z
" transform="scale(0.015625)"/>
        <path id="DejaVuSans-36" d="M 2113 2584 
Q 1688 2584 1439 2293 
Q 1191 2003 1191 1497 
Q 1191 994 1439 701 
Q 1688 409 2113 409 
Q 2538 409 2786 701 
Q 3034 994 3034 1497 
Q 3034 2003 2786 2293 
Q 2538 2584 2113 2584 
z
M 3366 4563 
L 3366 3988 
Q 3128 4100 2886 4159 
Q 2644 4219 2406 4219 
Q 1781 4219 1451 3797 
Q 1122 3375 1075 2522 
Q 1259 2794 1537 2939 
Q 1816 3084 2150 3084 
Q 2853 3084 3261 2657 
Q 3669 2231 3669 1497 
Q 3669 778 3244 343 
Q 2819 -91 2113 -91 
Q 1303 -91 875 529 
Q 447 1150 447 2328 
Q 447 3434 972 4092 
Q 1497 4750 2381 4750 
Q 2619 4750 2861 4703 
Q 3103 4656 3366 4563 
z
" transform="scale(0.015625)"/>
       </defs>
       <use xlink:href="#DejaVuSans-31"/>
       <use xlink:href="#DejaVuSans-30" x="63.623047"/>
       <use xlink:href="#DejaVuSans-2e" x="127.246094"/>
       <use xlink:href="#DejaVuSans-37" x="159.033203"/>
       <use xlink:href="#DejaVuSans-36" x="222.65625"/>
      </g>
     </g>
    </g>
    <g id="xtick_2">
     <g id="line2d_2">
      <g>
       <use xlink:href="#m75043f76a9" x="214.036364" y="384.48" style="stroke: #000000; stroke-width: 0.8"/>
      </g>
     </g>
     <g id="text_2">
      <!-- 10.78 -->
      <g transform="translate(198.290895 399.838281) scale(0.11 -0.11)">
       <defs>
        <path id="DejaVuSans-38" d="M 2034 2216 
Q 1584 2216 1326 1975 
Q 1069 1734 1069 1313 
Q 1069 891 1326 650 
Q 1584 409 2034 409 
Q 2484 409 2743 651 
Q 3003 894 3003 1313 
Q 3003 1734 2745 1975 
Q 2488 2216 2034 2216 
z
M 1403 2484 
Q 997 2584 770 2862 
Q 544 3141 544 3541 
Q 544 4100 942 4425 
Q 1341 4750 2034 4750 
Q 2731 4750 3128 4425 
Q 3525 4100 3525 3541 
Q 3525 3141 3298 2862 
Q 3072 2584 2669 2484 
Q 3125 2378 3379 2068 
Q 3634 1759 3634 1313 
Q 3634 634 3220 271 
Q 2806 -91 2034 -91 
Q 1263 -91 848 271 
Q 434 634 434 1313 
Q 434 1759 690 2068 
Q 947 2378 1403 2484 
z
M 1172 3481 
Q 1172 3119 1398 2916 
Q 1625 2713 2034 2713 
Q 2441 2713 2670 2916 
Q 2900 3119 2900 3481 
Q 2900 3844 2670 4047 
Q 2441 4250 2034 4250 
Q 1625 4250 1398 4047 
Q 1172 3844 1172 3481 
z
" transform="scale(0.015625)"/>
       </defs>
       <use xlink:href="#DejaVuSans-31"/>
       <use xlink:href="#DejaVuSans-30" x="63.623047"/>
       <use xlink:href="#DejaVuSans-2e" x="127.246094"/>
       <use xlink:href="#DejaVuSans-37" x="159.033203"/>
       <use xlink:href="#DejaVuSans-38" x="222.65625"/>
      </g>
     </g>
    </g>
    <g id="xtick_3">
     <g id="line2d_3">
      <g>
       <use xlink:href="#m75043f76a9" x="295.2" y="384.48" style="stroke: #000000; stroke-width: 0.8"/>
      </g>
     </g>
     <g id="text_3">
      <!-- 10.80 -->
      <g transform="translate(279.454531 399.838281) scale(0.11 -0.11)">
       <use xlink:href="#DejaVuSans-31"/>
       <use xlink:href="#DejaVuSans-30" x="63.623047"/>
       <use xlink:href="#DejaVuSans-2e" x="127.246094"/>
       <use xlink:href="#DejaVuSans-38" x="159.033203"/>
       <use xlink:href="#DejaVuSans-30" x="222.65625"/>
      </g>
     </g>
    </g>
    <g id="xtick_4">
     <g id="line2d_4">
      <g>
       <use xlink:href="#m75043f76a9" x="376.363636" y="384.48" style="stroke: #000000; stroke-width: 0.8"/>
      </g>
     </g>
     <g id="text_4">
      <!-- 10.82 -->
      <g transform="translate(360.618168 399.838281) scale(0.11 -0.11)">
       <defs>
        <path id="DejaVuSans-32" d="M 1228 531 
L 3431 531 
L 3431 0 
L 469 0 
L 469 531 
Q 828 903 1448 1529 
Q 2069 2156 2228 2338 
Q 2531 2678 2651 2914 
Q 2772 3150 2772 3378 
Q 2772 3750 2511 3984 
Q 2250 4219 1831 4219 
Q 1534 4219 1204 4116 
Q 875 4013 500 3803 
L 500 4441 
Q 881 4594 1212 4672 
Q 1544 4750 1819 4750 
Q 2544 4750 2975 4387 
Q 3406 4025 3406 3419 
Q 3406 3131 3298 2873 
Q 3191 2616 2906 2266 
Q 2828 2175 2409 1742 
Q 1991 1309 1228 531 
z
" transform="scale(0.015625)"/>
       </defs>
       <use xlink:href="#DejaVuSans-31"/>
       <use xlink:href="#DejaVuSans-30" x="63.623047"/>
       <use xlink:href="#DejaVuSans-2e" x="127.246094"/>
       <use xlink:href="#DejaVuSans-38" x="159.033203"/>
       <use xlink:href="#DejaVuSans-32" x="222.65625"/>
      </g>
     </g>
    </g>
    <g id="xtick_5">
     <g id="line2d_5">
      <g>
       <use xlink:href="#m75043f76a9" x="457.527273" y="384.48" style="stroke: #000000; stroke-width: 0.8"/>
      </g>
     </g>
     <g id="text_5">
      <!-- 10.84 -->
      <g transform="translate(441.781804 399.838281) scale(0.11 -0.11)">
       <defs>
        <path id="DejaVuSans-34" d="M 2419 4116 
L 825 1625 
L 2419 1625 
L 2419 4116 
z
M 2253 4666 
L 3047 4666 
L 3047 1625 
L 3713 1625 
L 3713 1100 
L 3047 1100 
L 3047 0 
L 2419 0 
L 2419 1100 
L 313 1100 
L 313 1709 
L 2253 4666 
z
" transform="scale(0.015625)"/>
       </defs>
       <use xlink:href="#DejaVuSans-31"/>
       <use xlink:href="#DejaVuSans-30" x="63.623047"/>
       <use xlink:href="#DejaVuSans-2e" x="127.246094"/>
       <use xlink:href="#DejaVuSans-38" x="159.033203"/>
       <use xlink:href="#DejaVuSans-34" x="222.65625"/>
      </g>
     </g>
    </g>
    <g id="text_6">
     <!-- $\beta$ -->
     <g transform="translate(291.68 414.595937) scale(0.11 -0.11)">
      <defs>
       <path id="DejaVuSans-Oblique-3b2" d="M 872 216 
L 572 -1331 
L -6 -1331 
L 928 3478 
Q 1206 4903 2538 4903 
Q 3888 4903 3659 3700 
Q 3503 2844 2894 2531 
Q 3713 2250 3553 1416 
Q 3272 -69 1759 -66 
Q 1097 -63 872 216 
z
M 1019 966 
Q 1259 422 1875 425 
Q 2775 425 2966 1406 
Q 3138 2288 1675 2219 
L 1778 2750 
Q 2909 2731 3106 3750 
Q 3241 4438 2509 4434 
Q 1691 4434 1503 3459 
L 1019 966 
z
" transform="scale(0.015625)"/>
      </defs>
      <use xlink:href="#DejaVuSans-Oblique-3b2" transform="translate(0 0.390625)"/>
     </g>
    </g>
   </g>
   <g id="matplotlib.axis_2">
    <g id="ytick_1">
     <g id="line2d_6">
      <defs>
       <path id="ma790c8ac2f" d="M 0 0 
L -3.5 0 
" style="stroke: #000000; stroke-width: 0.8"/>
      </defs>
      <g>
       <use xlink:href="#ma790c8ac2f" x="72" y="359.405961" style="stroke: #000000; stroke-width: 0.8"/>
      </g>
     </g>
     <g id="text_7">
      <!-- 0.00 -->
      <g transform="translate(40.507812 363.585102) scale(0.11 -0.11)">
       <use xlink:href="#DejaVuSans-30"/>
       <use xlink:href="#DejaVuSans-2e" x="63.623047"/>
       <use xlink:href="#DejaVuSans-30" x="95.410156"/>
       <use xlink:href="#DejaVuSans-30" x="159.033203"/>
      </g>
     </g>
    </g>
    <g id="ytick_2">
     <g id="line2d_7">
      <g>
       <use xlink:href="#ma790c8ac2f" x="72" y="313.520448" style="stroke: #000000; stroke-width: 0.8"/>
      </g>
     </g>
     <g id="text_8">
      <!-- 0.25 -->
      <g transform="translate(40.507812 317.699588) scale(0.11 -0.11)">
       <defs>
        <path id="DejaVuSans-35" d="M 691 4666 
L 3169 4666 
L 3169 4134 
L 1269 4134 
L 1269 2991 
Q 1406 3038 1543 3061 
Q 1681 3084 1819 3084 
Q 2600 3084 3056 2656 
Q 3513 2228 3513 1497 
Q 3513 744 3044 326 
Q 2575 -91 1722 -91 
Q 1428 -91 1123 -41 
Q 819 9 494 109 
L 494 744 
Q 775 591 1075 516 
Q 1375 441 1709 441 
Q 2250 441 2565 725 
Q 2881 1009 2881 1497 
Q 2881 1984 2565 2268 
Q 2250 2553 1709 2553 
Q 1456 2553 1204 2497 
Q 953 2441 691 2322 
L 691 4666 
z
" transform="scale(0.015625)"/>
       </defs>
       <use xlink:href="#DejaVuSans-30"/>
       <use xlink:href="#DejaVuSans-2e" x="63.623047"/>
       <use xlink:href="#DejaVuSans-32" x="95.410156"/>
       <use xlink:href="#DejaVuSans-35" x="159.033203"/>
      </g>
     </g>
    </g>
    <g id="ytick_3">
     <g id="line2d_8">
      <g>
       <use xlink:href="#ma790c8ac2f" x="72" y="267.634934" style="stroke: #000000; stroke-width: 0.8"/>
      </g>
     </g>
     <g id="text_9">
      <!-- 0.50 -->
      <g transform="translate(40.507812 271.814075) scale(0.11 -0.11)">
       <use xlink:href="#DejaVuSans-30"/>
       <use xlink:href="#DejaVuSans-2e" x="63.623047"/>
       <use xlink:href="#DejaVuSans-35" x="95.410156"/>
       <use xlink:href="#DejaVuSans-30" x="159.033203"/>
      </g>
     </g>
    </g>
    <g id="ytick_4">
     <g id="line2d_9">
      <g>
       <use xlink:href="#ma790c8ac2f" x="72" y="221.749421" style="stroke: #000000; stroke-width: 0.8"/>
      </g>
     </g>
     <g id="text_10">
      <!-- 0.75 -->
      <g transform="translate(40.507812 225.928561) scale(0.11 -0.11)">
       <use xlink:href="#DejaVuSans-30"/>
       <use xlink:href="#DejaVuSans-2e" x="63.623047"/>
       <use xlink:href="#DejaVuSans-37" x="95.410156"/>
       <use xlink:href="#DejaVuSans-35" x="159.033203"/>
      </g>
     </g>
    </g>
    <g id="ytick_5">
     <g id="line2d_10">
      <g>
       <use xlink:href="#ma790c8ac2f" x="72" y="175.863907" style="stroke: #000000; stroke-width: 0.8"/>
      </g>
     </g>
     <g id="text_11">
      <!-- 1.00 -->
      <g transform="translate(40.507812 180.043048) scale(0.11 -0.11)">
       <use xlink:href="#DejaVuSans-31"/>
       <use xlink:href="#DejaVuSans-2e" x="63.623047"/>
       <use xlink:href="#DejaVuSans-30" x="95.410156"/>
       <use xlink:href="#DejaVuSans-30" x="159.033203"/>
      </g>
     </g>
    </g>
    <g id="ytick_6">
     <g id="line2d_11">
      <g>
       <use xlink:href="#ma790c8ac2f" x="72" y="129.978394" style="stroke: #000000; stroke-width: 0.8"/>
      </g>
     </g>
     <g id="text_12">
      <!-- 1.25 -->
      <g transform="translate(40.507812 134.157535) scale(0.11 -0.11)">
       <use xlink:href="#DejaVuSans-31"/>
       <use xlink:href="#DejaVuSans-2e" x="63.623047"/>
       <use xlink:href="#DejaVuSans-32" x="95.410156"/>
       <use xlink:href="#DejaVuSans-35" x="159.033203"/>
      </g>
     </g>
    </g>
    <g id="ytick_7">
     <g id="line2d_12">
      <g>
       <use xlink:href="#ma790c8ac2f" x="72" y="84.092881" style="stroke: #000000; stroke-width: 0.8"/>
      </g>
     </g>
     <g id="text_13">
      <!-- 1.50 -->
      <g transform="translate(40.507812 88.272021) scale(0.11 -0.11)">
       <use xlink:href="#DejaVuSans-31"/>
       <use xlink:href="#DejaVuSans-2e" x="63.623047"/>
       <use xlink:href="#DejaVuSans-35" x="95.410156"/>
       <use xlink:href="#DejaVuSans-30" x="159.033203"/>
      </g>
     </g>
    </g>
    <g id="text_14">
     <!-- $\langle S_{t} - S_{nt} \rangle/(N_1\cdot N_2)$ -->
     <g transform="translate(34.220156 265.46) rotate(-90) scale(0.11 -0.11)">
      <defs>
       <path id="DejaVuSans-27e8" d="M 572 2006 
L 1453 4856 
L 1984 4856 
L 1103 2006 
L 1984 -844 
L 1453 -844 
L 572 2006 
z
" transform="scale(0.015625)"/>
       <path id="DejaVuSans-Oblique-53" d="M 3859 4513 
L 3738 3897 
Q 3422 4066 3111 4152 
Q 2800 4238 2509 4238 
Q 1944 4238 1609 3991 
Q 1275 3744 1275 3334 
Q 1275 3109 1398 2989 
Q 1522 2869 2034 2731 
L 2413 2638 
Q 3053 2472 3303 2217 
Q 3553 1963 3553 1503 
Q 3553 797 2998 353 
Q 2444 -91 1538 -91 
Q 1166 -91 791 -17 
Q 416 56 38 206 
L 166 856 
Q 513 641 861 531 
Q 1209 422 1556 422 
Q 2147 422 2503 684 
Q 2859 947 2859 1369 
Q 2859 1650 2717 1795 
Q 2575 1941 2106 2059 
L 1728 2156 
Q 1081 2325 845 2545 
Q 609 2766 609 3163 
Q 609 3859 1145 4304 
Q 1681 4750 2541 4750 
Q 2875 4750 3203 4690 
Q 3531 4631 3859 4513 
z
" transform="scale(0.015625)"/>
       <path id="DejaVuSans-Oblique-74" d="M 2706 3500 
L 2619 3053 
L 1472 3053 
L 1100 1153 
Q 1081 1047 1072 975 
Q 1063 903 1063 863 
Q 1063 663 1183 572 
Q 1303 481 1569 481 
L 2150 481 
L 2053 0 
L 1503 0 
Q 991 0 739 200 
Q 488 400 488 806 
Q 488 878 497 964 
Q 506 1050 525 1153 
L 897 3053 
L 409 3053 
L 500 3500 
L 978 3500 
L 1172 4494 
L 1747 4494 
L 1556 3500 
L 2706 3500 
z
" transform="scale(0.015625)"/>
       <path id="DejaVuSans-2212" d="M 678 2272 
L 4684 2272 
L 4684 1741 
L 678 1741 
L 678 2272 
z
" transform="scale(0.015625)"/>
       <path id="DejaVuSans-Oblique-6e" d="M 3566 2113 
L 3156 0 
L 2578 0 
L 2988 2091 
Q 3016 2238 3031 2350 
Q 3047 2463 3047 2528 
Q 3047 2791 2881 2937 
Q 2716 3084 2419 3084 
Q 1956 3084 1622 2776 
Q 1288 2469 1184 1941 
L 800 0 
L 225 0 
L 903 3500 
L 1478 3500 
L 1363 2950 
Q 1603 3253 1940 3418 
Q 2278 3584 2650 3584 
Q 3113 3584 3367 3334 
Q 3622 3084 3622 2631 
Q 3622 2519 3608 2391 
Q 3594 2263 3566 2113 
z
" transform="scale(0.015625)"/>
       <path id="DejaVuSans-27e9" d="M 1925 2006 
L 1044 -844 
L 513 -844 
L 1394 2006 
L 513 4856 
L 1044 4856 
L 1925 2006 
z
" transform="scale(0.015625)"/>
       <path id="DejaVuSans-2f" d="M 1625 4666 
L 2156 4666 
L 531 -594 
L 0 -594 
L 1625 4666 
z
" transform="scale(0.015625)"/>
       <path id="DejaVuSans-28" d="M 1984 4856 
Q 1566 4138 1362 3434 
Q 1159 2731 1159 2009 
Q 1159 1288 1364 580 
Q 1569 -128 1984 -844 
L 1484 -844 
Q 1016 -109 783 600 
Q 550 1309 550 2009 
Q 550 2706 781 3412 
Q 1013 4119 1484 4856 
L 1984 4856 
z
" transform="scale(0.015625)"/>
       <path id="DejaVuSans-Oblique-4e" d="M 1081 4666 
L 1931 4666 
L 3219 666 
L 4000 4666 
L 4616 4666 
L 3706 0 
L 2853 0 
L 1569 4025 
L 788 0 
L 172 0 
L 1081 4666 
z
" transform="scale(0.015625)"/>
       <path id="DejaVuSans-22c5" d="M 684 2619 
L 1344 2619 
L 1344 1825 
L 684 1825 
L 684 2619 
z
" transform="scale(0.015625)"/>
       <path id="DejaVuSans-29" d="M 513 4856 
L 1013 4856 
Q 1481 4119 1714 3412 
Q 1947 2706 1947 2009 
Q 1947 1309 1714 600 
Q 1481 -109 1013 -844 
L 513 -844 
Q 928 -128 1133 580 
Q 1338 1288 1338 2009 
Q 1338 2731 1133 3434 
Q 928 4138 513 4856 
z
" transform="scale(0.015625)"/>
      </defs>
      <use xlink:href="#DejaVuSans-27e8" transform="translate(0 0.125)"/>
      <use xlink:href="#DejaVuSans-Oblique-53" transform="translate(39.013672 0.125)"/>
      <use xlink:href="#DejaVuSans-Oblique-74" transform="translate(102.490234 -16.28125) scale(0.7)"/>
      <use xlink:href="#DejaVuSans-2212" transform="translate(152.15332 0.125)"/>
      <use xlink:href="#DejaVuSans-Oblique-53" transform="translate(255.424805 0.125)"/>
      <use xlink:href="#DejaVuSans-Oblique-6e" transform="translate(318.901367 -16.28125) scale(0.7)"/>
      <use xlink:href="#DejaVuSans-Oblique-74" transform="translate(363.266602 -16.28125) scale(0.7)"/>
      <use xlink:href="#DejaVuSans-27e9" transform="translate(393.447266 0.125)"/>
      <use xlink:href="#DejaVuSans-2f" transform="translate(432.460938 0.125)"/>
      <use xlink:href="#DejaVuSans-28" transform="translate(466.152344 0.125)"/>
      <use xlink:href="#DejaVuSans-Oblique-4e" transform="translate(505.166016 0.125)"/>
      <use xlink:href="#DejaVuSans-31" transform="translate(579.970703 -16.28125) scale(0.7)"/>
      <use xlink:href="#DejaVuSans-22c5" transform="translate(646.723633 0.125)"/>
      <use xlink:href="#DejaVuSans-Oblique-4e" transform="translate(697.993164 0.125)"/>
      <use xlink:href="#DejaVuSans-32" transform="translate(772.797852 -16.28125) scale(0.7)"/>
      <use xlink:href="#DejaVuSans-29" transform="translate(820.068359 0.125)"/>
     </g>
    </g>
   </g>
   <g id="line2d_13">
    <path d="M 92.290909 359.203363 
L 96.349091 359.118685 
L 100.407273 359.070698 
L 104.465455 359.066151 
L 108.523636 359.103707 
L 112.581818 359.173808 
L 116.64 359.260201 
L 120.698182 359.342733 
L 124.756364 359.400721 
L 128.814545 359.416125 
L 132.872727 359.375827 
L 136.930909 359.272561 
L 140.989091 359.104339 
L 145.047273 358.872577 
L 149.105455 358.579392 
L 153.163636 358.224701 
L 157.221818 357.803814 
L 161.28 357.306089 
L 165.338182 356.714981 
L 169.396364 356.009515 
L 173.454545 355.166812 
L 177.512727 354.16506 
L 181.570909 352.98612 
L 185.629091 351.617 
L 189.687273 350.049657 
L 193.745455 348.279024 
L 197.803636 346.299641 
L 201.861818 344.101786 
L 205.92 341.668314 
L 209.978182 338.973456 
L 214.036364 335.984552 
L 218.094545 332.667083 
L 222.152727 328.992543 
L 226.210909 324.947841 
L 230.269091 320.544185 
L 234.327273 315.823129 
L 238.385455 310.857772 
L 242.443636 305.748137 
L 246.501818 300.611242 
L 250.56 295.567894 
L 254.618182 290.729137 
L 258.676364 286.185251 
L 262.734545 281.99931 
L 266.792727 278.205879 
L 270.850909 274.814211 
L 274.909091 271.814467 
L 278.967273 269.185287 
L 283.025455 266.901207 
L 287.083636 264.938837 
L 291.141818 263.281142 
L 295.2 261.919581 
L 299.258182 260.854158 
L 303.316364 260.091709 
L 307.374545 259.642903 
L 311.432727 259.51854 
L 315.490909 259.725744 
L 319.549091 260.264611 
L 323.607273 261.12574 
L 327.665455 262.288942 
L 331.723636 263.723282 
L 335.781818 265.388375 
L 339.84 267.236789 
L 343.898182 269.21719 
L 347.956364 271.277853 
L 352.014545 273.370045 
L 356.072727 275.450872 
L 360.130909 277.485242 
L 364.189091 279.44674 
L 368.247273 281.317416 
L 372.305455 283.086671 
L 376.363636 284.749567 
L 380.421818 286.30498 
L 384.48 287.753996 
L 388.538182 289.098838 
L 392.596364 290.342463 
L 396.654545 291.48878 
L 400.712727 292.543256 
L 404.770909 293.513617 
L 408.829091 294.410313 
L 412.887273 295.246498 
L 416.945455 296.037424 
L 421.003636 296.799281 
L 425.061818 297.547687 
L 429.12 298.296091 
L 433.178182 299.054396 
L 437.236364 299.828036 
L 441.294545 300.61769 
L 445.352727 301.41963 
L 449.410909 302.226657 
L 453.469091 303.02944 
L 457.527273 303.81803 
L 461.585455 304.583333 
L 465.643636 305.318328 
L 469.701818 306.018892 
L 473.76 306.684146 
L 477.818182 307.31631 
L 481.876364 307.920118 
L 485.934545 308.501872 
L 489.992727 309.068293 
L 494.050909 309.625287 
L 498.109091 310.176826 
" clip-path="url(#p3fb6cc1199)" style="fill: none; stroke: #1f77b4; stroke-width: 1.5; stroke-linecap: square"/>
   </g>
   <g id="line2d_14">
    <path d="M 92.290909 358.55735 
L 96.349091 358.963309 
L 100.407273 359.321596 
L 104.465455 359.628308 
L 108.523636 359.886959 
L 112.581818 360.097977 
L 116.64 360.254114 
L 120.698182 360.342121 
L 124.756364 360.348889 
L 128.814545 360.268924 
L 132.872727 360.109813 
L 136.930909 359.893131 
L 140.989091 359.650101 
L 145.047273 359.413501 
L 149.105455 359.209017 
L 153.163636 359.049568 
L 157.221818 358.934855 
L 161.28 358.855944 
L 165.338182 358.802341 
L 169.396364 358.767981 
L 173.454545 358.75336 
L 177.512727 358.763268 
L 181.570909 358.801835 
L 185.629091 358.867693 
L 189.687273 358.951486 
L 193.745455 359.03623 
L 197.803636 359.099306 
L 201.861818 359.113903 
L 205.92 359.047864 
L 209.978182 358.8584 
L 214.036364 358.481135 
L 218.094545 357.810935 
L 222.152727 356.670276 
L 226.210909 354.760281 
L 230.269091 351.594349 
L 234.327273 346.433095 
L 238.385455 338.285394 
L 242.443636 326.111346 
L 246.501818 309.375138 
L 250.56 288.831961 
L 254.618182 266.864573 
L 258.676364 246.630422 
L 262.734545 230.496962 
L 266.792727 219.193768 
L 270.850909 212.162939 
L 274.909091 208.359357 
L 278.967273 206.81025 
L 283.025455 206.821236 
L 287.083636 207.977991 
L 291.141818 210.075942 
L 295.2 213.038853 
L 299.258182 216.844429 
L 303.316364 221.46126 
L 307.374545 226.80193 
L 311.432727 232.700531 
L 315.490909 238.921621 
L 319.549091 245.198561 
L 323.607273 251.286097 
L 327.665455 257.004563 
L 331.723636 262.258022 
L 335.781818 267.023364 
L 339.84 271.321389 
L 343.898182 275.186312 
L 347.956364 278.646138 
L 352.014545 281.717772 
L 356.072727 284.413108 
L 360.130909 286.748779 
L 364.189091 288.75311 
L 368.247273 290.467202 
L 372.305455 291.940549 
L 376.363636 293.22375 
L 380.421818 294.361378 
L 384.48 295.387331 
L 388.538182 296.323662 
L 392.596364 297.182564 
L 396.654545 297.970136 
L 400.712727 298.690295 
L 404.770909 299.347558 
L 408.829091 299.94819 
L 412.887273 300.500011 
L 416.945455 301.011686 
L 421.003636 301.492294 
L 425.061818 301.951579 
L 429.12 302.400615 
L 433.178182 302.852005 
L 437.236364 303.318725 
L 441.294545 303.811318 
L 445.352727 304.334206 
L 449.410909 304.88283 
L 453.469091 305.443371 
L 457.527273 305.995954 
L 461.585455 306.520537 
L 465.643636 307.003298 
L 469.701818 307.440901 
L 473.76 307.840901 
L 477.818182 308.218311 
L 481.876364 308.590028 
L 485.934545 308.969533 
L 489.992727 309.363741 
L 494.050909 309.772534 
L 498.109091 310.190205 
" clip-path="url(#p3fb6cc1199)" style="fill: none; stroke: #ff7f0e; stroke-width: 1.5; stroke-linecap: square"/>
   </g>
   <g id="line2d_15">
    <path d="M 92.290909 364.158972 
L 96.349091 363.124496 
L 100.407273 362.15891 
L 104.465455 361.365985 
L 108.523636 360.73651 
L 112.581818 360.263667 
L 116.64 359.963421 
L 120.698182 359.829467 
L 124.756364 359.808533 
L 128.814545 359.82378 
L 132.872727 359.813405 
L 136.930909 359.754208 
L 140.989091 359.66517 
L 145.047273 359.589446 
L 149.105455 359.557769 
L 153.163636 359.559902 
L 157.221818 359.554406 
L 161.28 359.508315 
L 165.338182 359.423511 
L 169.396364 359.325144 
L 173.454545 359.232941 
L 177.512727 359.146172 
L 181.570909 359.046602 
L 185.629091 358.908299 
L 189.687273 358.710619 
L 193.745455 358.454513 
L 197.803636 358.173127 
L 201.861818 357.925289 
L 205.92 357.773088 
L 209.978182 357.752021 
L 214.036364 357.833298 
L 218.094545 357.869316 
L 222.152727 357.494816 
L 226.210909 355.847155 
L 230.269091 350.69353 
L 234.327273 336.512113 
L 238.385455 304.318318 
L 242.443636 253.885191 
L 246.501818 204.611256 
L 250.56 172.611298 
L 254.618182 157.389719 
L 258.676364 150.802825 
L 262.734545 147.275727 
L 266.792727 144.716477 
L 270.850909 142.598184 
L 274.909091 140.913437 
L 278.967273 139.825222 
L 283.025455 139.645617 
L 287.083636 141.038431 
L 291.141818 145.428793 
L 295.2 155.357608 
L 299.258182 173.610439 
L 303.316364 199.664419 
L 307.374545 227.141473 
L 311.432727 248.885285 
L 315.490909 262.895297 
L 319.549091 271.086221 
L 323.607273 275.901723 
L 327.665455 279.035488 
L 331.723636 281.455507 
L 335.781818 283.589308 
L 339.84 285.476035 
L 343.898182 286.973246 
L 347.956364 287.974404 
L 352.014545 288.517461 
L 356.072727 288.762002 
L 360.130909 288.9194 
L 364.189091 289.205791 
L 368.247273 289.804739 
L 372.305455 290.80281 
L 376.363636 292.125497 
L 380.421818 293.55052 
L 384.48 294.822684 
L 388.538182 295.791693 
L 392.596364 296.466435 
L 396.654545 296.961244 
L 400.712727 297.401946 
L 404.770909 297.866551 
L 408.829091 298.380253 
L 412.887273 298.940611 
L 416.945455 299.541961 
L 421.003636 300.181659 
L 425.061818 300.849874 
L 429.12 301.520264 
L 433.178182 302.157958 
L 437.236364 302.741506 
L 441.294545 303.277746 
L 445.352727 303.79382 
L 449.410909 304.313087 
L 453.469091 304.837628 
L 457.527273 305.353148 
L 461.585455 305.84775 
L 465.643636 306.320075 
L 469.701818 306.763909 
L 473.76 307.146119 
L 477.818182 307.411335 
L 481.876364 307.527103 
L 485.934545 307.539474 
L 489.992727 307.58301 
L 494.050909 307.815374 
L 498.109091 308.312528 
" clip-path="url(#p3fb6cc1199)" style="fill: none; stroke: #2ca02c; stroke-width: 1.5; stroke-linecap: square"/>
   </g>
   <g id="line2d_16">
    <path d="M 92.290909 358.90984 
L 96.349091 358.983609 
L 100.407273 359.169972 
L 104.465455 359.393768 
L 108.523636 359.563324 
L 112.581818 359.573357 
L 116.64 359.442172 
L 120.698182 359.364798 
L 124.756364 359.472616 
L 128.814545 359.644653 
L 132.872727 359.727001 
L 136.930909 359.720196 
L 140.989091 359.685029 
L 145.047273 359.722799 
L 149.105455 359.893535 
L 153.163636 359.997414 
L 157.221818 359.733019 
L 161.28 359.172525 
L 165.338182 358.755732 
L 169.396364 358.735303 
L 173.454545 358.939934 
L 177.512727 359.129352 
L 181.570909 359.275135 
L 185.629091 359.453475 
L 189.687273 359.667076 
L 193.745455 359.761997 
L 197.803636 359.561742 
L 201.861818 359.165289 
L 205.92 358.892783 
L 209.978182 358.87134 
L 214.036364 358.938746 
L 218.094545 358.951335 
L 222.152727 358.979323 
L 226.210909 359.207289 
L 230.269091 359.814069 
L 234.327273 360.624101 
L 238.385455 351.926367 
L 242.443636 244.828555 
L 246.501818 107.753201 
L 250.56 89.092867 
L 254.618182 90.596282 
L 258.676364 92.428886 
L 262.734545 89.964477 
L 266.792727 83.703061 
L 270.850909 77.004641 
L 274.909091 76.152838 
L 278.967273 107.446023 
L 283.025455 197.416241 
L 287.083636 245.788471 
L 291.141818 255.010612 
L 295.2 258.26845 
L 299.258182 261.324396 
L 303.316364 264.501927 
L 307.374545 267.627 
L 311.432727 270.437322 
L 315.490909 272.7428 
L 319.549091 274.573436 
L 323.607273 276.184154 
L 327.665455 277.870509 
L 331.723636 279.707488 
L 335.781818 281.554552 
L 339.84 283.241658 
L 343.898182 284.630235 
L 347.956364 285.674673 
L 352.014545 286.53949 
L 356.072727 287.503055 
L 360.130909 288.685655 
L 364.189091 289.986753 
L 368.247273 291.26684 
L 372.305455 292.476038 
L 376.363636 293.600641 
L 380.421818 294.57177 
L 384.48 295.313381 
L 388.538182 295.800934 
L 392.596364 296.070514 
L 396.654545 296.302169 
L 400.712727 296.732406 
L 404.770909 297.376748 
L 408.829091 298.072391 
L 412.887273 298.772504 
L 416.945455 299.522943 
L 421.003636 300.255952 
L 425.061818 300.89319 
L 429.12 301.516412 
L 433.178182 302.251932 
L 437.236364 303.113743 
L 441.294545 304.000286 
L 445.352727 304.76854 
L 449.410909 305.353026 
L 453.469091 305.824258 
L 457.527273 306.261813 
L 461.585455 306.625096 
L 465.643636 306.798888 
L 469.701818 306.763207 
L 473.76 306.741678 
L 477.818182 307.044588 
L 481.876364 307.687535 
L 485.934545 308.350794 
L 489.992727 308.758524 
L 494.050909 308.944867 
L 498.109091 309.139639 
" clip-path="url(#p3fb6cc1199)" style="fill: none; stroke: #d62728; stroke-width: 1.5; stroke-linecap: square"/>
   </g>
   <g id="patch_3">
    <path d="M 72 384.48 
L 72 51.84 
" style="fill: none; stroke: #000000; stroke-width: 0.8; stroke-linejoin: miter; stroke-linecap: square"/>
   </g>
   <g id="patch_4">
    <path d="M 518.4 384.48 
L 518.4 51.84 
" style="fill: none; stroke: #000000; stroke-width: 0.8; stroke-linejoin: miter; stroke-linecap: square"/>
   </g>
   <g id="patch_5">
    <path d="M 72 384.48 
L 518.4 384.48 
" style="fill: none; stroke: #000000; stroke-width: 0.8; stroke-linejoin: miter; stroke-linecap: square"/>
   </g>
   <g id="patch_6">
    <path d="M 72 51.84 
L 518.4 51.84 
" style="fill: none; stroke: #000000; stroke-width: 0.8; stroke-linejoin: miter; stroke-linecap: square"/>
   </g>
   <g id="legend_1">
    <g id="patch_7">
     <path d="M 416.020937 125.22375 
L 510.7 125.22375 
Q 512.9 125.22375 512.9 123.02375 
L 512.9 59.54 
Q 512.9 57.34 510.7 57.34 
L 416.020937 57.34 
Q 413.820937 57.34 413.820937 59.54 
L 413.820937 123.02375 
Q 413.820937 125.22375 416.020937 125.22375 
z
" style="fill: #ffffff; opacity: 0.8; stroke: #cccccc; stroke-linejoin: miter"/>
    </g>
    <g id="line2d_17">
     <path d="M 418.220937 66.248281 
L 429.220937 66.248281 
L 440.220937 66.248281 
" style="fill: none; stroke: #1f77b4; stroke-width: 1.5; stroke-linecap: square"/>
    </g>
    <g id="text_15">
     <!-- 18,18,28,6 -->
     <g transform="translate(449.020937 70.098281) scale(0.11 -0.11)">
      <defs>
       <path id="DejaVuSans-2c" d="M 750 794 
L 1409 794 
L 1409 256 
L 897 -744 
L 494 -744 
L 750 256 
L 750 794 
z
" transform="scale(0.015625)"/>
      </defs>
      <use xlink:href="#DejaVuSans-31"/>
      <use xlink:href="#DejaVuSans-38" x="63.623047"/>
      <use xlink:href="#DejaVuSans-2c" x="127.246094"/>
      <use xlink:href="#DejaVuSans-31" x="159.033203"/>
      <use xlink:href="#DejaVuSans-38" x="222.65625"/>
      <use xlink:href="#DejaVuSans-2c" x="286.279297"/>
      <use xlink:href="#DejaVuSans-32" x="318.066406"/>
      <use xlink:href="#DejaVuSans-38" x="381.689453"/>
      <use xlink:href="#DejaVuSans-2c" x="445.3125"/>
      <use xlink:href="#DejaVuSans-36" x="477.099609"/>
     </g>
    </g>
    <g id="line2d_18">
     <path d="M 418.220937 82.394219 
L 429.220937 82.394219 
L 440.220937 82.394219 
" style="fill: none; stroke: #ff7f0e; stroke-width: 1.5; stroke-linecap: square"/>
    </g>
    <g id="text_16">
     <!-- 24,24,36,6 -->
     <g transform="translate(449.020937 86.244219) scale(0.11 -0.11)">
      <defs>
       <path id="DejaVuSans-33" d="M 2597 2516 
Q 3050 2419 3304 2112 
Q 3559 1806 3559 1356 
Q 3559 666 3084 287 
Q 2609 -91 1734 -91 
Q 1441 -91 1130 -33 
Q 819 25 488 141 
L 488 750 
Q 750 597 1062 519 
Q 1375 441 1716 441 
Q 2309 441 2620 675 
Q 2931 909 2931 1356 
Q 2931 1769 2642 2001 
Q 2353 2234 1838 2234 
L 1294 2234 
L 1294 2753 
L 1863 2753 
Q 2328 2753 2575 2939 
Q 2822 3125 2822 3475 
Q 2822 3834 2567 4026 
Q 2313 4219 1838 4219 
Q 1578 4219 1281 4162 
Q 984 4106 628 3988 
L 628 4550 
Q 988 4650 1302 4700 
Q 1616 4750 1894 4750 
Q 2613 4750 3031 4423 
Q 3450 4097 3450 3541 
Q 3450 3153 3228 2886 
Q 3006 2619 2597 2516 
z
" transform="scale(0.015625)"/>
      </defs>
      <use xlink:href="#DejaVuSans-32"/>
      <use xlink:href="#DejaVuSans-34" x="63.623047"/>
      <use xlink:href="#DejaVuSans-2c" x="127.246094"/>
      <use xlink:href="#DejaVuSans-32" x="159.033203"/>
      <use xlink:href="#DejaVuSans-34" x="222.65625"/>
      <use xlink:href="#DejaVuSans-2c" x="286.279297"/>
      <use xlink:href="#DejaVuSans-33" x="318.066406"/>
      <use xlink:href="#DejaVuSans-36" x="381.689453"/>
      <use xlink:href="#DejaVuSans-2c" x="445.3125"/>
      <use xlink:href="#DejaVuSans-36" x="477.099609"/>
     </g>
    </g>
    <g id="line2d_19">
     <path d="M 418.220937 98.540156 
L 429.220937 98.540156 
L 440.220937 98.540156 
" style="fill: none; stroke: #2ca02c; stroke-width: 1.5; stroke-linecap: square"/>
    </g>
    <g id="text_17">
     <!-- 32,32,48,6 -->
     <g transform="translate(449.020937 102.390156) scale(0.11 -0.11)">
      <use xlink:href="#DejaVuSans-33"/>
      <use xlink:href="#DejaVuSans-32" x="63.623047"/>
      <use xlink:href="#DejaVuSans-2c" x="127.246094"/>
      <use xlink:href="#DejaVuSans-33" x="159.033203"/>
      <use xlink:href="#DejaVuSans-32" x="222.65625"/>
      <use xlink:href="#DejaVuSans-2c" x="286.279297"/>
      <use xlink:href="#DejaVuSans-34" x="318.066406"/>
      <use xlink:href="#DejaVuSans-38" x="381.689453"/>
      <use xlink:href="#DejaVuSans-2c" x="445.3125"/>
      <use xlink:href="#DejaVuSans-36" x="477.099609"/>
     </g>
    </g>
    <g id="line2d_20">
     <path d="M 418.220937 114.686094 
L 429.220937 114.686094 
L 440.220937 114.686094 
" style="fill: none; stroke: #d62728; stroke-width: 1.5; stroke-linecap: square"/>
    </g>
    <g id="text_18">
     <!-- 44,44,64,6 -->
     <g transform="translate(449.020937 118.536094) scale(0.11 -0.11)">
      <use xlink:href="#DejaVuSans-34"/>
      <use xlink:href="#DejaVuSans-34" x="63.623047"/>
      <use xlink:href="#DejaVuSans-2c" x="127.246094"/>
      <use xlink:href="#DejaVuSans-34" x="159.033203"/>
      <use xlink:href="#DejaVuSans-34" x="222.65625"/>
      <use xlink:href="#DejaVuSans-2c" x="286.279297"/>
      <use xlink:href="#DejaVuSans-36" x="318.066406"/>
      <use xlink:href="#DejaVuSans-34" x="381.689453"/>
      <use xlink:href="#DejaVuSans-2c" x="445.3125"/>
      <use xlink:href="#DejaVuSans-36" x="477.099609"/>
     </g>
    </g>
   </g>
  </g>
 </g>
 <defs>
  <clipPath id="p3fb6cc1199">
   <rect x="72" y="51.84" width="446.4" height="332.64"/>
  </clipPath>
 </defs>
</svg>
