<?xml version="1.0" encoding="utf-8" standalone="no"?>
<!DOCTYPE svg PUBLIC "-//W3C//DTD SVG 1.1//EN"
  "http://www.w3.org/Graphics/SVG/1.1/DTD/svg11.dtd">
<svg xmlns:xlink="http://www.w3.org/1999/xlink" width="576pt" height="432pt" viewBox="0 0 576 432" xmlns="http://www.w3.org/2000/svg" version="1.1">
 <metadata>
  <rdf:RDF xmlns:dc="http://purl.org/dc/elements/1.1/" xmlns:cc="http://creativecommons.org/ns#" xmlns:rdf="http://www.w3.org/1999/02/22-rdf-syntax-ns#">
   <cc:Work>
    <dc:type rdf:resource="http://purl.org/dc/dcmitype/StillImage"/>
    <dc:date>2024-05-10T14:00:36.513958</dc:date>
    <dc:format>image/svg+xml</dc:format>
    <dc:creator>
     <cc:Agent>
      <dc:title>Matplotlib v3.8.0, https://matplotlib.org/</dc:title>
     </cc:Agent>
    </dc:creator>
   </cc:Work>
  </rdf:RDF>
 </metadata>
 <defs>
  <style type="text/css">*{stroke-linejoin: round; stroke-linecap: butt}</style>
 </defs>
 <g id="figure_1">
  <g id="patch_1">
   <path d="M 0 432 
L 576 432 
L 576 0 
L 0 0 
z
" style="fill: #ffffff"/>
  </g>
  <g id="axes_1">
   <g id="patch_2">
    <path d="M 72 384.48 
L 518.4 384.48 
L 518.4 51.84 
L 72 51.84 
z
" style="fill: #ffffff"/>
   </g>
   <g id="PolyCollection_1">
    <path d="M 92.290909 368.274931 
L 92.290909 368.274931 
L 96.349091 368.340185 
L 100.407273 368.400785 
L 104.465455 368.459091 
L 108.523636 368.517778 
L 112.581818 368.579269 
L 116.64 368.645196 
L 120.698182 368.715989 
L 124.756364 368.790701 
L 128.814545 368.867078 
L 132.872727 368.941862 
L 136.930909 369.011236 
L 140.989091 369.071273 
L 145.047273 369.118304 
L 149.105455 369.149084 
L 153.163636 369.160739 
L 157.221818 369.150504 
L 161.28 369.1153 
L 165.338182 369.051286 
L 169.396364 368.953461 
L 173.454545 368.815449 
L 177.512727 368.629518 
L 181.570909 368.386839 
L 185.629091 368.07793 
L 189.687273 367.693193 
L 193.745455 367.223401 
L 197.803636 366.660015 
L 201.861818 365.995235 
L 205.92 365.221742 
L 209.978182 364.332166 
L 214.036364 363.318368 
L 218.094545 362.170687 
L 222.152727 360.877382 
L 226.210909 359.42455 
L 230.269091 357.796766 
L 234.327273 355.978495 
L 238.385455 353.95602 
L 242.443636 351.719371 
L 246.501818 349.263745 
L 250.56 346.590036 
L 254.618182 343.704433 
L 258.676364 340.617287 
L 262.734545 337.341616 
L 266.792727 333.891654 
L 270.850909 330.281691 
L 274.909091 326.525338 
L 278.967273 322.635208 
L 283.025455 318.622936 
L 287.083636 314.499473 
L 291.141818 310.275539 
L 295.2 305.96216 
L 299.258182 301.571187 
L 303.316364 297.115711 
L 307.374545 292.610293 
L 311.432727 288.070975 
L 315.490909 283.515048 
L 319.549091 278.960607 
L 323.607273 274.425959 
L 327.665455 269.92893 
L 331.723636 265.486182 
L 335.781818 261.112586 
L 339.84 256.820707 
L 343.898182 252.620452 
L 347.956364 248.518882 
L 352.014545 244.520202 
L 356.072727 240.625926 
L 360.130909 236.835182 
L 364.189091 233.145129 
L 368.247273 229.551411 
L 372.305455 226.048603 
L 376.363636 222.630577 
L 380.421818 219.290764 
L 384.48 216.022328 
L 388.538182 212.818259 
L 392.596364 209.671464 
L 396.654545 206.574891 
L 400.712727 203.521727 
L 404.770909 200.505678 
L 408.829091 197.521305 
L 412.887273 194.564365 
L 416.945455 191.63209 
L 421.003636 188.723349 
L 425.061818 185.838641 
L 429.12 182.979906 
L 433.178182 180.150175 
L 437.236364 177.353103 
L 441.294545 174.592445 
L 445.352727 171.871571 
L 449.410909 169.193055 
L 453.469091 166.558415 
L 457.527273 163.968002 
L 461.585455 161.421049 
L 465.643636 158.915848 
L 469.701818 156.450012 
L 473.76 154.020794 
L 477.818182 151.6254 
L 481.876364 149.261261 
L 485.934545 146.926245 
L 489.992727 144.618763 
L 494.050909 142.337792 
L 498.109091 140.082787 
L 498.109091 130.851461 
L 498.109091 130.851461 
L 494.050909 133.14556 
L 489.992727 135.464627 
L 485.934545 137.808799 
L 481.876364 140.178189 
L 477.818182 142.57293 
L 473.76 144.993203 
L 469.701818 147.439264 
L 465.643636 149.911461 
L 461.585455 152.41025 
L 457.527273 154.936221 
L 453.469091 157.490126 
L 449.410909 160.072922 
L 445.352727 162.685806 
L 441.294545 165.330257 
L 437.236364 168.008052 
L 433.178182 170.72126 
L 429.12 173.472196 
L 425.061818 176.263355 
L 421.003636 179.097313 
L 416.945455 181.976629 
L 412.887273 184.903755 
L 408.829091 187.880975 
L 404.770909 190.910382 
L 400.712727 193.993897 
L 396.654545 197.133329 
L 392.596364 200.330469 
L 388.538182 203.587197 
L 384.48 206.905579 
L 380.421818 210.287962 
L 376.363636 213.737009 
L 372.305455 217.255711 
L 368.247273 220.847325 
L 364.189091 224.51527 
L 360.130909 228.262952 
L 356.072727 232.093538 
L 352.014545 236.009668 
L 347.956364 240.013128 
L 343.898182 244.104505 
L 339.84 248.282868 
L 335.781818 252.545525 
L 331.723636 256.887896 
L 327.665455 261.303523 
L 323.607273 265.784215 
L 319.549091 270.320298 
L 315.490909 274.900913 
L 311.432727 279.514319 
L 307.374545 284.148142 
L 303.316364 288.78953 
L 299.258182 293.425207 
L 295.2 298.041404 
L 291.141818 302.623685 
L 287.083636 307.156687 
L 283.025455 311.623834 
L 278.967273 316.007064 
L 274.909091 320.286691 
L 270.850909 324.441469 
L 266.792727 328.448977 
L 262.734545 332.28636 
L 258.676364 335.931413 
L 254.618182 339.363891 
L 250.56 342.566817 
L 246.501818 345.527594 
L 242.443636 348.238712 
L 238.385455 350.69802 
L 234.327273 352.908596 
L 230.269091 354.878325 
L 226.210909 356.619297 
L 222.152727 358.147053 
L 218.094545 359.479668 
L 214.036364 360.636651 
L 209.978182 361.637764 
L 205.92 362.501954 
L 201.861818 363.2466 
L 197.803636 363.887169 
L 193.745455 364.437204 
L 189.687273 364.908535 
L 185.629091 365.311554 
L 181.570909 365.655483 
L 177.512727 365.948568 
L 173.454545 366.198208 
L 169.396364 366.411021 
L 165.338182 366.592888 
L 161.28 366.748995 
L 157.221818 366.883885 
L 153.163636 367.001535 
L 149.105455 367.105443 
L 145.047273 367.198707 
L 140.989091 367.284103 
L 136.930909 367.364128 
L 132.872727 367.441015 
L 128.814545 367.516717 
L 124.756364 367.592867 
L 120.698182 367.670725 
L 116.64 367.751121 
L 112.581818 367.834411 
L 108.523636 367.920456 
L 104.465455 368.008643 
L 100.407273 368.097966 
L 96.349091 368.187169 
L 92.290909 368.274931 
z
" clip-path="url(#p696bd4cf90)" style="fill: #1f77b4; fill-opacity: 0.4"/>
   </g>
   <g id="PolyCollection_2">
    <path d="M 92.290909 368.274931 
L 92.290909 368.274931 
L 96.349091 368.286857 
L 100.407273 368.292422 
L 104.465455 368.295417 
L 108.523636 368.306282 
L 112.581818 368.345902 
L 116.64 368.418705 
L 120.698182 368.509334 
L 124.756364 368.604713 
L 128.814545 368.694601 
L 132.872727 368.770723 
L 136.930909 368.827406 
L 140.989091 368.862344 
L 145.047273 368.876782 
L 149.105455 368.874854 
L 153.163636 368.862177 
L 157.221818 368.844161 
L 161.28 368.824696 
L 165.338182 368.805729 
L 169.396364 368.787713 
L 173.454545 368.770428 
L 177.512727 368.753631 
L 181.570909 368.73731 
L 185.629091 368.721624 
L 189.687273 368.706693 
L 193.745455 368.692413 
L 197.803636 368.678337 
L 201.861818 368.663611 
L 205.92 368.646891 
L 209.978182 368.626093 
L 214.036364 368.597753 
L 218.094545 368.555626 
L 222.152727 368.488053 
L 226.210909 368.373604 
L 230.269091 368.174589 
L 234.327273 367.827962 
L 238.385455 367.23358 
L 242.443636 366.242734 
L 246.501818 364.657658 
L 250.56 362.260825 
L 254.618182 358.882922 
L 258.676364 354.479042 
L 262.734545 349.154072 
L 266.792727 343.114837 
L 270.850909 336.591401 
L 274.909091 329.780724 
L 278.967273 322.828075 
L 283.025455 315.832815 
L 287.083636 308.862356 
L 291.141818 301.965552 
L 295.2 295.182541 
L 299.258182 288.550588 
L 303.316364 282.106203 
L 307.374545 275.88409 
L 311.432727 269.913891 
L 315.490909 264.216228 
L 319.549091 258.799814 
L 323.607273 253.660999 
L 327.665455 248.786088 
L 331.723636 244.155503 
L 335.781818 239.74812 
L 339.84 235.544296 
L 343.898182 231.52695 
L 347.956364 227.681024 
L 352.014545 223.992254 
L 356.072727 220.446136 
L 360.130909 217.027608 
L 364.189091 213.721469 
L 368.247273 210.513189 
L 372.305455 207.389721 
L 376.363636 204.339959 
L 380.421818 201.354731 
L 384.48 198.426406 
L 388.538182 195.5483 
L 392.596364 192.714161 
L 396.654545 189.917882 
L 400.712727 187.153528 
L 404.770909 184.415577 
L 408.829091 181.699253 
L 412.887273 179.000784 
L 416.945455 176.317527 
L 421.003636 173.647955 
L 425.061818 170.991584 
L 429.12 168.348906 
L 433.178182 165.721358 
L 437.236364 163.111269 
L 441.294545 160.521693 
L 445.352727 157.956058 
L 449.410909 155.417612 
L 453.469091 152.908822 
L 457.527273 150.430866 
L 461.585455 147.98344 
L 465.643636 145.564932 
L 469.701818 143.172928 
L 473.76 140.804864 
L 477.818182 138.458598 
L 481.876364 136.132714 
L 485.934545 133.826498 
L 489.992727 131.53966 
L 494.050909 129.271965 
L 498.109091 127.022921 
L 498.109091 121.075009 
L 498.109091 121.075009 
L 494.050909 123.367689 
L 489.992727 125.679691 
L 485.934545 128.009445 
L 481.876364 130.35537 
L 477.818182 132.716142 
L 473.76 135.090952 
L 469.701818 137.479683 
L 465.643636 139.882958 
L 461.585455 142.302016 
L 457.527273 144.73844 
L 453.469091 147.193825 
L 449.410909 149.669519 
L 445.352727 152.16652 
L 441.294545 154.685562 
L 437.236364 157.227322 
L 433.178182 159.792645 
L 429.12 162.382692 
L 425.061818 164.998981 
L 421.003636 167.64331 
L 416.945455 170.317623 
L 412.887273 173.023841 
L 408.829091 175.763711 
L 404.770909 178.538677 
L 400.712727 181.349811 
L 396.654545 184.197829 
L 392.596364 187.083197 
L 388.538182 190.006352 
L 384.48 192.968026 
L 380.421818 195.969639 
L 376.363636 199.013757 
L 372.305455 202.104568 
L 368.247273 205.248326 
L 364.189091 208.453722 
L 360.130909 211.732105 
L 356.072727 215.097506 
L 352.014545 218.56647 
L 347.956364 222.157752 
L 343.898182 225.891973 
L 339.84 229.791316 
L 335.781818 233.879236 
L 331.723636 238.180022 
L 327.665455 242.717931 
L 323.607273 247.515629 
L 319.549091 252.591862 
L 315.490909 257.958595 
L 311.432727 263.618312 
L 307.374545 269.562344 
L 303.316364 275.770863 
L 299.258182 282.214617 
L 295.2 288.857778 
L 291.141818 295.660867 
L 287.083636 302.582689 
L 283.025455 309.580397 
L 278.967273 316.606956 
L 274.909091 323.605456 
L 270.850909 330.499993 
L 266.792727 337.183974 
L 262.734545 343.509781 
L 258.676364 349.289248 
L 254.618182 354.318859 
L 250.56 358.435455 
L 246.501818 361.579931 
L 242.443636 363.823326 
L 238.385455 365.33264 
L 234.327273 366.304714 
L 230.269091 366.91305 
L 226.210909 367.286398 
L 222.152727 367.511093 
L 218.094545 367.642499 
L 214.036364 367.71615 
L 209.978182 367.75546 
L 205.92 367.776273 
L 201.861818 367.789425 
L 197.803636 367.802207 
L 193.745455 367.819209 
L 189.687273 367.842798 
L 185.629091 367.87348 
L 181.570909 367.910282 
L 177.512727 367.951247 
L 173.454545 367.993963 
L 169.396364 368.035976 
L 165.338182 368.075006 
L 161.28 368.109044 
L 157.221818 368.136495 
L 153.163636 368.1565 
L 149.105455 368.169247 
L 145.047273 368.176021 
L 140.989091 368.178895 
L 136.930909 368.180233 
L 132.872727 368.182193 
L 128.814545 368.186326 
L 124.756364 368.19324 
L 120.698182 368.202283 
L 116.64 368.21093 
L 112.581818 368.212968 
L 108.523636 368.198693 
L 104.465455 368.177242 
L 100.407273 368.173898 
L 96.349091 368.203677 
L 92.290909 368.274931 
z
" clip-path="url(#p696bd4cf90)" style="fill: #ff7f0e; fill-opacity: 0.4"/>
   </g>
   <g id="PolyCollection_3">
    <path d="M 92.290909 368.274931 
L 92.290909 368.274931 
L 96.349091 368.676265 
L 100.407273 368.969146 
L 104.465455 369.166197 
L 108.523636 369.285343 
L 112.581818 369.343889 
L 116.64 369.36 
L 120.698182 369.353479 
L 124.756364 369.341966 
L 128.814545 369.335257 
L 132.872727 369.333138 
L 136.930909 369.329236 
L 140.989091 369.317953 
L 145.047273 369.299464 
L 149.105455 369.280151 
L 153.163636 369.268735 
L 157.221818 369.270803 
L 161.28 369.285592 
L 165.338182 369.307427 
L 169.396364 369.329679 
L 173.454545 369.347297 
L 177.512727 369.356997 
L 181.570909 369.356541 
L 185.629091 369.344239 
L 189.687273 369.319066 
L 193.745455 369.281726 
L 197.803636 369.236557 
L 201.861818 369.193006 
L 205.92 369.164395 
L 209.978182 369.162081 
L 214.036364 369.18703 
L 218.094545 369.224052 
L 222.152727 369.239684 
L 226.210909 369.179007 
L 230.269091 368.964565 
L 234.327273 368.565159 
L 238.385455 367.977724 
L 242.443636 366.633495 
L 246.501818 363.353975 
L 250.56 357.379875 
L 254.618182 349.25771 
L 258.676364 340.074909 
L 262.734545 330.478702 
L 266.792727 320.698185 
L 270.850909 310.799108 
L 274.909091 300.806077 
L 278.967273 290.742329 
L 283.025455 280.642239 
L 287.083636 270.560705 
L 291.141818 260.591594 
L 295.2 250.901465 
L 299.258182 241.768303 
L 303.316364 233.566797 
L 307.374545 226.599282 
L 311.432727 220.853023 
L 315.490909 216.015548 
L 319.549091 211.732412 
L 323.607273 207.766051 
L 327.665455 203.99399 
L 331.723636 200.36141 
L 335.781818 196.843847 
L 339.84 193.424504 
L 343.898182 190.082872 
L 347.956364 186.793091 
L 352.014545 183.528855 
L 356.072727 180.269883 
L 360.130909 177.006323 
L 364.189091 173.74035 
L 368.247273 170.48535 
L 372.305455 167.262323 
L 376.363636 164.092982 
L 380.421818 160.991436 
L 384.48 157.958858 
L 388.538182 154.98461 
L 392.596364 152.052903 
L 396.654545 149.150189 
L 400.712727 146.26894 
L 404.770909 143.407155 
L 408.829091 140.565996 
L 412.887273 137.748021 
L 416.945455 134.956593 
L 421.003636 132.195511 
L 425.061818 129.467942 
L 429.12 126.774937 
L 433.178182 124.114772 
L 437.236364 121.483889 
L 441.294545 118.878937 
L 445.352727 116.298537 
L 449.410909 113.743585 
L 453.469091 111.215982 
L 457.527273 108.716819 
L 461.585455 106.245379 
L 465.643636 103.799427 
L 469.701818 101.375896 
L 473.76 98.970834 
L 477.818182 96.578648 
L 481.876364 94.192292 
L 485.934545 91.805868 
L 489.992727 89.418827 
L 494.050909 87.038481 
L 498.109091 84.67783 
L 498.109091 66.96 
L 498.109091 66.96 
L 494.050909 69.317269 
L 489.992727 71.688361 
L 485.934545 74.065434 
L 481.876364 76.445694 
L 477.818182 78.831909 
L 473.76 81.229798 
L 469.701818 83.644558 
L 465.643636 86.078803 
L 461.585455 88.53272 
L 457.527273 91.005576 
L 453.469091 93.49712 
L 449.410909 96.008011 
L 445.352727 98.539511 
L 441.294545 101.093133 
L 437.236364 103.670553 
L 433.178182 106.273491 
L 429.12 108.903259 
L 425.061818 111.560288 
L 421.003636 114.244256 
L 416.945455 116.954805 
L 412.887273 119.692029 
L 408.829091 122.456082 
L 404.770909 125.2463 
L 400.712727 128.06084 
L 396.654545 130.897513 
L 392.596364 133.755703 
L 388.538182 136.638636 
L 384.48 139.554552 
L 380.421818 142.515111 
L 376.363636 145.530627 
L 372.305455 148.604594 
L 368.247273 151.731505 
L 364.189091 154.89982 
L 360.130909 158.097839 
L 356.072727 161.318662 
L 352.014545 164.562539 
L 347.956364 167.837341 
L 343.898182 171.157547 
L 339.84 174.540693 
L 335.781818 178.001606 
L 331.723636 181.549026 
L 327.665455 185.190659 
L 323.607273 188.947985 
L 319.549091 192.876248 
L 315.490909 197.085329 
L 311.432727 201.760115 
L 307.374545 207.168863 
L 303.316364 213.617856 
L 299.258182 221.292395 
L 295.2 230.070999 
L 291.141818 239.58747 
L 287.083636 249.482867 
L 283.025455 259.531555 
L 278.967273 269.61743 
L 274.909091 279.681395 
L 270.850909 289.68867 
L 266.792727 299.615166 
L 262.734545 309.445307 
L 258.676364 319.180113 
L 254.618182 328.86363 
L 250.56 338.605769 
L 246.501818 348.326333 
L 242.443636 357.007268 
L 238.385455 363.042352 
L 234.327273 366.037855 
L 230.269091 367.090631 
L 226.210909 367.440003 
L 222.152727 367.630649 
L 218.094545 367.804693 
L 214.036364 367.984575 
L 209.978182 368.157773 
L 205.92 368.306475 
L 201.861818 368.42092 
L 197.803636 368.502044 
L 193.745455 368.557233 
L 189.687273 368.595556 
L 185.629091 368.625197 
L 181.570909 368.652272 
L 177.512727 368.680264 
L 173.454545 368.709849 
L 169.396364 368.73913 
L 165.338182 368.764289 
L 161.28 368.780615 
L 157.221818 368.783881 
L 153.163636 368.772055 
L 149.105455 368.746591 
L 145.047273 368.711873 
L 140.989091 368.673044 
L 136.930909 368.63385 
L 132.872727 368.595228 
L 128.814545 368.555191 
L 124.756364 368.510789 
L 120.698182 368.461321 
L 116.64 368.409728 
L 112.581818 368.360817 
L 108.523636 368.318823 
L 104.465455 368.28678 
L 100.407273 368.267289 
L 96.349091 368.262831 
L 92.290909 368.274931 
z
" clip-path="url(#p696bd4cf90)" style="fill: #2ca02c; fill-opacity: 0.4"/>
   </g>
   <g id="PolyCollection_4">
    <path d="M 92.290909 368.274931 
L 92.290909 368.274931 
L 96.349091 368.270018 
L 100.407273 368.270263 
L 104.465455 368.274863 
L 108.523636 368.280915 
L 112.581818 368.294532 
L 116.64 368.317962 
L 120.698182 368.342271 
L 124.756364 368.365425 
L 128.814545 368.388798 
L 132.872727 368.410142 
L 136.930909 368.426165 
L 140.989091 368.437348 
L 145.047273 368.449666 
L 149.105455 368.472719 
L 153.163636 368.510478 
L 157.221818 368.550765 
L 161.28 368.57298 
L 165.338182 368.570278 
L 169.396364 368.5573 
L 173.454545 368.553337 
L 177.512727 368.563697 
L 181.570909 368.581591 
L 185.629091 368.601362 
L 189.687273 368.62406 
L 193.745455 368.650968 
L 197.803636 368.674769 
L 201.861818 368.683854 
L 205.92 368.676168 
L 209.978182 368.66062 
L 214.036364 368.643912 
L 218.094545 368.624801 
L 222.152727 368.602842 
L 226.210909 368.586656 
L 230.269091 368.595782 
L 234.327273 368.66418 
L 238.385455 368.784782 
L 242.443636 367.936177 
L 246.501818 361.692236 
L 250.56 350.060867 
L 254.618182 337.276047 
L 258.676364 324.275318 
L 262.734545 311.130496 
L 266.792727 297.886861 
L 270.850909 284.58628 
L 274.909091 271.323821 
L 278.967273 258.812341 
L 283.025455 249.108179 
L 287.083636 242.709834 
L 291.141818 237.698842 
L 295.2 232.975052 
L 299.258182 228.387841 
L 303.316364 223.935904 
L 307.374545 219.624359 
L 311.432727 215.44963 
L 315.490909 211.397436 
L 319.549091 207.448738 
L 323.607273 203.590223 
L 327.665455 199.819334 
L 331.723636 196.138014 
L 335.781818 192.543151 
L 339.84 189.024256 
L 343.898182 185.5669 
L 347.956364 182.156933 
L 352.014545 178.785916 
L 356.072727 175.45465 
L 360.130909 172.169739 
L 364.189091 168.93813 
L 368.247273 165.765797 
L 372.305455 162.656409 
L 376.363636 159.606939 
L 380.421818 156.606962 
L 384.48 153.644867 
L 388.538182 150.712183 
L 392.596364 147.80118 
L 396.654545 144.905512 
L 400.712727 142.026047 
L 404.770909 139.169122 
L 408.829091 136.338658 
L 412.887273 133.536649 
L 416.945455 130.76803 
L 421.003636 128.037302 
L 425.061818 125.343529 
L 429.12 122.68413 
L 433.178182 120.060072 
L 437.236364 117.473608 
L 441.294545 114.923502 
L 445.352727 112.404465 
L 449.410909 109.910085 
L 453.469091 107.436284 
L 457.527273 104.982814 
L 461.585455 102.550051 
L 465.643636 100.132801 
L 469.701818 97.719507 
L 473.76 95.302409 
L 477.818182 92.888716 
L 481.876364 90.49629 
L 485.934545 88.136552 
L 489.992727 85.805064 
L 494.050909 83.489119 
L 498.109091 81.181534 
L 498.109091 78.32447 
L 498.109091 78.32447 
L 494.050909 80.644907 
L 489.992727 82.974494 
L 485.934545 85.315834 
L 481.876364 87.67813 
L 477.818182 90.067755 
L 473.76 92.479571 
L 469.701818 94.900909 
L 465.643636 97.323423 
L 461.585455 99.748328 
L 457.527273 102.182395 
L 453.469091 104.632551 
L 449.410909 107.104131 
L 445.352727 109.603637 
L 441.294545 112.14064 
L 437.236364 114.722606 
L 433.178182 117.348542 
L 429.12 120.010277 
L 425.061818 122.699098 
L 421.003636 125.411459 
L 416.945455 128.149822 
L 412.887273 130.918453 
L 408.829091 133.72034 
L 404.770909 136.557903 
L 400.712727 139.430571 
L 396.654545 142.330072 
L 392.596364 145.24378 
L 388.538182 148.165184 
L 384.48 151.099694 
L 380.421818 154.061268 
L 376.363636 157.063653 
L 372.305455 160.112837 
L 368.247273 163.20933 
L 364.189091 166.357253 
L 360.130909 169.564493 
L 356.072727 172.832548 
L 352.014545 176.152855 
L 347.956364 179.517419 
L 343.898182 182.930755 
L 339.84 186.408489 
L 335.781818 189.965999 
L 331.723636 193.609923 
L 327.665455 197.336656 
L 323.607273 201.135704 
L 319.549091 204.998613 
L 315.490909 208.929455 
L 311.432727 212.946839 
L 307.374545 217.076739 
L 303.316364 221.342531 
L 299.258182 225.757509 
L 295.2 230.323617 
L 291.141818 235.04324 
L 287.083636 240.049066 
L 283.025455 246.313769 
L 278.967273 255.628937 
L 274.909091 267.708355 
L 270.850909 280.435454 
L 266.792727 292.777528 
L 262.734545 304.581096 
L 258.676364 316.082559 
L 254.618182 327.699086 
L 250.56 339.6848 
L 246.501818 352.035674 
L 242.443636 362.618542 
L 238.385455 367.377969 
L 234.327273 367.786259 
L 230.269091 367.779937 
L 226.210909 367.779441 
L 222.152727 367.791985 
L 218.094545 367.810517 
L 214.036364 367.83376 
L 209.978182 367.863083 
L 205.92 367.895677 
L 201.861818 367.922628 
L 197.803636 367.935613 
L 193.745455 367.935898 
L 189.687273 367.93445 
L 185.629091 367.942968 
L 181.570909 367.966567 
L 177.512727 368.003181 
L 173.454545 368.047662 
L 169.396364 368.095925 
L 165.338182 368.143637 
L 161.28 368.181535 
L 157.221818 368.199449 
L 153.163636 368.197534 
L 149.105455 368.185716 
L 145.047273 368.171809 
L 140.989091 368.156748 
L 136.930909 368.140671 
L 132.872727 368.127506 
L 128.814545 368.123132 
L 124.756364 368.132476 
L 120.698182 368.154458 
L 116.64 368.178995 
L 112.581818 368.193071 
L 108.523636 368.191766 
L 104.465455 368.191148 
L 100.407273 368.20715 
L 96.349091 368.237644 
L 92.290909 368.274931 
z
" clip-path="url(#p696bd4cf90)" style="fill: #d62728; fill-opacity: 0.4"/>
   </g>
   <g id="matplotlib.axis_1">
    <g id="xtick_1">
     <g id="line2d_1">
      <defs>
       <path id="madff7bb83d" d="M 0 0 
L 0 3.5 
" style="stroke: #000000; stroke-width: 0.8"/>
      </defs>
      <g>
       <use xlink:href="#madff7bb83d" x="132.872727" y="384.48" style="stroke: #000000; stroke-width: 0.8"/>
      </g>
     </g>
     <g id="text_1">
      <!-- 10.76 -->
      <g transform="translate(117.127259 399.838281) scale(0.11 -0.11)">
       <defs>
        <path id="DejaVuSans-31" d="M 794 531 
L 1825 531 
L 1825 4091 
L 703 3866 
L 703 4441 
L 1819 4666 
L 2450 4666 
L 2450 531 
L 3481 531 
L 3481 0 
L 794 0 
L 794 531 
z
" transform="scale(0.015625)"/>
        <path id="DejaVuSans-30" d="M 2034 4250 
Q 1547 4250 1301 3770 
Q 1056 3291 1056 2328 
Q 1056 1369 1301 889 
Q 1547 409 2034 409 
Q 2525 409 2770 889 
Q 3016 1369 3016 2328 
Q 3016 3291 2770 3770 
Q 2525 4250 2034 4250 
z
M 2034 4750 
Q 2819 4750 3233 4129 
Q 3647 3509 3647 2328 
Q 3647 1150 3233 529 
Q 2819 -91 2034 -91 
Q 1250 -91 836 529 
Q 422 1150 422 2328 
Q 422 3509 836 4129 
Q 1250 4750 2034 4750 
z
" transform="scale(0.015625)"/>
        <path id="DejaVuSans-2e" d="M 684 794 
L 1344 794 
L 1344 0 
L 684 0 
L 684 794 
z
" transform="scale(0.015625)"/>
        <path id="DejaVuSans-37" d="M 525 4666 
L 3525 4666 
L 3525 4397 
L 1831 0 
L 1172 0 
L 2766 4134 
L 525 4134 
L 525 4666 
z
" transform="scale(0.015625)"/>
        <path id="DejaVuSans-36" d="M 2113 2584 
Q 1688 2584 1439 2293 
Q 1191 2003 1191 1497 
Q 1191 994 1439 701 
Q 1688 409 2113 409 
Q 2538 409 2786 701 
Q 3034 994 3034 1497 
Q 3034 2003 2786 2293 
Q 2538 2584 2113 2584 
z
M 3366 4563 
L 3366 3988 
Q 3128 4100 2886 4159 
Q 2644 4219 2406 4219 
Q 1781 4219 1451 3797 
Q 1122 3375 1075 2522 
Q 1259 2794 1537 2939 
Q 1816 3084 2150 3084 
Q 2853 3084 3261 2657 
Q 3669 2231 3669 1497 
Q 3669 778 3244 343 
Q 2819 -91 2113 -91 
Q 1303 -91 875 529 
Q 447 1150 447 2328 
Q 447 3434 972 4092 
Q 1497 4750 2381 4750 
Q 2619 4750 2861 4703 
Q 3103 4656 3366 4563 
z
" transform="scale(0.015625)"/>
       </defs>
       <use xlink:href="#DejaVuSans-31"/>
       <use xlink:href="#DejaVuSans-30" x="63.623047"/>
       <use xlink:href="#DejaVuSans-2e" x="127.246094"/>
       <use xlink:href="#DejaVuSans-37" x="159.033203"/>
       <use xlink:href="#DejaVuSans-36" x="222.65625"/>
      </g>
     </g>
    </g>
    <g id="xtick_2">
     <g id="line2d_2">
      <g>
       <use xlink:href="#madff7bb83d" x="214.036364" y="384.48" style="stroke: #000000; stroke-width: 0.8"/>
      </g>
     </g>
     <g id="text_2">
      <!-- 10.78 -->
      <g transform="translate(198.290895 399.838281) scale(0.11 -0.11)">
       <defs>
        <path id="DejaVuSans-38" d="M 2034 2216 
Q 1584 2216 1326 1975 
Q 1069 1734 1069 1313 
Q 1069 891 1326 650 
Q 1584 409 2034 409 
Q 2484 409 2743 651 
Q 3003 894 3003 1313 
Q 3003 1734 2745 1975 
Q 2488 2216 2034 2216 
z
M 1403 2484 
Q 997 2584 770 2862 
Q 544 3141 544 3541 
Q 544 4100 942 4425 
Q 1341 4750 2034 4750 
Q 2731 4750 3128 4425 
Q 3525 4100 3525 3541 
Q 3525 3141 3298 2862 
Q 3072 2584 2669 2484 
Q 3125 2378 3379 2068 
Q 3634 1759 3634 1313 
Q 3634 634 3220 271 
Q 2806 -91 2034 -91 
Q 1263 -91 848 271 
Q 434 634 434 1313 
Q 434 1759 690 2068 
Q 947 2378 1403 2484 
z
M 1172 3481 
Q 1172 3119 1398 2916 
Q 1625 2713 2034 2713 
Q 2441 2713 2670 2916 
Q 2900 3119 2900 3481 
Q 2900 3844 2670 4047 
Q 2441 4250 2034 4250 
Q 1625 4250 1398 4047 
Q 1172 3844 1172 3481 
z
" transform="scale(0.015625)"/>
       </defs>
       <use xlink:href="#DejaVuSans-31"/>
       <use xlink:href="#DejaVuSans-30" x="63.623047"/>
       <use xlink:href="#DejaVuSans-2e" x="127.246094"/>
       <use xlink:href="#DejaVuSans-37" x="159.033203"/>
       <use xlink:href="#DejaVuSans-38" x="222.65625"/>
      </g>
     </g>
    </g>
    <g id="xtick_3">
     <g id="line2d_3">
      <g>
       <use xlink:href="#madff7bb83d" x="295.2" y="384.48" style="stroke: #000000; stroke-width: 0.8"/>
      </g>
     </g>
     <g id="text_3">
      <!-- 10.80 -->
      <g transform="translate(279.454531 399.838281) scale(0.11 -0.11)">
       <use xlink:href="#DejaVuSans-31"/>
       <use xlink:href="#DejaVuSans-30" x="63.623047"/>
       <use xlink:href="#DejaVuSans-2e" x="127.246094"/>
       <use xlink:href="#DejaVuSans-38" x="159.033203"/>
       <use xlink:href="#DejaVuSans-30" x="222.65625"/>
      </g>
     </g>
    </g>
    <g id="xtick_4">
     <g id="line2d_4">
      <g>
       <use xlink:href="#madff7bb83d" x="376.363636" y="384.48" style="stroke: #000000; stroke-width: 0.8"/>
      </g>
     </g>
     <g id="text_4">
      <!-- 10.82 -->
      <g transform="translate(360.618168 399.838281) scale(0.11 -0.11)">
       <defs>
        <path id="DejaVuSans-32" d="M 1228 531 
L 3431 531 
L 3431 0 
L 469 0 
L 469 531 
Q 828 903 1448 1529 
Q 2069 2156 2228 2338 
Q 2531 2678 2651 2914 
Q 2772 3150 2772 3378 
Q 2772 3750 2511 3984 
Q 2250 4219 1831 4219 
Q 1534 4219 1204 4116 
Q 875 4013 500 3803 
L 500 4441 
Q 881 4594 1212 4672 
Q 1544 4750 1819 4750 
Q 2544 4750 2975 4387 
Q 3406 4025 3406 3419 
Q 3406 3131 3298 2873 
Q 3191 2616 2906 2266 
Q 2828 2175 2409 1742 
Q 1991 1309 1228 531 
z
" transform="scale(0.015625)"/>
       </defs>
       <use xlink:href="#DejaVuSans-31"/>
       <use xlink:href="#DejaVuSans-30" x="63.623047"/>
       <use xlink:href="#DejaVuSans-2e" x="127.246094"/>
       <use xlink:href="#DejaVuSans-38" x="159.033203"/>
       <use xlink:href="#DejaVuSans-32" x="222.65625"/>
      </g>
     </g>
    </g>
    <g id="xtick_5">
     <g id="line2d_5">
      <g>
       <use xlink:href="#madff7bb83d" x="457.527273" y="384.48" style="stroke: #000000; stroke-width: 0.8"/>
      </g>
     </g>
     <g id="text_5">
      <!-- 10.84 -->
      <g transform="translate(441.781804 399.838281) scale(0.11 -0.11)">
       <defs>
        <path id="DejaVuSans-34" d="M 2419 4116 
L 825 1625 
L 2419 1625 
L 2419 4116 
z
M 2253 4666 
L 3047 4666 
L 3047 1625 
L 3713 1625 
L 3713 1100 
L 3047 1100 
L 3047 0 
L 2419 0 
L 2419 1100 
L 313 1100 
L 313 1709 
L 2253 4666 
z
" transform="scale(0.015625)"/>
       </defs>
       <use xlink:href="#DejaVuSans-31"/>
       <use xlink:href="#DejaVuSans-30" x="63.623047"/>
       <use xlink:href="#DejaVuSans-2e" x="127.246094"/>
       <use xlink:href="#DejaVuSans-38" x="159.033203"/>
       <use xlink:href="#DejaVuSans-34" x="222.65625"/>
      </g>
     </g>
    </g>
    <g id="text_6">
     <!-- $\beta$ -->
     <g transform="translate(291.68 414.595937) scale(0.11 -0.11)">
      <defs>
       <path id="DejaVuSans-Oblique-3b2" d="M 872 216 
L 572 -1331 
L -6 -1331 
L 928 3478 
Q 1206 4903 2538 4903 
Q 3888 4903 3659 3700 
Q 3503 2844 2894 2531 
Q 3713 2250 3553 1416 
Q 3272 -69 1759 -66 
Q 1097 -63 872 216 
z
M 1019 966 
Q 1259 422 1875 425 
Q 2775 425 2966 1406 
Q 3138 2288 1675 2219 
L 1778 2750 
Q 2909 2731 3106 3750 
Q 3241 4438 2509 4434 
Q 1691 4434 1503 3459 
L 1019 966 
z
" transform="scale(0.015625)"/>
      </defs>
      <use xlink:href="#DejaVuSans-Oblique-3b2" transform="translate(0 0.390625)"/>
     </g>
    </g>
   </g>
   <g id="matplotlib.axis_2">
    <g id="ytick_1">
     <g id="line2d_6">
      <defs>
       <path id="mdffa4b8996" d="M 0 0 
L -3.5 0 
" style="stroke: #000000; stroke-width: 0.8"/>
      </defs>
      <g>
       <use xlink:href="#mdffa4b8996" x="72" y="368.274931" style="stroke: #000000; stroke-width: 0.8"/>
      </g>
     </g>
     <g id="text_7">
      <!-- 0.0 -->
      <g transform="translate(47.506563 372.454072) scale(0.11 -0.11)">
       <use xlink:href="#DejaVuSans-30"/>
       <use xlink:href="#DejaVuSans-2e" x="63.623047"/>
       <use xlink:href="#DejaVuSans-30" x="95.410156"/>
      </g>
     </g>
    </g>
    <g id="ytick_2">
     <g id="line2d_7">
      <g>
       <use xlink:href="#mdffa4b8996" x="72" y="321.424805" style="stroke: #000000; stroke-width: 0.8"/>
      </g>
     </g>
     <g id="text_8">
      <!-- 0.2 -->
      <g transform="translate(47.506563 325.603945) scale(0.11 -0.11)">
       <use xlink:href="#DejaVuSans-30"/>
       <use xlink:href="#DejaVuSans-2e" x="63.623047"/>
       <use xlink:href="#DejaVuSans-32" x="95.410156"/>
      </g>
     </g>
    </g>
    <g id="ytick_3">
     <g id="line2d_8">
      <g>
       <use xlink:href="#mdffa4b8996" x="72" y="274.574678" style="stroke: #000000; stroke-width: 0.8"/>
      </g>
     </g>
     <g id="text_9">
      <!-- 0.4 -->
      <g transform="translate(47.506563 278.753819) scale(0.11 -0.11)">
       <use xlink:href="#DejaVuSans-30"/>
       <use xlink:href="#DejaVuSans-2e" x="63.623047"/>
       <use xlink:href="#DejaVuSans-34" x="95.410156"/>
      </g>
     </g>
    </g>
    <g id="ytick_4">
     <g id="line2d_9">
      <g>
       <use xlink:href="#mdffa4b8996" x="72" y="227.724552" style="stroke: #000000; stroke-width: 0.8"/>
      </g>
     </g>
     <g id="text_10">
      <!-- 0.6 -->
      <g transform="translate(47.506563 231.903693) scale(0.11 -0.11)">
       <use xlink:href="#DejaVuSans-30"/>
       <use xlink:href="#DejaVuSans-2e" x="63.623047"/>
       <use xlink:href="#DejaVuSans-36" x="95.410156"/>
      </g>
     </g>
    </g>
    <g id="ytick_5">
     <g id="line2d_10">
      <g>
       <use xlink:href="#mdffa4b8996" x="72" y="180.874426" style="stroke: #000000; stroke-width: 0.8"/>
      </g>
     </g>
     <g id="text_11">
      <!-- 0.8 -->
      <g transform="translate(47.506563 185.053566) scale(0.11 -0.11)">
       <use xlink:href="#DejaVuSans-30"/>
       <use xlink:href="#DejaVuSans-2e" x="63.623047"/>
       <use xlink:href="#DejaVuSans-38" x="95.410156"/>
      </g>
     </g>
    </g>
    <g id="ytick_6">
     <g id="line2d_11">
      <g>
       <use xlink:href="#mdffa4b8996" x="72" y="134.024299" style="stroke: #000000; stroke-width: 0.8"/>
      </g>
     </g>
     <g id="text_12">
      <!-- 1.0 -->
      <g transform="translate(47.506563 138.20344) scale(0.11 -0.11)">
       <use xlink:href="#DejaVuSans-31"/>
       <use xlink:href="#DejaVuSans-2e" x="63.623047"/>
       <use xlink:href="#DejaVuSans-30" x="95.410156"/>
      </g>
     </g>
    </g>
    <g id="ytick_7">
     <g id="line2d_12">
      <g>
       <use xlink:href="#mdffa4b8996" x="72" y="87.174173" style="stroke: #000000; stroke-width: 0.8"/>
      </g>
     </g>
     <g id="text_13">
      <!-- 1.2 -->
      <g transform="translate(47.506563 91.353313) scale(0.11 -0.11)">
       <use xlink:href="#DejaVuSans-31"/>
       <use xlink:href="#DejaVuSans-2e" x="63.623047"/>
       <use xlink:href="#DejaVuSans-32" x="95.410156"/>
      </g>
     </g>
    </g>
    <g id="text_14">
     <!-- $\alpha_{o-o}/T^3$ -->
     <g transform="translate(41.218906 239.61) rotate(-90) scale(0.11 -0.11)">
      <defs>
       <path id="DejaVuSans-Oblique-3b1" d="M 2619 1628 
L 2622 2350 
Q 2625 3088 2069 3091 
Q 1653 3094 1394 2747 
Q 1069 2319 959 1747 
Q 825 1059 994 731 
Q 1169 397 1547 397 
Q 1966 397 2319 1063 
L 2619 1628 
z
M 2166 3578 
Q 3141 3594 3128 2584 
Q 3128 2584 3616 3500 
L 4128 3500 
L 3119 1603 
L 3109 919 
Q 3109 766 3194 638 
Q 3291 488 3391 488 
L 3669 488 
L 3575 0 
L 3228 0 
Q 2934 0 2722 263 
Q 2622 394 2619 669 
Q 2416 334 2066 50 
Q 1900 -81 1453 -78 
Q 722 -72 456 397 
Q 184 884 353 1747 
Q 534 2675 1009 3097 
Q 1544 3569 2166 3578 
z
" transform="scale(0.015625)"/>
       <path id="DejaVuSans-Oblique-6f" d="M 1625 -91 
Q 1009 -91 651 289 
Q 294 669 294 1325 
Q 294 1706 417 2101 
Q 541 2497 738 2766 
Q 1047 3184 1428 3384 
Q 1809 3584 2291 3584 
Q 2888 3584 3255 3212 
Q 3622 2841 3622 2241 
Q 3622 1825 3500 1412 
Q 3378 1000 3181 728 
Q 2875 309 2494 109 
Q 2113 -91 1625 -91 
z
M 891 1344 
Q 891 869 1089 633 
Q 1288 397 1691 397 
Q 2269 397 2648 901 
Q 3028 1406 3028 2181 
Q 3028 2634 2825 2865 
Q 2622 3097 2228 3097 
Q 1903 3097 1650 2945 
Q 1397 2794 1197 2484 
Q 1050 2253 970 1956 
Q 891 1659 891 1344 
z
" transform="scale(0.015625)"/>
       <path id="DejaVuSans-2212" d="M 678 2272 
L 4684 2272 
L 4684 1741 
L 678 1741 
L 678 2272 
z
" transform="scale(0.015625)"/>
       <path id="DejaVuSans-2f" d="M 1625 4666 
L 2156 4666 
L 531 -594 
L 0 -594 
L 1625 4666 
z
" transform="scale(0.015625)"/>
       <path id="DejaVuSans-Oblique-54" d="M 378 4666 
L 4325 4666 
L 4225 4134 
L 2559 4134 
L 1759 0 
L 1125 0 
L 1925 4134 
L 275 4134 
L 378 4666 
z
" transform="scale(0.015625)"/>
       <path id="DejaVuSans-33" d="M 2597 2516 
Q 3050 2419 3304 2112 
Q 3559 1806 3559 1356 
Q 3559 666 3084 287 
Q 2609 -91 1734 -91 
Q 1441 -91 1130 -33 
Q 819 25 488 141 
L 488 750 
Q 750 597 1062 519 
Q 1375 441 1716 441 
Q 2309 441 2620 675 
Q 2931 909 2931 1356 
Q 2931 1769 2642 2001 
Q 2353 2234 1838 2234 
L 1294 2234 
L 1294 2753 
L 1863 2753 
Q 2328 2753 2575 2939 
Q 2822 3125 2822 3475 
Q 2822 3834 2567 4026 
Q 2313 4219 1838 4219 
Q 1578 4219 1281 4162 
Q 984 4106 628 3988 
L 628 4550 
Q 988 4650 1302 4700 
Q 1616 4750 1894 4750 
Q 2613 4750 3031 4423 
Q 3450 4097 3450 3541 
Q 3450 3153 3228 2886 
Q 3006 2619 2597 2516 
z
" transform="scale(0.015625)"/>
      </defs>
      <use xlink:href="#DejaVuSans-Oblique-3b1" transform="translate(0 0.765625)"/>
      <use xlink:href="#DejaVuSans-Oblique-6f" transform="translate(65.917969 -15.640625) scale(0.7)"/>
      <use xlink:href="#DejaVuSans-2212" transform="translate(122.382812 -15.640625) scale(0.7)"/>
      <use xlink:href="#DejaVuSans-Oblique-6f" transform="translate(194.672852 -15.640625) scale(0.7)"/>
      <use xlink:href="#DejaVuSans-2f" transform="translate(240.234375 0.765625)"/>
      <use xlink:href="#DejaVuSans-Oblique-54" transform="translate(273.925781 0.765625)"/>
      <use xlink:href="#DejaVuSans-33" transform="translate(342.026536 39.046875) scale(0.7)"/>
     </g>
    </g>
   </g>
   <g id="line2d_13">
    <path d="M 92.290909 368.274931 
L 96.349091 368.263677 
L 100.407273 368.249376 
L 104.465455 368.233867 
L 108.523636 368.219117 
L 112.581818 368.20684 
L 116.64 368.198158 
L 120.698182 368.193357 
L 124.756364 368.191784 
L 128.814545 368.191897 
L 132.872727 368.191439 
L 136.930909 368.187682 
L 140.989091 368.177688 
L 145.047273 368.158505 
L 149.105455 368.127263 
L 153.163636 368.081137 
L 157.221818 368.017194 
L 161.28 367.932148 
L 165.338182 367.822087 
L 169.396364 367.682241 
L 173.454545 367.506828 
L 177.512727 367.289043 
L 181.570909 367.021161 
L 185.629091 366.694742 
L 189.687273 366.300864 
L 193.745455 365.830303 
L 197.803636 365.273592 
L 201.861818 364.620918 
L 205.92 363.861848 
L 209.978182 362.984965 
L 214.036364 361.977509 
L 218.094545 360.825177 
L 222.152727 359.512217 
L 226.210909 358.021924 
L 230.269091 356.337546 
L 234.327273 354.443546 
L 238.385455 352.32702 
L 242.443636 349.979041 
L 246.501818 347.395669 
L 250.56 344.578426 
L 254.618182 341.534162 
L 258.676364 338.27435 
L 262.734545 334.813988 
L 266.792727 331.170316 
L 270.850909 327.36158 
L 274.909091 323.406015 
L 278.967273 319.321136 
L 283.025455 315.123385 
L 287.083636 310.82808 
L 291.141818 306.449612 
L 295.2 302.001782 
L 299.258182 297.498197 
L 303.316364 292.95262 
L 307.374545 288.379218 
L 311.432727 283.792647 
L 315.490909 279.20798 
L 319.549091 274.640453 
L 323.607273 270.105087 
L 327.665455 265.616227 
L 331.723636 261.187039 
L 335.781818 256.829055 
L 339.84 252.551787 
L 343.898182 248.362478 
L 347.956364 244.266005 
L 352.014545 240.264935 
L 356.072727 236.359732 
L 360.130909 232.549067 
L 364.189091 228.830199 
L 368.247273 225.199368 
L 372.305455 221.652157 
L 376.363636 218.183793 
L 380.421818 214.789363 
L 384.48 211.463954 
L 388.538182 208.202728 
L 392.596364 205.000967 
L 396.654545 201.85411 
L 400.712727 198.757812 
L 404.770909 195.70803 
L 408.829091 192.70114 
L 412.887273 189.73406 
L 416.945455 186.80436 
L 421.003636 183.910331 
L 425.061818 181.050998 
L 429.12 178.226051 
L 433.178182 175.435717 
L 437.236364 172.680577 
L 441.294545 169.961351 
L 445.352727 167.278688 
L 449.410909 164.632988 
L 453.469091 162.02427 
L 457.527273 159.452111 
L 461.585455 156.91565 
L 465.643636 154.413654 
L 469.701818 151.944638 
L 473.76 149.506999 
L 477.818182 147.099165 
L 481.876364 144.719725 
L 485.934545 142.367522 
L 489.992727 140.041695 
L 494.050909 137.741676 
L 498.109091 135.467124 
" clip-path="url(#p696bd4cf90)" style="fill: none; stroke: #1f77b4; stroke-width: 1.5; stroke-linecap: square"/>
   </g>
   <g id="line2d_14">
    <path d="M 92.290909 368.274931 
L 96.349091 368.245267 
L 100.407273 368.23316 
L 104.465455 368.23633 
L 108.523636 368.252487 
L 112.581818 368.279435 
L 116.64 368.314817 
L 120.698182 368.355808 
L 124.756364 368.398977 
L 128.814545 368.440463 
L 132.872727 368.476458 
L 136.930909 368.503819 
L 140.989091 368.52062 
L 145.047273 368.526401 
L 149.105455 368.52205 
L 153.163636 368.509339 
L 157.221818 368.490328 
L 161.28 368.46687 
L 165.338182 368.440368 
L 169.396364 368.411844 
L 173.454545 368.382196 
L 177.512727 368.352439 
L 181.570909 368.323796 
L 185.629091 368.297552 
L 189.687273 368.274745 
L 193.745455 368.255811 
L 197.803636 368.240272 
L 201.861818 368.226518 
L 205.92 368.211582 
L 209.978182 368.190776 
L 214.036364 368.156951 
L 218.094545 368.099063 
L 222.152727 367.999573 
L 226.210909 367.830001 
L 230.269091 367.54382 
L 234.327273 367.066338 
L 238.385455 366.28311 
L 242.443636 365.03303 
L 246.501818 363.118795 
L 250.56 360.34814 
L 254.618182 356.60089 
L 258.676364 351.884145 
L 262.734545 346.331926 
L 266.792727 340.149406 
L 270.850909 333.545697 
L 274.909091 326.69309 
L 278.967273 319.717515 
L 283.025455 312.706606 
L 287.083636 305.722522 
L 291.141818 298.81321 
L 295.2 292.02016 
L 299.258182 285.382602 
L 303.316364 278.938533 
L 307.374545 272.723217 
L 311.432727 266.766101 
L 315.490909 261.087411 
L 319.549091 255.695838 
L 323.607273 250.588314 
L 327.665455 245.752009 
L 331.723636 241.167763 
L 335.781818 236.813678 
L 339.84 232.667806 
L 343.898182 228.709461 
L 347.956364 224.919388 
L 352.014545 221.279362 
L 356.072727 217.771821 
L 360.130909 214.379857 
L 364.189091 211.087595 
L 368.247273 207.880757 
L 372.305455 204.747145 
L 376.363636 201.676858 
L 380.421818 198.662185 
L 384.48 195.697216 
L 388.538182 192.777326 
L 392.596364 189.898679 
L 396.654545 187.057856 
L 400.712727 184.25167 
L 404.770909 181.477127 
L 408.829091 178.731482 
L 412.887273 176.012312 
L 416.945455 173.317575 
L 421.003636 170.645632 
L 425.061818 167.995282 
L 429.12 165.365799 
L 433.178182 162.757001 
L 437.236364 160.169295 
L 441.294545 157.603628 
L 445.352727 155.061289 
L 449.410909 152.543566 
L 453.469091 150.051323 
L 457.527273 147.584653 
L 461.585455 145.142728 
L 465.643636 142.723945 
L 469.701818 140.326305 
L 473.76 137.947908 
L 477.818182 135.58737 
L 481.876364 133.244042 
L 485.934545 130.917971 
L 489.992727 128.609676 
L 494.050909 126.319827 
L 498.109091 124.048965 
" clip-path="url(#p696bd4cf90)" style="fill: none; stroke: #ff7f0e; stroke-width: 1.5; stroke-linecap: square"/>
   </g>
   <g id="line2d_15">
    <path d="M 92.290909 368.274931 
L 96.349091 368.469548 
L 100.407273 368.618217 
L 104.465455 368.726488 
L 108.523636 368.802083 
L 112.581818 368.852353 
L 116.64 368.884864 
L 120.698182 368.9074 
L 124.756364 368.926377 
L 128.814545 368.945224 
L 132.872727 368.964183 
L 136.930909 368.981543 
L 140.989091 368.995498 
L 145.047273 369.005668 
L 149.105455 369.013371 
L 153.163636 369.020395 
L 157.221818 369.027342 
L 161.28 369.033103 
L 165.338182 369.035858 
L 169.396364 369.034404 
L 173.454545 369.028573 
L 177.512727 369.01863 
L 181.570909 369.004406 
L 185.629091 368.984718 
L 189.687273 368.957311 
L 193.745455 368.91948 
L 197.803636 368.8693 
L 201.861818 368.806963 
L 205.92 368.735435 
L 209.978182 368.659927 
L 214.036364 368.585803 
L 218.094545 368.514372 
L 222.152727 368.435166 
L 226.210909 368.309505 
L 230.269091 368.027598 
L 234.327273 367.301507 
L 238.385455 365.510038 
L 242.443636 361.820381 
L 246.501818 355.840154 
L 250.56 347.992822 
L 254.618182 339.06067 
L 258.676364 329.627511 
L 262.734545 319.962004 
L 266.792727 310.156675 
L 270.850909 300.243889 
L 274.909091 290.243736 
L 278.967273 280.179879 
L 283.025455 270.086897 
L 287.083636 260.021786 
L 291.141818 250.089532 
L 295.2 240.486232 
L 299.258182 231.530349 
L 303.316364 223.592327 
L 307.374545 216.884072 
L 311.432727 211.306569 
L 315.490909 206.550438 
L 319.549091 202.30433 
L 323.607273 198.357018 
L 327.665455 194.592324 
L 331.723636 190.955218 
L 335.781818 187.422726 
L 339.84 183.982598 
L 343.898182 180.620209 
L 347.956364 177.315216 
L 352.014545 174.045697 
L 356.072727 170.794272 
L 360.130909 167.552081 
L 364.189091 164.320085 
L 368.247273 161.108428 
L 372.305455 157.933459 
L 376.363636 154.811805 
L 380.421818 151.753274 
L 384.48 148.756705 
L 388.538182 145.811623 
L 392.596364 142.904303 
L 396.654545 140.023851 
L 400.712727 137.16489 
L 404.770909 134.326727 
L 408.829091 131.511039 
L 412.887273 128.720025 
L 416.945455 125.955699 
L 421.003636 123.219884 
L 425.061818 120.514115 
L 429.12 117.839098 
L 433.178182 115.194132 
L 437.236364 112.577221 
L 441.294545 109.986035 
L 445.352727 107.419024 
L 449.410909 104.875798 
L 453.469091 102.356551 
L 457.527273 99.861198 
L 461.585455 97.38905 
L 465.643636 94.939115 
L 469.701818 92.510227 
L 473.76 90.100316 
L 477.818182 87.705278 
L 481.876364 85.318993 
L 485.934545 82.935651 
L 489.992727 80.553594 
L 494.050909 78.177875 
L 498.109091 75.818915 
" clip-path="url(#p696bd4cf90)" style="fill: none; stroke: #2ca02c; stroke-width: 1.5; stroke-linecap: square"/>
   </g>
   <g id="line2d_16">
    <path d="M 92.290909 368.274931 
L 96.349091 368.253831 
L 100.407273 368.238707 
L 104.465455 368.233005 
L 108.523636 368.23634 
L 112.581818 368.243801 
L 116.64 368.248479 
L 120.698182 368.248365 
L 124.756364 368.24895 
L 128.814545 368.255965 
L 132.872727 368.268824 
L 136.930909 368.283418 
L 140.989091 368.297048 
L 145.047273 368.310738 
L 149.105455 368.329218 
L 153.163636 368.354006 
L 157.221818 368.375107 
L 161.28 368.377258 
L 165.338182 368.356957 
L 169.396364 368.326613 
L 173.454545 368.3005 
L 177.512727 368.283439 
L 181.570909 368.274079 
L 185.629091 368.272165 
L 189.687273 368.279255 
L 193.745455 368.293433 
L 197.803636 368.305191 
L 201.861818 368.303241 
L 205.92 368.285923 
L 209.978182 368.261851 
L 214.036364 368.238836 
L 218.094545 368.217659 
L 222.152727 368.197414 
L 226.210909 368.183048 
L 230.269091 368.18786 
L 234.327273 368.22522 
L 238.385455 368.081375 
L 242.443636 365.27736 
L 246.501818 356.863955 
L 250.56 344.872834 
L 254.618182 332.487567 
L 258.676364 320.178938 
L 262.734545 307.855796 
L 266.792727 295.332194 
L 270.850909 282.510867 
L 274.909091 269.516088 
L 278.967273 257.220639 
L 283.025455 247.710974 
L 287.083636 241.37945 
L 291.141818 236.371041 
L 295.2 231.649335 
L 299.258182 227.072675 
L 303.316364 222.639217 
L 307.374545 218.350549 
L 311.432727 214.198235 
L 315.490909 210.163446 
L 319.549091 206.223675 
L 323.607273 202.362963 
L 327.665455 198.577995 
L 331.723636 194.873968 
L 335.781818 191.254575 
L 339.84 187.716372 
L 343.898182 184.248827 
L 347.956364 180.837176 
L 352.014545 177.469386 
L 356.072727 174.143599 
L 360.130909 170.867116 
L 364.189091 167.647691 
L 368.247273 164.487564 
L 372.305455 161.384623 
L 376.363636 158.335296 
L 380.421818 155.334115 
L 384.48 152.37228 
L 388.538182 149.438683 
L 392.596364 146.52248 
L 396.654545 143.617792 
L 400.712727 140.728309 
L 404.770909 137.863512 
L 408.829091 135.029499 
L 412.887273 132.227551 
L 416.945455 129.458926 
L 421.003636 126.72438 
L 425.061818 124.021314 
L 429.12 121.347203 
L 433.178182 118.704307 
L 437.236364 116.098107 
L 441.294545 113.532071 
L 445.352727 111.004051 
L 449.410909 108.507108 
L 453.469091 106.034417 
L 457.527273 103.582605 
L 461.585455 101.149189 
L 465.643636 98.728112 
L 469.701818 96.310208 
L 473.76 93.89099 
L 477.818182 91.478236 
L 481.876364 89.08721 
L 485.934545 86.726193 
L 489.992727 84.389779 
L 494.050909 82.067013 
L 498.109091 79.753002 
" clip-path="url(#p696bd4cf90)" style="fill: none; stroke: #d62728; stroke-width: 1.5; stroke-linecap: square"/>
   </g>
   <g id="patch_3">
    <path d="M 72 384.48 
L 72 51.84 
" style="fill: none; stroke: #000000; stroke-width: 0.8; stroke-linejoin: miter; stroke-linecap: square"/>
   </g>
   <g id="patch_4">
    <path d="M 518.4 384.48 
L 518.4 51.84 
" style="fill: none; stroke: #000000; stroke-width: 0.8; stroke-linejoin: miter; stroke-linecap: square"/>
   </g>
   <g id="patch_5">
    <path d="M 72 384.48 
L 518.4 384.48 
" style="fill: none; stroke: #000000; stroke-width: 0.8; stroke-linejoin: miter; stroke-linecap: square"/>
   </g>
   <g id="patch_6">
    <path d="M 72 51.84 
L 518.4 51.84 
" style="fill: none; stroke: #000000; stroke-width: 0.8; stroke-linejoin: miter; stroke-linecap: square"/>
   </g>
   <g id="legend_1">
    <g id="patch_7">
     <path d="M 79.7 125.22375 
L 174.379063 125.22375 
Q 176.579063 125.22375 176.579063 123.02375 
L 176.579063 59.54 
Q 176.579063 57.34 174.379063 57.34 
L 79.7 57.34 
Q 77.5 57.34 77.5 59.54 
L 77.5 123.02375 
Q 77.5 125.22375 79.7 125.22375 
z
" style="fill: #ffffff; opacity: 0.8; stroke: #cccccc; stroke-linejoin: miter"/>
    </g>
    <g id="line2d_17">
     <path d="M 81.9 66.248281 
L 92.9 66.248281 
L 103.9 66.248281 
" style="fill: none; stroke: #1f77b4; stroke-width: 1.5; stroke-linecap: square"/>
    </g>
    <g id="text_15">
     <!-- 18,18,28,6 -->
     <g transform="translate(112.7 70.098281) scale(0.11 -0.11)">
      <defs>
       <path id="DejaVuSans-2c" d="M 750 794 
L 1409 794 
L 1409 256 
L 897 -744 
L 494 -744 
L 750 256 
L 750 794 
z
" transform="scale(0.015625)"/>
      </defs>
      <use xlink:href="#DejaVuSans-31"/>
      <use xlink:href="#DejaVuSans-38" x="63.623047"/>
      <use xlink:href="#DejaVuSans-2c" x="127.246094"/>
      <use xlink:href="#DejaVuSans-31" x="159.033203"/>
      <use xlink:href="#DejaVuSans-38" x="222.65625"/>
      <use xlink:href="#DejaVuSans-2c" x="286.279297"/>
      <use xlink:href="#DejaVuSans-32" x="318.066406"/>
      <use xlink:href="#DejaVuSans-38" x="381.689453"/>
      <use xlink:href="#DejaVuSans-2c" x="445.3125"/>
      <use xlink:href="#DejaVuSans-36" x="477.099609"/>
     </g>
    </g>
    <g id="line2d_18">
     <path d="M 81.9 82.394219 
L 92.9 82.394219 
L 103.9 82.394219 
" style="fill: none; stroke: #ff7f0e; stroke-width: 1.5; stroke-linecap: square"/>
    </g>
    <g id="text_16">
     <!-- 24,24,36,6 -->
     <g transform="translate(112.7 86.244219) scale(0.11 -0.11)">
      <use xlink:href="#DejaVuSans-32"/>
      <use xlink:href="#DejaVuSans-34" x="63.623047"/>
      <use xlink:href="#DejaVuSans-2c" x="127.246094"/>
      <use xlink:href="#DejaVuSans-32" x="159.033203"/>
      <use xlink:href="#DejaVuSans-34" x="222.65625"/>
      <use xlink:href="#DejaVuSans-2c" x="286.279297"/>
      <use xlink:href="#DejaVuSans-33" x="318.066406"/>
      <use xlink:href="#DejaVuSans-36" x="381.689453"/>
      <use xlink:href="#DejaVuSans-2c" x="445.3125"/>
      <use xlink:href="#DejaVuSans-36" x="477.099609"/>
     </g>
    </g>
    <g id="line2d_19">
     <path d="M 81.9 98.540156 
L 92.9 98.540156 
L 103.9 98.540156 
" style="fill: none; stroke: #2ca02c; stroke-width: 1.5; stroke-linecap: square"/>
    </g>
    <g id="text_17">
     <!-- 32,32,48,6 -->
     <g transform="translate(112.7 102.390156) scale(0.11 -0.11)">
      <use xlink:href="#DejaVuSans-33"/>
      <use xlink:href="#DejaVuSans-32" x="63.623047"/>
      <use xlink:href="#DejaVuSans-2c" x="127.246094"/>
      <use xlink:href="#DejaVuSans-33" x="159.033203"/>
      <use xlink:href="#DejaVuSans-32" x="222.65625"/>
      <use xlink:href="#DejaVuSans-2c" x="286.279297"/>
      <use xlink:href="#DejaVuSans-34" x="318.066406"/>
      <use xlink:href="#DejaVuSans-38" x="381.689453"/>
      <use xlink:href="#DejaVuSans-2c" x="445.3125"/>
      <use xlink:href="#DejaVuSans-36" x="477.099609"/>
     </g>
    </g>
    <g id="line2d_20">
     <path d="M 81.9 114.686094 
L 92.9 114.686094 
L 103.9 114.686094 
" style="fill: none; stroke: #d62728; stroke-width: 1.5; stroke-linecap: square"/>
    </g>
    <g id="text_18">
     <!-- 44,44,64,6 -->
     <g transform="translate(112.7 118.536094) scale(0.11 -0.11)">
      <use xlink:href="#DejaVuSans-34"/>
      <use xlink:href="#DejaVuSans-34" x="63.623047"/>
      <use xlink:href="#DejaVuSans-2c" x="127.246094"/>
      <use xlink:href="#DejaVuSans-34" x="159.033203"/>
      <use xlink:href="#DejaVuSans-34" x="222.65625"/>
      <use xlink:href="#DejaVuSans-2c" x="286.279297"/>
      <use xlink:href="#DejaVuSans-36" x="318.066406"/>
      <use xlink:href="#DejaVuSans-34" x="381.689453"/>
      <use xlink:href="#DejaVuSans-2c" x="445.3125"/>
      <use xlink:href="#DejaVuSans-36" x="477.099609"/>
     </g>
    </g>
   </g>
  </g>
 </g>
 <defs>
  <clipPath id="p696bd4cf90">
   <rect x="72" y="51.84" width="446.4" height="332.64"/>
  </clipPath>
 </defs>
</svg>
