<?xml version="1.0" encoding="utf-8" standalone="no"?>
<!DOCTYPE svg PUBLIC "-//W3C//DTD SVG 1.1//EN"
  "http://www.w3.org/Graphics/SVG/1.1/DTD/svg11.dtd">
<svg xmlns:xlink="http://www.w3.org/1999/xlink" width="504pt" height="360pt" viewBox="0 0 504 360" xmlns="http://www.w3.org/2000/svg" version="1.1">
 <metadata>
  <rdf:RDF xmlns:dc="http://purl.org/dc/elements/1.1/" xmlns:cc="http://creativecommons.org/ns#" xmlns:rdf="http://www.w3.org/1999/02/22-rdf-syntax-ns#">
   <cc:Work>
    <dc:type rdf:resource="http://purl.org/dc/dcmitype/StillImage"/>
    <dc:date>2024-05-13T12:41:52.428509</dc:date>
    <dc:format>image/svg+xml</dc:format>
    <dc:creator>
     <cc:Agent>
      <dc:title>Matplotlib v3.8.0, https://matplotlib.org/</dc:title>
     </cc:Agent>
    </dc:creator>
   </cc:Work>
  </rdf:RDF>
 </metadata>
 <defs>
  <style type="text/css">*{stroke-linejoin: round; stroke-linecap: butt}</style>
 </defs>
 <g id="figure_1">
  <g id="patch_1">
   <path d="M 0 360 
L 504 360 
L 504 0 
L 0 0 
z
" style="fill: #ffffff"/>
  </g>
  <g id="axes_1">
   <g id="patch_2">
    <path d="M 63 320.4 
L 453.6 320.4 
L 453.6 43.2 
L 63 43.2 
z
" style="fill: #ffffff"/>
   </g>
   <g id="matplotlib.axis_1">
    <g id="xtick_1">
     <g id="line2d_1">
      <defs>
       <path id="m774279a70c" d="M 0 0 
L 0 3.5 
" style="stroke: #000000; stroke-width: 0.8"/>
      </defs>
      <g>
       <use xlink:href="#m774279a70c" x="108.069231" y="320.4" style="stroke: #000000; stroke-width: 0.8"/>
      </g>
     </g>
     <g id="text_1">
      <!-- 5.06 -->
      <g transform="translate(95.823137 335.758281) scale(0.11 -0.11)">
       <defs>
        <path id="DejaVuSans-35" d="M 691 4666 
L 3169 4666 
L 3169 4134 
L 1269 4134 
L 1269 2991 
Q 1406 3038 1543 3061 
Q 1681 3084 1819 3084 
Q 2600 3084 3056 2656 
Q 3513 2228 3513 1497 
Q 3513 744 3044 326 
Q 2575 -91 1722 -91 
Q 1428 -91 1123 -41 
Q 819 9 494 109 
L 494 744 
Q 775 591 1075 516 
Q 1375 441 1709 441 
Q 2250 441 2565 725 
Q 2881 1009 2881 1497 
Q 2881 1984 2565 2268 
Q 2250 2553 1709 2553 
Q 1456 2553 1204 2497 
Q 953 2441 691 2322 
L 691 4666 
z
" transform="scale(0.015625)"/>
        <path id="DejaVuSans-2e" d="M 684 794 
L 1344 794 
L 1344 0 
L 684 0 
L 684 794 
z
" transform="scale(0.015625)"/>
        <path id="DejaVuSans-30" d="M 2034 4250 
Q 1547 4250 1301 3770 
Q 1056 3291 1056 2328 
Q 1056 1369 1301 889 
Q 1547 409 2034 409 
Q 2525 409 2770 889 
Q 3016 1369 3016 2328 
Q 3016 3291 2770 3770 
Q 2525 4250 2034 4250 
z
M 2034 4750 
Q 2819 4750 3233 4129 
Q 3647 3509 3647 2328 
Q 3647 1150 3233 529 
Q 2819 -91 2034 -91 
Q 1250 -91 836 529 
Q 422 1150 422 2328 
Q 422 3509 836 4129 
Q 1250 4750 2034 4750 
z
" transform="scale(0.015625)"/>
        <path id="DejaVuSans-36" d="M 2113 2584 
Q 1688 2584 1439 2293 
Q 1191 2003 1191 1497 
Q 1191 994 1439 701 
Q 1688 409 2113 409 
Q 2538 409 2786 701 
Q 3034 994 3034 1497 
Q 3034 2003 2786 2293 
Q 2538 2584 2113 2584 
z
M 3366 4563 
L 3366 3988 
Q 3128 4100 2886 4159 
Q 2644 4219 2406 4219 
Q 1781 4219 1451 3797 
Q 1122 3375 1075 2522 
Q 1259 2794 1537 2939 
Q 1816 3084 2150 3084 
Q 2853 3084 3261 2657 
Q 3669 2231 3669 1497 
Q 3669 778 3244 343 
Q 2819 -91 2113 -91 
Q 1303 -91 875 529 
Q 447 1150 447 2328 
Q 447 3434 972 4092 
Q 1497 4750 2381 4750 
Q 2619 4750 2861 4703 
Q 3103 4656 3366 4563 
z
" transform="scale(0.015625)"/>
       </defs>
       <use xlink:href="#DejaVuSans-35"/>
       <use xlink:href="#DejaVuSans-2e" x="63.623047"/>
       <use xlink:href="#DejaVuSans-30" x="95.410156"/>
       <use xlink:href="#DejaVuSans-36" x="159.033203"/>
      </g>
     </g>
    </g>
    <g id="xtick_2">
     <g id="line2d_2">
      <g>
       <use xlink:href="#m774279a70c" x="162.698601" y="320.4" style="stroke: #000000; stroke-width: 0.8"/>
      </g>
     </g>
     <g id="text_2">
      <!-- 5.08 -->
      <g transform="translate(150.452508 335.758281) scale(0.11 -0.11)">
       <defs>
        <path id="DejaVuSans-38" d="M 2034 2216 
Q 1584 2216 1326 1975 
Q 1069 1734 1069 1313 
Q 1069 891 1326 650 
Q 1584 409 2034 409 
Q 2484 409 2743 651 
Q 3003 894 3003 1313 
Q 3003 1734 2745 1975 
Q 2488 2216 2034 2216 
z
M 1403 2484 
Q 997 2584 770 2862 
Q 544 3141 544 3541 
Q 544 4100 942 4425 
Q 1341 4750 2034 4750 
Q 2731 4750 3128 4425 
Q 3525 4100 3525 3541 
Q 3525 3141 3298 2862 
Q 3072 2584 2669 2484 
Q 3125 2378 3379 2068 
Q 3634 1759 3634 1313 
Q 3634 634 3220 271 
Q 2806 -91 2034 -91 
Q 1263 -91 848 271 
Q 434 634 434 1313 
Q 434 1759 690 2068 
Q 947 2378 1403 2484 
z
M 1172 3481 
Q 1172 3119 1398 2916 
Q 1625 2713 2034 2713 
Q 2441 2713 2670 2916 
Q 2900 3119 2900 3481 
Q 2900 3844 2670 4047 
Q 2441 4250 2034 4250 
Q 1625 4250 1398 4047 
Q 1172 3844 1172 3481 
z
" transform="scale(0.015625)"/>
       </defs>
       <use xlink:href="#DejaVuSans-35"/>
       <use xlink:href="#DejaVuSans-2e" x="63.623047"/>
       <use xlink:href="#DejaVuSans-30" x="95.410156"/>
       <use xlink:href="#DejaVuSans-38" x="159.033203"/>
      </g>
     </g>
    </g>
    <g id="xtick_3">
     <g id="line2d_3">
      <g>
       <use xlink:href="#m774279a70c" x="217.327972" y="320.4" style="stroke: #000000; stroke-width: 0.8"/>
      </g>
     </g>
     <g id="text_3">
      <!-- 5.10 -->
      <g transform="translate(205.081878 335.758281) scale(0.11 -0.11)">
       <defs>
        <path id="DejaVuSans-31" d="M 794 531 
L 1825 531 
L 1825 4091 
L 703 3866 
L 703 4441 
L 1819 4666 
L 2450 4666 
L 2450 531 
L 3481 531 
L 3481 0 
L 794 0 
L 794 531 
z
" transform="scale(0.015625)"/>
       </defs>
       <use xlink:href="#DejaVuSans-35"/>
       <use xlink:href="#DejaVuSans-2e" x="63.623047"/>
       <use xlink:href="#DejaVuSans-31" x="95.410156"/>
       <use xlink:href="#DejaVuSans-30" x="159.033203"/>
      </g>
     </g>
    </g>
    <g id="xtick_4">
     <g id="line2d_4">
      <g>
       <use xlink:href="#m774279a70c" x="271.957343" y="320.4" style="stroke: #000000; stroke-width: 0.8"/>
      </g>
     </g>
     <g id="text_4">
      <!-- 5.12 -->
      <g transform="translate(259.711249 335.758281) scale(0.11 -0.11)">
       <defs>
        <path id="DejaVuSans-32" d="M 1228 531 
L 3431 531 
L 3431 0 
L 469 0 
L 469 531 
Q 828 903 1448 1529 
Q 2069 2156 2228 2338 
Q 2531 2678 2651 2914 
Q 2772 3150 2772 3378 
Q 2772 3750 2511 3984 
Q 2250 4219 1831 4219 
Q 1534 4219 1204 4116 
Q 875 4013 500 3803 
L 500 4441 
Q 881 4594 1212 4672 
Q 1544 4750 1819 4750 
Q 2544 4750 2975 4387 
Q 3406 4025 3406 3419 
Q 3406 3131 3298 2873 
Q 3191 2616 2906 2266 
Q 2828 2175 2409 1742 
Q 1991 1309 1228 531 
z
" transform="scale(0.015625)"/>
       </defs>
       <use xlink:href="#DejaVuSans-35"/>
       <use xlink:href="#DejaVuSans-2e" x="63.623047"/>
       <use xlink:href="#DejaVuSans-31" x="95.410156"/>
       <use xlink:href="#DejaVuSans-32" x="159.033203"/>
      </g>
     </g>
    </g>
    <g id="xtick_5">
     <g id="line2d_5">
      <g>
       <use xlink:href="#m774279a70c" x="326.586713" y="320.4" style="stroke: #000000; stroke-width: 0.8"/>
      </g>
     </g>
     <g id="text_5">
      <!-- 5.14 -->
      <g transform="translate(314.34062 335.758281) scale(0.11 -0.11)">
       <defs>
        <path id="DejaVuSans-34" d="M 2419 4116 
L 825 1625 
L 2419 1625 
L 2419 4116 
z
M 2253 4666 
L 3047 4666 
L 3047 1625 
L 3713 1625 
L 3713 1100 
L 3047 1100 
L 3047 0 
L 2419 0 
L 2419 1100 
L 313 1100 
L 313 1709 
L 2253 4666 
z
" transform="scale(0.015625)"/>
       </defs>
       <use xlink:href="#DejaVuSans-35"/>
       <use xlink:href="#DejaVuSans-2e" x="63.623047"/>
       <use xlink:href="#DejaVuSans-31" x="95.410156"/>
       <use xlink:href="#DejaVuSans-34" x="159.033203"/>
      </g>
     </g>
    </g>
    <g id="xtick_6">
     <g id="line2d_6">
      <g>
       <use xlink:href="#m774279a70c" x="381.216084" y="320.4" style="stroke: #000000; stroke-width: 0.8"/>
      </g>
     </g>
     <g id="text_6">
      <!-- 5.16 -->
      <g transform="translate(368.96999 335.758281) scale(0.11 -0.11)">
       <use xlink:href="#DejaVuSans-35"/>
       <use xlink:href="#DejaVuSans-2e" x="63.623047"/>
       <use xlink:href="#DejaVuSans-31" x="95.410156"/>
       <use xlink:href="#DejaVuSans-36" x="159.033203"/>
      </g>
     </g>
    </g>
    <g id="xtick_7">
     <g id="line2d_7">
      <g>
       <use xlink:href="#m774279a70c" x="435.845455" y="320.4" style="stroke: #000000; stroke-width: 0.8"/>
      </g>
     </g>
     <g id="text_7">
      <!-- 5.18 -->
      <g transform="translate(423.599361 335.758281) scale(0.11 -0.11)">
       <use xlink:href="#DejaVuSans-35"/>
       <use xlink:href="#DejaVuSans-2e" x="63.623047"/>
       <use xlink:href="#DejaVuSans-31" x="95.410156"/>
       <use xlink:href="#DejaVuSans-38" x="159.033203"/>
      </g>
     </g>
    </g>
    <g id="text_8">
     <!-- $\beta$ -->
     <g transform="translate(254.78 350.515938) scale(0.11 -0.11)">
      <defs>
       <path id="DejaVuSans-Oblique-3b2" d="M 872 216 
L 572 -1331 
L -6 -1331 
L 928 3478 
Q 1206 4903 2538 4903 
Q 3888 4903 3659 3700 
Q 3503 2844 2894 2531 
Q 3713 2250 3553 1416 
Q 3272 -69 1759 -66 
Q 1097 -63 872 216 
z
M 1019 966 
Q 1259 422 1875 425 
Q 2775 425 2966 1406 
Q 3138 2288 1675 2219 
L 1778 2750 
Q 2909 2731 3106 3750 
Q 3241 4438 2509 4434 
Q 1691 4434 1503 3459 
L 1019 966 
z
" transform="scale(0.015625)"/>
      </defs>
      <use xlink:href="#DejaVuSans-Oblique-3b2" transform="translate(0 0.390625)"/>
     </g>
    </g>
   </g>
   <g id="matplotlib.axis_2">
    <g id="ytick_1">
     <g id="line2d_8">
      <defs>
       <path id="mdc730985e8" d="M 0 0 
L -3.5 0 
" style="stroke: #000000; stroke-width: 0.8"/>
      </defs>
      <g>
       <use xlink:href="#mdc730985e8" x="63" y="314.82004" style="stroke: #000000; stroke-width: 0.8"/>
      </g>
     </g>
     <g id="text_9">
      <!-- 0.52 -->
      <g transform="translate(31.507812 318.999181) scale(0.11 -0.11)">
       <use xlink:href="#DejaVuSans-30"/>
       <use xlink:href="#DejaVuSans-2e" x="63.623047"/>
       <use xlink:href="#DejaVuSans-35" x="95.410156"/>
       <use xlink:href="#DejaVuSans-32" x="159.033203"/>
      </g>
     </g>
    </g>
    <g id="ytick_2">
     <g id="line2d_9">
      <g>
       <use xlink:href="#mdc730985e8" x="63" y="278.290202" style="stroke: #000000; stroke-width: 0.8"/>
      </g>
     </g>
     <g id="text_10">
      <!-- 0.53 -->
      <g transform="translate(31.507812 282.469343) scale(0.11 -0.11)">
       <defs>
        <path id="DejaVuSans-33" d="M 2597 2516 
Q 3050 2419 3304 2112 
Q 3559 1806 3559 1356 
Q 3559 666 3084 287 
Q 2609 -91 1734 -91 
Q 1441 -91 1130 -33 
Q 819 25 488 141 
L 488 750 
Q 750 597 1062 519 
Q 1375 441 1716 441 
Q 2309 441 2620 675 
Q 2931 909 2931 1356 
Q 2931 1769 2642 2001 
Q 2353 2234 1838 2234 
L 1294 2234 
L 1294 2753 
L 1863 2753 
Q 2328 2753 2575 2939 
Q 2822 3125 2822 3475 
Q 2822 3834 2567 4026 
Q 2313 4219 1838 4219 
Q 1578 4219 1281 4162 
Q 984 4106 628 3988 
L 628 4550 
Q 988 4650 1302 4700 
Q 1616 4750 1894 4750 
Q 2613 4750 3031 4423 
Q 3450 4097 3450 3541 
Q 3450 3153 3228 2886 
Q 3006 2619 2597 2516 
z
" transform="scale(0.015625)"/>
       </defs>
       <use xlink:href="#DejaVuSans-30"/>
       <use xlink:href="#DejaVuSans-2e" x="63.623047"/>
       <use xlink:href="#DejaVuSans-35" x="95.410156"/>
       <use xlink:href="#DejaVuSans-33" x="159.033203"/>
      </g>
     </g>
    </g>
    <g id="ytick_3">
     <g id="line2d_10">
      <g>
       <use xlink:href="#mdc730985e8" x="63" y="241.760365" style="stroke: #000000; stroke-width: 0.8"/>
      </g>
     </g>
     <g id="text_11">
      <!-- 0.54 -->
      <g transform="translate(31.507812 245.939505) scale(0.11 -0.11)">
       <use xlink:href="#DejaVuSans-30"/>
       <use xlink:href="#DejaVuSans-2e" x="63.623047"/>
       <use xlink:href="#DejaVuSans-35" x="95.410156"/>
       <use xlink:href="#DejaVuSans-34" x="159.033203"/>
      </g>
     </g>
    </g>
    <g id="ytick_4">
     <g id="line2d_11">
      <g>
       <use xlink:href="#mdc730985e8" x="63" y="205.230527" style="stroke: #000000; stroke-width: 0.8"/>
      </g>
     </g>
     <g id="text_12">
      <!-- 0.55 -->
      <g transform="translate(31.507812 209.409668) scale(0.11 -0.11)">
       <use xlink:href="#DejaVuSans-30"/>
       <use xlink:href="#DejaVuSans-2e" x="63.623047"/>
       <use xlink:href="#DejaVuSans-35" x="95.410156"/>
       <use xlink:href="#DejaVuSans-35" x="159.033203"/>
      </g>
     </g>
    </g>
    <g id="ytick_5">
     <g id="line2d_12">
      <g>
       <use xlink:href="#mdc730985e8" x="63" y="168.700689" style="stroke: #000000; stroke-width: 0.8"/>
      </g>
     </g>
     <g id="text_13">
      <!-- 0.56 -->
      <g transform="translate(31.507812 172.87983) scale(0.11 -0.11)">
       <use xlink:href="#DejaVuSans-30"/>
       <use xlink:href="#DejaVuSans-2e" x="63.623047"/>
       <use xlink:href="#DejaVuSans-35" x="95.410156"/>
       <use xlink:href="#DejaVuSans-36" x="159.033203"/>
      </g>
     </g>
    </g>
    <g id="ytick_6">
     <g id="line2d_13">
      <g>
       <use xlink:href="#mdc730985e8" x="63" y="132.170852" style="stroke: #000000; stroke-width: 0.8"/>
      </g>
     </g>
     <g id="text_14">
      <!-- 0.57 -->
      <g transform="translate(31.507812 136.349992) scale(0.11 -0.11)">
       <defs>
        <path id="DejaVuSans-37" d="M 525 4666 
L 3525 4666 
L 3525 4397 
L 1831 0 
L 1172 0 
L 2766 4134 
L 525 4134 
L 525 4666 
z
" transform="scale(0.015625)"/>
       </defs>
       <use xlink:href="#DejaVuSans-30"/>
       <use xlink:href="#DejaVuSans-2e" x="63.623047"/>
       <use xlink:href="#DejaVuSans-35" x="95.410156"/>
       <use xlink:href="#DejaVuSans-37" x="159.033203"/>
      </g>
     </g>
    </g>
    <g id="ytick_7">
     <g id="line2d_14">
      <g>
       <use xlink:href="#mdc730985e8" x="63" y="95.641014" style="stroke: #000000; stroke-width: 0.8"/>
      </g>
     </g>
     <g id="text_15">
      <!-- 0.58 -->
      <g transform="translate(31.507812 99.820155) scale(0.11 -0.11)">
       <use xlink:href="#DejaVuSans-30"/>
       <use xlink:href="#DejaVuSans-2e" x="63.623047"/>
       <use xlink:href="#DejaVuSans-35" x="95.410156"/>
       <use xlink:href="#DejaVuSans-38" x="159.033203"/>
      </g>
     </g>
    </g>
    <g id="ytick_8">
     <g id="line2d_15">
      <g>
       <use xlink:href="#mdc730985e8" x="63" y="59.111176" style="stroke: #000000; stroke-width: 0.8"/>
      </g>
     </g>
     <g id="text_16">
      <!-- 0.59 -->
      <g transform="translate(31.507812 63.290317) scale(0.11 -0.11)">
       <defs>
        <path id="DejaVuSans-39" d="M 703 97 
L 703 672 
Q 941 559 1184 500 
Q 1428 441 1663 441 
Q 2288 441 2617 861 
Q 2947 1281 2994 2138 
Q 2813 1869 2534 1725 
Q 2256 1581 1919 1581 
Q 1219 1581 811 2004 
Q 403 2428 403 3163 
Q 403 3881 828 4315 
Q 1253 4750 1959 4750 
Q 2769 4750 3195 4129 
Q 3622 3509 3622 2328 
Q 3622 1225 3098 567 
Q 2575 -91 1691 -91 
Q 1453 -91 1209 -44 
Q 966 3 703 97 
z
M 1959 2075 
Q 2384 2075 2632 2365 
Q 2881 2656 2881 3163 
Q 2881 3666 2632 3958 
Q 2384 4250 1959 4250 
Q 1534 4250 1286 3958 
Q 1038 3666 1038 3163 
Q 1038 2656 1286 2365 
Q 1534 2075 1959 2075 
z
" transform="scale(0.015625)"/>
       </defs>
       <use xlink:href="#DejaVuSans-30"/>
       <use xlink:href="#DejaVuSans-2e" x="63.623047"/>
       <use xlink:href="#DejaVuSans-35" x="95.410156"/>
       <use xlink:href="#DejaVuSans-39" x="159.033203"/>
      </g>
     </g>
    </g>
    <g id="text_17">
     <!-- $\langle$ S $\rangle / (6\cdot V \cdot\beta)$ -->
     <g transform="translate(25.197812 217.825) rotate(-90) scale(0.11 -0.11)">
      <defs>
       <path id="DejaVuSans-27e8" d="M 572 2006 
L 1453 4856 
L 1984 4856 
L 1103 2006 
L 1984 -844 
L 1453 -844 
L 572 2006 
z
" transform="scale(0.015625)"/>
       <path id="DejaVuSans-20" transform="scale(0.015625)"/>
       <path id="DejaVuSans-53" d="M 3425 4513 
L 3425 3897 
Q 3066 4069 2747 4153 
Q 2428 4238 2131 4238 
Q 1616 4238 1336 4038 
Q 1056 3838 1056 3469 
Q 1056 3159 1242 3001 
Q 1428 2844 1947 2747 
L 2328 2669 
Q 3034 2534 3370 2195 
Q 3706 1856 3706 1288 
Q 3706 609 3251 259 
Q 2797 -91 1919 -91 
Q 1588 -91 1214 -16 
Q 841 59 441 206 
L 441 856 
Q 825 641 1194 531 
Q 1563 422 1919 422 
Q 2459 422 2753 634 
Q 3047 847 3047 1241 
Q 3047 1584 2836 1778 
Q 2625 1972 2144 2069 
L 1759 2144 
Q 1053 2284 737 2584 
Q 422 2884 422 3419 
Q 422 4038 858 4394 
Q 1294 4750 2059 4750 
Q 2388 4750 2728 4690 
Q 3069 4631 3425 4513 
z
" transform="scale(0.015625)"/>
       <path id="DejaVuSans-27e9" d="M 1925 2006 
L 1044 -844 
L 513 -844 
L 1394 2006 
L 513 4856 
L 1044 4856 
L 1925 2006 
z
" transform="scale(0.015625)"/>
       <path id="DejaVuSans-2f" d="M 1625 4666 
L 2156 4666 
L 531 -594 
L 0 -594 
L 1625 4666 
z
" transform="scale(0.015625)"/>
       <path id="DejaVuSans-28" d="M 1984 4856 
Q 1566 4138 1362 3434 
Q 1159 2731 1159 2009 
Q 1159 1288 1364 580 
Q 1569 -128 1984 -844 
L 1484 -844 
Q 1016 -109 783 600 
Q 550 1309 550 2009 
Q 550 2706 781 3412 
Q 1013 4119 1484 4856 
L 1984 4856 
z
" transform="scale(0.015625)"/>
       <path id="DejaVuSans-22c5" d="M 684 2619 
L 1344 2619 
L 1344 1825 
L 684 1825 
L 684 2619 
z
" transform="scale(0.015625)"/>
       <path id="DejaVuSans-Oblique-56" d="M 1319 0 
L 500 4666 
L 1119 4666 
L 1797 653 
L 4063 4666 
L 4750 4666 
L 2053 0 
L 1319 0 
z
" transform="scale(0.015625)"/>
       <path id="DejaVuSans-29" d="M 513 4856 
L 1013 4856 
Q 1481 4119 1714 3412 
Q 1947 2706 1947 2009 
Q 1947 1309 1714 600 
Q 1481 -109 1013 -844 
L 513 -844 
Q 928 -128 1133 580 
Q 1338 1288 1338 2009 
Q 1338 2731 1133 3434 
Q 928 4138 513 4856 
z
" transform="scale(0.015625)"/>
      </defs>
      <use xlink:href="#DejaVuSans-27e8" transform="translate(0 0.390625)"/>
      <use xlink:href="#DejaVuSans-20" transform="translate(39.013672 0.390625)"/>
      <use xlink:href="#DejaVuSans-53" transform="translate(70.800781 0.390625)"/>
      <use xlink:href="#DejaVuSans-20" transform="translate(134.277344 0.390625)"/>
      <use xlink:href="#DejaVuSans-27e9" transform="translate(166.064453 0.390625)"/>
      <use xlink:href="#DejaVuSans-2f" transform="translate(205.078125 0.390625)"/>
      <use xlink:href="#DejaVuSans-28" transform="translate(238.769531 0.390625)"/>
      <use xlink:href="#DejaVuSans-36" transform="translate(277.783203 0.390625)"/>
      <use xlink:href="#DejaVuSans-22c5" transform="translate(360.888672 0.390625)"/>
      <use xlink:href="#DejaVuSans-Oblique-56" transform="translate(412.158203 0.390625)"/>
      <use xlink:href="#DejaVuSans-22c5" transform="translate(500.048828 0.390625)"/>
      <use xlink:href="#DejaVuSans-Oblique-3b2" transform="translate(551.318359 0.390625)"/>
      <use xlink:href="#DejaVuSans-29" transform="translate(615.136719 0.390625)"/>
     </g>
    </g>
   </g>
   <g id="LineCollection_1">
    <path d="M 80.754545 55.949663 
L 80.754545 55.8 
" clip-path="url(#p4348f2ec29)" style="fill: none; stroke: #ff0000; stroke-width: 1.5"/>
    <path d="M 85.642437 56.932671 
L 85.642437 56.783944 
" clip-path="url(#p4348f2ec29)" style="fill: none; stroke: #ff0000; stroke-width: 1.5"/>
    <path d="M 90.530328 58.088172 
L 90.530328 57.941439 
" clip-path="url(#p4348f2ec29)" style="fill: none; stroke: #ff0000; stroke-width: 1.5"/>
    <path d="M 95.418219 59.004115 
L 95.418219 58.850895 
" clip-path="url(#p4348f2ec29)" style="fill: none; stroke: #ff0000; stroke-width: 1.5"/>
    <path d="M 100.30611 60.238948 
L 100.30611 60.085209 
" clip-path="url(#p4348f2ec29)" style="fill: none; stroke: #ff0000; stroke-width: 1.5"/>
    <path d="M 105.194001 61.194196 
L 105.194001 61.0376 
" clip-path="url(#p4348f2ec29)" style="fill: none; stroke: #ff0000; stroke-width: 1.5"/>
    <path d="M 110.081892 62.161929 
L 110.081892 62.007247 
" clip-path="url(#p4348f2ec29)" style="fill: none; stroke: #ff0000; stroke-width: 1.5"/>
    <path d="M 114.969783 63.181104 
L 114.969783 63.028001 
" clip-path="url(#p4348f2ec29)" style="fill: none; stroke: #ff0000; stroke-width: 1.5"/>
    <path d="M 119.857674 64.206328 
L 119.857674 64.049345 
" clip-path="url(#p4348f2ec29)" style="fill: none; stroke: #ff0000; stroke-width: 1.5"/>
    <path d="M 124.745565 65.521609 
L 124.745565 65.359036 
" clip-path="url(#p4348f2ec29)" style="fill: none; stroke: #ff0000; stroke-width: 1.5"/>
    <path d="M 129.633456 66.36196 
L 129.633456 66.195486 
" clip-path="url(#p4348f2ec29)" style="fill: none; stroke: #ff0000; stroke-width: 1.5"/>
    <path d="M 134.521347 67.444626 
L 134.521347 67.280607 
" clip-path="url(#p4348f2ec29)" style="fill: none; stroke: #ff0000; stroke-width: 1.5"/>
    <path d="M 139.409238 68.671966 
L 139.409238 68.504564 
" clip-path="url(#p4348f2ec29)" style="fill: none; stroke: #ff0000; stroke-width: 1.5"/>
    <path d="M 144.297129 69.823349 
L 144.297129 69.650972 
" clip-path="url(#p4348f2ec29)" style="fill: none; stroke: #ff0000; stroke-width: 1.5"/>
    <path d="M 149.18502 70.944882 
L 149.18502 70.762196 
" clip-path="url(#p4348f2ec29)" style="fill: none; stroke: #ff0000; stroke-width: 1.5"/>
    <path d="M 154.072911 71.901011 
L 154.072911 71.723483 
" clip-path="url(#p4348f2ec29)" style="fill: none; stroke: #ff0000; stroke-width: 1.5"/>
    <path d="M 158.960802 73.431652 
L 158.960802 73.069919 
" clip-path="url(#p4348f2ec29)" style="fill: none; stroke: #ff0000; stroke-width: 1.5"/>
    <path d="M 163.848693 74.97374 
L 163.848693 74.002484 
" clip-path="url(#p4348f2ec29)" style="fill: none; stroke: #ff0000; stroke-width: 1.5"/>
    <path d="M 168.736584 76.267948 
L 168.736584 75.172199 
" clip-path="url(#p4348f2ec29)" style="fill: none; stroke: #ff0000; stroke-width: 1.5"/>
    <path d="M 173.624476 76.531399 
L 173.624476 76.276566 
" clip-path="url(#p4348f2ec29)" style="fill: none; stroke: #ff0000; stroke-width: 1.5"/>
    <path d="M 176.355944 81.696684 
L 176.355944 78.75406 
" clip-path="url(#p4348f2ec29)" style="fill: none; stroke: #ff0000; stroke-width: 1.5"/>
    <path d="M 179.949982 82.175362 
L 179.949982 78.924352 
" clip-path="url(#p4348f2ec29)" style="fill: none; stroke: #ff0000; stroke-width: 1.5"/>
    <path d="M 183.544019 84.578696 
L 183.544019 81.125092 
" clip-path="url(#p4348f2ec29)" style="fill: none; stroke: #ff0000; stroke-width: 1.5"/>
    <path d="M 183.943357 83.157276 
L 183.943357 80.471821 
" clip-path="url(#p4348f2ec29)" style="fill: none; stroke: #ff0000; stroke-width: 1.5"/>
    <path d="M 187.138057 93.538625 
L 187.138057 85.764345 
" clip-path="url(#p4348f2ec29)" style="fill: none; stroke: #ff0000; stroke-width: 1.5"/>
    <path d="M 190.732094 93.74959 
L 190.732094 87.158512 
" clip-path="url(#p4348f2ec29)" style="fill: none; stroke: #ff0000; stroke-width: 1.5"/>
    <path d="M 191.530769 94.868607 
L 191.530769 83.165909 
" clip-path="url(#p4348f2ec29)" style="fill: none; stroke: #ff0000; stroke-width: 1.5"/>
    <path d="M 194.326132 116.062568 
L 194.326132 100.13702 
" clip-path="url(#p4348f2ec29)" style="fill: none; stroke: #ff0000; stroke-width: 1.5"/>
    <path d="M 197.920169 168.584052 
L 197.920169 135.884733 
" clip-path="url(#p4348f2ec29)" style="fill: none; stroke: #ff0000; stroke-width: 1.5"/>
    <path d="M 199.118182 155.616951 
L 199.118182 132.09685 
" clip-path="url(#p4348f2ec29)" style="fill: none; stroke: #ff0000; stroke-width: 1.5"/>
    <path d="M 201.514207 167.500592 
L 201.514207 146.460867 
" clip-path="url(#p4348f2ec29)" style="fill: none; stroke: #ff0000; stroke-width: 1.5"/>
    <path d="M 205.108244 198.776635 
L 205.108244 197.459369 
" clip-path="url(#p4348f2ec29)" style="fill: none; stroke: #ff0000; stroke-width: 1.5"/>
    <path d="M 206.705594 198.921822 
L 206.705594 180.754803 
" clip-path="url(#p4348f2ec29)" style="fill: none; stroke: #ff0000; stroke-width: 1.5"/>
    <path d="M 208.702282 202.22941 
L 208.702282 201.492018 
" clip-path="url(#p4348f2ec29)" style="fill: none; stroke: #ff0000; stroke-width: 1.5"/>
    <path d="M 212.296319 204.502345 
L 212.296319 198.405954 
" clip-path="url(#p4348f2ec29)" style="fill: none; stroke: #ff0000; stroke-width: 1.5"/>
    <path d="M 214.293007 206.131353 
L 214.293007 205.117138 
" clip-path="url(#p4348f2ec29)" style="fill: none; stroke: #ff0000; stroke-width: 1.5"/>
    <path d="M 215.890357 206.981999 
L 215.890357 204.520984 
" clip-path="url(#p4348f2ec29)" style="fill: none; stroke: #ff0000; stroke-width: 1.5"/>
    <path d="M 219.484395 210.253848 
L 219.484395 209.67569 
" clip-path="url(#p4348f2ec29)" style="fill: none; stroke: #ff0000; stroke-width: 1.5"/>
    <path d="M 221.88042 210.696152 
L 221.88042 208.800107 
" clip-path="url(#p4348f2ec29)" style="fill: none; stroke: #ff0000; stroke-width: 1.5"/>
    <path d="M 223.078432 212.794882 
L 223.078432 212.261473 
" clip-path="url(#p4348f2ec29)" style="fill: none; stroke: #ff0000; stroke-width: 1.5"/>
    <path d="M 226.67247 214.87442 
L 226.67247 214.332084 
" clip-path="url(#p4348f2ec29)" style="fill: none; stroke: #ff0000; stroke-width: 1.5"/>
    <path d="M 229.467832 216.782889 
L 229.467832 216.229484 
" clip-path="url(#p4348f2ec29)" style="fill: none; stroke: #ff0000; stroke-width: 1.5"/>
    <path d="M 230.266507 216.999908 
L 230.266507 216.513031 
" clip-path="url(#p4348f2ec29)" style="fill: none; stroke: #ff0000; stroke-width: 1.5"/>
    <path d="M 233.860545 219.518704 
L 233.860545 219.044342 
" clip-path="url(#p4348f2ec29)" style="fill: none; stroke: #ff0000; stroke-width: 1.5"/>
    <path d="M 237.055245 221.166031 
L 237.055245 220.085844 
" clip-path="url(#p4348f2ec29)" style="fill: none; stroke: #ff0000; stroke-width: 1.5"/>
    <path d="M 237.454582 221.548036 
L 237.454582 221.091815 
" clip-path="url(#p4348f2ec29)" style="fill: none; stroke: #ff0000; stroke-width: 1.5"/>
    <path d="M 241.04862 223.908102 
L 241.04862 223.477905 
" clip-path="url(#p4348f2ec29)" style="fill: none; stroke: #ff0000; stroke-width: 1.5"/>
    <path d="M 244.642657 225.739664 
L 244.642657 225.291238 
" clip-path="url(#p4348f2ec29)" style="fill: none; stroke: #ff0000; stroke-width: 1.5"/>
    <path d="M 249.545293 228.332392 
L 249.545293 227.914578 
" clip-path="url(#p4348f2ec29)" style="fill: none; stroke: #ff0000; stroke-width: 1.5"/>
    <path d="M 254.447929 231.255422 
L 254.447929 230.855596 
" clip-path="url(#p4348f2ec29)" style="fill: none; stroke: #ff0000; stroke-width: 1.5"/>
    <path d="M 259.350565 233.743023 
L 259.350565 233.340588 
" clip-path="url(#p4348f2ec29)" style="fill: none; stroke: #ff0000; stroke-width: 1.5"/>
    <path d="M 264.253201 236.368341 
L 264.253201 235.984727 
" clip-path="url(#p4348f2ec29)" style="fill: none; stroke: #ff0000; stroke-width: 1.5"/>
    <path d="M 269.155836 239.027038 
L 269.155836 238.63676 
" clip-path="url(#p4348f2ec29)" style="fill: none; stroke: #ff0000; stroke-width: 1.5"/>
    <path d="M 274.058472 241.182254 
L 274.058472 240.812879 
" clip-path="url(#p4348f2ec29)" style="fill: none; stroke: #ff0000; stroke-width: 1.5"/>
    <path d="M 278.961108 243.452973 
L 278.961108 243.091678 
" clip-path="url(#p4348f2ec29)" style="fill: none; stroke: #ff0000; stroke-width: 1.5"/>
    <path d="M 283.863744 245.831762 
L 283.863744 245.471848 
" clip-path="url(#p4348f2ec29)" style="fill: none; stroke: #ff0000; stroke-width: 1.5"/>
    <path d="M 288.76638 248.442979 
L 288.76638 248.098108 
" clip-path="url(#p4348f2ec29)" style="fill: none; stroke: #ff0000; stroke-width: 1.5"/>
    <path d="M 293.669016 250.841415 
L 293.669016 250.49262 
" clip-path="url(#p4348f2ec29)" style="fill: none; stroke: #ff0000; stroke-width: 1.5"/>
    <path d="M 298.571651 253.097498 
L 298.571651 252.745438 
" clip-path="url(#p4348f2ec29)" style="fill: none; stroke: #ff0000; stroke-width: 1.5"/>
    <path d="M 299.272028 253.595556 
L 299.272028 253.252862 
" clip-path="url(#p4348f2ec29)" style="fill: none; stroke: #ff0000; stroke-width: 1.5"/>
    <path d="M 303.474287 255.077958 
L 303.474287 254.74786 
" clip-path="url(#p4348f2ec29)" style="fill: none; stroke: #ff0000; stroke-width: 1.5"/>
    <path d="M 308.376923 257.506701 
L 308.376923 257.172643 
" clip-path="url(#p4348f2ec29)" style="fill: none; stroke: #ff0000; stroke-width: 1.5"/>
    <path d="M 313.279559 259.700418 
L 313.279559 259.365907 
" clip-path="url(#p4348f2ec29)" style="fill: none; stroke: #ff0000; stroke-width: 1.5"/>
    <path d="M 318.182195 261.909218 
L 318.182195 261.592293 
" clip-path="url(#p4348f2ec29)" style="fill: none; stroke: #ff0000; stroke-width: 1.5"/>
    <path d="M 323.084831 264.03582 
L 323.084831 263.71812 
" clip-path="url(#p4348f2ec29)" style="fill: none; stroke: #ff0000; stroke-width: 1.5"/>
    <path d="M 327.987466 265.839091 
L 327.987466 265.525336 
" clip-path="url(#p4348f2ec29)" style="fill: none; stroke: #ff0000; stroke-width: 1.5"/>
    <path d="M 332.890102 267.907803 
L 332.890102 267.590549 
" clip-path="url(#p4348f2ec29)" style="fill: none; stroke: #ff0000; stroke-width: 1.5"/>
    <path d="M 337.792738 270.466199 
L 337.792738 270.164535 
" clip-path="url(#p4348f2ec29)" style="fill: none; stroke: #ff0000; stroke-width: 1.5"/>
    <path d="M 342.695374 272.40843 
L 342.695374 272.10909 
" clip-path="url(#p4348f2ec29)" style="fill: none; stroke: #ff0000; stroke-width: 1.5"/>
    <path d="M 347.59801 274.527009 
L 347.59801 274.225945 
" clip-path="url(#p4348f2ec29)" style="fill: none; stroke: #ff0000; stroke-width: 1.5"/>
    <path d="M 352.500646 276.441559 
L 352.500646 276.153383 
" clip-path="url(#p4348f2ec29)" style="fill: none; stroke: #ff0000; stroke-width: 1.5"/>
    <path d="M 357.403281 278.439718 
L 357.403281 278.1436 
" clip-path="url(#p4348f2ec29)" style="fill: none; stroke: #ff0000; stroke-width: 1.5"/>
    <path d="M 362.305917 280.374291 
L 362.305917 280.087276 
" clip-path="url(#p4348f2ec29)" style="fill: none; stroke: #ff0000; stroke-width: 1.5"/>
    <path d="M 367.208553 282.321008 
L 367.208553 282.044835 
" clip-path="url(#p4348f2ec29)" style="fill: none; stroke: #ff0000; stroke-width: 1.5"/>
    <path d="M 372.111189 284.067451 
L 372.111189 283.784995 
" clip-path="url(#p4348f2ec29)" style="fill: none; stroke: #ff0000; stroke-width: 1.5"/>
    <path d="M 377.013825 286.173356 
L 377.013825 285.891433 
" clip-path="url(#p4348f2ec29)" style="fill: none; stroke: #ff0000; stroke-width: 1.5"/>
    <path d="M 381.91646 287.882034 
L 381.91646 287.594807 
" clip-path="url(#p4348f2ec29)" style="fill: none; stroke: #ff0000; stroke-width: 1.5"/>
    <path d="M 386.819096 289.863881 
L 386.819096 289.581951 
" clip-path="url(#p4348f2ec29)" style="fill: none; stroke: #ff0000; stroke-width: 1.5"/>
    <path d="M 391.721732 291.275195 
L 391.721732 291.009002 
" clip-path="url(#p4348f2ec29)" style="fill: none; stroke: #ff0000; stroke-width: 1.5"/>
    <path d="M 396.624368 293.641718 
L 396.624368 293.370294 
" clip-path="url(#p4348f2ec29)" style="fill: none; stroke: #ff0000; stroke-width: 1.5"/>
    <path d="M 401.527004 295.595802 
L 401.527004 295.322917 
" clip-path="url(#p4348f2ec29)" style="fill: none; stroke: #ff0000; stroke-width: 1.5"/>
    <path d="M 406.42964 297.37316 
L 406.42964 297.096453 
" clip-path="url(#p4348f2ec29)" style="fill: none; stroke: #ff0000; stroke-width: 1.5"/>
    <path d="M 411.332275 299.329194 
L 411.332275 299.068583 
" clip-path="url(#p4348f2ec29)" style="fill: none; stroke: #ff0000; stroke-width: 1.5"/>
    <path d="M 416.234911 300.979359 
L 416.234911 300.722971 
" clip-path="url(#p4348f2ec29)" style="fill: none; stroke: #ff0000; stroke-width: 1.5"/>
    <path d="M 421.137547 302.416851 
L 421.137547 302.143849 
" clip-path="url(#p4348f2ec29)" style="fill: none; stroke: #ff0000; stroke-width: 1.5"/>
    <path d="M 426.040183 304.528448 
L 426.040183 304.270942 
" clip-path="url(#p4348f2ec29)" style="fill: none; stroke: #ff0000; stroke-width: 1.5"/>
    <path d="M 430.942819 306.19095 
L 430.942819 305.936738 
" clip-path="url(#p4348f2ec29)" style="fill: none; stroke: #ff0000; stroke-width: 1.5"/>
    <path d="M 435.845455 307.8 
L 435.845455 307.544664 
" clip-path="url(#p4348f2ec29)" style="fill: none; stroke: #ff0000; stroke-width: 1.5"/>
   </g>
   <g id="line2d_16">
    <path d="M 80.754545 55.874831 
L 85.642437 56.858308 
L 90.530328 58.014806 
L 95.418219 58.927505 
L 100.30611 60.162078 
L 105.194001 61.115898 
L 110.081892 62.084588 
L 114.969783 63.104552 
L 119.857674 64.127837 
L 124.745565 65.440323 
L 129.633456 66.278723 
L 134.521347 67.362617 
L 139.409238 68.588265 
L 144.297129 69.73716 
L 149.18502 70.853539 
L 154.072911 71.812247 
L 158.960802 73.250785 
L 163.848693 74.488112 
L 168.736584 75.720073 
L 173.624476 76.403983 
L 176.355944 80.225372 
L 179.949982 80.549857 
L 183.544019 82.851894 
L 183.943357 81.814549 
L 187.138057 89.651485 
L 190.732094 90.454051 
L 191.530769 89.017258 
L 194.326132 108.099794 
L 197.920169 152.234392 
L 199.118182 143.856901 
L 201.514207 156.98073 
L 205.108244 198.118002 
L 206.705594 189.838312 
L 208.702282 201.860714 
L 212.296319 201.45415 
L 214.293007 205.624246 
L 215.890357 205.751491 
L 219.484395 209.964769 
L 221.88042 209.74813 
L 223.078432 212.528177 
L 226.67247 214.603252 
L 229.467832 216.506186 
L 230.266507 216.756469 
L 233.860545 219.281523 
L 237.055245 220.625937 
L 237.454582 221.319926 
L 241.04862 223.693004 
L 244.642657 225.515451 
L 249.545293 228.123485 
L 254.447929 231.055509 
L 259.350565 233.541805 
L 264.253201 236.176534 
L 269.155836 238.831899 
L 274.058472 240.997567 
L 278.961108 243.272326 
L 283.863744 245.651805 
L 288.76638 248.270544 
L 293.669016 250.667018 
L 298.571651 252.921468 
L 299.272028 253.424209 
L 303.474287 254.912909 
L 308.376923 257.339672 
L 313.279559 259.533163 
L 318.182195 261.750755 
L 323.084831 263.87697 
L 327.987466 265.682213 
L 332.890102 267.749176 
L 337.792738 270.315367 
L 342.695374 272.25876 
L 347.59801 274.376477 
L 352.500646 276.297471 
L 357.403281 278.291659 
L 362.305917 280.230784 
L 367.208553 282.182921 
L 372.111189 283.926223 
L 377.013825 286.032395 
L 381.91646 287.738421 
L 386.819096 289.722916 
L 391.721732 291.142099 
L 396.624368 293.506006 
L 401.527004 295.459359 
L 406.42964 297.234807 
L 411.332275 299.198888 
L 416.234911 300.851165 
L 421.137547 302.28035 
L 426.040183 304.399695 
L 430.942819 306.063844 
L 435.845455 307.672332 
" clip-path="url(#p4348f2ec29)" style="fill: none; stroke-dasharray: 5.55,2.4; stroke-dashoffset: 0; stroke: #1f77b4; stroke-width: 1.5"/>
    <defs>
     <path id="m99cd6da7a9" d="M 0 1.5 
C 0.397805 1.5 0.77937 1.341951 1.06066 1.06066 
C 1.341951 0.77937 1.5 0.397805 1.5 0 
C 1.5 -0.397805 1.341951 -0.77937 1.06066 -1.06066 
C 0.77937 -1.341951 0.397805 -1.5 0 -1.5 
C -0.397805 -1.5 -0.77937 -1.341951 -1.06066 -1.06066 
C -1.341951 -0.77937 -1.5 -0.397805 -1.5 0 
C -1.5 0.397805 -1.341951 0.77937 -1.06066 1.06066 
C -0.77937 1.341951 -0.397805 1.5 0 1.5 
z
" style="stroke: #1f77b4"/>
    </defs>
    <g clip-path="url(#p4348f2ec29)">
     <use xlink:href="#m99cd6da7a9" x="80.754545" y="55.874831" style="fill: #1f77b4; stroke: #1f77b4"/>
     <use xlink:href="#m99cd6da7a9" x="85.642437" y="56.858308" style="fill: #1f77b4; stroke: #1f77b4"/>
     <use xlink:href="#m99cd6da7a9" x="90.530328" y="58.014806" style="fill: #1f77b4; stroke: #1f77b4"/>
     <use xlink:href="#m99cd6da7a9" x="95.418219" y="58.927505" style="fill: #1f77b4; stroke: #1f77b4"/>
     <use xlink:href="#m99cd6da7a9" x="100.30611" y="60.162078" style="fill: #1f77b4; stroke: #1f77b4"/>
     <use xlink:href="#m99cd6da7a9" x="105.194001" y="61.115898" style="fill: #1f77b4; stroke: #1f77b4"/>
     <use xlink:href="#m99cd6da7a9" x="110.081892" y="62.084588" style="fill: #1f77b4; stroke: #1f77b4"/>
     <use xlink:href="#m99cd6da7a9" x="114.969783" y="63.104552" style="fill: #1f77b4; stroke: #1f77b4"/>
     <use xlink:href="#m99cd6da7a9" x="119.857674" y="64.127837" style="fill: #1f77b4; stroke: #1f77b4"/>
     <use xlink:href="#m99cd6da7a9" x="124.745565" y="65.440323" style="fill: #1f77b4; stroke: #1f77b4"/>
     <use xlink:href="#m99cd6da7a9" x="129.633456" y="66.278723" style="fill: #1f77b4; stroke: #1f77b4"/>
     <use xlink:href="#m99cd6da7a9" x="134.521347" y="67.362617" style="fill: #1f77b4; stroke: #1f77b4"/>
     <use xlink:href="#m99cd6da7a9" x="139.409238" y="68.588265" style="fill: #1f77b4; stroke: #1f77b4"/>
     <use xlink:href="#m99cd6da7a9" x="144.297129" y="69.73716" style="fill: #1f77b4; stroke: #1f77b4"/>
     <use xlink:href="#m99cd6da7a9" x="149.18502" y="70.853539" style="fill: #1f77b4; stroke: #1f77b4"/>
     <use xlink:href="#m99cd6da7a9" x="154.072911" y="71.812247" style="fill: #1f77b4; stroke: #1f77b4"/>
     <use xlink:href="#m99cd6da7a9" x="158.960802" y="73.250785" style="fill: #1f77b4; stroke: #1f77b4"/>
     <use xlink:href="#m99cd6da7a9" x="163.848693" y="74.488112" style="fill: #1f77b4; stroke: #1f77b4"/>
     <use xlink:href="#m99cd6da7a9" x="168.736584" y="75.720073" style="fill: #1f77b4; stroke: #1f77b4"/>
     <use xlink:href="#m99cd6da7a9" x="173.624476" y="76.403983" style="fill: #1f77b4; stroke: #1f77b4"/>
     <use xlink:href="#m99cd6da7a9" x="176.355944" y="80.225372" style="fill: #1f77b4; stroke: #1f77b4"/>
     <use xlink:href="#m99cd6da7a9" x="179.949982" y="80.549857" style="fill: #1f77b4; stroke: #1f77b4"/>
     <use xlink:href="#m99cd6da7a9" x="183.544019" y="82.851894" style="fill: #1f77b4; stroke: #1f77b4"/>
     <use xlink:href="#m99cd6da7a9" x="183.943357" y="81.814549" style="fill: #1f77b4; stroke: #1f77b4"/>
     <use xlink:href="#m99cd6da7a9" x="187.138057" y="89.651485" style="fill: #1f77b4; stroke: #1f77b4"/>
     <use xlink:href="#m99cd6da7a9" x="190.732094" y="90.454051" style="fill: #1f77b4; stroke: #1f77b4"/>
     <use xlink:href="#m99cd6da7a9" x="191.530769" y="89.017258" style="fill: #1f77b4; stroke: #1f77b4"/>
     <use xlink:href="#m99cd6da7a9" x="194.326132" y="108.099794" style="fill: #1f77b4; stroke: #1f77b4"/>
     <use xlink:href="#m99cd6da7a9" x="197.920169" y="152.234392" style="fill: #1f77b4; stroke: #1f77b4"/>
     <use xlink:href="#m99cd6da7a9" x="199.118182" y="143.856901" style="fill: #1f77b4; stroke: #1f77b4"/>
     <use xlink:href="#m99cd6da7a9" x="201.514207" y="156.98073" style="fill: #1f77b4; stroke: #1f77b4"/>
     <use xlink:href="#m99cd6da7a9" x="205.108244" y="198.118002" style="fill: #1f77b4; stroke: #1f77b4"/>
     <use xlink:href="#m99cd6da7a9" x="206.705594" y="189.838312" style="fill: #1f77b4; stroke: #1f77b4"/>
     <use xlink:href="#m99cd6da7a9" x="208.702282" y="201.860714" style="fill: #1f77b4; stroke: #1f77b4"/>
     <use xlink:href="#m99cd6da7a9" x="212.296319" y="201.45415" style="fill: #1f77b4; stroke: #1f77b4"/>
     <use xlink:href="#m99cd6da7a9" x="214.293007" y="205.624246" style="fill: #1f77b4; stroke: #1f77b4"/>
     <use xlink:href="#m99cd6da7a9" x="215.890357" y="205.751491" style="fill: #1f77b4; stroke: #1f77b4"/>
     <use xlink:href="#m99cd6da7a9" x="219.484395" y="209.964769" style="fill: #1f77b4; stroke: #1f77b4"/>
     <use xlink:href="#m99cd6da7a9" x="221.88042" y="209.74813" style="fill: #1f77b4; stroke: #1f77b4"/>
     <use xlink:href="#m99cd6da7a9" x="223.078432" y="212.528177" style="fill: #1f77b4; stroke: #1f77b4"/>
     <use xlink:href="#m99cd6da7a9" x="226.67247" y="214.603252" style="fill: #1f77b4; stroke: #1f77b4"/>
     <use xlink:href="#m99cd6da7a9" x="229.467832" y="216.506186" style="fill: #1f77b4; stroke: #1f77b4"/>
     <use xlink:href="#m99cd6da7a9" x="230.266507" y="216.756469" style="fill: #1f77b4; stroke: #1f77b4"/>
     <use xlink:href="#m99cd6da7a9" x="233.860545" y="219.281523" style="fill: #1f77b4; stroke: #1f77b4"/>
     <use xlink:href="#m99cd6da7a9" x="237.055245" y="220.625937" style="fill: #1f77b4; stroke: #1f77b4"/>
     <use xlink:href="#m99cd6da7a9" x="237.454582" y="221.319926" style="fill: #1f77b4; stroke: #1f77b4"/>
     <use xlink:href="#m99cd6da7a9" x="241.04862" y="223.693004" style="fill: #1f77b4; stroke: #1f77b4"/>
     <use xlink:href="#m99cd6da7a9" x="244.642657" y="225.515451" style="fill: #1f77b4; stroke: #1f77b4"/>
     <use xlink:href="#m99cd6da7a9" x="249.545293" y="228.123485" style="fill: #1f77b4; stroke: #1f77b4"/>
     <use xlink:href="#m99cd6da7a9" x="254.447929" y="231.055509" style="fill: #1f77b4; stroke: #1f77b4"/>
     <use xlink:href="#m99cd6da7a9" x="259.350565" y="233.541805" style="fill: #1f77b4; stroke: #1f77b4"/>
     <use xlink:href="#m99cd6da7a9" x="264.253201" y="236.176534" style="fill: #1f77b4; stroke: #1f77b4"/>
     <use xlink:href="#m99cd6da7a9" x="269.155836" y="238.831899" style="fill: #1f77b4; stroke: #1f77b4"/>
     <use xlink:href="#m99cd6da7a9" x="274.058472" y="240.997567" style="fill: #1f77b4; stroke: #1f77b4"/>
     <use xlink:href="#m99cd6da7a9" x="278.961108" y="243.272326" style="fill: #1f77b4; stroke: #1f77b4"/>
     <use xlink:href="#m99cd6da7a9" x="283.863744" y="245.651805" style="fill: #1f77b4; stroke: #1f77b4"/>
     <use xlink:href="#m99cd6da7a9" x="288.76638" y="248.270544" style="fill: #1f77b4; stroke: #1f77b4"/>
     <use xlink:href="#m99cd6da7a9" x="293.669016" y="250.667018" style="fill: #1f77b4; stroke: #1f77b4"/>
     <use xlink:href="#m99cd6da7a9" x="298.571651" y="252.921468" style="fill: #1f77b4; stroke: #1f77b4"/>
     <use xlink:href="#m99cd6da7a9" x="299.272028" y="253.424209" style="fill: #1f77b4; stroke: #1f77b4"/>
     <use xlink:href="#m99cd6da7a9" x="303.474287" y="254.912909" style="fill: #1f77b4; stroke: #1f77b4"/>
     <use xlink:href="#m99cd6da7a9" x="308.376923" y="257.339672" style="fill: #1f77b4; stroke: #1f77b4"/>
     <use xlink:href="#m99cd6da7a9" x="313.279559" y="259.533163" style="fill: #1f77b4; stroke: #1f77b4"/>
     <use xlink:href="#m99cd6da7a9" x="318.182195" y="261.750755" style="fill: #1f77b4; stroke: #1f77b4"/>
     <use xlink:href="#m99cd6da7a9" x="323.084831" y="263.87697" style="fill: #1f77b4; stroke: #1f77b4"/>
     <use xlink:href="#m99cd6da7a9" x="327.987466" y="265.682213" style="fill: #1f77b4; stroke: #1f77b4"/>
     <use xlink:href="#m99cd6da7a9" x="332.890102" y="267.749176" style="fill: #1f77b4; stroke: #1f77b4"/>
     <use xlink:href="#m99cd6da7a9" x="337.792738" y="270.315367" style="fill: #1f77b4; stroke: #1f77b4"/>
     <use xlink:href="#m99cd6da7a9" x="342.695374" y="272.25876" style="fill: #1f77b4; stroke: #1f77b4"/>
     <use xlink:href="#m99cd6da7a9" x="347.59801" y="274.376477" style="fill: #1f77b4; stroke: #1f77b4"/>
     <use xlink:href="#m99cd6da7a9" x="352.500646" y="276.297471" style="fill: #1f77b4; stroke: #1f77b4"/>
     <use xlink:href="#m99cd6da7a9" x="357.403281" y="278.291659" style="fill: #1f77b4; stroke: #1f77b4"/>
     <use xlink:href="#m99cd6da7a9" x="362.305917" y="280.230784" style="fill: #1f77b4; stroke: #1f77b4"/>
     <use xlink:href="#m99cd6da7a9" x="367.208553" y="282.182921" style="fill: #1f77b4; stroke: #1f77b4"/>
     <use xlink:href="#m99cd6da7a9" x="372.111189" y="283.926223" style="fill: #1f77b4; stroke: #1f77b4"/>
     <use xlink:href="#m99cd6da7a9" x="377.013825" y="286.032395" style="fill: #1f77b4; stroke: #1f77b4"/>
     <use xlink:href="#m99cd6da7a9" x="381.91646" y="287.738421" style="fill: #1f77b4; stroke: #1f77b4"/>
     <use xlink:href="#m99cd6da7a9" x="386.819096" y="289.722916" style="fill: #1f77b4; stroke: #1f77b4"/>
     <use xlink:href="#m99cd6da7a9" x="391.721732" y="291.142099" style="fill: #1f77b4; stroke: #1f77b4"/>
     <use xlink:href="#m99cd6da7a9" x="396.624368" y="293.506006" style="fill: #1f77b4; stroke: #1f77b4"/>
     <use xlink:href="#m99cd6da7a9" x="401.527004" y="295.459359" style="fill: #1f77b4; stroke: #1f77b4"/>
     <use xlink:href="#m99cd6da7a9" x="406.42964" y="297.234807" style="fill: #1f77b4; stroke: #1f77b4"/>
     <use xlink:href="#m99cd6da7a9" x="411.332275" y="299.198888" style="fill: #1f77b4; stroke: #1f77b4"/>
     <use xlink:href="#m99cd6da7a9" x="416.234911" y="300.851165" style="fill: #1f77b4; stroke: #1f77b4"/>
     <use xlink:href="#m99cd6da7a9" x="421.137547" y="302.28035" style="fill: #1f77b4; stroke: #1f77b4"/>
     <use xlink:href="#m99cd6da7a9" x="426.040183" y="304.399695" style="fill: #1f77b4; stroke: #1f77b4"/>
     <use xlink:href="#m99cd6da7a9" x="430.942819" y="306.063844" style="fill: #1f77b4; stroke: #1f77b4"/>
     <use xlink:href="#m99cd6da7a9" x="435.845455" y="307.672332" style="fill: #1f77b4; stroke: #1f77b4"/>
    </g>
   </g>
   <g id="patch_3">
    <path d="M 63 320.4 
L 63 43.2 
" style="fill: none; stroke: #000000; stroke-width: 0.8; stroke-linejoin: miter; stroke-linecap: square"/>
   </g>
   <g id="patch_4">
    <path d="M 453.6 320.4 
L 453.6 43.2 
" style="fill: none; stroke: #000000; stroke-width: 0.8; stroke-linejoin: miter; stroke-linecap: square"/>
   </g>
   <g id="patch_5">
    <path d="M 63 320.4 
L 453.6 320.4 
" style="fill: none; stroke: #000000; stroke-width: 0.8; stroke-linejoin: miter; stroke-linecap: square"/>
   </g>
   <g id="patch_6">
    <path d="M 63 43.2 
L 453.6 43.2 
" style="fill: none; stroke: #000000; stroke-width: 0.8; stroke-linejoin: miter; stroke-linecap: square"/>
   </g>
  </g>
 </g>
 <defs>
  <clipPath id="p4348f2ec29">
   <rect x="63" y="43.2" width="390.6" height="277.2"/>
  </clipPath>
 </defs>
</svg>
