<?xml version="1.0" encoding="utf-8" standalone="no"?>
<!DOCTYPE svg PUBLIC "-//W3C//DTD SVG 1.1//EN"
  "http://www.w3.org/Graphics/SVG/1.1/DTD/svg11.dtd">
<svg xmlns:xlink="http://www.w3.org/1999/xlink" width="460.8pt" height="345.6pt" viewBox="0 0 460.8 345.6" xmlns="http://www.w3.org/2000/svg" version="1.1">
 <metadata>
  <rdf:RDF xmlns:dc="http://purl.org/dc/elements/1.1/" xmlns:cc="http://creativecommons.org/ns#" xmlns:rdf="http://www.w3.org/1999/02/22-rdf-syntax-ns#">
   <cc:Work>
    <dc:type rdf:resource="http://purl.org/dc/dcmitype/StillImage"/>
    <dc:date>2024-06-27T12:39:47.949932</dc:date>
    <dc:format>image/svg+xml</dc:format>
    <dc:creator>
     <cc:Agent>
      <dc:title>Matplotlib v3.8.0, https://matplotlib.org/</dc:title>
     </cc:Agent>
    </dc:creator>
   </cc:Work>
  </rdf:RDF>
 </metadata>
 <defs>
  <style type="text/css">*{stroke-linejoin: round; stroke-linecap: butt}</style>
 </defs>
 <g id="figure_1">
  <g id="patch_1">
   <path d="M 0 345.6 
L 460.8 345.6 
L 460.8 0 
L 0 0 
z
" style="fill: #ffffff"/>
  </g>
  <g id="axes_1">
   <g id="patch_2">
    <path d="M 57.6 307.584 
L 414.72 307.584 
L 414.72 41.472 
L 57.6 41.472 
z
" style="fill: #ffffff"/>
   </g>
   <g id="matplotlib.axis_1">
    <g id="xtick_1">
     <g id="line2d_1">
      <defs>
       <path id="m5c77067bb7" d="M 0 0 
L 0 3.5 
" style="stroke: #000000; stroke-width: 0.8"/>
      </defs>
      <g>
       <use xlink:href="#m5c77067bb7" x="72.176327" y="307.584" style="stroke: #000000; stroke-width: 0.8"/>
      </g>
     </g>
     <g id="text_1">
      <!-- 0 -->
      <g transform="translate(68.676952 322.942281) scale(0.11 -0.11)">
       <defs>
        <path id="DejaVuSans-30" d="M 2034 4250 
Q 1547 4250 1301 3770 
Q 1056 3291 1056 2328 
Q 1056 1369 1301 889 
Q 1547 409 2034 409 
Q 2525 409 2770 889 
Q 3016 1369 3016 2328 
Q 3016 3291 2770 3770 
Q 2525 4250 2034 4250 
z
M 2034 4750 
Q 2819 4750 3233 4129 
Q 3647 3509 3647 2328 
Q 3647 1150 3233 529 
Q 2819 -91 2034 -91 
Q 1250 -91 836 529 
Q 422 1150 422 2328 
Q 422 3509 836 4129 
Q 1250 4750 2034 4750 
z
" transform="scale(0.015625)"/>
       </defs>
       <use xlink:href="#DejaVuSans-30"/>
      </g>
     </g>
    </g>
    <g id="xtick_2">
     <g id="line2d_2">
      <g>
       <use xlink:href="#m5c77067bb7" x="113.586345" y="307.584" style="stroke: #000000; stroke-width: 0.8"/>
      </g>
     </g>
     <g id="text_2">
      <!-- 25 -->
      <g transform="translate(106.587595 322.942281) scale(0.11 -0.11)">
       <defs>
        <path id="DejaVuSans-32" d="M 1228 531 
L 3431 531 
L 3431 0 
L 469 0 
L 469 531 
Q 828 903 1448 1529 
Q 2069 2156 2228 2338 
Q 2531 2678 2651 2914 
Q 2772 3150 2772 3378 
Q 2772 3750 2511 3984 
Q 2250 4219 1831 4219 
Q 1534 4219 1204 4116 
Q 875 4013 500 3803 
L 500 4441 
Q 881 4594 1212 4672 
Q 1544 4750 1819 4750 
Q 2544 4750 2975 4387 
Q 3406 4025 3406 3419 
Q 3406 3131 3298 2873 
Q 3191 2616 2906 2266 
Q 2828 2175 2409 1742 
Q 1991 1309 1228 531 
z
" transform="scale(0.015625)"/>
        <path id="DejaVuSans-35" d="M 691 4666 
L 3169 4666 
L 3169 4134 
L 1269 4134 
L 1269 2991 
Q 1406 3038 1543 3061 
Q 1681 3084 1819 3084 
Q 2600 3084 3056 2656 
Q 3513 2228 3513 1497 
Q 3513 744 3044 326 
Q 2575 -91 1722 -91 
Q 1428 -91 1123 -41 
Q 819 9 494 109 
L 494 744 
Q 775 591 1075 516 
Q 1375 441 1709 441 
Q 2250 441 2565 725 
Q 2881 1009 2881 1497 
Q 2881 1984 2565 2268 
Q 2250 2553 1709 2553 
Q 1456 2553 1204 2497 
Q 953 2441 691 2322 
L 691 4666 
z
" transform="scale(0.015625)"/>
       </defs>
       <use xlink:href="#DejaVuSans-32"/>
       <use xlink:href="#DejaVuSans-35" x="63.623047"/>
      </g>
     </g>
    </g>
    <g id="xtick_3">
     <g id="line2d_3">
      <g>
       <use xlink:href="#m5c77067bb7" x="154.996364" y="307.584" style="stroke: #000000; stroke-width: 0.8"/>
      </g>
     </g>
     <g id="text_3">
      <!-- 50 -->
      <g transform="translate(147.997614 322.942281) scale(0.11 -0.11)">
       <use xlink:href="#DejaVuSans-35"/>
       <use xlink:href="#DejaVuSans-30" x="63.623047"/>
      </g>
     </g>
    </g>
    <g id="xtick_4">
     <g id="line2d_4">
      <g>
       <use xlink:href="#m5c77067bb7" x="196.406382" y="307.584" style="stroke: #000000; stroke-width: 0.8"/>
      </g>
     </g>
     <g id="text_4">
      <!-- 75 -->
      <g transform="translate(189.407632 322.942281) scale(0.11 -0.11)">
       <defs>
        <path id="DejaVuSans-37" d="M 525 4666 
L 3525 4666 
L 3525 4397 
L 1831 0 
L 1172 0 
L 2766 4134 
L 525 4134 
L 525 4666 
z
" transform="scale(0.015625)"/>
       </defs>
       <use xlink:href="#DejaVuSans-37"/>
       <use xlink:href="#DejaVuSans-35" x="63.623047"/>
      </g>
     </g>
    </g>
    <g id="xtick_5">
     <g id="line2d_5">
      <g>
       <use xlink:href="#m5c77067bb7" x="237.816401" y="307.584" style="stroke: #000000; stroke-width: 0.8"/>
      </g>
     </g>
     <g id="text_5">
      <!-- 100 -->
      <g transform="translate(227.318276 322.942281) scale(0.11 -0.11)">
       <defs>
        <path id="DejaVuSans-31" d="M 794 531 
L 1825 531 
L 1825 4091 
L 703 3866 
L 703 4441 
L 1819 4666 
L 2450 4666 
L 2450 531 
L 3481 531 
L 3481 0 
L 794 0 
L 794 531 
z
" transform="scale(0.015625)"/>
       </defs>
       <use xlink:href="#DejaVuSans-31"/>
       <use xlink:href="#DejaVuSans-30" x="63.623047"/>
       <use xlink:href="#DejaVuSans-30" x="127.246094"/>
      </g>
     </g>
    </g>
    <g id="xtick_6">
     <g id="line2d_6">
      <g>
       <use xlink:href="#m5c77067bb7" x="279.226419" y="307.584" style="stroke: #000000; stroke-width: 0.8"/>
      </g>
     </g>
     <g id="text_6">
      <!-- 125 -->
      <g transform="translate(268.728294 322.942281) scale(0.11 -0.11)">
       <use xlink:href="#DejaVuSans-31"/>
       <use xlink:href="#DejaVuSans-32" x="63.623047"/>
       <use xlink:href="#DejaVuSans-35" x="127.246094"/>
      </g>
     </g>
    </g>
    <g id="xtick_7">
     <g id="line2d_7">
      <g>
       <use xlink:href="#m5c77067bb7" x="320.636438" y="307.584" style="stroke: #000000; stroke-width: 0.8"/>
      </g>
     </g>
     <g id="text_7">
      <!-- 150 -->
      <g transform="translate(310.138313 322.942281) scale(0.11 -0.11)">
       <use xlink:href="#DejaVuSans-31"/>
       <use xlink:href="#DejaVuSans-35" x="63.623047"/>
       <use xlink:href="#DejaVuSans-30" x="127.246094"/>
      </g>
     </g>
    </g>
    <g id="xtick_8">
     <g id="line2d_8">
      <g>
       <use xlink:href="#m5c77067bb7" x="362.046456" y="307.584" style="stroke: #000000; stroke-width: 0.8"/>
      </g>
     </g>
     <g id="text_8">
      <!-- 175 -->
      <g transform="translate(351.548331 322.942281) scale(0.11 -0.11)">
       <use xlink:href="#DejaVuSans-31"/>
       <use xlink:href="#DejaVuSans-37" x="63.623047"/>
       <use xlink:href="#DejaVuSans-35" x="127.246094"/>
      </g>
     </g>
    </g>
    <g id="xtick_9">
     <g id="line2d_9">
      <g>
       <use xlink:href="#m5c77067bb7" x="403.456475" y="307.584" style="stroke: #000000; stroke-width: 0.8"/>
      </g>
     </g>
     <g id="text_9">
      <!-- 200 -->
      <g transform="translate(392.95835 322.942281) scale(0.11 -0.11)">
       <use xlink:href="#DejaVuSans-32"/>
       <use xlink:href="#DejaVuSans-30" x="63.623047"/>
       <use xlink:href="#DejaVuSans-30" x="127.246094"/>
      </g>
     </g>
    </g>
    <g id="text_10">
     <!-- $n$ -->
     <g transform="translate(232.64 337.588219) scale(0.11 -0.11)">
      <defs>
       <path id="DejaVuSans-Oblique-6e" d="M 3566 2113 
L 3156 0 
L 2578 0 
L 2988 2091 
Q 3016 2238 3031 2350 
Q 3047 2463 3047 2528 
Q 3047 2791 2881 2937 
Q 2716 3084 2419 3084 
Q 1956 3084 1622 2776 
Q 1288 2469 1184 1941 
L 800 0 
L 225 0 
L 903 3500 
L 1478 3500 
L 1363 2950 
Q 1603 3253 1940 3418 
Q 2278 3584 2650 3584 
Q 3113 3584 3367 3334 
Q 3622 3084 3622 2631 
Q 3622 2519 3608 2391 
Q 3594 2263 3566 2113 
z
" transform="scale(0.015625)"/>
      </defs>
      <use xlink:href="#DejaVuSans-Oblique-6e"/>
     </g>
    </g>
   </g>
   <g id="matplotlib.axis_2">
    <g id="ytick_1">
     <g id="line2d_10">
      <defs>
       <path id="m530b161671" d="M 0 0 
L -3.5 0 
" style="stroke: #000000; stroke-width: 0.8"/>
      </defs>
      <g>
       <use xlink:href="#m530b161671" x="57.6" y="286.869597" style="stroke: #000000; stroke-width: 0.8"/>
      </g>
     </g>
     <g id="text_11">
      <!-- 4 -->
      <g transform="translate(43.60125 291.048738) scale(0.11 -0.11)">
       <defs>
        <path id="DejaVuSans-34" d="M 2419 4116 
L 825 1625 
L 2419 1625 
L 2419 4116 
z
M 2253 4666 
L 3047 4666 
L 3047 1625 
L 3713 1625 
L 3713 1100 
L 3047 1100 
L 3047 0 
L 2419 0 
L 2419 1100 
L 313 1100 
L 313 1709 
L 2253 4666 
z
" transform="scale(0.015625)"/>
       </defs>
       <use xlink:href="#DejaVuSans-34"/>
      </g>
     </g>
    </g>
    <g id="ytick_2">
     <g id="line2d_11">
      <g>
       <use xlink:href="#m530b161671" x="57.6" y="248.202339" style="stroke: #000000; stroke-width: 0.8"/>
      </g>
     </g>
     <g id="text_12">
      <!-- 6 -->
      <g transform="translate(43.60125 252.381479) scale(0.11 -0.11)">
       <defs>
        <path id="DejaVuSans-36" d="M 2113 2584 
Q 1688 2584 1439 2293 
Q 1191 2003 1191 1497 
Q 1191 994 1439 701 
Q 1688 409 2113 409 
Q 2538 409 2786 701 
Q 3034 994 3034 1497 
Q 3034 2003 2786 2293 
Q 2538 2584 2113 2584 
z
M 3366 4563 
L 3366 3988 
Q 3128 4100 2886 4159 
Q 2644 4219 2406 4219 
Q 1781 4219 1451 3797 
Q 1122 3375 1075 2522 
Q 1259 2794 1537 2939 
Q 1816 3084 2150 3084 
Q 2853 3084 3261 2657 
Q 3669 2231 3669 1497 
Q 3669 778 3244 343 
Q 2819 -91 2113 -91 
Q 1303 -91 875 529 
Q 447 1150 447 2328 
Q 447 3434 972 4092 
Q 1497 4750 2381 4750 
Q 2619 4750 2861 4703 
Q 3103 4656 3366 4563 
z
" transform="scale(0.015625)"/>
       </defs>
       <use xlink:href="#DejaVuSans-36"/>
      </g>
     </g>
    </g>
    <g id="ytick_3">
     <g id="line2d_12">
      <g>
       <use xlink:href="#m530b161671" x="57.6" y="209.535081" style="stroke: #000000; stroke-width: 0.8"/>
      </g>
     </g>
     <g id="text_13">
      <!-- 8 -->
      <g transform="translate(43.60125 213.714221) scale(0.11 -0.11)">
       <defs>
        <path id="DejaVuSans-38" d="M 2034 2216 
Q 1584 2216 1326 1975 
Q 1069 1734 1069 1313 
Q 1069 891 1326 650 
Q 1584 409 2034 409 
Q 2484 409 2743 651 
Q 3003 894 3003 1313 
Q 3003 1734 2745 1975 
Q 2488 2216 2034 2216 
z
M 1403 2484 
Q 997 2584 770 2862 
Q 544 3141 544 3541 
Q 544 4100 942 4425 
Q 1341 4750 2034 4750 
Q 2731 4750 3128 4425 
Q 3525 4100 3525 3541 
Q 3525 3141 3298 2862 
Q 3072 2584 2669 2484 
Q 3125 2378 3379 2068 
Q 3634 1759 3634 1313 
Q 3634 634 3220 271 
Q 2806 -91 2034 -91 
Q 1263 -91 848 271 
Q 434 634 434 1313 
Q 434 1759 690 2068 
Q 947 2378 1403 2484 
z
M 1172 3481 
Q 1172 3119 1398 2916 
Q 1625 2713 2034 2713 
Q 2441 2713 2670 2916 
Q 2900 3119 2900 3481 
Q 2900 3844 2670 4047 
Q 2441 4250 2034 4250 
Q 1625 4250 1398 4047 
Q 1172 3844 1172 3481 
z
" transform="scale(0.015625)"/>
       </defs>
       <use xlink:href="#DejaVuSans-38"/>
      </g>
     </g>
    </g>
    <g id="ytick_4">
     <g id="line2d_13">
      <g>
       <use xlink:href="#m530b161671" x="57.6" y="170.867822" style="stroke: #000000; stroke-width: 0.8"/>
      </g>
     </g>
     <g id="text_14">
      <!-- 10 -->
      <g transform="translate(36.6025 175.046963) scale(0.11 -0.11)">
       <use xlink:href="#DejaVuSans-31"/>
       <use xlink:href="#DejaVuSans-30" x="63.623047"/>
      </g>
     </g>
    </g>
    <g id="ytick_5">
     <g id="line2d_14">
      <g>
       <use xlink:href="#m530b161671" x="57.6" y="132.200564" style="stroke: #000000; stroke-width: 0.8"/>
      </g>
     </g>
     <g id="text_15">
      <!-- 12 -->
      <g transform="translate(36.6025 136.379705) scale(0.11 -0.11)">
       <use xlink:href="#DejaVuSans-31"/>
       <use xlink:href="#DejaVuSans-32" x="63.623047"/>
      </g>
     </g>
    </g>
    <g id="ytick_6">
     <g id="line2d_15">
      <g>
       <use xlink:href="#m530b161671" x="57.6" y="93.533306" style="stroke: #000000; stroke-width: 0.8"/>
      </g>
     </g>
     <g id="text_16">
      <!-- 14 -->
      <g transform="translate(36.6025 97.712447) scale(0.11 -0.11)">
       <use xlink:href="#DejaVuSans-31"/>
       <use xlink:href="#DejaVuSans-34" x="63.623047"/>
      </g>
     </g>
    </g>
    <g id="ytick_7">
     <g id="line2d_16">
      <g>
       <use xlink:href="#m530b161671" x="57.6" y="54.866048" style="stroke: #000000; stroke-width: 0.8"/>
      </g>
     </g>
     <g id="text_17">
      <!-- 16 -->
      <g transform="translate(36.6025 59.045188) scale(0.11 -0.11)">
       <use xlink:href="#DejaVuSans-31"/>
       <use xlink:href="#DejaVuSans-36" x="63.623047"/>
      </g>
     </g>
    </g>
    <g id="text_18">
     <!-- $f_n$ -->
     <g transform="translate(30.314844 179.093) rotate(-90) scale(0.11 -0.11)">
      <defs>
       <path id="DejaVuSans-Oblique-66" d="M 3059 4863 
L 2969 4384 
L 2419 4384 
Q 2106 4384 1964 4261 
Q 1822 4138 1753 3809 
L 1691 3500 
L 2638 3500 
L 2553 3053 
L 1606 3053 
L 1013 0 
L 434 0 
L 1031 3053 
L 481 3053 
L 563 3500 
L 1113 3500 
L 1159 3744 
Q 1278 4363 1576 4613 
Q 1875 4863 2516 4863 
L 3059 4863 
z
" transform="scale(0.015625)"/>
      </defs>
      <use xlink:href="#DejaVuSans-Oblique-66" transform="translate(0 0.015625)"/>
      <use xlink:href="#DejaVuSans-Oblique-6e" transform="translate(35.205078 -16.390625) scale(0.7)"/>
     </g>
    </g>
   </g>
   <g id="line2d_17">
    <defs>
     <path id="m63eddc30bb" d="M 0 3 
C 0.795609 3 1.55874 2.683901 2.12132 2.12132 
C 2.683901 1.55874 3 0.795609 3 0 
C 3 -0.795609 2.683901 -1.55874 2.12132 -2.12132 
C 1.55874 -2.683901 0.795609 -3 0 -3 
C -0.795609 -3 -1.55874 -2.683901 -2.12132 -2.12132 
C -2.683901 -1.55874 -3 -0.795609 -3 0 
C -3 0.795609 -2.683901 1.55874 -2.12132 2.12132 
C -1.55874 2.683901 -0.795609 3 0 3 
z
" style="stroke: #1f77b4"/>
    </defs>
    <g clip-path="url(#p847562cac1)">
     <use xlink:href="#m63eddc30bb" x="73.832727" y="295.488" style="fill: #1f77b4; stroke: #1f77b4"/>
     <use xlink:href="#m63eddc30bb" x="75.489128" y="261.115493" style="fill: #1f77b4; stroke: #1f77b4"/>
     <use xlink:href="#m63eddc30bb" x="78.801929" y="228.077568" style="fill: #1f77b4; stroke: #1f77b4"/>
     <use xlink:href="#m63eddc30bb" x="80.45833" y="208.177633" style="fill: #1f77b4; stroke: #1f77b4"/>
     <use xlink:href="#m63eddc30bb" x="85.427532" y="197.920559" style="fill: #1f77b4; stroke: #1f77b4"/>
     <use xlink:href="#m63eddc30bb" x="87.083933" y="165.835435" style="fill: #1f77b4; stroke: #1f77b4"/>
     <use xlink:href="#m63eddc30bb" x="88.740334" y="157.325916" style="fill: #1f77b4; stroke: #1f77b4"/>
     <use xlink:href="#m63eddc30bb" x="93.709536" y="134.635831" style="fill: #1f77b4; stroke: #1f77b4"/>
     <use xlink:href="#m63eddc30bb" x="98.678738" y="122.090224" style="fill: #1f77b4; stroke: #1f77b4"/>
     <use xlink:href="#m63eddc30bb" x="100.335139" y="107.500949" style="fill: #1f77b4; stroke: #1f77b4"/>
     <use xlink:href="#m63eddc30bb" x="101.99154" y="114.841107" style="fill: #1f77b4; stroke: #1f77b4"/>
     <use xlink:href="#m63eddc30bb" x="105.304341" y="94.406425" style="fill: #1f77b4; stroke: #1f77b4"/>
     <use xlink:href="#m63eddc30bb" x="113.586345" y="83.001878" style="fill: #1f77b4; stroke: #1f77b4"/>
     <use xlink:href="#m63eddc30bb" x="115.242746" y="94.273573" style="fill: #1f77b4; stroke: #1f77b4"/>
     <use xlink:href="#m63eddc30bb" x="120.211948" y="73.770676" style="fill: #1f77b4; stroke: #1f77b4"/>
     <use xlink:href="#m63eddc30bb" x="125.18115" y="80.098632" style="fill: #1f77b4; stroke: #1f77b4"/>
     <use xlink:href="#m63eddc30bb" x="128.493952" y="75.372253" style="fill: #1f77b4; stroke: #1f77b4"/>
     <use xlink:href="#m63eddc30bb" x="131.806753" y="61.134672" style="fill: #1f77b4; stroke: #1f77b4"/>
     <use xlink:href="#m63eddc30bb" x="133.463154" y="65.840161" style="fill: #1f77b4; stroke: #1f77b4"/>
     <use xlink:href="#m63eddc30bb" x="138.432356" y="69.683278" style="fill: #1f77b4; stroke: #1f77b4"/>
     <use xlink:href="#m63eddc30bb" x="140.088757" y="67.465343" style="fill: #1f77b4; stroke: #1f77b4"/>
     <use xlink:href="#m63eddc30bb" x="146.71436" y="58.212762" style="fill: #1f77b4; stroke: #1f77b4"/>
     <use xlink:href="#m63eddc30bb" x="153.339963" y="67.612149" style="fill: #1f77b4; stroke: #1f77b4"/>
     <use xlink:href="#m63eddc30bb" x="154.996364" y="64.324048" style="fill: #1f77b4; stroke: #1f77b4"/>
     <use xlink:href="#m63eddc30bb" x="158.309165" y="61.595757" style="fill: #1f77b4; stroke: #1f77b4"/>
     <use xlink:href="#m63eddc30bb" x="159.965566" y="59.762634" style="fill: #1f77b4; stroke: #1f77b4"/>
     <use xlink:href="#m63eddc30bb" x="168.24757" y="59.351043" style="fill: #1f77b4; stroke: #1f77b4"/>
     <use xlink:href="#m63eddc30bb" x="173.216772" y="67.739896" style="fill: #1f77b4; stroke: #1f77b4"/>
     <use xlink:href="#m63eddc30bb" x="178.185974" y="67.25834" style="fill: #1f77b4; stroke: #1f77b4"/>
     <use xlink:href="#m63eddc30bb" x="179.842375" y="53.568" style="fill: #1f77b4; stroke: #1f77b4"/>
     <use xlink:href="#m63eddc30bb" x="184.811577" y="56.503243" style="fill: #1f77b4; stroke: #1f77b4"/>
     <use xlink:href="#m63eddc30bb" x="191.43718" y="73.670021" style="fill: #1f77b4; stroke: #1f77b4"/>
     <use xlink:href="#m63eddc30bb" x="193.093581" y="57.863489" style="fill: #1f77b4; stroke: #1f77b4"/>
     <use xlink:href="#m63eddc30bb" x="194.749981" y="73.182024" style="fill: #1f77b4; stroke: #1f77b4"/>
     <use xlink:href="#m63eddc30bb" x="204.688386" y="75.096492" style="fill: #1f77b4; stroke: #1f77b4"/>
     <use xlink:href="#m63eddc30bb" x="206.344787" y="75.173703" style="fill: #1f77b4; stroke: #1f77b4"/>
     <use xlink:href="#m63eddc30bb" x="208.001187" y="70.399362" style="fill: #1f77b4; stroke: #1f77b4"/>
     <use xlink:href="#m63eddc30bb" x="212.97039" y="55.563327" style="fill: #1f77b4; stroke: #1f77b4"/>
     <use xlink:href="#m63eddc30bb" x="219.595993" y="79.914655" style="fill: #1f77b4; stroke: #1f77b4"/>
     <use xlink:href="#m63eddc30bb" x="221.252393" y="76.287172" style="fill: #1f77b4; stroke: #1f77b4"/>
     <use xlink:href="#m63eddc30bb" x="232.847199" y="69.544916" style="fill: #1f77b4; stroke: #1f77b4"/>
     <use xlink:href="#m63eddc30bb" x="234.503599" y="99.618522" style="fill: #1f77b4; stroke: #1f77b4"/>
     <use xlink:href="#m63eddc30bb" x="237.816401" y="79.856215" style="fill: #1f77b4; stroke: #1f77b4"/>
     <use xlink:href="#m63eddc30bb" x="239.472801" y="75.183938" style="fill: #1f77b4; stroke: #1f77b4"/>
     <use xlink:href="#m63eddc30bb" x="244.442004" y="68.99093" style="fill: #1f77b4; stroke: #1f77b4"/>
     <use xlink:href="#m63eddc30bb" x="247.754805" y="78.426225" style="fill: #1f77b4; stroke: #1f77b4"/>
     <use xlink:href="#m63eddc30bb" x="252.724007" y="89.416934" style="fill: #1f77b4; stroke: #1f77b4"/>
     <use xlink:href="#m63eddc30bb" x="259.34961" y="87.503939" style="fill: #1f77b4; stroke: #1f77b4"/>
     <use xlink:href="#m63eddc30bb" x="264.318813" y="92.02466" style="fill: #1f77b4; stroke: #1f77b4"/>
     <use xlink:href="#m63eddc30bb" x="265.975213" y="93.695468" style="fill: #1f77b4; stroke: #1f77b4"/>
     <use xlink:href="#m63eddc30bb" x="272.600816" y="110.984644" style="fill: #1f77b4; stroke: #1f77b4"/>
     <use xlink:href="#m63eddc30bb" x="274.257217" y="89.605891" style="fill: #1f77b4; stroke: #1f77b4"/>
     <use xlink:href="#m63eddc30bb" x="279.226419" y="67.383732" style="fill: #1f77b4; stroke: #1f77b4"/>
     <use xlink:href="#m63eddc30bb" x="284.195622" y="117.007704" style="fill: #1f77b4; stroke: #1f77b4"/>
     <use xlink:href="#m63eddc30bb" x="287.508423" y="74.993451" style="fill: #1f77b4; stroke: #1f77b4"/>
     <use xlink:href="#m63eddc30bb" x="297.446827" y="105.398109" style="fill: #1f77b4; stroke: #1f77b4"/>
     <use xlink:href="#m63eddc30bb" x="299.103228" y="104.119449" style="fill: #1f77b4; stroke: #1f77b4"/>
     <use xlink:href="#m63eddc30bb" x="310.698033" y="109.071449" style="fill: #1f77b4; stroke: #1f77b4"/>
     <use xlink:href="#m63eddc30bb" x="312.354434" y="84.781553" style="fill: #1f77b4; stroke: #1f77b4"/>
     <use xlink:href="#m63eddc30bb" x="314.010835" y="107.866367" style="fill: #1f77b4; stroke: #1f77b4"/>
     <use xlink:href="#m63eddc30bb" x="317.323636" y="108.361746" style="fill: #1f77b4; stroke: #1f77b4"/>
     <use xlink:href="#m63eddc30bb" x="318.980037" y="106.019981" style="fill: #1f77b4; stroke: #1f77b4"/>
     <use xlink:href="#m63eddc30bb" x="325.60564" y="100.605975" style="fill: #1f77b4; stroke: #1f77b4"/>
     <use xlink:href="#m63eddc30bb" x="332.231243" y="112.815681" style="fill: #1f77b4; stroke: #1f77b4"/>
     <use xlink:href="#m63eddc30bb" x="337.200445" y="105.370459" style="fill: #1f77b4; stroke: #1f77b4"/>
     <use xlink:href="#m63eddc30bb" x="340.513247" y="133.457359" style="fill: #1f77b4; stroke: #1f77b4"/>
     <use xlink:href="#m63eddc30bb" x="343.826048" y="119.047214" style="fill: #1f77b4; stroke: #1f77b4"/>
     <use xlink:href="#m63eddc30bb" x="352.108052" y="100.229686" style="fill: #1f77b4; stroke: #1f77b4"/>
     <use xlink:href="#m63eddc30bb" x="353.764453" y="84.20656" style="fill: #1f77b4; stroke: #1f77b4"/>
     <use xlink:href="#m63eddc30bb" x="358.733655" y="119.55296" style="fill: #1f77b4; stroke: #1f77b4"/>
     <use xlink:href="#m63eddc30bb" x="367.015659" y="115.288301" style="fill: #1f77b4; stroke: #1f77b4"/>
     <use xlink:href="#m63eddc30bb" x="370.32846" y="123.306123" style="fill: #1f77b4; stroke: #1f77b4"/>
     <use xlink:href="#m63eddc30bb" x="371.984861" y="125.31975" style="fill: #1f77b4; stroke: #1f77b4"/>
     <use xlink:href="#m63eddc30bb" x="378.610464" y="97.857623" style="fill: #1f77b4; stroke: #1f77b4"/>
     <use xlink:href="#m63eddc30bb" x="391.86167" y="124.714078" style="fill: #1f77b4; stroke: #1f77b4"/>
     <use xlink:href="#m63eddc30bb" x="393.518071" y="123.038136" style="fill: #1f77b4; stroke: #1f77b4"/>
     <use xlink:href="#m63eddc30bb" x="396.830872" y="143.167797" style="fill: #1f77b4; stroke: #1f77b4"/>
     <use xlink:href="#m63eddc30bb" x="398.487273" y="125.559455" style="fill: #1f77b4; stroke: #1f77b4"/>
    </g>
   </g>
   <g id="patch_3">
    <path d="M 57.6 307.584 
L 57.6 41.472 
" style="fill: none; stroke: #000000; stroke-width: 0.8; stroke-linejoin: miter; stroke-linecap: square"/>
   </g>
   <g id="patch_4">
    <path d="M 414.72 307.584 
L 414.72 41.472 
" style="fill: none; stroke: #000000; stroke-width: 0.8; stroke-linejoin: miter; stroke-linecap: square"/>
   </g>
   <g id="patch_5">
    <path d="M 57.6 307.584 
L 414.72 307.584 
" style="fill: none; stroke: #000000; stroke-width: 0.8; stroke-linejoin: miter; stroke-linecap: square"/>
   </g>
   <g id="patch_6">
    <path d="M 57.6 41.472 
L 414.72 41.472 
" style="fill: none; stroke: #000000; stroke-width: 0.8; stroke-linejoin: miter; stroke-linecap: square"/>
   </g>
   <g id="text_19">
    <!-- Fourier profile V=[58 58 84  6], beta=100 -->
    <g transform="translate(97.834312 35.472) scale(0.132 -0.132)">
     <defs>
      <path id="DejaVuSans-46" d="M 628 4666 
L 3309 4666 
L 3309 4134 
L 1259 4134 
L 1259 2759 
L 3109 2759 
L 3109 2228 
L 1259 2228 
L 1259 0 
L 628 0 
L 628 4666 
z
" transform="scale(0.015625)"/>
      <path id="DejaVuSans-6f" d="M 1959 3097 
Q 1497 3097 1228 2736 
Q 959 2375 959 1747 
Q 959 1119 1226 758 
Q 1494 397 1959 397 
Q 2419 397 2687 759 
Q 2956 1122 2956 1747 
Q 2956 2369 2687 2733 
Q 2419 3097 1959 3097 
z
M 1959 3584 
Q 2709 3584 3137 3096 
Q 3566 2609 3566 1747 
Q 3566 888 3137 398 
Q 2709 -91 1959 -91 
Q 1206 -91 779 398 
Q 353 888 353 1747 
Q 353 2609 779 3096 
Q 1206 3584 1959 3584 
z
" transform="scale(0.015625)"/>
      <path id="DejaVuSans-75" d="M 544 1381 
L 544 3500 
L 1119 3500 
L 1119 1403 
Q 1119 906 1312 657 
Q 1506 409 1894 409 
Q 2359 409 2629 706 
Q 2900 1003 2900 1516 
L 2900 3500 
L 3475 3500 
L 3475 0 
L 2900 0 
L 2900 538 
Q 2691 219 2414 64 
Q 2138 -91 1772 -91 
Q 1169 -91 856 284 
Q 544 659 544 1381 
z
M 1991 3584 
L 1991 3584 
z
" transform="scale(0.015625)"/>
      <path id="DejaVuSans-72" d="M 2631 2963 
Q 2534 3019 2420 3045 
Q 2306 3072 2169 3072 
Q 1681 3072 1420 2755 
Q 1159 2438 1159 1844 
L 1159 0 
L 581 0 
L 581 3500 
L 1159 3500 
L 1159 2956 
Q 1341 3275 1631 3429 
Q 1922 3584 2338 3584 
Q 2397 3584 2469 3576 
Q 2541 3569 2628 3553 
L 2631 2963 
z
" transform="scale(0.015625)"/>
      <path id="DejaVuSans-69" d="M 603 3500 
L 1178 3500 
L 1178 0 
L 603 0 
L 603 3500 
z
M 603 4863 
L 1178 4863 
L 1178 4134 
L 603 4134 
L 603 4863 
z
" transform="scale(0.015625)"/>
      <path id="DejaVuSans-65" d="M 3597 1894 
L 3597 1613 
L 953 1613 
Q 991 1019 1311 708 
Q 1631 397 2203 397 
Q 2534 397 2845 478 
Q 3156 559 3463 722 
L 3463 178 
Q 3153 47 2828 -22 
Q 2503 -91 2169 -91 
Q 1331 -91 842 396 
Q 353 884 353 1716 
Q 353 2575 817 3079 
Q 1281 3584 2069 3584 
Q 2775 3584 3186 3129 
Q 3597 2675 3597 1894 
z
M 3022 2063 
Q 3016 2534 2758 2815 
Q 2500 3097 2075 3097 
Q 1594 3097 1305 2825 
Q 1016 2553 972 2059 
L 3022 2063 
z
" transform="scale(0.015625)"/>
      <path id="DejaVuSans-20" transform="scale(0.015625)"/>
      <path id="DejaVuSans-70" d="M 1159 525 
L 1159 -1331 
L 581 -1331 
L 581 3500 
L 1159 3500 
L 1159 2969 
Q 1341 3281 1617 3432 
Q 1894 3584 2278 3584 
Q 2916 3584 3314 3078 
Q 3713 2572 3713 1747 
Q 3713 922 3314 415 
Q 2916 -91 2278 -91 
Q 1894 -91 1617 61 
Q 1341 213 1159 525 
z
M 3116 1747 
Q 3116 2381 2855 2742 
Q 2594 3103 2138 3103 
Q 1681 3103 1420 2742 
Q 1159 2381 1159 1747 
Q 1159 1113 1420 752 
Q 1681 391 2138 391 
Q 2594 391 2855 752 
Q 3116 1113 3116 1747 
z
" transform="scale(0.015625)"/>
      <path id="DejaVuSans-66" d="M 2375 4863 
L 2375 4384 
L 1825 4384 
Q 1516 4384 1395 4259 
Q 1275 4134 1275 3809 
L 1275 3500 
L 2222 3500 
L 2222 3053 
L 1275 3053 
L 1275 0 
L 697 0 
L 697 3053 
L 147 3053 
L 147 3500 
L 697 3500 
L 697 3744 
Q 697 4328 969 4595 
Q 1241 4863 1831 4863 
L 2375 4863 
z
" transform="scale(0.015625)"/>
      <path id="DejaVuSans-6c" d="M 603 4863 
L 1178 4863 
L 1178 0 
L 603 0 
L 603 4863 
z
" transform="scale(0.015625)"/>
      <path id="DejaVuSans-56" d="M 1831 0 
L 50 4666 
L 709 4666 
L 2188 738 
L 3669 4666 
L 4325 4666 
L 2547 0 
L 1831 0 
z
" transform="scale(0.015625)"/>
      <path id="DejaVuSans-3d" d="M 678 2906 
L 4684 2906 
L 4684 2381 
L 678 2381 
L 678 2906 
z
M 678 1631 
L 4684 1631 
L 4684 1100 
L 678 1100 
L 678 1631 
z
" transform="scale(0.015625)"/>
      <path id="DejaVuSans-5b" d="M 550 4863 
L 1875 4863 
L 1875 4416 
L 1125 4416 
L 1125 -397 
L 1875 -397 
L 1875 -844 
L 550 -844 
L 550 4863 
z
" transform="scale(0.015625)"/>
      <path id="DejaVuSans-5d" d="M 1947 4863 
L 1947 -844 
L 622 -844 
L 622 -397 
L 1369 -397 
L 1369 4416 
L 622 4416 
L 622 4863 
L 1947 4863 
z
" transform="scale(0.015625)"/>
      <path id="DejaVuSans-2c" d="M 750 794 
L 1409 794 
L 1409 256 
L 897 -744 
L 494 -744 
L 750 256 
L 750 794 
z
" transform="scale(0.015625)"/>
      <path id="DejaVuSans-62" d="M 3116 1747 
Q 3116 2381 2855 2742 
Q 2594 3103 2138 3103 
Q 1681 3103 1420 2742 
Q 1159 2381 1159 1747 
Q 1159 1113 1420 752 
Q 1681 391 2138 391 
Q 2594 391 2855 752 
Q 3116 1113 3116 1747 
z
M 1159 2969 
Q 1341 3281 1617 3432 
Q 1894 3584 2278 3584 
Q 2916 3584 3314 3078 
Q 3713 2572 3713 1747 
Q 3713 922 3314 415 
Q 2916 -91 2278 -91 
Q 1894 -91 1617 61 
Q 1341 213 1159 525 
L 1159 0 
L 581 0 
L 581 4863 
L 1159 4863 
L 1159 2969 
z
" transform="scale(0.015625)"/>
      <path id="DejaVuSans-74" d="M 1172 4494 
L 1172 3500 
L 2356 3500 
L 2356 3053 
L 1172 3053 
L 1172 1153 
Q 1172 725 1289 603 
Q 1406 481 1766 481 
L 2356 481 
L 2356 0 
L 1766 0 
Q 1100 0 847 248 
Q 594 497 594 1153 
L 594 3053 
L 172 3053 
L 172 3500 
L 594 3500 
L 594 4494 
L 1172 4494 
z
" transform="scale(0.015625)"/>
      <path id="DejaVuSans-61" d="M 2194 1759 
Q 1497 1759 1228 1600 
Q 959 1441 959 1056 
Q 959 750 1161 570 
Q 1363 391 1709 391 
Q 2188 391 2477 730 
Q 2766 1069 2766 1631 
L 2766 1759 
L 2194 1759 
z
M 3341 1997 
L 3341 0 
L 2766 0 
L 2766 531 
Q 2569 213 2275 61 
Q 1981 -91 1556 -91 
Q 1019 -91 701 211 
Q 384 513 384 1019 
Q 384 1609 779 1909 
Q 1175 2209 1959 2209 
L 2766 2209 
L 2766 2266 
Q 2766 2663 2505 2880 
Q 2244 3097 1772 3097 
Q 1472 3097 1187 3025 
Q 903 2953 641 2809 
L 641 3341 
Q 956 3463 1253 3523 
Q 1550 3584 1831 3584 
Q 2591 3584 2966 3190 
Q 3341 2797 3341 1997 
z
" transform="scale(0.015625)"/>
     </defs>
     <use xlink:href="#DejaVuSans-46"/>
     <use xlink:href="#DejaVuSans-6f" x="53.894531"/>
     <use xlink:href="#DejaVuSans-75" x="115.076172"/>
     <use xlink:href="#DejaVuSans-72" x="178.455078"/>
     <use xlink:href="#DejaVuSans-69" x="219.568359"/>
     <use xlink:href="#DejaVuSans-65" x="247.351562"/>
     <use xlink:href="#DejaVuSans-72" x="308.875"/>
     <use xlink:href="#DejaVuSans-20" x="349.988281"/>
     <use xlink:href="#DejaVuSans-70" x="381.775391"/>
     <use xlink:href="#DejaVuSans-72" x="445.251953"/>
     <use xlink:href="#DejaVuSans-6f" x="484.115234"/>
     <use xlink:href="#DejaVuSans-66" x="545.296875"/>
     <use xlink:href="#DejaVuSans-69" x="580.501953"/>
     <use xlink:href="#DejaVuSans-6c" x="608.285156"/>
     <use xlink:href="#DejaVuSans-65" x="636.068359"/>
     <use xlink:href="#DejaVuSans-20" x="697.591797"/>
     <use xlink:href="#DejaVuSans-56" x="729.378906"/>
     <use xlink:href="#DejaVuSans-3d" x="797.787109"/>
     <use xlink:href="#DejaVuSans-5b" x="881.576172"/>
     <use xlink:href="#DejaVuSans-35" x="920.589844"/>
     <use xlink:href="#DejaVuSans-38" x="984.212891"/>
     <use xlink:href="#DejaVuSans-20" x="1047.835938"/>
     <use xlink:href="#DejaVuSans-35" x="1079.623047"/>
     <use xlink:href="#DejaVuSans-38" x="1143.246094"/>
     <use xlink:href="#DejaVuSans-20" x="1206.869141"/>
     <use xlink:href="#DejaVuSans-38" x="1238.65625"/>
     <use xlink:href="#DejaVuSans-34" x="1302.279297"/>
     <use xlink:href="#DejaVuSans-20" x="1365.902344"/>
     <use xlink:href="#DejaVuSans-20" x="1397.689453"/>
     <use xlink:href="#DejaVuSans-36" x="1429.476562"/>
     <use xlink:href="#DejaVuSans-5d" x="1493.099609"/>
     <use xlink:href="#DejaVuSans-2c" x="1532.113281"/>
     <use xlink:href="#DejaVuSans-20" x="1563.900391"/>
     <use xlink:href="#DejaVuSans-62" x="1595.6875"/>
     <use xlink:href="#DejaVuSans-65" x="1659.164062"/>
     <use xlink:href="#DejaVuSans-74" x="1720.6875"/>
     <use xlink:href="#DejaVuSans-61" x="1759.896484"/>
     <use xlink:href="#DejaVuSans-3d" x="1821.175781"/>
     <use xlink:href="#DejaVuSans-31" x="1904.964844"/>
     <use xlink:href="#DejaVuSans-30" x="1968.587891"/>
     <use xlink:href="#DejaVuSans-30" x="2032.210938"/>
    </g>
   </g>
  </g>
 </g>
 <defs>
  <clipPath id="p847562cac1">
   <rect x="57.6" y="41.472" width="357.12" height="266.112"/>
  </clipPath>
 </defs>
</svg>
