<?xml version="1.0" encoding="utf-8" standalone="no"?>
<!DOCTYPE svg PUBLIC "-//W3C//DTD SVG 1.1//EN"
  "http://www.w3.org/Graphics/SVG/1.1/DTD/svg11.dtd">
<svg xmlns:xlink="http://www.w3.org/1999/xlink" width="465.530937pt" height="337.11pt" viewBox="0 0 465.530937 337.11" xmlns="http://www.w3.org/2000/svg" version="1.1">
 <metadata>
  <rdf:RDF xmlns:dc="http://purl.org/dc/elements/1.1/" xmlns:cc="http://creativecommons.org/ns#" xmlns:rdf="http://www.w3.org/1999/02/22-rdf-syntax-ns#">
   <cc:Work>
    <dc:type rdf:resource="http://purl.org/dc/dcmitype/StillImage"/>
    <dc:date>2024-05-07T16:39:09.484443</dc:date>
    <dc:format>image/svg+xml</dc:format>
    <dc:creator>
     <cc:Agent>
      <dc:title>Matplotlib v3.8.0, https://matplotlib.org/</dc:title>
     </cc:Agent>
    </dc:creator>
   </cc:Work>
  </rdf:RDF>
 </metadata>
 <defs>
  <style type="text/css">*{stroke-linejoin: round; stroke-linecap: butt}</style>
 </defs>
 <g id="figure_1">
  <g id="patch_1">
   <path d="M 0 337.11 
L 465.530937 337.11 
L 465.530937 0 
L 0 0 
z
" style="fill: #ffffff"/>
  </g>
  <g id="axes_1">
   <g id="patch_2">
    <path d="M 67.730938 284.4 
L 458.330938 284.4 
L 458.330938 7.2 
L 67.730938 7.2 
z
" style="fill: #ffffff"/>
   </g>
   <g id="matplotlib.axis_1">
    <g id="xtick_1">
     <g id="line2d_1">
      <defs>
       <path id="m049b4f8a49" d="M 0 0 
L 0 3.5 
" style="stroke: #000000; stroke-width: 0.8"/>
      </defs>
      <g>
       <use xlink:href="#m049b4f8a49" x="120.994574" y="284.4" style="stroke: #000000; stroke-width: 0.8"/>
      </g>
     </g>
     <g id="text_1">
      <!-- 10.76 -->
      <g transform="translate(105.249105 299.758281) scale(0.11 -0.11)">
       <defs>
        <path id="DejaVuSans-31" d="M 794 531 
L 1825 531 
L 1825 4091 
L 703 3866 
L 703 4441 
L 1819 4666 
L 2450 4666 
L 2450 531 
L 3481 531 
L 3481 0 
L 794 0 
L 794 531 
z
" transform="scale(0.015625)"/>
        <path id="DejaVuSans-30" d="M 2034 4250 
Q 1547 4250 1301 3770 
Q 1056 3291 1056 2328 
Q 1056 1369 1301 889 
Q 1547 409 2034 409 
Q 2525 409 2770 889 
Q 3016 1369 3016 2328 
Q 3016 3291 2770 3770 
Q 2525 4250 2034 4250 
z
M 2034 4750 
Q 2819 4750 3233 4129 
Q 3647 3509 3647 2328 
Q 3647 1150 3233 529 
Q 2819 -91 2034 -91 
Q 1250 -91 836 529 
Q 422 1150 422 2328 
Q 422 3509 836 4129 
Q 1250 4750 2034 4750 
z
" transform="scale(0.015625)"/>
        <path id="DejaVuSans-2e" d="M 684 794 
L 1344 794 
L 1344 0 
L 684 0 
L 684 794 
z
" transform="scale(0.015625)"/>
        <path id="DejaVuSans-37" d="M 525 4666 
L 3525 4666 
L 3525 4397 
L 1831 0 
L 1172 0 
L 2766 4134 
L 525 4134 
L 525 4666 
z
" transform="scale(0.015625)"/>
        <path id="DejaVuSans-36" d="M 2113 2584 
Q 1688 2584 1439 2293 
Q 1191 2003 1191 1497 
Q 1191 994 1439 701 
Q 1688 409 2113 409 
Q 2538 409 2786 701 
Q 3034 994 3034 1497 
Q 3034 2003 2786 2293 
Q 2538 2584 2113 2584 
z
M 3366 4563 
L 3366 3988 
Q 3128 4100 2886 4159 
Q 2644 4219 2406 4219 
Q 1781 4219 1451 3797 
Q 1122 3375 1075 2522 
Q 1259 2794 1537 2939 
Q 1816 3084 2150 3084 
Q 2853 3084 3261 2657 
Q 3669 2231 3669 1497 
Q 3669 778 3244 343 
Q 2819 -91 2113 -91 
Q 1303 -91 875 529 
Q 447 1150 447 2328 
Q 447 3434 972 4092 
Q 1497 4750 2381 4750 
Q 2619 4750 2861 4703 
Q 3103 4656 3366 4563 
z
" transform="scale(0.015625)"/>
       </defs>
       <use xlink:href="#DejaVuSans-31"/>
       <use xlink:href="#DejaVuSans-30" x="63.623047"/>
       <use xlink:href="#DejaVuSans-2e" x="127.246094"/>
       <use xlink:href="#DejaVuSans-37" x="159.033203"/>
       <use xlink:href="#DejaVuSans-36" x="222.65625"/>
      </g>
     </g>
    </g>
    <g id="xtick_2">
     <g id="line2d_2">
      <g>
       <use xlink:href="#m049b4f8a49" x="192.012756" y="284.4" style="stroke: #000000; stroke-width: 0.8"/>
      </g>
     </g>
     <g id="text_2">
      <!-- 10.78 -->
      <g transform="translate(176.267287 299.758281) scale(0.11 -0.11)">
       <defs>
        <path id="DejaVuSans-38" d="M 2034 2216 
Q 1584 2216 1326 1975 
Q 1069 1734 1069 1313 
Q 1069 891 1326 650 
Q 1584 409 2034 409 
Q 2484 409 2743 651 
Q 3003 894 3003 1313 
Q 3003 1734 2745 1975 
Q 2488 2216 2034 2216 
z
M 1403 2484 
Q 997 2584 770 2862 
Q 544 3141 544 3541 
Q 544 4100 942 4425 
Q 1341 4750 2034 4750 
Q 2731 4750 3128 4425 
Q 3525 4100 3525 3541 
Q 3525 3141 3298 2862 
Q 3072 2584 2669 2484 
Q 3125 2378 3379 2068 
Q 3634 1759 3634 1313 
Q 3634 634 3220 271 
Q 2806 -91 2034 -91 
Q 1263 -91 848 271 
Q 434 634 434 1313 
Q 434 1759 690 2068 
Q 947 2378 1403 2484 
z
M 1172 3481 
Q 1172 3119 1398 2916 
Q 1625 2713 2034 2713 
Q 2441 2713 2670 2916 
Q 2900 3119 2900 3481 
Q 2900 3844 2670 4047 
Q 2441 4250 2034 4250 
Q 1625 4250 1398 4047 
Q 1172 3844 1172 3481 
z
" transform="scale(0.015625)"/>
       </defs>
       <use xlink:href="#DejaVuSans-31"/>
       <use xlink:href="#DejaVuSans-30" x="63.623047"/>
       <use xlink:href="#DejaVuSans-2e" x="127.246094"/>
       <use xlink:href="#DejaVuSans-37" x="159.033203"/>
       <use xlink:href="#DejaVuSans-38" x="222.65625"/>
      </g>
     </g>
    </g>
    <g id="xtick_3">
     <g id="line2d_3">
      <g>
       <use xlink:href="#m049b4f8a49" x="263.030937" y="284.4" style="stroke: #000000; stroke-width: 0.8"/>
      </g>
     </g>
     <g id="text_3">
      <!-- 10.80 -->
      <g transform="translate(247.285469 299.758281) scale(0.11 -0.11)">
       <use xlink:href="#DejaVuSans-31"/>
       <use xlink:href="#DejaVuSans-30" x="63.623047"/>
       <use xlink:href="#DejaVuSans-2e" x="127.246094"/>
       <use xlink:href="#DejaVuSans-38" x="159.033203"/>
       <use xlink:href="#DejaVuSans-30" x="222.65625"/>
      </g>
     </g>
    </g>
    <g id="xtick_4">
     <g id="line2d_4">
      <g>
       <use xlink:href="#m049b4f8a49" x="334.049119" y="284.4" style="stroke: #000000; stroke-width: 0.8"/>
      </g>
     </g>
     <g id="text_4">
      <!-- 10.82 -->
      <g transform="translate(318.303651 299.758281) scale(0.11 -0.11)">
       <defs>
        <path id="DejaVuSans-32" d="M 1228 531 
L 3431 531 
L 3431 0 
L 469 0 
L 469 531 
Q 828 903 1448 1529 
Q 2069 2156 2228 2338 
Q 2531 2678 2651 2914 
Q 2772 3150 2772 3378 
Q 2772 3750 2511 3984 
Q 2250 4219 1831 4219 
Q 1534 4219 1204 4116 
Q 875 4013 500 3803 
L 500 4441 
Q 881 4594 1212 4672 
Q 1544 4750 1819 4750 
Q 2544 4750 2975 4387 
Q 3406 4025 3406 3419 
Q 3406 3131 3298 2873 
Q 3191 2616 2906 2266 
Q 2828 2175 2409 1742 
Q 1991 1309 1228 531 
z
" transform="scale(0.015625)"/>
       </defs>
       <use xlink:href="#DejaVuSans-31"/>
       <use xlink:href="#DejaVuSans-30" x="63.623047"/>
       <use xlink:href="#DejaVuSans-2e" x="127.246094"/>
       <use xlink:href="#DejaVuSans-38" x="159.033203"/>
       <use xlink:href="#DejaVuSans-32" x="222.65625"/>
      </g>
     </g>
    </g>
    <g id="xtick_5">
     <g id="line2d_5">
      <g>
       <use xlink:href="#m049b4f8a49" x="405.067301" y="284.4" style="stroke: #000000; stroke-width: 0.8"/>
      </g>
     </g>
     <g id="text_5">
      <!-- 10.84 -->
      <g transform="translate(389.321832 299.758281) scale(0.11 -0.11)">
       <defs>
        <path id="DejaVuSans-34" d="M 2419 4116 
L 825 1625 
L 2419 1625 
L 2419 4116 
z
M 2253 4666 
L 3047 4666 
L 3047 1625 
L 3713 1625 
L 3713 1100 
L 3047 1100 
L 3047 0 
L 2419 0 
L 2419 1100 
L 313 1100 
L 313 1709 
L 2253 4666 
z
" transform="scale(0.015625)"/>
       </defs>
       <use xlink:href="#DejaVuSans-31"/>
       <use xlink:href="#DejaVuSans-30" x="63.623047"/>
       <use xlink:href="#DejaVuSans-2e" x="127.246094"/>
       <use xlink:href="#DejaVuSans-38" x="159.033203"/>
       <use xlink:href="#DejaVuSans-34" x="222.65625"/>
      </g>
     </g>
    </g>
    <g id="text_6">
     <!-- $\beta$ -->
     <g transform="translate(259.510938 314.515937) scale(0.11 -0.11)">
      <defs>
       <path id="DejaVuSans-Oblique-3b2" d="M 872 216 
L 572 -1331 
L -6 -1331 
L 928 3478 
Q 1206 4903 2538 4903 
Q 3888 4903 3659 3700 
Q 3503 2844 2894 2531 
Q 3713 2250 3553 1416 
Q 3272 -69 1759 -66 
Q 1097 -63 872 216 
z
M 1019 966 
Q 1259 422 1875 425 
Q 2775 425 2966 1406 
Q 3138 2288 1675 2219 
L 1778 2750 
Q 2909 2731 3106 3750 
Q 3241 4438 2509 4434 
Q 1691 4434 1503 3459 
L 1019 966 
z
" transform="scale(0.015625)"/>
      </defs>
      <use xlink:href="#DejaVuSans-Oblique-3b2" transform="translate(0 0.390625)"/>
     </g>
    </g>
   </g>
   <g id="matplotlib.axis_2">
    <g id="ytick_1">
     <g id="line2d_6">
      <defs>
       <path id="m1d25f9f990" d="M 0 0 
L -3.5 0 
" style="stroke: #000000; stroke-width: 0.8"/>
      </defs>
      <g>
       <use xlink:href="#m1d25f9f990" x="67.730938" y="270.863303" style="stroke: #000000; stroke-width: 0.8"/>
      </g>
     </g>
     <g id="text_7">
      <!-- 0.000 -->
      <g transform="translate(29.24 275.042443) scale(0.11 -0.11)">
       <use xlink:href="#DejaVuSans-30"/>
       <use xlink:href="#DejaVuSans-2e" x="63.623047"/>
       <use xlink:href="#DejaVuSans-30" x="95.410156"/>
       <use xlink:href="#DejaVuSans-30" x="159.033203"/>
       <use xlink:href="#DejaVuSans-30" x="222.65625"/>
      </g>
     </g>
    </g>
    <g id="ytick_2">
     <g id="line2d_7">
      <g>
       <use xlink:href="#m1d25f9f990" x="67.730938" y="226.275829" style="stroke: #000000; stroke-width: 0.8"/>
      </g>
     </g>
     <g id="text_8">
      <!-- 0.005 -->
      <g transform="translate(29.24 230.45497) scale(0.11 -0.11)">
       <defs>
        <path id="DejaVuSans-35" d="M 691 4666 
L 3169 4666 
L 3169 4134 
L 1269 4134 
L 1269 2991 
Q 1406 3038 1543 3061 
Q 1681 3084 1819 3084 
Q 2600 3084 3056 2656 
Q 3513 2228 3513 1497 
Q 3513 744 3044 326 
Q 2575 -91 1722 -91 
Q 1428 -91 1123 -41 
Q 819 9 494 109 
L 494 744 
Q 775 591 1075 516 
Q 1375 441 1709 441 
Q 2250 441 2565 725 
Q 2881 1009 2881 1497 
Q 2881 1984 2565 2268 
Q 2250 2553 1709 2553 
Q 1456 2553 1204 2497 
Q 953 2441 691 2322 
L 691 4666 
z
" transform="scale(0.015625)"/>
       </defs>
       <use xlink:href="#DejaVuSans-30"/>
       <use xlink:href="#DejaVuSans-2e" x="63.623047"/>
       <use xlink:href="#DejaVuSans-30" x="95.410156"/>
       <use xlink:href="#DejaVuSans-30" x="159.033203"/>
       <use xlink:href="#DejaVuSans-35" x="222.65625"/>
      </g>
     </g>
    </g>
    <g id="ytick_3">
     <g id="line2d_8">
      <g>
       <use xlink:href="#m1d25f9f990" x="67.730938" y="181.688355" style="stroke: #000000; stroke-width: 0.8"/>
      </g>
     </g>
     <g id="text_9">
      <!-- 0.010 -->
      <g transform="translate(29.24 185.867496) scale(0.11 -0.11)">
       <use xlink:href="#DejaVuSans-30"/>
       <use xlink:href="#DejaVuSans-2e" x="63.623047"/>
       <use xlink:href="#DejaVuSans-30" x="95.410156"/>
       <use xlink:href="#DejaVuSans-31" x="159.033203"/>
       <use xlink:href="#DejaVuSans-30" x="222.65625"/>
      </g>
     </g>
    </g>
    <g id="ytick_4">
     <g id="line2d_9">
      <g>
       <use xlink:href="#m1d25f9f990" x="67.730938" y="137.100882" style="stroke: #000000; stroke-width: 0.8"/>
      </g>
     </g>
     <g id="text_10">
      <!-- 0.015 -->
      <g transform="translate(29.24 141.280022) scale(0.11 -0.11)">
       <use xlink:href="#DejaVuSans-30"/>
       <use xlink:href="#DejaVuSans-2e" x="63.623047"/>
       <use xlink:href="#DejaVuSans-30" x="95.410156"/>
       <use xlink:href="#DejaVuSans-31" x="159.033203"/>
       <use xlink:href="#DejaVuSans-35" x="222.65625"/>
      </g>
     </g>
    </g>
    <g id="ytick_5">
     <g id="line2d_10">
      <g>
       <use xlink:href="#m1d25f9f990" x="67.730938" y="92.513408" style="stroke: #000000; stroke-width: 0.8"/>
      </g>
     </g>
     <g id="text_11">
      <!-- 0.020 -->
      <g transform="translate(29.24 96.692549) scale(0.11 -0.11)">
       <use xlink:href="#DejaVuSans-30"/>
       <use xlink:href="#DejaVuSans-2e" x="63.623047"/>
       <use xlink:href="#DejaVuSans-30" x="95.410156"/>
       <use xlink:href="#DejaVuSans-32" x="159.033203"/>
       <use xlink:href="#DejaVuSans-30" x="222.65625"/>
      </g>
     </g>
    </g>
    <g id="ytick_6">
     <g id="line2d_11">
      <g>
       <use xlink:href="#m1d25f9f990" x="67.730938" y="47.925934" style="stroke: #000000; stroke-width: 0.8"/>
      </g>
     </g>
     <g id="text_12">
      <!-- 0.025 -->
      <g transform="translate(29.24 52.105075) scale(0.11 -0.11)">
       <use xlink:href="#DejaVuSans-30"/>
       <use xlink:href="#DejaVuSans-2e" x="63.623047"/>
       <use xlink:href="#DejaVuSans-30" x="95.410156"/>
       <use xlink:href="#DejaVuSans-32" x="159.033203"/>
       <use xlink:href="#DejaVuSans-35" x="222.65625"/>
      </g>
     </g>
    </g>
    <g id="text_13">
     <!-- $\frac{1}{A}\int d\beta \frac{1}{\beta}\langle S_{t} - S_{nt} \rangle $ -->
     <g transform="translate(19.08 187.105) rotate(-90) scale(0.11 -0.11)">
      <defs>
       <path id="DejaVuSans-Oblique-41" d="M 2356 4666 
L 3072 4666 
L 3938 0 
L 3278 0 
L 3084 1197 
L 984 1197 
L 325 0 
L -341 0 
L 2356 4666 
z
M 2584 4044 
L 1275 1722 
L 2988 1722 
L 2584 4044 
z
" transform="scale(0.015625)"/>
       <path id="DejaVuSansDisplay-222b" d="M 2134 5525 
Q 2172 6263 2528 6556 
Q 2884 6850 3218 6850 
Q 3553 6850 3833 6575 
Q 4113 6300 4200 5678 
L 3544 5613 
Q 3469 6188 3219 6188 
Q 2906 6188 2869 5413 
L 2581 -597 
Q 2547 -1334 2187 -1628 
Q 1828 -1922 1497 -1922 
Q 1163 -1922 883 -1647 
Q 603 -1372 516 -750 
L 1172 -684 
Q 1247 -1259 1497 -1259 
Q 1809 -1259 1847 -488 
L 2134 5525 
z
" transform="scale(0.015625)"/>
       <path id="DejaVuSans-Oblique-64" d="M 2675 525 
Q 2444 222 2128 65 
Q 1813 -91 1428 -91 
Q 903 -91 598 267 
Q 294 625 294 1247 
Q 294 1766 478 2236 
Q 663 2706 1013 3078 
Q 1244 3325 1534 3454 
Q 1825 3584 2144 3584 
Q 2481 3584 2739 3421 
Q 2997 3259 3138 2956 
L 3513 4863 
L 4091 4863 
L 3144 0 
L 2566 0 
L 2675 525 
z
M 891 1350 
Q 891 897 1095 644 
Q 1300 391 1663 391 
Q 1931 391 2161 520 
Q 2391 650 2566 903 
Q 2750 1166 2856 1509 
Q 2963 1853 2963 2188 
Q 2963 2622 2758 2865 
Q 2553 3109 2194 3109 
Q 1922 3109 1687 2981 
Q 1453 2853 1288 2613 
Q 1106 2353 998 2009 
Q 891 1666 891 1350 
z
" transform="scale(0.015625)"/>
       <path id="DejaVuSans-27e8" d="M 572 2006 
L 1453 4856 
L 1984 4856 
L 1103 2006 
L 1984 -844 
L 1453 -844 
L 572 2006 
z
" transform="scale(0.015625)"/>
       <path id="DejaVuSans-Oblique-53" d="M 3859 4513 
L 3738 3897 
Q 3422 4066 3111 4152 
Q 2800 4238 2509 4238 
Q 1944 4238 1609 3991 
Q 1275 3744 1275 3334 
Q 1275 3109 1398 2989 
Q 1522 2869 2034 2731 
L 2413 2638 
Q 3053 2472 3303 2217 
Q 3553 1963 3553 1503 
Q 3553 797 2998 353 
Q 2444 -91 1538 -91 
Q 1166 -91 791 -17 
Q 416 56 38 206 
L 166 856 
Q 513 641 861 531 
Q 1209 422 1556 422 
Q 2147 422 2503 684 
Q 2859 947 2859 1369 
Q 2859 1650 2717 1795 
Q 2575 1941 2106 2059 
L 1728 2156 
Q 1081 2325 845 2545 
Q 609 2766 609 3163 
Q 609 3859 1145 4304 
Q 1681 4750 2541 4750 
Q 2875 4750 3203 4690 
Q 3531 4631 3859 4513 
z
" transform="scale(0.015625)"/>
       <path id="DejaVuSans-Oblique-74" d="M 2706 3500 
L 2619 3053 
L 1472 3053 
L 1100 1153 
Q 1081 1047 1072 975 
Q 1063 903 1063 863 
Q 1063 663 1183 572 
Q 1303 481 1569 481 
L 2150 481 
L 2053 0 
L 1503 0 
Q 991 0 739 200 
Q 488 400 488 806 
Q 488 878 497 964 
Q 506 1050 525 1153 
L 897 3053 
L 409 3053 
L 500 3500 
L 978 3500 
L 1172 4494 
L 1747 4494 
L 1556 3500 
L 2706 3500 
z
" transform="scale(0.015625)"/>
       <path id="DejaVuSans-2212" d="M 678 2272 
L 4684 2272 
L 4684 1741 
L 678 1741 
L 678 2272 
z
" transform="scale(0.015625)"/>
       <path id="DejaVuSans-Oblique-6e" d="M 3566 2113 
L 3156 0 
L 2578 0 
L 2988 2091 
Q 3016 2238 3031 2350 
Q 3047 2463 3047 2528 
Q 3047 2791 2881 2937 
Q 2716 3084 2419 3084 
Q 1956 3084 1622 2776 
Q 1288 2469 1184 1941 
L 800 0 
L 225 0 
L 903 3500 
L 1478 3500 
L 1363 2950 
Q 1603 3253 1940 3418 
Q 2278 3584 2650 3584 
Q 3113 3584 3367 3334 
Q 3622 3084 3622 2631 
Q 3622 2519 3608 2391 
Q 3594 2263 3566 2113 
z
" transform="scale(0.015625)"/>
       <path id="DejaVuSans-27e9" d="M 1925 2006 
L 1044 -844 
L 513 -844 
L 1394 2006 
L 513 4856 
L 1044 4856 
L 1925 2006 
z
" transform="scale(0.015625)"/>
      </defs>
      <use xlink:href="#DejaVuSans-31" transform="translate(2 44.765625) scale(0.7)"/>
      <use xlink:href="#DejaVuSans-Oblique-41" transform="translate(0 -37.51875) scale(0.7)"/>
      <use xlink:href="#DejaVuSansDisplay-222b" transform="translate(60.385742 0.96875)"/>
      <use xlink:href="#DejaVuSans-Oblique-64" transform="translate(134.018555 0.96875)"/>
      <use xlink:href="#DejaVuSans-Oblique-3b2" transform="translate(197.495117 0.96875)"/>
      <use xlink:href="#DejaVuSans-31" transform="translate(261.313477 44.765625) scale(0.7)"/>
      <use xlink:href="#DejaVuSans-Oblique-3b2" transform="translate(261.313477 -40.110938) scale(0.7)"/>
      <use xlink:href="#DejaVuSans-27e8" transform="translate(318.486328 0.96875)"/>
      <use xlink:href="#DejaVuSans-Oblique-53" transform="translate(357.5 0.96875)"/>
      <use xlink:href="#DejaVuSans-Oblique-74" transform="translate(420.976562 -15.4375) scale(0.7)"/>
      <use xlink:href="#DejaVuSans-2212" transform="translate(470.639648 0.96875)"/>
      <use xlink:href="#DejaVuSans-Oblique-53" transform="translate(573.911133 0.96875)"/>
      <use xlink:href="#DejaVuSans-Oblique-6e" transform="translate(637.387695 -15.4375) scale(0.7)"/>
      <use xlink:href="#DejaVuSans-Oblique-74" transform="translate(681.75293 -15.4375) scale(0.7)"/>
      <use xlink:href="#DejaVuSans-27e9" transform="translate(711.933594 0.96875)"/>
      <path d="M 0 19.765625 
L 0 26.015625 
L 47.885742 26.015625 
L 47.885742 19.765625 
L 0 19.765625 
z
"/>
      <path d="M 261.313477 19.765625 
L 261.313477 26.015625 
L 305.986328 26.015625 
L 305.986328 19.765625 
L 261.313477 19.765625 
z
"/>
     </g>
    </g>
   </g>
   <g id="LineCollection_1">
    <path d="M 85.485483 270.863303 
L 85.485483 270.863303 
" clip-path="url(#p94f56abab2)" style="fill: none; stroke: #ff0000; stroke-width: 1.5"/>
    <path d="M 89.036392 270.932305 
L 89.036392 270.770499 
" clip-path="url(#p94f56abab2)" style="fill: none; stroke: #ff0000; stroke-width: 1.5"/>
    <path d="M 92.587301 270.996387 
L 92.587301 270.676171 
" clip-path="url(#p94f56abab2)" style="fill: none; stroke: #ff0000; stroke-width: 1.5"/>
    <path d="M 96.13821 271.058043 
L 96.13821 270.581717 
" clip-path="url(#p94f56abab2)" style="fill: none; stroke: #ff0000; stroke-width: 1.5"/>
    <path d="M 99.689119 271.1201 
L 99.689119 270.488464 
" clip-path="url(#p94f56abab2)" style="fill: none; stroke: #ff0000; stroke-width: 1.5"/>
    <path d="M 103.240028 271.185124 
L 103.240028 270.397475 
" clip-path="url(#p94f56abab2)" style="fill: none; stroke: #ff0000; stroke-width: 1.5"/>
    <path d="M 106.790938 271.254839 
L 106.790938 270.3094 
" clip-path="url(#p94f56abab2)" style="fill: none; stroke: #ff0000; stroke-width: 1.5"/>
    <path d="M 110.341847 271.3297 
L 110.341847 270.224385 
" clip-path="url(#p94f56abab2)" style="fill: none; stroke: #ff0000; stroke-width: 1.5"/>
    <path d="M 113.892756 271.408704 
L 113.892756 270.142054 
" clip-path="url(#p94f56abab2)" style="fill: none; stroke: #ff0000; stroke-width: 1.5"/>
    <path d="M 117.443665 271.489468 
L 117.443665 270.06153 
" clip-path="url(#p94f56abab2)" style="fill: none; stroke: #ff0000; stroke-width: 1.5"/>
    <path d="M 120.994574 271.568549 
L 120.994574 269.981479 
" clip-path="url(#p94f56abab2)" style="fill: none; stroke: #ff0000; stroke-width: 1.5"/>
    <path d="M 124.545483 271.641907 
L 124.545483 269.900174 
" clip-path="url(#p94f56abab2)" style="fill: none; stroke: #ff0000; stroke-width: 1.5"/>
    <path d="M 128.096392 271.705394 
L 128.096392 269.815552 
" clip-path="url(#p94f56abab2)" style="fill: none; stroke: #ff0000; stroke-width: 1.5"/>
    <path d="M 131.647301 271.755127 
L 131.647301 269.72525 
" clip-path="url(#p94f56abab2)" style="fill: none; stroke: #ff0000; stroke-width: 1.5"/>
    <path d="M 135.19821 271.787675 
L 135.19821 269.626628 
" clip-path="url(#p94f56abab2)" style="fill: none; stroke: #ff0000; stroke-width: 1.5"/>
    <path d="M 138.749119 271.8 
L 138.749119 269.516751 
" clip-path="url(#p94f56abab2)" style="fill: none; stroke: #ff0000; stroke-width: 1.5"/>
    <path d="M 142.300028 271.789176 
L 142.300028 269.392341 
" clip-path="url(#p94f56abab2)" style="fill: none; stroke: #ff0000; stroke-width: 1.5"/>
    <path d="M 145.850937 271.751951 
L 145.850937 269.249702 
" clip-path="url(#p94f56abab2)" style="fill: none; stroke: #ff0000; stroke-width: 1.5"/>
    <path d="M 149.401847 271.684259 
L 149.401847 269.084628 
" clip-path="url(#p94f56abab2)" style="fill: none; stroke: #ff0000; stroke-width: 1.5"/>
    <path d="M 152.952756 271.580813 
L 152.952756 268.892312 
" clip-path="url(#p94f56abab2)" style="fill: none; stroke: #ff0000; stroke-width: 1.5"/>
    <path d="M 156.503665 271.434873 
L 156.503665 268.667273 
" clip-path="url(#p94f56abab2)" style="fill: none; stroke: #ff0000; stroke-width: 1.5"/>
    <path d="M 160.054574 271.238261 
L 160.054574 268.403292 
" clip-path="url(#p94f56abab2)" style="fill: none; stroke: #ff0000; stroke-width: 1.5"/>
    <path d="M 163.605483 270.98164 
L 163.605483 268.093369 
" clip-path="url(#p94f56abab2)" style="fill: none; stroke: #ff0000; stroke-width: 1.5"/>
    <path d="M 167.156392 270.654984 
L 167.156392 267.729682 
" clip-path="url(#p94f56abab2)" style="fill: none; stroke: #ff0000; stroke-width: 1.5"/>
    <path d="M 170.707301 270.248144 
L 170.707301 267.303509 
" clip-path="url(#p94f56abab2)" style="fill: none; stroke: #ff0000; stroke-width: 1.5"/>
    <path d="M 174.25821 269.751363 
L 174.25821 266.805101 
" clip-path="url(#p94f56abab2)" style="fill: none; stroke: #ff0000; stroke-width: 1.5"/>
    <path d="M 177.809119 269.155611 
L 177.809119 266.223466 
" clip-path="url(#p94f56abab2)" style="fill: none; stroke: #ff0000; stroke-width: 1.5"/>
    <path d="M 181.360028 268.45264 
L 181.360028 265.546097 
" clip-path="url(#p94f56abab2)" style="fill: none; stroke: #ff0000; stroke-width: 1.5"/>
    <path d="M 184.910938 267.63471 
L 184.910938 264.758672 
" clip-path="url(#p94f56abab2)" style="fill: none; stroke: #ff0000; stroke-width: 1.5"/>
    <path d="M 188.461847 266.694028 
L 188.461847 263.844835 
" clip-path="url(#p94f56abab2)" style="fill: none; stroke: #ff0000; stroke-width: 1.5"/>
    <path d="M 192.012756 265.621988 
L 192.012756 262.786208 
" clip-path="url(#p94f56abab2)" style="fill: none; stroke: #ff0000; stroke-width: 1.5"/>
    <path d="M 195.563665 264.408373 
L 195.563665 261.562757 
" clip-path="url(#p94f56abab2)" style="fill: none; stroke: #ff0000; stroke-width: 1.5"/>
    <path d="M 199.114574 263.040769 
L 199.114574 260.153584 
" clip-path="url(#p94f56abab2)" style="fill: none; stroke: #ff0000; stroke-width: 1.5"/>
    <path d="M 202.665483 261.504473 
L 202.665483 258.53806 
" clip-path="url(#p94f56abab2)" style="fill: none; stroke: #ff0000; stroke-width: 1.5"/>
    <path d="M 206.216392 259.783174 
L 206.216392 256.69707 
" clip-path="url(#p94f56abab2)" style="fill: none; stroke: #ff0000; stroke-width: 1.5"/>
    <path d="M 209.767301 257.860444 
L 209.767301 254.614181 
" clip-path="url(#p94f56abab2)" style="fill: none; stroke: #ff0000; stroke-width: 1.5"/>
    <path d="M 213.31821 255.721779 
L 213.31821 252.276609 
" clip-path="url(#p94f56abab2)" style="fill: none; stroke: #ff0000; stroke-width: 1.5"/>
    <path d="M 216.869119 253.356636 
L 216.869119 249.676015 
" clip-path="url(#p94f56abab2)" style="fill: none; stroke: #ff0000; stroke-width: 1.5"/>
    <path d="M 220.420028 250.759936 
L 220.420028 246.809145 
" clip-path="url(#p94f56abab2)" style="fill: none; stroke: #ff0000; stroke-width: 1.5"/>
    <path d="M 223.970937 247.932624 
L 223.970937 243.678273 
" clip-path="url(#p94f56abab2)" style="fill: none; stroke: #ff0000; stroke-width: 1.5"/>
    <path d="M 227.521847 244.881245 
L 227.521847 240.291341 
" clip-path="url(#p94f56abab2)" style="fill: none; stroke: #ff0000; stroke-width: 1.5"/>
    <path d="M 231.072756 241.616744 
L 231.072756 236.66167 
" clip-path="url(#p94f56abab2)" style="fill: none; stroke: #ff0000; stroke-width: 1.5"/>
    <path d="M 234.623665 238.152888 
L 234.623665 232.80721 
" clip-path="url(#p94f56abab2)" style="fill: none; stroke: #ff0000; stroke-width: 1.5"/>
    <path d="M 238.174574 234.504728 
L 238.174574 228.749372 
" clip-path="url(#p94f56abab2)" style="fill: none; stroke: #ff0000; stroke-width: 1.5"/>
    <path d="M 241.725483 230.687374 
L 241.725483 224.511635 
" clip-path="url(#p94f56abab2)" style="fill: none; stroke: #ff0000; stroke-width: 1.5"/>
    <path d="M 245.276392 226.715221 
L 245.276392 220.118168 
" clip-path="url(#p94f56abab2)" style="fill: none; stroke: #ff0000; stroke-width: 1.5"/>
    <path d="M 248.827301 222.601605 
L 248.827301 215.592679 
" clip-path="url(#p94f56abab2)" style="fill: none; stroke: #ff0000; stroke-width: 1.5"/>
    <path d="M 252.37821 218.358831 
L 252.37821 210.957635 
" clip-path="url(#p94f56abab2)" style="fill: none; stroke: #ff0000; stroke-width: 1.5"/>
    <path d="M 255.929119 213.998478 
L 255.929119 206.233853 
" clip-path="url(#p94f56abab2)" style="fill: none; stroke: #ff0000; stroke-width: 1.5"/>
    <path d="M 259.480028 209.531881 
L 259.480028 201.440432 
" clip-path="url(#p94f56abab2)" style="fill: none; stroke: #ff0000; stroke-width: 1.5"/>
    <path d="M 263.030937 204.970701 
L 263.030937 196.594903 
" clip-path="url(#p94f56abab2)" style="fill: none; stroke: #ff0000; stroke-width: 1.5"/>
    <path d="M 266.581847 200.327469 
L 266.581847 191.713508 
" clip-path="url(#p94f56abab2)" style="fill: none; stroke: #ff0000; stroke-width: 1.5"/>
    <path d="M 270.132756 195.616029 
L 270.132756 186.811514 
" clip-path="url(#p94f56abab2)" style="fill: none; stroke: #ff0000; stroke-width: 1.5"/>
    <path d="M 273.683665 190.851778 
L 273.683665 181.903481 
" clip-path="url(#p94f56abab2)" style="fill: none; stroke: #ff0000; stroke-width: 1.5"/>
    <path d="M 277.234574 186.051679 
L 277.234574 177.003448 
" clip-path="url(#p94f56abab2)" style="fill: none; stroke: #ff0000; stroke-width: 1.5"/>
    <path d="M 280.785483 181.234016 
L 280.785483 172.125004 
" clip-path="url(#p94f56abab2)" style="fill: none; stroke: #ff0000; stroke-width: 1.5"/>
    <path d="M 284.336392 176.417926 
L 284.336392 167.281236 
" clip-path="url(#p94f56abab2)" style="fill: none; stroke: #ff0000; stroke-width: 1.5"/>
    <path d="M 287.887301 171.622765 
L 287.887301 162.484558 
" clip-path="url(#p94f56abab2)" style="fill: none; stroke: #ff0000; stroke-width: 1.5"/>
    <path d="M 291.43821 166.867384 
L 291.43821 157.746453 
" clip-path="url(#p94f56abab2)" style="fill: none; stroke: #ff0000; stroke-width: 1.5"/>
    <path d="M 294.989119 162.169403 
L 294.989119 153.077151 
" clip-path="url(#p94f56abab2)" style="fill: none; stroke: #ff0000; stroke-width: 1.5"/>
    <path d="M 298.540028 157.544546 
L 298.540028 148.485313 
" clip-path="url(#p94f56abab2)" style="fill: none; stroke: #ff0000; stroke-width: 1.5"/>
    <path d="M 302.090937 153.006101 
L 302.090937 143.977769 
" clip-path="url(#p94f56abab2)" style="fill: none; stroke: #ff0000; stroke-width: 1.5"/>
    <path d="M 305.641847 148.564545 
L 305.641847 139.559362 
" clip-path="url(#p94f56abab2)" style="fill: none; stroke: #ff0000; stroke-width: 1.5"/>
    <path d="M 309.192756 144.227342 
L 309.192756 135.232938 
" clip-path="url(#p94f56abab2)" style="fill: none; stroke: #ff0000; stroke-width: 1.5"/>
    <path d="M 312.743665 139.998941 
L 312.743665 130.999481 
" clip-path="url(#p94f56abab2)" style="fill: none; stroke: #ff0000; stroke-width: 1.5"/>
    <path d="M 316.294574 135.880941 
L 316.294574 126.858372 
" clip-path="url(#p94f56abab2)" style="fill: none; stroke: #ff0000; stroke-width: 1.5"/>
    <path d="M 319.845483 131.872421 
L 319.845483 122.807721 
" clip-path="url(#p94f56abab2)" style="fill: none; stroke: #ff0000; stroke-width: 1.5"/>
    <path d="M 323.396392 127.970376 
L 323.396392 118.844737 
" clip-path="url(#p94f56abab2)" style="fill: none; stroke: #ff0000; stroke-width: 1.5"/>
    <path d="M 326.947301 124.170202 
L 326.947301 114.966072 
" clip-path="url(#p94f56abab2)" style="fill: none; stroke: #ff0000; stroke-width: 1.5"/>
    <path d="M 330.49821 120.46616 
L 330.49821 111.168121 
" clip-path="url(#p94f56abab2)" style="fill: none; stroke: #ff0000; stroke-width: 1.5"/>
    <path d="M 334.049119 116.85177 
L 334.049119 107.447272 
" clip-path="url(#p94f56abab2)" style="fill: none; stroke: #ff0000; stroke-width: 1.5"/>
    <path d="M 337.600028 113.320087 
L 337.600028 103.800079 
" clip-path="url(#p94f56abab2)" style="fill: none; stroke: #ff0000; stroke-width: 1.5"/>
    <path d="M 341.150937 109.863881 
L 341.150937 100.223381 
" clip-path="url(#p94f56abab2)" style="fill: none; stroke: #ff0000; stroke-width: 1.5"/>
    <path d="M 344.701847 106.47574 
L 344.701847 96.714359 
" clip-path="url(#p94f56abab2)" style="fill: none; stroke: #ff0000; stroke-width: 1.5"/>
    <path d="M 348.252756 103.148164 
L 348.252756 93.270535 
" clip-path="url(#p94f56abab2)" style="fill: none; stroke: #ff0000; stroke-width: 1.5"/>
    <path d="M 351.803665 99.873695 
L 351.803665 89.88972 
" clip-path="url(#p94f56abab2)" style="fill: none; stroke: #ff0000; stroke-width: 1.5"/>
    <path d="M 355.354574 96.645128 
L 355.354574 86.56993 
" clip-path="url(#p94f56abab2)" style="fill: none; stroke: #ff0000; stroke-width: 1.5"/>
    <path d="M 358.905483 93.455809 
L 358.905483 83.30927 
" clip-path="url(#p94f56abab2)" style="fill: none; stroke: #ff0000; stroke-width: 1.5"/>
    <path d="M 362.456392 90.299986 
L 362.456392 80.105825 
" clip-path="url(#p94f56abab2)" style="fill: none; stroke: #ff0000; stroke-width: 1.5"/>
    <path d="M 366.007301 87.173172 
L 366.007301 76.957565 
" clip-path="url(#p94f56abab2)" style="fill: none; stroke: #ff0000; stroke-width: 1.5"/>
    <path d="M 369.55821 84.072439 
L 369.55821 73.862277 
" clip-path="url(#p94f56abab2)" style="fill: none; stroke: #ff0000; stroke-width: 1.5"/>
    <path d="M 373.109119 80.996593 
L 373.109119 70.817547 
" clip-path="url(#p94f56abab2)" style="fill: none; stroke: #ff0000; stroke-width: 1.5"/>
    <path d="M 376.660028 77.94616 
L 376.660028 67.820779 
" clip-path="url(#p94f56abab2)" style="fill: none; stroke: #ff0000; stroke-width: 1.5"/>
    <path d="M 380.210938 74.923192 
L 380.210938 64.86927 
" clip-path="url(#p94f56abab2)" style="fill: none; stroke: #ff0000; stroke-width: 1.5"/>
    <path d="M 383.761847 71.930895 
L 383.761847 61.960294 
" clip-path="url(#p94f56abab2)" style="fill: none; stroke: #ff0000; stroke-width: 1.5"/>
    <path d="M 387.312756 68.973133 
L 387.312756 59.091215 
" clip-path="url(#p94f56abab2)" style="fill: none; stroke: #ff0000; stroke-width: 1.5"/>
    <path d="M 390.863665 66.053877 
L 390.863665 56.259582 
" clip-path="url(#p94f56abab2)" style="fill: none; stroke: #ff0000; stroke-width: 1.5"/>
    <path d="M 394.414574 63.17669 
L 394.414574 53.463208 
" clip-path="url(#p94f56abab2)" style="fill: none; stroke: #ff0000; stroke-width: 1.5"/>
    <path d="M 397.965483 60.344295 
L 397.965483 50.700216 
" clip-path="url(#p94f56abab2)" style="fill: none; stroke: #ff0000; stroke-width: 1.5"/>
    <path d="M 401.516392 57.558296 
L 401.516392 47.96904 
" clip-path="url(#p94f56abab2)" style="fill: none; stroke: #ff0000; stroke-width: 1.5"/>
    <path d="M 405.067301 54.819066 
L 405.067301 45.268414 
" clip-path="url(#p94f56abab2)" style="fill: none; stroke: #ff0000; stroke-width: 1.5"/>
    <path d="M 408.61821 52.125792 
L 408.61821 42.597328 
" clip-path="url(#p94f56abab2)" style="fill: none; stroke: #ff0000; stroke-width: 1.5"/>
    <path d="M 412.169119 49.476668 
L 412.169119 39.954985 
" clip-path="url(#p94f56abab2)" style="fill: none; stroke: #ff0000; stroke-width: 1.5"/>
    <path d="M 415.720028 46.869172 
L 415.720028 37.340763 
" clip-path="url(#p94f56abab2)" style="fill: none; stroke: #ff0000; stroke-width: 1.5"/>
    <path d="M 419.270937 44.300397 
L 419.270937 34.754177 
" clip-path="url(#p94f56abab2)" style="fill: none; stroke: #ff0000; stroke-width: 1.5"/>
    <path d="M 422.821847 41.767389 
L 422.821847 32.19486 
" clip-path="url(#p94f56abab2)" style="fill: none; stroke: #ff0000; stroke-width: 1.5"/>
    <path d="M 426.372756 39.267432 
L 426.372756 29.662543 
" clip-path="url(#p94f56abab2)" style="fill: none; stroke: #ff0000; stroke-width: 1.5"/>
    <path d="M 429.923665 36.79827 
L 429.923665 27.157033 
" clip-path="url(#p94f56abab2)" style="fill: none; stroke: #ff0000; stroke-width: 1.5"/>
    <path d="M 433.474574 34.358225 
L 433.474574 24.678189 
" clip-path="url(#p94f56abab2)" style="fill: none; stroke: #ff0000; stroke-width: 1.5"/>
    <path d="M 437.025483 31.946214 
L 437.025483 22.225894 
" clip-path="url(#p94f56abab2)" style="fill: none; stroke: #ff0000; stroke-width: 1.5"/>
    <path d="M 440.576392 29.56166 
L 440.576392 19.8 
" clip-path="url(#p94f56abab2)" style="fill: none; stroke: #ff0000; stroke-width: 1.5"/>
   </g>
   <g id="line2d_12">
    <defs>
     <path id="m8f0279c5ad" d="M 1 0 
L -1 -0 
" style="stroke: #ff0000"/>
    </defs>
    <g clip-path="url(#p94f56abab2)">
     <use xlink:href="#m8f0279c5ad" x="85.485483" y="270.863303" style="fill: #ff0000; stroke: #ff0000"/>
     <use xlink:href="#m8f0279c5ad" x="89.036392" y="270.932305" style="fill: #ff0000; stroke: #ff0000"/>
     <use xlink:href="#m8f0279c5ad" x="92.587301" y="270.996387" style="fill: #ff0000; stroke: #ff0000"/>
     <use xlink:href="#m8f0279c5ad" x="96.13821" y="271.058043" style="fill: #ff0000; stroke: #ff0000"/>
     <use xlink:href="#m8f0279c5ad" x="99.689119" y="271.1201" style="fill: #ff0000; stroke: #ff0000"/>
     <use xlink:href="#m8f0279c5ad" x="103.240028" y="271.185124" style="fill: #ff0000; stroke: #ff0000"/>
     <use xlink:href="#m8f0279c5ad" x="106.790938" y="271.254839" style="fill: #ff0000; stroke: #ff0000"/>
     <use xlink:href="#m8f0279c5ad" x="110.341847" y="271.3297" style="fill: #ff0000; stroke: #ff0000"/>
     <use xlink:href="#m8f0279c5ad" x="113.892756" y="271.408704" style="fill: #ff0000; stroke: #ff0000"/>
     <use xlink:href="#m8f0279c5ad" x="117.443665" y="271.489468" style="fill: #ff0000; stroke: #ff0000"/>
     <use xlink:href="#m8f0279c5ad" x="120.994574" y="271.568549" style="fill: #ff0000; stroke: #ff0000"/>
     <use xlink:href="#m8f0279c5ad" x="124.545483" y="271.641907" style="fill: #ff0000; stroke: #ff0000"/>
     <use xlink:href="#m8f0279c5ad" x="128.096392" y="271.705394" style="fill: #ff0000; stroke: #ff0000"/>
     <use xlink:href="#m8f0279c5ad" x="131.647301" y="271.755127" style="fill: #ff0000; stroke: #ff0000"/>
     <use xlink:href="#m8f0279c5ad" x="135.19821" y="271.787675" style="fill: #ff0000; stroke: #ff0000"/>
     <use xlink:href="#m8f0279c5ad" x="138.749119" y="271.8" style="fill: #ff0000; stroke: #ff0000"/>
     <use xlink:href="#m8f0279c5ad" x="142.300028" y="271.789176" style="fill: #ff0000; stroke: #ff0000"/>
     <use xlink:href="#m8f0279c5ad" x="145.850937" y="271.751951" style="fill: #ff0000; stroke: #ff0000"/>
     <use xlink:href="#m8f0279c5ad" x="149.401847" y="271.684259" style="fill: #ff0000; stroke: #ff0000"/>
     <use xlink:href="#m8f0279c5ad" x="152.952756" y="271.580813" style="fill: #ff0000; stroke: #ff0000"/>
     <use xlink:href="#m8f0279c5ad" x="156.503665" y="271.434873" style="fill: #ff0000; stroke: #ff0000"/>
     <use xlink:href="#m8f0279c5ad" x="160.054574" y="271.238261" style="fill: #ff0000; stroke: #ff0000"/>
     <use xlink:href="#m8f0279c5ad" x="163.605483" y="270.98164" style="fill: #ff0000; stroke: #ff0000"/>
     <use xlink:href="#m8f0279c5ad" x="167.156392" y="270.654984" style="fill: #ff0000; stroke: #ff0000"/>
     <use xlink:href="#m8f0279c5ad" x="170.707301" y="270.248144" style="fill: #ff0000; stroke: #ff0000"/>
     <use xlink:href="#m8f0279c5ad" x="174.25821" y="269.751363" style="fill: #ff0000; stroke: #ff0000"/>
     <use xlink:href="#m8f0279c5ad" x="177.809119" y="269.155611" style="fill: #ff0000; stroke: #ff0000"/>
     <use xlink:href="#m8f0279c5ad" x="181.360028" y="268.45264" style="fill: #ff0000; stroke: #ff0000"/>
     <use xlink:href="#m8f0279c5ad" x="184.910938" y="267.63471" style="fill: #ff0000; stroke: #ff0000"/>
     <use xlink:href="#m8f0279c5ad" x="188.461847" y="266.694028" style="fill: #ff0000; stroke: #ff0000"/>
     <use xlink:href="#m8f0279c5ad" x="192.012756" y="265.621988" style="fill: #ff0000; stroke: #ff0000"/>
     <use xlink:href="#m8f0279c5ad" x="195.563665" y="264.408373" style="fill: #ff0000; stroke: #ff0000"/>
     <use xlink:href="#m8f0279c5ad" x="199.114574" y="263.040769" style="fill: #ff0000; stroke: #ff0000"/>
     <use xlink:href="#m8f0279c5ad" x="202.665483" y="261.504473" style="fill: #ff0000; stroke: #ff0000"/>
     <use xlink:href="#m8f0279c5ad" x="206.216392" y="259.783174" style="fill: #ff0000; stroke: #ff0000"/>
     <use xlink:href="#m8f0279c5ad" x="209.767301" y="257.860444" style="fill: #ff0000; stroke: #ff0000"/>
     <use xlink:href="#m8f0279c5ad" x="213.31821" y="255.721779" style="fill: #ff0000; stroke: #ff0000"/>
     <use xlink:href="#m8f0279c5ad" x="216.869119" y="253.356636" style="fill: #ff0000; stroke: #ff0000"/>
     <use xlink:href="#m8f0279c5ad" x="220.420028" y="250.759936" style="fill: #ff0000; stroke: #ff0000"/>
     <use xlink:href="#m8f0279c5ad" x="223.970937" y="247.932624" style="fill: #ff0000; stroke: #ff0000"/>
     <use xlink:href="#m8f0279c5ad" x="227.521847" y="244.881245" style="fill: #ff0000; stroke: #ff0000"/>
     <use xlink:href="#m8f0279c5ad" x="231.072756" y="241.616744" style="fill: #ff0000; stroke: #ff0000"/>
     <use xlink:href="#m8f0279c5ad" x="234.623665" y="238.152888" style="fill: #ff0000; stroke: #ff0000"/>
     <use xlink:href="#m8f0279c5ad" x="238.174574" y="234.504728" style="fill: #ff0000; stroke: #ff0000"/>
     <use xlink:href="#m8f0279c5ad" x="241.725483" y="230.687374" style="fill: #ff0000; stroke: #ff0000"/>
     <use xlink:href="#m8f0279c5ad" x="245.276392" y="226.715221" style="fill: #ff0000; stroke: #ff0000"/>
     <use xlink:href="#m8f0279c5ad" x="248.827301" y="222.601605" style="fill: #ff0000; stroke: #ff0000"/>
     <use xlink:href="#m8f0279c5ad" x="252.37821" y="218.358831" style="fill: #ff0000; stroke: #ff0000"/>
     <use xlink:href="#m8f0279c5ad" x="255.929119" y="213.998478" style="fill: #ff0000; stroke: #ff0000"/>
     <use xlink:href="#m8f0279c5ad" x="259.480028" y="209.531881" style="fill: #ff0000; stroke: #ff0000"/>
     <use xlink:href="#m8f0279c5ad" x="263.030937" y="204.970701" style="fill: #ff0000; stroke: #ff0000"/>
     <use xlink:href="#m8f0279c5ad" x="266.581847" y="200.327469" style="fill: #ff0000; stroke: #ff0000"/>
     <use xlink:href="#m8f0279c5ad" x="270.132756" y="195.616029" style="fill: #ff0000; stroke: #ff0000"/>
     <use xlink:href="#m8f0279c5ad" x="273.683665" y="190.851778" style="fill: #ff0000; stroke: #ff0000"/>
     <use xlink:href="#m8f0279c5ad" x="277.234574" y="186.051679" style="fill: #ff0000; stroke: #ff0000"/>
     <use xlink:href="#m8f0279c5ad" x="280.785483" y="181.234016" style="fill: #ff0000; stroke: #ff0000"/>
     <use xlink:href="#m8f0279c5ad" x="284.336392" y="176.417926" style="fill: #ff0000; stroke: #ff0000"/>
     <use xlink:href="#m8f0279c5ad" x="287.887301" y="171.622765" style="fill: #ff0000; stroke: #ff0000"/>
     <use xlink:href="#m8f0279c5ad" x="291.43821" y="166.867384" style="fill: #ff0000; stroke: #ff0000"/>
     <use xlink:href="#m8f0279c5ad" x="294.989119" y="162.169403" style="fill: #ff0000; stroke: #ff0000"/>
     <use xlink:href="#m8f0279c5ad" x="298.540028" y="157.544546" style="fill: #ff0000; stroke: #ff0000"/>
     <use xlink:href="#m8f0279c5ad" x="302.090937" y="153.006101" style="fill: #ff0000; stroke: #ff0000"/>
     <use xlink:href="#m8f0279c5ad" x="305.641847" y="148.564545" style="fill: #ff0000; stroke: #ff0000"/>
     <use xlink:href="#m8f0279c5ad" x="309.192756" y="144.227342" style="fill: #ff0000; stroke: #ff0000"/>
     <use xlink:href="#m8f0279c5ad" x="312.743665" y="139.998941" style="fill: #ff0000; stroke: #ff0000"/>
     <use xlink:href="#m8f0279c5ad" x="316.294574" y="135.880941" style="fill: #ff0000; stroke: #ff0000"/>
     <use xlink:href="#m8f0279c5ad" x="319.845483" y="131.872421" style="fill: #ff0000; stroke: #ff0000"/>
     <use xlink:href="#m8f0279c5ad" x="323.396392" y="127.970376" style="fill: #ff0000; stroke: #ff0000"/>
     <use xlink:href="#m8f0279c5ad" x="326.947301" y="124.170202" style="fill: #ff0000; stroke: #ff0000"/>
     <use xlink:href="#m8f0279c5ad" x="330.49821" y="120.46616" style="fill: #ff0000; stroke: #ff0000"/>
     <use xlink:href="#m8f0279c5ad" x="334.049119" y="116.85177" style="fill: #ff0000; stroke: #ff0000"/>
     <use xlink:href="#m8f0279c5ad" x="337.600028" y="113.320087" style="fill: #ff0000; stroke: #ff0000"/>
     <use xlink:href="#m8f0279c5ad" x="341.150937" y="109.863881" style="fill: #ff0000; stroke: #ff0000"/>
     <use xlink:href="#m8f0279c5ad" x="344.701847" y="106.47574" style="fill: #ff0000; stroke: #ff0000"/>
     <use xlink:href="#m8f0279c5ad" x="348.252756" y="103.148164" style="fill: #ff0000; stroke: #ff0000"/>
     <use xlink:href="#m8f0279c5ad" x="351.803665" y="99.873695" style="fill: #ff0000; stroke: #ff0000"/>
     <use xlink:href="#m8f0279c5ad" x="355.354574" y="96.645128" style="fill: #ff0000; stroke: #ff0000"/>
     <use xlink:href="#m8f0279c5ad" x="358.905483" y="93.455809" style="fill: #ff0000; stroke: #ff0000"/>
     <use xlink:href="#m8f0279c5ad" x="362.456392" y="90.299986" style="fill: #ff0000; stroke: #ff0000"/>
     <use xlink:href="#m8f0279c5ad" x="366.007301" y="87.173172" style="fill: #ff0000; stroke: #ff0000"/>
     <use xlink:href="#m8f0279c5ad" x="369.55821" y="84.072439" style="fill: #ff0000; stroke: #ff0000"/>
     <use xlink:href="#m8f0279c5ad" x="373.109119" y="80.996593" style="fill: #ff0000; stroke: #ff0000"/>
     <use xlink:href="#m8f0279c5ad" x="376.660028" y="77.94616" style="fill: #ff0000; stroke: #ff0000"/>
     <use xlink:href="#m8f0279c5ad" x="380.210938" y="74.923192" style="fill: #ff0000; stroke: #ff0000"/>
     <use xlink:href="#m8f0279c5ad" x="383.761847" y="71.930895" style="fill: #ff0000; stroke: #ff0000"/>
     <use xlink:href="#m8f0279c5ad" x="387.312756" y="68.973133" style="fill: #ff0000; stroke: #ff0000"/>
     <use xlink:href="#m8f0279c5ad" x="390.863665" y="66.053877" style="fill: #ff0000; stroke: #ff0000"/>
     <use xlink:href="#m8f0279c5ad" x="394.414574" y="63.17669" style="fill: #ff0000; stroke: #ff0000"/>
     <use xlink:href="#m8f0279c5ad" x="397.965483" y="60.344295" style="fill: #ff0000; stroke: #ff0000"/>
     <use xlink:href="#m8f0279c5ad" x="401.516392" y="57.558296" style="fill: #ff0000; stroke: #ff0000"/>
     <use xlink:href="#m8f0279c5ad" x="405.067301" y="54.819066" style="fill: #ff0000; stroke: #ff0000"/>
     <use xlink:href="#m8f0279c5ad" x="408.61821" y="52.125792" style="fill: #ff0000; stroke: #ff0000"/>
     <use xlink:href="#m8f0279c5ad" x="412.169119" y="49.476668" style="fill: #ff0000; stroke: #ff0000"/>
     <use xlink:href="#m8f0279c5ad" x="415.720028" y="46.869172" style="fill: #ff0000; stroke: #ff0000"/>
     <use xlink:href="#m8f0279c5ad" x="419.270937" y="44.300397" style="fill: #ff0000; stroke: #ff0000"/>
     <use xlink:href="#m8f0279c5ad" x="422.821847" y="41.767389" style="fill: #ff0000; stroke: #ff0000"/>
     <use xlink:href="#m8f0279c5ad" x="426.372756" y="39.267432" style="fill: #ff0000; stroke: #ff0000"/>
     <use xlink:href="#m8f0279c5ad" x="429.923665" y="36.79827" style="fill: #ff0000; stroke: #ff0000"/>
     <use xlink:href="#m8f0279c5ad" x="433.474574" y="34.358225" style="fill: #ff0000; stroke: #ff0000"/>
     <use xlink:href="#m8f0279c5ad" x="437.025483" y="31.946214" style="fill: #ff0000; stroke: #ff0000"/>
     <use xlink:href="#m8f0279c5ad" x="440.576392" y="29.56166" style="fill: #ff0000; stroke: #ff0000"/>
    </g>
   </g>
   <g id="line2d_13">
    <g clip-path="url(#p94f56abab2)">
     <use xlink:href="#m8f0279c5ad" x="85.485483" y="270.863303" style="fill: #ff0000; stroke: #ff0000"/>
     <use xlink:href="#m8f0279c5ad" x="89.036392" y="270.770499" style="fill: #ff0000; stroke: #ff0000"/>
     <use xlink:href="#m8f0279c5ad" x="92.587301" y="270.676171" style="fill: #ff0000; stroke: #ff0000"/>
     <use xlink:href="#m8f0279c5ad" x="96.13821" y="270.581717" style="fill: #ff0000; stroke: #ff0000"/>
     <use xlink:href="#m8f0279c5ad" x="99.689119" y="270.488464" style="fill: #ff0000; stroke: #ff0000"/>
     <use xlink:href="#m8f0279c5ad" x="103.240028" y="270.397475" style="fill: #ff0000; stroke: #ff0000"/>
     <use xlink:href="#m8f0279c5ad" x="106.790938" y="270.3094" style="fill: #ff0000; stroke: #ff0000"/>
     <use xlink:href="#m8f0279c5ad" x="110.341847" y="270.224385" style="fill: #ff0000; stroke: #ff0000"/>
     <use xlink:href="#m8f0279c5ad" x="113.892756" y="270.142054" style="fill: #ff0000; stroke: #ff0000"/>
     <use xlink:href="#m8f0279c5ad" x="117.443665" y="270.06153" style="fill: #ff0000; stroke: #ff0000"/>
     <use xlink:href="#m8f0279c5ad" x="120.994574" y="269.981479" style="fill: #ff0000; stroke: #ff0000"/>
     <use xlink:href="#m8f0279c5ad" x="124.545483" y="269.900174" style="fill: #ff0000; stroke: #ff0000"/>
     <use xlink:href="#m8f0279c5ad" x="128.096392" y="269.815552" style="fill: #ff0000; stroke: #ff0000"/>
     <use xlink:href="#m8f0279c5ad" x="131.647301" y="269.72525" style="fill: #ff0000; stroke: #ff0000"/>
     <use xlink:href="#m8f0279c5ad" x="135.19821" y="269.626628" style="fill: #ff0000; stroke: #ff0000"/>
     <use xlink:href="#m8f0279c5ad" x="138.749119" y="269.516751" style="fill: #ff0000; stroke: #ff0000"/>
     <use xlink:href="#m8f0279c5ad" x="142.300028" y="269.392341" style="fill: #ff0000; stroke: #ff0000"/>
     <use xlink:href="#m8f0279c5ad" x="145.850937" y="269.249702" style="fill: #ff0000; stroke: #ff0000"/>
     <use xlink:href="#m8f0279c5ad" x="149.401847" y="269.084628" style="fill: #ff0000; stroke: #ff0000"/>
     <use xlink:href="#m8f0279c5ad" x="152.952756" y="268.892312" style="fill: #ff0000; stroke: #ff0000"/>
     <use xlink:href="#m8f0279c5ad" x="156.503665" y="268.667273" style="fill: #ff0000; stroke: #ff0000"/>
     <use xlink:href="#m8f0279c5ad" x="160.054574" y="268.403292" style="fill: #ff0000; stroke: #ff0000"/>
     <use xlink:href="#m8f0279c5ad" x="163.605483" y="268.093369" style="fill: #ff0000; stroke: #ff0000"/>
     <use xlink:href="#m8f0279c5ad" x="167.156392" y="267.729682" style="fill: #ff0000; stroke: #ff0000"/>
     <use xlink:href="#m8f0279c5ad" x="170.707301" y="267.303509" style="fill: #ff0000; stroke: #ff0000"/>
     <use xlink:href="#m8f0279c5ad" x="174.25821" y="266.805101" style="fill: #ff0000; stroke: #ff0000"/>
     <use xlink:href="#m8f0279c5ad" x="177.809119" y="266.223466" style="fill: #ff0000; stroke: #ff0000"/>
     <use xlink:href="#m8f0279c5ad" x="181.360028" y="265.546097" style="fill: #ff0000; stroke: #ff0000"/>
     <use xlink:href="#m8f0279c5ad" x="184.910938" y="264.758672" style="fill: #ff0000; stroke: #ff0000"/>
     <use xlink:href="#m8f0279c5ad" x="188.461847" y="263.844835" style="fill: #ff0000; stroke: #ff0000"/>
     <use xlink:href="#m8f0279c5ad" x="192.012756" y="262.786208" style="fill: #ff0000; stroke: #ff0000"/>
     <use xlink:href="#m8f0279c5ad" x="195.563665" y="261.562757" style="fill: #ff0000; stroke: #ff0000"/>
     <use xlink:href="#m8f0279c5ad" x="199.114574" y="260.153584" style="fill: #ff0000; stroke: #ff0000"/>
     <use xlink:href="#m8f0279c5ad" x="202.665483" y="258.53806" style="fill: #ff0000; stroke: #ff0000"/>
     <use xlink:href="#m8f0279c5ad" x="206.216392" y="256.69707" style="fill: #ff0000; stroke: #ff0000"/>
     <use xlink:href="#m8f0279c5ad" x="209.767301" y="254.614181" style="fill: #ff0000; stroke: #ff0000"/>
     <use xlink:href="#m8f0279c5ad" x="213.31821" y="252.276609" style="fill: #ff0000; stroke: #ff0000"/>
     <use xlink:href="#m8f0279c5ad" x="216.869119" y="249.676015" style="fill: #ff0000; stroke: #ff0000"/>
     <use xlink:href="#m8f0279c5ad" x="220.420028" y="246.809145" style="fill: #ff0000; stroke: #ff0000"/>
     <use xlink:href="#m8f0279c5ad" x="223.970937" y="243.678273" style="fill: #ff0000; stroke: #ff0000"/>
     <use xlink:href="#m8f0279c5ad" x="227.521847" y="240.291341" style="fill: #ff0000; stroke: #ff0000"/>
     <use xlink:href="#m8f0279c5ad" x="231.072756" y="236.66167" style="fill: #ff0000; stroke: #ff0000"/>
     <use xlink:href="#m8f0279c5ad" x="234.623665" y="232.80721" style="fill: #ff0000; stroke: #ff0000"/>
     <use xlink:href="#m8f0279c5ad" x="238.174574" y="228.749372" style="fill: #ff0000; stroke: #ff0000"/>
     <use xlink:href="#m8f0279c5ad" x="241.725483" y="224.511635" style="fill: #ff0000; stroke: #ff0000"/>
     <use xlink:href="#m8f0279c5ad" x="245.276392" y="220.118168" style="fill: #ff0000; stroke: #ff0000"/>
     <use xlink:href="#m8f0279c5ad" x="248.827301" y="215.592679" style="fill: #ff0000; stroke: #ff0000"/>
     <use xlink:href="#m8f0279c5ad" x="252.37821" y="210.957635" style="fill: #ff0000; stroke: #ff0000"/>
     <use xlink:href="#m8f0279c5ad" x="255.929119" y="206.233853" style="fill: #ff0000; stroke: #ff0000"/>
     <use xlink:href="#m8f0279c5ad" x="259.480028" y="201.440432" style="fill: #ff0000; stroke: #ff0000"/>
     <use xlink:href="#m8f0279c5ad" x="263.030937" y="196.594903" style="fill: #ff0000; stroke: #ff0000"/>
     <use xlink:href="#m8f0279c5ad" x="266.581847" y="191.713508" style="fill: #ff0000; stroke: #ff0000"/>
     <use xlink:href="#m8f0279c5ad" x="270.132756" y="186.811514" style="fill: #ff0000; stroke: #ff0000"/>
     <use xlink:href="#m8f0279c5ad" x="273.683665" y="181.903481" style="fill: #ff0000; stroke: #ff0000"/>
     <use xlink:href="#m8f0279c5ad" x="277.234574" y="177.003448" style="fill: #ff0000; stroke: #ff0000"/>
     <use xlink:href="#m8f0279c5ad" x="280.785483" y="172.125004" style="fill: #ff0000; stroke: #ff0000"/>
     <use xlink:href="#m8f0279c5ad" x="284.336392" y="167.281236" style="fill: #ff0000; stroke: #ff0000"/>
     <use xlink:href="#m8f0279c5ad" x="287.887301" y="162.484558" style="fill: #ff0000; stroke: #ff0000"/>
     <use xlink:href="#m8f0279c5ad" x="291.43821" y="157.746453" style="fill: #ff0000; stroke: #ff0000"/>
     <use xlink:href="#m8f0279c5ad" x="294.989119" y="153.077151" style="fill: #ff0000; stroke: #ff0000"/>
     <use xlink:href="#m8f0279c5ad" x="298.540028" y="148.485313" style="fill: #ff0000; stroke: #ff0000"/>
     <use xlink:href="#m8f0279c5ad" x="302.090937" y="143.977769" style="fill: #ff0000; stroke: #ff0000"/>
     <use xlink:href="#m8f0279c5ad" x="305.641847" y="139.559362" style="fill: #ff0000; stroke: #ff0000"/>
     <use xlink:href="#m8f0279c5ad" x="309.192756" y="135.232938" style="fill: #ff0000; stroke: #ff0000"/>
     <use xlink:href="#m8f0279c5ad" x="312.743665" y="130.999481" style="fill: #ff0000; stroke: #ff0000"/>
     <use xlink:href="#m8f0279c5ad" x="316.294574" y="126.858372" style="fill: #ff0000; stroke: #ff0000"/>
     <use xlink:href="#m8f0279c5ad" x="319.845483" y="122.807721" style="fill: #ff0000; stroke: #ff0000"/>
     <use xlink:href="#m8f0279c5ad" x="323.396392" y="118.844737" style="fill: #ff0000; stroke: #ff0000"/>
     <use xlink:href="#m8f0279c5ad" x="326.947301" y="114.966072" style="fill: #ff0000; stroke: #ff0000"/>
     <use xlink:href="#m8f0279c5ad" x="330.49821" y="111.168121" style="fill: #ff0000; stroke: #ff0000"/>
     <use xlink:href="#m8f0279c5ad" x="334.049119" y="107.447272" style="fill: #ff0000; stroke: #ff0000"/>
     <use xlink:href="#m8f0279c5ad" x="337.600028" y="103.800079" style="fill: #ff0000; stroke: #ff0000"/>
     <use xlink:href="#m8f0279c5ad" x="341.150937" y="100.223381" style="fill: #ff0000; stroke: #ff0000"/>
     <use xlink:href="#m8f0279c5ad" x="344.701847" y="96.714359" style="fill: #ff0000; stroke: #ff0000"/>
     <use xlink:href="#m8f0279c5ad" x="348.252756" y="93.270535" style="fill: #ff0000; stroke: #ff0000"/>
     <use xlink:href="#m8f0279c5ad" x="351.803665" y="89.88972" style="fill: #ff0000; stroke: #ff0000"/>
     <use xlink:href="#m8f0279c5ad" x="355.354574" y="86.56993" style="fill: #ff0000; stroke: #ff0000"/>
     <use xlink:href="#m8f0279c5ad" x="358.905483" y="83.30927" style="fill: #ff0000; stroke: #ff0000"/>
     <use xlink:href="#m8f0279c5ad" x="362.456392" y="80.105825" style="fill: #ff0000; stroke: #ff0000"/>
     <use xlink:href="#m8f0279c5ad" x="366.007301" y="76.957565" style="fill: #ff0000; stroke: #ff0000"/>
     <use xlink:href="#m8f0279c5ad" x="369.55821" y="73.862277" style="fill: #ff0000; stroke: #ff0000"/>
     <use xlink:href="#m8f0279c5ad" x="373.109119" y="70.817547" style="fill: #ff0000; stroke: #ff0000"/>
     <use xlink:href="#m8f0279c5ad" x="376.660028" y="67.820779" style="fill: #ff0000; stroke: #ff0000"/>
     <use xlink:href="#m8f0279c5ad" x="380.210938" y="64.86927" style="fill: #ff0000; stroke: #ff0000"/>
     <use xlink:href="#m8f0279c5ad" x="383.761847" y="61.960294" style="fill: #ff0000; stroke: #ff0000"/>
     <use xlink:href="#m8f0279c5ad" x="387.312756" y="59.091215" style="fill: #ff0000; stroke: #ff0000"/>
     <use xlink:href="#m8f0279c5ad" x="390.863665" y="56.259582" style="fill: #ff0000; stroke: #ff0000"/>
     <use xlink:href="#m8f0279c5ad" x="394.414574" y="53.463208" style="fill: #ff0000; stroke: #ff0000"/>
     <use xlink:href="#m8f0279c5ad" x="397.965483" y="50.700216" style="fill: #ff0000; stroke: #ff0000"/>
     <use xlink:href="#m8f0279c5ad" x="401.516392" y="47.96904" style="fill: #ff0000; stroke: #ff0000"/>
     <use xlink:href="#m8f0279c5ad" x="405.067301" y="45.268414" style="fill: #ff0000; stroke: #ff0000"/>
     <use xlink:href="#m8f0279c5ad" x="408.61821" y="42.597328" style="fill: #ff0000; stroke: #ff0000"/>
     <use xlink:href="#m8f0279c5ad" x="412.169119" y="39.954985" style="fill: #ff0000; stroke: #ff0000"/>
     <use xlink:href="#m8f0279c5ad" x="415.720028" y="37.340763" style="fill: #ff0000; stroke: #ff0000"/>
     <use xlink:href="#m8f0279c5ad" x="419.270937" y="34.754177" style="fill: #ff0000; stroke: #ff0000"/>
     <use xlink:href="#m8f0279c5ad" x="422.821847" y="32.19486" style="fill: #ff0000; stroke: #ff0000"/>
     <use xlink:href="#m8f0279c5ad" x="426.372756" y="29.662543" style="fill: #ff0000; stroke: #ff0000"/>
     <use xlink:href="#m8f0279c5ad" x="429.923665" y="27.157033" style="fill: #ff0000; stroke: #ff0000"/>
     <use xlink:href="#m8f0279c5ad" x="433.474574" y="24.678189" style="fill: #ff0000; stroke: #ff0000"/>
     <use xlink:href="#m8f0279c5ad" x="437.025483" y="22.225894" style="fill: #ff0000; stroke: #ff0000"/>
     <use xlink:href="#m8f0279c5ad" x="440.576392" y="19.8" style="fill: #ff0000; stroke: #ff0000"/>
    </g>
   </g>
   <g id="line2d_14">
    <path d="M 85.485483 270.863303 
L 89.036392 270.851402 
L 92.587301 270.836279 
L 96.13821 270.81988 
L 99.689119 270.804282 
L 103.240028 270.7913 
L 106.790938 270.782119 
L 110.341847 270.777042 
L 113.892756 270.775379 
L 117.443665 270.775499 
L 120.994574 270.775014 
L 124.545483 270.771041 
L 128.096392 270.760473 
L 131.647301 270.740188 
L 135.19821 270.707151 
L 138.749119 270.658376 
L 142.300028 270.590759 
L 145.850937 270.500827 
L 149.401847 270.384443 
L 152.952756 270.236563 
L 156.503665 270.051073 
L 160.054574 269.820776 
L 163.605483 269.537504 
L 167.156392 269.192333 
L 170.707301 268.775827 
L 174.25821 268.278232 
L 177.809119 267.689539 
L 181.360028 266.999369 
L 184.910938 266.196691 
L 188.461847 265.269431 
L 192.012756 264.204098 
L 195.563665 262.985565 
L 199.114574 261.597177 
L 202.665483 260.021266 
L 206.216392 258.240122 
L 209.767301 256.237313 
L 213.31821 253.999194 
L 216.869119 251.516325 
L 220.420028 248.78454 
L 223.970937 245.805448 
L 227.521847 242.586293 
L 231.072756 239.139207 
L 234.623665 235.480049 
L 238.174574 231.62705 
L 241.725483 227.599505 
L 245.276392 223.416695 
L 248.827301 219.097142 
L 252.37821 214.658233 
L 255.929119 210.116166 
L 259.480028 205.486157 
L 263.030937 200.782802 
L 266.581847 196.020489 
L 270.132756 191.213771 
L 273.683665 186.377629 
L 277.234574 181.527564 
L 280.785483 176.67951 
L 284.336392 171.849581 
L 287.887301 167.053661 
L 291.43821 162.306919 
L 294.989119 157.623277 
L 298.540028 153.01493 
L 302.090937 148.491935 
L 305.641847 144.061953 
L 309.192756 139.73014 
L 312.743665 135.499211 
L 316.294574 131.369656 
L 319.845483 127.340071 
L 323.396392 123.407557 
L 326.947301 119.568137 
L 330.49821 115.817141 
L 334.049119 112.149521 
L 337.600028 108.560083 
L 341.150937 105.043631 
L 344.701847 101.59505 
L 348.252756 98.209349 
L 351.803665 94.881707 
L 355.354574 91.607529 
L 358.905483 88.382539 
L 362.456392 85.202906 
L 366.007301 82.065368 
L 369.55821 78.967358 
L 373.109119 75.90707 
L 376.660028 72.88347 
L 380.210938 69.896231 
L 383.761847 66.945595 
L 387.312756 64.032174 
L 390.863665 61.156729 
L 394.414574 58.319949 
L 397.965483 55.522255 
L 401.516392 52.763668 
L 405.067301 50.04374 
L 408.61821 47.36156 
L 412.169119 44.715827 
L 415.720028 42.104967 
L 419.270937 39.527287 
L 422.821847 36.981125 
L 426.372756 34.464988 
L 429.923665 31.977651 
L 433.474574 29.518207 
L 437.025483 27.086054 
L 440.576392 24.68083 
" clip-path="url(#p94f56abab2)" style="fill: none; stroke: #1f77b4; stroke-width: 1.5; stroke-linecap: square"/>
   </g>
   <g id="patch_3">
    <path d="M 67.730938 284.4 
L 67.730938 7.2 
" style="fill: none; stroke: #000000; stroke-width: 0.8; stroke-linejoin: miter; stroke-linecap: square"/>
   </g>
   <g id="patch_4">
    <path d="M 458.330938 284.4 
L 458.330938 7.2 
" style="fill: none; stroke: #000000; stroke-width: 0.8; stroke-linejoin: miter; stroke-linecap: square"/>
   </g>
   <g id="patch_5">
    <path d="M 67.730937 284.4 
L 458.330937 284.4 
" style="fill: none; stroke: #000000; stroke-width: 0.8; stroke-linejoin: miter; stroke-linecap: square"/>
   </g>
   <g id="patch_6">
    <path d="M 67.730937 7.2 
L 458.330937 7.2 
" style="fill: none; stroke: #000000; stroke-width: 0.8; stroke-linejoin: miter; stroke-linecap: square"/>
   </g>
  </g>
  <g id="text_14">
   <!-- Twist coefficients $z_0$ and $z_1$. M=5 Jackknife bins -->
   <g transform="translate(55.130938 327.6) scale(0.11 -0.11)">
    <defs>
     <path id="DejaVuSans-Oblique-54" d="M 378 4666 
L 4325 4666 
L 4225 4134 
L 2559 4134 
L 1759 0 
L 1125 0 
L 1925 4134 
L 275 4134 
L 378 4666 
z
" transform="scale(0.015625)"/>
     <path id="DejaVuSans-Oblique-77" d="M 544 3500 
L 1113 3500 
L 1259 684 
L 2566 3500 
L 3231 3500 
L 3425 684 
L 4666 3500 
L 5241 3500 
L 3641 0 
L 2969 0 
L 2797 2900 
L 1459 0 
L 781 0 
L 544 3500 
z
" transform="scale(0.015625)"/>
     <path id="DejaVuSans-Oblique-69" d="M 1172 4863 
L 1747 4863 
L 1606 4134 
L 1031 4134 
L 1172 4863 
z
M 909 3500 
L 1484 3500 
L 800 0 
L 225 0 
L 909 3500 
z
" transform="scale(0.015625)"/>
     <path id="DejaVuSans-Oblique-73" d="M 3200 3397 
L 3091 2853 
Q 2863 2978 2609 3040 
Q 2356 3103 2088 3103 
Q 1634 3103 1373 2948 
Q 1113 2794 1113 2528 
Q 1113 2219 1719 2053 
Q 1766 2041 1788 2034 
L 1972 1978 
Q 2547 1819 2739 1644 
Q 2931 1469 2931 1166 
Q 2931 609 2489 259 
Q 2047 -91 1331 -91 
Q 1053 -91 747 -37 
Q 441 16 72 128 
L 184 722 
Q 500 559 806 475 
Q 1113 391 1394 391 
Q 1816 391 2080 572 
Q 2344 753 2344 1031 
Q 2344 1331 1650 1516 
L 1591 1531 
L 1394 1581 
Q 956 1697 753 1886 
Q 550 2075 550 2369 
Q 550 2928 970 3256 
Q 1391 3584 2113 3584 
Q 2397 3584 2667 3537 
Q 2938 3491 3200 3397 
z
" transform="scale(0.015625)"/>
     <path id="DejaVuSans-Oblique-20" transform="scale(0.015625)"/>
     <path id="DejaVuSans-Oblique-63" d="M 3431 3366 
L 3316 2797 
Q 3109 2947 2876 3022 
Q 2644 3097 2394 3097 
Q 2119 3097 1870 3000 
Q 1622 2903 1453 2725 
Q 1184 2453 1037 2087 
Q 891 1722 891 1331 
Q 891 859 1127 628 
Q 1363 397 1844 397 
Q 2081 397 2348 469 
Q 2616 541 2906 684 
L 2797 116 
Q 2547 13 2283 -39 
Q 2019 -91 1741 -91 
Q 1044 -91 669 257 
Q 294 606 294 1253 
Q 294 1797 489 2255 
Q 684 2713 1069 3078 
Q 1331 3328 1684 3456 
Q 2038 3584 2456 3584 
Q 2700 3584 2940 3529 
Q 3181 3475 3431 3366 
z
" transform="scale(0.015625)"/>
     <path id="DejaVuSans-Oblique-6f" d="M 1625 -91 
Q 1009 -91 651 289 
Q 294 669 294 1325 
Q 294 1706 417 2101 
Q 541 2497 738 2766 
Q 1047 3184 1428 3384 
Q 1809 3584 2291 3584 
Q 2888 3584 3255 3212 
Q 3622 2841 3622 2241 
Q 3622 1825 3500 1412 
Q 3378 1000 3181 728 
Q 2875 309 2494 109 
Q 2113 -91 1625 -91 
z
M 891 1344 
Q 891 869 1089 633 
Q 1288 397 1691 397 
Q 2269 397 2648 901 
Q 3028 1406 3028 2181 
Q 3028 2634 2825 2865 
Q 2622 3097 2228 3097 
Q 1903 3097 1650 2945 
Q 1397 2794 1197 2484 
Q 1050 2253 970 1956 
Q 891 1659 891 1344 
z
" transform="scale(0.015625)"/>
     <path id="DejaVuSans-Oblique-65" d="M 3078 2063 
Q 3088 2113 3092 2166 
Q 3097 2219 3097 2272 
Q 3097 2653 2873 2875 
Q 2650 3097 2266 3097 
Q 1838 3097 1509 2826 
Q 1181 2556 1013 2059 
L 3078 2063 
z
M 3578 1613 
L 903 1613 
Q 884 1494 878 1425 
Q 872 1356 872 1306 
Q 872 872 1139 634 
Q 1406 397 1894 397 
Q 2269 397 2603 481 
Q 2938 566 3225 728 
L 3116 159 
Q 2806 34 2476 -28 
Q 2147 -91 1806 -91 
Q 1078 -91 686 257 
Q 294 606 294 1247 
Q 294 1794 489 2264 
Q 684 2734 1063 3103 
Q 1306 3334 1642 3459 
Q 1978 3584 2356 3584 
Q 2950 3584 3301 3228 
Q 3653 2872 3653 2272 
Q 3653 2128 3634 1964 
Q 3616 1800 3578 1613 
z
" transform="scale(0.015625)"/>
     <path id="DejaVuSans-Oblique-66" d="M 3059 4863 
L 2969 4384 
L 2419 4384 
Q 2106 4384 1964 4261 
Q 1822 4138 1753 3809 
L 1691 3500 
L 2638 3500 
L 2553 3053 
L 1606 3053 
L 1013 0 
L 434 0 
L 1031 3053 
L 481 3053 
L 563 3500 
L 1113 3500 
L 1159 3744 
Q 1278 4363 1576 4613 
Q 1875 4863 2516 4863 
L 3059 4863 
z
" transform="scale(0.015625)"/>
     <path id="DejaVuSans-Oblique-7a" d="M 744 3500 
L 3475 3500 
L 3372 2975 
L 738 459 
L 2913 459 
L 2822 0 
L -19 0 
L 84 525 
L 2719 3041 
L 653 3041 
L 744 3500 
z
" transform="scale(0.015625)"/>
     <path id="DejaVuSans-Oblique-61" d="M 3438 1997 
L 3047 0 
L 2472 0 
L 2578 531 
Q 2325 219 2001 64 
Q 1678 -91 1281 -91 
Q 834 -91 548 182 
Q 263 456 263 884 
Q 263 1497 752 1853 
Q 1241 2209 2100 2209 
L 2900 2209 
L 2931 2363 
Q 2938 2388 2941 2417 
Q 2944 2447 2944 2509 
Q 2944 2788 2717 2942 
Q 2491 3097 2081 3097 
Q 1800 3097 1504 3025 
Q 1209 2953 897 2809 
L 997 3341 
Q 1322 3463 1633 3523 
Q 1944 3584 2234 3584 
Q 2853 3584 3176 3315 
Q 3500 3047 3500 2534 
Q 3500 2431 3484 2292 
Q 3469 2153 3438 1997 
z
M 2816 1759 
L 2241 1759 
Q 1534 1759 1195 1570 
Q 856 1381 856 984 
Q 856 709 1029 553 
Q 1203 397 1509 397 
Q 1978 397 2328 733 
Q 2678 1069 2791 1631 
L 2816 1759 
z
" transform="scale(0.015625)"/>
     <path id="DejaVuSans-Oblique-2e" d="M 525 794 
L 1184 794 
L 1031 0 
L 372 0 
L 525 794 
z
" transform="scale(0.015625)"/>
     <path id="DejaVuSans-Oblique-4d" d="M 1081 4666 
L 2028 4666 
L 2572 1522 
L 4378 4666 
L 5350 4666 
L 4441 0 
L 3828 0 
L 4622 4091 
L 2791 897 
L 2175 897 
L 1581 4103 
L 788 0 
L 172 0 
L 1081 4666 
z
" transform="scale(0.015625)"/>
     <path id="DejaVuSans-Oblique-3d" d="M 678 2906 
L 4684 2906 
L 4684 2381 
L 678 2381 
L 678 2906 
z
M 678 1631 
L 4684 1631 
L 4684 1100 
L 678 1100 
L 678 1631 
z
" transform="scale(0.015625)"/>
     <path id="DejaVuSans-Oblique-35" d="M 3719 4666 
L 3622 4141 
L 1691 4141 
L 1466 2988 
Q 1609 3034 1757 3056 
Q 1906 3078 2059 3078 
Q 2706 3078 3081 2731 
Q 3456 2384 3456 1791 
Q 3456 1375 3264 994 
Q 3072 613 2719 325 
Q 2469 125 2108 17 
Q 1747 -91 1319 -91 
Q 1038 -91 744 -41 
Q 450 9 128 109 
L 244 697 
Q 531 556 820 486 
Q 1109 416 1403 416 
Q 2013 416 2411 781 
Q 2809 1147 2809 1697 
Q 2809 2103 2548 2328 
Q 2288 2553 1819 2553 
Q 1572 2553 1305 2495 
Q 1038 2438 756 2322 
L 1209 4666 
L 3719 4666 
z
" transform="scale(0.015625)"/>
     <path id="DejaVuSans-Oblique-4a" d="M 1069 4666 
L 1703 4666 
L 856 325 
Q 691 -522 298 -901 
Q -94 -1281 -800 -1281 
L -1050 -1281 
L -947 -750 
L -750 -750 
Q -328 -750 -109 -509 
Q 109 -269 225 325 
L 1069 4666 
z
" transform="scale(0.015625)"/>
     <path id="DejaVuSans-Oblique-6b" d="M 1172 4863 
L 1747 4863 
L 1197 2028 
L 3169 3500 
L 3916 3500 
L 1716 1825 
L 3322 0 
L 2625 0 
L 1131 1709 
L 800 0 
L 225 0 
L 1172 4863 
z
" transform="scale(0.015625)"/>
     <path id="DejaVuSans-Oblique-62" d="M 3169 2138 
Q 3169 2591 2961 2847 
Q 2753 3103 2388 3103 
Q 2122 3103 1889 2973 
Q 1656 2844 1484 2597 
Q 1303 2338 1198 1995 
Q 1094 1653 1094 1313 
Q 1094 881 1298 636 
Q 1503 391 1863 391 
Q 2134 391 2365 517 
Q 2597 644 2772 891 
Q 2950 1147 3059 1487 
Q 3169 1828 3169 2138 
z
M 1381 2969 
Q 1594 3256 1914 3420 
Q 2234 3584 2584 3584 
Q 3122 3584 3439 3221 
Q 3756 2859 3756 2241 
Q 3756 1734 3570 1259 
Q 3384 784 3041 416 
Q 2816 172 2522 40 
Q 2228 -91 1906 -91 
Q 1566 -91 1316 65 
Q 1066 222 909 531 
L 806 0 
L 231 0 
L 1178 4863 
L 1753 4863 
L 1381 2969 
z
" transform="scale(0.015625)"/>
    </defs>
    <use xlink:href="#DejaVuSans-Oblique-54" transform="translate(0 0.015625)"/>
    <use xlink:href="#DejaVuSans-Oblique-77" transform="translate(61.083984 0.015625)"/>
    <use xlink:href="#DejaVuSans-Oblique-69" transform="translate(142.871094 0.015625)"/>
    <use xlink:href="#DejaVuSans-Oblique-73" transform="translate(170.654297 0.015625)"/>
    <use xlink:href="#DejaVuSans-Oblique-74" transform="translate(222.753906 0.015625)"/>
    <use xlink:href="#DejaVuSans-Oblique-20" transform="translate(261.962891 0.015625)"/>
    <use xlink:href="#DejaVuSans-Oblique-63" transform="translate(293.75 0.015625)"/>
    <use xlink:href="#DejaVuSans-Oblique-6f" transform="translate(348.730469 0.015625)"/>
    <use xlink:href="#DejaVuSans-Oblique-65" transform="translate(409.912109 0.015625)"/>
    <use xlink:href="#DejaVuSans-Oblique-66" transform="translate(471.435547 0.015625)"/>
    <use xlink:href="#DejaVuSans-Oblique-66" transform="translate(506.640625 0.015625)"/>
    <use xlink:href="#DejaVuSans-Oblique-69" transform="translate(541.845703 0.015625)"/>
    <use xlink:href="#DejaVuSans-Oblique-63" transform="translate(569.628906 0.015625)"/>
    <use xlink:href="#DejaVuSans-Oblique-69" transform="translate(624.609375 0.015625)"/>
    <use xlink:href="#DejaVuSans-Oblique-65" transform="translate(652.392578 0.015625)"/>
    <use xlink:href="#DejaVuSans-Oblique-6e" transform="translate(713.916016 0.015625)"/>
    <use xlink:href="#DejaVuSans-Oblique-74" transform="translate(777.294922 0.015625)"/>
    <use xlink:href="#DejaVuSans-Oblique-73" transform="translate(816.503906 0.015625)"/>
    <use xlink:href="#DejaVuSans-Oblique-20" transform="translate(868.603516 0.015625)"/>
    <use xlink:href="#DejaVuSans-Oblique-7a" transform="translate(900.390625 0.015625)"/>
    <use xlink:href="#DejaVuSans-30" transform="translate(952.880859 -16.390625) scale(0.7)"/>
    <use xlink:href="#DejaVuSans-Oblique-20" transform="translate(1000.151367 0.015625)"/>
    <use xlink:href="#DejaVuSans-Oblique-61" transform="translate(1031.938477 0.015625)"/>
    <use xlink:href="#DejaVuSans-Oblique-6e" transform="translate(1093.217773 0.015625)"/>
    <use xlink:href="#DejaVuSans-Oblique-64" transform="translate(1156.59668 0.015625)"/>
    <use xlink:href="#DejaVuSans-Oblique-20" transform="translate(1220.073242 0.015625)"/>
    <use xlink:href="#DejaVuSans-Oblique-7a" transform="translate(1251.860352 0.015625)"/>
    <use xlink:href="#DejaVuSans-31" transform="translate(1304.350586 -16.390625) scale(0.7)"/>
    <use xlink:href="#DejaVuSans-Oblique-2e" transform="translate(1351.621094 0.015625)"/>
    <use xlink:href="#DejaVuSans-Oblique-20" transform="translate(1383.408203 0.015625)"/>
    <use xlink:href="#DejaVuSans-Oblique-4d" transform="translate(1415.195312 0.015625)"/>
    <use xlink:href="#DejaVuSans-Oblique-3d" transform="translate(1501.474609 0.015625)"/>
    <use xlink:href="#DejaVuSans-Oblique-35" transform="translate(1585.263672 0.015625)"/>
    <use xlink:href="#DejaVuSans-Oblique-20" transform="translate(1648.886719 0.015625)"/>
    <use xlink:href="#DejaVuSans-Oblique-4a" transform="translate(1680.673828 0.015625)"/>
    <use xlink:href="#DejaVuSans-Oblique-61" transform="translate(1710.166016 0.015625)"/>
    <use xlink:href="#DejaVuSans-Oblique-63" transform="translate(1771.445312 0.015625)"/>
    <use xlink:href="#DejaVuSans-Oblique-6b" transform="translate(1826.425781 0.015625)"/>
    <use xlink:href="#DejaVuSans-Oblique-6b" transform="translate(1884.335938 0.015625)"/>
    <use xlink:href="#DejaVuSans-Oblique-6e" transform="translate(1942.246094 0.015625)"/>
    <use xlink:href="#DejaVuSans-Oblique-69" transform="translate(2005.625 0.015625)"/>
    <use xlink:href="#DejaVuSans-Oblique-66" transform="translate(2033.408203 0.015625)"/>
    <use xlink:href="#DejaVuSans-Oblique-65" transform="translate(2068.613281 0.015625)"/>
    <use xlink:href="#DejaVuSans-Oblique-20" transform="translate(2130.136719 0.015625)"/>
    <use xlink:href="#DejaVuSans-Oblique-62" transform="translate(2161.923828 0.015625)"/>
    <use xlink:href="#DejaVuSans-Oblique-69" transform="translate(2225.400391 0.015625)"/>
    <use xlink:href="#DejaVuSans-Oblique-6e" transform="translate(2253.183594 0.015625)"/>
    <use xlink:href="#DejaVuSans-Oblique-73" transform="translate(2316.5625 0.015625)"/>
   </g>
  </g>
 </g>
 <defs>
  <clipPath id="p94f56abab2">
   <rect x="67.730938" y="7.2" width="390.6" height="277.2"/>
  </clipPath>
 </defs>
</svg>
