<?xml version="1.0" encoding="utf-8" standalone="no"?>
<!DOCTYPE svg PUBLIC "-//W3C//DTD SVG 1.1//EN"
  "http://www.w3.org/Graphics/SVG/1.1/DTD/svg11.dtd">
<svg xmlns:xlink="http://www.w3.org/1999/xlink" width="458.270938pt" height="337.11pt" viewBox="0 0 458.270938 337.11" xmlns="http://www.w3.org/2000/svg" version="1.1">
 <metadata>
  <rdf:RDF xmlns:dc="http://purl.org/dc/elements/1.1/" xmlns:cc="http://creativecommons.org/ns#" xmlns:rdf="http://www.w3.org/1999/02/22-rdf-syntax-ns#">
   <cc:Work>
    <dc:type rdf:resource="http://purl.org/dc/dcmitype/StillImage"/>
    <dc:date>2024-05-07T16:39:40.487304</dc:date>
    <dc:format>image/svg+xml</dc:format>
    <dc:creator>
     <cc:Agent>
      <dc:title>Matplotlib v3.8.0, https://matplotlib.org/</dc:title>
     </cc:Agent>
    </dc:creator>
   </cc:Work>
  </rdf:RDF>
 </metadata>
 <defs>
  <style type="text/css">*{stroke-linejoin: round; stroke-linecap: butt}</style>
 </defs>
 <g id="figure_1">
  <g id="patch_1">
   <path d="M 0 337.11 
L 458.270938 337.11 
L 458.270938 0 
L 0 0 
z
" style="fill: #ffffff"/>
  </g>
  <g id="axes_1">
   <g id="patch_2">
    <path d="M 60.470938 284.4 
L 451.070938 284.4 
L 451.070938 7.2 
L 60.470938 7.2 
z
" style="fill: #ffffff"/>
   </g>
   <g id="matplotlib.axis_1">
    <g id="xtick_1">
     <g id="line2d_1">
      <defs>
       <path id="mce6ad9ab03" d="M 0 0 
L 0 3.5 
" style="stroke: #000000; stroke-width: 0.8"/>
      </defs>
      <g>
       <use xlink:href="#mce6ad9ab03" x="113.734574" y="284.4" style="stroke: #000000; stroke-width: 0.8"/>
      </g>
     </g>
     <g id="text_1">
      <!-- 10.76 -->
      <g transform="translate(97.989105 299.758281) scale(0.11 -0.11)">
       <defs>
        <path id="DejaVuSans-31" d="M 794 531 
L 1825 531 
L 1825 4091 
L 703 3866 
L 703 4441 
L 1819 4666 
L 2450 4666 
L 2450 531 
L 3481 531 
L 3481 0 
L 794 0 
L 794 531 
z
" transform="scale(0.015625)"/>
        <path id="DejaVuSans-30" d="M 2034 4250 
Q 1547 4250 1301 3770 
Q 1056 3291 1056 2328 
Q 1056 1369 1301 889 
Q 1547 409 2034 409 
Q 2525 409 2770 889 
Q 3016 1369 3016 2328 
Q 3016 3291 2770 3770 
Q 2525 4250 2034 4250 
z
M 2034 4750 
Q 2819 4750 3233 4129 
Q 3647 3509 3647 2328 
Q 3647 1150 3233 529 
Q 2819 -91 2034 -91 
Q 1250 -91 836 529 
Q 422 1150 422 2328 
Q 422 3509 836 4129 
Q 1250 4750 2034 4750 
z
" transform="scale(0.015625)"/>
        <path id="DejaVuSans-2e" d="M 684 794 
L 1344 794 
L 1344 0 
L 684 0 
L 684 794 
z
" transform="scale(0.015625)"/>
        <path id="DejaVuSans-37" d="M 525 4666 
L 3525 4666 
L 3525 4397 
L 1831 0 
L 1172 0 
L 2766 4134 
L 525 4134 
L 525 4666 
z
" transform="scale(0.015625)"/>
        <path id="DejaVuSans-36" d="M 2113 2584 
Q 1688 2584 1439 2293 
Q 1191 2003 1191 1497 
Q 1191 994 1439 701 
Q 1688 409 2113 409 
Q 2538 409 2786 701 
Q 3034 994 3034 1497 
Q 3034 2003 2786 2293 
Q 2538 2584 2113 2584 
z
M 3366 4563 
L 3366 3988 
Q 3128 4100 2886 4159 
Q 2644 4219 2406 4219 
Q 1781 4219 1451 3797 
Q 1122 3375 1075 2522 
Q 1259 2794 1537 2939 
Q 1816 3084 2150 3084 
Q 2853 3084 3261 2657 
Q 3669 2231 3669 1497 
Q 3669 778 3244 343 
Q 2819 -91 2113 -91 
Q 1303 -91 875 529 
Q 447 1150 447 2328 
Q 447 3434 972 4092 
Q 1497 4750 2381 4750 
Q 2619 4750 2861 4703 
Q 3103 4656 3366 4563 
z
" transform="scale(0.015625)"/>
       </defs>
       <use xlink:href="#DejaVuSans-31"/>
       <use xlink:href="#DejaVuSans-30" x="63.623047"/>
       <use xlink:href="#DejaVuSans-2e" x="127.246094"/>
       <use xlink:href="#DejaVuSans-37" x="159.033203"/>
       <use xlink:href="#DejaVuSans-36" x="222.65625"/>
      </g>
     </g>
    </g>
    <g id="xtick_2">
     <g id="line2d_2">
      <g>
       <use xlink:href="#mce6ad9ab03" x="184.752756" y="284.4" style="stroke: #000000; stroke-width: 0.8"/>
      </g>
     </g>
     <g id="text_2">
      <!-- 10.78 -->
      <g transform="translate(169.007287 299.758281) scale(0.11 -0.11)">
       <defs>
        <path id="DejaVuSans-38" d="M 2034 2216 
Q 1584 2216 1326 1975 
Q 1069 1734 1069 1313 
Q 1069 891 1326 650 
Q 1584 409 2034 409 
Q 2484 409 2743 651 
Q 3003 894 3003 1313 
Q 3003 1734 2745 1975 
Q 2488 2216 2034 2216 
z
M 1403 2484 
Q 997 2584 770 2862 
Q 544 3141 544 3541 
Q 544 4100 942 4425 
Q 1341 4750 2034 4750 
Q 2731 4750 3128 4425 
Q 3525 4100 3525 3541 
Q 3525 3141 3298 2862 
Q 3072 2584 2669 2484 
Q 3125 2378 3379 2068 
Q 3634 1759 3634 1313 
Q 3634 634 3220 271 
Q 2806 -91 2034 -91 
Q 1263 -91 848 271 
Q 434 634 434 1313 
Q 434 1759 690 2068 
Q 947 2378 1403 2484 
z
M 1172 3481 
Q 1172 3119 1398 2916 
Q 1625 2713 2034 2713 
Q 2441 2713 2670 2916 
Q 2900 3119 2900 3481 
Q 2900 3844 2670 4047 
Q 2441 4250 2034 4250 
Q 1625 4250 1398 4047 
Q 1172 3844 1172 3481 
z
" transform="scale(0.015625)"/>
       </defs>
       <use xlink:href="#DejaVuSans-31"/>
       <use xlink:href="#DejaVuSans-30" x="63.623047"/>
       <use xlink:href="#DejaVuSans-2e" x="127.246094"/>
       <use xlink:href="#DejaVuSans-37" x="159.033203"/>
       <use xlink:href="#DejaVuSans-38" x="222.65625"/>
      </g>
     </g>
    </g>
    <g id="xtick_3">
     <g id="line2d_3">
      <g>
       <use xlink:href="#mce6ad9ab03" x="255.770938" y="284.4" style="stroke: #000000; stroke-width: 0.8"/>
      </g>
     </g>
     <g id="text_3">
      <!-- 10.80 -->
      <g transform="translate(240.025469 299.758281) scale(0.11 -0.11)">
       <use xlink:href="#DejaVuSans-31"/>
       <use xlink:href="#DejaVuSans-30" x="63.623047"/>
       <use xlink:href="#DejaVuSans-2e" x="127.246094"/>
       <use xlink:href="#DejaVuSans-38" x="159.033203"/>
       <use xlink:href="#DejaVuSans-30" x="222.65625"/>
      </g>
     </g>
    </g>
    <g id="xtick_4">
     <g id="line2d_4">
      <g>
       <use xlink:href="#mce6ad9ab03" x="326.789119" y="284.4" style="stroke: #000000; stroke-width: 0.8"/>
      </g>
     </g>
     <g id="text_4">
      <!-- 10.82 -->
      <g transform="translate(311.043651 299.758281) scale(0.11 -0.11)">
       <defs>
        <path id="DejaVuSans-32" d="M 1228 531 
L 3431 531 
L 3431 0 
L 469 0 
L 469 531 
Q 828 903 1448 1529 
Q 2069 2156 2228 2338 
Q 2531 2678 2651 2914 
Q 2772 3150 2772 3378 
Q 2772 3750 2511 3984 
Q 2250 4219 1831 4219 
Q 1534 4219 1204 4116 
Q 875 4013 500 3803 
L 500 4441 
Q 881 4594 1212 4672 
Q 1544 4750 1819 4750 
Q 2544 4750 2975 4387 
Q 3406 4025 3406 3419 
Q 3406 3131 3298 2873 
Q 3191 2616 2906 2266 
Q 2828 2175 2409 1742 
Q 1991 1309 1228 531 
z
" transform="scale(0.015625)"/>
       </defs>
       <use xlink:href="#DejaVuSans-31"/>
       <use xlink:href="#DejaVuSans-30" x="63.623047"/>
       <use xlink:href="#DejaVuSans-2e" x="127.246094"/>
       <use xlink:href="#DejaVuSans-38" x="159.033203"/>
       <use xlink:href="#DejaVuSans-32" x="222.65625"/>
      </g>
     </g>
    </g>
    <g id="xtick_5">
     <g id="line2d_5">
      <g>
       <use xlink:href="#mce6ad9ab03" x="397.807301" y="284.4" style="stroke: #000000; stroke-width: 0.8"/>
      </g>
     </g>
     <g id="text_5">
      <!-- 10.84 -->
      <g transform="translate(382.061832 299.758281) scale(0.11 -0.11)">
       <defs>
        <path id="DejaVuSans-34" d="M 2419 4116 
L 825 1625 
L 2419 1625 
L 2419 4116 
z
M 2253 4666 
L 3047 4666 
L 3047 1625 
L 3713 1625 
L 3713 1100 
L 3047 1100 
L 3047 0 
L 2419 0 
L 2419 1100 
L 313 1100 
L 313 1709 
L 2253 4666 
z
" transform="scale(0.015625)"/>
       </defs>
       <use xlink:href="#DejaVuSans-31"/>
       <use xlink:href="#DejaVuSans-30" x="63.623047"/>
       <use xlink:href="#DejaVuSans-2e" x="127.246094"/>
       <use xlink:href="#DejaVuSans-38" x="159.033203"/>
       <use xlink:href="#DejaVuSans-34" x="222.65625"/>
      </g>
     </g>
    </g>
    <g id="text_6">
     <!-- $\beta$ -->
     <g transform="translate(252.250937 314.515938) scale(0.11 -0.11)">
      <defs>
       <path id="DejaVuSans-Oblique-3b2" d="M 872 216 
L 572 -1331 
L -6 -1331 
L 928 3478 
Q 1206 4903 2538 4903 
Q 3888 4903 3659 3700 
Q 3503 2844 2894 2531 
Q 3713 2250 3553 1416 
Q 3272 -69 1759 -66 
Q 1097 -63 872 216 
z
M 1019 966 
Q 1259 422 1875 425 
Q 2775 425 2966 1406 
Q 3138 2288 1675 2219 
L 1778 2750 
Q 2909 2731 3106 3750 
Q 3241 4438 2509 4434 
Q 1691 4434 1503 3459 
L 1019 966 
z
" transform="scale(0.015625)"/>
      </defs>
      <use xlink:href="#DejaVuSans-Oblique-3b2" transform="translate(0 0.390625)"/>
     </g>
    </g>
   </g>
   <g id="matplotlib.axis_2">
    <g id="ytick_1">
     <g id="line2d_6">
      <defs>
       <path id="m05cdda6a1f" d="M 0 0 
L -3.5 0 
" style="stroke: #000000; stroke-width: 0.8"/>
      </defs>
      <g>
       <use xlink:href="#m05cdda6a1f" x="60.470938" y="237.441888" style="stroke: #000000; stroke-width: 0.8"/>
      </g>
     </g>
     <g id="text_7">
      <!-- 0.434 -->
      <g transform="translate(21.98 241.621029) scale(0.11 -0.11)">
       <defs>
        <path id="DejaVuSans-33" d="M 2597 2516 
Q 3050 2419 3304 2112 
Q 3559 1806 3559 1356 
Q 3559 666 3084 287 
Q 2609 -91 1734 -91 
Q 1441 -91 1130 -33 
Q 819 25 488 141 
L 488 750 
Q 750 597 1062 519 
Q 1375 441 1716 441 
Q 2309 441 2620 675 
Q 2931 909 2931 1356 
Q 2931 1769 2642 2001 
Q 2353 2234 1838 2234 
L 1294 2234 
L 1294 2753 
L 1863 2753 
Q 2328 2753 2575 2939 
Q 2822 3125 2822 3475 
Q 2822 3834 2567 4026 
Q 2313 4219 1838 4219 
Q 1578 4219 1281 4162 
Q 984 4106 628 3988 
L 628 4550 
Q 988 4650 1302 4700 
Q 1616 4750 1894 4750 
Q 2613 4750 3031 4423 
Q 3450 4097 3450 3541 
Q 3450 3153 3228 2886 
Q 3006 2619 2597 2516 
z
" transform="scale(0.015625)"/>
       </defs>
       <use xlink:href="#DejaVuSans-30"/>
       <use xlink:href="#DejaVuSans-2e" x="63.623047"/>
       <use xlink:href="#DejaVuSans-34" x="95.410156"/>
       <use xlink:href="#DejaVuSans-33" x="159.033203"/>
       <use xlink:href="#DejaVuSans-34" x="222.65625"/>
      </g>
     </g>
    </g>
    <g id="ytick_2">
     <g id="line2d_7">
      <g>
       <use xlink:href="#m05cdda6a1f" x="60.470938" y="179.27868" style="stroke: #000000; stroke-width: 0.8"/>
      </g>
     </g>
     <g id="text_8">
      <!-- 0.436 -->
      <g transform="translate(21.98 183.457821) scale(0.11 -0.11)">
       <use xlink:href="#DejaVuSans-30"/>
       <use xlink:href="#DejaVuSans-2e" x="63.623047"/>
       <use xlink:href="#DejaVuSans-34" x="95.410156"/>
       <use xlink:href="#DejaVuSans-33" x="159.033203"/>
       <use xlink:href="#DejaVuSans-36" x="222.65625"/>
      </g>
     </g>
    </g>
    <g id="ytick_3">
     <g id="line2d_8">
      <g>
       <use xlink:href="#m05cdda6a1f" x="60.470938" y="121.115473" style="stroke: #000000; stroke-width: 0.8"/>
      </g>
     </g>
     <g id="text_9">
      <!-- 0.438 -->
      <g transform="translate(21.98 125.294613) scale(0.11 -0.11)">
       <use xlink:href="#DejaVuSans-30"/>
       <use xlink:href="#DejaVuSans-2e" x="63.623047"/>
       <use xlink:href="#DejaVuSans-34" x="95.410156"/>
       <use xlink:href="#DejaVuSans-33" x="159.033203"/>
       <use xlink:href="#DejaVuSans-38" x="222.65625"/>
      </g>
     </g>
    </g>
    <g id="ytick_4">
     <g id="line2d_9">
      <g>
       <use xlink:href="#m05cdda6a1f" x="60.470938" y="62.952265" style="stroke: #000000; stroke-width: 0.8"/>
      </g>
     </g>
     <g id="text_10">
      <!-- 0.440 -->
      <g transform="translate(21.98 67.131406) scale(0.11 -0.11)">
       <use xlink:href="#DejaVuSans-30"/>
       <use xlink:href="#DejaVuSans-2e" x="63.623047"/>
       <use xlink:href="#DejaVuSans-34" x="95.410156"/>
       <use xlink:href="#DejaVuSans-34" x="159.033203"/>
       <use xlink:href="#DejaVuSans-30" x="222.65625"/>
      </g>
     </g>
    </g>
    <g id="text_11">
     <!-- $\langle$ S $\rangle / (6\cdot V \cdot\beta)$ -->
     <g transform="translate(15.67 181.825) rotate(-90) scale(0.11 -0.11)">
      <defs>
       <path id="DejaVuSans-27e8" d="M 572 2006 
L 1453 4856 
L 1984 4856 
L 1103 2006 
L 1984 -844 
L 1453 -844 
L 572 2006 
z
" transform="scale(0.015625)"/>
       <path id="DejaVuSans-20" transform="scale(0.015625)"/>
       <path id="DejaVuSans-53" d="M 3425 4513 
L 3425 3897 
Q 3066 4069 2747 4153 
Q 2428 4238 2131 4238 
Q 1616 4238 1336 4038 
Q 1056 3838 1056 3469 
Q 1056 3159 1242 3001 
Q 1428 2844 1947 2747 
L 2328 2669 
Q 3034 2534 3370 2195 
Q 3706 1856 3706 1288 
Q 3706 609 3251 259 
Q 2797 -91 1919 -91 
Q 1588 -91 1214 -16 
Q 841 59 441 206 
L 441 856 
Q 825 641 1194 531 
Q 1563 422 1919 422 
Q 2459 422 2753 634 
Q 3047 847 3047 1241 
Q 3047 1584 2836 1778 
Q 2625 1972 2144 2069 
L 1759 2144 
Q 1053 2284 737 2584 
Q 422 2884 422 3419 
Q 422 4038 858 4394 
Q 1294 4750 2059 4750 
Q 2388 4750 2728 4690 
Q 3069 4631 3425 4513 
z
" transform="scale(0.015625)"/>
       <path id="DejaVuSans-27e9" d="M 1925 2006 
L 1044 -844 
L 513 -844 
L 1394 2006 
L 513 4856 
L 1044 4856 
L 1925 2006 
z
" transform="scale(0.015625)"/>
       <path id="DejaVuSans-2f" d="M 1625 4666 
L 2156 4666 
L 531 -594 
L 0 -594 
L 1625 4666 
z
" transform="scale(0.015625)"/>
       <path id="DejaVuSans-28" d="M 1984 4856 
Q 1566 4138 1362 3434 
Q 1159 2731 1159 2009 
Q 1159 1288 1364 580 
Q 1569 -128 1984 -844 
L 1484 -844 
Q 1016 -109 783 600 
Q 550 1309 550 2009 
Q 550 2706 781 3412 
Q 1013 4119 1484 4856 
L 1984 4856 
z
" transform="scale(0.015625)"/>
       <path id="DejaVuSans-22c5" d="M 684 2619 
L 1344 2619 
L 1344 1825 
L 684 1825 
L 684 2619 
z
" transform="scale(0.015625)"/>
       <path id="DejaVuSans-Oblique-56" d="M 1319 0 
L 500 4666 
L 1119 4666 
L 1797 653 
L 4063 4666 
L 4750 4666 
L 2053 0 
L 1319 0 
z
" transform="scale(0.015625)"/>
       <path id="DejaVuSans-29" d="M 513 4856 
L 1013 4856 
Q 1481 4119 1714 3412 
Q 1947 2706 1947 2009 
Q 1947 1309 1714 600 
Q 1481 -109 1013 -844 
L 513 -844 
Q 928 -128 1133 580 
Q 1338 1288 1338 2009 
Q 1338 2731 1133 3434 
Q 928 4138 513 4856 
z
" transform="scale(0.015625)"/>
      </defs>
      <use xlink:href="#DejaVuSans-27e8" transform="translate(0 0.390625)"/>
      <use xlink:href="#DejaVuSans-20" transform="translate(39.013672 0.390625)"/>
      <use xlink:href="#DejaVuSans-53" transform="translate(70.800781 0.390625)"/>
      <use xlink:href="#DejaVuSans-20" transform="translate(134.277344 0.390625)"/>
      <use xlink:href="#DejaVuSans-27e9" transform="translate(166.064453 0.390625)"/>
      <use xlink:href="#DejaVuSans-2f" transform="translate(205.078125 0.390625)"/>
      <use xlink:href="#DejaVuSans-28" transform="translate(238.769531 0.390625)"/>
      <use xlink:href="#DejaVuSans-36" transform="translate(277.783203 0.390625)"/>
      <use xlink:href="#DejaVuSans-22c5" transform="translate(360.888672 0.390625)"/>
      <use xlink:href="#DejaVuSans-Oblique-56" transform="translate(412.158203 0.390625)"/>
      <use xlink:href="#DejaVuSans-22c5" transform="translate(500.048828 0.390625)"/>
      <use xlink:href="#DejaVuSans-Oblique-3b2" transform="translate(551.318359 0.390625)"/>
      <use xlink:href="#DejaVuSans-29" transform="translate(615.136719 0.390625)"/>
     </g>
    </g>
   </g>
   <g id="LineCollection_1">
    <path d="M 78.225483 20.114007 
L 78.225483 19.96055 
" clip-path="url(#pc29df146f9)" style="fill: none; stroke: #ff0000; stroke-width: 1.5"/>
    <path d="M 81.776392 22.61244 
L 81.776392 22.459629 
" clip-path="url(#pc29df146f9)" style="fill: none; stroke: #ff0000; stroke-width: 1.5"/>
    <path d="M 85.327301 25.103779 
L 85.327301 24.948096 
" clip-path="url(#pc29df146f9)" style="fill: none; stroke: #ff0000; stroke-width: 1.5"/>
    <path d="M 88.87821 27.587789 
L 88.87821 27.423489 
" clip-path="url(#pc29df146f9)" style="fill: none; stroke: #ff0000; stroke-width: 1.5"/>
    <path d="M 92.429119 30.064885 
L 92.429119 29.884116 
" clip-path="url(#pc29df146f9)" style="fill: none; stroke: #ff0000; stroke-width: 1.5"/>
    <path d="M 95.980028 32.535654 
L 95.980028 32.329773 
" clip-path="url(#pc29df146f9)" style="fill: none; stroke: #ff0000; stroke-width: 1.5"/>
    <path d="M 99.530938 35.000528 
L 99.530938 34.762089 
" clip-path="url(#pc29df146f9)" style="fill: none; stroke: #ff0000; stroke-width: 1.5"/>
    <path d="M 103.081847 37.459908 
L 103.081847 37.184187 
" clip-path="url(#pc29df146f9)" style="fill: none; stroke: #ff0000; stroke-width: 1.5"/>
    <path d="M 106.632756 39.914429 
L 106.632756 39.600056 
" clip-path="url(#pc29df146f9)" style="fill: none; stroke: #ff0000; stroke-width: 1.5"/>
    <path d="M 110.183665 42.365085 
L 110.183665 42.013978 
" clip-path="url(#pc29df146f9)" style="fill: none; stroke: #ff0000; stroke-width: 1.5"/>
    <path d="M 113.734574 44.813206 
L 113.734574 44.430102 
" clip-path="url(#pc29df146f9)" style="fill: none; stroke: #ff0000; stroke-width: 1.5"/>
    <path d="M 117.285483 47.260364 
L 117.285483 46.852182 
" clip-path="url(#pc29df146f9)" style="fill: none; stroke: #ff0000; stroke-width: 1.5"/>
    <path d="M 120.836392 49.70828 
L 120.836392 49.283446 
" clip-path="url(#pc29df146f9)" style="fill: none; stroke: #ff0000; stroke-width: 1.5"/>
    <path d="M 124.387301 52.158778 
L 124.387301 51.726601 
" clip-path="url(#pc29df146f9)" style="fill: none; stroke: #ff0000; stroke-width: 1.5"/>
    <path d="M 127.93821 54.613773 
L 127.93821 54.183946 
" clip-path="url(#pc29df146f9)" style="fill: none; stroke: #ff0000; stroke-width: 1.5"/>
    <path d="M 131.489119 57.075311 
L 131.489119 56.657543 
" clip-path="url(#pc29df146f9)" style="fill: none; stroke: #ff0000; stroke-width: 1.5"/>
    <path d="M 135.040028 59.545628 
L 135.040028 59.149393 
" clip-path="url(#pc29df146f9)" style="fill: none; stroke: #ff0000; stroke-width: 1.5"/>
    <path d="M 138.590938 62.027216 
L 138.590938 61.661537 
" clip-path="url(#pc29df146f9)" style="fill: none; stroke: #ff0000; stroke-width: 1.5"/>
    <path d="M 142.141847 64.522891 
L 142.141847 64.196016 
" clip-path="url(#pc29df146f9)" style="fill: none; stroke: #ff0000; stroke-width: 1.5"/>
    <path d="M 145.692756 67.035922 
L 145.692756 66.754596 
" clip-path="url(#pc29df146f9)" style="fill: none; stroke: #ff0000; stroke-width: 1.5"/>
    <path d="M 149.243665 69.570393 
L 149.243665 69.338105 
" clip-path="url(#pc29df146f9)" style="fill: none; stroke: #ff0000; stroke-width: 1.5"/>
    <path d="M 152.794574 72.132276 
L 152.794574 71.944994 
" clip-path="url(#pc29df146f9)" style="fill: none; stroke: #ff0000; stroke-width: 1.5"/>
    <path d="M 156.345483 74.731417 
L 156.345483 74.569041 
" clip-path="url(#pc29df146f9)" style="fill: none; stroke: #ff0000; stroke-width: 1.5"/>
    <path d="M 159.896392 77.378697 
L 159.896392 77.202097 
" clip-path="url(#pc29df146f9)" style="fill: none; stroke: #ff0000; stroke-width: 1.5"/>
    <path d="M 163.447301 80.073856 
L 163.447301 79.846486 
" clip-path="url(#pc29df146f9)" style="fill: none; stroke: #ff0000; stroke-width: 1.5"/>
    <path d="M 166.99821 82.809183 
L 166.99821 82.511926 
" clip-path="url(#pc29df146f9)" style="fill: none; stroke: #ff0000; stroke-width: 1.5"/>
    <path d="M 170.549119 85.580007 
L 170.549119 85.205921 
" clip-path="url(#pc29df146f9)" style="fill: none; stroke: #ff0000; stroke-width: 1.5"/>
    <path d="M 174.100028 88.385561 
L 174.100028 87.933868 
" clip-path="url(#pc29df146f9)" style="fill: none; stroke: #ff0000; stroke-width: 1.5"/>
    <path d="M 177.650938 91.227981 
L 177.650938 90.700805 
" clip-path="url(#pc29df146f9)" style="fill: none; stroke: #ff0000; stroke-width: 1.5"/>
    <path d="M 181.201847 94.111664 
L 181.201847 93.512224 
" clip-path="url(#pc29df146f9)" style="fill: none; stroke: #ff0000; stroke-width: 1.5"/>
    <path d="M 184.752756 97.04253 
L 184.752756 96.374151 
" clip-path="url(#pc29df146f9)" style="fill: none; stroke: #ff0000; stroke-width: 1.5"/>
    <path d="M 188.303665 100.026952 
L 188.303665 99.292601 
" clip-path="url(#pc29df146f9)" style="fill: none; stroke: #ff0000; stroke-width: 1.5"/>
    <path d="M 191.854574 103.070485 
L 191.854574 102.272386 
" clip-path="url(#pc29df146f9)" style="fill: none; stroke: #ff0000; stroke-width: 1.5"/>
    <path d="M 195.405483 106.176583 
L 195.405483 105.315488 
" clip-path="url(#pc29df146f9)" style="fill: none; stroke: #ff0000; stroke-width: 1.5"/>
    <path d="M 198.956392 109.34543 
L 198.956392 108.419448 
" clip-path="url(#pc29df146f9)" style="fill: none; stroke: #ff0000; stroke-width: 1.5"/>
    <path d="M 202.507301 112.572884 
L 202.507301 111.576469 
" clip-path="url(#pc29df146f9)" style="fill: none; stroke: #ff0000; stroke-width: 1.5"/>
    <path d="M 206.05821 115.849585 
L 206.05821 114.773833 
" clip-path="url(#pc29df146f9)" style="fill: none; stroke: #ff0000; stroke-width: 1.5"/>
    <path d="M 209.609119 119.160497 
L 209.609119 117.995621 
" clip-path="url(#pc29df146f9)" style="fill: none; stroke: #ff0000; stroke-width: 1.5"/>
    <path d="M 213.160028 122.48549 
L 213.160028 121.225064 
" clip-path="url(#pc29df146f9)" style="fill: none; stroke: #ff0000; stroke-width: 1.5"/>
    <path d="M 216.710938 125.801277 
L 216.710938 124.446562 
" clip-path="url(#pc29df146f9)" style="fill: none; stroke: #ff0000; stroke-width: 1.5"/>
    <path d="M 220.261847 129.084386 
L 220.261847 127.646856 
" clip-path="url(#pc29df146f9)" style="fill: none; stroke: #ff0000; stroke-width: 1.5"/>
    <path d="M 223.812756 132.31421 
L 223.812756 130.815437 
" clip-path="url(#pc29df146f9)" style="fill: none; stroke: #ff0000; stroke-width: 1.5"/>
    <path d="M 227.363665 135.475282 
L 227.363665 133.944447 
" clip-path="url(#pc29df146f9)" style="fill: none; stroke: #ff0000; stroke-width: 1.5"/>
    <path d="M 230.914574 138.558311 
L 230.914574 137.028366 
" clip-path="url(#pc29df146f9)" style="fill: none; stroke: #ff0000; stroke-width: 1.5"/>
    <path d="M 234.465483 141.560001 
L 234.465483 140.063637 
" clip-path="url(#pc29df146f9)" style="fill: none; stroke: #ff0000; stroke-width: 1.5"/>
    <path d="M 238.016392 144.481991 
L 238.016392 143.048315 
" clip-path="url(#pc29df146f9)" style="fill: none; stroke: #ff0000; stroke-width: 1.5"/>
    <path d="M 241.567301 147.329349 
L 241.567301 145.981757 
" clip-path="url(#pc29df146f9)" style="fill: none; stroke: #ff0000; stroke-width: 1.5"/>
    <path d="M 245.11821 150.109028 
L 245.11821 148.864333 
" clip-path="url(#pc29df146f9)" style="fill: none; stroke: #ff0000; stroke-width: 1.5"/>
    <path d="M 248.669119 152.828586 
L 248.669119 151.697129 
" clip-path="url(#pc29df146f9)" style="fill: none; stroke: #ff0000; stroke-width: 1.5"/>
    <path d="M 252.220028 155.495304 
L 252.220028 154.481633 
" clip-path="url(#pc29df146f9)" style="fill: none; stroke: #ff0000; stroke-width: 1.5"/>
    <path d="M 255.770938 158.115716 
L 255.770938 157.219445 
" clip-path="url(#pc29df146f9)" style="fill: none; stroke: #ff0000; stroke-width: 1.5"/>
    <path d="M 259.321847 160.695462 
L 259.321847 159.912073 
" clip-path="url(#pc29df146f9)" style="fill: none; stroke: #ff0000; stroke-width: 1.5"/>
    <path d="M 262.872756 163.239346 
L 262.872756 162.560841 
" clip-path="url(#pc29df146f9)" style="fill: none; stroke: #ff0000; stroke-width: 1.5"/>
    <path d="M 266.423665 165.751474 
L 266.423665 165.166965 
" clip-path="url(#pc29df146f9)" style="fill: none; stroke: #ff0000; stroke-width: 1.5"/>
    <path d="M 269.974574 168.235394 
L 269.974574 167.73173 
" clip-path="url(#pc29df146f9)" style="fill: none; stroke: #ff0000; stroke-width: 1.5"/>
    <path d="M 273.525483 170.694187 
L 273.525483 170.256756 
" clip-path="url(#pc29df146f9)" style="fill: none; stroke: #ff0000; stroke-width: 1.5"/>
    <path d="M 277.076392 173.1305 
L 277.076392 172.744249 
" clip-path="url(#pc29df146f9)" style="fill: none; stroke: #ff0000; stroke-width: 1.5"/>
    <path d="M 280.627301 175.546561 
L 280.627301 175.197154 
" clip-path="url(#pc29df146f9)" style="fill: none; stroke: #ff0000; stroke-width: 1.5"/>
    <path d="M 284.17821 177.944248 
L 284.17821 177.619138 
" clip-path="url(#pc29df146f9)" style="fill: none; stroke: #ff0000; stroke-width: 1.5"/>
    <path d="M 287.729119 180.325203 
L 287.729119 180.014373 
" clip-path="url(#pc29df146f9)" style="fill: none; stroke: #ff0000; stroke-width: 1.5"/>
    <path d="M 291.280028 182.690966 
L 291.280028 182.387214 
" clip-path="url(#pc29df146f9)" style="fill: none; stroke: #ff0000; stroke-width: 1.5"/>
    <path d="M 294.830938 185.043021 
L 294.830938 184.741888 
" clip-path="url(#pc29df146f9)" style="fill: none; stroke: #ff0000; stroke-width: 1.5"/>
    <path d="M 298.381847 187.382774 
L 298.381847 187.082244 
" clip-path="url(#pc29df146f9)" style="fill: none; stroke: #ff0000; stroke-width: 1.5"/>
    <path d="M 301.932756 189.711501 
L 301.932756 189.41156 
" clip-path="url(#pc29df146f9)" style="fill: none; stroke: #ff0000; stroke-width: 1.5"/>
    <path d="M 305.483665 192.030318 
L 305.483665 191.732402 
" clip-path="url(#pc29df146f9)" style="fill: none; stroke: #ff0000; stroke-width: 1.5"/>
    <path d="M 309.034574 194.340195 
L 309.034574 194.046551 
" clip-path="url(#pc29df146f9)" style="fill: none; stroke: #ff0000; stroke-width: 1.5"/>
    <path d="M 312.585483 196.641981 
L 312.585483 196.355024 
" clip-path="url(#pc29df146f9)" style="fill: none; stroke: #ff0000; stroke-width: 1.5"/>
    <path d="M 316.136392 198.936448 
L 316.136392 198.658201 
" clip-path="url(#pc29df146f9)" style="fill: none; stroke: #ff0000; stroke-width: 1.5"/>
    <path d="M 319.687301 201.224313 
L 319.687301 200.956031 
" clip-path="url(#pc29df146f9)" style="fill: none; stroke: #ff0000; stroke-width: 1.5"/>
    <path d="M 323.23821 203.506249 
L 323.23821 203.248296 
" clip-path="url(#pc29df146f9)" style="fill: none; stroke: #ff0000; stroke-width: 1.5"/>
    <path d="M 326.789119 205.782862 
L 326.789119 205.534867 
" clip-path="url(#pc29df146f9)" style="fill: none; stroke: #ff0000; stroke-width: 1.5"/>
    <path d="M 330.340028 208.05465 
L 330.340028 207.815904 
" clip-path="url(#pc29df146f9)" style="fill: none; stroke: #ff0000; stroke-width: 1.5"/>
    <path d="M 333.890938 210.321965 
L 333.890938 210.09195 
" clip-path="url(#pc29df146f9)" style="fill: none; stroke: #ff0000; stroke-width: 1.5"/>
    <path d="M 337.441847 212.584999 
L 337.441847 212.363867 
" clip-path="url(#pc29df146f9)" style="fill: none; stroke: #ff0000; stroke-width: 1.5"/>
    <path d="M 340.992756 214.843819 
L 340.992756 214.632637 
" clip-path="url(#pc29df146f9)" style="fill: none; stroke: #ff0000; stroke-width: 1.5"/>
    <path d="M 344.543665 217.098417 
L 344.543665 216.899076 
" clip-path="url(#pc29df146f9)" style="fill: none; stroke: #ff0000; stroke-width: 1.5"/>
    <path d="M 348.094574 219.348771 
L 348.094574 219.163555 
" clip-path="url(#pc29df146f9)" style="fill: none; stroke: #ff0000; stroke-width: 1.5"/>
    <path d="M 351.645483 221.594868 
L 351.645483 221.425801 
" clip-path="url(#pc29df146f9)" style="fill: none; stroke: #ff0000; stroke-width: 1.5"/>
    <path d="M 355.196392 223.83671 
L 355.196392 223.684826 
" clip-path="url(#pc29df146f9)" style="fill: none; stroke: #ff0000; stroke-width: 1.5"/>
    <path d="M 358.747301 226.074292 
L 358.747301 225.939001 
" clip-path="url(#pc29df146f9)" style="fill: none; stroke: #ff0000; stroke-width: 1.5"/>
    <path d="M 362.29821 228.307574 
L 362.29821 228.186266 
" clip-path="url(#pc29df146f9)" style="fill: none; stroke: #ff0000; stroke-width: 1.5"/>
    <path d="M 365.849119 230.536434 
L 365.849119 230.424446 
" clip-path="url(#pc29df146f9)" style="fill: none; stroke: #ff0000; stroke-width: 1.5"/>
    <path d="M 369.400028 232.760629 
L 369.400028 232.651608 
" clip-path="url(#pc29df146f9)" style="fill: none; stroke: #ff0000; stroke-width: 1.5"/>
    <path d="M 372.950938 234.979777 
L 372.950938 234.866394 
" clip-path="url(#pc29df146f9)" style="fill: none; stroke: #ff0000; stroke-width: 1.5"/>
    <path d="M 376.501847 237.193425 
L 376.501847 237.068205 
" clip-path="url(#pc29df146f9)" style="fill: none; stroke: #ff0000; stroke-width: 1.5"/>
    <path d="M 380.052756 239.40114 
L 380.052756 239.257274 
" clip-path="url(#pc29df146f9)" style="fill: none; stroke: #ff0000; stroke-width: 1.5"/>
    <path d="M 383.603665 241.602566 
L 383.603665 241.434656 
" clip-path="url(#pc29df146f9)" style="fill: none; stroke: #ff0000; stroke-width: 1.5"/>
    <path d="M 387.154574 243.797434 
L 387.154574 243.60215 
" clip-path="url(#pc29df146f9)" style="fill: none; stroke: #ff0000; stroke-width: 1.5"/>
    <path d="M 390.705483 245.985577 
L 390.705483 245.762115 
" clip-path="url(#pc29df146f9)" style="fill: none; stroke: #ff0000; stroke-width: 1.5"/>
    <path d="M 394.256392 248.166942 
L 394.256392 247.917212 
" clip-path="url(#pc29df146f9)" style="fill: none; stroke: #ff0000; stroke-width: 1.5"/>
    <path d="M 397.807301 250.341606 
L 397.807301 250.070106 
" clip-path="url(#pc29df146f9)" style="fill: none; stroke: #ff0000; stroke-width: 1.5"/>
    <path d="M 401.35821 252.509768 
L 401.35821 252.223183 
" clip-path="url(#pc29df146f9)" style="fill: none; stroke: #ff0000; stroke-width: 1.5"/>
    <path d="M 404.909119 254.671744 
L 404.909119 254.378295 
" clip-path="url(#pc29df146f9)" style="fill: none; stroke: #ff0000; stroke-width: 1.5"/>
    <path d="M 408.460028 256.827939 
L 408.460028 256.536582 
" clip-path="url(#pc29df146f9)" style="fill: none; stroke: #ff0000; stroke-width: 1.5"/>
    <path d="M 412.010938 258.978823 
L 412.010938 258.698373 
" clip-path="url(#pc29df146f9)" style="fill: none; stroke: #ff0000; stroke-width: 1.5"/>
    <path d="M 415.561847 261.124898 
L 415.561847 260.863186 
" clip-path="url(#pc29df146f9)" style="fill: none; stroke: #ff0000; stroke-width: 1.5"/>
    <path d="M 419.112756 263.266664 
L 419.112756 263.029821 
" clip-path="url(#pc29df146f9)" style="fill: none; stroke: #ff0000; stroke-width: 1.5"/>
    <path d="M 422.663665 265.404594 
L 422.663665 265.196544 
" clip-path="url(#pc29df146f9)" style="fill: none; stroke: #ff0000; stroke-width: 1.5"/>
    <path d="M 426.214574 267.539124 
L 426.214574 267.361319 
" clip-path="url(#pc29df146f9)" style="fill: none; stroke: #ff0000; stroke-width: 1.5"/>
    <path d="M 429.765483 269.670703 
L 429.765483 269.522023 
" clip-path="url(#pc29df146f9)" style="fill: none; stroke: #ff0000; stroke-width: 1.5"/>
    <path d="M 433.316392 271.8 
L 433.316392 271.676531 
" clip-path="url(#pc29df146f9)" style="fill: none; stroke: #ff0000; stroke-width: 1.5"/>
   </g>
   <g id="LineCollection_2">
    <path d="M 78.225483 20.210864 
L 78.225483 19.8 
" clip-path="url(#pc29df146f9)" style="fill: none; stroke: #ff0000; stroke-width: 1.5"/>
    <path d="M 81.776392 22.695344 
L 81.776392 22.286411 
" clip-path="url(#pc29df146f9)" style="fill: none; stroke: #ff0000; stroke-width: 1.5"/>
    <path d="M 85.327301 25.17639 
L 85.327301 24.770086 
" clip-path="url(#pc29df146f9)" style="fill: none; stroke: #ff0000; stroke-width: 1.5"/>
    <path d="M 88.87821 27.653349 
L 88.87821 27.2511 
" clip-path="url(#pc29df146f9)" style="fill: none; stroke: #ff0000; stroke-width: 1.5"/>
    <path d="M 92.429119 30.124808 
L 92.429119 29.72917 
" clip-path="url(#pc29df146f9)" style="fill: none; stroke: #ff0000; stroke-width: 1.5"/>
    <path d="M 95.980028 32.588772 
L 95.980028 32.203671 
" clip-path="url(#pc29df146f9)" style="fill: none; stroke: #ff0000; stroke-width: 1.5"/>
    <path d="M 99.530938 35.043051 
L 99.530938 34.673742 
" clip-path="url(#pc29df146f9)" style="fill: none; stroke: #ff0000; stroke-width: 1.5"/>
    <path d="M 103.081847 37.485776 
L 103.081847 37.138442 
" clip-path="url(#pc29df146f9)" style="fill: none; stroke: #ff0000; stroke-width: 1.5"/>
    <path d="M 106.632756 39.915924 
L 106.632756 39.596914 
" clip-path="url(#pc29df146f9)" style="fill: none; stroke: #ff0000; stroke-width: 1.5"/>
    <path d="M 110.183665 42.333732 
L 110.183665 42.048526 
" clip-path="url(#pc29df146f9)" style="fill: none; stroke: #ff0000; stroke-width: 1.5"/>
    <path d="M 113.734574 44.74089 
L 113.734574 44.492945 
" clip-path="url(#pc29df146f9)" style="fill: none; stroke: #ff0000; stroke-width: 1.5"/>
    <path d="M 117.285483 47.140441 
L 117.285483 46.930167 
" clip-path="url(#pc29df146f9)" style="fill: none; stroke: #ff0000; stroke-width: 1.5"/>
    <path d="M 120.836392 49.536349 
L 120.836392 49.360555 
" clip-path="url(#pc29df146f9)" style="fill: none; stroke: #ff0000; stroke-width: 1.5"/>
    <path d="M 124.387301 51.932703 
L 124.387301 51.784993 
" clip-path="url(#pc29df146f9)" style="fill: none; stroke: #ff0000; stroke-width: 1.5"/>
    <path d="M 127.93821 54.332629 
L 127.93821 54.205235 
" clip-path="url(#pc29df146f9)" style="fill: none; stroke: #ff0000; stroke-width: 1.5"/>
    <path d="M 131.489119 56.737475 
L 131.489119 56.624017 
" clip-path="url(#pc29df146f9)" style="fill: none; stroke: #ff0000; stroke-width: 1.5"/>
    <path d="M 135.040028 59.147087 
L 135.040028 59.044254 
" clip-path="url(#pc29df146f9)" style="fill: none; stroke: #ff0000; stroke-width: 1.5"/>
    <path d="M 138.590938 61.560945 
L 138.590938 61.467654 
" clip-path="url(#pc29df146f9)" style="fill: none; stroke: #ff0000; stroke-width: 1.5"/>
    <path d="M 142.141847 63.978984 
L 142.141847 63.893938 
" clip-path="url(#pc29df146f9)" style="fill: none; stroke: #ff0000; stroke-width: 1.5"/>
    <path d="M 145.692756 66.401499 
L 145.692756 66.321251 
" clip-path="url(#pc29df146f9)" style="fill: none; stroke: #ff0000; stroke-width: 1.5"/>
    <path d="M 149.243665 68.828105 
L 149.243665 68.747697 
" clip-path="url(#pc29df146f9)" style="fill: none; stroke: #ff0000; stroke-width: 1.5"/>
    <path d="M 152.794574 71.256767 
L 152.794574 71.172878 
" clip-path="url(#pc29df146f9)" style="fill: none; stroke: #ff0000; stroke-width: 1.5"/>
    <path d="M 156.345483 73.684498 
L 156.345483 73.597704 
" clip-path="url(#pc29df146f9)" style="fill: none; stroke: #ff0000; stroke-width: 1.5"/>
    <path d="M 159.896392 76.108925 
L 159.896392 76.02319 
" clip-path="url(#pc29df146f9)" style="fill: none; stroke: #ff0000; stroke-width: 1.5"/>
    <path d="M 163.447301 78.529374 
L 163.447301 78.449552 
" clip-path="url(#pc29df146f9)" style="fill: none; stroke: #ff0000; stroke-width: 1.5"/>
    <path d="M 166.99821 80.947803 
L 166.99821 80.875242 
" clip-path="url(#pc29df146f9)" style="fill: none; stroke: #ff0000; stroke-width: 1.5"/>
    <path d="M 170.549119 83.369721 
L 170.549119 83.295868 
" clip-path="url(#pc29df146f9)" style="fill: none; stroke: #ff0000; stroke-width: 1.5"/>
    <path d="M 174.100028 85.800841 
L 174.100028 85.707292 
" clip-path="url(#pc29df146f9)" style="fill: none; stroke: #ff0000; stroke-width: 1.5"/>
    <path d="M 177.650938 88.241034 
L 177.650938 88.111424 
" clip-path="url(#pc29df146f9)" style="fill: none; stroke: #ff0000; stroke-width: 1.5"/>
    <path d="M 181.201847 90.68753 
L 181.201847 90.512827 
" clip-path="url(#pc29df146f9)" style="fill: none; stroke: #ff0000; stroke-width: 1.5"/>
    <path d="M 184.752756 93.138298 
L 184.752756 92.915207 
" clip-path="url(#pc29df146f9)" style="fill: none; stroke: #ff0000; stroke-width: 1.5"/>
    <path d="M 188.303665 95.59204 
L 188.303665 95.321396 
" clip-path="url(#pc29df146f9)" style="fill: none; stroke: #ff0000; stroke-width: 1.5"/>
    <path d="M 191.854574 98.047879 
L 191.854574 97.733681 
" clip-path="url(#pc29df146f9)" style="fill: none; stroke: #ff0000; stroke-width: 1.5"/>
    <path d="M 195.405483 100.50525 
L 195.405483 100.153945 
" clip-path="url(#pc29df146f9)" style="fill: none; stroke: #ff0000; stroke-width: 1.5"/>
    <path d="M 198.956392 102.963881 
L 198.956392 102.583706 
" clip-path="url(#pc29df146f9)" style="fill: none; stroke: #ff0000; stroke-width: 1.5"/>
    <path d="M 202.507301 105.423769 
L 202.507301 105.024098 
" clip-path="url(#pc29df146f9)" style="fill: none; stroke: #ff0000; stroke-width: 1.5"/>
    <path d="M 206.05821 107.885131 
L 206.05821 107.4758 
" clip-path="url(#pc29df146f9)" style="fill: none; stroke: #ff0000; stroke-width: 1.5"/>
    <path d="M 209.609119 110.348332 
L 209.609119 109.938943 
" clip-path="url(#pc29df146f9)" style="fill: none; stroke: #ff0000; stroke-width: 1.5"/>
    <path d="M 213.160028 112.813787 
L 213.160028 112.412997 
" clip-path="url(#pc29df146f9)" style="fill: none; stroke: #ff0000; stroke-width: 1.5"/>
    <path d="M 216.710938 115.281857 
L 216.710938 114.896695 
" clip-path="url(#pc29df146f9)" style="fill: none; stroke: #ff0000; stroke-width: 1.5"/>
    <path d="M 220.261847 117.752721 
L 220.261847 117.388034 
" clip-path="url(#pc29df146f9)" style="fill: none; stroke: #ff0000; stroke-width: 1.5"/>
    <path d="M 223.812756 120.226254 
L 223.812756 119.884408 
" clip-path="url(#pc29df146f9)" style="fill: none; stroke: #ff0000; stroke-width: 1.5"/>
    <path d="M 227.363665 122.701879 
L 227.363665 122.382897 
" clip-path="url(#pc29df146f9)" style="fill: none; stroke: #ff0000; stroke-width: 1.5"/>
    <path d="M 230.914574 125.17847 
L 230.914574 124.880683 
" clip-path="url(#pc29df146f9)" style="fill: none; stroke: #ff0000; stroke-width: 1.5"/>
    <path d="M 234.465483 127.654389 
L 234.465483 127.375458 
" clip-path="url(#pc29df146f9)" style="fill: none; stroke: #ff0000; stroke-width: 1.5"/>
    <path d="M 238.016392 130.127807 
L 238.016392 129.865655 
" clip-path="url(#pc29df146f9)" style="fill: none; stroke: #ff0000; stroke-width: 1.5"/>
    <path d="M 241.567301 132.597329 
L 241.567301 132.350376 
" clip-path="url(#pc29df146f9)" style="fill: none; stroke: #ff0000; stroke-width: 1.5"/>
    <path d="M 245.11821 135.0628 
L 245.11821 134.829096 
" clip-path="url(#pc29df146f9)" style="fill: none; stroke: #ff0000; stroke-width: 1.5"/>
    <path d="M 248.669119 137.525953 
L 248.669119 137.301371 
" clip-path="url(#pc29df146f9)" style="fill: none; stroke: #ff0000; stroke-width: 1.5"/>
    <path d="M 252.220028 139.990474 
L 252.220028 139.766928 
" clip-path="url(#pc29df146f9)" style="fill: none; stroke: #ff0000; stroke-width: 1.5"/>
    <path d="M 255.770938 142.461018 
L 255.770938 142.226564 
" clip-path="url(#pc29df146f9)" style="fill: none; stroke: #ff0000; stroke-width: 1.5"/>
    <path d="M 259.321847 144.941568 
L 259.321847 144.683442 
" clip-path="url(#pc29df146f9)" style="fill: none; stroke: #ff0000; stroke-width: 1.5"/>
    <path d="M 262.872756 147.434678 
L 262.872756 147.143287 
" clip-path="url(#pc29df146f9)" style="fill: none; stroke: #ff0000; stroke-width: 1.5"/>
    <path d="M 266.423665 149.941995 
L 266.423665 149.613126 
" clip-path="url(#pc29df146f9)" style="fill: none; stroke: #ff0000; stroke-width: 1.5"/>
    <path d="M 269.974574 152.464924 
L 269.974574 152.099786 
" clip-path="url(#pc29df146f9)" style="fill: none; stroke: #ff0000; stroke-width: 1.5"/>
    <path d="M 273.525483 155.004807 
L 273.525483 154.608863 
" clip-path="url(#pc29df146f9)" style="fill: none; stroke: #ff0000; stroke-width: 1.5"/>
    <path d="M 277.076392 157.562812 
L 277.076392 157.144071 
" clip-path="url(#pc29df146f9)" style="fill: none; stroke: #ff0000; stroke-width: 1.5"/>
    <path d="M 280.627301 160.139743 
L 280.627301 159.706826 
" clip-path="url(#pc29df146f9)" style="fill: none; stroke: #ff0000; stroke-width: 1.5"/>
    <path d="M 284.17821 162.735863 
L 284.17821 162.296063 
" clip-path="url(#pc29df146f9)" style="fill: none; stroke: #ff0000; stroke-width: 1.5"/>
    <path d="M 287.729119 165.350694 
L 287.729119 164.908347 
" clip-path="url(#pc29df146f9)" style="fill: none; stroke: #ff0000; stroke-width: 1.5"/>
    <path d="M 291.280028 167.982758 
L 291.280028 167.538355 
" clip-path="url(#pc29df146f9)" style="fill: none; stroke: #ff0000; stroke-width: 1.5"/>
    <path d="M 294.830938 170.629239 
L 294.830938 170.179705 
" clip-path="url(#pc29df146f9)" style="fill: none; stroke: #ff0000; stroke-width: 1.5"/>
    <path d="M 298.381847 173.28574 
L 298.381847 172.825907 
" clip-path="url(#pc29df146f9)" style="fill: none; stroke: #ff0000; stroke-width: 1.5"/>
    <path d="M 301.932756 175.94641 
L 301.932756 175.471107 
" clip-path="url(#pc29df146f9)" style="fill: none; stroke: #ff0000; stroke-width: 1.5"/>
    <path d="M 305.483665 178.604566 
L 305.483665 178.11035 
" clip-path="url(#pc29df146f9)" style="fill: none; stroke: #ff0000; stroke-width: 1.5"/>
    <path d="M 309.034574 181.253604 
L 309.034574 180.739504 
" clip-path="url(#pc29df146f9)" style="fill: none; stroke: #ff0000; stroke-width: 1.5"/>
    <path d="M 312.585483 183.887807 
L 312.585483 183.355122 
" clip-path="url(#pc29df146f9)" style="fill: none; stroke: #ff0000; stroke-width: 1.5"/>
    <path d="M 316.136392 186.502804 
L 316.136392 185.954421 
" clip-path="url(#pc29df146f9)" style="fill: none; stroke: #ff0000; stroke-width: 1.5"/>
    <path d="M 319.687301 189.09565 
L 319.687301 188.535369 
" clip-path="url(#pc29df146f9)" style="fill: none; stroke: #ff0000; stroke-width: 1.5"/>
    <path d="M 323.23821 191.66463 
L 323.23821 191.096805 
" clip-path="url(#pc29df146f9)" style="fill: none; stroke: #ff0000; stroke-width: 1.5"/>
    <path d="M 326.789119 194.208922 
L 326.789119 193.638473 
" clip-path="url(#pc29df146f9)" style="fill: none; stroke: #ff0000; stroke-width: 1.5"/>
    <path d="M 330.340028 196.728273 
L 330.340028 196.160936 
" clip-path="url(#pc29df146f9)" style="fill: none; stroke: #ff0000; stroke-width: 1.5"/>
    <path d="M 333.890938 199.222781 
L 333.890938 198.665328 
" clip-path="url(#pc29df146f9)" style="fill: none; stroke: #ff0000; stroke-width: 1.5"/>
    <path d="M 337.441847 201.692845 
L 337.441847 201.153004 
" clip-path="url(#pc29df146f9)" style="fill: none; stroke: #ff0000; stroke-width: 1.5"/>
    <path d="M 340.992756 204.139288 
L 340.992756 203.625119 
" clip-path="url(#pc29df146f9)" style="fill: none; stroke: #ff0000; stroke-width: 1.5"/>
    <path d="M 344.543665 206.563618 
L 344.543665 206.082204 
" clip-path="url(#pc29df146f9)" style="fill: none; stroke: #ff0000; stroke-width: 1.5"/>
    <path d="M 348.094574 208.968405 
L 348.094574 208.523754 
" clip-path="url(#pc29df146f9)" style="fill: none; stroke: #ff0000; stroke-width: 1.5"/>
    <path d="M 351.645483 211.357663 
L 351.645483 210.947899 
" clip-path="url(#pc29df146f9)" style="fill: none; stroke: #ff0000; stroke-width: 1.5"/>
    <path d="M 355.196392 213.736848 
L 355.196392 213.351482 
" clip-path="url(#pc29df146f9)" style="fill: none; stroke: #ff0000; stroke-width: 1.5"/>
    <path d="M 358.747301 216.111679 
L 358.747301 215.731286 
" clip-path="url(#pc29df146f9)" style="fill: none; stroke: #ff0000; stroke-width: 1.5"/>
    <path d="M 362.29821 218.485546 
L 362.29821 218.086616 
" clip-path="url(#pc29df146f9)" style="fill: none; stroke: #ff0000; stroke-width: 1.5"/>
    <path d="M 365.849119 220.857852 
L 365.849119 220.420861 
" clip-path="url(#pc29df146f9)" style="fill: none; stroke: #ff0000; stroke-width: 1.5"/>
    <path d="M 369.400028 223.225358 
L 369.400028 222.739995 
" clip-path="url(#pc29df146f9)" style="fill: none; stroke: #ff0000; stroke-width: 1.5"/>
    <path d="M 372.950938 225.584508 
L 372.950938 225.050061 
" clip-path="url(#pc29df146f9)" style="fill: none; stroke: #ff0000; stroke-width: 1.5"/>
    <path d="M 376.501847 227.932596 
L 376.501847 227.355825 
" clip-path="url(#pc29df146f9)" style="fill: none; stroke: #ff0000; stroke-width: 1.5"/>
    <path d="M 380.052756 230.267954 
L 380.052756 229.660467 
" clip-path="url(#pc29df146f9)" style="fill: none; stroke: #ff0000; stroke-width: 1.5"/>
    <path d="M 383.603665 232.589816 
L 383.603665 231.965663 
" clip-path="url(#pc29df146f9)" style="fill: none; stroke: #ff0000; stroke-width: 1.5"/>
    <path d="M 387.154574 234.898142 
L 387.154574 234.271812 
" clip-path="url(#pc29df146f9)" style="fill: none; stroke: #ff0000; stroke-width: 1.5"/>
    <path d="M 390.705483 237.193449 
L 390.705483 236.578324 
" clip-path="url(#pc29df146f9)" style="fill: none; stroke: #ff0000; stroke-width: 1.5"/>
    <path d="M 394.256392 239.476652 
L 394.256392 238.883961 
" clip-path="url(#pc29df146f9)" style="fill: none; stroke: #ff0000; stroke-width: 1.5"/>
    <path d="M 397.807301 241.748904 
L 397.807301 241.187182 
" clip-path="url(#pc29df146f9)" style="fill: none; stroke: #ff0000; stroke-width: 1.5"/>
    <path d="M 401.35821 244.011454 
L 401.35821 243.486465 
" clip-path="url(#pc29df146f9)" style="fill: none; stroke: #ff0000; stroke-width: 1.5"/>
    <path d="M 404.909119 246.26552 
L 404.909119 245.780554 
" clip-path="url(#pc29df146f9)" style="fill: none; stroke: #ff0000; stroke-width: 1.5"/>
    <path d="M 408.460028 248.512192 
L 408.460028 248.068606 
" clip-path="url(#pc29df146f9)" style="fill: none; stroke: #ff0000; stroke-width: 1.5"/>
    <path d="M 412.010938 250.75238 
L 412.010938 250.350234 
" clip-path="url(#pc29df146f9)" style="fill: none; stroke: #ff0000; stroke-width: 1.5"/>
    <path d="M 415.561847 252.986802 
L 415.561847 252.625438 
" clip-path="url(#pc29df146f9)" style="fill: none; stroke: #ff0000; stroke-width: 1.5"/>
    <path d="M 419.112756 255.216003 
L 419.112756 254.894462 
" clip-path="url(#pc29df146f9)" style="fill: none; stroke: #ff0000; stroke-width: 1.5"/>
    <path d="M 422.663665 257.440417 
L 422.663665 257.157593 
" clip-path="url(#pc29df146f9)" style="fill: none; stroke: #ff0000; stroke-width: 1.5"/>
    <path d="M 426.214574 259.660427 
L 426.214574 259.414957 
" clip-path="url(#pc29df146f9)" style="fill: none; stroke: #ff0000; stroke-width: 1.5"/>
    <path d="M 429.765483 261.87643 
L 429.765483 261.666344 
" clip-path="url(#pc29df146f9)" style="fill: none; stroke: #ff0000; stroke-width: 1.5"/>
    <path d="M 433.316392 264.088857 
L 433.316392 263.911114 
" clip-path="url(#pc29df146f9)" style="fill: none; stroke: #ff0000; stroke-width: 1.5"/>
   </g>
   <g id="line2d_10">
    <path d="M 78.225483 20.037278 
L 81.776392 22.536035 
L 85.327301 25.025938 
L 88.87821 27.505639 
L 92.429119 29.9745 
L 95.980028 32.432714 
L 99.530938 34.881309 
L 103.081847 37.322047 
L 106.632756 39.757243 
L 110.183665 42.189531 
L 113.734574 44.621654 
L 117.285483 47.056273 
L 120.836392 49.495863 
L 124.387301 51.94269 
L 127.93821 54.39886 
L 131.489119 56.866427 
L 135.040028 59.34751 
L 138.590938 61.844376 
L 142.141847 64.359454 
L 145.692756 66.895259 
L 149.243665 69.454249 
L 152.794574 72.038635 
L 156.345483 74.650229 
L 159.896392 77.290397 
L 163.447301 79.960171 
L 166.99821 82.660555 
L 170.549119 85.392964 
L 174.100028 88.159715 
L 177.650938 90.964393 
L 181.201847 93.811944 
L 184.752756 96.708341 
L 188.303665 99.659777 
L 191.854574 102.671436 
L 195.405483 105.746036 
L 198.956392 108.882439 
L 202.507301 112.074677 
L 206.05821 115.311709 
L 209.609119 118.578059 
L 213.160028 121.855277 
L 216.710938 125.12392 
L 220.261847 128.365621 
L 223.812756 131.564823 
L 227.363665 134.709865 
L 230.914574 137.793339 
L 234.465483 140.811819 
L 238.016392 143.765153 
L 241.567301 146.655553 
L 245.11821 149.486681 
L 248.669119 152.262858 
L 252.220028 154.988469 
L 255.770938 157.667581 
L 259.321847 160.303767 
L 262.872756 162.900094 
L 266.423665 165.459219 
L 269.974574 167.983562 
L 273.525483 170.475472 
L 277.076392 172.937374 
L 280.627301 175.371858 
L 284.17821 177.781693 
L 287.729119 180.169788 
L 291.280028 182.53909 
L 294.830938 184.892455 
L 298.381847 187.232509 
L 301.932756 189.56153 
L 305.483665 191.88136 
L 309.034574 194.193373 
L 312.585483 196.498503 
L 316.136392 198.797325 
L 319.687301 201.090172 
L 323.23821 203.377273 
L 326.789119 205.658864 
L 330.340028 207.935277 
L 333.890938 210.206957 
L 337.441847 212.474433 
L 340.992756 214.738228 
L 344.543665 216.998747 
L 348.094574 219.256163 
L 351.645483 221.510335 
L 355.196392 223.760768 
L 358.747301 226.006646 
L 362.29821 228.24692 
L 365.849119 230.48044 
L 369.400028 232.706118 
L 372.950938 234.923085 
L 376.501847 237.130815 
L 380.052756 239.329207 
L 383.603665 241.518611 
L 387.154574 243.699792 
L 390.705483 245.873846 
L 394.256392 248.042077 
L 397.807301 250.205856 
L 401.35821 252.366475 
L 404.909119 254.525019 
L 408.460028 256.682261 
L 412.010938 258.838598 
L 415.561847 260.994042 
L 419.112756 263.148242 
L 422.663665 265.300569 
L 426.214574 267.450221 
L 429.765483 269.596363 
L 433.316392 271.738266 
" clip-path="url(#pc29df146f9)" style="fill: none; stroke: #1f77b4; stroke-width: 1.5; stroke-linecap: square"/>
   </g>
   <g id="line2d_11">
    <path d="M 78.225483 20.005432 
L 81.776392 22.490878 
L 85.327301 24.973238 
L 88.87821 27.452225 
L 92.429119 29.926989 
L 95.980028 32.396222 
L 99.530938 34.858397 
L 103.081847 37.312109 
L 106.632756 39.756419 
L 110.183665 42.191129 
L 113.734574 44.616917 
L 117.285483 47.035304 
L 120.836392 49.448452 
L 124.387301 51.858848 
L 127.93821 54.268932 
L 131.489119 56.680746 
L 135.040028 59.09567 
L 138.590938 61.5143 
L 142.141847 63.936461 
L 145.692756 66.361375 
L 149.243665 68.787901 
L 152.794574 71.214823 
L 156.345483 73.641101 
L 159.896392 76.066058 
L 163.447301 78.489463 
L 166.99821 80.911522 
L 170.549119 83.332794 
L 174.100028 85.754066 
L 177.650938 88.176229 
L 181.201847 90.600178 
L 184.752756 93.026752 
L 188.303665 95.456718 
L 191.854574 97.89078 
L 195.405483 100.329597 
L 198.956392 102.773794 
L 202.507301 105.223934 
L 206.05821 107.680466 
L 209.609119 110.143638 
L 213.160028 112.613392 
L 216.710938 115.089276 
L 220.261847 117.570378 
L 223.812756 120.055331 
L 227.363665 122.542388 
L 230.914574 125.029576 
L 234.465483 127.514924 
L 238.016392 129.996731 
L 241.567301 132.473852 
L 245.11821 134.945948 
L 248.669119 137.413662 
L 252.220028 139.878701 
L 255.770938 142.343791 
L 259.321847 144.812505 
L 262.872756 147.288983 
L 266.423665 149.777561 
L 269.974574 152.282355 
L 273.525483 154.806835 
L 277.076392 157.353442 
L 280.627301 159.923285 
L 284.17821 162.515963 
L 287.729119 165.129521 
L 291.280028 167.760557 
L 294.830938 170.404472 
L 298.381847 173.055824 
L 301.932756 175.708759 
L 305.483665 178.357458 
L 309.034574 180.996554 
L 312.585483 183.621464 
L 316.136392 186.228612 
L 319.687301 188.81551 
L 323.23821 191.380717 
L 326.789119 193.923698 
L 330.340028 196.444604 
L 333.890938 198.944054 
L 337.441847 201.422925 
L 340.992756 203.882204 
L 344.543665 206.322911 
L 348.094574 208.746079 
L 351.645483 211.152781 
L 355.196392 213.544165 
L 358.747301 215.921483 
L 362.29821 218.286081 
L 365.849119 220.639356 
L 369.400028 222.982676 
L 372.950938 225.317284 
L 376.501847 227.644211 
L 380.052756 229.964211 
L 383.603665 232.27774 
L 387.154574 234.584977 
L 390.705483 236.885887 
L 394.256392 239.180306 
L 397.807301 241.468043 
L 401.35821 243.74896 
L 404.909119 246.023037 
L 408.460028 248.290399 
L 412.010938 250.551307 
L 415.561847 252.80612 
L 419.112756 255.055233 
L 422.663665 257.299005 
L 426.214574 259.537692 
L 429.765483 261.771387 
L 433.316392 263.999986 
" clip-path="url(#pc29df146f9)" style="fill: none; stroke: #ff7f0e; stroke-width: 1.5; stroke-linecap: square"/>
   </g>
   <g id="patch_3">
    <path d="M 60.470938 284.4 
L 60.470938 7.2 
" style="fill: none; stroke: #000000; stroke-width: 0.8; stroke-linejoin: miter; stroke-linecap: square"/>
   </g>
   <g id="patch_4">
    <path d="M 451.070938 284.4 
L 451.070938 7.2 
" style="fill: none; stroke: #000000; stroke-width: 0.8; stroke-linejoin: miter; stroke-linecap: square"/>
   </g>
   <g id="patch_5">
    <path d="M 60.470938 284.4 
L 451.070938 284.4 
" style="fill: none; stroke: #000000; stroke-width: 0.8; stroke-linejoin: miter; stroke-linecap: square"/>
   </g>
   <g id="patch_6">
    <path d="M 60.470938 7.2 
L 451.070938 7.2 
" style="fill: none; stroke: #000000; stroke-width: 0.8; stroke-linejoin: miter; stroke-linecap: square"/>
   </g>
   <g id="legend_1">
    <g id="patch_7">
     <path d="M 368.062187 48.291875 
L 443.370938 48.291875 
Q 445.570938 48.291875 445.570938 46.091875 
L 445.570938 14.9 
Q 445.570938 12.7 443.370938 12.7 
L 368.062187 12.7 
Q 365.862188 12.7 365.862188 14.9 
L 365.862188 46.091875 
Q 365.862188 48.291875 368.062187 48.291875 
z
" style="fill: #ffffff; opacity: 0.8; stroke: #cccccc; stroke-linejoin: miter"/>
    </g>
    <g id="LineCollection_3">
     <path d="M 381.262187 27.108281 
L 381.262187 16.108281 
" style="fill: none; stroke: #ff0000; stroke-width: 1.5"/>
    </g>
    <g id="line2d_12">
     <path d="M 370.262187 21.608281 
L 392.262187 21.608281 
" style="fill: none; stroke: #1f77b4; stroke-width: 1.5; stroke-linecap: square"/>
    </g>
    <g id="line2d_13"/>
    <g id="text_12">
     <!-- notwist -->
     <g transform="translate(401.062187 25.458281) scale(0.11 -0.11)">
      <defs>
       <path id="DejaVuSans-6e" d="M 3513 2113 
L 3513 0 
L 2938 0 
L 2938 2094 
Q 2938 2591 2744 2837 
Q 2550 3084 2163 3084 
Q 1697 3084 1428 2787 
Q 1159 2491 1159 1978 
L 1159 0 
L 581 0 
L 581 3500 
L 1159 3500 
L 1159 2956 
Q 1366 3272 1645 3428 
Q 1925 3584 2291 3584 
Q 2894 3584 3203 3211 
Q 3513 2838 3513 2113 
z
" transform="scale(0.015625)"/>
       <path id="DejaVuSans-6f" d="M 1959 3097 
Q 1497 3097 1228 2736 
Q 959 2375 959 1747 
Q 959 1119 1226 758 
Q 1494 397 1959 397 
Q 2419 397 2687 759 
Q 2956 1122 2956 1747 
Q 2956 2369 2687 2733 
Q 2419 3097 1959 3097 
z
M 1959 3584 
Q 2709 3584 3137 3096 
Q 3566 2609 3566 1747 
Q 3566 888 3137 398 
Q 2709 -91 1959 -91 
Q 1206 -91 779 398 
Q 353 888 353 1747 
Q 353 2609 779 3096 
Q 1206 3584 1959 3584 
z
" transform="scale(0.015625)"/>
       <path id="DejaVuSans-74" d="M 1172 4494 
L 1172 3500 
L 2356 3500 
L 2356 3053 
L 1172 3053 
L 1172 1153 
Q 1172 725 1289 603 
Q 1406 481 1766 481 
L 2356 481 
L 2356 0 
L 1766 0 
Q 1100 0 847 248 
Q 594 497 594 1153 
L 594 3053 
L 172 3053 
L 172 3500 
L 594 3500 
L 594 4494 
L 1172 4494 
z
" transform="scale(0.015625)"/>
       <path id="DejaVuSans-77" d="M 269 3500 
L 844 3500 
L 1563 769 
L 2278 3500 
L 2956 3500 
L 3675 769 
L 4391 3500 
L 4966 3500 
L 4050 0 
L 3372 0 
L 2619 2869 
L 1863 0 
L 1184 0 
L 269 3500 
z
" transform="scale(0.015625)"/>
       <path id="DejaVuSans-69" d="M 603 3500 
L 1178 3500 
L 1178 0 
L 603 0 
L 603 3500 
z
M 603 4863 
L 1178 4863 
L 1178 4134 
L 603 4134 
L 603 4863 
z
" transform="scale(0.015625)"/>
       <path id="DejaVuSans-73" d="M 2834 3397 
L 2834 2853 
Q 2591 2978 2328 3040 
Q 2066 3103 1784 3103 
Q 1356 3103 1142 2972 
Q 928 2841 928 2578 
Q 928 2378 1081 2264 
Q 1234 2150 1697 2047 
L 1894 2003 
Q 2506 1872 2764 1633 
Q 3022 1394 3022 966 
Q 3022 478 2636 193 
Q 2250 -91 1575 -91 
Q 1294 -91 989 -36 
Q 684 19 347 128 
L 347 722 
Q 666 556 975 473 
Q 1284 391 1588 391 
Q 1994 391 2212 530 
Q 2431 669 2431 922 
Q 2431 1156 2273 1281 
Q 2116 1406 1581 1522 
L 1381 1569 
Q 847 1681 609 1914 
Q 372 2147 372 2553 
Q 372 3047 722 3315 
Q 1072 3584 1716 3584 
Q 2034 3584 2315 3537 
Q 2597 3491 2834 3397 
z
" transform="scale(0.015625)"/>
      </defs>
      <use xlink:href="#DejaVuSans-6e"/>
      <use xlink:href="#DejaVuSans-6f" x="63.378906"/>
      <use xlink:href="#DejaVuSans-74" x="124.560547"/>
      <use xlink:href="#DejaVuSans-77" x="163.769531"/>
      <use xlink:href="#DejaVuSans-69" x="245.556641"/>
      <use xlink:href="#DejaVuSans-73" x="273.339844"/>
      <use xlink:href="#DejaVuSans-74" x="325.439453"/>
     </g>
    </g>
    <g id="LineCollection_4">
     <path d="M 381.262187 43.254219 
L 381.262187 32.254219 
" style="fill: none; stroke: #ff0000; stroke-width: 1.5"/>
    </g>
    <g id="line2d_14">
     <path d="M 370.262187 37.754219 
L 392.262187 37.754219 
" style="fill: none; stroke: #ff7f0e; stroke-width: 1.5; stroke-linecap: square"/>
    </g>
    <g id="line2d_15"/>
    <g id="text_13">
     <!-- twist -->
     <g transform="translate(401.062187 41.604219) scale(0.11 -0.11)">
      <use xlink:href="#DejaVuSans-74"/>
      <use xlink:href="#DejaVuSans-77" x="39.208984"/>
      <use xlink:href="#DejaVuSans-69" x="120.996094"/>
      <use xlink:href="#DejaVuSans-73" x="148.779297"/>
      <use xlink:href="#DejaVuSans-74" x="200.878906"/>
     </g>
    </g>
   </g>
  </g>
  <g id="text_14">
   <!-- Twist coefficients $z_0$ and $z_1$. M=5 Jackknife bins -->
   <g transform="translate(47.870938 327.6) scale(0.11 -0.11)">
    <defs>
     <path id="DejaVuSans-Oblique-54" d="M 378 4666 
L 4325 4666 
L 4225 4134 
L 2559 4134 
L 1759 0 
L 1125 0 
L 1925 4134 
L 275 4134 
L 378 4666 
z
" transform="scale(0.015625)"/>
     <path id="DejaVuSans-Oblique-77" d="M 544 3500 
L 1113 3500 
L 1259 684 
L 2566 3500 
L 3231 3500 
L 3425 684 
L 4666 3500 
L 5241 3500 
L 3641 0 
L 2969 0 
L 2797 2900 
L 1459 0 
L 781 0 
L 544 3500 
z
" transform="scale(0.015625)"/>
     <path id="DejaVuSans-Oblique-69" d="M 1172 4863 
L 1747 4863 
L 1606 4134 
L 1031 4134 
L 1172 4863 
z
M 909 3500 
L 1484 3500 
L 800 0 
L 225 0 
L 909 3500 
z
" transform="scale(0.015625)"/>
     <path id="DejaVuSans-Oblique-73" d="M 3200 3397 
L 3091 2853 
Q 2863 2978 2609 3040 
Q 2356 3103 2088 3103 
Q 1634 3103 1373 2948 
Q 1113 2794 1113 2528 
Q 1113 2219 1719 2053 
Q 1766 2041 1788 2034 
L 1972 1978 
Q 2547 1819 2739 1644 
Q 2931 1469 2931 1166 
Q 2931 609 2489 259 
Q 2047 -91 1331 -91 
Q 1053 -91 747 -37 
Q 441 16 72 128 
L 184 722 
Q 500 559 806 475 
Q 1113 391 1394 391 
Q 1816 391 2080 572 
Q 2344 753 2344 1031 
Q 2344 1331 1650 1516 
L 1591 1531 
L 1394 1581 
Q 956 1697 753 1886 
Q 550 2075 550 2369 
Q 550 2928 970 3256 
Q 1391 3584 2113 3584 
Q 2397 3584 2667 3537 
Q 2938 3491 3200 3397 
z
" transform="scale(0.015625)"/>
     <path id="DejaVuSans-Oblique-74" d="M 2706 3500 
L 2619 3053 
L 1472 3053 
L 1100 1153 
Q 1081 1047 1072 975 
Q 1063 903 1063 863 
Q 1063 663 1183 572 
Q 1303 481 1569 481 
L 2150 481 
L 2053 0 
L 1503 0 
Q 991 0 739 200 
Q 488 400 488 806 
Q 488 878 497 964 
Q 506 1050 525 1153 
L 897 3053 
L 409 3053 
L 500 3500 
L 978 3500 
L 1172 4494 
L 1747 4494 
L 1556 3500 
L 2706 3500 
z
" transform="scale(0.015625)"/>
     <path id="DejaVuSans-Oblique-20" transform="scale(0.015625)"/>
     <path id="DejaVuSans-Oblique-63" d="M 3431 3366 
L 3316 2797 
Q 3109 2947 2876 3022 
Q 2644 3097 2394 3097 
Q 2119 3097 1870 3000 
Q 1622 2903 1453 2725 
Q 1184 2453 1037 2087 
Q 891 1722 891 1331 
Q 891 859 1127 628 
Q 1363 397 1844 397 
Q 2081 397 2348 469 
Q 2616 541 2906 684 
L 2797 116 
Q 2547 13 2283 -39 
Q 2019 -91 1741 -91 
Q 1044 -91 669 257 
Q 294 606 294 1253 
Q 294 1797 489 2255 
Q 684 2713 1069 3078 
Q 1331 3328 1684 3456 
Q 2038 3584 2456 3584 
Q 2700 3584 2940 3529 
Q 3181 3475 3431 3366 
z
" transform="scale(0.015625)"/>
     <path id="DejaVuSans-Oblique-6f" d="M 1625 -91 
Q 1009 -91 651 289 
Q 294 669 294 1325 
Q 294 1706 417 2101 
Q 541 2497 738 2766 
Q 1047 3184 1428 3384 
Q 1809 3584 2291 3584 
Q 2888 3584 3255 3212 
Q 3622 2841 3622 2241 
Q 3622 1825 3500 1412 
Q 3378 1000 3181 728 
Q 2875 309 2494 109 
Q 2113 -91 1625 -91 
z
M 891 1344 
Q 891 869 1089 633 
Q 1288 397 1691 397 
Q 2269 397 2648 901 
Q 3028 1406 3028 2181 
Q 3028 2634 2825 2865 
Q 2622 3097 2228 3097 
Q 1903 3097 1650 2945 
Q 1397 2794 1197 2484 
Q 1050 2253 970 1956 
Q 891 1659 891 1344 
z
" transform="scale(0.015625)"/>
     <path id="DejaVuSans-Oblique-65" d="M 3078 2063 
Q 3088 2113 3092 2166 
Q 3097 2219 3097 2272 
Q 3097 2653 2873 2875 
Q 2650 3097 2266 3097 
Q 1838 3097 1509 2826 
Q 1181 2556 1013 2059 
L 3078 2063 
z
M 3578 1613 
L 903 1613 
Q 884 1494 878 1425 
Q 872 1356 872 1306 
Q 872 872 1139 634 
Q 1406 397 1894 397 
Q 2269 397 2603 481 
Q 2938 566 3225 728 
L 3116 159 
Q 2806 34 2476 -28 
Q 2147 -91 1806 -91 
Q 1078 -91 686 257 
Q 294 606 294 1247 
Q 294 1794 489 2264 
Q 684 2734 1063 3103 
Q 1306 3334 1642 3459 
Q 1978 3584 2356 3584 
Q 2950 3584 3301 3228 
Q 3653 2872 3653 2272 
Q 3653 2128 3634 1964 
Q 3616 1800 3578 1613 
z
" transform="scale(0.015625)"/>
     <path id="DejaVuSans-Oblique-66" d="M 3059 4863 
L 2969 4384 
L 2419 4384 
Q 2106 4384 1964 4261 
Q 1822 4138 1753 3809 
L 1691 3500 
L 2638 3500 
L 2553 3053 
L 1606 3053 
L 1013 0 
L 434 0 
L 1031 3053 
L 481 3053 
L 563 3500 
L 1113 3500 
L 1159 3744 
Q 1278 4363 1576 4613 
Q 1875 4863 2516 4863 
L 3059 4863 
z
" transform="scale(0.015625)"/>
     <path id="DejaVuSans-Oblique-6e" d="M 3566 2113 
L 3156 0 
L 2578 0 
L 2988 2091 
Q 3016 2238 3031 2350 
Q 3047 2463 3047 2528 
Q 3047 2791 2881 2937 
Q 2716 3084 2419 3084 
Q 1956 3084 1622 2776 
Q 1288 2469 1184 1941 
L 800 0 
L 225 0 
L 903 3500 
L 1478 3500 
L 1363 2950 
Q 1603 3253 1940 3418 
Q 2278 3584 2650 3584 
Q 3113 3584 3367 3334 
Q 3622 3084 3622 2631 
Q 3622 2519 3608 2391 
Q 3594 2263 3566 2113 
z
" transform="scale(0.015625)"/>
     <path id="DejaVuSans-Oblique-7a" d="M 744 3500 
L 3475 3500 
L 3372 2975 
L 738 459 
L 2913 459 
L 2822 0 
L -19 0 
L 84 525 
L 2719 3041 
L 653 3041 
L 744 3500 
z
" transform="scale(0.015625)"/>
     <path id="DejaVuSans-Oblique-61" d="M 3438 1997 
L 3047 0 
L 2472 0 
L 2578 531 
Q 2325 219 2001 64 
Q 1678 -91 1281 -91 
Q 834 -91 548 182 
Q 263 456 263 884 
Q 263 1497 752 1853 
Q 1241 2209 2100 2209 
L 2900 2209 
L 2931 2363 
Q 2938 2388 2941 2417 
Q 2944 2447 2944 2509 
Q 2944 2788 2717 2942 
Q 2491 3097 2081 3097 
Q 1800 3097 1504 3025 
Q 1209 2953 897 2809 
L 997 3341 
Q 1322 3463 1633 3523 
Q 1944 3584 2234 3584 
Q 2853 3584 3176 3315 
Q 3500 3047 3500 2534 
Q 3500 2431 3484 2292 
Q 3469 2153 3438 1997 
z
M 2816 1759 
L 2241 1759 
Q 1534 1759 1195 1570 
Q 856 1381 856 984 
Q 856 709 1029 553 
Q 1203 397 1509 397 
Q 1978 397 2328 733 
Q 2678 1069 2791 1631 
L 2816 1759 
z
" transform="scale(0.015625)"/>
     <path id="DejaVuSans-Oblique-64" d="M 2675 525 
Q 2444 222 2128 65 
Q 1813 -91 1428 -91 
Q 903 -91 598 267 
Q 294 625 294 1247 
Q 294 1766 478 2236 
Q 663 2706 1013 3078 
Q 1244 3325 1534 3454 
Q 1825 3584 2144 3584 
Q 2481 3584 2739 3421 
Q 2997 3259 3138 2956 
L 3513 4863 
L 4091 4863 
L 3144 0 
L 2566 0 
L 2675 525 
z
M 891 1350 
Q 891 897 1095 644 
Q 1300 391 1663 391 
Q 1931 391 2161 520 
Q 2391 650 2566 903 
Q 2750 1166 2856 1509 
Q 2963 1853 2963 2188 
Q 2963 2622 2758 2865 
Q 2553 3109 2194 3109 
Q 1922 3109 1687 2981 
Q 1453 2853 1288 2613 
Q 1106 2353 998 2009 
Q 891 1666 891 1350 
z
" transform="scale(0.015625)"/>
     <path id="DejaVuSans-Oblique-2e" d="M 525 794 
L 1184 794 
L 1031 0 
L 372 0 
L 525 794 
z
" transform="scale(0.015625)"/>
     <path id="DejaVuSans-Oblique-4d" d="M 1081 4666 
L 2028 4666 
L 2572 1522 
L 4378 4666 
L 5350 4666 
L 4441 0 
L 3828 0 
L 4622 4091 
L 2791 897 
L 2175 897 
L 1581 4103 
L 788 0 
L 172 0 
L 1081 4666 
z
" transform="scale(0.015625)"/>
     <path id="DejaVuSans-Oblique-3d" d="M 678 2906 
L 4684 2906 
L 4684 2381 
L 678 2381 
L 678 2906 
z
M 678 1631 
L 4684 1631 
L 4684 1100 
L 678 1100 
L 678 1631 
z
" transform="scale(0.015625)"/>
     <path id="DejaVuSans-Oblique-35" d="M 3719 4666 
L 3622 4141 
L 1691 4141 
L 1466 2988 
Q 1609 3034 1757 3056 
Q 1906 3078 2059 3078 
Q 2706 3078 3081 2731 
Q 3456 2384 3456 1791 
Q 3456 1375 3264 994 
Q 3072 613 2719 325 
Q 2469 125 2108 17 
Q 1747 -91 1319 -91 
Q 1038 -91 744 -41 
Q 450 9 128 109 
L 244 697 
Q 531 556 820 486 
Q 1109 416 1403 416 
Q 2013 416 2411 781 
Q 2809 1147 2809 1697 
Q 2809 2103 2548 2328 
Q 2288 2553 1819 2553 
Q 1572 2553 1305 2495 
Q 1038 2438 756 2322 
L 1209 4666 
L 3719 4666 
z
" transform="scale(0.015625)"/>
     <path id="DejaVuSans-Oblique-4a" d="M 1069 4666 
L 1703 4666 
L 856 325 
Q 691 -522 298 -901 
Q -94 -1281 -800 -1281 
L -1050 -1281 
L -947 -750 
L -750 -750 
Q -328 -750 -109 -509 
Q 109 -269 225 325 
L 1069 4666 
z
" transform="scale(0.015625)"/>
     <path id="DejaVuSans-Oblique-6b" d="M 1172 4863 
L 1747 4863 
L 1197 2028 
L 3169 3500 
L 3916 3500 
L 1716 1825 
L 3322 0 
L 2625 0 
L 1131 1709 
L 800 0 
L 225 0 
L 1172 4863 
z
" transform="scale(0.015625)"/>
     <path id="DejaVuSans-Oblique-62" d="M 3169 2138 
Q 3169 2591 2961 2847 
Q 2753 3103 2388 3103 
Q 2122 3103 1889 2973 
Q 1656 2844 1484 2597 
Q 1303 2338 1198 1995 
Q 1094 1653 1094 1313 
Q 1094 881 1298 636 
Q 1503 391 1863 391 
Q 2134 391 2365 517 
Q 2597 644 2772 891 
Q 2950 1147 3059 1487 
Q 3169 1828 3169 2138 
z
M 1381 2969 
Q 1594 3256 1914 3420 
Q 2234 3584 2584 3584 
Q 3122 3584 3439 3221 
Q 3756 2859 3756 2241 
Q 3756 1734 3570 1259 
Q 3384 784 3041 416 
Q 2816 172 2522 40 
Q 2228 -91 1906 -91 
Q 1566 -91 1316 65 
Q 1066 222 909 531 
L 806 0 
L 231 0 
L 1178 4863 
L 1753 4863 
L 1381 2969 
z
" transform="scale(0.015625)"/>
    </defs>
    <use xlink:href="#DejaVuSans-Oblique-54" transform="translate(0 0.015625)"/>
    <use xlink:href="#DejaVuSans-Oblique-77" transform="translate(61.083984 0.015625)"/>
    <use xlink:href="#DejaVuSans-Oblique-69" transform="translate(142.871094 0.015625)"/>
    <use xlink:href="#DejaVuSans-Oblique-73" transform="translate(170.654297 0.015625)"/>
    <use xlink:href="#DejaVuSans-Oblique-74" transform="translate(222.753906 0.015625)"/>
    <use xlink:href="#DejaVuSans-Oblique-20" transform="translate(261.962891 0.015625)"/>
    <use xlink:href="#DejaVuSans-Oblique-63" transform="translate(293.75 0.015625)"/>
    <use xlink:href="#DejaVuSans-Oblique-6f" transform="translate(348.730469 0.015625)"/>
    <use xlink:href="#DejaVuSans-Oblique-65" transform="translate(409.912109 0.015625)"/>
    <use xlink:href="#DejaVuSans-Oblique-66" transform="translate(471.435547 0.015625)"/>
    <use xlink:href="#DejaVuSans-Oblique-66" transform="translate(506.640625 0.015625)"/>
    <use xlink:href="#DejaVuSans-Oblique-69" transform="translate(541.845703 0.015625)"/>
    <use xlink:href="#DejaVuSans-Oblique-63" transform="translate(569.628906 0.015625)"/>
    <use xlink:href="#DejaVuSans-Oblique-69" transform="translate(624.609375 0.015625)"/>
    <use xlink:href="#DejaVuSans-Oblique-65" transform="translate(652.392578 0.015625)"/>
    <use xlink:href="#DejaVuSans-Oblique-6e" transform="translate(713.916016 0.015625)"/>
    <use xlink:href="#DejaVuSans-Oblique-74" transform="translate(777.294922 0.015625)"/>
    <use xlink:href="#DejaVuSans-Oblique-73" transform="translate(816.503906 0.015625)"/>
    <use xlink:href="#DejaVuSans-Oblique-20" transform="translate(868.603516 0.015625)"/>
    <use xlink:href="#DejaVuSans-Oblique-7a" transform="translate(900.390625 0.015625)"/>
    <use xlink:href="#DejaVuSans-30" transform="translate(952.880859 -16.390625) scale(0.7)"/>
    <use xlink:href="#DejaVuSans-Oblique-20" transform="translate(1000.151367 0.015625)"/>
    <use xlink:href="#DejaVuSans-Oblique-61" transform="translate(1031.938477 0.015625)"/>
    <use xlink:href="#DejaVuSans-Oblique-6e" transform="translate(1093.217773 0.015625)"/>
    <use xlink:href="#DejaVuSans-Oblique-64" transform="translate(1156.59668 0.015625)"/>
    <use xlink:href="#DejaVuSans-Oblique-20" transform="translate(1220.073242 0.015625)"/>
    <use xlink:href="#DejaVuSans-Oblique-7a" transform="translate(1251.860352 0.015625)"/>
    <use xlink:href="#DejaVuSans-31" transform="translate(1304.350586 -16.390625) scale(0.7)"/>
    <use xlink:href="#DejaVuSans-Oblique-2e" transform="translate(1351.621094 0.015625)"/>
    <use xlink:href="#DejaVuSans-Oblique-20" transform="translate(1383.408203 0.015625)"/>
    <use xlink:href="#DejaVuSans-Oblique-4d" transform="translate(1415.195312 0.015625)"/>
    <use xlink:href="#DejaVuSans-Oblique-3d" transform="translate(1501.474609 0.015625)"/>
    <use xlink:href="#DejaVuSans-Oblique-35" transform="translate(1585.263672 0.015625)"/>
    <use xlink:href="#DejaVuSans-Oblique-20" transform="translate(1648.886719 0.015625)"/>
    <use xlink:href="#DejaVuSans-Oblique-4a" transform="translate(1680.673828 0.015625)"/>
    <use xlink:href="#DejaVuSans-Oblique-61" transform="translate(1710.166016 0.015625)"/>
    <use xlink:href="#DejaVuSans-Oblique-63" transform="translate(1771.445312 0.015625)"/>
    <use xlink:href="#DejaVuSans-Oblique-6b" transform="translate(1826.425781 0.015625)"/>
    <use xlink:href="#DejaVuSans-Oblique-6b" transform="translate(1884.335938 0.015625)"/>
    <use xlink:href="#DejaVuSans-Oblique-6e" transform="translate(1942.246094 0.015625)"/>
    <use xlink:href="#DejaVuSans-Oblique-69" transform="translate(2005.625 0.015625)"/>
    <use xlink:href="#DejaVuSans-Oblique-66" transform="translate(2033.408203 0.015625)"/>
    <use xlink:href="#DejaVuSans-Oblique-65" transform="translate(2068.613281 0.015625)"/>
    <use xlink:href="#DejaVuSans-Oblique-20" transform="translate(2130.136719 0.015625)"/>
    <use xlink:href="#DejaVuSans-Oblique-62" transform="translate(2161.923828 0.015625)"/>
    <use xlink:href="#DejaVuSans-Oblique-69" transform="translate(2225.400391 0.015625)"/>
    <use xlink:href="#DejaVuSans-Oblique-6e" transform="translate(2253.183594 0.015625)"/>
    <use xlink:href="#DejaVuSans-Oblique-73" transform="translate(2316.5625 0.015625)"/>
   </g>
  </g>
 </g>
 <defs>
  <clipPath id="pc29df146f9">
   <rect x="60.470938" y="7.2" width="390.6" height="277.2"/>
  </clipPath>
 </defs>
</svg>
