<?xml version="1.0" encoding="utf-8" standalone="no"?>
<!DOCTYPE svg PUBLIC "-//W3C//DTD SVG 1.1//EN"
  "http://www.w3.org/Graphics/SVG/1.1/DTD/svg11.dtd">
<svg xmlns:xlink="http://www.w3.org/1999/xlink" width="491.708187pt" height="368.43pt" viewBox="0 0 491.708187 368.43" xmlns="http://www.w3.org/2000/svg" version="1.1">
 <metadata>
  <rdf:RDF xmlns:dc="http://purl.org/dc/elements/1.1/" xmlns:cc="http://creativecommons.org/ns#" xmlns:rdf="http://www.w3.org/1999/02/22-rdf-syntax-ns#">
   <cc:Work>
    <dc:type rdf:resource="http://purl.org/dc/dcmitype/StillImage"/>
    <dc:date>2024-05-07T16:39:28.623697</dc:date>
    <dc:format>image/svg+xml</dc:format>
    <dc:creator>
     <cc:Agent>
      <dc:title>Matplotlib v3.8.0, https://matplotlib.org/</dc:title>
     </cc:Agent>
    </dc:creator>
   </cc:Work>
  </rdf:RDF>
 </metadata>
 <defs>
  <style type="text/css">*{stroke-linejoin: round; stroke-linecap: butt}</style>
 </defs>
 <g id="figure_1">
  <g id="patch_1">
   <path d="M 0 368.43 
L 491.708187 368.43 
L 491.708187 0 
L 0 0 
z
" style="fill: #ffffff"/>
  </g>
  <g id="axes_1">
   <g id="patch_2">
    <path d="M 73.299688 307.96 
L 484.508187 307.96 
L 484.508187 7.2 
L 73.299688 7.2 
z
" style="fill: #ffffff"/>
   </g>
   <g id="matplotlib.axis_1">
    <g id="xtick_1">
     <g id="line2d_1">
      <defs>
       <path id="m1ab6cb406e" d="M 0 0 
L 0 3.5 
" style="stroke: #000000; stroke-width: 0.8"/>
      </defs>
      <g>
       <use xlink:href="#m1ab6cb406e" x="129.373574" y="307.96" style="stroke: #000000; stroke-width: 0.8"/>
      </g>
     </g>
     <g id="text_1">
      <!-- 10.76 -->
      <g transform="translate(113.628105 323.318281) scale(0.11 -0.11)">
       <defs>
        <path id="DejaVuSans-31" d="M 794 531 
L 1825 531 
L 1825 4091 
L 703 3866 
L 703 4441 
L 1819 4666 
L 2450 4666 
L 2450 531 
L 3481 531 
L 3481 0 
L 794 0 
L 794 531 
z
" transform="scale(0.015625)"/>
        <path id="DejaVuSans-30" d="M 2034 4250 
Q 1547 4250 1301 3770 
Q 1056 3291 1056 2328 
Q 1056 1369 1301 889 
Q 1547 409 2034 409 
Q 2525 409 2770 889 
Q 3016 1369 3016 2328 
Q 3016 3291 2770 3770 
Q 2525 4250 2034 4250 
z
M 2034 4750 
Q 2819 4750 3233 4129 
Q 3647 3509 3647 2328 
Q 3647 1150 3233 529 
Q 2819 -91 2034 -91 
Q 1250 -91 836 529 
Q 422 1150 422 2328 
Q 422 3509 836 4129 
Q 1250 4750 2034 4750 
z
" transform="scale(0.015625)"/>
        <path id="DejaVuSans-2e" d="M 684 794 
L 1344 794 
L 1344 0 
L 684 0 
L 684 794 
z
" transform="scale(0.015625)"/>
        <path id="DejaVuSans-37" d="M 525 4666 
L 3525 4666 
L 3525 4397 
L 1831 0 
L 1172 0 
L 2766 4134 
L 525 4134 
L 525 4666 
z
" transform="scale(0.015625)"/>
        <path id="DejaVuSans-36" d="M 2113 2584 
Q 1688 2584 1439 2293 
Q 1191 2003 1191 1497 
Q 1191 994 1439 701 
Q 1688 409 2113 409 
Q 2538 409 2786 701 
Q 3034 994 3034 1497 
Q 3034 2003 2786 2293 
Q 2538 2584 2113 2584 
z
M 3366 4563 
L 3366 3988 
Q 3128 4100 2886 4159 
Q 2644 4219 2406 4219 
Q 1781 4219 1451 3797 
Q 1122 3375 1075 2522 
Q 1259 2794 1537 2939 
Q 1816 3084 2150 3084 
Q 2853 3084 3261 2657 
Q 3669 2231 3669 1497 
Q 3669 778 3244 343 
Q 2819 -91 2113 -91 
Q 1303 -91 875 529 
Q 447 1150 447 2328 
Q 447 3434 972 4092 
Q 1497 4750 2381 4750 
Q 2619 4750 2861 4703 
Q 3103 4656 3366 4563 
z
" transform="scale(0.015625)"/>
       </defs>
       <use xlink:href="#DejaVuSans-31"/>
       <use xlink:href="#DejaVuSans-30" x="63.623047"/>
       <use xlink:href="#DejaVuSans-2e" x="127.246094"/>
       <use xlink:href="#DejaVuSans-37" x="159.033203"/>
       <use xlink:href="#DejaVuSans-36" x="222.65625"/>
      </g>
     </g>
    </g>
    <g id="xtick_2">
     <g id="line2d_2">
      <g>
       <use xlink:href="#m1ab6cb406e" x="204.138756" y="307.96" style="stroke: #000000; stroke-width: 0.8"/>
      </g>
     </g>
     <g id="text_2">
      <!-- 10.78 -->
      <g transform="translate(188.393287 323.318281) scale(0.11 -0.11)">
       <defs>
        <path id="DejaVuSans-38" d="M 2034 2216 
Q 1584 2216 1326 1975 
Q 1069 1734 1069 1313 
Q 1069 891 1326 650 
Q 1584 409 2034 409 
Q 2484 409 2743 651 
Q 3003 894 3003 1313 
Q 3003 1734 2745 1975 
Q 2488 2216 2034 2216 
z
M 1403 2484 
Q 997 2584 770 2862 
Q 544 3141 544 3541 
Q 544 4100 942 4425 
Q 1341 4750 2034 4750 
Q 2731 4750 3128 4425 
Q 3525 4100 3525 3541 
Q 3525 3141 3298 2862 
Q 3072 2584 2669 2484 
Q 3125 2378 3379 2068 
Q 3634 1759 3634 1313 
Q 3634 634 3220 271 
Q 2806 -91 2034 -91 
Q 1263 -91 848 271 
Q 434 634 434 1313 
Q 434 1759 690 2068 
Q 947 2378 1403 2484 
z
M 1172 3481 
Q 1172 3119 1398 2916 
Q 1625 2713 2034 2713 
Q 2441 2713 2670 2916 
Q 2900 3119 2900 3481 
Q 2900 3844 2670 4047 
Q 2441 4250 2034 4250 
Q 1625 4250 1398 4047 
Q 1172 3844 1172 3481 
z
" transform="scale(0.015625)"/>
       </defs>
       <use xlink:href="#DejaVuSans-31"/>
       <use xlink:href="#DejaVuSans-30" x="63.623047"/>
       <use xlink:href="#DejaVuSans-2e" x="127.246094"/>
       <use xlink:href="#DejaVuSans-37" x="159.033203"/>
       <use xlink:href="#DejaVuSans-38" x="222.65625"/>
      </g>
     </g>
    </g>
    <g id="xtick_3">
     <g id="line2d_3">
      <g>
       <use xlink:href="#m1ab6cb406e" x="278.903938" y="307.96" style="stroke: #000000; stroke-width: 0.8"/>
      </g>
     </g>
     <g id="text_3">
      <!-- 10.80 -->
      <g transform="translate(263.158469 323.318281) scale(0.11 -0.11)">
       <use xlink:href="#DejaVuSans-31"/>
       <use xlink:href="#DejaVuSans-30" x="63.623047"/>
       <use xlink:href="#DejaVuSans-2e" x="127.246094"/>
       <use xlink:href="#DejaVuSans-38" x="159.033203"/>
       <use xlink:href="#DejaVuSans-30" x="222.65625"/>
      </g>
     </g>
    </g>
    <g id="xtick_4">
     <g id="line2d_4">
      <g>
       <use xlink:href="#m1ab6cb406e" x="353.669119" y="307.96" style="stroke: #000000; stroke-width: 0.8"/>
      </g>
     </g>
     <g id="text_4">
      <!-- 10.82 -->
      <g transform="translate(337.923651 323.318281) scale(0.11 -0.11)">
       <defs>
        <path id="DejaVuSans-32" d="M 1228 531 
L 3431 531 
L 3431 0 
L 469 0 
L 469 531 
Q 828 903 1448 1529 
Q 2069 2156 2228 2338 
Q 2531 2678 2651 2914 
Q 2772 3150 2772 3378 
Q 2772 3750 2511 3984 
Q 2250 4219 1831 4219 
Q 1534 4219 1204 4116 
Q 875 4013 500 3803 
L 500 4441 
Q 881 4594 1212 4672 
Q 1544 4750 1819 4750 
Q 2544 4750 2975 4387 
Q 3406 4025 3406 3419 
Q 3406 3131 3298 2873 
Q 3191 2616 2906 2266 
Q 2828 2175 2409 1742 
Q 1991 1309 1228 531 
z
" transform="scale(0.015625)"/>
       </defs>
       <use xlink:href="#DejaVuSans-31"/>
       <use xlink:href="#DejaVuSans-30" x="63.623047"/>
       <use xlink:href="#DejaVuSans-2e" x="127.246094"/>
       <use xlink:href="#DejaVuSans-38" x="159.033203"/>
       <use xlink:href="#DejaVuSans-32" x="222.65625"/>
      </g>
     </g>
    </g>
    <g id="xtick_5">
     <g id="line2d_5">
      <g>
       <use xlink:href="#m1ab6cb406e" x="428.434301" y="307.96" style="stroke: #000000; stroke-width: 0.8"/>
      </g>
     </g>
     <g id="text_5">
      <!-- 10.84 -->
      <g transform="translate(412.688832 323.318281) scale(0.11 -0.11)">
       <defs>
        <path id="DejaVuSans-34" d="M 2419 4116 
L 825 1625 
L 2419 1625 
L 2419 4116 
z
M 2253 4666 
L 3047 4666 
L 3047 1625 
L 3713 1625 
L 3713 1100 
L 3047 1100 
L 3047 0 
L 2419 0 
L 2419 1100 
L 313 1100 
L 313 1709 
L 2253 4666 
z
" transform="scale(0.015625)"/>
       </defs>
       <use xlink:href="#DejaVuSans-31"/>
       <use xlink:href="#DejaVuSans-30" x="63.623047"/>
       <use xlink:href="#DejaVuSans-2e" x="127.246094"/>
       <use xlink:href="#DejaVuSans-38" x="159.033203"/>
       <use xlink:href="#DejaVuSans-34" x="222.65625"/>
      </g>
     </g>
    </g>
    <g id="text_6">
     <!-- $\beta$ -->
     <g transform="translate(275.383937 338.075937) scale(0.11 -0.11)">
      <defs>
       <path id="DejaVuSans-Oblique-3b2" d="M 872 216 
L 572 -1331 
L -6 -1331 
L 928 3478 
Q 1206 4903 2538 4903 
Q 3888 4903 3659 3700 
Q 3503 2844 2894 2531 
Q 3713 2250 3553 1416 
Q 3272 -69 1759 -66 
Q 1097 -63 872 216 
z
M 1019 966 
Q 1259 422 1875 425 
Q 2775 425 2966 1406 
Q 3138 2288 1675 2219 
L 1778 2750 
Q 2909 2731 3106 3750 
Q 3241 4438 2509 4434 
Q 1691 4434 1503 3459 
L 1019 966 
z
" transform="scale(0.015625)"/>
      </defs>
      <use xlink:href="#DejaVuSans-Oblique-3b2" transform="translate(0 0.390625)"/>
     </g>
    </g>
   </g>
   <g id="matplotlib.axis_2">
    <g id="ytick_1">
     <g id="line2d_6">
      <defs>
       <path id="m0907628a54" d="M 0 0 
L -3.5 0 
" style="stroke: #000000; stroke-width: 0.8"/>
      </defs>
      <g>
       <use xlink:href="#m0907628a54" x="73.299688" y="289.134003" style="stroke: #000000; stroke-width: 0.8"/>
      </g>
     </g>
     <g id="text_7">
      <!-- 0.0000 -->
      <g transform="translate(27.81 293.313144) scale(0.11 -0.11)">
       <use xlink:href="#DejaVuSans-30"/>
       <use xlink:href="#DejaVuSans-2e" x="63.623047"/>
       <use xlink:href="#DejaVuSans-30" x="95.410156"/>
       <use xlink:href="#DejaVuSans-30" x="159.033203"/>
       <use xlink:href="#DejaVuSans-30" x="222.65625"/>
       <use xlink:href="#DejaVuSans-30" x="286.279297"/>
      </g>
     </g>
    </g>
    <g id="ytick_2">
     <g id="line2d_7">
      <g>
       <use xlink:href="#m0907628a54" x="73.299688" y="240.410956" style="stroke: #000000; stroke-width: 0.8"/>
      </g>
     </g>
     <g id="text_8">
      <!-- 0.0001 -->
      <g transform="translate(27.81 244.590097) scale(0.11 -0.11)">
       <use xlink:href="#DejaVuSans-30"/>
       <use xlink:href="#DejaVuSans-2e" x="63.623047"/>
       <use xlink:href="#DejaVuSans-30" x="95.410156"/>
       <use xlink:href="#DejaVuSans-30" x="159.033203"/>
       <use xlink:href="#DejaVuSans-30" x="222.65625"/>
       <use xlink:href="#DejaVuSans-31" x="286.279297"/>
      </g>
     </g>
    </g>
    <g id="ytick_3">
     <g id="line2d_8">
      <g>
       <use xlink:href="#m0907628a54" x="73.299688" y="191.687909" style="stroke: #000000; stroke-width: 0.8"/>
      </g>
     </g>
     <g id="text_9">
      <!-- 0.0002 -->
      <g transform="translate(27.81 195.86705) scale(0.11 -0.11)">
       <use xlink:href="#DejaVuSans-30"/>
       <use xlink:href="#DejaVuSans-2e" x="63.623047"/>
       <use xlink:href="#DejaVuSans-30" x="95.410156"/>
       <use xlink:href="#DejaVuSans-30" x="159.033203"/>
       <use xlink:href="#DejaVuSans-30" x="222.65625"/>
       <use xlink:href="#DejaVuSans-32" x="286.279297"/>
      </g>
     </g>
    </g>
    <g id="ytick_4">
     <g id="line2d_9">
      <g>
       <use xlink:href="#m0907628a54" x="73.299688" y="142.964862" style="stroke: #000000; stroke-width: 0.8"/>
      </g>
     </g>
     <g id="text_10">
      <!-- 0.0003 -->
      <g transform="translate(27.81 147.144002) scale(0.11 -0.11)">
       <defs>
        <path id="DejaVuSans-33" d="M 2597 2516 
Q 3050 2419 3304 2112 
Q 3559 1806 3559 1356 
Q 3559 666 3084 287 
Q 2609 -91 1734 -91 
Q 1441 -91 1130 -33 
Q 819 25 488 141 
L 488 750 
Q 750 597 1062 519 
Q 1375 441 1716 441 
Q 2309 441 2620 675 
Q 2931 909 2931 1356 
Q 2931 1769 2642 2001 
Q 2353 2234 1838 2234 
L 1294 2234 
L 1294 2753 
L 1863 2753 
Q 2328 2753 2575 2939 
Q 2822 3125 2822 3475 
Q 2822 3834 2567 4026 
Q 2313 4219 1838 4219 
Q 1578 4219 1281 4162 
Q 984 4106 628 3988 
L 628 4550 
Q 988 4650 1302 4700 
Q 1616 4750 1894 4750 
Q 2613 4750 3031 4423 
Q 3450 4097 3450 3541 
Q 3450 3153 3228 2886 
Q 3006 2619 2597 2516 
z
" transform="scale(0.015625)"/>
       </defs>
       <use xlink:href="#DejaVuSans-30"/>
       <use xlink:href="#DejaVuSans-2e" x="63.623047"/>
       <use xlink:href="#DejaVuSans-30" x="95.410156"/>
       <use xlink:href="#DejaVuSans-30" x="159.033203"/>
       <use xlink:href="#DejaVuSans-30" x="222.65625"/>
       <use xlink:href="#DejaVuSans-33" x="286.279297"/>
      </g>
     </g>
    </g>
    <g id="ytick_5">
     <g id="line2d_10">
      <g>
       <use xlink:href="#m0907628a54" x="73.299688" y="94.241815" style="stroke: #000000; stroke-width: 0.8"/>
      </g>
     </g>
     <g id="text_11">
      <!-- 0.0004 -->
      <g transform="translate(27.81 98.420955) scale(0.11 -0.11)">
       <use xlink:href="#DejaVuSans-30"/>
       <use xlink:href="#DejaVuSans-2e" x="63.623047"/>
       <use xlink:href="#DejaVuSans-30" x="95.410156"/>
       <use xlink:href="#DejaVuSans-30" x="159.033203"/>
       <use xlink:href="#DejaVuSans-30" x="222.65625"/>
       <use xlink:href="#DejaVuSans-34" x="286.279297"/>
      </g>
     </g>
    </g>
    <g id="ytick_6">
     <g id="line2d_11">
      <g>
       <use xlink:href="#m0907628a54" x="73.299688" y="45.518768" style="stroke: #000000; stroke-width: 0.8"/>
      </g>
     </g>
     <g id="text_12">
      <!-- 0.0005 -->
      <g transform="translate(27.81 49.697908) scale(0.11 -0.11)">
       <defs>
        <path id="DejaVuSans-35" d="M 691 4666 
L 3169 4666 
L 3169 4134 
L 1269 4134 
L 1269 2991 
Q 1406 3038 1543 3061 
Q 1681 3084 1819 3084 
Q 2600 3084 3056 2656 
Q 3513 2228 3513 1497 
Q 3513 744 3044 326 
Q 2575 -91 1722 -91 
Q 1428 -91 1123 -41 
Q 819 9 494 109 
L 494 744 
Q 775 591 1075 516 
Q 1375 441 1709 441 
Q 2250 441 2565 725 
Q 2881 1009 2881 1497 
Q 2881 1984 2565 2268 
Q 2250 2553 1709 2553 
Q 1456 2553 1204 2497 
Q 953 2441 691 2322 
L 691 4666 
z
" transform="scale(0.015625)"/>
       </defs>
       <use xlink:href="#DejaVuSans-30"/>
       <use xlink:href="#DejaVuSans-2e" x="63.623047"/>
       <use xlink:href="#DejaVuSans-30" x="95.410156"/>
       <use xlink:href="#DejaVuSans-30" x="159.033203"/>
       <use xlink:href="#DejaVuSans-30" x="222.65625"/>
       <use xlink:href="#DejaVuSans-35" x="286.279297"/>
      </g>
     </g>
    </g>
    <g id="text_13">
     <!-- $\frac{1}{6\cdot V \cdot\beta}\langle S_{t} - S_{nt} \rangle$ -->
     <g transform="translate(17.65 195.09) rotate(-90) scale(0.11 -0.11)">
      <defs>
       <path id="DejaVuSans-22c5" d="M 684 2619 
L 1344 2619 
L 1344 1825 
L 684 1825 
L 684 2619 
z
" transform="scale(0.015625)"/>
       <path id="DejaVuSans-Oblique-56" d="M 1319 0 
L 500 4666 
L 1119 4666 
L 1797 653 
L 4063 4666 
L 4750 4666 
L 2053 0 
L 1319 0 
z
" transform="scale(0.015625)"/>
       <path id="DejaVuSans-27e8" d="M 572 2006 
L 1453 4856 
L 1984 4856 
L 1103 2006 
L 1984 -844 
L 1453 -844 
L 572 2006 
z
" transform="scale(0.015625)"/>
       <path id="DejaVuSans-Oblique-53" d="M 3859 4513 
L 3738 3897 
Q 3422 4066 3111 4152 
Q 2800 4238 2509 4238 
Q 1944 4238 1609 3991 
Q 1275 3744 1275 3334 
Q 1275 3109 1398 2989 
Q 1522 2869 2034 2731 
L 2413 2638 
Q 3053 2472 3303 2217 
Q 3553 1963 3553 1503 
Q 3553 797 2998 353 
Q 2444 -91 1538 -91 
Q 1166 -91 791 -17 
Q 416 56 38 206 
L 166 856 
Q 513 641 861 531 
Q 1209 422 1556 422 
Q 2147 422 2503 684 
Q 2859 947 2859 1369 
Q 2859 1650 2717 1795 
Q 2575 1941 2106 2059 
L 1728 2156 
Q 1081 2325 845 2545 
Q 609 2766 609 3163 
Q 609 3859 1145 4304 
Q 1681 4750 2541 4750 
Q 2875 4750 3203 4690 
Q 3531 4631 3859 4513 
z
" transform="scale(0.015625)"/>
       <path id="DejaVuSans-Oblique-74" d="M 2706 3500 
L 2619 3053 
L 1472 3053 
L 1100 1153 
Q 1081 1047 1072 975 
Q 1063 903 1063 863 
Q 1063 663 1183 572 
Q 1303 481 1569 481 
L 2150 481 
L 2053 0 
L 1503 0 
Q 991 0 739 200 
Q 488 400 488 806 
Q 488 878 497 964 
Q 506 1050 525 1153 
L 897 3053 
L 409 3053 
L 500 3500 
L 978 3500 
L 1172 4494 
L 1747 4494 
L 1556 3500 
L 2706 3500 
z
" transform="scale(0.015625)"/>
       <path id="DejaVuSans-2212" d="M 678 2272 
L 4684 2272 
L 4684 1741 
L 678 1741 
L 678 2272 
z
" transform="scale(0.015625)"/>
       <path id="DejaVuSans-Oblique-6e" d="M 3566 2113 
L 3156 0 
L 2578 0 
L 2988 2091 
Q 3016 2238 3031 2350 
Q 3047 2463 3047 2528 
Q 3047 2791 2881 2937 
Q 2716 3084 2419 3084 
Q 1956 3084 1622 2776 
Q 1288 2469 1184 1941 
L 800 0 
L 225 0 
L 903 3500 
L 1478 3500 
L 1363 2950 
Q 1603 3253 1940 3418 
Q 2278 3584 2650 3584 
Q 3113 3584 3367 3334 
Q 3622 3084 3622 2631 
Q 3622 2519 3608 2391 
Q 3594 2263 3566 2113 
z
" transform="scale(0.015625)"/>
       <path id="DejaVuSans-27e9" d="M 1925 2006 
L 1044 -844 
L 513 -844 
L 1394 2006 
L 513 4856 
L 1044 4856 
L 1925 2006 
z
" transform="scale(0.015625)"/>
      </defs>
      <use xlink:href="#DejaVuSans-31" transform="translate(96 43.965625) scale(0.7)"/>
      <use xlink:href="#DejaVuSans-36" transform="translate(0 -40.910937) scale(0.7)"/>
      <use xlink:href="#DejaVuSans-22c5" transform="translate(58.173828 -40.910937) scale(0.7)"/>
      <use xlink:href="#DejaVuSans-Oblique-56" transform="translate(94.0625 -40.910937) scale(0.7)"/>
      <use xlink:href="#DejaVuSans-22c5" transform="translate(155.585938 -40.910937) scale(0.7)"/>
      <use xlink:href="#DejaVuSans-Oblique-3b2" transform="translate(191.474609 -40.910937) scale(0.7)"/>
      <use xlink:href="#DejaVuSans-27e8" transform="translate(248.647461 0.16875)"/>
      <use xlink:href="#DejaVuSans-Oblique-53" transform="translate(287.661133 0.16875)"/>
      <use xlink:href="#DejaVuSans-Oblique-74" transform="translate(351.137695 -16.2375) scale(0.7)"/>
      <use xlink:href="#DejaVuSans-2212" transform="translate(400.800781 0.16875)"/>
      <use xlink:href="#DejaVuSans-Oblique-53" transform="translate(504.072266 0.16875)"/>
      <use xlink:href="#DejaVuSans-Oblique-6e" transform="translate(567.548828 -16.2375) scale(0.7)"/>
      <use xlink:href="#DejaVuSans-Oblique-74" transform="translate(611.914062 -16.2375) scale(0.7)"/>
      <use xlink:href="#DejaVuSans-27e9" transform="translate(642.094727 0.16875)"/>
      <path d="M 0 18.965625 
L 0 25.215625 
L 236.147461 25.215625 
L 236.147461 18.965625 
L 0 18.965625 
z
"/>
     </g>
    </g>
   </g>
   <g id="LineCollection_1">
    <path d="M 91.990983 293.536429 
L 91.990983 283.66448 
" clip-path="url(#ped2f0b5cef)" style="fill: none; stroke: #ff0000; stroke-width: 1.5"/>
    <path d="M 95.729242 293.199899 
L 95.729242 283.555006 
" clip-path="url(#ped2f0b5cef)" style="fill: none; stroke: #ff0000; stroke-width: 1.5"/>
    <path d="M 99.467501 292.988019 
L 99.467501 283.514137 
" clip-path="url(#ped2f0b5cef)" style="fill: none; stroke: #ff0000; stroke-width: 1.5"/>
    <path d="M 103.20576 292.940898 
L 103.20576 283.53731 
" clip-path="url(#ped2f0b5cef)" style="fill: none; stroke: #ff0000; stroke-width: 1.5"/>
    <path d="M 106.944019 293.065669 
L 106.944019 283.610349 
" clip-path="url(#ped2f0b5cef)" style="fill: none; stroke: #ff0000; stroke-width: 1.5"/>
    <path d="M 110.682278 293.331349 
L 110.682278 283.713892 
" clip-path="url(#ped2f0b5cef)" style="fill: none; stroke: #ff0000; stroke-width: 1.5"/>
    <path d="M 114.420538 293.672604 
L 114.420538 283.827673 
" clip-path="url(#ped2f0b5cef)" style="fill: none; stroke: #ff0000; stroke-width: 1.5"/>
    <path d="M 118.158797 294.002966 
L 118.158797 283.932016 
" clip-path="url(#ped2f0b5cef)" style="fill: none; stroke: #ff0000; stroke-width: 1.5"/>
    <path d="M 121.897056 294.233265 
L 121.897056 284.007143 
" clip-path="url(#ped2f0b5cef)" style="fill: none; stroke: #ff0000; stroke-width: 1.5"/>
    <path d="M 125.635315 294.289091 
L 125.635315 284.032448 
" clip-path="url(#ped2f0b5cef)" style="fill: none; stroke: #ff0000; stroke-width: 1.5"/>
    <path d="M 129.373574 294.122499 
L 129.373574 283.986789 
" clip-path="url(#ped2f0b5cef)" style="fill: none; stroke: #ff0000; stroke-width: 1.5"/>
    <path d="M 133.111833 293.715797 
L 133.111833 283.849584 
" clip-path="url(#ped2f0b5cef)" style="fill: none; stroke: #ff0000; stroke-width: 1.5"/>
    <path d="M 136.850092 293.077401 
L 136.850092 283.601942 
" clip-path="url(#ped2f0b5cef)" style="fill: none; stroke: #ff0000; stroke-width: 1.5"/>
    <path d="M 140.588351 292.231353 
L 140.588351 283.227286 
" clip-path="url(#ped2f0b5cef)" style="fill: none; stroke: #ff0000; stroke-width: 1.5"/>
    <path d="M 144.32661 291.203345 
L 144.32661 282.711071 
" clip-path="url(#ped2f0b5cef)" style="fill: none; stroke: #ff0000; stroke-width: 1.5"/>
    <path d="M 148.064869 290.006891 
L 148.064869 282.039347 
" clip-path="url(#ped2f0b5cef)" style="fill: none; stroke: #ff0000; stroke-width: 1.5"/>
    <path d="M 151.803128 288.63327 
L 151.803128 281.196133 
" clip-path="url(#ped2f0b5cef)" style="fill: none; stroke: #ff0000; stroke-width: 1.5"/>
    <path d="M 155.541388 287.047734 
L 155.541388 280.160117 
" clip-path="url(#ped2f0b5cef)" style="fill: none; stroke: #ff0000; stroke-width: 1.5"/>
    <path d="M 159.279647 285.192663 
L 159.279647 278.90179 
" clip-path="url(#ped2f0b5cef)" style="fill: none; stroke: #ff0000; stroke-width: 1.5"/>
    <path d="M 163.017906 282.997013 
L 163.017906 277.381707 
" clip-path="url(#ped2f0b5cef)" style="fill: none; stroke: #ff0000; stroke-width: 1.5"/>
    <path d="M 166.756165 280.391505 
L 166.756165 275.548645 
" clip-path="url(#ped2f0b5cef)" style="fill: none; stroke: #ff0000; stroke-width: 1.5"/>
    <path d="M 170.494424 277.331594 
L 170.494424 273.332268 
" clip-path="url(#ped2f0b5cef)" style="fill: none; stroke: #ff0000; stroke-width: 1.5"/>
    <path d="M 174.232683 273.837843 
L 174.232683 270.616474 
" clip-path="url(#ped2f0b5cef)" style="fill: none; stroke: #ff0000; stroke-width: 1.5"/>
    <path d="M 177.970942 270.056693 
L 177.970942 267.186385 
" clip-path="url(#ped2f0b5cef)" style="fill: none; stroke: #ff0000; stroke-width: 1.5"/>
    <path d="M 181.709201 266.170655 
L 181.709201 262.817132 
" clip-path="url(#ped2f0b5cef)" style="fill: none; stroke: #ff0000; stroke-width: 1.5"/>
    <path d="M 185.44746 262.098436 
L 185.44746 257.563319 
" clip-path="url(#ped2f0b5cef)" style="fill: none; stroke: #ff0000; stroke-width: 1.5"/>
    <path d="M 189.185719 257.634825 
L 189.185719 251.601398 
" clip-path="url(#ped2f0b5cef)" style="fill: none; stroke: #ff0000; stroke-width: 1.5"/>
    <path d="M 192.923978 252.630949 
L 192.923978 245.029038 
" clip-path="url(#ped2f0b5cef)" style="fill: none; stroke: #ff0000; stroke-width: 1.5"/>
    <path d="M 196.662238 246.970428 
L 196.662238 237.872315 
" clip-path="url(#ped2f0b5cef)" style="fill: none; stroke: #ff0000; stroke-width: 1.5"/>
    <path d="M 200.400497 240.541517 
L 200.400497 230.107245 
" clip-path="url(#ped2f0b5cef)" style="fill: none; stroke: #ff0000; stroke-width: 1.5"/>
    <path d="M 204.138756 233.232541 
L 204.138756 221.673485 
" clip-path="url(#ped2f0b5cef)" style="fill: none; stroke: #ff0000; stroke-width: 1.5"/>
    <path d="M 207.877015 224.942146 
L 207.877015 212.490567 
" clip-path="url(#ped2f0b5cef)" style="fill: none; stroke: #ff0000; stroke-width: 1.5"/>
    <path d="M 211.615274 215.60074 
L 211.615274 202.477949 
" clip-path="url(#ped2f0b5cef)" style="fill: none; stroke: #ff0000; stroke-width: 1.5"/>
    <path d="M 215.353533 205.199844 
L 215.353533 191.575153 
" clip-path="url(#ped2f0b5cef)" style="fill: none; stroke: #ff0000; stroke-width: 1.5"/>
    <path d="M 219.091792 193.822156 
L 219.091792 179.75852 
" clip-path="url(#ped2f0b5cef)" style="fill: none; stroke: #ff0000; stroke-width: 1.5"/>
    <path d="M 222.830051 181.658542 
L 222.830051 167.056045 
" clip-path="url(#ped2f0b5cef)" style="fill: none; stroke: #ff0000; stroke-width: 1.5"/>
    <path d="M 226.56831 168.994404 
L 226.56831 153.567348 
" clip-path="url(#ped2f0b5cef)" style="fill: none; stroke: #ff0000; stroke-width: 1.5"/>
    <path d="M 230.306569 156.158972 
L 230.306569 139.490021 
" clip-path="url(#ped2f0b5cef)" style="fill: none; stroke: #ff0000; stroke-width: 1.5"/>
    <path d="M 234.044828 143.460633 
L 234.044828 125.132022 
" clip-path="url(#ped2f0b5cef)" style="fill: none; stroke: #ff0000; stroke-width: 1.5"/>
    <path d="M 237.783087 131.145531 
L 237.783087 110.883507 
" clip-path="url(#ped2f0b5cef)" style="fill: none; stroke: #ff0000; stroke-width: 1.5"/>
    <path d="M 241.521347 119.389596 
L 241.521347 97.153413 
" clip-path="url(#ped2f0b5cef)" style="fill: none; stroke: #ff0000; stroke-width: 1.5"/>
    <path d="M 245.259606 108.306813 
L 245.259606 84.303272 
" clip-path="url(#ped2f0b5cef)" style="fill: none; stroke: #ff0000; stroke-width: 1.5"/>
    <path d="M 248.997865 97.959538 
L 248.997865 72.602941 
" clip-path="url(#ped2f0b5cef)" style="fill: none; stroke: #ff0000; stroke-width: 1.5"/>
    <path d="M 252.736124 88.368279 
L 252.736124 62.213973 
" clip-path="url(#ped2f0b5cef)" style="fill: none; stroke: #ff0000; stroke-width: 1.5"/>
    <path d="M 256.474383 79.522295 
L 256.474383 53.195836 
" clip-path="url(#ped2f0b5cef)" style="fill: none; stroke: #ff0000; stroke-width: 1.5"/>
    <path d="M 260.212642 71.391717 
L 260.212642 45.526581 
" clip-path="url(#ped2f0b5cef)" style="fill: none; stroke: #ff0000; stroke-width: 1.5"/>
    <path d="M 263.950901 63.9409 
L 263.950901 39.129347 
" clip-path="url(#ped2f0b5cef)" style="fill: none; stroke: #ff0000; stroke-width: 1.5"/>
    <path d="M 267.68916 57.142192 
L 267.68916 33.897667 
" clip-path="url(#ped2f0b5cef)" style="fill: none; stroke: #ff0000; stroke-width: 1.5"/>
    <path d="M 271.427419 50.988757 
L 271.427419 29.715178 
" clip-path="url(#ped2f0b5cef)" style="fill: none; stroke: #ff0000; stroke-width: 1.5"/>
    <path d="M 275.165678 45.504733 
L 275.165678 26.468024 
" clip-path="url(#ped2f0b5cef)" style="fill: none; stroke: #ff0000; stroke-width: 1.5"/>
    <path d="M 278.903938 40.750921 
L 278.903938 24.05041 
" clip-path="url(#ped2f0b5cef)" style="fill: none; stroke: #ff0000; stroke-width: 1.5"/>
    <path d="M 282.642197 36.82406 
L 282.642197 22.365624 
" clip-path="url(#ped2f0b5cef)" style="fill: none; stroke: #ff0000; stroke-width: 1.5"/>
    <path d="M 286.380456 33.846357 
L 286.380456 21.327463 
" clip-path="url(#ped2f0b5cef)" style="fill: none; stroke: #ff0000; stroke-width: 1.5"/>
    <path d="M 290.118715 31.939024 
L 290.118715 20.870909 
" clip-path="url(#ped2f0b5cef)" style="fill: none; stroke: #ff0000; stroke-width: 1.5"/>
    <path d="M 293.856974 31.17698 
L 293.856974 20.977921 
" clip-path="url(#ped2f0b5cef)" style="fill: none; stroke: #ff0000; stroke-width: 1.5"/>
    <path d="M 297.595233 31.547924 
L 297.595233 21.698334 
" clip-path="url(#ped2f0b5cef)" style="fill: none; stroke: #ff0000; stroke-width: 1.5"/>
    <path d="M 301.333492 32.959207 
L 301.333492 23.1253 
" clip-path="url(#ped2f0b5cef)" style="fill: none; stroke: #ff0000; stroke-width: 1.5"/>
    <path d="M 305.071751 35.287235 
L 305.071751 25.332885 
" clip-path="url(#ped2f0b5cef)" style="fill: none; stroke: #ff0000; stroke-width: 1.5"/>
    <path d="M 308.81001 38.416787 
L 308.81001 28.329994 
" clip-path="url(#ped2f0b5cef)" style="fill: none; stroke: #ff0000; stroke-width: 1.5"/>
    <path d="M 312.548269 42.248948 
L 312.548269 32.052587 
" clip-path="url(#ped2f0b5cef)" style="fill: none; stroke: #ff0000; stroke-width: 1.5"/>
    <path d="M 316.286528 46.690742 
L 316.286528 36.38094 
" clip-path="url(#ped2f0b5cef)" style="fill: none; stroke: #ff0000; stroke-width: 1.5"/>
    <path d="M 320.024787 51.640464 
L 320.024787 41.166922 
" clip-path="url(#ped2f0b5cef)" style="fill: none; stroke: #ff0000; stroke-width: 1.5"/>
    <path d="M 323.763047 56.977285 
L 323.763047 46.260997 
" clip-path="url(#ped2f0b5cef)" style="fill: none; stroke: #ff0000; stroke-width: 1.5"/>
    <path d="M 327.501306 62.561392 
L 327.501306 51.530527 
" clip-path="url(#ped2f0b5cef)" style="fill: none; stroke: #ff0000; stroke-width: 1.5"/>
    <path d="M 331.239565 68.245888 
L 331.239565 56.86573 
" clip-path="url(#ped2f0b5cef)" style="fill: none; stroke: #ff0000; stroke-width: 1.5"/>
    <path d="M 334.977824 73.894403 
L 334.977824 62.177056 
" clip-path="url(#ped2f0b5cef)" style="fill: none; stroke: #ff0000; stroke-width: 1.5"/>
    <path d="M 338.716083 79.39574 
L 338.716083 67.390871 
" clip-path="url(#ped2f0b5cef)" style="fill: none; stroke: #ff0000; stroke-width: 1.5"/>
    <path d="M 342.454342 84.670206 
L 342.454342 72.447733 
" clip-path="url(#ped2f0b5cef)" style="fill: none; stroke: #ff0000; stroke-width: 1.5"/>
    <path d="M 346.192601 89.667261 
L 346.192601 77.303644 
" clip-path="url(#ped2f0b5cef)" style="fill: none; stroke: #ff0000; stroke-width: 1.5"/>
    <path d="M 349.93086 94.357247 
L 349.93086 81.932431 
" clip-path="url(#ped2f0b5cef)" style="fill: none; stroke: #ff0000; stroke-width: 1.5"/>
    <path d="M 353.669119 98.721304 
L 353.669119 86.326947 
" clip-path="url(#ped2f0b5cef)" style="fill: none; stroke: #ff0000; stroke-width: 1.5"/>
    <path d="M 357.407378 102.743379 
L 357.407378 90.497329 
" clip-path="url(#ped2f0b5cef)" style="fill: none; stroke: #ff0000; stroke-width: 1.5"/>
    <path d="M 361.145637 106.406811 
L 361.145637 94.465953 
" clip-path="url(#ped2f0b5cef)" style="fill: none; stroke: #ff0000; stroke-width: 1.5"/>
    <path d="M 364.883897 109.696077 
L 364.883897 98.260049 
" clip-path="url(#ped2f0b5cef)" style="fill: none; stroke: #ff0000; stroke-width: 1.5"/>
    <path d="M 368.622156 112.602799 
L 368.622156 101.903577 
" clip-path="url(#ped2f0b5cef)" style="fill: none; stroke: #ff0000; stroke-width: 1.5"/>
    <path d="M 372.360415 115.134762 
L 372.360415 105.409335 
" clip-path="url(#ped2f0b5cef)" style="fill: none; stroke: #ff0000; stroke-width: 1.5"/>
    <path d="M 376.098674 117.327282 
L 376.098674 108.770802 
" clip-path="url(#ped2f0b5cef)" style="fill: none; stroke: #ff0000; stroke-width: 1.5"/>
    <path d="M 379.836933 119.257679 
L 379.836933 111.951356 
" clip-path="url(#ped2f0b5cef)" style="fill: none; stroke: #ff0000; stroke-width: 1.5"/>
    <path d="M 383.575192 121.063025 
L 383.575192 114.868961 
" clip-path="url(#ped2f0b5cef)" style="fill: none; stroke: #ff0000; stroke-width: 1.5"/>
    <path d="M 387.313451 122.941819 
L 387.313451 117.394406 
" clip-path="url(#ped2f0b5cef)" style="fill: none; stroke: #ff0000; stroke-width: 1.5"/>
    <path d="M 391.05171 125.06523 
L 391.05171 119.43685 
" clip-path="url(#ped2f0b5cef)" style="fill: none; stroke: #ff0000; stroke-width: 1.5"/>
    <path d="M 394.789969 127.425842 
L 394.789969 121.088986 
" clip-path="url(#ped2f0b5cef)" style="fill: none; stroke: #ff0000; stroke-width: 1.5"/>
    <path d="M 398.528228 129.883553 
L 398.528228 122.573174 
" clip-path="url(#ped2f0b5cef)" style="fill: none; stroke: #ff0000; stroke-width: 1.5"/>
    <path d="M 402.266487 132.313601 
L 402.266487 124.085018 
" clip-path="url(#ped2f0b5cef)" style="fill: none; stroke: #ff0000; stroke-width: 1.5"/>
    <path d="M 406.004747 134.645756 
L 406.004747 125.746897 
" clip-path="url(#ped2f0b5cef)" style="fill: none; stroke: #ff0000; stroke-width: 1.5"/>
    <path d="M 409.743006 136.849626 
L 409.743006 127.617839 
" clip-path="url(#ped2f0b5cef)" style="fill: none; stroke: #ff0000; stroke-width: 1.5"/>
    <path d="M 413.481265 138.920261 
L 413.481265 129.706358 
" clip-path="url(#ped2f0b5cef)" style="fill: none; stroke: #ff0000; stroke-width: 1.5"/>
    <path d="M 417.219524 140.869849 
L 417.219524 131.980635 
" clip-path="url(#ped2f0b5cef)" style="fill: none; stroke: #ff0000; stroke-width: 1.5"/>
    <path d="M 420.957783 142.722436 
L 420.957783 134.37871 
" clip-path="url(#ped2f0b5cef)" style="fill: none; stroke: #ff0000; stroke-width: 1.5"/>
    <path d="M 424.696042 144.509259 
L 424.696042 136.820194 
" clip-path="url(#ped2f0b5cef)" style="fill: none; stroke: #ff0000; stroke-width: 1.5"/>
    <path d="M 428.434301 146.262851 
L 428.434301 139.220154 
" clip-path="url(#ped2f0b5cef)" style="fill: none; stroke: #ff0000; stroke-width: 1.5"/>
    <path d="M 432.17256 148.008521 
L 432.17256 141.50538 
" clip-path="url(#ped2f0b5cef)" style="fill: none; stroke: #ff0000; stroke-width: 1.5"/>
    <path d="M 435.910819 149.754405 
L 435.910819 143.630758 
" clip-path="url(#ped2f0b5cef)" style="fill: none; stroke: #ff0000; stroke-width: 1.5"/>
    <path d="M 439.649078 151.486419 
L 439.649078 145.588655 
" clip-path="url(#ped2f0b5cef)" style="fill: none; stroke: #ff0000; stroke-width: 1.5"/>
    <path d="M 443.387337 153.174774 
L 443.387337 147.404235 
" clip-path="url(#ped2f0b5cef)" style="fill: none; stroke: #ff0000; stroke-width: 1.5"/>
    <path d="M 447.125597 154.788607 
L 447.125597 149.120051 
" clip-path="url(#ped2f0b5cef)" style="fill: none; stroke: #ff0000; stroke-width: 1.5"/>
    <path d="M 450.863856 156.307936 
L 450.863856 150.781011 
" clip-path="url(#ped2f0b5cef)" style="fill: none; stroke: #ff0000; stroke-width: 1.5"/>
    <path d="M 454.602115 157.727557 
L 454.602115 152.425526 
" clip-path="url(#ped2f0b5cef)" style="fill: none; stroke: #ff0000; stroke-width: 1.5"/>
    <path d="M 458.340374 159.055497 
L 458.340374 154.080957 
" clip-path="url(#ped2f0b5cef)" style="fill: none; stroke: #ff0000; stroke-width: 1.5"/>
    <path d="M 462.078633 160.310653 
L 462.078633 155.759524 
" clip-path="url(#ped2f0b5cef)" style="fill: none; stroke: #ff0000; stroke-width: 1.5"/>
    <path d="M 465.816892 161.522954 
L 465.816892 157.452212 
" clip-path="url(#ped2f0b5cef)" style="fill: none; stroke: #ff0000; stroke-width: 1.5"/>
   </g>
   <g id="line2d_12">
    <path d="M 91.990983 288.600454 
L 95.729242 288.377452 
L 99.467501 288.251078 
L 103.20576 288.239104 
L 106.944019 288.338009 
L 110.682278 288.52262 
L 114.420538 288.750139 
L 118.158797 288.967491 
L 121.897056 289.120204 
L 125.635315 289.160769 
L 129.373574 289.054644 
L 133.111833 288.782691 
L 136.850092 288.339671 
L 140.588351 287.72932 
L 144.32661 286.957208 
L 148.064869 286.023119 
L 151.803128 284.914701 
L 155.541388 283.603925 
L 159.279647 282.047226 
L 163.017906 280.18936 
L 166.756165 277.970075 
L 170.494424 275.331931 
L 174.232683 272.227159 
L 177.970942 268.621539 
L 181.709201 264.493894 
L 185.44746 259.830877 
L 189.185719 254.618111 
L 192.923978 248.829994 
L 196.662238 242.421371 
L 200.400497 235.324381 
L 204.138756 227.453013 
L 207.877015 218.716357 
L 211.615274 209.039344 
L 215.353533 198.387499 
L 219.091792 186.790338 
L 222.830051 174.357294 
L 226.56831 161.280876 
L 230.306569 147.824497 
L 234.044828 134.296328 
L 237.783087 121.014519 
L 241.521347 108.271504 
L 245.259606 96.305043 
L 248.997865 85.28124 
L 252.736124 75.291126 
L 256.474383 66.359066 
L 260.212642 58.459149 
L 263.950901 51.535123 
L 267.68916 45.51993 
L 271.427419 40.351968 
L 275.165678 35.986378 
L 278.903938 32.400666 
L 282.642197 29.594842 
L 286.380456 27.58691 
L 290.118715 26.404966 
L 293.856974 26.077451 
L 297.595233 26.623129 
L 301.333492 28.042253 
L 305.071751 30.31006 
L 308.81001 33.37339 
L 312.548269 37.150767 
L 316.286528 41.535841 
L 320.024787 46.403693 
L 323.763047 51.619141 
L 327.501306 57.04596 
L 331.239565 62.555809 
L 334.977824 68.03573 
L 338.716083 73.393305 
L 342.454342 78.558969 
L 346.192601 83.485452 
L 349.93086 88.144839 
L 353.669119 92.524125 
L 357.407378 96.620354 
L 361.145637 100.436382 
L 364.883897 103.978063 
L 368.622156 107.253188 
L 372.360415 110.272048 
L 376.098674 113.049042 
L 379.836933 115.604518 
L 383.575192 117.965993 
L 387.313451 120.168113 
L 391.05171 122.25104 
L 394.789969 124.257414 
L 398.528228 126.228364 
L 402.266487 128.199309 
L 406.004747 130.196326 
L 409.743006 132.233733 
L 413.481265 134.31331 
L 417.219524 136.425242 
L 420.957783 138.550573 
L 424.696042 140.664727 
L 428.434301 142.741502 
L 432.17256 144.75695 
L 435.910819 146.692581 
L 439.649078 148.537537 
L 443.387337 150.289504 
L 447.125597 151.954329 
L 450.863856 153.544474 
L 454.602115 155.076542 
L 458.340374 156.568227 
L 462.078633 158.035089 
L 465.816892 159.487583 
" clip-path="url(#ped2f0b5cef)" style="fill: none; stroke: #1f77b4; stroke-width: 1.5; stroke-linecap: square"/>
   </g>
   <g id="patch_3">
    <path d="M 73.299688 307.96 
L 73.299688 7.2 
" style="fill: none; stroke: #000000; stroke-width: 0.8; stroke-linejoin: miter; stroke-linecap: square"/>
   </g>
   <g id="patch_4">
    <path d="M 484.508187 307.96 
L 484.508187 7.2 
" style="fill: none; stroke: #000000; stroke-width: 0.8; stroke-linejoin: miter; stroke-linecap: square"/>
   </g>
   <g id="patch_5">
    <path d="M 73.299688 307.96 
L 484.508187 307.96 
" style="fill: none; stroke: #000000; stroke-width: 0.8; stroke-linejoin: miter; stroke-linecap: square"/>
   </g>
   <g id="patch_6">
    <path d="M 73.299688 7.2 
L 484.508187 7.2 
" style="fill: none; stroke: #000000; stroke-width: 0.8; stroke-linejoin: miter; stroke-linecap: square"/>
   </g>
  </g>
  <g id="text_14">
   <!-- Twist coefficients $z_0$ and $z_1$. M=5 Jackknife bins -->
   <g transform="translate(42.788188 358.92) scale(0.11 -0.11)">
    <defs>
     <path id="DejaVuSans-Oblique-54" d="M 378 4666 
L 4325 4666 
L 4225 4134 
L 2559 4134 
L 1759 0 
L 1125 0 
L 1925 4134 
L 275 4134 
L 378 4666 
z
" transform="scale(0.015625)"/>
     <path id="DejaVuSans-Oblique-77" d="M 544 3500 
L 1113 3500 
L 1259 684 
L 2566 3500 
L 3231 3500 
L 3425 684 
L 4666 3500 
L 5241 3500 
L 3641 0 
L 2969 0 
L 2797 2900 
L 1459 0 
L 781 0 
L 544 3500 
z
" transform="scale(0.015625)"/>
     <path id="DejaVuSans-Oblique-69" d="M 1172 4863 
L 1747 4863 
L 1606 4134 
L 1031 4134 
L 1172 4863 
z
M 909 3500 
L 1484 3500 
L 800 0 
L 225 0 
L 909 3500 
z
" transform="scale(0.015625)"/>
     <path id="DejaVuSans-Oblique-73" d="M 3200 3397 
L 3091 2853 
Q 2863 2978 2609 3040 
Q 2356 3103 2088 3103 
Q 1634 3103 1373 2948 
Q 1113 2794 1113 2528 
Q 1113 2219 1719 2053 
Q 1766 2041 1788 2034 
L 1972 1978 
Q 2547 1819 2739 1644 
Q 2931 1469 2931 1166 
Q 2931 609 2489 259 
Q 2047 -91 1331 -91 
Q 1053 -91 747 -37 
Q 441 16 72 128 
L 184 722 
Q 500 559 806 475 
Q 1113 391 1394 391 
Q 1816 391 2080 572 
Q 2344 753 2344 1031 
Q 2344 1331 1650 1516 
L 1591 1531 
L 1394 1581 
Q 956 1697 753 1886 
Q 550 2075 550 2369 
Q 550 2928 970 3256 
Q 1391 3584 2113 3584 
Q 2397 3584 2667 3537 
Q 2938 3491 3200 3397 
z
" transform="scale(0.015625)"/>
     <path id="DejaVuSans-Oblique-20" transform="scale(0.015625)"/>
     <path id="DejaVuSans-Oblique-63" d="M 3431 3366 
L 3316 2797 
Q 3109 2947 2876 3022 
Q 2644 3097 2394 3097 
Q 2119 3097 1870 3000 
Q 1622 2903 1453 2725 
Q 1184 2453 1037 2087 
Q 891 1722 891 1331 
Q 891 859 1127 628 
Q 1363 397 1844 397 
Q 2081 397 2348 469 
Q 2616 541 2906 684 
L 2797 116 
Q 2547 13 2283 -39 
Q 2019 -91 1741 -91 
Q 1044 -91 669 257 
Q 294 606 294 1253 
Q 294 1797 489 2255 
Q 684 2713 1069 3078 
Q 1331 3328 1684 3456 
Q 2038 3584 2456 3584 
Q 2700 3584 2940 3529 
Q 3181 3475 3431 3366 
z
" transform="scale(0.015625)"/>
     <path id="DejaVuSans-Oblique-6f" d="M 1625 -91 
Q 1009 -91 651 289 
Q 294 669 294 1325 
Q 294 1706 417 2101 
Q 541 2497 738 2766 
Q 1047 3184 1428 3384 
Q 1809 3584 2291 3584 
Q 2888 3584 3255 3212 
Q 3622 2841 3622 2241 
Q 3622 1825 3500 1412 
Q 3378 1000 3181 728 
Q 2875 309 2494 109 
Q 2113 -91 1625 -91 
z
M 891 1344 
Q 891 869 1089 633 
Q 1288 397 1691 397 
Q 2269 397 2648 901 
Q 3028 1406 3028 2181 
Q 3028 2634 2825 2865 
Q 2622 3097 2228 3097 
Q 1903 3097 1650 2945 
Q 1397 2794 1197 2484 
Q 1050 2253 970 1956 
Q 891 1659 891 1344 
z
" transform="scale(0.015625)"/>
     <path id="DejaVuSans-Oblique-65" d="M 3078 2063 
Q 3088 2113 3092 2166 
Q 3097 2219 3097 2272 
Q 3097 2653 2873 2875 
Q 2650 3097 2266 3097 
Q 1838 3097 1509 2826 
Q 1181 2556 1013 2059 
L 3078 2063 
z
M 3578 1613 
L 903 1613 
Q 884 1494 878 1425 
Q 872 1356 872 1306 
Q 872 872 1139 634 
Q 1406 397 1894 397 
Q 2269 397 2603 481 
Q 2938 566 3225 728 
L 3116 159 
Q 2806 34 2476 -28 
Q 2147 -91 1806 -91 
Q 1078 -91 686 257 
Q 294 606 294 1247 
Q 294 1794 489 2264 
Q 684 2734 1063 3103 
Q 1306 3334 1642 3459 
Q 1978 3584 2356 3584 
Q 2950 3584 3301 3228 
Q 3653 2872 3653 2272 
Q 3653 2128 3634 1964 
Q 3616 1800 3578 1613 
z
" transform="scale(0.015625)"/>
     <path id="DejaVuSans-Oblique-66" d="M 3059 4863 
L 2969 4384 
L 2419 4384 
Q 2106 4384 1964 4261 
Q 1822 4138 1753 3809 
L 1691 3500 
L 2638 3500 
L 2553 3053 
L 1606 3053 
L 1013 0 
L 434 0 
L 1031 3053 
L 481 3053 
L 563 3500 
L 1113 3500 
L 1159 3744 
Q 1278 4363 1576 4613 
Q 1875 4863 2516 4863 
L 3059 4863 
z
" transform="scale(0.015625)"/>
     <path id="DejaVuSans-Oblique-7a" d="M 744 3500 
L 3475 3500 
L 3372 2975 
L 738 459 
L 2913 459 
L 2822 0 
L -19 0 
L 84 525 
L 2719 3041 
L 653 3041 
L 744 3500 
z
" transform="scale(0.015625)"/>
     <path id="DejaVuSans-Oblique-61" d="M 3438 1997 
L 3047 0 
L 2472 0 
L 2578 531 
Q 2325 219 2001 64 
Q 1678 -91 1281 -91 
Q 834 -91 548 182 
Q 263 456 263 884 
Q 263 1497 752 1853 
Q 1241 2209 2100 2209 
L 2900 2209 
L 2931 2363 
Q 2938 2388 2941 2417 
Q 2944 2447 2944 2509 
Q 2944 2788 2717 2942 
Q 2491 3097 2081 3097 
Q 1800 3097 1504 3025 
Q 1209 2953 897 2809 
L 997 3341 
Q 1322 3463 1633 3523 
Q 1944 3584 2234 3584 
Q 2853 3584 3176 3315 
Q 3500 3047 3500 2534 
Q 3500 2431 3484 2292 
Q 3469 2153 3438 1997 
z
M 2816 1759 
L 2241 1759 
Q 1534 1759 1195 1570 
Q 856 1381 856 984 
Q 856 709 1029 553 
Q 1203 397 1509 397 
Q 1978 397 2328 733 
Q 2678 1069 2791 1631 
L 2816 1759 
z
" transform="scale(0.015625)"/>
     <path id="DejaVuSans-Oblique-64" d="M 2675 525 
Q 2444 222 2128 65 
Q 1813 -91 1428 -91 
Q 903 -91 598 267 
Q 294 625 294 1247 
Q 294 1766 478 2236 
Q 663 2706 1013 3078 
Q 1244 3325 1534 3454 
Q 1825 3584 2144 3584 
Q 2481 3584 2739 3421 
Q 2997 3259 3138 2956 
L 3513 4863 
L 4091 4863 
L 3144 0 
L 2566 0 
L 2675 525 
z
M 891 1350 
Q 891 897 1095 644 
Q 1300 391 1663 391 
Q 1931 391 2161 520 
Q 2391 650 2566 903 
Q 2750 1166 2856 1509 
Q 2963 1853 2963 2188 
Q 2963 2622 2758 2865 
Q 2553 3109 2194 3109 
Q 1922 3109 1687 2981 
Q 1453 2853 1288 2613 
Q 1106 2353 998 2009 
Q 891 1666 891 1350 
z
" transform="scale(0.015625)"/>
     <path id="DejaVuSans-Oblique-2e" d="M 525 794 
L 1184 794 
L 1031 0 
L 372 0 
L 525 794 
z
" transform="scale(0.015625)"/>
     <path id="DejaVuSans-Oblique-4d" d="M 1081 4666 
L 2028 4666 
L 2572 1522 
L 4378 4666 
L 5350 4666 
L 4441 0 
L 3828 0 
L 4622 4091 
L 2791 897 
L 2175 897 
L 1581 4103 
L 788 0 
L 172 0 
L 1081 4666 
z
" transform="scale(0.015625)"/>
     <path id="DejaVuSans-Oblique-3d" d="M 678 2906 
L 4684 2906 
L 4684 2381 
L 678 2381 
L 678 2906 
z
M 678 1631 
L 4684 1631 
L 4684 1100 
L 678 1100 
L 678 1631 
z
" transform="scale(0.015625)"/>
     <path id="DejaVuSans-Oblique-35" d="M 3719 4666 
L 3622 4141 
L 1691 4141 
L 1466 2988 
Q 1609 3034 1757 3056 
Q 1906 3078 2059 3078 
Q 2706 3078 3081 2731 
Q 3456 2384 3456 1791 
Q 3456 1375 3264 994 
Q 3072 613 2719 325 
Q 2469 125 2108 17 
Q 1747 -91 1319 -91 
Q 1038 -91 744 -41 
Q 450 9 128 109 
L 244 697 
Q 531 556 820 486 
Q 1109 416 1403 416 
Q 2013 416 2411 781 
Q 2809 1147 2809 1697 
Q 2809 2103 2548 2328 
Q 2288 2553 1819 2553 
Q 1572 2553 1305 2495 
Q 1038 2438 756 2322 
L 1209 4666 
L 3719 4666 
z
" transform="scale(0.015625)"/>
     <path id="DejaVuSans-Oblique-4a" d="M 1069 4666 
L 1703 4666 
L 856 325 
Q 691 -522 298 -901 
Q -94 -1281 -800 -1281 
L -1050 -1281 
L -947 -750 
L -750 -750 
Q -328 -750 -109 -509 
Q 109 -269 225 325 
L 1069 4666 
z
" transform="scale(0.015625)"/>
     <path id="DejaVuSans-Oblique-6b" d="M 1172 4863 
L 1747 4863 
L 1197 2028 
L 3169 3500 
L 3916 3500 
L 1716 1825 
L 3322 0 
L 2625 0 
L 1131 1709 
L 800 0 
L 225 0 
L 1172 4863 
z
" transform="scale(0.015625)"/>
     <path id="DejaVuSans-Oblique-62" d="M 3169 2138 
Q 3169 2591 2961 2847 
Q 2753 3103 2388 3103 
Q 2122 3103 1889 2973 
Q 1656 2844 1484 2597 
Q 1303 2338 1198 1995 
Q 1094 1653 1094 1313 
Q 1094 881 1298 636 
Q 1503 391 1863 391 
Q 2134 391 2365 517 
Q 2597 644 2772 891 
Q 2950 1147 3059 1487 
Q 3169 1828 3169 2138 
z
M 1381 2969 
Q 1594 3256 1914 3420 
Q 2234 3584 2584 3584 
Q 3122 3584 3439 3221 
Q 3756 2859 3756 2241 
Q 3756 1734 3570 1259 
Q 3384 784 3041 416 
Q 2816 172 2522 40 
Q 2228 -91 1906 -91 
Q 1566 -91 1316 65 
Q 1066 222 909 531 
L 806 0 
L 231 0 
L 1178 4863 
L 1753 4863 
L 1381 2969 
z
" transform="scale(0.015625)"/>
    </defs>
    <use xlink:href="#DejaVuSans-Oblique-54" transform="translate(0 0.015625)"/>
    <use xlink:href="#DejaVuSans-Oblique-77" transform="translate(61.083984 0.015625)"/>
    <use xlink:href="#DejaVuSans-Oblique-69" transform="translate(142.871094 0.015625)"/>
    <use xlink:href="#DejaVuSans-Oblique-73" transform="translate(170.654297 0.015625)"/>
    <use xlink:href="#DejaVuSans-Oblique-74" transform="translate(222.753906 0.015625)"/>
    <use xlink:href="#DejaVuSans-Oblique-20" transform="translate(261.962891 0.015625)"/>
    <use xlink:href="#DejaVuSans-Oblique-63" transform="translate(293.75 0.015625)"/>
    <use xlink:href="#DejaVuSans-Oblique-6f" transform="translate(348.730469 0.015625)"/>
    <use xlink:href="#DejaVuSans-Oblique-65" transform="translate(409.912109 0.015625)"/>
    <use xlink:href="#DejaVuSans-Oblique-66" transform="translate(471.435547 0.015625)"/>
    <use xlink:href="#DejaVuSans-Oblique-66" transform="translate(506.640625 0.015625)"/>
    <use xlink:href="#DejaVuSans-Oblique-69" transform="translate(541.845703 0.015625)"/>
    <use xlink:href="#DejaVuSans-Oblique-63" transform="translate(569.628906 0.015625)"/>
    <use xlink:href="#DejaVuSans-Oblique-69" transform="translate(624.609375 0.015625)"/>
    <use xlink:href="#DejaVuSans-Oblique-65" transform="translate(652.392578 0.015625)"/>
    <use xlink:href="#DejaVuSans-Oblique-6e" transform="translate(713.916016 0.015625)"/>
    <use xlink:href="#DejaVuSans-Oblique-74" transform="translate(777.294922 0.015625)"/>
    <use xlink:href="#DejaVuSans-Oblique-73" transform="translate(816.503906 0.015625)"/>
    <use xlink:href="#DejaVuSans-Oblique-20" transform="translate(868.603516 0.015625)"/>
    <use xlink:href="#DejaVuSans-Oblique-7a" transform="translate(900.390625 0.015625)"/>
    <use xlink:href="#DejaVuSans-30" transform="translate(952.880859 -16.390625) scale(0.7)"/>
    <use xlink:href="#DejaVuSans-Oblique-20" transform="translate(1000.151367 0.015625)"/>
    <use xlink:href="#DejaVuSans-Oblique-61" transform="translate(1031.938477 0.015625)"/>
    <use xlink:href="#DejaVuSans-Oblique-6e" transform="translate(1093.217773 0.015625)"/>
    <use xlink:href="#DejaVuSans-Oblique-64" transform="translate(1156.59668 0.015625)"/>
    <use xlink:href="#DejaVuSans-Oblique-20" transform="translate(1220.073242 0.015625)"/>
    <use xlink:href="#DejaVuSans-Oblique-7a" transform="translate(1251.860352 0.015625)"/>
    <use xlink:href="#DejaVuSans-31" transform="translate(1304.350586 -16.390625) scale(0.7)"/>
    <use xlink:href="#DejaVuSans-Oblique-2e" transform="translate(1351.621094 0.015625)"/>
    <use xlink:href="#DejaVuSans-Oblique-20" transform="translate(1383.408203 0.015625)"/>
    <use xlink:href="#DejaVuSans-Oblique-4d" transform="translate(1415.195312 0.015625)"/>
    <use xlink:href="#DejaVuSans-Oblique-3d" transform="translate(1501.474609 0.015625)"/>
    <use xlink:href="#DejaVuSans-Oblique-35" transform="translate(1585.263672 0.015625)"/>
    <use xlink:href="#DejaVuSans-Oblique-20" transform="translate(1648.886719 0.015625)"/>
    <use xlink:href="#DejaVuSans-Oblique-4a" transform="translate(1680.673828 0.015625)"/>
    <use xlink:href="#DejaVuSans-Oblique-61" transform="translate(1710.166016 0.015625)"/>
    <use xlink:href="#DejaVuSans-Oblique-63" transform="translate(1771.445312 0.015625)"/>
    <use xlink:href="#DejaVuSans-Oblique-6b" transform="translate(1826.425781 0.015625)"/>
    <use xlink:href="#DejaVuSans-Oblique-6b" transform="translate(1884.335938 0.015625)"/>
    <use xlink:href="#DejaVuSans-Oblique-6e" transform="translate(1942.246094 0.015625)"/>
    <use xlink:href="#DejaVuSans-Oblique-69" transform="translate(2005.625 0.015625)"/>
    <use xlink:href="#DejaVuSans-Oblique-66" transform="translate(2033.408203 0.015625)"/>
    <use xlink:href="#DejaVuSans-Oblique-65" transform="translate(2068.613281 0.015625)"/>
    <use xlink:href="#DejaVuSans-Oblique-20" transform="translate(2130.136719 0.015625)"/>
    <use xlink:href="#DejaVuSans-Oblique-62" transform="translate(2161.923828 0.015625)"/>
    <use xlink:href="#DejaVuSans-Oblique-69" transform="translate(2225.400391 0.015625)"/>
    <use xlink:href="#DejaVuSans-Oblique-6e" transform="translate(2253.183594 0.015625)"/>
    <use xlink:href="#DejaVuSans-Oblique-73" transform="translate(2316.5625 0.015625)"/>
   </g>
  </g>
 </g>
 <defs>
  <clipPath id="ped2f0b5cef">
   <rect x="73.299688" y="7.2" width="411.2085" height="300.76"/>
  </clipPath>
 </defs>
</svg>
