<?xml version="1.0" encoding="utf-8" standalone="no"?>
<!DOCTYPE svg PUBLIC "-//W3C//DTD SVG 1.1//EN"
  "http://www.w3.org/Graphics/SVG/1.1/DTD/svg11.dtd">
<svg xmlns:xlink="http://www.w3.org/1999/xlink" width="432pt" height="360pt" viewBox="0 0 432 360" xmlns="http://www.w3.org/2000/svg" version="1.1">
 <metadata>
  <rdf:RDF xmlns:dc="http://purl.org/dc/elements/1.1/" xmlns:cc="http://creativecommons.org/ns#" xmlns:rdf="http://www.w3.org/1999/02/22-rdf-syntax-ns#">
   <cc:Work>
    <dc:type rdf:resource="http://purl.org/dc/dcmitype/StillImage"/>
    <dc:date>2024-03-06T11:59:21.405540</dc:date>
    <dc:format>image/svg+xml</dc:format>
    <dc:creator>
     <cc:Agent>
      <dc:title>Matplotlib v3.8.0, https://matplotlib.org/</dc:title>
     </cc:Agent>
    </dc:creator>
   </cc:Work>
  </rdf:RDF>
 </metadata>
 <defs>
  <style type="text/css">*{stroke-linejoin: round; stroke-linecap: butt}</style>
 </defs>
 <g id="figure_1">
  <g id="patch_1">
   <path d="M 0 360 
L 432 360 
L 432 0 
L 0 0 
z
" style="fill: #ffffff"/>
  </g>
  <g id="axes_1">
   <g id="patch_2">
    <path d="M 54 320.4 
L 388.8 320.4 
L 388.8 43.2 
L 54 43.2 
z
" style="fill: #ffffff"/>
   </g>
   <g id="matplotlib.axis_1">
    <g id="xtick_1">
     <g id="line2d_1">
      <defs>
       <path id="mb59a2bba11" d="M 0 0 
L 0 3.5 
" style="stroke: #000000; stroke-width: 0.8"/>
      </defs>
      <g>
       <use xlink:href="#mb59a2bba11" x="99.654545" y="320.4" style="stroke: #000000; stroke-width: 0.8"/>
      </g>
     </g>
     <g id="text_1">
      <!-- 10.76 -->
      <g transform="translate(85.340483 334.998438) scale(0.1 -0.1)">
       <defs>
        <path id="DejaVuSans-31" d="M 794 531 
L 1825 531 
L 1825 4091 
L 703 3866 
L 703 4441 
L 1819 4666 
L 2450 4666 
L 2450 531 
L 3481 531 
L 3481 0 
L 794 0 
L 794 531 
z
" transform="scale(0.015625)"/>
        <path id="DejaVuSans-30" d="M 2034 4250 
Q 1547 4250 1301 3770 
Q 1056 3291 1056 2328 
Q 1056 1369 1301 889 
Q 1547 409 2034 409 
Q 2525 409 2770 889 
Q 3016 1369 3016 2328 
Q 3016 3291 2770 3770 
Q 2525 4250 2034 4250 
z
M 2034 4750 
Q 2819 4750 3233 4129 
Q 3647 3509 3647 2328 
Q 3647 1150 3233 529 
Q 2819 -91 2034 -91 
Q 1250 -91 836 529 
Q 422 1150 422 2328 
Q 422 3509 836 4129 
Q 1250 4750 2034 4750 
z
" transform="scale(0.015625)"/>
        <path id="DejaVuSans-2e" d="M 684 794 
L 1344 794 
L 1344 0 
L 684 0 
L 684 794 
z
" transform="scale(0.015625)"/>
        <path id="DejaVuSans-37" d="M 525 4666 
L 3525 4666 
L 3525 4397 
L 1831 0 
L 1172 0 
L 2766 4134 
L 525 4134 
L 525 4666 
z
" transform="scale(0.015625)"/>
        <path id="DejaVuSans-36" d="M 2113 2584 
Q 1688 2584 1439 2293 
Q 1191 2003 1191 1497 
Q 1191 994 1439 701 
Q 1688 409 2113 409 
Q 2538 409 2786 701 
Q 3034 994 3034 1497 
Q 3034 2003 2786 2293 
Q 2538 2584 2113 2584 
z
M 3366 4563 
L 3366 3988 
Q 3128 4100 2886 4159 
Q 2644 4219 2406 4219 
Q 1781 4219 1451 3797 
Q 1122 3375 1075 2522 
Q 1259 2794 1537 2939 
Q 1816 3084 2150 3084 
Q 2853 3084 3261 2657 
Q 3669 2231 3669 1497 
Q 3669 778 3244 343 
Q 2819 -91 2113 -91 
Q 1303 -91 875 529 
Q 447 1150 447 2328 
Q 447 3434 972 4092 
Q 1497 4750 2381 4750 
Q 2619 4750 2861 4703 
Q 3103 4656 3366 4563 
z
" transform="scale(0.015625)"/>
       </defs>
       <use xlink:href="#DejaVuSans-31"/>
       <use xlink:href="#DejaVuSans-30" x="63.623047"/>
       <use xlink:href="#DejaVuSans-2e" x="127.246094"/>
       <use xlink:href="#DejaVuSans-37" x="159.033203"/>
       <use xlink:href="#DejaVuSans-36" x="222.65625"/>
      </g>
     </g>
    </g>
    <g id="xtick_2">
     <g id="line2d_2">
      <g>
       <use xlink:href="#mb59a2bba11" x="160.527273" y="320.4" style="stroke: #000000; stroke-width: 0.8"/>
      </g>
     </g>
     <g id="text_2">
      <!-- 10.78 -->
      <g transform="translate(146.21321 334.998438) scale(0.1 -0.1)">
       <defs>
        <path id="DejaVuSans-38" d="M 2034 2216 
Q 1584 2216 1326 1975 
Q 1069 1734 1069 1313 
Q 1069 891 1326 650 
Q 1584 409 2034 409 
Q 2484 409 2743 651 
Q 3003 894 3003 1313 
Q 3003 1734 2745 1975 
Q 2488 2216 2034 2216 
z
M 1403 2484 
Q 997 2584 770 2862 
Q 544 3141 544 3541 
Q 544 4100 942 4425 
Q 1341 4750 2034 4750 
Q 2731 4750 3128 4425 
Q 3525 4100 3525 3541 
Q 3525 3141 3298 2862 
Q 3072 2584 2669 2484 
Q 3125 2378 3379 2068 
Q 3634 1759 3634 1313 
Q 3634 634 3220 271 
Q 2806 -91 2034 -91 
Q 1263 -91 848 271 
Q 434 634 434 1313 
Q 434 1759 690 2068 
Q 947 2378 1403 2484 
z
M 1172 3481 
Q 1172 3119 1398 2916 
Q 1625 2713 2034 2713 
Q 2441 2713 2670 2916 
Q 2900 3119 2900 3481 
Q 2900 3844 2670 4047 
Q 2441 4250 2034 4250 
Q 1625 4250 1398 4047 
Q 1172 3844 1172 3481 
z
" transform="scale(0.015625)"/>
       </defs>
       <use xlink:href="#DejaVuSans-31"/>
       <use xlink:href="#DejaVuSans-30" x="63.623047"/>
       <use xlink:href="#DejaVuSans-2e" x="127.246094"/>
       <use xlink:href="#DejaVuSans-37" x="159.033203"/>
       <use xlink:href="#DejaVuSans-38" x="222.65625"/>
      </g>
     </g>
    </g>
    <g id="xtick_3">
     <g id="line2d_3">
      <g>
       <use xlink:href="#mb59a2bba11" x="221.4" y="320.4" style="stroke: #000000; stroke-width: 0.8"/>
      </g>
     </g>
     <g id="text_3">
      <!-- 10.80 -->
      <g transform="translate(207.085938 334.998438) scale(0.1 -0.1)">
       <use xlink:href="#DejaVuSans-31"/>
       <use xlink:href="#DejaVuSans-30" x="63.623047"/>
       <use xlink:href="#DejaVuSans-2e" x="127.246094"/>
       <use xlink:href="#DejaVuSans-38" x="159.033203"/>
       <use xlink:href="#DejaVuSans-30" x="222.65625"/>
      </g>
     </g>
    </g>
    <g id="xtick_4">
     <g id="line2d_4">
      <g>
       <use xlink:href="#mb59a2bba11" x="282.272727" y="320.4" style="stroke: #000000; stroke-width: 0.8"/>
      </g>
     </g>
     <g id="text_4">
      <!-- 10.82 -->
      <g transform="translate(267.958665 334.998438) scale(0.1 -0.1)">
       <defs>
        <path id="DejaVuSans-32" d="M 1228 531 
L 3431 531 
L 3431 0 
L 469 0 
L 469 531 
Q 828 903 1448 1529 
Q 2069 2156 2228 2338 
Q 2531 2678 2651 2914 
Q 2772 3150 2772 3378 
Q 2772 3750 2511 3984 
Q 2250 4219 1831 4219 
Q 1534 4219 1204 4116 
Q 875 4013 500 3803 
L 500 4441 
Q 881 4594 1212 4672 
Q 1544 4750 1819 4750 
Q 2544 4750 2975 4387 
Q 3406 4025 3406 3419 
Q 3406 3131 3298 2873 
Q 3191 2616 2906 2266 
Q 2828 2175 2409 1742 
Q 1991 1309 1228 531 
z
" transform="scale(0.015625)"/>
       </defs>
       <use xlink:href="#DejaVuSans-31"/>
       <use xlink:href="#DejaVuSans-30" x="63.623047"/>
       <use xlink:href="#DejaVuSans-2e" x="127.246094"/>
       <use xlink:href="#DejaVuSans-38" x="159.033203"/>
       <use xlink:href="#DejaVuSans-32" x="222.65625"/>
      </g>
     </g>
    </g>
    <g id="xtick_5">
     <g id="line2d_5">
      <g>
       <use xlink:href="#mb59a2bba11" x="343.145455" y="320.4" style="stroke: #000000; stroke-width: 0.8"/>
      </g>
     </g>
     <g id="text_5">
      <!-- 10.84 -->
      <g transform="translate(328.831392 334.998438) scale(0.1 -0.1)">
       <defs>
        <path id="DejaVuSans-34" d="M 2419 4116 
L 825 1625 
L 2419 1625 
L 2419 4116 
z
M 2253 4666 
L 3047 4666 
L 3047 1625 
L 3713 1625 
L 3713 1100 
L 3047 1100 
L 3047 0 
L 2419 0 
L 2419 1100 
L 313 1100 
L 313 1709 
L 2253 4666 
z
" transform="scale(0.015625)"/>
       </defs>
       <use xlink:href="#DejaVuSans-31"/>
       <use xlink:href="#DejaVuSans-30" x="63.623047"/>
       <use xlink:href="#DejaVuSans-2e" x="127.246094"/>
       <use xlink:href="#DejaVuSans-38" x="159.033203"/>
       <use xlink:href="#DejaVuSans-34" x="222.65625"/>
      </g>
     </g>
    </g>
    <g id="text_6">
     <!-- $\beta$ -->
     <g transform="translate(218.2 348.778125) scale(0.1 -0.1)">
      <defs>
       <path id="DejaVuSans-Oblique-3b2" d="M 872 216 
L 572 -1331 
L -6 -1331 
L 928 3478 
Q 1206 4903 2538 4903 
Q 3888 4903 3659 3700 
Q 3503 2844 2894 2531 
Q 3713 2250 3553 1416 
Q 3272 -69 1759 -66 
Q 1097 -63 872 216 
z
M 1019 966 
Q 1259 422 1875 425 
Q 2775 425 2966 1406 
Q 3138 2288 1675 2219 
L 1778 2750 
Q 2909 2731 3106 3750 
Q 3241 4438 2509 4434 
Q 1691 4434 1503 3459 
L 1019 966 
z
" transform="scale(0.015625)"/>
      </defs>
      <use xlink:href="#DejaVuSans-Oblique-3b2" transform="translate(0 0.390625)"/>
     </g>
    </g>
   </g>
   <g id="matplotlib.axis_2">
    <g id="ytick_1">
     <g id="line2d_6">
      <defs>
       <path id="m72bd29aa0f" d="M 0 0 
L -3.5 0 
" style="stroke: #000000; stroke-width: 0.8"/>
      </defs>
      <g>
       <use xlink:href="#m72bd29aa0f" x="54" y="273.452878" style="stroke: #000000; stroke-width: 0.8"/>
      </g>
     </g>
     <g id="text_7">
      <!-- 0.434 -->
      <g transform="translate(18.371875 277.252097) scale(0.1 -0.1)">
       <defs>
        <path id="DejaVuSans-33" d="M 2597 2516 
Q 3050 2419 3304 2112 
Q 3559 1806 3559 1356 
Q 3559 666 3084 287 
Q 2609 -91 1734 -91 
Q 1441 -91 1130 -33 
Q 819 25 488 141 
L 488 750 
Q 750 597 1062 519 
Q 1375 441 1716 441 
Q 2309 441 2620 675 
Q 2931 909 2931 1356 
Q 2931 1769 2642 2001 
Q 2353 2234 1838 2234 
L 1294 2234 
L 1294 2753 
L 1863 2753 
Q 2328 2753 2575 2939 
Q 2822 3125 2822 3475 
Q 2822 3834 2567 4026 
Q 2313 4219 1838 4219 
Q 1578 4219 1281 4162 
Q 984 4106 628 3988 
L 628 4550 
Q 988 4650 1302 4700 
Q 1616 4750 1894 4750 
Q 2613 4750 3031 4423 
Q 3450 4097 3450 3541 
Q 3450 3153 3228 2886 
Q 3006 2619 2597 2516 
z
" transform="scale(0.015625)"/>
       </defs>
       <use xlink:href="#DejaVuSans-30"/>
       <use xlink:href="#DejaVuSans-2e" x="63.623047"/>
       <use xlink:href="#DejaVuSans-34" x="95.410156"/>
       <use xlink:href="#DejaVuSans-33" x="159.033203"/>
       <use xlink:href="#DejaVuSans-34" x="222.65625"/>
      </g>
     </g>
    </g>
    <g id="ytick_2">
     <g id="line2d_7">
      <g>
       <use xlink:href="#m72bd29aa0f" x="54" y="215.38408" style="stroke: #000000; stroke-width: 0.8"/>
      </g>
     </g>
     <g id="text_8">
      <!-- 0.436 -->
      <g transform="translate(18.371875 219.183299) scale(0.1 -0.1)">
       <use xlink:href="#DejaVuSans-30"/>
       <use xlink:href="#DejaVuSans-2e" x="63.623047"/>
       <use xlink:href="#DejaVuSans-34" x="95.410156"/>
       <use xlink:href="#DejaVuSans-33" x="159.033203"/>
       <use xlink:href="#DejaVuSans-36" x="222.65625"/>
      </g>
     </g>
    </g>
    <g id="ytick_3">
     <g id="line2d_8">
      <g>
       <use xlink:href="#m72bd29aa0f" x="54" y="157.315283" style="stroke: #000000; stroke-width: 0.8"/>
      </g>
     </g>
     <g id="text_9">
      <!-- 0.438 -->
      <g transform="translate(18.371875 161.114501) scale(0.1 -0.1)">
       <use xlink:href="#DejaVuSans-30"/>
       <use xlink:href="#DejaVuSans-2e" x="63.623047"/>
       <use xlink:href="#DejaVuSans-34" x="95.410156"/>
       <use xlink:href="#DejaVuSans-33" x="159.033203"/>
       <use xlink:href="#DejaVuSans-38" x="222.65625"/>
      </g>
     </g>
    </g>
    <g id="ytick_4">
     <g id="line2d_9">
      <g>
       <use xlink:href="#m72bd29aa0f" x="54" y="99.246485" style="stroke: #000000; stroke-width: 0.8"/>
      </g>
     </g>
     <g id="text_10">
      <!-- 0.440 -->
      <g transform="translate(18.371875 103.045704) scale(0.1 -0.1)">
       <use xlink:href="#DejaVuSans-30"/>
       <use xlink:href="#DejaVuSans-2e" x="63.623047"/>
       <use xlink:href="#DejaVuSans-34" x="95.410156"/>
       <use xlink:href="#DejaVuSans-34" x="159.033203"/>
       <use xlink:href="#DejaVuSans-30" x="222.65625"/>
      </g>
     </g>
    </g>
    <g id="text_11">
     <!-- $\langle$ S $\rangle$ -->
     <g transform="translate(12.292187 192.1) rotate(-90) scale(0.1 -0.1)">
      <defs>
       <path id="DejaVuSans-27e8" d="M 572 2006 
L 1453 4856 
L 1984 4856 
L 1103 2006 
L 1984 -844 
L 1453 -844 
L 572 2006 
z
" transform="scale(0.015625)"/>
       <path id="DejaVuSans-20" transform="scale(0.015625)"/>
       <path id="DejaVuSans-53" d="M 3425 4513 
L 3425 3897 
Q 3066 4069 2747 4153 
Q 2428 4238 2131 4238 
Q 1616 4238 1336 4038 
Q 1056 3838 1056 3469 
Q 1056 3159 1242 3001 
Q 1428 2844 1947 2747 
L 2328 2669 
Q 3034 2534 3370 2195 
Q 3706 1856 3706 1288 
Q 3706 609 3251 259 
Q 2797 -91 1919 -91 
Q 1588 -91 1214 -16 
Q 841 59 441 206 
L 441 856 
Q 825 641 1194 531 
Q 1563 422 1919 422 
Q 2459 422 2753 634 
Q 3047 847 3047 1241 
Q 3047 1584 2836 1778 
Q 2625 1972 2144 2069 
L 1759 2144 
Q 1053 2284 737 2584 
Q 422 2884 422 3419 
Q 422 4038 858 4394 
Q 1294 4750 2059 4750 
Q 2388 4750 2728 4690 
Q 3069 4631 3425 4513 
z
" transform="scale(0.015625)"/>
       <path id="DejaVuSans-27e9" d="M 1925 2006 
L 1044 -844 
L 513 -844 
L 1394 2006 
L 513 4856 
L 1044 4856 
L 1925 2006 
z
" transform="scale(0.015625)"/>
      </defs>
      <use xlink:href="#DejaVuSans-27e8" transform="translate(0 0.125)"/>
      <use xlink:href="#DejaVuSans-20" transform="translate(39.013672 0.125)"/>
      <use xlink:href="#DejaVuSans-53" transform="translate(70.800781 0.125)"/>
      <use xlink:href="#DejaVuSans-20" transform="translate(134.277344 0.125)"/>
      <use xlink:href="#DejaVuSans-27e9" transform="translate(166.064453 0.125)"/>
     </g>
    </g>
   </g>
   <g id="line2d_10">
    <path d="M 69.218182 55.971599 
L 72.261818 58.435354 
L 75.305455 60.890585 
L 78.349091 63.340672 
L 81.392727 65.788818 
L 84.436364 68.237815 
L 87.48 70.689732 
L 90.523636 73.145582 
L 93.567273 75.605058 
L 96.610909 78.066478 
L 99.654545 80.527007 
L 102.698182 82.983167 
L 105.741818 85.431542 
L 108.785455 87.869515 
L 111.829091 90.295834 
L 114.872727 92.710842 
L 117.916364 95.116279 
L 120.96 97.514725 
L 124.003636 99.908872 
L 127.047273 102.300869 
L 130.090909 104.691954 
L 133.134545 107.082464 
L 136.178182 109.472136 
L 139.221818 111.86056 
L 142.265455 114.247613 
L 145.309091 116.633787 
L 148.352727 119.020416 
L 151.396364 121.409849 
L 154.44 123.805685 
L 157.483636 126.213196 
L 160.527273 128.640205 
L 163.570909 131.098836 
L 166.614545 133.608733 
L 169.658182 136.202417 
L 172.701818 138.932994 
L 175.745455 141.882653 
L 178.789091 145.165713 
L 181.832727 148.911674 
L 184.876364 153.208672 
L 187.92 158.009579 
L 190.963636 163.068646 
L 194.007273 168.011023 
L 197.050909 172.518003 
L 200.094545 176.460483 
L 203.138182 179.883458 
L 206.181818 182.912252 
L 209.225455 185.67603 
L 212.269091 188.275172 
L 215.312727 190.777304 
L 218.356364 193.224044 
L 221.4 195.639207 
L 224.443636 198.035435 
L 227.487273 200.41892 
L 230.530909 202.792546 
L 233.574545 205.157792 
L 236.618182 207.515693 
L 239.661818 209.867092 
L 242.705455 212.212531 
L 245.749091 214.552047 
L 248.792727 216.885092 
L 251.836364 219.210642 
L 254.88 221.527422 
L 257.923636 223.834172 
L 260.967273 226.12988 
L 264.010909 228.413952 
L 267.054545 230.686334 
L 270.098182 232.947562 
L 273.141818 235.198735 
L 276.185455 237.441425 
L 279.229091 239.677512 
L 282.272727 241.909002 
L 285.316364 244.137844 
L 288.36 246.365788 
L 291.403636 248.59428 
L 294.447273 250.824405 
L 297.490909 253.056849 
L 300.534545 255.291858 
L 303.578182 257.529194 
L 306.621818 259.768081 
L 309.665455 262.007174 
L 312.709091 264.244603 
L 315.752727 266.4781 
L 318.796364 268.705234 
L 321.84 270.923711 
L 324.883636 273.131721 
L 327.927273 275.328243 
L 330.970909 277.513276 
L 334.014545 279.68792 
L 337.058182 281.854274 
L 340.101818 284.015134 
L 343.145455 286.173526 
L 346.189091 288.332142 
L 349.232727 290.492833 
L 352.276364 292.656267 
L 355.32 294.821892 
L 358.363636 296.988209 
L 361.407273 299.153283 
L 364.450909 301.315321 
L 367.494545 303.473161 
L 370.538182 305.626553 
L 373.581818 307.7762 
" clip-path="url(#p03e39935c1)" style="fill: none; stroke-dasharray: 1.5,2.475; stroke-dashoffset: 0; stroke: #1f77b4; stroke-width: 1.5"/>
   </g>
   <g id="line2d_11">
    <path d="M 69.218182 55.957801 
L 72.261818 58.425804 
L 75.305455 60.882933 
L 78.349091 63.331977 
L 81.392727 65.776453 
L 84.436364 68.220275 
L 87.48 70.666962 
L 90.523636 73.118746 
L 93.567273 75.575906 
L 96.610909 78.036607 
L 99.654545 80.497328 
L 102.698182 82.953776 
L 105.741818 85.401984 
L 108.785455 87.839254 
L 111.829091 90.264675 
L 114.872727 92.679091 
L 117.916364 95.084635 
L 120.96 97.484005 
L 124.003636 99.879755 
L 127.047273 102.273797 
L 130.090909 104.667212 
L 133.134545 107.060358 
L 136.178182 109.453151 
L 139.221818 111.845417 
L 142.265455 114.237195 
L 145.309091 116.629002 
L 148.352727 119.022045 
L 151.396364 121.418433 
L 154.44 123.821415 
L 157.483636 126.235763 
L 160.527273 128.668542 
L 163.570909 131.130752 
L 166.614545 133.640564 
L 169.658182 136.229033 
L 172.701818 138.948804 
L 175.745455 141.884504 
L 178.789091 145.158375 
L 181.832727 148.914689 
L 184.876364 153.258493 
L 187.92 158.14695 
L 190.963636 163.311137 
L 194.007273 168.334703 
L 197.050909 172.870998 
L 200.094545 176.793483 
L 203.138182 180.167924 
L 206.181818 183.140314 
L 209.225455 185.85251 
L 212.269091 188.410105 
L 215.312727 190.881332 
L 218.356364 193.306257 
L 221.4 195.706492 
L 224.443636 198.092608 
L 227.487273 200.469188 
L 230.530909 202.838031 
L 233.574545 205.199982 
L 236.618182 207.555738 
L 239.661818 209.905971 
L 242.705455 212.251097 
L 245.749091 214.590989 
L 248.792727 216.924863 
L 251.836364 219.251374 
L 254.88 221.568885 
L 257.923636 223.875811 
L 260.967273 226.170958 
L 264.010909 228.453775 
L 267.054545 230.724511 
L 270.098182 232.984215 
L 273.141818 235.234597 
L 276.185455 237.477761 
L 279.229091 239.715885 
L 282.272727 241.950916 
L 285.316364 244.18437 
L 288.36 246.417261 
L 291.403636 248.65018 
L 294.447273 250.883442 
L 297.490909 253.117233 
L 300.534545 255.35167 
L 303.578182 257.586739 
L 306.621818 259.822136 
L 309.665455 262.057094 
L 312.709091 264.290274 
L 315.752727 266.519802 
L 318.796364 268.743451 
L 321.84 270.958968 
L 324.883636 273.164467 
L 327.927273 275.358823 
L 330.970909 277.54197 
L 334.014545 279.715013 
L 337.058182 281.880112 
L 340.101818 284.040119 
L 343.145455 286.198034 
L 346.189091 288.356401 
L 349.232727 290.516801 
L 352.276364 292.679594 
L 355.32 294.844006 
L 358.363636 297.008516 
L 361.407273 299.171425 
L 364.450909 301.331387 
L 367.494545 303.487738 
L 370.538182 305.640521 
L 373.581818 307.79028 
" clip-path="url(#p03e39935c1)" style="fill: none; stroke-dasharray: 1.5,2.475; stroke-dashoffset: 0; stroke: #ff7f0e; stroke-width: 1.5"/>
   </g>
   <g id="line2d_12">
    <path d="M 69.218182 55.993344 
L 72.261818 58.448212 
L 75.305455 60.894538 
L 78.349091 63.335233 
L 81.392727 65.773865 
L 84.436364 68.214009 
L 87.48 70.658507 
L 90.523636 73.108834 
L 93.567273 75.564733 
L 96.610909 78.024238 
L 99.654545 80.484082 
L 102.698182 82.940417 
L 105.741818 85.389657 
L 108.785455 87.829237 
L 111.829091 90.258078 
L 114.872727 92.676655 
L 117.916364 95.086652 
L 120.96 97.490342 
L 124.003636 99.889903 
L 127.047273 102.286902 
L 130.090909 104.682096 
L 133.134545 107.07557 
L 136.178182 109.46709 
L 139.221818 111.856513 
L 142.265455 114.244127 
L 145.309091 116.630902 
L 148.352727 119.018681 
L 151.396364 121.410431 
L 154.44 123.810634 
L 157.483636 126.225985 
L 160.527273 128.666658 
L 163.570909 131.148637 
L 166.614545 133.697744 
L 169.658182 136.355961 
L 172.701818 139.189622 
L 175.745455 142.296074 
L 178.789091 145.798906 
L 181.832727 149.81371 
L 184.876364 154.37109 
L 187.92 159.327661 
L 190.963636 164.360488 
L 194.007273 169.105277 
L 197.050909 173.333605 
L 200.094545 177.011424 
L 203.138182 180.232634 
L 206.181818 183.128139 
L 209.225455 185.812378 
L 212.269091 188.367566 
L 215.312727 190.846633 
L 218.356364 193.281267 
L 221.4 195.689347 
L 224.443636 198.080416 
L 227.487273 200.45939 
L 230.530909 202.828943 
L 233.574545 205.190886 
L 236.618182 207.546754 
L 239.661818 209.897819 
L 242.705455 212.244801 
L 245.749091 214.587559 
L 248.792727 216.925005 
L 251.836364 219.255289 
L 254.88 221.576226 
L 257.923636 223.885805 
L 260.967273 226.182654 
L 264.010909 228.466341 
L 267.054545 230.737465 
L 270.098182 232.99753 
L 273.141818 235.248646 
L 276.185455 237.493117 
L 279.229091 239.73303 
L 282.272727 241.969947 
L 285.316364 244.20478 
L 288.36 246.437888 
L 291.403636 248.669335 
L 294.447273 250.899213 
L 297.490909 253.127867 
L 300.534545 255.35592 
L 303.578182 257.584086 
L 306.621818 259.812823 
L 309.665455 262.041997 
L 312.709091 264.270682 
L 315.752727 266.49718 
L 318.796364 268.719275 
L 321.84 270.934625 
L 324.883636 273.141208 
L 327.927273 275.337719 
L 330.970909 277.523841 
L 334.014545 279.700342 
L 337.058182 281.868966 
L 340.101818 284.032123 
L 343.145455 286.192418 
L 346.189091 288.352113 
L 349.232727 290.512656 
L 352.276364 292.674427 
L 355.32 294.836799 
L 358.363636 296.998495 
L 361.407273 299.15812 
L 364.450909 301.314669 
L 367.494545 303.467836 
L 370.538182 305.618051 
L 373.581818 307.766275 
" clip-path="url(#p03e39935c1)" style="fill: none; stroke-dasharray: 1.5,2.475; stroke-dashoffset: 0; stroke: #2ca02c; stroke-width: 1.5"/>
   </g>
   <g id="line2d_13">
    <path d="M 69.218182 55.954129 
L 72.261818 58.433029 
L 75.305455 60.89858 
L 78.349091 63.354396 
L 81.392727 65.804887 
L 84.436364 68.254484 
L 87.48 70.706732 
L 90.523636 73.163556 
L 93.567273 75.624872 
L 96.610909 78.088667 
L 99.654545 80.551499 
L 102.698182 83.009314 
L 105.741818 85.458342 
L 108.785455 87.895897 
L 111.829091 90.320862 
L 114.872727 92.733792 
L 117.916364 95.136619 
L 120.96 97.53207 
L 124.003636 99.92298 
L 127.047273 102.311716 
L 130.090909 104.699822 
L 133.134545 107.087976 
L 136.178182 109.47618 
L 139.221818 111.864092 
L 142.265455 114.251398 
L 145.309091 116.638168 
L 148.352727 119.025179 
L 151.396364 121.414219 
L 154.44 123.808448 
L 157.483636 126.212942 
L 160.527273 128.635729 
L 163.570909 131.089821 
L 166.614545 133.596951 
L 169.658182 136.193705 
L 172.701818 138.940154 
L 175.745455 141.92874 
L 178.789091 145.28545 
L 181.832727 149.145804 
L 184.876364 153.585177 
L 187.92 158.515754 
L 190.963636 163.639274 
L 194.007273 168.556495 
L 197.050909 172.971356 
L 200.094545 176.799239 
L 203.138182 180.118738 
L 206.181818 183.068418 
L 209.225455 185.777143 
L 212.269091 188.339867 
L 215.312727 190.81838 
L 218.356364 193.249766 
L 221.4 195.654836 
L 224.443636 198.044477 
L 227.487273 200.423967 
L 230.530909 202.795742 
L 233.574545 205.161024 
L 236.618182 207.52058 
L 239.661818 209.874905 
L 242.705455 212.224093 
L 245.749091 214.567687 
L 248.792727 216.904658 
L 251.836364 219.233551 
L 254.88 221.552756 
L 257.923636 223.860804 
L 260.967273 226.156641 
L 264.010909 228.439839 
L 267.054545 230.710721 
L 270.098182 232.970378 
L 273.141818 235.220551 
L 276.185455 237.463385 
L 279.229091 239.701108 
L 282.272727 241.935718 
L 285.316364 244.168762 
L 288.36 246.401255 
L 291.403636 248.633768 
L 294.447273 250.866603 
L 297.490909 253.099978 
L 300.534545 255.334113 
L 303.578182 257.569172 
L 306.621818 259.805069 
L 309.665455 262.041241 
L 312.709091 264.27647 
L 315.752727 266.508858 
L 318.796364 268.735987 
L 321.84 270.955245 
L 324.883636 273.164259 
L 327.927273 275.361367 
L 330.970909 277.546022 
L 334.014545 279.719038 
L 337.058182 281.882586 
L 340.101818 284.039896 
L 343.145455 286.194669 
L 346.189091 288.350318 
L 349.232727 290.5092 
L 352.276364 292.672087 
L 355.32 294.838041 
L 358.363636 297.004765 
L 361.407273 299.169322 
L 364.450909 301.328965 
L 367.494545 303.481813 
L 370.538182 305.627172 
L 373.581818 307.765478 
" clip-path="url(#p03e39935c1)" style="fill: none; stroke-dasharray: 1.5,2.475; stroke-dashoffset: 0; stroke: #d62728; stroke-width: 1.5"/>
   </g>
   <g id="line2d_14">
    <path d="M 69.218182 55.930299 
L 72.261818 58.412421 
L 75.305455 60.886625 
L 78.349091 63.35386 
L 81.392727 65.814752 
L 84.436364 68.269719 
L 87.48 70.719043 
L 90.523636 73.162946 
L 93.567273 75.601678 
L 96.610909 78.035582 
L 99.654545 80.46513 
L 102.698182 82.890926 
L 105.741818 85.313665 
L 108.785455 87.734047 
L 111.829091 90.15268 
L 114.872727 92.569988 
L 117.916364 94.986155 
L 120.96 97.401149 
L 124.003636 99.81479 
L 127.047273 102.226845 
L 130.090909 104.637113 
L 133.134545 107.045477 
L 136.178182 109.451946 
L 139.221818 111.856715 
L 142.265455 114.260291 
L 145.309091 116.663677 
L 148.352727 119.068604 
L 151.396364 121.477828 
L 154.44 123.895518 
L 157.483636 126.327938 
L 160.527273 128.784702 
L 163.570909 131.281085 
L 166.614545 133.841955 
L 169.658182 136.507772 
L 172.701818 139.342211 
L 175.745455 142.438258 
L 178.789091 145.913713 
L 181.832727 149.879589 
L 184.876364 154.368821 
L 187.92 159.251998 
L 190.963636 164.226942 
L 194.007273 168.942774 
L 197.050909 173.169393 
L 200.094545 176.86234 
L 203.138182 180.10589 
L 206.181818 183.025496 
L 209.225455 185.733019 
L 212.269091 188.30906 
L 215.312727 190.805122 
L 218.356364 193.25184 
L 221.4 195.66687 
L 224.443636 198.060529 
L 227.487273 200.439175 
L 230.530909 202.806928 
L 233.574545 205.16641 
L 236.618182 207.519048 
L 239.661818 209.865296 
L 242.705455 212.204913 
L 245.749091 214.537327 
L 248.792727 216.861995 
L 251.836364 219.178669 
L 254.88 221.487515 
L 257.923636 223.789073 
L 260.967273 226.084086 
L 264.010909 228.373294 
L 267.054545 230.65723 
L 270.098182 232.936085 
L 273.141818 235.209675 
L 276.185455 237.477489 
L 279.229091 239.738823 
L 282.272727 241.992965 
L 285.316364 244.2394 
L 288.36 246.477999 
L 291.403636 248.709129 
L 294.447273 250.933659 
L 297.490909 253.152837 
L 300.534545 255.368066 
L 303.578182 257.580634 
L 306.621818 259.79149 
L 309.665455 262.001128 
L 312.709091 264.209594 
L 315.752727 266.416594 
L 318.796364 268.621649 
L 321.84 270.824225 
L 324.883636 273.023823 
L 327.927273 275.220022 
L 330.970909 277.412514 
L 334.014545 279.601141 
L 337.058182 281.785949 
L 340.101818 283.967214 
L 343.145455 286.145428 
L 346.189091 288.321201 
L 349.232727 290.495115 
L 352.276364 292.667549 
L 355.32 294.838552 
L 358.363636 297.007796 
L 361.407273 299.174613 
L 364.450909 301.33812 
L 367.494545 303.497371 
L 370.538182 305.651526 
L 373.581818 307.8 
" clip-path="url(#p03e39935c1)" style="fill: none; stroke-dasharray: 1.5,2.475; stroke-dashoffset: 0; stroke: #9467bd; stroke-width: 1.5"/>
   </g>
   <g id="line2d_15">
    <path d="M 69.218182 55.961434 
L 72.261818 58.430964 
L 75.305455 60.890652 
L 78.349091 63.343228 
L 81.392727 65.791755 
L 84.436364 68.23926 
L 87.48 70.688195 
L 90.523636 73.139933 
L 93.567273 75.59445 
L 96.610909 78.050314 
L 99.654545 80.505009 
L 102.698182 82.95552 
L 105.741818 85.399038 
L 108.785455 87.83359 
L 111.829091 90.258426 
L 114.872727 92.674073 
L 117.916364 95.082068 
L 120.96 97.484458 
L 124.003636 99.88326 
L 127.047273 102.280026 
L 130.090909 104.675639 
L 133.134545 107.070369 
L 136.178182 109.464101 
L 139.221818 111.856659 
L 142.265455 114.248125 
L 145.309091 116.639107 
L 148.352727 119.030985 
L 151.396364 121.426152 
L 154.44 123.82834 
L 157.483636 126.243165 
L 160.527273 128.679167 
L 163.570909 131.149826 
L 166.614545 133.677189 
L 169.658182 136.297778 
L 172.701818 139.070757 
L 175.745455 142.086046 
L 178.789091 145.464431 
L 181.832727 149.333093 
L 184.876364 153.75845 
L 187.92 158.650388 
L 190.963636 163.721297 
L 194.007273 168.590054 
L 197.050909 172.972671 
L 200.094545 176.785394 
L 203.138182 180.101729 
L 206.181818 183.054924 
L 209.225455 185.770216 
L 212.269091 188.340354 
L 215.312727 190.825754 
L 218.356364 193.262635 
L 221.4 195.67135 
L 224.443636 198.062693 
L 227.487273 200.442128 
L 230.530909 202.812438 
L 233.574545 205.175219 
L 236.618182 207.531563 
L 239.661818 209.882217 
L 242.705455 212.227487 
L 245.749091 214.567122 
L 248.792727 216.900323 
L 251.836364 219.225905 
L 254.88 221.542561 
L 257.923636 223.849133 
L 260.967273 226.144844 
L 264.010909 228.42944 
L 267.054545 230.703252 
L 270.098182 232.967154 
L 273.141818 235.222441 
L 276.185455 237.470635 
L 279.229091 239.713272 
L 282.272727 241.95171 
L 285.316364 244.187031 
L 288.36 246.420038 
L 291.403636 248.651338 
L 294.447273 250.881464 
L 297.490909 253.110953 
L 300.534545 255.340325 
L 303.578182 257.569965 
L 306.621818 259.79992 
L 309.665455 262.029727 
L 312.709091 264.258324 
L 315.752727 266.484107 
L 318.796364 268.705119 
L 321.84 270.919355 
L 324.883636 273.125096 
L 327.927273 275.321235 
L 330.970909 277.507525 
L 334.014545 279.684691 
L 337.058182 281.854377 
L 340.101818 284.018897 
L 343.145455 286.180815 
L 346.189091 288.342435 
L 349.232727 290.505321 
L 352.276364 292.669985 
L 355.32 294.835858 
L 358.363636 297.001556 
L 361.407273 299.165352 
L 364.450909 301.325692 
L 367.494545 303.481584 
L 370.538182 305.632764 
L 373.581818 307.779647 
" clip-path="url(#p03e39935c1)" style="fill: none; stroke: #8c564b; stroke-width: 1.5; stroke-linecap: square"/>
   </g>
   <g id="line2d_16">
    <path d="M 69.218182 55.857476 
L 72.261818 58.38379 
L 75.305455 60.890543 
L 78.349091 63.380691 
L 81.392727 65.858959 
L 84.436364 68.329745 
L 87.48 70.795634 
L 90.523636 73.256852 
L 93.567273 75.711637 
L 96.610909 78.157274 
L 99.654545 80.591356 
L 102.698182 83.012817 
L 105.741818 85.422357 
L 108.785455 87.822187 
L 111.829091 90.215288 
L 114.872727 92.604596 
L 117.916364 94.992462 
L 120.96 97.380564 
L 124.003636 99.77015 
L 127.047273 102.162324 
L 130.090909 104.558123 
L 133.134545 106.9583 
L 136.178182 109.362952 
L 139.221818 111.771267 
L 142.265455 114.181569 
L 145.309091 116.59171 
L 148.352727 118.999644 
L 151.396364 121.403921 
L 154.44 123.80392 
L 157.483636 126.199762 
L 160.527273 128.592006 
L 163.570909 130.981329 
L 166.614545 133.368291 
L 169.658182 135.753268 
L 172.701818 138.136486 
L 175.745455 140.518124 
L 178.789091 142.898463 
L 181.832727 145.2781 
L 184.876364 147.658228 
L 187.92 150.04091 
L 190.963636 152.429226 
L 194.007273 154.827166 
L 197.050909 157.239292 
L 200.094545 159.670329 
L 203.138182 162.124972 
L 206.181818 164.608143 
L 209.225455 167.125717 
L 212.269091 169.685442 
L 215.312727 172.297548 
L 218.356364 174.974473 
L 221.4 177.729256 
L 224.443636 180.572511 
L 227.487273 183.508417 
L 230.530909 186.530866 
L 233.574545 189.621484 
L 236.618182 192.751082 
L 239.661818 195.884875 
L 242.705455 198.989803 
L 245.749091 202.040949 
L 248.792727 205.024479 
L 251.836364 207.936508 
L 254.88 210.779331 
L 257.923636 213.557306 
L 260.967273 216.274173 
L 264.010909 218.932401 
L 267.054545 221.534055 
L 270.098182 224.082144 
L 273.141818 226.581523 
L 276.185455 229.038925 
L 279.229091 231.462185 
L 282.272727 233.859085 
L 285.316364 236.236286 
L 288.36 238.598699 
L 291.403636 240.949422 
L 294.447273 243.290129 
L 297.490909 245.621677 
L 300.534545 247.944616 
L 303.578182 250.259454 
L 306.621818 252.566627 
L 309.665455 254.866301 
L 312.709091 257.158225 
L 315.752727 259.441751 
L 318.796364 261.716114 
L 321.84 263.980858 
L 324.883636 266.236232 
L 327.927273 268.483357 
L 330.970909 270.724052 
L 334.014545 272.960369 
L 337.058182 275.194034 
L 340.101818 277.426027 
L 343.145455 279.656488 
L 346.189091 281.884934 
L 349.232727 284.110655 
L 352.276364 286.333044 
L 355.32 288.551746 
L 358.363636 290.76659 
L 361.407273 292.977427 
L 364.450909 295.184011 
L 367.494545 297.385994 
L 370.538182 299.58302 
L 373.581818 301.774815 
" clip-path="url(#p03e39935c1)" style="fill: none; stroke-dasharray: 1.5,2.475; stroke-dashoffset: 0; stroke: #e377c2; stroke-width: 1.5"/>
   </g>
   <g id="line2d_17">
    <path d="M 69.218182 55.846421 
L 72.261818 58.381868 
L 75.305455 60.897938 
L 78.349091 63.397542 
L 81.392727 65.88532 
L 84.436364 68.36532 
L 87.48 70.83955 
L 90.523636 73.307628 
L 93.567273 75.7674 
L 96.610909 78.216146 
L 99.654545 80.651855 
L 102.698182 83.074109 
L 105.741818 85.484255 
L 108.785455 87.884918 
L 111.829091 90.279126 
L 114.872727 92.669501 
L 117.916364 95.05785 
L 120.96 97.44526 
L 124.003636 99.832505 
L 127.047273 102.220434 
L 130.090909 104.610068 
L 133.134545 107.002353 
L 136.178182 109.397739 
L 139.221818 111.795865 
L 142.265455 114.195576 
L 145.309091 116.595281 
L 148.352727 118.993487 
L 151.396364 121.389266 
L 154.44 123.782438 
L 157.483636 126.173456 
L 160.527273 128.563082 
L 163.570909 130.952039 
L 166.614545 133.34077 
L 169.658182 135.729356 
L 172.701818 138.11756 
L 175.745455 140.504978 
L 178.789091 142.891282 
L 181.832727 145.276568 
L 184.876364 147.661772 
L 187.92 150.049061 
L 190.963636 152.442009 
L 194.007273 154.845449 
L 197.050909 157.265006 
L 200.094545 159.706482 
L 203.138182 162.175413 
L 206.181818 164.677045 
L 209.225455 167.216824 
L 212.269091 169.801148 
L 215.312727 172.437947 
L 218.356364 175.136549 
L 221.4 177.906435 
L 224.443636 180.7548 
L 227.487273 183.683342 
L 230.530909 186.685225 
L 233.574545 189.743607 
L 236.618182 192.832973 
L 239.661818 195.923524 
L 242.705455 198.987297 
L 245.749091 202.003532 
L 248.792727 204.961109 
L 251.836364 207.857412 
L 254.88 210.694803 
L 257.923636 213.476744 
L 260.967273 216.205308 
L 264.010909 218.880716 
L 267.054545 221.502496 
L 270.098182 224.071196 
L 273.141818 226.589654 
L 276.185455 229.063248 
L 279.229091 231.499174 
L 282.272727 233.905137 
L 285.316364 236.288028 
L 288.36 238.653039 
L 291.403636 241.003442 
L 294.447273 243.34098 
L 297.490909 245.666581 
L 300.534545 247.981051 
L 303.578182 250.285455 
L 306.621818 252.581124 
L 309.665455 254.869367 
L 312.709091 257.151138 
L 315.752727 259.426846 
L 318.796364 261.696436 
L 321.84 263.959684 
L 324.883636 266.216576 
L 327.927273 268.467534 
L 330.970909 270.713413 
L 334.014545 272.955235 
L 337.058182 275.193849 
L 340.101818 277.429698 
L 343.145455 279.662805 
L 346.189091 281.892989 
L 349.232727 284.120126 
L 352.276364 286.344309 
L 355.32 288.565809 
L 358.363636 290.784873 
L 361.407273 293.001522 
L 364.450909 295.215446 
L 367.494545 297.426092 
L 370.538182 299.632869 
L 373.581818 301.835402 
" clip-path="url(#p03e39935c1)" style="fill: none; stroke-dasharray: 1.5,2.475; stroke-dashoffset: 0; stroke: #7f7f7f; stroke-width: 1.5"/>
   </g>
   <g id="line2d_18">
    <path d="M 69.218182 55.820954 
L 72.261818 58.356802 
L 75.305455 60.874359 
L 78.349091 63.375325 
L 81.392727 65.863072 
L 84.436364 68.340842 
L 87.48 70.810532 
L 90.523636 73.272334 
L 93.567273 75.725175 
L 96.610909 78.167622 
L 99.654545 80.598853 
L 102.698182 83.019265 
L 105.741818 85.430503 
L 108.785455 87.834944 
L 111.829091 90.234924 
L 114.872727 92.632122 
L 117.916364 95.027386 
L 120.96 97.421025 
L 124.003636 99.81335 
L 127.047273 102.20508 
L 130.090909 104.597379 
L 133.134545 106.991494 
L 136.178182 109.388231 
L 139.221818 111.787573 
L 142.265455 114.188663 
L 145.309091 116.590143 
L 148.352727 118.990686 
L 151.396364 121.389447 
L 154.44 123.78622 
L 157.483636 126.181306 
L 160.527273 128.575165 
L 163.570909 130.96808 
L 166.614545 133.35995 
L 169.658182 135.750285 
L 172.701818 138.138345 
L 175.745455 140.523379 
L 178.789091 142.904905 
L 181.832727 145.283034 
L 184.876364 147.65881 
L 187.92 150.034488 
L 190.963636 152.413651 
L 194.007273 154.801066 
L 197.050909 157.20231 
L 200.094545 159.62334 
L 203.138182 162.07027 
L 206.181818 164.549547 
L 209.225455 167.068517 
L 212.269091 169.636085 
L 215.312727 172.262989 
L 218.356364 174.961163 
L 221.4 177.741905 
L 224.443636 180.612933 
L 227.487273 183.574922 
L 230.530909 186.61866 
L 233.574545 189.724217 
L 236.618182 192.8631 
L 239.661818 196.003209 
L 242.705455 199.114907 
L 245.749091 202.175825 
L 248.792727 205.172642 
L 251.836364 208.099778 
L 254.88 210.956367 
L 257.923636 213.743351 
L 260.967273 216.461918 
L 264.010909 219.113497 
L 267.054545 221.700651 
L 270.098182 224.22801 
L 273.141818 226.702559 
L 276.185455 229.133123 
L 279.229091 231.529258 
L 282.272727 233.899979 
L 285.316364 236.252732 
L 288.36 238.592897 
L 291.403636 240.92389 
L 294.447273 243.247698 
L 297.490909 245.565566 
L 300.534545 247.878505 
L 303.578182 250.187451 
L 306.621818 252.493087 
L 309.665455 254.795514 
L 312.709091 257.09403 
L 315.752727 259.387201 
L 318.796364 261.673263 
L 321.84 263.950704 
L 324.883636 266.218775 
L 327.927273 268.477708 
L 330.970909 270.728526 
L 334.014545 272.972559 
L 337.058182 275.210897 
L 340.101818 277.44407 
L 343.145455 279.672084 
L 346.189091 281.894751 
L 349.232727 284.112096 
L 352.276364 286.324581 
L 355.32 288.533024 
L 358.363636 290.738285 
L 361.407273 292.940911 
L 364.450909 295.14093 
L 367.494545 297.337905 
L 370.538182 299.531184 
L 373.581818 301.720204 
" clip-path="url(#p03e39935c1)" style="fill: none; stroke-dasharray: 1.5,2.475; stroke-dashoffset: 0; stroke: #bcbd22; stroke-width: 1.5"/>
   </g>
   <g id="line2d_19">
    <path d="M 69.218182 55.8 
L 72.261818 58.338183 
L 75.305455 60.860651 
L 78.349091 63.368257 
L 81.392727 65.863843 
L 84.436364 68.350104 
L 87.48 70.828256 
L 90.523636 73.297713 
L 93.567273 75.756649 
L 96.610909 78.203032 
L 99.654545 80.635682 
L 102.698182 83.054926 
L 105.741818 85.462633 
L 108.785455 87.861661 
L 111.829091 90.25502 
L 114.872727 92.645143 
L 117.916364 95.033599 
L 120.96 97.421291 
L 124.003636 99.80894 
L 127.047273 102.197506 
L 130.090909 104.588253 
L 133.134545 106.982411 
L 136.178182 109.380659 
L 139.221818 111.782715 
L 142.265455 114.187306 
L 145.309091 116.592541 
L 148.352727 118.996518 
L 151.396364 121.397883 
L 154.44 123.796091 
L 157.483636 126.191311 
L 160.527273 128.584086 
L 163.570909 130.974935 
L 166.614545 133.364098 
L 169.658182 135.751483 
L 172.701818 138.136789 
L 175.745455 140.519741 
L 178.789091 142.900357 
L 181.832727 145.279231 
L 184.876364 147.657797 
L 187.92 150.038544 
L 190.963636 152.425068 
L 194.007273 154.821898 
L 197.050909 157.234123 
L 200.094545 159.666963 
L 203.138182 162.125568 
L 206.181818 164.615229 
L 209.225455 167.142032 
L 212.269091 169.71369 
L 215.312727 172.340049 
L 218.356364 175.032706 
L 221.4 177.803319 
L 224.443636 180.660526 
L 227.487273 183.606022 
L 230.530909 186.631042 
L 233.574545 189.715025 
L 236.618182 192.827908 
L 239.661818 195.936015 
L 242.705455 199.009474 
L 245.749091 202.027979 
L 248.792727 204.982578 
L 251.836364 207.87335 
L 254.88 210.704802 
L 257.923636 213.481482 
L 260.967273 216.205557 
L 264.010909 218.876793 
L 267.054545 221.494211 
L 270.098182 224.058134 
L 273.141818 226.571535 
L 276.185455 229.040176 
L 279.229091 231.471677 
L 282.272727 233.874056 
L 285.316364 236.254335 
L 288.36 238.61769 
L 291.403636 240.967315 
L 294.447273 243.304909 
L 297.490909 245.631455 
L 300.534545 247.947899 
L 303.578182 250.255467 
L 306.621818 252.555542 
L 309.665455 254.849268 
L 312.709091 257.137147 
L 315.752727 259.418896 
L 318.796364 261.693673 
L 321.84 263.960581 
L 324.883636 266.219239 
L 327.927273 268.470107 
L 330.970909 270.714425 
L 334.014545 272.953783 
L 337.058182 275.189553 
L 340.101818 277.422473 
L 343.145455 279.652575 
L 346.189091 281.879465 
L 349.232727 284.102737 
L 352.276364 286.322291 
L 355.32 288.538382 
L 358.363636 290.751433 
L 361.407273 292.961766 
L 364.450909 295.169452 
L 367.494545 297.374361 
L 370.538182 299.576363 
L 373.581818 301.775516 
" clip-path="url(#p03e39935c1)" style="fill: none; stroke-dasharray: 1.5,2.475; stroke-dashoffset: 0; stroke: #17becf; stroke-width: 1.5"/>
   </g>
   <g id="line2d_20">
    <path d="M 69.218182 55.964414 
L 72.261818 58.424027 
L 75.305455 60.878282 
L 78.349091 63.330022 
L 81.392727 65.781134 
L 84.436364 68.232624 
L 87.48 70.68463 
L 90.523636 73.136474 
L 93.567273 75.586854 
L 96.610909 78.034163 
L 99.654545 80.47686 
L 102.698182 82.913803 
L 105.741818 85.34444 
L 108.785455 87.768842 
L 111.829091 90.187577 
L 114.872727 92.601499 
L 117.916364 95.011528 
L 120.96 97.418477 
L 124.003636 99.822968 
L 127.047273 102.225425 
L 130.090909 104.626092 
L 133.134545 107.025052 
L 136.178182 109.422225 
L 139.221818 111.817371 
L 142.265455 114.210144 
L 145.309091 116.600215 
L 148.352727 118.987438 
L 151.396364 121.372 
L 154.44 123.754483 
L 157.483636 126.135812 
L 160.527273 128.517077 
L 163.570909 130.899307 
L 166.614545 133.283253 
L 169.658182 135.669247 
L 172.701818 138.057191 
L 175.745455 140.446689 
L 178.789091 142.8373 
L 181.832727 145.228882 
L 184.876364 147.621912 
L 187.92 150.017737 
L 190.963636 152.41867 
L 194.007273 154.827958 
L 197.050909 157.249663 
L 200.094545 159.688574 
L 203.138182 162.150235 
L 206.181818 164.64115 
L 209.225455 167.169068 
L 212.269091 169.743186 
L 215.312727 172.373984 
L 218.356364 175.072407 
L 221.4 177.84822 
L 224.443636 180.707614 
L 227.487273 183.650503 
L 230.530909 186.668365 
L 233.574545 189.743635 
L 236.618182 192.851346 
L 239.661818 195.962863 
L 242.705455 199.050569 
L 245.749091 202.091911 
L 248.792727 205.071569 
L 251.836364 207.981522 
L 254.88 210.819623 
L 257.923636 213.587661 
L 260.967273 216.289669 
L 264.010909 218.930815 
L 267.054545 221.516827 
L 270.098182 224.05372 
L 273.141818 226.547607 
L 276.185455 229.004488 
L 279.229091 231.430029 
L 282.272727 233.829392 
L 285.316364 236.207168 
L 288.36 238.567395 
L 291.403636 240.913594 
L 294.447273 243.248763 
L 297.490909 245.575297 
L 300.534545 247.894881 
L 303.578182 250.208448 
L 306.621818 252.516235 
L 309.665455 254.817975 
L 312.709091 257.113149 
L 315.752727 259.401219 
L 318.796364 261.681792 
L 321.84 263.954674 
L 324.883636 266.219865 
L 327.927273 268.477516 
L 330.970909 270.727883 
L 334.014545 272.971302 
L 337.058182 275.20817 
L 340.101818 277.438933 
L 343.145455 279.66408 
L 346.189091 281.884146 
L 349.232727 284.099727 
L 352.276364 286.311504 
L 355.32 288.520255 
L 358.363636 290.726858 
L 361.407273 292.932252 
L 364.450909 295.137349 
L 367.494545 297.342879 
L 370.538182 299.549183 
L 373.581818 301.755998 
" clip-path="url(#p03e39935c1)" style="fill: none; stroke-dasharray: 1.5,2.475; stroke-dashoffset: 0; stroke: #1f77b4; stroke-width: 1.5"/>
   </g>
   <g id="line2d_21">
    <path d="M 69.218182 55.857853 
L 72.261818 58.376934 
L 75.305455 60.880355 
L 78.349091 63.370367 
L 81.392727 65.850466 
L 84.436364 68.323727 
L 87.48 70.79172 
L 90.523636 73.2542 
L 93.567273 75.709543 
L 96.610909 78.155647 
L 99.654545 80.590921 
L 102.698182 83.014984 
L 105.741818 85.428838 
L 108.785455 87.83451 
L 111.829091 90.234387 
L 114.872727 92.630572 
L 117.916364 95.024565 
L 120.96 97.417323 
L 124.003636 99.809583 
L 127.047273 102.202154 
L 130.090909 104.595983 
L 133.134545 106.991922 
L 136.178182 109.390361 
L 139.221818 111.790958 
L 142.265455 114.192652 
L 145.309091 116.593978 
L 148.352727 118.993555 
L 151.396364 121.390503 
L 154.44 123.784631 
L 157.483636 126.17633 
L 160.527273 128.566283 
L 163.570909 130.955138 
L 166.614545 133.343272 
L 169.658182 135.730728 
L 172.701818 138.117274 
L 175.745455 140.502582 
L 178.789091 142.886462 
L 181.832727 145.269163 
L 184.876364 147.651704 
L 187.92 150.036148 
L 190.963636 152.425725 
L 194.007273 154.824707 
L 197.050909 157.238079 
L 200.094545 159.671138 
L 203.138182 162.129292 
L 206.181818 164.618223 
L 209.225455 167.144432 
L 212.269091 169.71591 
L 215.312727 172.342503 
L 218.356364 175.03546 
L 221.4 177.805827 
L 224.443636 180.661677 
L 227.487273 183.604641 
L 230.530909 186.626832 
L 233.574545 189.709594 
L 236.618182 192.825282 
L 239.661818 195.942097 
L 242.705455 199.03041 
L 245.749091 202.068039 
L 248.792727 205.042476 
L 251.836364 207.949714 
L 254.88 210.790985 
L 257.923636 213.569309 
L 260.967273 216.287325 
L 264.010909 218.946844 
L 267.054545 221.549648 
L 270.098182 224.098641 
L 273.141818 226.598576 
L 276.185455 229.055992 
L 279.229091 231.478464 
L 282.272727 233.87353 
L 285.316364 236.24771 
L 288.36 238.605944 
L 291.403636 240.951533 
L 294.447273 243.286496 
L 297.490909 245.612115 
L 300.534545 247.92939 
L 303.578182 250.239255 
L 306.621818 252.542523 
L 309.665455 254.839685 
L 312.709091 257.130738 
L 315.752727 259.415183 
L 318.796364 261.692255 
L 321.84 263.9613 
L 324.883636 266.222137 
L 327.927273 268.475244 
L 330.970909 270.72166 
L 334.014545 272.96265 
L 337.058182 275.199301 
L 340.101818 277.43224 
L 343.145455 279.661606 
L 346.189091 281.887257 
L 349.232727 284.109068 
L 352.276364 286.327146 
L 355.32 288.541843 
L 358.363636 290.753608 
L 361.407273 292.962776 
L 364.450909 295.169438 
L 367.494545 297.373446 
L 370.538182 299.574524 
L 373.581818 301.772387 
" clip-path="url(#p03e39935c1)" style="fill: none; stroke: #ff7f0e; stroke-width: 1.5; stroke-linecap: square"/>
   </g>
   <g id="patch_3">
    <path d="M 54 320.4 
L 54 43.2 
" style="fill: none; stroke: #000000; stroke-width: 0.8; stroke-linejoin: miter; stroke-linecap: square"/>
   </g>
   <g id="patch_4">
    <path d="M 388.8 320.4 
L 388.8 43.2 
" style="fill: none; stroke: #000000; stroke-width: 0.8; stroke-linejoin: miter; stroke-linecap: square"/>
   </g>
   <g id="patch_5">
    <path d="M 54 320.4 
L 388.8 320.4 
" style="fill: none; stroke: #000000; stroke-width: 0.8; stroke-linejoin: miter; stroke-linecap: square"/>
   </g>
   <g id="patch_6">
    <path d="M 54 43.2 
L 388.8 43.2 
" style="fill: none; stroke: #000000; stroke-width: 0.8; stroke-linejoin: miter; stroke-linecap: square"/>
   </g>
   <g id="text_12">
    <!-- Wilson action average with respect to $\beta$ -->
    <g transform="translate(102 37.2) scale(0.12 -0.12)">
     <defs>
      <path id="DejaVuSans-57" d="M 213 4666 
L 850 4666 
L 1831 722 
L 2809 4666 
L 3519 4666 
L 4500 722 
L 5478 4666 
L 6119 4666 
L 4947 0 
L 4153 0 
L 3169 4050 
L 2175 0 
L 1381 0 
L 213 4666 
z
" transform="scale(0.015625)"/>
      <path id="DejaVuSans-69" d="M 603 3500 
L 1178 3500 
L 1178 0 
L 603 0 
L 603 3500 
z
M 603 4863 
L 1178 4863 
L 1178 4134 
L 603 4134 
L 603 4863 
z
" transform="scale(0.015625)"/>
      <path id="DejaVuSans-6c" d="M 603 4863 
L 1178 4863 
L 1178 0 
L 603 0 
L 603 4863 
z
" transform="scale(0.015625)"/>
      <path id="DejaVuSans-73" d="M 2834 3397 
L 2834 2853 
Q 2591 2978 2328 3040 
Q 2066 3103 1784 3103 
Q 1356 3103 1142 2972 
Q 928 2841 928 2578 
Q 928 2378 1081 2264 
Q 1234 2150 1697 2047 
L 1894 2003 
Q 2506 1872 2764 1633 
Q 3022 1394 3022 966 
Q 3022 478 2636 193 
Q 2250 -91 1575 -91 
Q 1294 -91 989 -36 
Q 684 19 347 128 
L 347 722 
Q 666 556 975 473 
Q 1284 391 1588 391 
Q 1994 391 2212 530 
Q 2431 669 2431 922 
Q 2431 1156 2273 1281 
Q 2116 1406 1581 1522 
L 1381 1569 
Q 847 1681 609 1914 
Q 372 2147 372 2553 
Q 372 3047 722 3315 
Q 1072 3584 1716 3584 
Q 2034 3584 2315 3537 
Q 2597 3491 2834 3397 
z
" transform="scale(0.015625)"/>
      <path id="DejaVuSans-6f" d="M 1959 3097 
Q 1497 3097 1228 2736 
Q 959 2375 959 1747 
Q 959 1119 1226 758 
Q 1494 397 1959 397 
Q 2419 397 2687 759 
Q 2956 1122 2956 1747 
Q 2956 2369 2687 2733 
Q 2419 3097 1959 3097 
z
M 1959 3584 
Q 2709 3584 3137 3096 
Q 3566 2609 3566 1747 
Q 3566 888 3137 398 
Q 2709 -91 1959 -91 
Q 1206 -91 779 398 
Q 353 888 353 1747 
Q 353 2609 779 3096 
Q 1206 3584 1959 3584 
z
" transform="scale(0.015625)"/>
      <path id="DejaVuSans-6e" d="M 3513 2113 
L 3513 0 
L 2938 0 
L 2938 2094 
Q 2938 2591 2744 2837 
Q 2550 3084 2163 3084 
Q 1697 3084 1428 2787 
Q 1159 2491 1159 1978 
L 1159 0 
L 581 0 
L 581 3500 
L 1159 3500 
L 1159 2956 
Q 1366 3272 1645 3428 
Q 1925 3584 2291 3584 
Q 2894 3584 3203 3211 
Q 3513 2838 3513 2113 
z
" transform="scale(0.015625)"/>
      <path id="DejaVuSans-61" d="M 2194 1759 
Q 1497 1759 1228 1600 
Q 959 1441 959 1056 
Q 959 750 1161 570 
Q 1363 391 1709 391 
Q 2188 391 2477 730 
Q 2766 1069 2766 1631 
L 2766 1759 
L 2194 1759 
z
M 3341 1997 
L 3341 0 
L 2766 0 
L 2766 531 
Q 2569 213 2275 61 
Q 1981 -91 1556 -91 
Q 1019 -91 701 211 
Q 384 513 384 1019 
Q 384 1609 779 1909 
Q 1175 2209 1959 2209 
L 2766 2209 
L 2766 2266 
Q 2766 2663 2505 2880 
Q 2244 3097 1772 3097 
Q 1472 3097 1187 3025 
Q 903 2953 641 2809 
L 641 3341 
Q 956 3463 1253 3523 
Q 1550 3584 1831 3584 
Q 2591 3584 2966 3190 
Q 3341 2797 3341 1997 
z
" transform="scale(0.015625)"/>
      <path id="DejaVuSans-63" d="M 3122 3366 
L 3122 2828 
Q 2878 2963 2633 3030 
Q 2388 3097 2138 3097 
Q 1578 3097 1268 2742 
Q 959 2388 959 1747 
Q 959 1106 1268 751 
Q 1578 397 2138 397 
Q 2388 397 2633 464 
Q 2878 531 3122 666 
L 3122 134 
Q 2881 22 2623 -34 
Q 2366 -91 2075 -91 
Q 1284 -91 818 406 
Q 353 903 353 1747 
Q 353 2603 823 3093 
Q 1294 3584 2113 3584 
Q 2378 3584 2631 3529 
Q 2884 3475 3122 3366 
z
" transform="scale(0.015625)"/>
      <path id="DejaVuSans-74" d="M 1172 4494 
L 1172 3500 
L 2356 3500 
L 2356 3053 
L 1172 3053 
L 1172 1153 
Q 1172 725 1289 603 
Q 1406 481 1766 481 
L 2356 481 
L 2356 0 
L 1766 0 
Q 1100 0 847 248 
Q 594 497 594 1153 
L 594 3053 
L 172 3053 
L 172 3500 
L 594 3500 
L 594 4494 
L 1172 4494 
z
" transform="scale(0.015625)"/>
      <path id="DejaVuSans-76" d="M 191 3500 
L 800 3500 
L 1894 563 
L 2988 3500 
L 3597 3500 
L 2284 0 
L 1503 0 
L 191 3500 
z
" transform="scale(0.015625)"/>
      <path id="DejaVuSans-65" d="M 3597 1894 
L 3597 1613 
L 953 1613 
Q 991 1019 1311 708 
Q 1631 397 2203 397 
Q 2534 397 2845 478 
Q 3156 559 3463 722 
L 3463 178 
Q 3153 47 2828 -22 
Q 2503 -91 2169 -91 
Q 1331 -91 842 396 
Q 353 884 353 1716 
Q 353 2575 817 3079 
Q 1281 3584 2069 3584 
Q 2775 3584 3186 3129 
Q 3597 2675 3597 1894 
z
M 3022 2063 
Q 3016 2534 2758 2815 
Q 2500 3097 2075 3097 
Q 1594 3097 1305 2825 
Q 1016 2553 972 2059 
L 3022 2063 
z
" transform="scale(0.015625)"/>
      <path id="DejaVuSans-72" d="M 2631 2963 
Q 2534 3019 2420 3045 
Q 2306 3072 2169 3072 
Q 1681 3072 1420 2755 
Q 1159 2438 1159 1844 
L 1159 0 
L 581 0 
L 581 3500 
L 1159 3500 
L 1159 2956 
Q 1341 3275 1631 3429 
Q 1922 3584 2338 3584 
Q 2397 3584 2469 3576 
Q 2541 3569 2628 3553 
L 2631 2963 
z
" transform="scale(0.015625)"/>
      <path id="DejaVuSans-67" d="M 2906 1791 
Q 2906 2416 2648 2759 
Q 2391 3103 1925 3103 
Q 1463 3103 1205 2759 
Q 947 2416 947 1791 
Q 947 1169 1205 825 
Q 1463 481 1925 481 
Q 2391 481 2648 825 
Q 2906 1169 2906 1791 
z
M 3481 434 
Q 3481 -459 3084 -895 
Q 2688 -1331 1869 -1331 
Q 1566 -1331 1297 -1286 
Q 1028 -1241 775 -1147 
L 775 -588 
Q 1028 -725 1275 -790 
Q 1522 -856 1778 -856 
Q 2344 -856 2625 -561 
Q 2906 -266 2906 331 
L 2906 616 
Q 2728 306 2450 153 
Q 2172 0 1784 0 
Q 1141 0 747 490 
Q 353 981 353 1791 
Q 353 2603 747 3093 
Q 1141 3584 1784 3584 
Q 2172 3584 2450 3431 
Q 2728 3278 2906 2969 
L 2906 3500 
L 3481 3500 
L 3481 434 
z
" transform="scale(0.015625)"/>
      <path id="DejaVuSans-77" d="M 269 3500 
L 844 3500 
L 1563 769 
L 2278 3500 
L 2956 3500 
L 3675 769 
L 4391 3500 
L 4966 3500 
L 4050 0 
L 3372 0 
L 2619 2869 
L 1863 0 
L 1184 0 
L 269 3500 
z
" transform="scale(0.015625)"/>
      <path id="DejaVuSans-68" d="M 3513 2113 
L 3513 0 
L 2938 0 
L 2938 2094 
Q 2938 2591 2744 2837 
Q 2550 3084 2163 3084 
Q 1697 3084 1428 2787 
Q 1159 2491 1159 1978 
L 1159 0 
L 581 0 
L 581 4863 
L 1159 4863 
L 1159 2956 
Q 1366 3272 1645 3428 
Q 1925 3584 2291 3584 
Q 2894 3584 3203 3211 
Q 3513 2838 3513 2113 
z
" transform="scale(0.015625)"/>
      <path id="DejaVuSans-70" d="M 1159 525 
L 1159 -1331 
L 581 -1331 
L 581 3500 
L 1159 3500 
L 1159 2969 
Q 1341 3281 1617 3432 
Q 1894 3584 2278 3584 
Q 2916 3584 3314 3078 
Q 3713 2572 3713 1747 
Q 3713 922 3314 415 
Q 2916 -91 2278 -91 
Q 1894 -91 1617 61 
Q 1341 213 1159 525 
z
M 3116 1747 
Q 3116 2381 2855 2742 
Q 2594 3103 2138 3103 
Q 1681 3103 1420 2742 
Q 1159 2381 1159 1747 
Q 1159 1113 1420 752 
Q 1681 391 2138 391 
Q 2594 391 2855 752 
Q 3116 1113 3116 1747 
z
" transform="scale(0.015625)"/>
     </defs>
     <use xlink:href="#DejaVuSans-57" transform="translate(0 0.390625)"/>
     <use xlink:href="#DejaVuSans-69" transform="translate(98.876953 0.390625)"/>
     <use xlink:href="#DejaVuSans-6c" transform="translate(126.660156 0.390625)"/>
     <use xlink:href="#DejaVuSans-73" transform="translate(154.443359 0.390625)"/>
     <use xlink:href="#DejaVuSans-6f" transform="translate(206.542969 0.390625)"/>
     <use xlink:href="#DejaVuSans-6e" transform="translate(267.724609 0.390625)"/>
     <use xlink:href="#DejaVuSans-20" transform="translate(331.103516 0.390625)"/>
     <use xlink:href="#DejaVuSans-61" transform="translate(362.890625 0.390625)"/>
     <use xlink:href="#DejaVuSans-63" transform="translate(424.169922 0.390625)"/>
     <use xlink:href="#DejaVuSans-74" transform="translate(479.150391 0.390625)"/>
     <use xlink:href="#DejaVuSans-69" transform="translate(518.359375 0.390625)"/>
     <use xlink:href="#DejaVuSans-6f" transform="translate(546.142578 0.390625)"/>
     <use xlink:href="#DejaVuSans-6e" transform="translate(607.324219 0.390625)"/>
     <use xlink:href="#DejaVuSans-20" transform="translate(670.703125 0.390625)"/>
     <use xlink:href="#DejaVuSans-61" transform="translate(702.490234 0.390625)"/>
     <use xlink:href="#DejaVuSans-76" transform="translate(763.769531 0.390625)"/>
     <use xlink:href="#DejaVuSans-65" transform="translate(822.949219 0.390625)"/>
     <use xlink:href="#DejaVuSans-72" transform="translate(884.472656 0.390625)"/>
     <use xlink:href="#DejaVuSans-61" transform="translate(925.585938 0.390625)"/>
     <use xlink:href="#DejaVuSans-67" transform="translate(986.865234 0.390625)"/>
     <use xlink:href="#DejaVuSans-65" transform="translate(1050.341797 0.390625)"/>
     <use xlink:href="#DejaVuSans-20" transform="translate(1111.865234 0.390625)"/>
     <use xlink:href="#DejaVuSans-77" transform="translate(1143.652344 0.390625)"/>
     <use xlink:href="#DejaVuSans-69" transform="translate(1225.439453 0.390625)"/>
     <use xlink:href="#DejaVuSans-74" transform="translate(1253.222656 0.390625)"/>
     <use xlink:href="#DejaVuSans-68" transform="translate(1292.431641 0.390625)"/>
     <use xlink:href="#DejaVuSans-20" transform="translate(1355.810547 0.390625)"/>
     <use xlink:href="#DejaVuSans-72" transform="translate(1387.597656 0.390625)"/>
     <use xlink:href="#DejaVuSans-65" transform="translate(1428.710938 0.390625)"/>
     <use xlink:href="#DejaVuSans-73" transform="translate(1490.234375 0.390625)"/>
     <use xlink:href="#DejaVuSans-70" transform="translate(1542.333984 0.390625)"/>
     <use xlink:href="#DejaVuSans-65" transform="translate(1605.810547 0.390625)"/>
     <use xlink:href="#DejaVuSans-63" transform="translate(1667.333984 0.390625)"/>
     <use xlink:href="#DejaVuSans-74" transform="translate(1722.314453 0.390625)"/>
     <use xlink:href="#DejaVuSans-20" transform="translate(1761.523438 0.390625)"/>
     <use xlink:href="#DejaVuSans-74" transform="translate(1793.310547 0.390625)"/>
     <use xlink:href="#DejaVuSans-6f" transform="translate(1832.519531 0.390625)"/>
     <use xlink:href="#DejaVuSans-20" transform="translate(1893.701172 0.390625)"/>
     <use xlink:href="#DejaVuSans-Oblique-3b2" transform="translate(1925.488281 0.390625)"/>
    </g>
   </g>
   <g id="legend_1">
    <g id="patch_7">
     <path d="M 313.3375 227.3375 
L 381.8 227.3375 
Q 383.8 227.3375 383.8 225.3375 
L 383.8 50.2 
Q 383.8 48.2 381.8 48.2 
L 313.3375 48.2 
Q 311.3375 48.2 311.3375 50.2 
L 311.3375 225.3375 
Q 311.3375 227.3375 313.3375 227.3375 
z
" style="fill: #ffffff; opacity: 0.8; stroke: #cccccc; stroke-linejoin: miter"/>
    </g>
    <g id="line2d_22">
     <path d="M 315.3375 56.298437 
L 325.3375 56.298437 
L 335.3375 56.298437 
" style="fill: none; stroke-dasharray: 1.5,2.475; stroke-dashoffset: 0; stroke: #1f77b4; stroke-width: 1.5"/>
    </g>
    <g id="text_13">
     <!-- 0 -->
     <g transform="translate(343.3375 59.798437) scale(0.1 -0.1)">
      <use xlink:href="#DejaVuSans-30"/>
     </g>
    </g>
    <g id="line2d_23">
     <path d="M 315.3375 70.976562 
L 325.3375 70.976562 
L 335.3375 70.976562 
" style="fill: none; stroke-dasharray: 1.5,2.475; stroke-dashoffset: 0; stroke: #ff7f0e; stroke-width: 1.5"/>
    </g>
    <g id="text_14">
     <!-- 1 -->
     <g transform="translate(343.3375 74.476562) scale(0.1 -0.1)">
      <use xlink:href="#DejaVuSans-31"/>
     </g>
    </g>
    <g id="line2d_24">
     <path d="M 315.3375 85.654688 
L 325.3375 85.654688 
L 335.3375 85.654688 
" style="fill: none; stroke-dasharray: 1.5,2.475; stroke-dashoffset: 0; stroke: #2ca02c; stroke-width: 1.5"/>
    </g>
    <g id="text_15">
     <!-- 2 -->
     <g transform="translate(343.3375 89.154688) scale(0.1 -0.1)">
      <use xlink:href="#DejaVuSans-32"/>
     </g>
    </g>
    <g id="line2d_25">
     <path d="M 315.3375 100.332812 
L 325.3375 100.332812 
L 335.3375 100.332812 
" style="fill: none; stroke-dasharray: 1.5,2.475; stroke-dashoffset: 0; stroke: #d62728; stroke-width: 1.5"/>
    </g>
    <g id="text_16">
     <!-- 3 -->
     <g transform="translate(343.3375 103.832812) scale(0.1 -0.1)">
      <use xlink:href="#DejaVuSans-33"/>
     </g>
    </g>
    <g id="line2d_26">
     <path d="M 315.3375 115.010938 
L 325.3375 115.010938 
L 335.3375 115.010938 
" style="fill: none; stroke-dasharray: 1.5,2.475; stroke-dashoffset: 0; stroke: #9467bd; stroke-width: 1.5"/>
    </g>
    <g id="text_17">
     <!-- 4 -->
     <g transform="translate(343.3375 118.510938) scale(0.1 -0.1)">
      <use xlink:href="#DejaVuSans-34"/>
     </g>
    </g>
    <g id="line2d_27">
     <path d="M 315.3375 129.689062 
L 325.3375 129.689062 
L 335.3375 129.689062 
" style="fill: none; stroke: #8c564b; stroke-width: 1.5; stroke-linecap: square"/>
    </g>
    <g id="text_18">
     <!-- notwist -->
     <g transform="translate(343.3375 133.189062) scale(0.1 -0.1)">
      <use xlink:href="#DejaVuSans-6e"/>
      <use xlink:href="#DejaVuSans-6f" x="63.378906"/>
      <use xlink:href="#DejaVuSans-74" x="124.560547"/>
      <use xlink:href="#DejaVuSans-77" x="163.769531"/>
      <use xlink:href="#DejaVuSans-69" x="245.556641"/>
      <use xlink:href="#DejaVuSans-73" x="273.339844"/>
      <use xlink:href="#DejaVuSans-74" x="325.439453"/>
     </g>
    </g>
    <g id="line2d_28">
     <path d="M 315.3375 144.367188 
L 325.3375 144.367188 
L 335.3375 144.367188 
" style="fill: none; stroke-dasharray: 1.5,2.475; stroke-dashoffset: 0; stroke: #e377c2; stroke-width: 1.5"/>
    </g>
    <g id="text_19">
     <!-- 0 -->
     <g transform="translate(343.3375 147.867188) scale(0.1 -0.1)">
      <use xlink:href="#DejaVuSans-30"/>
     </g>
    </g>
    <g id="line2d_29">
     <path d="M 315.3375 159.045312 
L 325.3375 159.045312 
L 335.3375 159.045312 
" style="fill: none; stroke-dasharray: 1.5,2.475; stroke-dashoffset: 0; stroke: #7f7f7f; stroke-width: 1.5"/>
    </g>
    <g id="text_20">
     <!-- 1 -->
     <g transform="translate(343.3375 162.545312) scale(0.1 -0.1)">
      <use xlink:href="#DejaVuSans-31"/>
     </g>
    </g>
    <g id="line2d_30">
     <path d="M 315.3375 173.723437 
L 325.3375 173.723437 
L 335.3375 173.723437 
" style="fill: none; stroke-dasharray: 1.5,2.475; stroke-dashoffset: 0; stroke: #bcbd22; stroke-width: 1.5"/>
    </g>
    <g id="text_21">
     <!-- 2 -->
     <g transform="translate(343.3375 177.223437) scale(0.1 -0.1)">
      <use xlink:href="#DejaVuSans-32"/>
     </g>
    </g>
    <g id="line2d_31">
     <path d="M 315.3375 188.401562 
L 325.3375 188.401562 
L 335.3375 188.401562 
" style="fill: none; stroke-dasharray: 1.5,2.475; stroke-dashoffset: 0; stroke: #17becf; stroke-width: 1.5"/>
    </g>
    <g id="text_22">
     <!-- 3 -->
     <g transform="translate(343.3375 191.901562) scale(0.1 -0.1)">
      <use xlink:href="#DejaVuSans-33"/>
     </g>
    </g>
    <g id="line2d_32">
     <path d="M 315.3375 203.079687 
L 325.3375 203.079687 
L 335.3375 203.079687 
" style="fill: none; stroke-dasharray: 1.5,2.475; stroke-dashoffset: 0; stroke: #1f77b4; stroke-width: 1.5"/>
    </g>
    <g id="text_23">
     <!-- 4 -->
     <g transform="translate(343.3375 206.579687) scale(0.1 -0.1)">
      <use xlink:href="#DejaVuSans-34"/>
     </g>
    </g>
    <g id="line2d_33">
     <path d="M 315.3375 217.757812 
L 325.3375 217.757812 
L 335.3375 217.757812 
" style="fill: none; stroke: #ff7f0e; stroke-width: 1.5; stroke-linecap: square"/>
    </g>
    <g id="text_24">
     <!-- twist -->
     <g transform="translate(343.3375 221.257812) scale(0.1 -0.1)">
      <use xlink:href="#DejaVuSans-74"/>
      <use xlink:href="#DejaVuSans-77" x="39.208984"/>
      <use xlink:href="#DejaVuSans-69" x="120.996094"/>
      <use xlink:href="#DejaVuSans-73" x="148.779297"/>
      <use xlink:href="#DejaVuSans-74" x="200.878906"/>
     </g>
    </g>
   </g>
  </g>
  <g id="text_25">
   <!-- Twist coefficients 0 and 1. N=5 Jackknife bins -->
   <g transform="translate(43.2 360) scale(0.1 -0.1)">
    <defs>
     <path id="DejaVuSans-Oblique-54" d="M 378 4666 
L 4325 4666 
L 4225 4134 
L 2559 4134 
L 1759 0 
L 1125 0 
L 1925 4134 
L 275 4134 
L 378 4666 
z
" transform="scale(0.015625)"/>
     <path id="DejaVuSans-Oblique-77" d="M 544 3500 
L 1113 3500 
L 1259 684 
L 2566 3500 
L 3231 3500 
L 3425 684 
L 4666 3500 
L 5241 3500 
L 3641 0 
L 2969 0 
L 2797 2900 
L 1459 0 
L 781 0 
L 544 3500 
z
" transform="scale(0.015625)"/>
     <path id="DejaVuSans-Oblique-69" d="M 1172 4863 
L 1747 4863 
L 1606 4134 
L 1031 4134 
L 1172 4863 
z
M 909 3500 
L 1484 3500 
L 800 0 
L 225 0 
L 909 3500 
z
" transform="scale(0.015625)"/>
     <path id="DejaVuSans-Oblique-73" d="M 3200 3397 
L 3091 2853 
Q 2863 2978 2609 3040 
Q 2356 3103 2088 3103 
Q 1634 3103 1373 2948 
Q 1113 2794 1113 2528 
Q 1113 2219 1719 2053 
Q 1766 2041 1788 2034 
L 1972 1978 
Q 2547 1819 2739 1644 
Q 2931 1469 2931 1166 
Q 2931 609 2489 259 
Q 2047 -91 1331 -91 
Q 1053 -91 747 -37 
Q 441 16 72 128 
L 184 722 
Q 500 559 806 475 
Q 1113 391 1394 391 
Q 1816 391 2080 572 
Q 2344 753 2344 1031 
Q 2344 1331 1650 1516 
L 1591 1531 
L 1394 1581 
Q 956 1697 753 1886 
Q 550 2075 550 2369 
Q 550 2928 970 3256 
Q 1391 3584 2113 3584 
Q 2397 3584 2667 3537 
Q 2938 3491 3200 3397 
z
" transform="scale(0.015625)"/>
     <path id="DejaVuSans-Oblique-74" d="M 2706 3500 
L 2619 3053 
L 1472 3053 
L 1100 1153 
Q 1081 1047 1072 975 
Q 1063 903 1063 863 
Q 1063 663 1183 572 
Q 1303 481 1569 481 
L 2150 481 
L 2053 0 
L 1503 0 
Q 991 0 739 200 
Q 488 400 488 806 
Q 488 878 497 964 
Q 506 1050 525 1153 
L 897 3053 
L 409 3053 
L 500 3500 
L 978 3500 
L 1172 4494 
L 1747 4494 
L 1556 3500 
L 2706 3500 
z
" transform="scale(0.015625)"/>
     <path id="DejaVuSans-Oblique-20" transform="scale(0.015625)"/>
     <path id="DejaVuSans-Oblique-63" d="M 3431 3366 
L 3316 2797 
Q 3109 2947 2876 3022 
Q 2644 3097 2394 3097 
Q 2119 3097 1870 3000 
Q 1622 2903 1453 2725 
Q 1184 2453 1037 2087 
Q 891 1722 891 1331 
Q 891 859 1127 628 
Q 1363 397 1844 397 
Q 2081 397 2348 469 
Q 2616 541 2906 684 
L 2797 116 
Q 2547 13 2283 -39 
Q 2019 -91 1741 -91 
Q 1044 -91 669 257 
Q 294 606 294 1253 
Q 294 1797 489 2255 
Q 684 2713 1069 3078 
Q 1331 3328 1684 3456 
Q 2038 3584 2456 3584 
Q 2700 3584 2940 3529 
Q 3181 3475 3431 3366 
z
" transform="scale(0.015625)"/>
     <path id="DejaVuSans-Oblique-6f" d="M 1625 -91 
Q 1009 -91 651 289 
Q 294 669 294 1325 
Q 294 1706 417 2101 
Q 541 2497 738 2766 
Q 1047 3184 1428 3384 
Q 1809 3584 2291 3584 
Q 2888 3584 3255 3212 
Q 3622 2841 3622 2241 
Q 3622 1825 3500 1412 
Q 3378 1000 3181 728 
Q 2875 309 2494 109 
Q 2113 -91 1625 -91 
z
M 891 1344 
Q 891 869 1089 633 
Q 1288 397 1691 397 
Q 2269 397 2648 901 
Q 3028 1406 3028 2181 
Q 3028 2634 2825 2865 
Q 2622 3097 2228 3097 
Q 1903 3097 1650 2945 
Q 1397 2794 1197 2484 
Q 1050 2253 970 1956 
Q 891 1659 891 1344 
z
" transform="scale(0.015625)"/>
     <path id="DejaVuSans-Oblique-65" d="M 3078 2063 
Q 3088 2113 3092 2166 
Q 3097 2219 3097 2272 
Q 3097 2653 2873 2875 
Q 2650 3097 2266 3097 
Q 1838 3097 1509 2826 
Q 1181 2556 1013 2059 
L 3078 2063 
z
M 3578 1613 
L 903 1613 
Q 884 1494 878 1425 
Q 872 1356 872 1306 
Q 872 872 1139 634 
Q 1406 397 1894 397 
Q 2269 397 2603 481 
Q 2938 566 3225 728 
L 3116 159 
Q 2806 34 2476 -28 
Q 2147 -91 1806 -91 
Q 1078 -91 686 257 
Q 294 606 294 1247 
Q 294 1794 489 2264 
Q 684 2734 1063 3103 
Q 1306 3334 1642 3459 
Q 1978 3584 2356 3584 
Q 2950 3584 3301 3228 
Q 3653 2872 3653 2272 
Q 3653 2128 3634 1964 
Q 3616 1800 3578 1613 
z
" transform="scale(0.015625)"/>
     <path id="DejaVuSans-Oblique-66" d="M 3059 4863 
L 2969 4384 
L 2419 4384 
Q 2106 4384 1964 4261 
Q 1822 4138 1753 3809 
L 1691 3500 
L 2638 3500 
L 2553 3053 
L 1606 3053 
L 1013 0 
L 434 0 
L 1031 3053 
L 481 3053 
L 563 3500 
L 1113 3500 
L 1159 3744 
Q 1278 4363 1576 4613 
Q 1875 4863 2516 4863 
L 3059 4863 
z
" transform="scale(0.015625)"/>
     <path id="DejaVuSans-Oblique-6e" d="M 3566 2113 
L 3156 0 
L 2578 0 
L 2988 2091 
Q 3016 2238 3031 2350 
Q 3047 2463 3047 2528 
Q 3047 2791 2881 2937 
Q 2716 3084 2419 3084 
Q 1956 3084 1622 2776 
Q 1288 2469 1184 1941 
L 800 0 
L 225 0 
L 903 3500 
L 1478 3500 
L 1363 2950 
Q 1603 3253 1940 3418 
Q 2278 3584 2650 3584 
Q 3113 3584 3367 3334 
Q 3622 3084 3622 2631 
Q 3622 2519 3608 2391 
Q 3594 2263 3566 2113 
z
" transform="scale(0.015625)"/>
     <path id="DejaVuSans-Oblique-30" d="M 2444 4750 
Q 3078 4750 3414 4328 
Q 3750 3906 3750 3116 
Q 3750 2516 3592 1923 
Q 3434 1331 3150 863 
Q 2859 394 2467 151 
Q 2075 -91 1600 -91 
Q 988 -91 653 334 
Q 319 759 319 1544 
Q 319 2138 480 2733 
Q 641 3328 928 3794 
Q 1216 4263 1602 4506 
Q 1988 4750 2444 4750 
z
M 2406 4250 
Q 2169 4250 1955 4123 
Q 1741 3997 1569 3750 
Q 1281 3338 1111 2720 
Q 941 2103 941 1453 
Q 941 938 1123 673 
Q 1306 409 1663 409 
Q 1913 409 2125 536 
Q 2338 663 2509 909 
Q 2794 1319 2961 1936 
Q 3128 2553 3128 3206 
Q 3128 3722 2945 3986 
Q 2763 4250 2406 4250 
z
" transform="scale(0.015625)"/>
     <path id="DejaVuSans-Oblique-61" d="M 3438 1997 
L 3047 0 
L 2472 0 
L 2578 531 
Q 2325 219 2001 64 
Q 1678 -91 1281 -91 
Q 834 -91 548 182 
Q 263 456 263 884 
Q 263 1497 752 1853 
Q 1241 2209 2100 2209 
L 2900 2209 
L 2931 2363 
Q 2938 2388 2941 2417 
Q 2944 2447 2944 2509 
Q 2944 2788 2717 2942 
Q 2491 3097 2081 3097 
Q 1800 3097 1504 3025 
Q 1209 2953 897 2809 
L 997 3341 
Q 1322 3463 1633 3523 
Q 1944 3584 2234 3584 
Q 2853 3584 3176 3315 
Q 3500 3047 3500 2534 
Q 3500 2431 3484 2292 
Q 3469 2153 3438 1997 
z
M 2816 1759 
L 2241 1759 
Q 1534 1759 1195 1570 
Q 856 1381 856 984 
Q 856 709 1029 553 
Q 1203 397 1509 397 
Q 1978 397 2328 733 
Q 2678 1069 2791 1631 
L 2816 1759 
z
" transform="scale(0.015625)"/>
     <path id="DejaVuSans-Oblique-64" d="M 2675 525 
Q 2444 222 2128 65 
Q 1813 -91 1428 -91 
Q 903 -91 598 267 
Q 294 625 294 1247 
Q 294 1766 478 2236 
Q 663 2706 1013 3078 
Q 1244 3325 1534 3454 
Q 1825 3584 2144 3584 
Q 2481 3584 2739 3421 
Q 2997 3259 3138 2956 
L 3513 4863 
L 4091 4863 
L 3144 0 
L 2566 0 
L 2675 525 
z
M 891 1350 
Q 891 897 1095 644 
Q 1300 391 1663 391 
Q 1931 391 2161 520 
Q 2391 650 2566 903 
Q 2750 1166 2856 1509 
Q 2963 1853 2963 2188 
Q 2963 2622 2758 2865 
Q 2553 3109 2194 3109 
Q 1922 3109 1687 2981 
Q 1453 2853 1288 2613 
Q 1106 2353 998 2009 
Q 891 1666 891 1350 
z
" transform="scale(0.015625)"/>
     <path id="DejaVuSans-Oblique-31" d="M 416 531 
L 1447 531 
L 2144 4122 
L 978 3897 
L 1088 4441 
L 2247 4666 
L 2881 4666 
L 2075 531 
L 3103 531 
L 3003 0 
L 313 0 
L 416 531 
z
" transform="scale(0.015625)"/>
     <path id="DejaVuSans-Oblique-2e" d="M 525 794 
L 1184 794 
L 1031 0 
L 372 0 
L 525 794 
z
" transform="scale(0.015625)"/>
     <path id="DejaVuSans-Oblique-4e" d="M 1081 4666 
L 1931 4666 
L 3219 666 
L 4000 4666 
L 4616 4666 
L 3706 0 
L 2853 0 
L 1569 4025 
L 788 0 
L 172 0 
L 1081 4666 
z
" transform="scale(0.015625)"/>
     <path id="DejaVuSans-Oblique-3d" d="M 678 2906 
L 4684 2906 
L 4684 2381 
L 678 2381 
L 678 2906 
z
M 678 1631 
L 4684 1631 
L 4684 1100 
L 678 1100 
L 678 1631 
z
" transform="scale(0.015625)"/>
     <path id="DejaVuSans-Oblique-35" d="M 3719 4666 
L 3622 4141 
L 1691 4141 
L 1466 2988 
Q 1609 3034 1757 3056 
Q 1906 3078 2059 3078 
Q 2706 3078 3081 2731 
Q 3456 2384 3456 1791 
Q 3456 1375 3264 994 
Q 3072 613 2719 325 
Q 2469 125 2108 17 
Q 1747 -91 1319 -91 
Q 1038 -91 744 -41 
Q 450 9 128 109 
L 244 697 
Q 531 556 820 486 
Q 1109 416 1403 416 
Q 2013 416 2411 781 
Q 2809 1147 2809 1697 
Q 2809 2103 2548 2328 
Q 2288 2553 1819 2553 
Q 1572 2553 1305 2495 
Q 1038 2438 756 2322 
L 1209 4666 
L 3719 4666 
z
" transform="scale(0.015625)"/>
     <path id="DejaVuSans-Oblique-4a" d="M 1069 4666 
L 1703 4666 
L 856 325 
Q 691 -522 298 -901 
Q -94 -1281 -800 -1281 
L -1050 -1281 
L -947 -750 
L -750 -750 
Q -328 -750 -109 -509 
Q 109 -269 225 325 
L 1069 4666 
z
" transform="scale(0.015625)"/>
     <path id="DejaVuSans-Oblique-6b" d="M 1172 4863 
L 1747 4863 
L 1197 2028 
L 3169 3500 
L 3916 3500 
L 1716 1825 
L 3322 0 
L 2625 0 
L 1131 1709 
L 800 0 
L 225 0 
L 1172 4863 
z
" transform="scale(0.015625)"/>
     <path id="DejaVuSans-Oblique-62" d="M 3169 2138 
Q 3169 2591 2961 2847 
Q 2753 3103 2388 3103 
Q 2122 3103 1889 2973 
Q 1656 2844 1484 2597 
Q 1303 2338 1198 1995 
Q 1094 1653 1094 1313 
Q 1094 881 1298 636 
Q 1503 391 1863 391 
Q 2134 391 2365 517 
Q 2597 644 2772 891 
Q 2950 1147 3059 1487 
Q 3169 1828 3169 2138 
z
M 1381 2969 
Q 1594 3256 1914 3420 
Q 2234 3584 2584 3584 
Q 3122 3584 3439 3221 
Q 3756 2859 3756 2241 
Q 3756 1734 3570 1259 
Q 3384 784 3041 416 
Q 2816 172 2522 40 
Q 2228 -91 1906 -91 
Q 1566 -91 1316 65 
Q 1066 222 909 531 
L 806 0 
L 231 0 
L 1178 4863 
L 1753 4863 
L 1381 2969 
z
" transform="scale(0.015625)"/>
    </defs>
    <use xlink:href="#DejaVuSans-Oblique-54"/>
    <use xlink:href="#DejaVuSans-Oblique-77" x="52.958984"/>
    <use xlink:href="#DejaVuSans-Oblique-69" x="134.746094"/>
    <use xlink:href="#DejaVuSans-Oblique-73" x="162.529297"/>
    <use xlink:href="#DejaVuSans-Oblique-74" x="214.628906"/>
    <use xlink:href="#DejaVuSans-Oblique-20" x="253.837891"/>
    <use xlink:href="#DejaVuSans-Oblique-63" x="285.625"/>
    <use xlink:href="#DejaVuSans-Oblique-6f" x="340.605469"/>
    <use xlink:href="#DejaVuSans-Oblique-65" x="401.787109"/>
    <use xlink:href="#DejaVuSans-Oblique-66" x="463.310547"/>
    <use xlink:href="#DejaVuSans-Oblique-66" x="498.515625"/>
    <use xlink:href="#DejaVuSans-Oblique-69" x="533.720703"/>
    <use xlink:href="#DejaVuSans-Oblique-63" x="561.503906"/>
    <use xlink:href="#DejaVuSans-Oblique-69" x="616.484375"/>
    <use xlink:href="#DejaVuSans-Oblique-65" x="644.267578"/>
    <use xlink:href="#DejaVuSans-Oblique-6e" x="705.791016"/>
    <use xlink:href="#DejaVuSans-Oblique-74" x="769.169922"/>
    <use xlink:href="#DejaVuSans-Oblique-73" x="808.378906"/>
    <use xlink:href="#DejaVuSans-Oblique-20" x="860.478516"/>
    <use xlink:href="#DejaVuSans-Oblique-30" x="892.265625"/>
    <use xlink:href="#DejaVuSans-Oblique-20" x="955.888672"/>
    <use xlink:href="#DejaVuSans-Oblique-61" x="987.675781"/>
    <use xlink:href="#DejaVuSans-Oblique-6e" x="1048.955078"/>
    <use xlink:href="#DejaVuSans-Oblique-64" x="1112.333984"/>
    <use xlink:href="#DejaVuSans-Oblique-20" x="1175.810547"/>
    <use xlink:href="#DejaVuSans-Oblique-31" x="1207.597656"/>
    <use xlink:href="#DejaVuSans-Oblique-2e" x="1271.220703"/>
    <use xlink:href="#DejaVuSans-Oblique-20" x="1303.007812"/>
    <use xlink:href="#DejaVuSans-Oblique-4e" x="1334.794922"/>
    <use xlink:href="#DejaVuSans-Oblique-3d" x="1409.599609"/>
    <use xlink:href="#DejaVuSans-Oblique-35" x="1493.388672"/>
    <use xlink:href="#DejaVuSans-Oblique-20" x="1557.011719"/>
    <use xlink:href="#DejaVuSans-Oblique-4a" x="1588.798828"/>
    <use xlink:href="#DejaVuSans-Oblique-61" x="1618.291016"/>
    <use xlink:href="#DejaVuSans-Oblique-63" x="1679.570312"/>
    <use xlink:href="#DejaVuSans-Oblique-6b" x="1734.550781"/>
    <use xlink:href="#DejaVuSans-Oblique-6b" x="1792.460938"/>
    <use xlink:href="#DejaVuSans-Oblique-6e" x="1850.371094"/>
    <use xlink:href="#DejaVuSans-Oblique-69" x="1913.75"/>
    <use xlink:href="#DejaVuSans-Oblique-66" x="1941.533203"/>
    <use xlink:href="#DejaVuSans-Oblique-65" x="1976.738281"/>
    <use xlink:href="#DejaVuSans-Oblique-20" x="2038.261719"/>
    <use xlink:href="#DejaVuSans-Oblique-62" x="2070.048828"/>
    <use xlink:href="#DejaVuSans-Oblique-69" x="2133.525391"/>
    <use xlink:href="#DejaVuSans-Oblique-6e" x="2161.308594"/>
    <use xlink:href="#DejaVuSans-Oblique-73" x="2224.6875"/>
   </g>
  </g>
 </g>
 <defs>
  <clipPath id="p03e39935c1">
   <rect x="54" y="43.2" width="334.8" height="277.2"/>
  </clipPath>
 </defs>
</svg>
