<?xml version="1.0" encoding="utf-8" standalone="no"?>
<!DOCTYPE svg PUBLIC "-//W3C//DTD SVG 1.1//EN"
  "http://www.w3.org/Graphics/SVG/1.1/DTD/svg11.dtd">
<svg xmlns:xlink="http://www.w3.org/1999/xlink" width="432pt" height="432pt" viewBox="0 0 432 432" xmlns="http://www.w3.org/2000/svg" version="1.1">
 <metadata>
  <rdf:RDF xmlns:dc="http://purl.org/dc/elements/1.1/" xmlns:cc="http://creativecommons.org/ns#" xmlns:rdf="http://www.w3.org/1999/02/22-rdf-syntax-ns#">
   <cc:Work>
    <dc:type rdf:resource="http://purl.org/dc/dcmitype/StillImage"/>
    <dc:date>2024-03-06T11:38:39.336343</dc:date>
    <dc:format>image/svg+xml</dc:format>
    <dc:creator>
     <cc:Agent>
      <dc:title>Matplotlib v3.8.0, https://matplotlib.org/</dc:title>
     </cc:Agent>
    </dc:creator>
   </cc:Work>
  </rdf:RDF>
 </metadata>
 <defs>
  <style type="text/css">*{stroke-linejoin: round; stroke-linecap: butt}</style>
 </defs>
 <g id="figure_1">
  <g id="patch_1">
   <path d="M 0 432 
L 432 432 
L 432 0 
L 0 0 
z
" style="fill: #ffffff"/>
  </g>
  <g id="axes_1">
   <g id="patch_2">
    <path d="M 54 384.48 
L 388.8 384.48 
L 388.8 51.84 
L 54 51.84 
z
" style="fill: #ffffff"/>
   </g>
   <g id="matplotlib.axis_1">
    <g id="xtick_1">
     <g id="line2d_1">
      <defs>
       <path id="m968c733b55" d="M 0 0 
L 0 3.5 
" style="stroke: #000000; stroke-width: 0.8"/>
      </defs>
      <g>
       <use xlink:href="#m968c733b55" x="99.654545" y="384.48" style="stroke: #000000; stroke-width: 0.8"/>
      </g>
     </g>
     <g id="text_1">
      <!-- 10.76 -->
      <g transform="translate(85.340483 399.078438) scale(0.1 -0.1)">
       <defs>
        <path id="DejaVuSans-31" d="M 794 531 
L 1825 531 
L 1825 4091 
L 703 3866 
L 703 4441 
L 1819 4666 
L 2450 4666 
L 2450 531 
L 3481 531 
L 3481 0 
L 794 0 
L 794 531 
z
" transform="scale(0.015625)"/>
        <path id="DejaVuSans-30" d="M 2034 4250 
Q 1547 4250 1301 3770 
Q 1056 3291 1056 2328 
Q 1056 1369 1301 889 
Q 1547 409 2034 409 
Q 2525 409 2770 889 
Q 3016 1369 3016 2328 
Q 3016 3291 2770 3770 
Q 2525 4250 2034 4250 
z
M 2034 4750 
Q 2819 4750 3233 4129 
Q 3647 3509 3647 2328 
Q 3647 1150 3233 529 
Q 2819 -91 2034 -91 
Q 1250 -91 836 529 
Q 422 1150 422 2328 
Q 422 3509 836 4129 
Q 1250 4750 2034 4750 
z
" transform="scale(0.015625)"/>
        <path id="DejaVuSans-2e" d="M 684 794 
L 1344 794 
L 1344 0 
L 684 0 
L 684 794 
z
" transform="scale(0.015625)"/>
        <path id="DejaVuSans-37" d="M 525 4666 
L 3525 4666 
L 3525 4397 
L 1831 0 
L 1172 0 
L 2766 4134 
L 525 4134 
L 525 4666 
z
" transform="scale(0.015625)"/>
        <path id="DejaVuSans-36" d="M 2113 2584 
Q 1688 2584 1439 2293 
Q 1191 2003 1191 1497 
Q 1191 994 1439 701 
Q 1688 409 2113 409 
Q 2538 409 2786 701 
Q 3034 994 3034 1497 
Q 3034 2003 2786 2293 
Q 2538 2584 2113 2584 
z
M 3366 4563 
L 3366 3988 
Q 3128 4100 2886 4159 
Q 2644 4219 2406 4219 
Q 1781 4219 1451 3797 
Q 1122 3375 1075 2522 
Q 1259 2794 1537 2939 
Q 1816 3084 2150 3084 
Q 2853 3084 3261 2657 
Q 3669 2231 3669 1497 
Q 3669 778 3244 343 
Q 2819 -91 2113 -91 
Q 1303 -91 875 529 
Q 447 1150 447 2328 
Q 447 3434 972 4092 
Q 1497 4750 2381 4750 
Q 2619 4750 2861 4703 
Q 3103 4656 3366 4563 
z
" transform="scale(0.015625)"/>
       </defs>
       <use xlink:href="#DejaVuSans-31"/>
       <use xlink:href="#DejaVuSans-30" x="63.623047"/>
       <use xlink:href="#DejaVuSans-2e" x="127.246094"/>
       <use xlink:href="#DejaVuSans-37" x="159.033203"/>
       <use xlink:href="#DejaVuSans-36" x="222.65625"/>
      </g>
     </g>
    </g>
    <g id="xtick_2">
     <g id="line2d_2">
      <g>
       <use xlink:href="#m968c733b55" x="160.527273" y="384.48" style="stroke: #000000; stroke-width: 0.8"/>
      </g>
     </g>
     <g id="text_2">
      <!-- 10.78 -->
      <g transform="translate(146.21321 399.078438) scale(0.1 -0.1)">
       <defs>
        <path id="DejaVuSans-38" d="M 2034 2216 
Q 1584 2216 1326 1975 
Q 1069 1734 1069 1313 
Q 1069 891 1326 650 
Q 1584 409 2034 409 
Q 2484 409 2743 651 
Q 3003 894 3003 1313 
Q 3003 1734 2745 1975 
Q 2488 2216 2034 2216 
z
M 1403 2484 
Q 997 2584 770 2862 
Q 544 3141 544 3541 
Q 544 4100 942 4425 
Q 1341 4750 2034 4750 
Q 2731 4750 3128 4425 
Q 3525 4100 3525 3541 
Q 3525 3141 3298 2862 
Q 3072 2584 2669 2484 
Q 3125 2378 3379 2068 
Q 3634 1759 3634 1313 
Q 3634 634 3220 271 
Q 2806 -91 2034 -91 
Q 1263 -91 848 271 
Q 434 634 434 1313 
Q 434 1759 690 2068 
Q 947 2378 1403 2484 
z
M 1172 3481 
Q 1172 3119 1398 2916 
Q 1625 2713 2034 2713 
Q 2441 2713 2670 2916 
Q 2900 3119 2900 3481 
Q 2900 3844 2670 4047 
Q 2441 4250 2034 4250 
Q 1625 4250 1398 4047 
Q 1172 3844 1172 3481 
z
" transform="scale(0.015625)"/>
       </defs>
       <use xlink:href="#DejaVuSans-31"/>
       <use xlink:href="#DejaVuSans-30" x="63.623047"/>
       <use xlink:href="#DejaVuSans-2e" x="127.246094"/>
       <use xlink:href="#DejaVuSans-37" x="159.033203"/>
       <use xlink:href="#DejaVuSans-38" x="222.65625"/>
      </g>
     </g>
    </g>
    <g id="xtick_3">
     <g id="line2d_3">
      <g>
       <use xlink:href="#m968c733b55" x="221.4" y="384.48" style="stroke: #000000; stroke-width: 0.8"/>
      </g>
     </g>
     <g id="text_3">
      <!-- 10.80 -->
      <g transform="translate(207.085938 399.078438) scale(0.1 -0.1)">
       <use xlink:href="#DejaVuSans-31"/>
       <use xlink:href="#DejaVuSans-30" x="63.623047"/>
       <use xlink:href="#DejaVuSans-2e" x="127.246094"/>
       <use xlink:href="#DejaVuSans-38" x="159.033203"/>
       <use xlink:href="#DejaVuSans-30" x="222.65625"/>
      </g>
     </g>
    </g>
    <g id="xtick_4">
     <g id="line2d_4">
      <g>
       <use xlink:href="#m968c733b55" x="282.272727" y="384.48" style="stroke: #000000; stroke-width: 0.8"/>
      </g>
     </g>
     <g id="text_4">
      <!-- 10.82 -->
      <g transform="translate(267.958665 399.078438) scale(0.1 -0.1)">
       <defs>
        <path id="DejaVuSans-32" d="M 1228 531 
L 3431 531 
L 3431 0 
L 469 0 
L 469 531 
Q 828 903 1448 1529 
Q 2069 2156 2228 2338 
Q 2531 2678 2651 2914 
Q 2772 3150 2772 3378 
Q 2772 3750 2511 3984 
Q 2250 4219 1831 4219 
Q 1534 4219 1204 4116 
Q 875 4013 500 3803 
L 500 4441 
Q 881 4594 1212 4672 
Q 1544 4750 1819 4750 
Q 2544 4750 2975 4387 
Q 3406 4025 3406 3419 
Q 3406 3131 3298 2873 
Q 3191 2616 2906 2266 
Q 2828 2175 2409 1742 
Q 1991 1309 1228 531 
z
" transform="scale(0.015625)"/>
       </defs>
       <use xlink:href="#DejaVuSans-31"/>
       <use xlink:href="#DejaVuSans-30" x="63.623047"/>
       <use xlink:href="#DejaVuSans-2e" x="127.246094"/>
       <use xlink:href="#DejaVuSans-38" x="159.033203"/>
       <use xlink:href="#DejaVuSans-32" x="222.65625"/>
      </g>
     </g>
    </g>
    <g id="xtick_5">
     <g id="line2d_5">
      <g>
       <use xlink:href="#m968c733b55" x="343.145455" y="384.48" style="stroke: #000000; stroke-width: 0.8"/>
      </g>
     </g>
     <g id="text_5">
      <!-- 10.84 -->
      <g transform="translate(328.831392 399.078438) scale(0.1 -0.1)">
       <defs>
        <path id="DejaVuSans-34" d="M 2419 4116 
L 825 1625 
L 2419 1625 
L 2419 4116 
z
M 2253 4666 
L 3047 4666 
L 3047 1625 
L 3713 1625 
L 3713 1100 
L 3047 1100 
L 3047 0 
L 2419 0 
L 2419 1100 
L 313 1100 
L 313 1709 
L 2253 4666 
z
" transform="scale(0.015625)"/>
       </defs>
       <use xlink:href="#DejaVuSans-31"/>
       <use xlink:href="#DejaVuSans-30" x="63.623047"/>
       <use xlink:href="#DejaVuSans-2e" x="127.246094"/>
       <use xlink:href="#DejaVuSans-38" x="159.033203"/>
       <use xlink:href="#DejaVuSans-34" x="222.65625"/>
      </g>
     </g>
    </g>
    <g id="text_6">
     <!-- $\beta$ -->
     <g transform="translate(218.2 412.858125) scale(0.1 -0.1)">
      <defs>
       <path id="DejaVuSans-Oblique-3b2" d="M 872 216 
L 572 -1331 
L -6 -1331 
L 928 3478 
Q 1206 4903 2538 4903 
Q 3888 4903 3659 3700 
Q 3503 2844 2894 2531 
Q 3713 2250 3553 1416 
Q 3272 -69 1759 -66 
Q 1097 -63 872 216 
z
M 1019 966 
Q 1259 422 1875 425 
Q 2775 425 2966 1406 
Q 3138 2288 1675 2219 
L 1778 2750 
Q 2909 2731 3106 3750 
Q 3241 4438 2509 4434 
Q 1691 4434 1503 3459 
L 1019 966 
z
" transform="scale(0.015625)"/>
      </defs>
      <use xlink:href="#DejaVuSans-Oblique-3b2" transform="translate(0 0.390625)"/>
     </g>
    </g>
   </g>
   <g id="matplotlib.axis_2">
    <g id="ytick_1">
     <g id="line2d_6">
      <defs>
       <path id="m75cecd7adf" d="M 0 0 
L -3.5 0 
" style="stroke: #000000; stroke-width: 0.8"/>
      </defs>
      <g>
       <use xlink:href="#m75cecd7adf" x="54" y="328.143454" style="stroke: #000000; stroke-width: 0.8"/>
      </g>
     </g>
     <g id="text_7">
      <!-- 0.434 -->
      <g transform="translate(18.371875 331.942673) scale(0.1 -0.1)">
       <defs>
        <path id="DejaVuSans-33" d="M 2597 2516 
Q 3050 2419 3304 2112 
Q 3559 1806 3559 1356 
Q 3559 666 3084 287 
Q 2609 -91 1734 -91 
Q 1441 -91 1130 -33 
Q 819 25 488 141 
L 488 750 
Q 750 597 1062 519 
Q 1375 441 1716 441 
Q 2309 441 2620 675 
Q 2931 909 2931 1356 
Q 2931 1769 2642 2001 
Q 2353 2234 1838 2234 
L 1294 2234 
L 1294 2753 
L 1863 2753 
Q 2328 2753 2575 2939 
Q 2822 3125 2822 3475 
Q 2822 3834 2567 4026 
Q 2313 4219 1838 4219 
Q 1578 4219 1281 4162 
Q 984 4106 628 3988 
L 628 4550 
Q 988 4650 1302 4700 
Q 1616 4750 1894 4750 
Q 2613 4750 3031 4423 
Q 3450 4097 3450 3541 
Q 3450 3153 3228 2886 
Q 3006 2619 2597 2516 
z
" transform="scale(0.015625)"/>
       </defs>
       <use xlink:href="#DejaVuSans-30"/>
       <use xlink:href="#DejaVuSans-2e" x="63.623047"/>
       <use xlink:href="#DejaVuSans-34" x="95.410156"/>
       <use xlink:href="#DejaVuSans-33" x="159.033203"/>
       <use xlink:href="#DejaVuSans-34" x="222.65625"/>
      </g>
     </g>
    </g>
    <g id="ytick_2">
     <g id="line2d_7">
      <g>
       <use xlink:href="#m75cecd7adf" x="54" y="258.460897" style="stroke: #000000; stroke-width: 0.8"/>
      </g>
     </g>
     <g id="text_8">
      <!-- 0.436 -->
      <g transform="translate(18.371875 262.260115) scale(0.1 -0.1)">
       <use xlink:href="#DejaVuSans-30"/>
       <use xlink:href="#DejaVuSans-2e" x="63.623047"/>
       <use xlink:href="#DejaVuSans-34" x="95.410156"/>
       <use xlink:href="#DejaVuSans-33" x="159.033203"/>
       <use xlink:href="#DejaVuSans-36" x="222.65625"/>
      </g>
     </g>
    </g>
    <g id="ytick_3">
     <g id="line2d_8">
      <g>
       <use xlink:href="#m75cecd7adf" x="54" y="188.778339" style="stroke: #000000; stroke-width: 0.8"/>
      </g>
     </g>
     <g id="text_9">
      <!-- 0.438 -->
      <g transform="translate(18.371875 192.577558) scale(0.1 -0.1)">
       <use xlink:href="#DejaVuSans-30"/>
       <use xlink:href="#DejaVuSans-2e" x="63.623047"/>
       <use xlink:href="#DejaVuSans-34" x="95.410156"/>
       <use xlink:href="#DejaVuSans-33" x="159.033203"/>
       <use xlink:href="#DejaVuSans-38" x="222.65625"/>
      </g>
     </g>
    </g>
    <g id="ytick_4">
     <g id="line2d_9">
      <g>
       <use xlink:href="#m75cecd7adf" x="54" y="119.095782" style="stroke: #000000; stroke-width: 0.8"/>
      </g>
     </g>
     <g id="text_10">
      <!-- 0.440 -->
      <g transform="translate(18.371875 122.895001) scale(0.1 -0.1)">
       <use xlink:href="#DejaVuSans-30"/>
       <use xlink:href="#DejaVuSans-2e" x="63.623047"/>
       <use xlink:href="#DejaVuSans-34" x="95.410156"/>
       <use xlink:href="#DejaVuSans-34" x="159.033203"/>
       <use xlink:href="#DejaVuSans-30" x="222.65625"/>
      </g>
     </g>
    </g>
    <g id="text_11">
     <!-- $\langle$ S $\rangle$ -->
     <g transform="translate(12.292187 228.46) rotate(-90) scale(0.1 -0.1)">
      <defs>
       <path id="DejaVuSans-27e8" d="M 572 2006 
L 1453 4856 
L 1984 4856 
L 1103 2006 
L 1984 -844 
L 1453 -844 
L 572 2006 
z
" transform="scale(0.015625)"/>
       <path id="DejaVuSans-20" transform="scale(0.015625)"/>
       <path id="DejaVuSans-53" d="M 3425 4513 
L 3425 3897 
Q 3066 4069 2747 4153 
Q 2428 4238 2131 4238 
Q 1616 4238 1336 4038 
Q 1056 3838 1056 3469 
Q 1056 3159 1242 3001 
Q 1428 2844 1947 2747 
L 2328 2669 
Q 3034 2534 3370 2195 
Q 3706 1856 3706 1288 
Q 3706 609 3251 259 
Q 2797 -91 1919 -91 
Q 1588 -91 1214 -16 
Q 841 59 441 206 
L 441 856 
Q 825 641 1194 531 
Q 1563 422 1919 422 
Q 2459 422 2753 634 
Q 3047 847 3047 1241 
Q 3047 1584 2836 1778 
Q 2625 1972 2144 2069 
L 1759 2144 
Q 1053 2284 737 2584 
Q 422 2884 422 3419 
Q 422 4038 858 4394 
Q 1294 4750 2059 4750 
Q 2388 4750 2728 4690 
Q 3069 4631 3425 4513 
z
" transform="scale(0.015625)"/>
       <path id="DejaVuSans-27e9" d="M 1925 2006 
L 1044 -844 
L 513 -844 
L 1394 2006 
L 513 4856 
L 1044 4856 
L 1925 2006 
z
" transform="scale(0.015625)"/>
      </defs>
      <use xlink:href="#DejaVuSans-27e8" transform="translate(0 0.125)"/>
      <use xlink:href="#DejaVuSans-20" transform="translate(39.013672 0.125)"/>
      <use xlink:href="#DejaVuSans-53" transform="translate(70.800781 0.125)"/>
      <use xlink:href="#DejaVuSans-20" transform="translate(134.277344 0.125)"/>
      <use xlink:href="#DejaVuSans-27e9" transform="translate(166.064453 0.125)"/>
     </g>
    </g>
   </g>
   <g id="line2d_10">
    <path d="M 69.218182 67.165919 
L 72.261818 70.122425 
L 75.305455 73.068702 
L 78.349091 76.008806 
L 81.392727 78.946582 
L 84.436364 81.885378 
L 87.48 84.827679 
L 90.523636 87.774698 
L 93.567273 90.72607 
L 96.610909 93.679774 
L 99.654545 96.632409 
L 102.698182 99.5798 
L 105.741818 102.51785 
L 108.785455 105.443418 
L 111.829091 108.355001 
L 114.872727 111.25301 
L 117.916364 114.139534 
L 120.96 117.01767 
L 124.003636 119.890647 
L 127.047273 122.761042 
L 130.090909 125.630345 
L 133.134545 128.498957 
L 136.178182 131.366563 
L 139.221818 134.232672 
L 142.265455 137.097135 
L 145.309091 139.960544 
L 148.352727 142.824499 
L 151.396364 145.691819 
L 154.44 148.566822 
L 157.483636 151.455836 
L 160.527273 154.368246 
L 163.570909 157.318603 
L 166.614545 160.33048 
L 169.658182 163.4429 
L 172.701818 166.719592 
L 175.745455 170.259184 
L 178.789091 174.198856 
L 181.832727 178.694009 
L 184.876364 183.850406 
L 187.92 189.611495 
L 190.963636 195.682375 
L 194.007273 201.613228 
L 197.050909 207.021603 
L 200.094545 211.75258 
L 203.138182 215.860149 
L 206.181818 219.494702 
L 209.225455 222.811235 
L 212.269091 225.930207 
L 215.312727 228.932765 
L 218.356364 231.868853 
L 221.4 234.767048 
L 224.443636 237.642521 
L 227.487273 240.502705 
L 230.530909 243.351055 
L 233.574545 246.189351 
L 236.618182 249.018831 
L 239.661818 251.840511 
L 242.705455 254.655038 
L 245.749091 257.462456 
L 248.792727 260.26211 
L 251.836364 263.05277 
L 254.88 265.832906 
L 257.923636 268.601007 
L 260.967273 271.355856 
L 264.010909 274.096743 
L 267.054545 276.823601 
L 270.098182 279.537074 
L 273.141818 282.238482 
L 276.185455 284.92971 
L 279.229091 287.613015 
L 282.272727 290.290802 
L 285.316364 292.965413 
L 288.36 295.638945 
L 291.403636 298.313136 
L 294.447273 300.989287 
L 297.490909 303.668219 
L 300.534545 306.350229 
L 303.578182 309.035033 
L 306.621818 311.721697 
L 309.665455 314.408609 
L 312.709091 317.093523 
L 315.752727 319.77372 
L 318.796364 322.446281 
L 321.84 325.108454 
L 324.883636 327.758065 
L 327.927273 330.393892 
L 330.970909 333.015931 
L 334.014545 335.625504 
L 337.058182 338.225129 
L 340.101818 340.818161 
L 343.145455 343.408231 
L 346.189091 345.998571 
L 349.232727 348.5914 
L 352.276364 351.187521 
L 355.32 353.78627 
L 358.363636 356.385851 
L 361.407273 358.983939 
L 364.450909 361.578385 
L 367.494545 364.167794 
L 370.538182 366.751864 
L 373.581818 369.33144 
" clip-path="url(#p1597a2ad29)" style="fill: none; stroke-dasharray: 1.5,2.475; stroke-dashoffset: 0; stroke: #1f77b4; stroke-width: 1.5"/>
   </g>
   <g id="line2d_11">
    <path d="M 69.218182 67.149361 
L 72.261818 70.110965 
L 75.305455 73.05952 
L 78.349091 75.998373 
L 81.392727 78.931744 
L 84.436364 81.86433 
L 87.48 84.800355 
L 90.523636 87.742495 
L 93.567273 90.691087 
L 96.610909 93.643928 
L 99.654545 96.596794 
L 102.698182 99.544532 
L 105.741818 102.48238 
L 108.785455 105.407105 
L 111.829091 108.317609 
L 114.872727 111.214909 
L 117.916364 114.101562 
L 120.96 116.980806 
L 124.003636 119.855706 
L 127.047273 122.728556 
L 130.090909 125.600655 
L 133.134545 128.472429 
L 136.178182 131.343782 
L 139.221818 134.2145 
L 142.265455 137.084634 
L 145.309091 139.954802 
L 148.352727 142.826454 
L 151.396364 145.702119 
L 154.44 148.585697 
L 157.483636 151.482915 
L 160.527273 154.402251 
L 163.570909 157.356903 
L 166.614545 160.368677 
L 169.658182 163.47484 
L 172.701818 166.738565 
L 175.745455 170.261405 
L 178.789091 174.19005 
L 181.832727 178.697627 
L 184.876364 183.910192 
L 187.92 189.77634 
L 190.963636 195.973364 
L 194.007273 202.001643 
L 197.050909 207.445197 
L 200.094545 212.15218 
L 203.138182 216.201509 
L 206.181818 219.768377 
L 209.225455 223.023013 
L 212.269091 226.092126 
L 215.312727 229.057598 
L 218.356364 231.967509 
L 221.4 234.847791 
L 224.443636 237.711129 
L 227.487273 240.563025 
L 230.530909 243.405638 
L 233.574545 246.239978 
L 236.618182 249.066885 
L 239.661818 251.887166 
L 242.705455 254.701316 
L 245.749091 257.509187 
L 248.792727 260.309836 
L 251.836364 263.101649 
L 254.88 265.882661 
L 257.923636 268.650974 
L 260.967273 271.405149 
L 264.010909 274.14453 
L 267.054545 276.869414 
L 270.098182 279.581058 
L 273.141818 282.281516 
L 276.185455 284.973313 
L 279.229091 287.659061 
L 282.272727 290.3411 
L 285.316364 293.021243 
L 288.36 295.700713 
L 291.403636 298.380216 
L 294.447273 301.06013 
L 297.490909 303.740679 
L 300.534545 306.422004 
L 303.578182 309.104086 
L 306.621818 311.786563 
L 309.665455 314.468512 
L 312.709091 317.148329 
L 315.752727 319.823763 
L 318.796364 322.492142 
L 321.84 325.150762 
L 324.883636 327.79736 
L 327.927273 330.430588 
L 330.970909 333.050364 
L 334.014545 335.658015 
L 337.058182 338.256134 
L 340.101818 340.848142 
L 343.145455 343.437641 
L 346.189091 346.027682 
L 349.232727 348.620161 
L 352.276364 351.215513 
L 355.32 353.812808 
L 358.363636 356.41022 
L 361.407273 359.00571 
L 364.450909 361.597665 
L 367.494545 364.185286 
L 370.538182 366.768625 
L 373.581818 369.348336 
" clip-path="url(#p1597a2ad29)" style="fill: none; stroke-dasharray: 1.5,2.475; stroke-dashoffset: 0; stroke: #ff7f0e; stroke-width: 1.5"/>
   </g>
   <g id="line2d_12">
    <path d="M 69.218182 67.192012 
L 72.261818 70.137855 
L 75.305455 73.073445 
L 78.349091 76.00228 
L 81.392727 78.928638 
L 84.436364 81.85681 
L 87.48 84.790208 
L 90.523636 87.730601 
L 93.567273 90.67768 
L 96.610909 93.629086 
L 99.654545 96.580898 
L 102.698182 99.5285 
L 105.741818 102.467589 
L 108.785455 105.395085 
L 111.829091 108.309694 
L 114.872727 111.211986 
L 117.916364 114.103982 
L 120.96 116.988411 
L 124.003636 119.867884 
L 127.047273 122.744282 
L 130.090909 125.618515 
L 133.134545 128.490684 
L 136.178182 131.360508 
L 139.221818 134.227815 
L 142.265455 137.092953 
L 145.309091 139.957082 
L 148.352727 142.822417 
L 151.396364 145.692517 
L 154.44 148.572761 
L 157.483636 151.471181 
L 160.527273 154.39999 
L 163.570909 157.378364 
L 166.614545 160.437293 
L 169.658182 163.627154 
L 172.701818 167.027547 
L 175.745455 170.755289 
L 178.789091 174.958687 
L 181.832727 179.776452 
L 184.876364 185.245308 
L 187.92 191.193193 
L 190.963636 197.232586 
L 194.007273 202.926333 
L 197.050909 208.000327 
L 200.094545 212.413709 
L 203.138182 216.279161 
L 206.181818 219.753767 
L 209.225455 222.974854 
L 212.269091 226.041079 
L 215.312727 229.015959 
L 218.356364 231.93752 
L 221.4 234.827216 
L 224.443636 237.696499 
L 227.487273 240.551268 
L 230.530909 243.394732 
L 233.574545 246.229063 
L 236.618182 249.056104 
L 239.661818 251.877383 
L 242.705455 254.693761 
L 245.749091 257.505071 
L 248.792727 260.310006 
L 251.836364 263.106347 
L 254.88 265.891471 
L 257.923636 268.662965 
L 260.967273 271.419185 
L 264.010909 274.159609 
L 267.054545 276.884957 
L 270.098182 279.597036 
L 273.141818 282.298375 
L 276.185455 284.99174 
L 279.229091 287.679636 
L 282.272727 290.363937 
L 285.316364 293.045736 
L 288.36 295.725465 
L 291.403636 298.403202 
L 294.447273 301.079056 
L 297.490909 303.75344 
L 300.534545 306.427104 
L 303.578182 309.100903 
L 306.621818 311.775388 
L 309.665455 314.450397 
L 312.709091 317.124818 
L 315.752727 319.796616 
L 318.796364 322.46313 
L 321.84 325.12155 
L 324.883636 327.76945 
L 327.927273 330.405263 
L 330.970909 333.028609 
L 334.014545 335.640411 
L 337.058182 338.242759 
L 340.101818 340.838547 
L 343.145455 343.430902 
L 346.189091 346.022536 
L 349.232727 348.615187 
L 352.276364 351.209312 
L 355.32 353.804159 
L 358.363636 356.398195 
L 361.407273 358.989744 
L 364.450909 361.577603 
L 367.494545 364.161404 
L 370.538182 366.741661 
L 373.581818 369.31953 
" clip-path="url(#p1597a2ad29)" style="fill: none; stroke-dasharray: 1.5,2.475; stroke-dashoffset: 0; stroke: #2ca02c; stroke-width: 1.5"/>
   </g>
   <g id="line2d_13">
    <path d="M 69.218182 67.144955 
L 72.261818 70.119634 
L 75.305455 73.078296 
L 78.349091 76.025275 
L 81.392727 78.965865 
L 84.436364 81.90538 
L 87.48 84.848078 
L 90.523636 87.796267 
L 93.567273 90.749846 
L 96.610909 93.7064 
L 99.654545 96.661799 
L 102.698182 99.611177 
L 105.741818 102.550011 
L 108.785455 105.475076 
L 111.829091 108.385034 
L 114.872727 111.280551 
L 117.916364 114.163943 
L 120.96 117.038483 
L 124.003636 119.907576 
L 127.047273 122.774059 
L 130.090909 125.639786 
L 133.134545 128.505571 
L 136.178182 131.371416 
L 139.221818 134.23691 
L 142.265455 137.101677 
L 145.309091 139.965802 
L 148.352727 142.830214 
L 151.396364 145.697062 
L 154.44 148.570138 
L 157.483636 151.455531 
L 160.527273 154.362875 
L 163.570909 157.307785 
L 166.614545 160.316341 
L 169.658182 163.432446 
L 172.701818 166.728185 
L 175.745455 170.314488 
L 178.789091 174.34254 
L 181.832727 178.974965 
L 184.876364 184.302212 
L 187.92 190.218905 
L 190.963636 196.367129 
L 194.007273 202.267794 
L 197.050909 207.565627 
L 200.094545 212.159086 
L 203.138182 216.142485 
L 206.181818 219.682102 
L 209.225455 222.932572 
L 212.269091 226.00784 
L 215.312727 228.982056 
L 218.356364 231.899719 
L 221.4 234.785804 
L 224.443636 237.653373 
L 227.487273 240.50876 
L 230.530909 243.35489 
L 233.574545 246.193228 
L 236.618182 249.024696 
L 239.661818 251.849886 
L 242.705455 254.668911 
L 245.749091 257.481225 
L 248.792727 260.28559 
L 251.836364 263.080261 
L 254.88 265.863307 
L 257.923636 268.632965 
L 260.967273 271.38797 
L 264.010909 274.127807 
L 267.054545 276.852865 
L 270.098182 279.564453 
L 273.141818 282.264661 
L 276.185455 284.956061 
L 279.229091 287.641329 
L 282.272727 290.322862 
L 285.316364 293.002514 
L 288.36 295.681506 
L 291.403636 298.360521 
L 294.447273 301.039923 
L 297.490909 303.719973 
L 300.534545 306.400936 
L 303.578182 309.083006 
L 306.621818 311.766083 
L 309.665455 314.449489 
L 312.709091 317.131763 
L 315.752727 319.810629 
L 318.796364 322.483185 
L 321.84 325.146294 
L 324.883636 327.797111 
L 327.927273 330.43364 
L 330.970909 333.055226 
L 334.014545 335.662845 
L 337.058182 338.259103 
L 340.101818 340.847875 
L 343.145455 343.433603 
L 346.189091 346.020381 
L 349.232727 348.61104 
L 352.276364 351.206505 
L 355.32 353.805649 
L 358.363636 356.405718 
L 361.407273 359.003186 
L 364.450909 361.594758 
L 367.494545 364.178175 
L 370.538182 366.752606 
L 373.581818 369.318574 
" clip-path="url(#p1597a2ad29)" style="fill: none; stroke-dasharray: 1.5,2.475; stroke-dashoffset: 0; stroke: #d62728; stroke-width: 1.5"/>
   </g>
   <g id="line2d_14">
    <path d="M 69.218182 67.116359 
L 72.261818 70.094905 
L 75.305455 73.06395 
L 78.349091 76.024633 
L 81.392727 78.977702 
L 84.436364 81.923663 
L 87.48 84.862851 
L 90.523636 87.795535 
L 93.567273 90.722014 
L 96.610909 93.642698 
L 99.654545 96.558155 
L 102.698182 99.469112 
L 105.741818 102.376398 
L 108.785455 105.280856 
L 111.829091 108.183216 
L 114.872727 111.083985 
L 117.916364 113.983386 
L 120.96 116.881379 
L 124.003636 119.777748 
L 127.047273 122.672214 
L 130.090909 125.564536 
L 133.134545 128.454573 
L 136.178182 131.342335 
L 139.221818 134.228058 
L 142.265455 137.11235 
L 145.309091 139.996412 
L 148.352727 142.882325 
L 151.396364 145.773393 
L 154.44 148.674622 
L 157.483636 151.593526 
L 160.527273 154.541642 
L 163.570909 157.537302 
L 166.614545 160.610346 
L 169.658182 163.809327 
L 172.701818 167.210653 
L 175.745455 170.92591 
L 178.789091 175.096456 
L 181.832727 179.855506 
L 184.876364 185.242585 
L 187.92 191.102397 
L 190.963636 197.07233 
L 194.007273 202.731329 
L 197.050909 207.803272 
L 200.094545 212.234809 
L 203.138182 216.127068 
L 206.181818 219.630596 
L 209.225455 222.879623 
L 212.269091 225.970872 
L 215.312727 228.966147 
L 218.356364 231.902209 
L 221.4 234.800244 
L 224.443636 237.672635 
L 227.487273 240.52701 
L 230.530909 243.368314 
L 233.574545 246.199692 
L 236.618182 249.022858 
L 239.661818 251.838355 
L 242.705455 254.645895 
L 245.749091 257.444793 
L 248.792727 260.234394 
L 251.836364 263.014403 
L 254.88 265.785019 
L 257.923636 268.546887 
L 260.967273 271.300903 
L 264.010909 274.047953 
L 267.054545 276.788675 
L 270.098182 279.523302 
L 273.141818 282.25161 
L 276.185455 284.972987 
L 279.229091 287.686588 
L 282.272727 290.391558 
L 285.316364 293.08728 
L 288.36 295.773599 
L 291.403636 298.450955 
L 294.447273 301.120391 
L 297.490909 303.783405 
L 300.534545 306.441679 
L 303.578182 309.09676 
L 306.621818 311.749788 
L 309.665455 314.401354 
L 312.709091 317.051513 
L 315.752727 319.699913 
L 318.796364 322.345979 
L 321.84 324.98907 
L 324.883636 327.628587 
L 327.927273 330.264027 
L 330.970909 332.895017 
L 334.014545 335.52137 
L 337.058182 338.143138 
L 340.101818 340.760657 
L 343.145455 343.374513 
L 346.189091 345.985442 
L 349.232727 348.594138 
L 352.276364 351.201058 
L 355.32 353.806263 
L 358.363636 356.409355 
L 361.407273 359.009536 
L 364.450909 361.605744 
L 367.494545 364.196845 
L 370.538182 366.781831 
L 373.581818 369.36 
" clip-path="url(#p1597a2ad29)" style="fill: none; stroke-dasharray: 1.5,2.475; stroke-dashoffset: 0; stroke: #9467bd; stroke-width: 1.5"/>
   </g>
   <g id="line2d_15">
    <path d="M 69.218182 67.153721 
L 72.261818 70.117157 
L 75.305455 73.068783 
L 78.349091 76.011873 
L 81.392727 78.950106 
L 84.436364 81.887112 
L 87.48 84.825834 
L 90.523636 87.767919 
L 93.567273 90.713339 
L 96.610909 93.660377 
L 99.654545 96.606011 
L 102.698182 99.546624 
L 105.741818 102.478846 
L 108.785455 105.400308 
L 111.829091 108.310111 
L 114.872727 111.208888 
L 117.916364 114.098482 
L 120.96 116.98135 
L 124.003636 119.859912 
L 127.047273 122.736031 
L 130.090909 125.610767 
L 133.134545 128.484443 
L 136.178182 131.356921 
L 139.221818 134.227991 
L 142.265455 137.09775 
L 145.309091 139.966929 
L 148.352727 142.837182 
L 151.396364 145.711382 
L 154.44 148.594008 
L 157.483636 151.491798 
L 160.527273 154.415001 
L 163.570909 157.379791 
L 166.614545 160.412627 
L 169.658182 163.557333 
L 172.701818 166.884908 
L 175.745455 170.503255 
L 178.789091 174.557318 
L 181.832727 179.199712 
L 184.876364 184.510141 
L 187.92 190.380466 
L 190.963636 196.465557 
L 194.007273 202.308065 
L 197.050909 207.567205 
L 200.094545 212.142473 
L 203.138182 216.122074 
L 206.181818 219.665909 
L 209.225455 222.924259 
L 212.269091 226.008425 
L 215.312727 228.990905 
L 218.356364 231.915162 
L 221.4 234.80562 
L 224.443636 237.675231 
L 227.487273 240.530554 
L 230.530909 243.374926 
L 233.574545 246.210263 
L 236.618182 249.037875 
L 239.661818 251.85866 
L 242.705455 254.672984 
L 245.749091 257.480546 
L 248.792727 260.280387 
L 251.836364 263.071086 
L 254.88 265.851073 
L 257.923636 268.61896 
L 260.967273 271.373813 
L 264.010909 274.115328 
L 267.054545 276.843903 
L 270.098182 279.560585 
L 273.141818 282.266929 
L 276.185455 284.964762 
L 279.229091 287.655926 
L 282.272727 290.342052 
L 285.316364 293.024437 
L 288.36 295.704046 
L 291.403636 298.381606 
L 294.447273 301.057757 
L 297.490909 303.733143 
L 300.534545 306.408391 
L 303.578182 309.083958 
L 306.621818 311.759904 
L 309.665455 314.435672 
L 312.709091 317.109989 
L 315.752727 319.780928 
L 318.796364 322.446143 
L 321.84 325.103226 
L 324.883636 327.750115 
L 327.927273 330.385482 
L 330.970909 333.009029 
L 334.014545 335.621629 
L 337.058182 338.225253 
L 340.101818 340.822676 
L 343.145455 343.416978 
L 346.189091 346.010922 
L 349.232727 348.606385 
L 352.276364 351.203982 
L 355.32 353.80303 
L 358.363636 356.401868 
L 361.407273 358.998423 
L 364.450909 361.590831 
L 367.494545 364.177901 
L 370.538182 366.759317 
L 373.581818 369.335576 
" clip-path="url(#p1597a2ad29)" style="fill: none; stroke: #8c564b; stroke-width: 1.5; stroke-linecap: square"/>
   </g>
   <g id="line2d_16">
    <path d="M 69.218182 67.028971 
L 72.261818 70.060548 
L 75.305455 73.068652 
L 78.349091 76.056829 
L 81.392727 79.030751 
L 84.436364 81.995695 
L 87.48 84.954761 
L 90.523636 87.908222 
L 93.567273 90.853964 
L 96.610909 93.788728 
L 99.654545 96.709627 
L 102.698182 99.615381 
L 105.741818 102.506829 
L 108.785455 105.386624 
L 111.829091 108.258346 
L 114.872727 111.125515 
L 117.916364 113.990954 
L 120.96 116.856677 
L 124.003636 119.72418 
L 127.047273 122.594789 
L 130.090909 125.469748 
L 133.134545 128.349959 
L 136.178182 131.235543 
L 139.221818 134.125521 
L 142.265455 137.017883 
L 145.309091 139.910053 
L 148.352727 142.799573 
L 151.396364 145.684705 
L 154.44 148.564704 
L 157.483636 151.439714 
L 160.527273 154.310408 
L 163.570909 157.177595 
L 166.614545 160.041949 
L 169.658182 162.903921 
L 172.701818 165.763783 
L 175.745455 168.621749 
L 178.789091 171.478156 
L 181.832727 174.333721 
L 184.876364 177.189873 
L 187.92 180.049092 
L 190.963636 182.915071 
L 194.007273 185.792599 
L 197.050909 188.687151 
L 200.094545 191.604395 
L 203.138182 194.549966 
L 206.181818 197.529772 
L 209.225455 200.550861 
L 212.269091 203.62253 
L 215.312727 206.757058 
L 218.356364 209.969368 
L 221.4 213.275107 
L 224.443636 216.687013 
L 227.487273 220.2101 
L 230.530909 223.837039 
L 233.574545 227.545781 
L 236.618182 231.301298 
L 239.661818 235.06185 
L 242.705455 238.787764 
L 245.749091 242.449139 
L 248.792727 246.029375 
L 251.836364 249.523809 
L 254.88 252.935198 
L 257.923636 256.268767 
L 260.967273 259.529007 
L 264.010909 262.718881 
L 267.054545 265.840866 
L 270.098182 268.898572 
L 273.141818 271.897828 
L 276.185455 274.84671 
L 279.229091 277.754622 
L 282.272727 280.630902 
L 285.316364 283.483543 
L 288.36 286.318439 
L 291.403636 289.139306 
L 294.447273 291.948155 
L 297.490909 294.746012 
L 300.534545 297.533539 
L 303.578182 300.311345 
L 306.621818 303.079952 
L 309.665455 305.839562 
L 312.709091 308.58987 
L 315.752727 311.330101 
L 318.796364 314.059337 
L 321.84 316.77703 
L 324.883636 319.483479 
L 327.927273 322.180028 
L 330.970909 324.868862 
L 334.014545 327.552443 
L 337.058182 330.232841 
L 340.101818 332.911233 
L 343.145455 335.587785 
L 346.189091 338.261921 
L 349.232727 340.932786 
L 352.276364 343.599653 
L 355.32 346.262095 
L 358.363636 348.919908 
L 361.407273 351.572912 
L 364.450909 354.220813 
L 367.494545 356.863193 
L 370.538182 359.499625 
L 373.581818 362.129778 
" clip-path="url(#p1597a2ad29)" style="fill: none; stroke-dasharray: 1.5,2.475; stroke-dashoffset: 0; stroke: #e377c2; stroke-width: 1.5"/>
   </g>
   <g id="line2d_17">
    <path d="M 69.218182 67.015705 
L 72.261818 70.058242 
L 75.305455 73.077525 
L 78.349091 76.07705 
L 81.392727 79.062384 
L 84.436364 82.038384 
L 87.48 85.00746 
L 90.523636 87.969153 
L 93.567273 90.92088 
L 96.610909 93.859375 
L 99.654545 96.782226 
L 102.698182 99.68893 
L 105.741818 102.581106 
L 108.785455 105.461902 
L 111.829091 108.334952 
L 114.872727 111.203401 
L 117.916364 114.06942 
L 120.96 116.934312 
L 124.003636 119.799006 
L 127.047273 122.66452 
L 130.090909 125.532082 
L 133.134545 128.402824 
L 136.178182 131.277287 
L 139.221818 134.155038 
L 142.265455 137.034691 
L 145.309091 139.914337 
L 148.352727 142.792185 
L 151.396364 145.667119 
L 154.44 148.538926 
L 157.483636 151.408148 
L 160.527273 154.275699 
L 163.570909 157.142446 
L 166.614545 160.008924 
L 169.658182 162.875227 
L 172.701818 165.741072 
L 175.745455 168.605974 
L 178.789091 171.469539 
L 181.832727 174.331881 
L 184.876364 177.194127 
L 187.92 180.058874 
L 190.963636 182.93041 
L 194.007273 185.814538 
L 197.050909 188.718007 
L 200.094545 191.647779 
L 203.138182 194.610495 
L 206.181818 197.612454 
L 209.225455 200.660189 
L 212.269091 203.761377 
L 215.312727 206.925536 
L 218.356364 210.163859 
L 221.4 213.487722 
L 224.443636 216.905759 
L 227.487273 220.42001 
L 230.530909 224.02227 
L 233.574545 227.692329 
L 236.618182 231.399567 
L 239.661818 235.108229 
L 242.705455 238.784756 
L 245.749091 242.404239 
L 248.792727 245.953331 
L 251.836364 249.428895 
L 254.88 252.833763 
L 257.923636 256.172093 
L 260.967273 259.44637 
L 264.010909 262.656859 
L 267.054545 265.802995 
L 270.098182 268.885436 
L 273.141818 271.907584 
L 276.185455 274.875897 
L 279.229091 277.799009 
L 282.272727 280.686164 
L 285.316364 283.545634 
L 288.36 286.383646 
L 291.403636 289.20413 
L 294.447273 292.009176 
L 297.490909 294.799897 
L 300.534545 297.577261 
L 303.578182 300.342546 
L 306.621818 303.097348 
L 309.665455 305.84324 
L 312.709091 308.581366 
L 315.752727 311.312216 
L 318.796364 314.035723 
L 321.84 316.751621 
L 324.883636 319.459891 
L 327.927273 322.161041 
L 330.970909 324.856096 
L 334.014545 327.546282 
L 337.058182 330.232619 
L 340.101818 332.915637 
L 343.145455 335.595366 
L 346.189091 338.271587 
L 349.232727 340.944151 
L 352.276364 343.613171 
L 355.32 346.27897 
L 358.363636 348.941848 
L 361.407273 351.601826 
L 364.450909 354.258536 
L 367.494545 356.91131 
L 370.538182 359.559443 
L 373.581818 362.202482 
" clip-path="url(#p1597a2ad29)" style="fill: none; stroke-dasharray: 1.5,2.475; stroke-dashoffset: 0; stroke: #7f7f7f; stroke-width: 1.5"/>
   </g>
   <g id="line2d_18">
    <path d="M 69.218182 66.985145 
L 72.261818 70.028162 
L 75.305455 73.049231 
L 78.349091 76.05039 
L 81.392727 79.035687 
L 84.436364 82.009011 
L 87.48 84.972638 
L 90.523636 87.926801 
L 93.567273 90.87021 
L 96.610909 93.801147 
L 99.654545 96.718624 
L 102.698182 99.623118 
L 105.741818 102.516604 
L 108.785455 105.401932 
L 111.829091 108.281908 
L 114.872727 111.158547 
L 117.916364 114.032863 
L 120.96 116.90523 
L 124.003636 119.77602 
L 127.047273 122.646096 
L 130.090909 125.516855 
L 133.134545 128.389793 
L 136.178182 131.265877 
L 139.221818 134.145088 
L 142.265455 137.026396 
L 145.309091 139.908171 
L 148.352727 142.788824 
L 151.396364 145.667336 
L 154.44 148.543465 
L 157.483636 151.417567 
L 160.527273 154.290198 
L 163.570909 157.161696 
L 166.614545 160.03194 
L 169.658182 162.900342 
L 172.701818 165.766014 
L 175.745455 168.628054 
L 178.789091 171.485886 
L 181.832727 174.339641 
L 184.876364 177.190572 
L 187.92 180.041385 
L 190.963636 182.896381 
L 194.007273 185.76128 
L 197.050909 188.642772 
L 200.094545 191.548008 
L 203.138182 194.484324 
L 206.181818 197.459456 
L 209.225455 200.48222 
L 212.269091 203.563302 
L 215.312727 206.715587 
L 218.356364 209.953395 
L 221.4 213.290286 
L 224.443636 216.73552 
L 227.487273 220.289906 
L 230.530909 223.942392 
L 233.574545 227.66906 
L 236.618182 231.43572 
L 239.661818 235.20385 
L 242.705455 238.937889 
L 245.749091 242.61099 
L 248.792727 246.207171 
L 251.836364 249.719734 
L 254.88 253.147641 
L 257.923636 256.492021 
L 260.967273 259.754302 
L 264.010909 262.936196 
L 267.054545 266.040781 
L 270.098182 269.073612 
L 273.141818 272.043071 
L 276.185455 274.959747 
L 279.229091 277.835109 
L 282.272727 280.679975 
L 285.316364 283.503278 
L 288.36 286.311476 
L 291.403636 289.108668 
L 294.447273 291.897238 
L 297.490909 294.678679 
L 300.534545 297.454206 
L 303.578182 300.224941 
L 306.621818 302.991704 
L 309.665455 305.754617 
L 312.709091 308.512836 
L 315.752727 311.264641 
L 318.796364 314.007916 
L 321.84 316.740845 
L 324.883636 319.46253 
L 327.927273 322.173249 
L 330.970909 324.874232 
L 334.014545 327.567071 
L 337.058182 330.253076 
L 340.101818 332.932884 
L 343.145455 335.6065 
L 346.189091 338.273701 
L 349.232727 340.934516 
L 352.276364 343.589497 
L 355.32 346.239628 
L 358.363636 348.885942 
L 361.407273 351.529094 
L 364.450909 354.169117 
L 367.494545 356.805486 
L 370.538182 359.437421 
L 373.581818 362.064244 
" clip-path="url(#p1597a2ad29)" style="fill: none; stroke-dasharray: 1.5,2.475; stroke-dashoffset: 0; stroke: #bcbd22; stroke-width: 1.5"/>
   </g>
   <g id="line2d_19">
    <path d="M 69.218182 66.96 
L 72.261818 70.005819 
L 75.305455 73.032781 
L 78.349091 76.041909 
L 81.392727 79.036611 
L 84.436364 82.020125 
L 87.48 84.993907 
L 90.523636 87.957256 
L 93.567273 90.907979 
L 96.610909 93.843639 
L 99.654545 96.762818 
L 102.698182 99.665911 
L 105.741818 102.555159 
L 108.785455 105.433993 
L 111.829091 108.306024 
L 114.872727 111.174172 
L 117.916364 114.040319 
L 120.96 116.905549 
L 124.003636 119.770728 
L 127.047273 122.637008 
L 130.090909 125.505903 
L 133.134545 128.378893 
L 136.178182 131.256791 
L 139.221818 134.139258 
L 142.265455 137.024768 
L 145.309091 139.911049 
L 148.352727 142.795822 
L 151.396364 145.67746 
L 154.44 148.555309 
L 157.483636 151.429574 
L 160.527273 154.300903 
L 163.570909 157.169921 
L 166.614545 160.036918 
L 169.658182 162.901779 
L 172.701818 165.764146 
L 175.745455 168.623689 
L 178.789091 171.480429 
L 181.832727 174.335077 
L 184.876364 177.189356 
L 187.92 180.046253 
L 190.963636 182.910081 
L 194.007273 185.786278 
L 197.050909 188.680947 
L 200.094545 191.600356 
L 203.138182 194.550682 
L 206.181818 197.538274 
L 209.225455 200.570438 
L 212.269091 203.656428 
L 215.312727 206.808058 
L 218.356364 210.039247 
L 221.4 213.363983 
L 224.443636 216.792632 
L 227.487273 220.327227 
L 230.530909 223.957251 
L 233.574545 227.65803 
L 236.618182 231.393489 
L 239.661818 235.123218 
L 242.705455 238.811369 
L 245.749091 242.433574 
L 248.792727 245.979094 
L 251.836364 249.44802 
L 254.88 252.845762 
L 257.923636 256.177779 
L 260.967273 259.446669 
L 264.010909 262.652152 
L 267.054545 265.793053 
L 270.098182 268.869761 
L 273.141818 271.885842 
L 276.185455 274.848211 
L 279.229091 277.766012 
L 282.272727 280.648867 
L 285.316364 283.505202 
L 288.36 286.341228 
L 291.403636 289.160778 
L 294.447273 291.965891 
L 297.490909 294.757746 
L 300.534545 297.537479 
L 303.578182 300.306561 
L 306.621818 303.066651 
L 309.665455 305.819121 
L 312.709091 308.564576 
L 315.752727 311.302676 
L 318.796364 314.032407 
L 321.84 316.752697 
L 324.883636 319.463086 
L 327.927273 322.164128 
L 330.970909 324.85731 
L 334.014545 327.54454 
L 337.058182 330.227464 
L 340.101818 332.906967 
L 343.145455 335.58309 
L 346.189091 338.255358 
L 349.232727 340.923285 
L 352.276364 343.586749 
L 355.32 346.246058 
L 358.363636 348.901719 
L 361.407273 351.554119 
L 364.450909 354.203342 
L 367.494545 356.849233 
L 370.538182 359.491636 
L 373.581818 362.130619 
" clip-path="url(#p1597a2ad29)" style="fill: none; stroke-dasharray: 1.5,2.475; stroke-dashoffset: 0; stroke: #17becf; stroke-width: 1.5"/>
   </g>
   <g id="line2d_20">
    <path d="M 69.218182 67.157297 
L 72.261818 70.108833 
L 75.305455 73.053939 
L 78.349091 75.996026 
L 81.392727 78.93736 
L 84.436364 81.879149 
L 87.48 84.821556 
L 90.523636 87.763769 
L 93.567273 90.704225 
L 96.610909 93.640995 
L 99.654545 96.572232 
L 102.698182 99.496563 
L 105.741818 102.413328 
L 108.785455 105.322611 
L 111.829091 108.225092 
L 114.872727 111.121799 
L 117.916364 114.013834 
L 120.96 116.902172 
L 124.003636 119.787562 
L 127.047273 122.67051 
L 130.090909 125.551311 
L 133.134545 128.430063 
L 136.178182 131.30667 
L 139.221818 134.180845 
L 142.265455 137.052173 
L 145.309091 139.920258 
L 148.352727 142.784926 
L 151.396364 145.6464 
L 154.44 148.50538 
L 157.483636 151.362975 
L 160.527273 154.220493 
L 163.570909 157.079169 
L 166.614545 159.939903 
L 169.658182 162.803096 
L 172.701818 165.66863 
L 175.745455 168.536026 
L 178.789091 171.404761 
L 181.832727 174.274659 
L 184.876364 177.146295 
L 187.92 180.021284 
L 190.963636 182.902404 
L 194.007273 185.79355 
L 197.050909 188.699596 
L 200.094545 191.626288 
L 203.138182 194.580282 
L 206.181818 197.56938 
L 209.225455 200.602881 
L 212.269091 203.691823 
L 215.312727 206.848781 
L 218.356364 210.086888 
L 221.4 213.417864 
L 224.443636 216.849137 
L 227.487273 220.380603 
L 230.530909 224.002038 
L 233.574545 227.692362 
L 236.618182 231.421616 
L 239.661818 235.155435 
L 242.705455 238.860683 
L 245.749091 242.510293 
L 248.792727 246.085883 
L 251.836364 249.577826 
L 254.88 252.983548 
L 257.923636 256.305193 
L 260.967273 259.547603 
L 264.010909 262.716978 
L 267.054545 265.820192 
L 270.098182 268.864464 
L 273.141818 271.857129 
L 276.185455 274.805386 
L 279.229091 277.716035 
L 282.272727 280.59527 
L 285.316364 283.448601 
L 288.36 286.280874 
L 291.403636 289.096313 
L 294.447273 291.898516 
L 297.490909 294.690356 
L 300.534545 297.473857 
L 303.578182 300.250137 
L 306.621818 303.019482 
L 309.665455 305.78157 
L 312.709091 308.535779 
L 315.752727 311.281463 
L 318.796364 314.01815 
L 321.84 316.745608 
L 324.883636 319.463838 
L 327.927273 322.173019 
L 330.970909 324.87346 
L 334.014545 327.565563 
L 337.058182 330.249804 
L 340.101818 332.92672 
L 343.145455 335.596896 
L 346.189091 338.260975 
L 349.232727 340.919673 
L 352.276364 343.573805 
L 355.32 346.224306 
L 358.363636 348.872229 
L 361.407273 351.518703 
L 364.450909 354.164819 
L 367.494545 356.811455 
L 370.538182 359.459019 
L 373.581818 362.107198 
" clip-path="url(#p1597a2ad29)" style="fill: none; stroke-dasharray: 1.5,2.475; stroke-dashoffset: 0; stroke: #1f77b4; stroke-width: 1.5"/>
   </g>
   <g id="line2d_21">
    <path d="M 69.218182 67.029424 
L 72.261818 70.052321 
L 75.305455 73.056426 
L 78.349091 76.044441 
L 81.392727 79.020559 
L 84.436364 81.988473 
L 87.48 84.950064 
L 90.523636 87.90504 
L 93.567273 90.851452 
L 96.610909 93.786777 
L 99.654545 96.709106 
L 102.698182 99.617981 
L 105.741818 102.514605 
L 108.785455 105.401412 
L 111.829091 108.281264 
L 114.872727 111.156687 
L 117.916364 114.029478 
L 120.96 116.900788 
L 124.003636 119.771499 
L 127.047273 122.642585 
L 130.090909 125.51518 
L 133.134545 128.390306 
L 136.178182 131.268433 
L 139.221818 134.14915 
L 142.265455 137.031182 
L 145.309091 139.912773 
L 148.352727 142.792266 
L 151.396364 145.668604 
L 154.44 148.541557 
L 157.483636 151.411596 
L 160.527273 154.27954 
L 163.570909 157.146165 
L 166.614545 160.011927 
L 169.658182 162.876873 
L 172.701818 165.740729 
L 175.745455 168.603098 
L 178.789091 171.463754 
L 181.832727 174.322996 
L 184.876364 177.182045 
L 187.92 180.043378 
L 190.963636 182.910869 
L 194.007273 185.789649 
L 197.050909 188.685695 
L 200.094545 191.605365 
L 203.138182 194.55515 
L 206.181818 197.541867 
L 209.225455 200.573318 
L 212.269091 203.659092 
L 215.312727 206.811004 
L 218.356364 210.042552 
L 221.4 213.366992 
L 224.443636 216.794012 
L 227.487273 220.325569 
L 230.530909 223.952198 
L 233.574545 227.651512 
L 236.618182 231.390338 
L 239.661818 235.130517 
L 242.705455 238.836492 
L 245.749091 242.481647 
L 248.792727 246.050971 
L 251.836364 249.539657 
L 254.88 252.949182 
L 257.923636 256.283171 
L 260.967273 259.54479 
L 264.010909 262.736213 
L 267.054545 265.859578 
L 270.098182 268.918369 
L 273.141818 271.918291 
L 276.185455 274.86719 
L 279.229091 277.774157 
L 282.272727 280.648236 
L 285.316364 283.497252 
L 288.36 286.327133 
L 291.403636 289.141839 
L 294.447273 291.943795 
L 297.490909 294.734538 
L 300.534545 297.515268 
L 303.578182 300.287106 
L 306.621818 303.051027 
L 309.665455 305.807622 
L 312.709091 308.556885 
L 315.752727 311.298219 
L 318.796364 314.030707 
L 321.84 316.75356 
L 324.883636 319.466565 
L 327.927273 322.170293 
L 330.970909 324.865992 
L 334.014545 327.55518 
L 337.058182 330.239161 
L 340.101818 332.918688 
L 343.145455 335.593927 
L 346.189091 338.264708 
L 349.232727 340.930882 
L 352.276364 343.592575 
L 355.32 346.250212 
L 358.363636 348.904329 
L 361.407273 351.555331 
L 364.450909 354.203325 
L 367.494545 356.848136 
L 370.538182 359.489429 
L 373.581818 362.126864 
" clip-path="url(#p1597a2ad29)" style="fill: none; stroke: #ff7f0e; stroke-width: 1.5; stroke-linecap: square"/>
   </g>
   <g id="patch_3">
    <path d="M 54 384.48 
L 54 51.84 
" style="fill: none; stroke: #000000; stroke-width: 0.8; stroke-linejoin: miter; stroke-linecap: square"/>
   </g>
   <g id="patch_4">
    <path d="M 388.8 384.48 
L 388.8 51.84 
" style="fill: none; stroke: #000000; stroke-width: 0.8; stroke-linejoin: miter; stroke-linecap: square"/>
   </g>
   <g id="patch_5">
    <path d="M 54 384.48 
L 388.8 384.48 
" style="fill: none; stroke: #000000; stroke-width: 0.8; stroke-linejoin: miter; stroke-linecap: square"/>
   </g>
   <g id="patch_6">
    <path d="M 54 51.84 
L 388.8 51.84 
" style="fill: none; stroke: #000000; stroke-width: 0.8; stroke-linejoin: miter; stroke-linecap: square"/>
   </g>
   <g id="text_12">
    <!-- Wilson action average with respect to $\beta$ -->
    <g transform="translate(102 45.84) scale(0.12 -0.12)">
     <defs>
      <path id="DejaVuSans-57" d="M 213 4666 
L 850 4666 
L 1831 722 
L 2809 4666 
L 3519 4666 
L 4500 722 
L 5478 4666 
L 6119 4666 
L 4947 0 
L 4153 0 
L 3169 4050 
L 2175 0 
L 1381 0 
L 213 4666 
z
" transform="scale(0.015625)"/>
      <path id="DejaVuSans-69" d="M 603 3500 
L 1178 3500 
L 1178 0 
L 603 0 
L 603 3500 
z
M 603 4863 
L 1178 4863 
L 1178 4134 
L 603 4134 
L 603 4863 
z
" transform="scale(0.015625)"/>
      <path id="DejaVuSans-6c" d="M 603 4863 
L 1178 4863 
L 1178 0 
L 603 0 
L 603 4863 
z
" transform="scale(0.015625)"/>
      <path id="DejaVuSans-73" d="M 2834 3397 
L 2834 2853 
Q 2591 2978 2328 3040 
Q 2066 3103 1784 3103 
Q 1356 3103 1142 2972 
Q 928 2841 928 2578 
Q 928 2378 1081 2264 
Q 1234 2150 1697 2047 
L 1894 2003 
Q 2506 1872 2764 1633 
Q 3022 1394 3022 966 
Q 3022 478 2636 193 
Q 2250 -91 1575 -91 
Q 1294 -91 989 -36 
Q 684 19 347 128 
L 347 722 
Q 666 556 975 473 
Q 1284 391 1588 391 
Q 1994 391 2212 530 
Q 2431 669 2431 922 
Q 2431 1156 2273 1281 
Q 2116 1406 1581 1522 
L 1381 1569 
Q 847 1681 609 1914 
Q 372 2147 372 2553 
Q 372 3047 722 3315 
Q 1072 3584 1716 3584 
Q 2034 3584 2315 3537 
Q 2597 3491 2834 3397 
z
" transform="scale(0.015625)"/>
      <path id="DejaVuSans-6f" d="M 1959 3097 
Q 1497 3097 1228 2736 
Q 959 2375 959 1747 
Q 959 1119 1226 758 
Q 1494 397 1959 397 
Q 2419 397 2687 759 
Q 2956 1122 2956 1747 
Q 2956 2369 2687 2733 
Q 2419 3097 1959 3097 
z
M 1959 3584 
Q 2709 3584 3137 3096 
Q 3566 2609 3566 1747 
Q 3566 888 3137 398 
Q 2709 -91 1959 -91 
Q 1206 -91 779 398 
Q 353 888 353 1747 
Q 353 2609 779 3096 
Q 1206 3584 1959 3584 
z
" transform="scale(0.015625)"/>
      <path id="DejaVuSans-6e" d="M 3513 2113 
L 3513 0 
L 2938 0 
L 2938 2094 
Q 2938 2591 2744 2837 
Q 2550 3084 2163 3084 
Q 1697 3084 1428 2787 
Q 1159 2491 1159 1978 
L 1159 0 
L 581 0 
L 581 3500 
L 1159 3500 
L 1159 2956 
Q 1366 3272 1645 3428 
Q 1925 3584 2291 3584 
Q 2894 3584 3203 3211 
Q 3513 2838 3513 2113 
z
" transform="scale(0.015625)"/>
      <path id="DejaVuSans-61" d="M 2194 1759 
Q 1497 1759 1228 1600 
Q 959 1441 959 1056 
Q 959 750 1161 570 
Q 1363 391 1709 391 
Q 2188 391 2477 730 
Q 2766 1069 2766 1631 
L 2766 1759 
L 2194 1759 
z
M 3341 1997 
L 3341 0 
L 2766 0 
L 2766 531 
Q 2569 213 2275 61 
Q 1981 -91 1556 -91 
Q 1019 -91 701 211 
Q 384 513 384 1019 
Q 384 1609 779 1909 
Q 1175 2209 1959 2209 
L 2766 2209 
L 2766 2266 
Q 2766 2663 2505 2880 
Q 2244 3097 1772 3097 
Q 1472 3097 1187 3025 
Q 903 2953 641 2809 
L 641 3341 
Q 956 3463 1253 3523 
Q 1550 3584 1831 3584 
Q 2591 3584 2966 3190 
Q 3341 2797 3341 1997 
z
" transform="scale(0.015625)"/>
      <path id="DejaVuSans-63" d="M 3122 3366 
L 3122 2828 
Q 2878 2963 2633 3030 
Q 2388 3097 2138 3097 
Q 1578 3097 1268 2742 
Q 959 2388 959 1747 
Q 959 1106 1268 751 
Q 1578 397 2138 397 
Q 2388 397 2633 464 
Q 2878 531 3122 666 
L 3122 134 
Q 2881 22 2623 -34 
Q 2366 -91 2075 -91 
Q 1284 -91 818 406 
Q 353 903 353 1747 
Q 353 2603 823 3093 
Q 1294 3584 2113 3584 
Q 2378 3584 2631 3529 
Q 2884 3475 3122 3366 
z
" transform="scale(0.015625)"/>
      <path id="DejaVuSans-74" d="M 1172 4494 
L 1172 3500 
L 2356 3500 
L 2356 3053 
L 1172 3053 
L 1172 1153 
Q 1172 725 1289 603 
Q 1406 481 1766 481 
L 2356 481 
L 2356 0 
L 1766 0 
Q 1100 0 847 248 
Q 594 497 594 1153 
L 594 3053 
L 172 3053 
L 172 3500 
L 594 3500 
L 594 4494 
L 1172 4494 
z
" transform="scale(0.015625)"/>
      <path id="DejaVuSans-76" d="M 191 3500 
L 800 3500 
L 1894 563 
L 2988 3500 
L 3597 3500 
L 2284 0 
L 1503 0 
L 191 3500 
z
" transform="scale(0.015625)"/>
      <path id="DejaVuSans-65" d="M 3597 1894 
L 3597 1613 
L 953 1613 
Q 991 1019 1311 708 
Q 1631 397 2203 397 
Q 2534 397 2845 478 
Q 3156 559 3463 722 
L 3463 178 
Q 3153 47 2828 -22 
Q 2503 -91 2169 -91 
Q 1331 -91 842 396 
Q 353 884 353 1716 
Q 353 2575 817 3079 
Q 1281 3584 2069 3584 
Q 2775 3584 3186 3129 
Q 3597 2675 3597 1894 
z
M 3022 2063 
Q 3016 2534 2758 2815 
Q 2500 3097 2075 3097 
Q 1594 3097 1305 2825 
Q 1016 2553 972 2059 
L 3022 2063 
z
" transform="scale(0.015625)"/>
      <path id="DejaVuSans-72" d="M 2631 2963 
Q 2534 3019 2420 3045 
Q 2306 3072 2169 3072 
Q 1681 3072 1420 2755 
Q 1159 2438 1159 1844 
L 1159 0 
L 581 0 
L 581 3500 
L 1159 3500 
L 1159 2956 
Q 1341 3275 1631 3429 
Q 1922 3584 2338 3584 
Q 2397 3584 2469 3576 
Q 2541 3569 2628 3553 
L 2631 2963 
z
" transform="scale(0.015625)"/>
      <path id="DejaVuSans-67" d="M 2906 1791 
Q 2906 2416 2648 2759 
Q 2391 3103 1925 3103 
Q 1463 3103 1205 2759 
Q 947 2416 947 1791 
Q 947 1169 1205 825 
Q 1463 481 1925 481 
Q 2391 481 2648 825 
Q 2906 1169 2906 1791 
z
M 3481 434 
Q 3481 -459 3084 -895 
Q 2688 -1331 1869 -1331 
Q 1566 -1331 1297 -1286 
Q 1028 -1241 775 -1147 
L 775 -588 
Q 1028 -725 1275 -790 
Q 1522 -856 1778 -856 
Q 2344 -856 2625 -561 
Q 2906 -266 2906 331 
L 2906 616 
Q 2728 306 2450 153 
Q 2172 0 1784 0 
Q 1141 0 747 490 
Q 353 981 353 1791 
Q 353 2603 747 3093 
Q 1141 3584 1784 3584 
Q 2172 3584 2450 3431 
Q 2728 3278 2906 2969 
L 2906 3500 
L 3481 3500 
L 3481 434 
z
" transform="scale(0.015625)"/>
      <path id="DejaVuSans-77" d="M 269 3500 
L 844 3500 
L 1563 769 
L 2278 3500 
L 2956 3500 
L 3675 769 
L 4391 3500 
L 4966 3500 
L 4050 0 
L 3372 0 
L 2619 2869 
L 1863 0 
L 1184 0 
L 269 3500 
z
" transform="scale(0.015625)"/>
      <path id="DejaVuSans-68" d="M 3513 2113 
L 3513 0 
L 2938 0 
L 2938 2094 
Q 2938 2591 2744 2837 
Q 2550 3084 2163 3084 
Q 1697 3084 1428 2787 
Q 1159 2491 1159 1978 
L 1159 0 
L 581 0 
L 581 4863 
L 1159 4863 
L 1159 2956 
Q 1366 3272 1645 3428 
Q 1925 3584 2291 3584 
Q 2894 3584 3203 3211 
Q 3513 2838 3513 2113 
z
" transform="scale(0.015625)"/>
      <path id="DejaVuSans-70" d="M 1159 525 
L 1159 -1331 
L 581 -1331 
L 581 3500 
L 1159 3500 
L 1159 2969 
Q 1341 3281 1617 3432 
Q 1894 3584 2278 3584 
Q 2916 3584 3314 3078 
Q 3713 2572 3713 1747 
Q 3713 922 3314 415 
Q 2916 -91 2278 -91 
Q 1894 -91 1617 61 
Q 1341 213 1159 525 
z
M 3116 1747 
Q 3116 2381 2855 2742 
Q 2594 3103 2138 3103 
Q 1681 3103 1420 2742 
Q 1159 2381 1159 1747 
Q 1159 1113 1420 752 
Q 1681 391 2138 391 
Q 2594 391 2855 752 
Q 3116 1113 3116 1747 
z
" transform="scale(0.015625)"/>
     </defs>
     <use xlink:href="#DejaVuSans-57" transform="translate(0 0.390625)"/>
     <use xlink:href="#DejaVuSans-69" transform="translate(98.876953 0.390625)"/>
     <use xlink:href="#DejaVuSans-6c" transform="translate(126.660156 0.390625)"/>
     <use xlink:href="#DejaVuSans-73" transform="translate(154.443359 0.390625)"/>
     <use xlink:href="#DejaVuSans-6f" transform="translate(206.542969 0.390625)"/>
     <use xlink:href="#DejaVuSans-6e" transform="translate(267.724609 0.390625)"/>
     <use xlink:href="#DejaVuSans-20" transform="translate(331.103516 0.390625)"/>
     <use xlink:href="#DejaVuSans-61" transform="translate(362.890625 0.390625)"/>
     <use xlink:href="#DejaVuSans-63" transform="translate(424.169922 0.390625)"/>
     <use xlink:href="#DejaVuSans-74" transform="translate(479.150391 0.390625)"/>
     <use xlink:href="#DejaVuSans-69" transform="translate(518.359375 0.390625)"/>
     <use xlink:href="#DejaVuSans-6f" transform="translate(546.142578 0.390625)"/>
     <use xlink:href="#DejaVuSans-6e" transform="translate(607.324219 0.390625)"/>
     <use xlink:href="#DejaVuSans-20" transform="translate(670.703125 0.390625)"/>
     <use xlink:href="#DejaVuSans-61" transform="translate(702.490234 0.390625)"/>
     <use xlink:href="#DejaVuSans-76" transform="translate(763.769531 0.390625)"/>
     <use xlink:href="#DejaVuSans-65" transform="translate(822.949219 0.390625)"/>
     <use xlink:href="#DejaVuSans-72" transform="translate(884.472656 0.390625)"/>
     <use xlink:href="#DejaVuSans-61" transform="translate(925.585938 0.390625)"/>
     <use xlink:href="#DejaVuSans-67" transform="translate(986.865234 0.390625)"/>
     <use xlink:href="#DejaVuSans-65" transform="translate(1050.341797 0.390625)"/>
     <use xlink:href="#DejaVuSans-20" transform="translate(1111.865234 0.390625)"/>
     <use xlink:href="#DejaVuSans-77" transform="translate(1143.652344 0.390625)"/>
     <use xlink:href="#DejaVuSans-69" transform="translate(1225.439453 0.390625)"/>
     <use xlink:href="#DejaVuSans-74" transform="translate(1253.222656 0.390625)"/>
     <use xlink:href="#DejaVuSans-68" transform="translate(1292.431641 0.390625)"/>
     <use xlink:href="#DejaVuSans-20" transform="translate(1355.810547 0.390625)"/>
     <use xlink:href="#DejaVuSans-72" transform="translate(1387.597656 0.390625)"/>
     <use xlink:href="#DejaVuSans-65" transform="translate(1428.710938 0.390625)"/>
     <use xlink:href="#DejaVuSans-73" transform="translate(1490.234375 0.390625)"/>
     <use xlink:href="#DejaVuSans-70" transform="translate(1542.333984 0.390625)"/>
     <use xlink:href="#DejaVuSans-65" transform="translate(1605.810547 0.390625)"/>
     <use xlink:href="#DejaVuSans-63" transform="translate(1667.333984 0.390625)"/>
     <use xlink:href="#DejaVuSans-74" transform="translate(1722.314453 0.390625)"/>
     <use xlink:href="#DejaVuSans-20" transform="translate(1761.523438 0.390625)"/>
     <use xlink:href="#DejaVuSans-74" transform="translate(1793.310547 0.390625)"/>
     <use xlink:href="#DejaVuSans-6f" transform="translate(1832.519531 0.390625)"/>
     <use xlink:href="#DejaVuSans-20" transform="translate(1893.701172 0.390625)"/>
     <use xlink:href="#DejaVuSans-Oblique-3b2" transform="translate(1925.488281 0.390625)"/>
    </g>
   </g>
   <g id="legend_1">
    <g id="patch_7">
     <path d="M 313.3375 235.9775 
L 381.8 235.9775 
Q 383.8 235.9775 383.8 233.9775 
L 383.8 58.84 
Q 383.8 56.84 381.8 56.84 
L 313.3375 56.84 
Q 311.3375 56.84 311.3375 58.84 
L 311.3375 233.9775 
Q 311.3375 235.9775 313.3375 235.9775 
z
" style="fill: #ffffff; opacity: 0.8; stroke: #cccccc; stroke-linejoin: miter"/>
    </g>
    <g id="line2d_22">
     <path d="M 315.3375 64.938437 
L 325.3375 64.938437 
L 335.3375 64.938437 
" style="fill: none; stroke-dasharray: 1.5,2.475; stroke-dashoffset: 0; stroke: #1f77b4; stroke-width: 1.5"/>
    </g>
    <g id="text_13">
     <!-- 0 -->
     <g transform="translate(343.3375 68.438437) scale(0.1 -0.1)">
      <use xlink:href="#DejaVuSans-30"/>
     </g>
    </g>
    <g id="line2d_23">
     <path d="M 315.3375 79.616562 
L 325.3375 79.616562 
L 335.3375 79.616562 
" style="fill: none; stroke-dasharray: 1.5,2.475; stroke-dashoffset: 0; stroke: #ff7f0e; stroke-width: 1.5"/>
    </g>
    <g id="text_14">
     <!-- 1 -->
     <g transform="translate(343.3375 83.116562) scale(0.1 -0.1)">
      <use xlink:href="#DejaVuSans-31"/>
     </g>
    </g>
    <g id="line2d_24">
     <path d="M 315.3375 94.294688 
L 325.3375 94.294688 
L 335.3375 94.294688 
" style="fill: none; stroke-dasharray: 1.5,2.475; stroke-dashoffset: 0; stroke: #2ca02c; stroke-width: 1.5"/>
    </g>
    <g id="text_15">
     <!-- 2 -->
     <g transform="translate(343.3375 97.794688) scale(0.1 -0.1)">
      <use xlink:href="#DejaVuSans-32"/>
     </g>
    </g>
    <g id="line2d_25">
     <path d="M 315.3375 108.972812 
L 325.3375 108.972812 
L 335.3375 108.972812 
" style="fill: none; stroke-dasharray: 1.5,2.475; stroke-dashoffset: 0; stroke: #d62728; stroke-width: 1.5"/>
    </g>
    <g id="text_16">
     <!-- 3 -->
     <g transform="translate(343.3375 112.472812) scale(0.1 -0.1)">
      <use xlink:href="#DejaVuSans-33"/>
     </g>
    </g>
    <g id="line2d_26">
     <path d="M 315.3375 123.650937 
L 325.3375 123.650937 
L 335.3375 123.650937 
" style="fill: none; stroke-dasharray: 1.5,2.475; stroke-dashoffset: 0; stroke: #9467bd; stroke-width: 1.5"/>
    </g>
    <g id="text_17">
     <!-- 4 -->
     <g transform="translate(343.3375 127.150937) scale(0.1 -0.1)">
      <use xlink:href="#DejaVuSans-34"/>
     </g>
    </g>
    <g id="line2d_27">
     <path d="M 315.3375 138.329062 
L 325.3375 138.329062 
L 335.3375 138.329062 
" style="fill: none; stroke: #8c564b; stroke-width: 1.5; stroke-linecap: square"/>
    </g>
    <g id="text_18">
     <!-- notwist -->
     <g transform="translate(343.3375 141.829062) scale(0.1 -0.1)">
      <use xlink:href="#DejaVuSans-6e"/>
      <use xlink:href="#DejaVuSans-6f" x="63.378906"/>
      <use xlink:href="#DejaVuSans-74" x="124.560547"/>
      <use xlink:href="#DejaVuSans-77" x="163.769531"/>
      <use xlink:href="#DejaVuSans-69" x="245.556641"/>
      <use xlink:href="#DejaVuSans-73" x="273.339844"/>
      <use xlink:href="#DejaVuSans-74" x="325.439453"/>
     </g>
    </g>
    <g id="line2d_28">
     <path d="M 315.3375 153.007187 
L 325.3375 153.007187 
L 335.3375 153.007187 
" style="fill: none; stroke-dasharray: 1.5,2.475; stroke-dashoffset: 0; stroke: #e377c2; stroke-width: 1.5"/>
    </g>
    <g id="text_19">
     <!-- 0 -->
     <g transform="translate(343.3375 156.507187) scale(0.1 -0.1)">
      <use xlink:href="#DejaVuSans-30"/>
     </g>
    </g>
    <g id="line2d_29">
     <path d="M 315.3375 167.685312 
L 325.3375 167.685312 
L 335.3375 167.685312 
" style="fill: none; stroke-dasharray: 1.5,2.475; stroke-dashoffset: 0; stroke: #7f7f7f; stroke-width: 1.5"/>
    </g>
    <g id="text_20">
     <!-- 1 -->
     <g transform="translate(343.3375 171.185312) scale(0.1 -0.1)">
      <use xlink:href="#DejaVuSans-31"/>
     </g>
    </g>
    <g id="line2d_30">
     <path d="M 315.3375 182.363437 
L 325.3375 182.363437 
L 335.3375 182.363437 
" style="fill: none; stroke-dasharray: 1.5,2.475; stroke-dashoffset: 0; stroke: #bcbd22; stroke-width: 1.5"/>
    </g>
    <g id="text_21">
     <!-- 2 -->
     <g transform="translate(343.3375 185.863437) scale(0.1 -0.1)">
      <use xlink:href="#DejaVuSans-32"/>
     </g>
    </g>
    <g id="line2d_31">
     <path d="M 315.3375 197.041562 
L 325.3375 197.041562 
L 335.3375 197.041562 
" style="fill: none; stroke-dasharray: 1.5,2.475; stroke-dashoffset: 0; stroke: #17becf; stroke-width: 1.5"/>
    </g>
    <g id="text_22">
     <!-- 3 -->
     <g transform="translate(343.3375 200.541562) scale(0.1 -0.1)">
      <use xlink:href="#DejaVuSans-33"/>
     </g>
    </g>
    <g id="line2d_32">
     <path d="M 315.3375 211.719687 
L 325.3375 211.719687 
L 335.3375 211.719687 
" style="fill: none; stroke-dasharray: 1.5,2.475; stroke-dashoffset: 0; stroke: #1f77b4; stroke-width: 1.5"/>
    </g>
    <g id="text_23">
     <!-- 4 -->
     <g transform="translate(343.3375 215.219687) scale(0.1 -0.1)">
      <use xlink:href="#DejaVuSans-34"/>
     </g>
    </g>
    <g id="line2d_33">
     <path d="M 315.3375 226.397812 
L 325.3375 226.397812 
L 335.3375 226.397812 
" style="fill: none; stroke: #ff7f0e; stroke-width: 1.5; stroke-linecap: square"/>
    </g>
    <g id="text_24">
     <!-- twist -->
     <g transform="translate(343.3375 229.897812) scale(0.1 -0.1)">
      <use xlink:href="#DejaVuSans-74"/>
      <use xlink:href="#DejaVuSans-77" x="39.208984"/>
      <use xlink:href="#DejaVuSans-69" x="120.996094"/>
      <use xlink:href="#DejaVuSans-73" x="148.779297"/>
      <use xlink:href="#DejaVuSans-74" x="200.878906"/>
     </g>
    </g>
   </g>
  </g>
  <g id="text_25">
   <!-- Twist coefficients 0 and 1. N=5 Jackknife bins -->
   <g transform="translate(43.2 432) scale(0.1 -0.1)">
    <defs>
     <path id="DejaVuSans-Oblique-54" d="M 378 4666 
L 4325 4666 
L 4225 4134 
L 2559 4134 
L 1759 0 
L 1125 0 
L 1925 4134 
L 275 4134 
L 378 4666 
z
" transform="scale(0.015625)"/>
     <path id="DejaVuSans-Oblique-77" d="M 544 3500 
L 1113 3500 
L 1259 684 
L 2566 3500 
L 3231 3500 
L 3425 684 
L 4666 3500 
L 5241 3500 
L 3641 0 
L 2969 0 
L 2797 2900 
L 1459 0 
L 781 0 
L 544 3500 
z
" transform="scale(0.015625)"/>
     <path id="DejaVuSans-Oblique-69" d="M 1172 4863 
L 1747 4863 
L 1606 4134 
L 1031 4134 
L 1172 4863 
z
M 909 3500 
L 1484 3500 
L 800 0 
L 225 0 
L 909 3500 
z
" transform="scale(0.015625)"/>
     <path id="DejaVuSans-Oblique-73" d="M 3200 3397 
L 3091 2853 
Q 2863 2978 2609 3040 
Q 2356 3103 2088 3103 
Q 1634 3103 1373 2948 
Q 1113 2794 1113 2528 
Q 1113 2219 1719 2053 
Q 1766 2041 1788 2034 
L 1972 1978 
Q 2547 1819 2739 1644 
Q 2931 1469 2931 1166 
Q 2931 609 2489 259 
Q 2047 -91 1331 -91 
Q 1053 -91 747 -37 
Q 441 16 72 128 
L 184 722 
Q 500 559 806 475 
Q 1113 391 1394 391 
Q 1816 391 2080 572 
Q 2344 753 2344 1031 
Q 2344 1331 1650 1516 
L 1591 1531 
L 1394 1581 
Q 956 1697 753 1886 
Q 550 2075 550 2369 
Q 550 2928 970 3256 
Q 1391 3584 2113 3584 
Q 2397 3584 2667 3537 
Q 2938 3491 3200 3397 
z
" transform="scale(0.015625)"/>
     <path id="DejaVuSans-Oblique-74" d="M 2706 3500 
L 2619 3053 
L 1472 3053 
L 1100 1153 
Q 1081 1047 1072 975 
Q 1063 903 1063 863 
Q 1063 663 1183 572 
Q 1303 481 1569 481 
L 2150 481 
L 2053 0 
L 1503 0 
Q 991 0 739 200 
Q 488 400 488 806 
Q 488 878 497 964 
Q 506 1050 525 1153 
L 897 3053 
L 409 3053 
L 500 3500 
L 978 3500 
L 1172 4494 
L 1747 4494 
L 1556 3500 
L 2706 3500 
z
" transform="scale(0.015625)"/>
     <path id="DejaVuSans-Oblique-20" transform="scale(0.015625)"/>
     <path id="DejaVuSans-Oblique-63" d="M 3431 3366 
L 3316 2797 
Q 3109 2947 2876 3022 
Q 2644 3097 2394 3097 
Q 2119 3097 1870 3000 
Q 1622 2903 1453 2725 
Q 1184 2453 1037 2087 
Q 891 1722 891 1331 
Q 891 859 1127 628 
Q 1363 397 1844 397 
Q 2081 397 2348 469 
Q 2616 541 2906 684 
L 2797 116 
Q 2547 13 2283 -39 
Q 2019 -91 1741 -91 
Q 1044 -91 669 257 
Q 294 606 294 1253 
Q 294 1797 489 2255 
Q 684 2713 1069 3078 
Q 1331 3328 1684 3456 
Q 2038 3584 2456 3584 
Q 2700 3584 2940 3529 
Q 3181 3475 3431 3366 
z
" transform="scale(0.015625)"/>
     <path id="DejaVuSans-Oblique-6f" d="M 1625 -91 
Q 1009 -91 651 289 
Q 294 669 294 1325 
Q 294 1706 417 2101 
Q 541 2497 738 2766 
Q 1047 3184 1428 3384 
Q 1809 3584 2291 3584 
Q 2888 3584 3255 3212 
Q 3622 2841 3622 2241 
Q 3622 1825 3500 1412 
Q 3378 1000 3181 728 
Q 2875 309 2494 109 
Q 2113 -91 1625 -91 
z
M 891 1344 
Q 891 869 1089 633 
Q 1288 397 1691 397 
Q 2269 397 2648 901 
Q 3028 1406 3028 2181 
Q 3028 2634 2825 2865 
Q 2622 3097 2228 3097 
Q 1903 3097 1650 2945 
Q 1397 2794 1197 2484 
Q 1050 2253 970 1956 
Q 891 1659 891 1344 
z
" transform="scale(0.015625)"/>
     <path id="DejaVuSans-Oblique-65" d="M 3078 2063 
Q 3088 2113 3092 2166 
Q 3097 2219 3097 2272 
Q 3097 2653 2873 2875 
Q 2650 3097 2266 3097 
Q 1838 3097 1509 2826 
Q 1181 2556 1013 2059 
L 3078 2063 
z
M 3578 1613 
L 903 1613 
Q 884 1494 878 1425 
Q 872 1356 872 1306 
Q 872 872 1139 634 
Q 1406 397 1894 397 
Q 2269 397 2603 481 
Q 2938 566 3225 728 
L 3116 159 
Q 2806 34 2476 -28 
Q 2147 -91 1806 -91 
Q 1078 -91 686 257 
Q 294 606 294 1247 
Q 294 1794 489 2264 
Q 684 2734 1063 3103 
Q 1306 3334 1642 3459 
Q 1978 3584 2356 3584 
Q 2950 3584 3301 3228 
Q 3653 2872 3653 2272 
Q 3653 2128 3634 1964 
Q 3616 1800 3578 1613 
z
" transform="scale(0.015625)"/>
     <path id="DejaVuSans-Oblique-66" d="M 3059 4863 
L 2969 4384 
L 2419 4384 
Q 2106 4384 1964 4261 
Q 1822 4138 1753 3809 
L 1691 3500 
L 2638 3500 
L 2553 3053 
L 1606 3053 
L 1013 0 
L 434 0 
L 1031 3053 
L 481 3053 
L 563 3500 
L 1113 3500 
L 1159 3744 
Q 1278 4363 1576 4613 
Q 1875 4863 2516 4863 
L 3059 4863 
z
" transform="scale(0.015625)"/>
     <path id="DejaVuSans-Oblique-6e" d="M 3566 2113 
L 3156 0 
L 2578 0 
L 2988 2091 
Q 3016 2238 3031 2350 
Q 3047 2463 3047 2528 
Q 3047 2791 2881 2937 
Q 2716 3084 2419 3084 
Q 1956 3084 1622 2776 
Q 1288 2469 1184 1941 
L 800 0 
L 225 0 
L 903 3500 
L 1478 3500 
L 1363 2950 
Q 1603 3253 1940 3418 
Q 2278 3584 2650 3584 
Q 3113 3584 3367 3334 
Q 3622 3084 3622 2631 
Q 3622 2519 3608 2391 
Q 3594 2263 3566 2113 
z
" transform="scale(0.015625)"/>
     <path id="DejaVuSans-Oblique-30" d="M 2444 4750 
Q 3078 4750 3414 4328 
Q 3750 3906 3750 3116 
Q 3750 2516 3592 1923 
Q 3434 1331 3150 863 
Q 2859 394 2467 151 
Q 2075 -91 1600 -91 
Q 988 -91 653 334 
Q 319 759 319 1544 
Q 319 2138 480 2733 
Q 641 3328 928 3794 
Q 1216 4263 1602 4506 
Q 1988 4750 2444 4750 
z
M 2406 4250 
Q 2169 4250 1955 4123 
Q 1741 3997 1569 3750 
Q 1281 3338 1111 2720 
Q 941 2103 941 1453 
Q 941 938 1123 673 
Q 1306 409 1663 409 
Q 1913 409 2125 536 
Q 2338 663 2509 909 
Q 2794 1319 2961 1936 
Q 3128 2553 3128 3206 
Q 3128 3722 2945 3986 
Q 2763 4250 2406 4250 
z
" transform="scale(0.015625)"/>
     <path id="DejaVuSans-Oblique-61" d="M 3438 1997 
L 3047 0 
L 2472 0 
L 2578 531 
Q 2325 219 2001 64 
Q 1678 -91 1281 -91 
Q 834 -91 548 182 
Q 263 456 263 884 
Q 263 1497 752 1853 
Q 1241 2209 2100 2209 
L 2900 2209 
L 2931 2363 
Q 2938 2388 2941 2417 
Q 2944 2447 2944 2509 
Q 2944 2788 2717 2942 
Q 2491 3097 2081 3097 
Q 1800 3097 1504 3025 
Q 1209 2953 897 2809 
L 997 3341 
Q 1322 3463 1633 3523 
Q 1944 3584 2234 3584 
Q 2853 3584 3176 3315 
Q 3500 3047 3500 2534 
Q 3500 2431 3484 2292 
Q 3469 2153 3438 1997 
z
M 2816 1759 
L 2241 1759 
Q 1534 1759 1195 1570 
Q 856 1381 856 984 
Q 856 709 1029 553 
Q 1203 397 1509 397 
Q 1978 397 2328 733 
Q 2678 1069 2791 1631 
L 2816 1759 
z
" transform="scale(0.015625)"/>
     <path id="DejaVuSans-Oblique-64" d="M 2675 525 
Q 2444 222 2128 65 
Q 1813 -91 1428 -91 
Q 903 -91 598 267 
Q 294 625 294 1247 
Q 294 1766 478 2236 
Q 663 2706 1013 3078 
Q 1244 3325 1534 3454 
Q 1825 3584 2144 3584 
Q 2481 3584 2739 3421 
Q 2997 3259 3138 2956 
L 3513 4863 
L 4091 4863 
L 3144 0 
L 2566 0 
L 2675 525 
z
M 891 1350 
Q 891 897 1095 644 
Q 1300 391 1663 391 
Q 1931 391 2161 520 
Q 2391 650 2566 903 
Q 2750 1166 2856 1509 
Q 2963 1853 2963 2188 
Q 2963 2622 2758 2865 
Q 2553 3109 2194 3109 
Q 1922 3109 1687 2981 
Q 1453 2853 1288 2613 
Q 1106 2353 998 2009 
Q 891 1666 891 1350 
z
" transform="scale(0.015625)"/>
     <path id="DejaVuSans-Oblique-31" d="M 416 531 
L 1447 531 
L 2144 4122 
L 978 3897 
L 1088 4441 
L 2247 4666 
L 2881 4666 
L 2075 531 
L 3103 531 
L 3003 0 
L 313 0 
L 416 531 
z
" transform="scale(0.015625)"/>
     <path id="DejaVuSans-Oblique-2e" d="M 525 794 
L 1184 794 
L 1031 0 
L 372 0 
L 525 794 
z
" transform="scale(0.015625)"/>
     <path id="DejaVuSans-Oblique-4e" d="M 1081 4666 
L 1931 4666 
L 3219 666 
L 4000 4666 
L 4616 4666 
L 3706 0 
L 2853 0 
L 1569 4025 
L 788 0 
L 172 0 
L 1081 4666 
z
" transform="scale(0.015625)"/>
     <path id="DejaVuSans-Oblique-3d" d="M 678 2906 
L 4684 2906 
L 4684 2381 
L 678 2381 
L 678 2906 
z
M 678 1631 
L 4684 1631 
L 4684 1100 
L 678 1100 
L 678 1631 
z
" transform="scale(0.015625)"/>
     <path id="DejaVuSans-Oblique-35" d="M 3719 4666 
L 3622 4141 
L 1691 4141 
L 1466 2988 
Q 1609 3034 1757 3056 
Q 1906 3078 2059 3078 
Q 2706 3078 3081 2731 
Q 3456 2384 3456 1791 
Q 3456 1375 3264 994 
Q 3072 613 2719 325 
Q 2469 125 2108 17 
Q 1747 -91 1319 -91 
Q 1038 -91 744 -41 
Q 450 9 128 109 
L 244 697 
Q 531 556 820 486 
Q 1109 416 1403 416 
Q 2013 416 2411 781 
Q 2809 1147 2809 1697 
Q 2809 2103 2548 2328 
Q 2288 2553 1819 2553 
Q 1572 2553 1305 2495 
Q 1038 2438 756 2322 
L 1209 4666 
L 3719 4666 
z
" transform="scale(0.015625)"/>
     <path id="DejaVuSans-Oblique-4a" d="M 1069 4666 
L 1703 4666 
L 856 325 
Q 691 -522 298 -901 
Q -94 -1281 -800 -1281 
L -1050 -1281 
L -947 -750 
L -750 -750 
Q -328 -750 -109 -509 
Q 109 -269 225 325 
L 1069 4666 
z
" transform="scale(0.015625)"/>
     <path id="DejaVuSans-Oblique-6b" d="M 1172 4863 
L 1747 4863 
L 1197 2028 
L 3169 3500 
L 3916 3500 
L 1716 1825 
L 3322 0 
L 2625 0 
L 1131 1709 
L 800 0 
L 225 0 
L 1172 4863 
z
" transform="scale(0.015625)"/>
     <path id="DejaVuSans-Oblique-62" d="M 3169 2138 
Q 3169 2591 2961 2847 
Q 2753 3103 2388 3103 
Q 2122 3103 1889 2973 
Q 1656 2844 1484 2597 
Q 1303 2338 1198 1995 
Q 1094 1653 1094 1313 
Q 1094 881 1298 636 
Q 1503 391 1863 391 
Q 2134 391 2365 517 
Q 2597 644 2772 891 
Q 2950 1147 3059 1487 
Q 3169 1828 3169 2138 
z
M 1381 2969 
Q 1594 3256 1914 3420 
Q 2234 3584 2584 3584 
Q 3122 3584 3439 3221 
Q 3756 2859 3756 2241 
Q 3756 1734 3570 1259 
Q 3384 784 3041 416 
Q 2816 172 2522 40 
Q 2228 -91 1906 -91 
Q 1566 -91 1316 65 
Q 1066 222 909 531 
L 806 0 
L 231 0 
L 1178 4863 
L 1753 4863 
L 1381 2969 
z
" transform="scale(0.015625)"/>
    </defs>
    <use xlink:href="#DejaVuSans-Oblique-54"/>
    <use xlink:href="#DejaVuSans-Oblique-77" x="52.958984"/>
    <use xlink:href="#DejaVuSans-Oblique-69" x="134.746094"/>
    <use xlink:href="#DejaVuSans-Oblique-73" x="162.529297"/>
    <use xlink:href="#DejaVuSans-Oblique-74" x="214.628906"/>
    <use xlink:href="#DejaVuSans-Oblique-20" x="253.837891"/>
    <use xlink:href="#DejaVuSans-Oblique-63" x="285.625"/>
    <use xlink:href="#DejaVuSans-Oblique-6f" x="340.605469"/>
    <use xlink:href="#DejaVuSans-Oblique-65" x="401.787109"/>
    <use xlink:href="#DejaVuSans-Oblique-66" x="463.310547"/>
    <use xlink:href="#DejaVuSans-Oblique-66" x="498.515625"/>
    <use xlink:href="#DejaVuSans-Oblique-69" x="533.720703"/>
    <use xlink:href="#DejaVuSans-Oblique-63" x="561.503906"/>
    <use xlink:href="#DejaVuSans-Oblique-69" x="616.484375"/>
    <use xlink:href="#DejaVuSans-Oblique-65" x="644.267578"/>
    <use xlink:href="#DejaVuSans-Oblique-6e" x="705.791016"/>
    <use xlink:href="#DejaVuSans-Oblique-74" x="769.169922"/>
    <use xlink:href="#DejaVuSans-Oblique-73" x="808.378906"/>
    <use xlink:href="#DejaVuSans-Oblique-20" x="860.478516"/>
    <use xlink:href="#DejaVuSans-Oblique-30" x="892.265625"/>
    <use xlink:href="#DejaVuSans-Oblique-20" x="955.888672"/>
    <use xlink:href="#DejaVuSans-Oblique-61" x="987.675781"/>
    <use xlink:href="#DejaVuSans-Oblique-6e" x="1048.955078"/>
    <use xlink:href="#DejaVuSans-Oblique-64" x="1112.333984"/>
    <use xlink:href="#DejaVuSans-Oblique-20" x="1175.810547"/>
    <use xlink:href="#DejaVuSans-Oblique-31" x="1207.597656"/>
    <use xlink:href="#DejaVuSans-Oblique-2e" x="1271.220703"/>
    <use xlink:href="#DejaVuSans-Oblique-20" x="1303.007812"/>
    <use xlink:href="#DejaVuSans-Oblique-4e" x="1334.794922"/>
    <use xlink:href="#DejaVuSans-Oblique-3d" x="1409.599609"/>
    <use xlink:href="#DejaVuSans-Oblique-35" x="1493.388672"/>
    <use xlink:href="#DejaVuSans-Oblique-20" x="1557.011719"/>
    <use xlink:href="#DejaVuSans-Oblique-4a" x="1588.798828"/>
    <use xlink:href="#DejaVuSans-Oblique-61" x="1618.291016"/>
    <use xlink:href="#DejaVuSans-Oblique-63" x="1679.570312"/>
    <use xlink:href="#DejaVuSans-Oblique-6b" x="1734.550781"/>
    <use xlink:href="#DejaVuSans-Oblique-6b" x="1792.460938"/>
    <use xlink:href="#DejaVuSans-Oblique-6e" x="1850.371094"/>
    <use xlink:href="#DejaVuSans-Oblique-69" x="1913.75"/>
    <use xlink:href="#DejaVuSans-Oblique-66" x="1941.533203"/>
    <use xlink:href="#DejaVuSans-Oblique-65" x="1976.738281"/>
    <use xlink:href="#DejaVuSans-Oblique-20" x="2038.261719"/>
    <use xlink:href="#DejaVuSans-Oblique-62" x="2070.048828"/>
    <use xlink:href="#DejaVuSans-Oblique-69" x="2133.525391"/>
    <use xlink:href="#DejaVuSans-Oblique-6e" x="2161.308594"/>
    <use xlink:href="#DejaVuSans-Oblique-73" x="2224.6875"/>
   </g>
  </g>
 </g>
 <defs>
  <clipPath id="p1597a2ad29">
   <rect x="54" y="51.84" width="334.8" height="332.64"/>
  </clipPath>
 </defs>
</svg>
