<?xml version="1.0" encoding="utf-8" standalone="no"?>
<!DOCTYPE svg PUBLIC "-//W3C//DTD SVG 1.1//EN"
  "http://www.w3.org/Graphics/SVG/1.1/DTD/svg11.dtd">
<svg xmlns:xlink="http://www.w3.org/1999/xlink" width="451.272187pt" height="337.087656pt" viewBox="0 0 451.272187 337.087656" xmlns="http://www.w3.org/2000/svg" version="1.1">
 <metadata>
  <rdf:RDF xmlns:dc="http://purl.org/dc/elements/1.1/" xmlns:cc="http://creativecommons.org/ns#" xmlns:rdf="http://www.w3.org/1999/02/22-rdf-syntax-ns#">
   <cc:Work>
    <dc:type rdf:resource="http://purl.org/dc/dcmitype/StillImage"/>
    <dc:date>2024-05-10T14:33:32.086608</dc:date>
    <dc:format>image/svg+xml</dc:format>
    <dc:creator>
     <cc:Agent>
      <dc:title>Matplotlib v3.8.0, https://matplotlib.org/</dc:title>
     </cc:Agent>
    </dc:creator>
   </cc:Work>
  </rdf:RDF>
 </metadata>
 <defs>
  <style type="text/css">*{stroke-linejoin: round; stroke-linecap: butt}</style>
 </defs>
 <g id="figure_1">
  <g id="patch_1">
   <path d="M 0 337.087656 
L 451.272187 337.087656 
L 451.272187 0 
L 0 0 
z
" style="fill: #ffffff"/>
  </g>
  <g id="axes_1">
   <g id="patch_2">
    <path d="M 53.472188 284.4 
L 444.072188 284.4 
L 444.072188 7.2 
L 53.472188 7.2 
z
" style="fill: #ffffff"/>
   </g>
   <g id="matplotlib.axis_1">
    <g id="xtick_1">
     <g id="line2d_1">
      <defs>
       <path id="med346ea344" d="M 0 0 
L 0 3.5 
" style="stroke: #000000; stroke-width: 0.8"/>
      </defs>
      <g>
       <use xlink:href="#med346ea344" x="71.226733" y="284.4" style="stroke: #000000; stroke-width: 0.8"/>
      </g>
     </g>
     <g id="text_1">
      <!-- 5.06 -->
      <g transform="translate(58.980639 299.758281) scale(0.11 -0.11)">
       <defs>
        <path id="DejaVuSans-35" d="M 691 4666 
L 3169 4666 
L 3169 4134 
L 1269 4134 
L 1269 2991 
Q 1406 3038 1543 3061 
Q 1681 3084 1819 3084 
Q 2600 3084 3056 2656 
Q 3513 2228 3513 1497 
Q 3513 744 3044 326 
Q 2575 -91 1722 -91 
Q 1428 -91 1123 -41 
Q 819 9 494 109 
L 494 744 
Q 775 591 1075 516 
Q 1375 441 1709 441 
Q 2250 441 2565 725 
Q 2881 1009 2881 1497 
Q 2881 1984 2565 2268 
Q 2250 2553 1709 2553 
Q 1456 2553 1204 2497 
Q 953 2441 691 2322 
L 691 4666 
z
" transform="scale(0.015625)"/>
        <path id="DejaVuSans-2e" d="M 684 794 
L 1344 794 
L 1344 0 
L 684 0 
L 684 794 
z
" transform="scale(0.015625)"/>
        <path id="DejaVuSans-30" d="M 2034 4250 
Q 1547 4250 1301 3770 
Q 1056 3291 1056 2328 
Q 1056 1369 1301 889 
Q 1547 409 2034 409 
Q 2525 409 2770 889 
Q 3016 1369 3016 2328 
Q 3016 3291 2770 3770 
Q 2525 4250 2034 4250 
z
M 2034 4750 
Q 2819 4750 3233 4129 
Q 3647 3509 3647 2328 
Q 3647 1150 3233 529 
Q 2819 -91 2034 -91 
Q 1250 -91 836 529 
Q 422 1150 422 2328 
Q 422 3509 836 4129 
Q 1250 4750 2034 4750 
z
" transform="scale(0.015625)"/>
        <path id="DejaVuSans-36" d="M 2113 2584 
Q 1688 2584 1439 2293 
Q 1191 2003 1191 1497 
Q 1191 994 1439 701 
Q 1688 409 2113 409 
Q 2538 409 2786 701 
Q 3034 994 3034 1497 
Q 3034 2003 2786 2293 
Q 2538 2584 2113 2584 
z
M 3366 4563 
L 3366 3988 
Q 3128 4100 2886 4159 
Q 2644 4219 2406 4219 
Q 1781 4219 1451 3797 
Q 1122 3375 1075 2522 
Q 1259 2794 1537 2939 
Q 1816 3084 2150 3084 
Q 2853 3084 3261 2657 
Q 3669 2231 3669 1497 
Q 3669 778 3244 343 
Q 2819 -91 2113 -91 
Q 1303 -91 875 529 
Q 447 1150 447 2328 
Q 447 3434 972 4092 
Q 1497 4750 2381 4750 
Q 2619 4750 2861 4703 
Q 3103 4656 3366 4563 
z
" transform="scale(0.015625)"/>
       </defs>
       <use xlink:href="#DejaVuSans-35"/>
       <use xlink:href="#DejaVuSans-2e" x="63.623047"/>
       <use xlink:href="#DejaVuSans-30" x="95.410156"/>
       <use xlink:href="#DejaVuSans-36" x="159.033203"/>
      </g>
     </g>
    </g>
    <g id="xtick_2">
     <g id="line2d_2">
      <g>
       <use xlink:href="#med346ea344" x="130.905877" y="284.4" style="stroke: #000000; stroke-width: 0.8"/>
      </g>
     </g>
     <g id="text_2">
      <!-- 5.08 -->
      <g transform="translate(118.659784 299.758281) scale(0.11 -0.11)">
       <defs>
        <path id="DejaVuSans-38" d="M 2034 2216 
Q 1584 2216 1326 1975 
Q 1069 1734 1069 1313 
Q 1069 891 1326 650 
Q 1584 409 2034 409 
Q 2484 409 2743 651 
Q 3003 894 3003 1313 
Q 3003 1734 2745 1975 
Q 2488 2216 2034 2216 
z
M 1403 2484 
Q 997 2584 770 2862 
Q 544 3141 544 3541 
Q 544 4100 942 4425 
Q 1341 4750 2034 4750 
Q 2731 4750 3128 4425 
Q 3525 4100 3525 3541 
Q 3525 3141 3298 2862 
Q 3072 2584 2669 2484 
Q 3125 2378 3379 2068 
Q 3634 1759 3634 1313 
Q 3634 634 3220 271 
Q 2806 -91 2034 -91 
Q 1263 -91 848 271 
Q 434 634 434 1313 
Q 434 1759 690 2068 
Q 947 2378 1403 2484 
z
M 1172 3481 
Q 1172 3119 1398 2916 
Q 1625 2713 2034 2713 
Q 2441 2713 2670 2916 
Q 2900 3119 2900 3481 
Q 2900 3844 2670 4047 
Q 2441 4250 2034 4250 
Q 1625 4250 1398 4047 
Q 1172 3844 1172 3481 
z
" transform="scale(0.015625)"/>
       </defs>
       <use xlink:href="#DejaVuSans-35"/>
       <use xlink:href="#DejaVuSans-2e" x="63.623047"/>
       <use xlink:href="#DejaVuSans-30" x="95.410156"/>
       <use xlink:href="#DejaVuSans-38" x="159.033203"/>
      </g>
     </g>
    </g>
    <g id="xtick_3">
     <g id="line2d_3">
      <g>
       <use xlink:href="#med346ea344" x="190.585022" y="284.4" style="stroke: #000000; stroke-width: 0.8"/>
      </g>
     </g>
     <g id="text_3">
      <!-- 5.10 -->
      <g transform="translate(178.338928 299.758281) scale(0.11 -0.11)">
       <defs>
        <path id="DejaVuSans-31" d="M 794 531 
L 1825 531 
L 1825 4091 
L 703 3866 
L 703 4441 
L 1819 4666 
L 2450 4666 
L 2450 531 
L 3481 531 
L 3481 0 
L 794 0 
L 794 531 
z
" transform="scale(0.015625)"/>
       </defs>
       <use xlink:href="#DejaVuSans-35"/>
       <use xlink:href="#DejaVuSans-2e" x="63.623047"/>
       <use xlink:href="#DejaVuSans-31" x="95.410156"/>
       <use xlink:href="#DejaVuSans-30" x="159.033203"/>
      </g>
     </g>
    </g>
    <g id="xtick_4">
     <g id="line2d_4">
      <g>
       <use xlink:href="#med346ea344" x="250.264166" y="284.4" style="stroke: #000000; stroke-width: 0.8"/>
      </g>
     </g>
     <g id="text_4">
      <!-- 5.12 -->
      <g transform="translate(238.018072 299.758281) scale(0.11 -0.11)">
       <defs>
        <path id="DejaVuSans-32" d="M 1228 531 
L 3431 531 
L 3431 0 
L 469 0 
L 469 531 
Q 828 903 1448 1529 
Q 2069 2156 2228 2338 
Q 2531 2678 2651 2914 
Q 2772 3150 2772 3378 
Q 2772 3750 2511 3984 
Q 2250 4219 1831 4219 
Q 1534 4219 1204 4116 
Q 875 4013 500 3803 
L 500 4441 
Q 881 4594 1212 4672 
Q 1544 4750 1819 4750 
Q 2544 4750 2975 4387 
Q 3406 4025 3406 3419 
Q 3406 3131 3298 2873 
Q 3191 2616 2906 2266 
Q 2828 2175 2409 1742 
Q 1991 1309 1228 531 
z
" transform="scale(0.015625)"/>
       </defs>
       <use xlink:href="#DejaVuSans-35"/>
       <use xlink:href="#DejaVuSans-2e" x="63.623047"/>
       <use xlink:href="#DejaVuSans-31" x="95.410156"/>
       <use xlink:href="#DejaVuSans-32" x="159.033203"/>
      </g>
     </g>
    </g>
    <g id="xtick_5">
     <g id="line2d_5">
      <g>
       <use xlink:href="#med346ea344" x="309.94331" y="284.4" style="stroke: #000000; stroke-width: 0.8"/>
      </g>
     </g>
     <g id="text_5">
      <!-- 5.14 -->
      <g transform="translate(297.697217 299.758281) scale(0.11 -0.11)">
       <defs>
        <path id="DejaVuSans-34" d="M 2419 4116 
L 825 1625 
L 2419 1625 
L 2419 4116 
z
M 2253 4666 
L 3047 4666 
L 3047 1625 
L 3713 1625 
L 3713 1100 
L 3047 1100 
L 3047 0 
L 2419 0 
L 2419 1100 
L 313 1100 
L 313 1709 
L 2253 4666 
z
" transform="scale(0.015625)"/>
       </defs>
       <use xlink:href="#DejaVuSans-35"/>
       <use xlink:href="#DejaVuSans-2e" x="63.623047"/>
       <use xlink:href="#DejaVuSans-31" x="95.410156"/>
       <use xlink:href="#DejaVuSans-34" x="159.033203"/>
      </g>
     </g>
    </g>
    <g id="xtick_6">
     <g id="line2d_6">
      <g>
       <use xlink:href="#med346ea344" x="369.622455" y="284.4" style="stroke: #000000; stroke-width: 0.8"/>
      </g>
     </g>
     <g id="text_6">
      <!-- 5.16 -->
      <g transform="translate(357.376361 299.758281) scale(0.11 -0.11)">
       <use xlink:href="#DejaVuSans-35"/>
       <use xlink:href="#DejaVuSans-2e" x="63.623047"/>
       <use xlink:href="#DejaVuSans-31" x="95.410156"/>
       <use xlink:href="#DejaVuSans-36" x="159.033203"/>
      </g>
     </g>
    </g>
    <g id="xtick_7">
     <g id="line2d_7">
      <g>
       <use xlink:href="#med346ea344" x="429.301599" y="284.4" style="stroke: #000000; stroke-width: 0.8"/>
      </g>
     </g>
     <g id="text_7">
      <!-- 5.18 -->
      <g transform="translate(417.055506 299.758281) scale(0.11 -0.11)">
       <use xlink:href="#DejaVuSans-35"/>
       <use xlink:href="#DejaVuSans-2e" x="63.623047"/>
       <use xlink:href="#DejaVuSans-31" x="95.410156"/>
       <use xlink:href="#DejaVuSans-38" x="159.033203"/>
      </g>
     </g>
    </g>
    <g id="text_8">
     <!-- $\beta$ -->
     <g transform="translate(245.252188 314.515938) scale(0.11 -0.11)">
      <defs>
       <path id="DejaVuSans-Oblique-3b2" d="M 872 216 
L 572 -1331 
L -6 -1331 
L 928 3478 
Q 1206 4903 2538 4903 
Q 3888 4903 3659 3700 
Q 3503 2844 2894 2531 
Q 3713 2250 3553 1416 
Q 3272 -69 1759 -66 
Q 1097 -63 872 216 
z
M 1019 966 
Q 1259 422 1875 425 
Q 2775 425 2966 1406 
Q 3138 2288 1675 2219 
L 1778 2750 
Q 2909 2731 3106 3750 
Q 3241 4438 2509 4434 
Q 1691 4434 1503 3459 
L 1019 966 
z
" transform="scale(0.015625)"/>
      </defs>
      <use xlink:href="#DejaVuSans-Oblique-3b2" transform="translate(0 0.390625)"/>
     </g>
    </g>
   </g>
   <g id="matplotlib.axis_2">
    <g id="ytick_1">
     <g id="line2d_8">
      <defs>
       <path id="me1ddb73a26" d="M 0 0 
L -3.5 0 
" style="stroke: #000000; stroke-width: 0.8"/>
      </defs>
      <g>
       <use xlink:href="#me1ddb73a26" x="53.472188" y="279.795241" style="stroke: #000000; stroke-width: 0.8"/>
      </g>
     </g>
     <g id="text_9">
      <!-- 0.52 -->
      <g transform="translate(21.98 283.974381) scale(0.11 -0.11)">
       <use xlink:href="#DejaVuSans-30"/>
       <use xlink:href="#DejaVuSans-2e" x="63.623047"/>
       <use xlink:href="#DejaVuSans-35" x="95.410156"/>
       <use xlink:href="#DejaVuSans-32" x="159.033203"/>
      </g>
     </g>
    </g>
    <g id="ytick_2">
     <g id="line2d_9">
      <g>
       <use xlink:href="#me1ddb73a26" x="53.472188" y="242.209259" style="stroke: #000000; stroke-width: 0.8"/>
      </g>
     </g>
     <g id="text_10">
      <!-- 0.53 -->
      <g transform="translate(21.98 246.388399) scale(0.11 -0.11)">
       <defs>
        <path id="DejaVuSans-33" d="M 2597 2516 
Q 3050 2419 3304 2112 
Q 3559 1806 3559 1356 
Q 3559 666 3084 287 
Q 2609 -91 1734 -91 
Q 1441 -91 1130 -33 
Q 819 25 488 141 
L 488 750 
Q 750 597 1062 519 
Q 1375 441 1716 441 
Q 2309 441 2620 675 
Q 2931 909 2931 1356 
Q 2931 1769 2642 2001 
Q 2353 2234 1838 2234 
L 1294 2234 
L 1294 2753 
L 1863 2753 
Q 2328 2753 2575 2939 
Q 2822 3125 2822 3475 
Q 2822 3834 2567 4026 
Q 2313 4219 1838 4219 
Q 1578 4219 1281 4162 
Q 984 4106 628 3988 
L 628 4550 
Q 988 4650 1302 4700 
Q 1616 4750 1894 4750 
Q 2613 4750 3031 4423 
Q 3450 4097 3450 3541 
Q 3450 3153 3228 2886 
Q 3006 2619 2597 2516 
z
" transform="scale(0.015625)"/>
       </defs>
       <use xlink:href="#DejaVuSans-30"/>
       <use xlink:href="#DejaVuSans-2e" x="63.623047"/>
       <use xlink:href="#DejaVuSans-35" x="95.410156"/>
       <use xlink:href="#DejaVuSans-33" x="159.033203"/>
      </g>
     </g>
    </g>
    <g id="ytick_3">
     <g id="line2d_10">
      <g>
       <use xlink:href="#me1ddb73a26" x="53.472188" y="204.623277" style="stroke: #000000; stroke-width: 0.8"/>
      </g>
     </g>
     <g id="text_11">
      <!-- 0.54 -->
      <g transform="translate(21.98 208.802418) scale(0.11 -0.11)">
       <use xlink:href="#DejaVuSans-30"/>
       <use xlink:href="#DejaVuSans-2e" x="63.623047"/>
       <use xlink:href="#DejaVuSans-35" x="95.410156"/>
       <use xlink:href="#DejaVuSans-34" x="159.033203"/>
      </g>
     </g>
    </g>
    <g id="ytick_4">
     <g id="line2d_11">
      <g>
       <use xlink:href="#me1ddb73a26" x="53.472188" y="167.037295" style="stroke: #000000; stroke-width: 0.8"/>
      </g>
     </g>
     <g id="text_12">
      <!-- 0.55 -->
      <g transform="translate(21.98 171.216436) scale(0.11 -0.11)">
       <use xlink:href="#DejaVuSans-30"/>
       <use xlink:href="#DejaVuSans-2e" x="63.623047"/>
       <use xlink:href="#DejaVuSans-35" x="95.410156"/>
       <use xlink:href="#DejaVuSans-35" x="159.033203"/>
      </g>
     </g>
    </g>
    <g id="ytick_5">
     <g id="line2d_12">
      <g>
       <use xlink:href="#me1ddb73a26" x="53.472188" y="129.451313" style="stroke: #000000; stroke-width: 0.8"/>
      </g>
     </g>
     <g id="text_13">
      <!-- 0.56 -->
      <g transform="translate(21.98 133.630454) scale(0.11 -0.11)">
       <use xlink:href="#DejaVuSans-30"/>
       <use xlink:href="#DejaVuSans-2e" x="63.623047"/>
       <use xlink:href="#DejaVuSans-35" x="95.410156"/>
       <use xlink:href="#DejaVuSans-36" x="159.033203"/>
      </g>
     </g>
    </g>
    <g id="ytick_6">
     <g id="line2d_13">
      <g>
       <use xlink:href="#me1ddb73a26" x="53.472188" y="91.865332" style="stroke: #000000; stroke-width: 0.8"/>
      </g>
     </g>
     <g id="text_14">
      <!-- 0.57 -->
      <g transform="translate(21.98 96.044472) scale(0.11 -0.11)">
       <defs>
        <path id="DejaVuSans-37" d="M 525 4666 
L 3525 4666 
L 3525 4397 
L 1831 0 
L 1172 0 
L 2766 4134 
L 525 4134 
L 525 4666 
z
" transform="scale(0.015625)"/>
       </defs>
       <use xlink:href="#DejaVuSans-30"/>
       <use xlink:href="#DejaVuSans-2e" x="63.623047"/>
       <use xlink:href="#DejaVuSans-35" x="95.410156"/>
       <use xlink:href="#DejaVuSans-37" x="159.033203"/>
      </g>
     </g>
    </g>
    <g id="ytick_7">
     <g id="line2d_14">
      <g>
       <use xlink:href="#me1ddb73a26" x="53.472188" y="54.27935" style="stroke: #000000; stroke-width: 0.8"/>
      </g>
     </g>
     <g id="text_15">
      <!-- 0.58 -->
      <g transform="translate(21.98 58.45849) scale(0.11 -0.11)">
       <use xlink:href="#DejaVuSans-30"/>
       <use xlink:href="#DejaVuSans-2e" x="63.623047"/>
       <use xlink:href="#DejaVuSans-35" x="95.410156"/>
       <use xlink:href="#DejaVuSans-38" x="159.033203"/>
      </g>
     </g>
    </g>
    <g id="ytick_8">
     <g id="line2d_15">
      <g>
       <use xlink:href="#me1ddb73a26" x="53.472188" y="16.693368" style="stroke: #000000; stroke-width: 0.8"/>
      </g>
     </g>
     <g id="text_16">
      <!-- 0.59 -->
      <g transform="translate(21.98 20.872509) scale(0.11 -0.11)">
       <defs>
        <path id="DejaVuSans-39" d="M 703 97 
L 703 672 
Q 941 559 1184 500 
Q 1428 441 1663 441 
Q 2288 441 2617 861 
Q 2947 1281 2994 2138 
Q 2813 1869 2534 1725 
Q 2256 1581 1919 1581 
Q 1219 1581 811 2004 
Q 403 2428 403 3163 
Q 403 3881 828 4315 
Q 1253 4750 1959 4750 
Q 2769 4750 3195 4129 
Q 3622 3509 3622 2328 
Q 3622 1225 3098 567 
Q 2575 -91 1691 -91 
Q 1453 -91 1209 -44 
Q 966 3 703 97 
z
M 1959 2075 
Q 2384 2075 2632 2365 
Q 2881 2656 2881 3163 
Q 2881 3666 2632 3958 
Q 2384 4250 1959 4250 
Q 1534 4250 1286 3958 
Q 1038 3666 1038 3163 
Q 1038 2656 1286 2365 
Q 1534 2075 1959 2075 
z
" transform="scale(0.015625)"/>
       </defs>
       <use xlink:href="#DejaVuSans-30"/>
       <use xlink:href="#DejaVuSans-2e" x="63.623047"/>
       <use xlink:href="#DejaVuSans-35" x="95.410156"/>
       <use xlink:href="#DejaVuSans-39" x="159.033203"/>
      </g>
     </g>
    </g>
    <g id="text_17">
     <!-- $\langle$ S $\rangle / (6\cdot V \cdot\beta)$ -->
     <g transform="translate(15.67 181.825) rotate(-90) scale(0.11 -0.11)">
      <defs>
       <path id="DejaVuSans-27e8" d="M 572 2006 
L 1453 4856 
L 1984 4856 
L 1103 2006 
L 1984 -844 
L 1453 -844 
L 572 2006 
z
" transform="scale(0.015625)"/>
       <path id="DejaVuSans-20" transform="scale(0.015625)"/>
       <path id="DejaVuSans-53" d="M 3425 4513 
L 3425 3897 
Q 3066 4069 2747 4153 
Q 2428 4238 2131 4238 
Q 1616 4238 1336 4038 
Q 1056 3838 1056 3469 
Q 1056 3159 1242 3001 
Q 1428 2844 1947 2747 
L 2328 2669 
Q 3034 2534 3370 2195 
Q 3706 1856 3706 1288 
Q 3706 609 3251 259 
Q 2797 -91 1919 -91 
Q 1588 -91 1214 -16 
Q 841 59 441 206 
L 441 856 
Q 825 641 1194 531 
Q 1563 422 1919 422 
Q 2459 422 2753 634 
Q 3047 847 3047 1241 
Q 3047 1584 2836 1778 
Q 2625 1972 2144 2069 
L 1759 2144 
Q 1053 2284 737 2584 
Q 422 2884 422 3419 
Q 422 4038 858 4394 
Q 1294 4750 2059 4750 
Q 2388 4750 2728 4690 
Q 3069 4631 3425 4513 
z
" transform="scale(0.015625)"/>
       <path id="DejaVuSans-27e9" d="M 1925 2006 
L 1044 -844 
L 513 -844 
L 1394 2006 
L 513 4856 
L 1044 4856 
L 1925 2006 
z
" transform="scale(0.015625)"/>
       <path id="DejaVuSans-2f" d="M 1625 4666 
L 2156 4666 
L 531 -594 
L 0 -594 
L 1625 4666 
z
" transform="scale(0.015625)"/>
       <path id="DejaVuSans-28" d="M 1984 4856 
Q 1566 4138 1362 3434 
Q 1159 2731 1159 2009 
Q 1159 1288 1364 580 
Q 1569 -128 1984 -844 
L 1484 -844 
Q 1016 -109 783 600 
Q 550 1309 550 2009 
Q 550 2706 781 3412 
Q 1013 4119 1484 4856 
L 1984 4856 
z
" transform="scale(0.015625)"/>
       <path id="DejaVuSans-22c5" d="M 684 2619 
L 1344 2619 
L 1344 1825 
L 684 1825 
L 684 2619 
z
" transform="scale(0.015625)"/>
       <path id="DejaVuSans-Oblique-56" d="M 1319 0 
L 500 4666 
L 1119 4666 
L 1797 653 
L 4063 4666 
L 4750 4666 
L 2053 0 
L 1319 0 
z
" transform="scale(0.015625)"/>
       <path id="DejaVuSans-29" d="M 513 4856 
L 1013 4856 
Q 1481 4119 1714 3412 
Q 1947 2706 1947 2009 
Q 1947 1309 1714 600 
Q 1481 -109 1013 -844 
L 513 -844 
Q 928 -128 1133 580 
Q 1338 1288 1338 2009 
Q 1338 2731 1133 3434 
Q 928 4138 513 4856 
z
" transform="scale(0.015625)"/>
      </defs>
      <use xlink:href="#DejaVuSans-27e8" transform="translate(0 0.390625)"/>
      <use xlink:href="#DejaVuSans-20" transform="translate(39.013672 0.390625)"/>
      <use xlink:href="#DejaVuSans-53" transform="translate(70.800781 0.390625)"/>
      <use xlink:href="#DejaVuSans-20" transform="translate(134.277344 0.390625)"/>
      <use xlink:href="#DejaVuSans-27e9" transform="translate(166.064453 0.390625)"/>
      <use xlink:href="#DejaVuSans-2f" transform="translate(205.078125 0.390625)"/>
      <use xlink:href="#DejaVuSans-28" transform="translate(238.769531 0.390625)"/>
      <use xlink:href="#DejaVuSans-36" transform="translate(277.783203 0.390625)"/>
      <use xlink:href="#DejaVuSans-22c5" transform="translate(360.888672 0.390625)"/>
      <use xlink:href="#DejaVuSans-Oblique-56" transform="translate(412.158203 0.390625)"/>
      <use xlink:href="#DejaVuSans-22c5" transform="translate(500.048828 0.390625)"/>
      <use xlink:href="#DejaVuSans-Oblique-3b2" transform="translate(551.318359 0.390625)"/>
      <use xlink:href="#DejaVuSans-29" transform="translate(615.136719 0.390625)"/>
     </g>
    </g>
   </g>
   <g id="LineCollection_1">
    <path d="M 71.226733 20.118519 
L 71.226733 19.8 
" clip-path="url(#pce82da7ea4)" style="fill: none; stroke: #ff0000; stroke-width: 1.5"/>
    <path d="M 74.21069 20.76107 
L 74.21069 20.444321 
" clip-path="url(#pce82da7ea4)" style="fill: none; stroke: #ff0000; stroke-width: 1.5"/>
    <path d="M 77.194647 21.408035 
L 77.194647 21.091019 
" clip-path="url(#pce82da7ea4)" style="fill: none; stroke: #ff0000; stroke-width: 1.5"/>
    <path d="M 80.178605 22.059801 
L 80.178605 21.740458 
" clip-path="url(#pce82da7ea4)" style="fill: none; stroke: #ff0000; stroke-width: 1.5"/>
    <path d="M 83.162562 22.716808 
L 83.162562 22.393077 
" clip-path="url(#pce82da7ea4)" style="fill: none; stroke: #ff0000; stroke-width: 1.5"/>
    <path d="M 86.146519 23.379559 
L 86.146519 23.049396 
" clip-path="url(#pce82da7ea4)" style="fill: none; stroke: #ff0000; stroke-width: 1.5"/>
    <path d="M 89.130476 24.048637 
L 89.130476 23.710025 
" clip-path="url(#pce82da7ea4)" style="fill: none; stroke: #ff0000; stroke-width: 1.5"/>
    <path d="M 92.114433 24.724727 
L 92.114433 24.375661 
" clip-path="url(#pce82da7ea4)" style="fill: none; stroke: #ff0000; stroke-width: 1.5"/>
    <path d="M 95.098391 25.408641 
L 95.098391 25.047098 
" clip-path="url(#pce82da7ea4)" style="fill: none; stroke: #ff0000; stroke-width: 1.5"/>
    <path d="M 98.082348 26.101354 
L 98.082348 25.725229 
" clip-path="url(#pce82da7ea4)" style="fill: none; stroke: #ff0000; stroke-width: 1.5"/>
    <path d="M 101.066305 26.804044 
L 101.066305 26.411046 
" clip-path="url(#pce82da7ea4)" style="fill: none; stroke: #ff0000; stroke-width: 1.5"/>
    <path d="M 104.050262 27.518149 
L 104.050262 27.10565 
" clip-path="url(#pce82da7ea4)" style="fill: none; stroke: #ff0000; stroke-width: 1.5"/>
    <path d="M 107.03422 28.245433 
L 107.03422 27.810251 
" clip-path="url(#pce82da7ea4)" style="fill: none; stroke: #ff0000; stroke-width: 1.5"/>
    <path d="M 110.018177 28.988079 
L 110.018177 28.526182 
" clip-path="url(#pce82da7ea4)" style="fill: none; stroke: #ff0000; stroke-width: 1.5"/>
    <path d="M 113.002134 29.748802 
L 113.002134 29.25491 
" clip-path="url(#pce82da7ea4)" style="fill: none; stroke: #ff0000; stroke-width: 1.5"/>
    <path d="M 115.986091 30.530997 
L 115.986091 29.998067 
" clip-path="url(#pce82da7ea4)" style="fill: none; stroke: #ff0000; stroke-width: 1.5"/>
    <path d="M 118.970048 31.338928 
L 118.970048 30.757496 
" clip-path="url(#pce82da7ea4)" style="fill: none; stroke: #ff0000; stroke-width: 1.5"/>
    <path d="M 121.954006 32.177968 
L 121.954006 31.535347 
" clip-path="url(#pce82da7ea4)" style="fill: none; stroke: #ff0000; stroke-width: 1.5"/>
    <path d="M 124.937963 33.054914 
L 124.937963 32.334231 
" clip-path="url(#pce82da7ea4)" style="fill: none; stroke: #ff0000; stroke-width: 1.5"/>
    <path d="M 127.92192 33.978417 
L 127.92192 33.157487 
" clip-path="url(#pce82da7ea4)" style="fill: none; stroke: #ff0000; stroke-width: 1.5"/>
    <path d="M 130.905877 34.95961 
L 130.905877 34.009609 
" clip-path="url(#pce82da7ea4)" style="fill: none; stroke: #ff0000; stroke-width: 1.5"/>
    <path d="M 133.889835 36.013067 
L 133.889835 34.896958 
" clip-path="url(#pce82da7ea4)" style="fill: none; stroke: #ff0000; stroke-width: 1.5"/>
    <path d="M 136.873792 37.158375 
L 136.873792 35.828991 
" clip-path="url(#pce82da7ea4)" style="fill: none; stroke: #ff0000; stroke-width: 1.5"/>
    <path d="M 139.857749 38.422784 
L 139.857749 36.820507 
" clip-path="url(#pce82da7ea4)" style="fill: none; stroke: #ff0000; stroke-width: 1.5"/>
    <path d="M 142.841706 39.845897 
L 142.841706 37.895965 
" clip-path="url(#pce82da7ea4)" style="fill: none; stroke: #ff0000; stroke-width: 1.5"/>
    <path d="M 145.825663 41.48828 
L 145.825663 39.098126 
" clip-path="url(#pce82da7ea4)" style="fill: none; stroke: #ff0000; stroke-width: 1.5"/>
    <path d="M 148.809621 43.447728 
L 148.809621 40.50567 
" clip-path="url(#pce82da7ea4)" style="fill: none; stroke: #ff0000; stroke-width: 1.5"/>
    <path d="M 151.793578 45.890408 
L 151.793578 42.26902 
" clip-path="url(#pce82da7ea4)" style="fill: none; stroke: #ff0000; stroke-width: 1.5"/>
    <path d="M 154.777535 49.109676 
L 154.777535 44.680264 
" clip-path="url(#pce82da7ea4)" style="fill: none; stroke: #ff0000; stroke-width: 1.5"/>
    <path d="M 157.761492 53.631311 
L 157.761492 48.29322 
" clip-path="url(#pce82da7ea4)" style="fill: none; stroke: #ff0000; stroke-width: 1.5"/>
    <path d="M 160.74545 60.376312 
L 160.74545 54.060039 
" clip-path="url(#pce82da7ea4)" style="fill: none; stroke: #ff0000; stroke-width: 1.5"/>
    <path d="M 163.729407 70.789841 
L 163.729407 63.257851 
" clip-path="url(#pce82da7ea4)" style="fill: none; stroke: #ff0000; stroke-width: 1.5"/>
    <path d="M 166.713364 86.303923 
L 166.713364 76.848622 
" clip-path="url(#pce82da7ea4)" style="fill: none; stroke: #ff0000; stroke-width: 1.5"/>
    <path d="M 169.697321 106.062792 
L 169.697321 94.539413 
" clip-path="url(#pce82da7ea4)" style="fill: none; stroke: #ff0000; stroke-width: 1.5"/>
    <path d="M 172.681278 125.703503 
L 172.681278 113.937582 
" clip-path="url(#pce82da7ea4)" style="fill: none; stroke: #ff0000; stroke-width: 1.5"/>
    <path d="M 175.665236 141.097967 
L 175.665236 131.240151 
" clip-path="url(#pce82da7ea4)" style="fill: none; stroke: #ff0000; stroke-width: 1.5"/>
    <path d="M 178.649193 151.49682 
L 178.649193 144.175443 
" clip-path="url(#pce82da7ea4)" style="fill: none; stroke: #ff0000; stroke-width: 1.5"/>
    <path d="M 181.63315 158.240108 
L 181.63315 153.007017 
" clip-path="url(#pce82da7ea4)" style="fill: none; stroke: #ff0000; stroke-width: 1.5"/>
    <path d="M 184.617107 162.804541 
L 184.617107 159.037473 
" clip-path="url(#pce82da7ea4)" style="fill: none; stroke: #ff0000; stroke-width: 1.5"/>
    <path d="M 187.601065 166.173985 
L 187.601065 163.404618 
" clip-path="url(#pce82da7ea4)" style="fill: none; stroke: #ff0000; stroke-width: 1.5"/>
    <path d="M 190.585022 168.900394 
L 190.585022 166.818798 
" clip-path="url(#pce82da7ea4)" style="fill: none; stroke: #ff0000; stroke-width: 1.5"/>
    <path d="M 193.568979 171.273394 
L 193.568979 169.672407 
" clip-path="url(#pce82da7ea4)" style="fill: none; stroke: #ff0000; stroke-width: 1.5"/>
    <path d="M 196.552936 173.441897 
L 196.552936 172.175824 
" clip-path="url(#pce82da7ea4)" style="fill: none; stroke: #ff0000; stroke-width: 1.5"/>
    <path d="M 199.536893 175.482599 
L 199.536893 174.444487 
" clip-path="url(#pce82da7ea4)" style="fill: none; stroke: #ff0000; stroke-width: 1.5"/>
    <path d="M 202.520851 177.435113 
L 202.520851 176.545792 
" clip-path="url(#pce82da7ea4)" style="fill: none; stroke: #ff0000; stroke-width: 1.5"/>
    <path d="M 205.504808 179.319636 
L 205.504808 178.522632 
" clip-path="url(#pce82da7ea4)" style="fill: none; stroke: #ff0000; stroke-width: 1.5"/>
    <path d="M 208.488765 181.146465 
L 208.488765 180.404405 
" clip-path="url(#pce82da7ea4)" style="fill: none; stroke: #ff0000; stroke-width: 1.5"/>
    <path d="M 211.472722 182.921503 
L 211.472722 182.211888 
" clip-path="url(#pce82da7ea4)" style="fill: none; stroke: #ff0000; stroke-width: 1.5"/>
    <path d="M 214.456679 184.649176 
L 214.456679 183.95974 
" clip-path="url(#pce82da7ea4)" style="fill: none; stroke: #ff0000; stroke-width: 1.5"/>
    <path d="M 217.440637 186.3336 
L 217.440637 185.658275 
" clip-path="url(#pce82da7ea4)" style="fill: none; stroke: #ff0000; stroke-width: 1.5"/>
    <path d="M 220.424594 187.978853 
L 220.424594 187.31486 
" clip-path="url(#pce82da7ea4)" style="fill: none; stroke: #ff0000; stroke-width: 1.5"/>
    <path d="M 223.408551 189.588943 
L 223.408551 188.934949 
" clip-path="url(#pce82da7ea4)" style="fill: none; stroke: #ff0000; stroke-width: 1.5"/>
    <path d="M 226.392508 191.167724 
L 226.392508 190.522779 
" clip-path="url(#pce82da7ea4)" style="fill: none; stroke: #ff0000; stroke-width: 1.5"/>
    <path d="M 229.376466 192.718829 
L 229.376466 192.081809 
" clip-path="url(#pce82da7ea4)" style="fill: none; stroke: #ff0000; stroke-width: 1.5"/>
    <path d="M 232.360423 194.245636 
L 232.360423 193.614996 
" clip-path="url(#pce82da7ea4)" style="fill: none; stroke: #ff0000; stroke-width: 1.5"/>
    <path d="M 235.34438 195.751234 
L 235.34438 195.124963 
" clip-path="url(#pce82da7ea4)" style="fill: none; stroke: #ff0000; stroke-width: 1.5"/>
    <path d="M 238.328337 197.238395 
L 238.328337 196.614085 
" clip-path="url(#pce82da7ea4)" style="fill: none; stroke: #ff0000; stroke-width: 1.5"/>
    <path d="M 241.312294 198.70955 
L 241.312294 198.084549 
" clip-path="url(#pce82da7ea4)" style="fill: none; stroke: #ff0000; stroke-width: 1.5"/>
    <path d="M 244.296252 200.166758 
L 244.296252 199.538365 
" clip-path="url(#pce82da7ea4)" style="fill: none; stroke: #ff0000; stroke-width: 1.5"/>
    <path d="M 247.280209 201.611689 
L 247.280209 200.977364 
" clip-path="url(#pce82da7ea4)" style="fill: none; stroke: #ff0000; stroke-width: 1.5"/>
    <path d="M 250.264166 203.045616 
L 250.264166 202.403188 
" clip-path="url(#pce82da7ea4)" style="fill: none; stroke: #ff0000; stroke-width: 1.5"/>
    <path d="M 253.248123 204.469422 
L 253.248123 203.817257 
" clip-path="url(#pce82da7ea4)" style="fill: none; stroke: #ff0000; stroke-width: 1.5"/>
    <path d="M 256.232081 205.883623 
L 256.232081 205.220748 
" clip-path="url(#pce82da7ea4)" style="fill: none; stroke: #ff0000; stroke-width: 1.5"/>
    <path d="M 259.216038 207.288401 
L 259.216038 206.614572 
" clip-path="url(#pce82da7ea4)" style="fill: none; stroke: #ff0000; stroke-width: 1.5"/>
    <path d="M 262.199995 208.683658 
L 262.199995 207.999368 
" clip-path="url(#pce82da7ea4)" style="fill: none; stroke: #ff0000; stroke-width: 1.5"/>
    <path d="M 265.183952 210.06907 
L 265.183952 209.375502 
" clip-path="url(#pce82da7ea4)" style="fill: none; stroke: #ff0000; stroke-width: 1.5"/>
    <path d="M 268.167909 211.444154 
L 268.167909 210.743084 
" clip-path="url(#pce82da7ea4)" style="fill: none; stroke: #ff0000; stroke-width: 1.5"/>
    <path d="M 271.151867 212.808334 
L 271.151867 212.102003 
" clip-path="url(#pce82da7ea4)" style="fill: none; stroke: #ff0000; stroke-width: 1.5"/>
    <path d="M 274.135824 214.161008 
L 274.135824 213.451964 
" clip-path="url(#pce82da7ea4)" style="fill: none; stroke: #ff0000; stroke-width: 1.5"/>
    <path d="M 277.119781 215.501611 
L 277.119781 214.792539 
" clip-path="url(#pce82da7ea4)" style="fill: none; stroke: #ff0000; stroke-width: 1.5"/>
    <path d="M 280.103738 216.829664 
L 280.103738 216.123222 
" clip-path="url(#pce82da7ea4)" style="fill: none; stroke: #ff0000; stroke-width: 1.5"/>
    <path d="M 283.087696 218.144818 
L 283.087696 217.443486 
" clip-path="url(#pce82da7ea4)" style="fill: none; stroke: #ff0000; stroke-width: 1.5"/>
    <path d="M 286.071653 219.446879 
L 286.071653 218.752837 
" clip-path="url(#pce82da7ea4)" style="fill: none; stroke: #ff0000; stroke-width: 1.5"/>
    <path d="M 289.05561 220.735819 
L 289.05561 220.050862 
" clip-path="url(#pce82da7ea4)" style="fill: none; stroke: #ff0000; stroke-width: 1.5"/>
    <path d="M 292.039567 222.01177 
L 292.039567 221.33727 
" clip-path="url(#pce82da7ea4)" style="fill: none; stroke: #ff0000; stroke-width: 1.5"/>
    <path d="M 295.023524 223.275012 
L 295.023524 222.611927 
" clip-path="url(#pce82da7ea4)" style="fill: none; stroke: #ff0000; stroke-width: 1.5"/>
    <path d="M 298.007482 224.525945 
L 298.007482 223.874872 
" clip-path="url(#pce82da7ea4)" style="fill: none; stroke: #ff0000; stroke-width: 1.5"/>
    <path d="M 300.991439 225.765057 
L 300.991439 225.126323 
" clip-path="url(#pce82da7ea4)" style="fill: none; stroke: #ff0000; stroke-width: 1.5"/>
    <path d="M 303.975396 226.992894 
L 303.975396 226.366669 
" clip-path="url(#pce82da7ea4)" style="fill: none; stroke: #ff0000; stroke-width: 1.5"/>
    <path d="M 306.959353 228.210034 
L 306.959353 227.59645 
" clip-path="url(#pce82da7ea4)" style="fill: none; stroke: #ff0000; stroke-width: 1.5"/>
    <path d="M 309.94331 229.417058 
L 309.94331 228.816319 
" clip-path="url(#pce82da7ea4)" style="fill: none; stroke: #ff0000; stroke-width: 1.5"/>
    <path d="M 312.927268 230.614539 
L 312.927268 230.027005 
" clip-path="url(#pce82da7ea4)" style="fill: none; stroke: #ff0000; stroke-width: 1.5"/>
    <path d="M 315.911225 231.80303 
L 315.911225 231.229264 
" clip-path="url(#pce82da7ea4)" style="fill: none; stroke: #ff0000; stroke-width: 1.5"/>
    <path d="M 318.895182 232.983057 
L 318.895182 232.423836 
" clip-path="url(#pce82da7ea4)" style="fill: none; stroke: #ff0000; stroke-width: 1.5"/>
    <path d="M 321.879139 234.15512 
L 321.879139 233.611403 
" clip-path="url(#pce82da7ea4)" style="fill: none; stroke: #ff0000; stroke-width: 1.5"/>
    <path d="M 324.863097 235.319687 
L 324.863097 234.792557 
" clip-path="url(#pce82da7ea4)" style="fill: none; stroke: #ff0000; stroke-width: 1.5"/>
    <path d="M 327.847054 236.477199 
L 327.847054 235.967772 
" clip-path="url(#pce82da7ea4)" style="fill: none; stroke: #ff0000; stroke-width: 1.5"/>
    <path d="M 330.831011 237.628072 
L 330.831011 237.137392 
" clip-path="url(#pce82da7ea4)" style="fill: none; stroke: #ff0000; stroke-width: 1.5"/>
    <path d="M 333.814968 238.772694 
L 333.814968 238.301622 
" clip-path="url(#pce82da7ea4)" style="fill: none; stroke: #ff0000; stroke-width: 1.5"/>
    <path d="M 336.798925 239.911432 
L 336.798925 239.460528 
" clip-path="url(#pce82da7ea4)" style="fill: none; stroke: #ff0000; stroke-width: 1.5"/>
    <path d="M 339.782883 241.044631 
L 339.782883 240.61405 
" clip-path="url(#pce82da7ea4)" style="fill: none; stroke: #ff0000; stroke-width: 1.5"/>
    <path d="M 342.76684 242.17262 
L 342.76684 241.762011 
" clip-path="url(#pce82da7ea4)" style="fill: none; stroke: #ff0000; stroke-width: 1.5"/>
    <path d="M 345.750797 243.295705 
L 345.750797 242.904137 
" clip-path="url(#pce82da7ea4)" style="fill: none; stroke: #ff0000; stroke-width: 1.5"/>
    <path d="M 348.734754 244.414172 
L 348.734754 244.040086 
" clip-path="url(#pce82da7ea4)" style="fill: none; stroke: #ff0000; stroke-width: 1.5"/>
    <path d="M 351.718712 245.528274 
L 351.718712 245.169475 
" clip-path="url(#pce82da7ea4)" style="fill: none; stroke: #ff0000; stroke-width: 1.5"/>
    <path d="M 354.702669 246.638214 
L 354.702669 246.291925 
" clip-path="url(#pce82da7ea4)" style="fill: none; stroke: #ff0000; stroke-width: 1.5"/>
    <path d="M 357.686626 247.744125 
L 357.686626 247.407095 
" clip-path="url(#pce82da7ea4)" style="fill: none; stroke: #ff0000; stroke-width: 1.5"/>
    <path d="M 360.670583 248.846049 
L 360.670583 248.514732 
" clip-path="url(#pce82da7ea4)" style="fill: none; stroke: #ff0000; stroke-width: 1.5"/>
    <path d="M 363.65454 249.94392 
L 363.65454 249.614695 
" clip-path="url(#pce82da7ea4)" style="fill: none; stroke: #ff0000; stroke-width: 1.5"/>
    <path d="M 366.638498 251.03757 
L 366.638498 250.706971 
" clip-path="url(#pce82da7ea4)" style="fill: none; stroke: #ff0000; stroke-width: 1.5"/>
    <path d="M 369.622455 252.126745 
L 369.622455 251.79167 
" clip-path="url(#pce82da7ea4)" style="fill: none; stroke: #ff0000; stroke-width: 1.5"/>
    <path d="M 372.606412 253.211142 
L 372.606412 252.869 
" clip-path="url(#pce82da7ea4)" style="fill: none; stroke: #ff0000; stroke-width: 1.5"/>
    <path d="M 375.590369 254.290445 
L 375.590369 253.939239 
" clip-path="url(#pce82da7ea4)" style="fill: none; stroke: #ff0000; stroke-width: 1.5"/>
    <path d="M 378.574327 255.364362 
L 378.574327 255.002707 
" clip-path="url(#pce82da7ea4)" style="fill: none; stroke: #ff0000; stroke-width: 1.5"/>
    <path d="M 381.558284 256.432644 
L 381.558284 256.059753 
" clip-path="url(#pce82da7ea4)" style="fill: none; stroke: #ff0000; stroke-width: 1.5"/>
    <path d="M 384.542241 257.495106 
L 384.542241 257.110736 
" clip-path="url(#pce82da7ea4)" style="fill: none; stroke: #ff0000; stroke-width: 1.5"/>
    <path d="M 387.526198 258.551628 
L 387.526198 258.156029 
" clip-path="url(#pce82da7ea4)" style="fill: none; stroke: #ff0000; stroke-width: 1.5"/>
    <path d="M 390.510155 259.60216 
L 390.510155 259.196014 
" clip-path="url(#pce82da7ea4)" style="fill: none; stroke: #ff0000; stroke-width: 1.5"/>
    <path d="M 393.494113 260.646717 
L 393.494113 260.231079 
" clip-path="url(#pce82da7ea4)" style="fill: none; stroke: #ff0000; stroke-width: 1.5"/>
    <path d="M 396.47807 261.685377 
L 396.47807 261.261621 
" clip-path="url(#pce82da7ea4)" style="fill: none; stroke: #ff0000; stroke-width: 1.5"/>
    <path d="M 399.462027 262.718278 
L 399.462027 262.28804 
" clip-path="url(#pce82da7ea4)" style="fill: none; stroke: #ff0000; stroke-width: 1.5"/>
    <path d="M 402.445984 263.74561 
L 402.445984 263.310733 
" clip-path="url(#pce82da7ea4)" style="fill: none; stroke: #ff0000; stroke-width: 1.5"/>
    <path d="M 405.429942 264.767611 
L 405.429942 264.330085 
" clip-path="url(#pce82da7ea4)" style="fill: none; stroke: #ff0000; stroke-width: 1.5"/>
    <path d="M 408.413899 265.784563 
L 408.413899 265.34646 
" clip-path="url(#pce82da7ea4)" style="fill: none; stroke: #ff0000; stroke-width: 1.5"/>
    <path d="M 411.397856 266.796785 
L 411.397856 266.360186 
" clip-path="url(#pce82da7ea4)" style="fill: none; stroke: #ff0000; stroke-width: 1.5"/>
    <path d="M 414.381813 267.804628 
L 414.381813 267.371545 
" clip-path="url(#pce82da7ea4)" style="fill: none; stroke: #ff0000; stroke-width: 1.5"/>
    <path d="M 417.36577 268.808467 
L 417.36577 268.380756 
" clip-path="url(#pce82da7ea4)" style="fill: none; stroke: #ff0000; stroke-width: 1.5"/>
    <path d="M 420.349728 269.808701 
L 420.349728 269.387963 
" clip-path="url(#pce82da7ea4)" style="fill: none; stroke: #ff0000; stroke-width: 1.5"/>
    <path d="M 423.333685 270.805739 
L 423.333685 270.39322 
" clip-path="url(#pce82da7ea4)" style="fill: none; stroke: #ff0000; stroke-width: 1.5"/>
    <path d="M 426.317642 271.8 
L 426.317642 271.396488 
" clip-path="url(#pce82da7ea4)" style="fill: none; stroke: #ff0000; stroke-width: 1.5"/>
   </g>
   <g id="LineCollection_2">
    <path d="M 71.226733 20.181139 
L 71.226733 20.002998 
" clip-path="url(#pce82da7ea4)" style="fill: none; stroke: #ff0000; stroke-width: 1.5"/>
    <path d="M 74.21069 20.824867 
L 74.21069 20.650082 
" clip-path="url(#pce82da7ea4)" style="fill: none; stroke: #ff0000; stroke-width: 1.5"/>
    <path d="M 77.194647 21.472647 
L 77.194647 21.29884 
" clip-path="url(#pce82da7ea4)" style="fill: none; stroke: #ff0000; stroke-width: 1.5"/>
    <path d="M 80.178605 22.124721 
L 80.178605 21.949347 
" clip-path="url(#pce82da7ea4)" style="fill: none; stroke: #ff0000; stroke-width: 1.5"/>
    <path d="M 83.162562 22.781293 
L 83.162562 22.601785 
" clip-path="url(#pce82da7ea4)" style="fill: none; stroke: #ff0000; stroke-width: 1.5"/>
    <path d="M 86.146519 23.442539 
L 86.146519 23.256448 
" clip-path="url(#pce82da7ea4)" style="fill: none; stroke: #ff0000; stroke-width: 1.5"/>
    <path d="M 89.130476 24.108628 
L 89.130476 23.913733 
" clip-path="url(#pce82da7ea4)" style="fill: none; stroke: #ff0000; stroke-width: 1.5"/>
    <path d="M 92.114433 24.779766 
L 92.114433 24.574125 
" clip-path="url(#pce82da7ea4)" style="fill: none; stroke: #ff0000; stroke-width: 1.5"/>
    <path d="M 95.098391 25.456232 
L 95.098391 25.238186 
" clip-path="url(#pce82da7ea4)" style="fill: none; stroke: #ff0000; stroke-width: 1.5"/>
    <path d="M 98.082348 26.13842 
L 98.082348 25.906556 
" clip-path="url(#pce82da7ea4)" style="fill: none; stroke: #ff0000; stroke-width: 1.5"/>
    <path d="M 101.066305 26.826872 
L 101.066305 26.579956 
" clip-path="url(#pce82da7ea4)" style="fill: none; stroke: #ff0000; stroke-width: 1.5"/>
    <path d="M 104.050262 27.522316 
L 104.050262 27.259218 
" clip-path="url(#pce82da7ea4)" style="fill: none; stroke: #ff0000; stroke-width: 1.5"/>
    <path d="M 107.03422 28.225715 
L 107.03422 27.945313 
" clip-path="url(#pce82da7ea4)" style="fill: none; stroke: #ff0000; stroke-width: 1.5"/>
    <path d="M 110.018177 28.938317 
L 110.018177 28.639404 
" clip-path="url(#pce82da7ea4)" style="fill: none; stroke: #ff0000; stroke-width: 1.5"/>
    <path d="M 113.002134 29.661722 
L 113.002134 29.342914 
" clip-path="url(#pce82da7ea4)" style="fill: none; stroke: #ff0000; stroke-width: 1.5"/>
    <path d="M 115.986091 30.397981 
L 115.986091 30.057623 
" clip-path="url(#pce82da7ea4)" style="fill: none; stroke: #ff0000; stroke-width: 1.5"/>
    <path d="M 118.970048 31.149719 
L 118.970048 30.7858 
" clip-path="url(#pce82da7ea4)" style="fill: none; stroke: #ff0000; stroke-width: 1.5"/>
    <path d="M 121.954006 31.920315 
L 121.954006 31.530401 
" clip-path="url(#pce82da7ea4)" style="fill: none; stroke: #ff0000; stroke-width: 1.5"/>
    <path d="M 124.937963 32.714166 
L 124.937963 32.295337 
" clip-path="url(#pce82da7ea4)" style="fill: none; stroke: #ff0000; stroke-width: 1.5"/>
    <path d="M 127.92192 33.537073 
L 127.92192 33.085862 
" clip-path="url(#pce82da7ea4)" style="fill: none; stroke: #ff0000; stroke-width: 1.5"/>
    <path d="M 130.905877 34.396823 
L 130.905877 33.909118 
" clip-path="url(#pce82da7ea4)" style="fill: none; stroke: #ff0000; stroke-width: 1.5"/>
    <path d="M 133.889835 35.304103 
L 133.889835 34.774896 
" clip-path="url(#pce82da7ea4)" style="fill: none; stroke: #ff0000; stroke-width: 1.5"/>
    <path d="M 136.873792 36.273933 
L 136.873792 35.696661 
" clip-path="url(#pce82da7ea4)" style="fill: none; stroke: #ff0000; stroke-width: 1.5"/>
    <path d="M 139.857749 37.327982 
L 139.857749 36.692855 
" clip-path="url(#pce82da7ea4)" style="fill: none; stroke: #ff0000; stroke-width: 1.5"/>
    <path d="M 142.841706 38.498377 
L 142.841706 37.788376 
" clip-path="url(#pce82da7ea4)" style="fill: none; stroke: #ff0000; stroke-width: 1.5"/>
    <path d="M 145.825663 39.833865 
L 145.825663 39.015996 
" clip-path="url(#pce82da7ea4)" style="fill: none; stroke: #ff0000; stroke-width: 1.5"/>
    <path d="M 148.809621 41.408993 
L 148.809621 40.417663 
" clip-path="url(#pce82da7ea4)" style="fill: none; stroke: #ff0000; stroke-width: 1.5"/>
    <path d="M 151.793578 43.335177 
L 151.793578 42.047047 
" clip-path="url(#pce82da7ea4)" style="fill: none; stroke: #ff0000; stroke-width: 1.5"/>
    <path d="M 154.777535 45.769913 
L 154.777535 43.975864 
" clip-path="url(#pce82da7ea4)" style="fill: none; stroke: #ff0000; stroke-width: 1.5"/>
    <path d="M 157.761492 48.920161 
L 157.761492 46.303237 
" clip-path="url(#pce82da7ea4)" style="fill: none; stroke: #ff0000; stroke-width: 1.5"/>
    <path d="M 160.74545 53.033642 
L 160.74545 49.162809 
" clip-path="url(#pce82da7ea4)" style="fill: none; stroke: #ff0000; stroke-width: 1.5"/>
    <path d="M 163.729407 58.360927 
L 163.729407 52.723512 
" clip-path="url(#pce82da7ea4)" style="fill: none; stroke: #ff0000; stroke-width: 1.5"/>
    <path d="M 166.713364 65.067316 
L 166.713364 57.178642 
" clip-path="url(#pce82da7ea4)" style="fill: none; stroke: #ff0000; stroke-width: 1.5"/>
    <path d="M 169.697321 73.101167 
L 169.697321 62.709394 
" clip-path="url(#pce82da7ea4)" style="fill: none; stroke: #ff0000; stroke-width: 1.5"/>
    <path d="M 172.681278 82.091047 
L 172.681278 69.406687 
" clip-path="url(#pce82da7ea4)" style="fill: none; stroke: #ff0000; stroke-width: 1.5"/>
    <path d="M 175.665236 91.39047 
L 175.665236 77.165916 
" clip-path="url(#pce82da7ea4)" style="fill: none; stroke: #ff0000; stroke-width: 1.5"/>
    <path d="M 178.649193 100.305135 
L 178.649193 85.633387 
" clip-path="url(#pce82da7ea4)" style="fill: none; stroke: #ff0000; stroke-width: 1.5"/>
    <path d="M 181.63315 108.353995 
L 181.63315 94.290952 
" clip-path="url(#pce82da7ea4)" style="fill: none; stroke: #ff0000; stroke-width: 1.5"/>
    <path d="M 184.617107 115.371834 
L 184.617107 102.645365 
" clip-path="url(#pce82da7ea4)" style="fill: none; stroke: #ff0000; stroke-width: 1.5"/>
    <path d="M 187.601065 121.430621 
L 187.601065 110.378593 
" clip-path="url(#pce82da7ea4)" style="fill: none; stroke: #ff0000; stroke-width: 1.5"/>
    <path d="M 190.585022 126.70121 
L 190.585022 117.370912 
" clip-path="url(#pce82da7ea4)" style="fill: none; stroke: #ff0000; stroke-width: 1.5"/>
    <path d="M 193.568979 131.356163 
L 193.568979 123.634263 
" clip-path="url(#pce82da7ea4)" style="fill: none; stroke: #ff0000; stroke-width: 1.5"/>
    <path d="M 196.552936 135.531864 
L 196.552936 129.234883 
" clip-path="url(#pce82da7ea4)" style="fill: none; stroke: #ff0000; stroke-width: 1.5"/>
    <path d="M 199.536893 139.326241 
L 199.536893 134.246999 
" clip-path="url(#pce82da7ea4)" style="fill: none; stroke: #ff0000; stroke-width: 1.5"/>
    <path d="M 202.520851 142.808519 
L 202.520851 138.737579 
" clip-path="url(#pce82da7ea4)" style="fill: none; stroke: #ff0000; stroke-width: 1.5"/>
    <path d="M 205.504808 146.029186 
L 205.504808 142.766967 
" clip-path="url(#pce82da7ea4)" style="fill: none; stroke: #ff0000; stroke-width: 1.5"/>
    <path d="M 208.488765 149.026748 
L 208.488765 146.392972 
" clip-path="url(#pce82da7ea4)" style="fill: none; stroke: #ff0000; stroke-width: 1.5"/>
    <path d="M 211.472722 151.831614 
L 211.472722 149.672927 
" clip-path="url(#pce82da7ea4)" style="fill: none; stroke: #ff0000; stroke-width: 1.5"/>
    <path d="M 214.456679 154.468451 
L 214.456679 152.662854 
" clip-path="url(#pce82da7ea4)" style="fill: none; stroke: #ff0000; stroke-width: 1.5"/>
    <path d="M 217.440637 156.958052 
L 217.440637 155.414864 
" clip-path="url(#pce82da7ea4)" style="fill: none; stroke: #ff0000; stroke-width: 1.5"/>
    <path d="M 220.424594 159.318911 
L 220.424594 157.974441 
" clip-path="url(#pce82da7ea4)" style="fill: none; stroke: #ff0000; stroke-width: 1.5"/>
    <path d="M 223.408551 161.568139 
L 223.408551 160.378896 
" clip-path="url(#pce82da7ea4)" style="fill: none; stroke: #ff0000; stroke-width: 1.5"/>
    <path d="M 226.392508 163.721589 
L 226.392508 162.657383 
" clip-path="url(#pce82da7ea4)" style="fill: none; stroke: #ff0000; stroke-width: 1.5"/>
    <path d="M 229.376466 165.793516 
L 229.376466 164.832016 
" clip-path="url(#pce82da7ea4)" style="fill: none; stroke: #ff0000; stroke-width: 1.5"/>
    <path d="M 232.360423 167.796195 
L 232.360423 166.919403 
" clip-path="url(#pce82da7ea4)" style="fill: none; stroke: #ff0000; stroke-width: 1.5"/>
    <path d="M 235.34438 169.739726 
L 235.34438 168.932113 
" clip-path="url(#pce82da7ea4)" style="fill: none; stroke: #ff0000; stroke-width: 1.5"/>
    <path d="M 238.328337 171.632075 
L 238.328337 170.879877 
" clip-path="url(#pce82da7ea4)" style="fill: none; stroke: #ff0000; stroke-width: 1.5"/>
    <path d="M 241.312294 173.479289 
L 241.312294 172.770457 
" clip-path="url(#pce82da7ea4)" style="fill: none; stroke: #ff0000; stroke-width: 1.5"/>
    <path d="M 244.296252 175.285826 
L 244.296252 174.610213 
" clip-path="url(#pce82da7ea4)" style="fill: none; stroke: #ff0000; stroke-width: 1.5"/>
    <path d="M 247.280209 177.054947 
L 247.280209 176.404428 
" clip-path="url(#pce82da7ea4)" style="fill: none; stroke: #ff0000; stroke-width: 1.5"/>
    <path d="M 250.264166 178.78908 
L 250.264166 178.157478 
" clip-path="url(#pce82da7ea4)" style="fill: none; stroke: #ff0000; stroke-width: 1.5"/>
    <path d="M 253.248123 180.490127 
L 253.248123 179.872933 
" clip-path="url(#pce82da7ea4)" style="fill: none; stroke: #ff0000; stroke-width: 1.5"/>
    <path d="M 256.232081 182.159673 
L 256.232081 181.553641 
" clip-path="url(#pce82da7ea4)" style="fill: none; stroke: #ff0000; stroke-width: 1.5"/>
    <path d="M 259.216038 183.799106 
L 259.216038 183.201836 
" clip-path="url(#pce82da7ea4)" style="fill: none; stroke: #ff0000; stroke-width: 1.5"/>
    <path d="M 262.199995 185.409682 
L 262.199995 184.819251 
" clip-path="url(#pce82da7ea4)" style="fill: none; stroke: #ff0000; stroke-width: 1.5"/>
    <path d="M 265.183952 186.992536 
L 265.183952 186.407247 
" clip-path="url(#pce82da7ea4)" style="fill: none; stroke: #ff0000; stroke-width: 1.5"/>
    <path d="M 268.167909 188.548692 
L 268.167909 187.966935 
" clip-path="url(#pce82da7ea4)" style="fill: none; stroke: #ff0000; stroke-width: 1.5"/>
    <path d="M 271.151867 190.079063 
L 271.151867 189.49929 
" clip-path="url(#pce82da7ea4)" style="fill: none; stroke: #ff0000; stroke-width: 1.5"/>
    <path d="M 274.135824 191.584464 
L 274.135824 191.005245 
" clip-path="url(#pce82da7ea4)" style="fill: none; stroke: #ff0000; stroke-width: 1.5"/>
    <path d="M 277.119781 193.06564 
L 277.119781 192.485761 
" clip-path="url(#pce82da7ea4)" style="fill: none; stroke: #ff0000; stroke-width: 1.5"/>
    <path d="M 280.103738 194.523306 
L 280.103738 193.941871 
" clip-path="url(#pce82da7ea4)" style="fill: none; stroke: #ff0000; stroke-width: 1.5"/>
    <path d="M 283.087696 195.958198 
L 283.087696 195.374704 
" clip-path="url(#pce82da7ea4)" style="fill: none; stroke: #ff0000; stroke-width: 1.5"/>
    <path d="M 286.071653 197.371124 
L 286.071653 196.785487 
" clip-path="url(#pce82da7ea4)" style="fill: none; stroke: #ff0000; stroke-width: 1.5"/>
    <path d="M 289.05561 198.763009 
L 289.05561 198.175535 
" clip-path="url(#pce82da7ea4)" style="fill: none; stroke: #ff0000; stroke-width: 1.5"/>
    <path d="M 292.039567 200.134929 
L 292.039567 199.546231 
" clip-path="url(#pce82da7ea4)" style="fill: none; stroke: #ff0000; stroke-width: 1.5"/>
    <path d="M 295.023524 201.488124 
L 295.023524 200.899005 
" clip-path="url(#pce82da7ea4)" style="fill: none; stroke: #ff0000; stroke-width: 1.5"/>
    <path d="M 298.007482 202.824 
L 298.007482 202.235303 
" clip-path="url(#pce82da7ea4)" style="fill: none; stroke: #ff0000; stroke-width: 1.5"/>
    <path d="M 300.991439 204.144105 
L 300.991439 203.55657 
" clip-path="url(#pce82da7ea4)" style="fill: none; stroke: #ff0000; stroke-width: 1.5"/>
    <path d="M 303.975396 205.450092 
L 303.975396 204.864222 
" clip-path="url(#pce82da7ea4)" style="fill: none; stroke: #ff0000; stroke-width: 1.5"/>
    <path d="M 306.959353 206.743661 
L 306.959353 206.159628 
" clip-path="url(#pce82da7ea4)" style="fill: none; stroke: #ff0000; stroke-width: 1.5"/>
    <path d="M 309.94331 208.026501 
L 309.94331 207.444102 
" clip-path="url(#pce82da7ea4)" style="fill: none; stroke: #ff0000; stroke-width: 1.5"/>
    <path d="M 312.927268 209.30021 
L 312.927268 208.718892 
" clip-path="url(#pce82da7ea4)" style="fill: none; stroke: #ff0000; stroke-width: 1.5"/>
    <path d="M 315.911225 210.566227 
L 315.911225 209.985173 
" clip-path="url(#pce82da7ea4)" style="fill: none; stroke: #ff0000; stroke-width: 1.5"/>
    <path d="M 318.895182 211.825769 
L 318.895182 211.244048 
" clip-path="url(#pce82da7ea4)" style="fill: none; stroke: #ff0000; stroke-width: 1.5"/>
    <path d="M 321.879139 213.079776 
L 321.879139 212.496534 
" clip-path="url(#pce82da7ea4)" style="fill: none; stroke: #ff0000; stroke-width: 1.5"/>
    <path d="M 324.863097 214.328891 
L 324.863097 213.743553 
" clip-path="url(#pce82da7ea4)" style="fill: none; stroke: #ff0000; stroke-width: 1.5"/>
    <path d="M 327.847054 215.573455 
L 327.847054 214.985903 
" clip-path="url(#pce82da7ea4)" style="fill: none; stroke: #ff0000; stroke-width: 1.5"/>
    <path d="M 330.831011 216.813528 
L 330.831011 216.224238 
" clip-path="url(#pce82da7ea4)" style="fill: none; stroke: #ff0000; stroke-width: 1.5"/>
    <path d="M 333.814968 218.048928 
L 333.814968 217.459042 
" clip-path="url(#pce82da7ea4)" style="fill: none; stroke: #ff0000; stroke-width: 1.5"/>
    <path d="M 336.798925 219.279288 
L 336.798925 218.690607 
" clip-path="url(#pce82da7ea4)" style="fill: none; stroke: #ff0000; stroke-width: 1.5"/>
    <path d="M 339.782883 220.50411 
L 339.782883 219.919023 
" clip-path="url(#pce82da7ea4)" style="fill: none; stroke: #ff0000; stroke-width: 1.5"/>
    <path d="M 342.76684 221.722831 
L 342.76684 221.144179 
" clip-path="url(#pce82da7ea4)" style="fill: none; stroke: #ff0000; stroke-width: 1.5"/>
    <path d="M 345.750797 222.934876 
L 345.750797 222.365778 
" clip-path="url(#pce82da7ea4)" style="fill: none; stroke: #ff0000; stroke-width: 1.5"/>
    <path d="M 348.734754 224.139712 
L 348.734754 223.583354 
" clip-path="url(#pce82da7ea4)" style="fill: none; stroke: #ff0000; stroke-width: 1.5"/>
    <path d="M 351.718712 225.336885 
L 351.718712 224.796306 
" clip-path="url(#pce82da7ea4)" style="fill: none; stroke: #ff0000; stroke-width: 1.5"/>
    <path d="M 354.702669 226.526055 
L 354.702669 226.003931 
" clip-path="url(#pce82da7ea4)" style="fill: none; stroke: #ff0000; stroke-width: 1.5"/>
    <path d="M 357.686626 227.707016 
L 357.686626 227.205465 
" clip-path="url(#pce82da7ea4)" style="fill: none; stroke: #ff0000; stroke-width: 1.5"/>
    <path d="M 360.670583 228.879701 
L 360.670583 228.400117 
" clip-path="url(#pce82da7ea4)" style="fill: none; stroke: #ff0000; stroke-width: 1.5"/>
    <path d="M 363.65454 230.044176 
L 363.65454 229.58711 
" clip-path="url(#pce82da7ea4)" style="fill: none; stroke: #ff0000; stroke-width: 1.5"/>
    <path d="M 366.638498 231.20063 
L 366.638498 230.765716 
" clip-path="url(#pce82da7ea4)" style="fill: none; stroke: #ff0000; stroke-width: 1.5"/>
    <path d="M 369.622455 232.349338 
L 369.622455 231.935295 
" clip-path="url(#pce82da7ea4)" style="fill: none; stroke: #ff0000; stroke-width: 1.5"/>
    <path d="M 372.606412 233.490631 
L 372.606412 233.095327 
" clip-path="url(#pce82da7ea4)" style="fill: none; stroke: #ff0000; stroke-width: 1.5"/>
    <path d="M 375.590369 234.624851 
L 375.590369 234.245443 
" clip-path="url(#pce82da7ea4)" style="fill: none; stroke: #ff0000; stroke-width: 1.5"/>
    <path d="M 378.574327 235.752312 
L 378.574327 235.385452 
" clip-path="url(#pce82da7ea4)" style="fill: none; stroke: #ff0000; stroke-width: 1.5"/>
    <path d="M 381.558284 236.87327 
L 381.558284 236.515345 
" clip-path="url(#pce82da7ea4)" style="fill: none; stroke: #ff0000; stroke-width: 1.5"/>
    <path d="M 384.542241 237.987917 
L 384.542241 237.63529 
" clip-path="url(#pce82da7ea4)" style="fill: none; stroke: #ff0000; stroke-width: 1.5"/>
    <path d="M 387.526198 239.096382 
L 387.526198 238.745599 
" clip-path="url(#pce82da7ea4)" style="fill: none; stroke: #ff0000; stroke-width: 1.5"/>
    <path d="M 390.510155 240.198768 
L 390.510155 239.846685 
" clip-path="url(#pce82da7ea4)" style="fill: none; stroke: #ff0000; stroke-width: 1.5"/>
    <path d="M 393.494113 241.29517 
L 393.494113 240.939022 
" clip-path="url(#pce82da7ea4)" style="fill: none; stroke: #ff0000; stroke-width: 1.5"/>
    <path d="M 396.47807 242.385709 
L 396.47807 242.023105 
" clip-path="url(#pce82da7ea4)" style="fill: none; stroke: #ff0000; stroke-width: 1.5"/>
    <path d="M 399.462027 243.470538 
L 399.462027 243.099433 
" clip-path="url(#pce82da7ea4)" style="fill: none; stroke: #ff0000; stroke-width: 1.5"/>
    <path d="M 402.445984 244.549844 
L 402.445984 244.168501 
" clip-path="url(#pce82da7ea4)" style="fill: none; stroke: #ff0000; stroke-width: 1.5"/>
    <path d="M 405.429942 245.62384 
L 405.429942 245.23081 
" clip-path="url(#pce82da7ea4)" style="fill: none; stroke: #ff0000; stroke-width: 1.5"/>
    <path d="M 408.413899 246.692753 
L 408.413899 246.286871 
" clip-path="url(#pce82da7ea4)" style="fill: none; stroke: #ff0000; stroke-width: 1.5"/>
    <path d="M 411.397856 247.756809 
L 411.397856 247.337218 
" clip-path="url(#pce82da7ea4)" style="fill: none; stroke: #ff0000; stroke-width: 1.5"/>
    <path d="M 414.381813 248.816234 
L 414.381813 248.38241 
" clip-path="url(#pce82da7ea4)" style="fill: none; stroke: #ff0000; stroke-width: 1.5"/>
    <path d="M 417.36577 249.871239 
L 417.36577 249.423033 
" clip-path="url(#pce82da7ea4)" style="fill: none; stroke: #ff0000; stroke-width: 1.5"/>
    <path d="M 420.349728 250.922031 
L 420.349728 250.459693 
" clip-path="url(#pce82da7ea4)" style="fill: none; stroke: #ff0000; stroke-width: 1.5"/>
    <path d="M 423.333685 251.968813 
L 423.333685 251.493002 
" clip-path="url(#pce82da7ea4)" style="fill: none; stroke: #ff0000; stroke-width: 1.5"/>
    <path d="M 426.317642 253.011787 
L 426.317642 252.523565 
" clip-path="url(#pce82da7ea4)" style="fill: none; stroke: #ff0000; stroke-width: 1.5"/>
   </g>
   <g id="line2d_16">
    <path d="M 71.226733 19.95926 
L 74.21069 20.602696 
L 77.194647 21.249527 
L 80.178605 21.90013 
L 83.162562 22.554943 
L 86.146519 23.214478 
L 89.130476 23.879331 
L 92.114433 24.550194 
L 95.098391 25.22787 
L 98.082348 25.913291 
L 101.066305 26.607545 
L 104.050262 27.311899 
L 107.03422 28.027842 
L 110.018177 28.75713 
L 113.002134 29.501856 
L 115.986091 30.264532 
L 118.970048 31.048212 
L 121.954006 31.856658 
L 124.937963 32.694573 
L 127.92192 33.567952 
L 130.905877 34.484609 
L 133.889835 35.455012 
L 136.873792 36.493683 
L 139.857749 37.621645 
L 142.841706 38.870931 
L 145.825663 40.293203 
L 148.809621 41.976699 
L 151.793578 44.079714 
L 154.777535 46.89497 
L 157.761492 50.962266 
L 160.74545 57.218175 
L 163.729407 67.023846 
L 166.713364 81.576273 
L 169.697321 100.301103 
L 172.681278 119.820543 
L 175.665236 136.169059 
L 178.649193 147.836131 
L 181.63315 155.623562 
L 184.617107 160.921007 
L 187.601065 164.789302 
L 190.585022 167.859596 
L 193.568979 170.472901 
L 196.552936 172.80886 
L 199.536893 174.963543 
L 202.520851 176.990453 
L 205.504808 178.921134 
L 208.488765 180.775435 
L 211.472722 182.566696 
L 214.456679 184.304458 
L 217.440637 185.995937 
L 220.424594 187.646856 
L 223.408551 189.261946 
L 226.392508 190.845251 
L 229.376466 192.400319 
L 232.360423 193.930316 
L 235.34438 195.438098 
L 238.328337 196.92624 
L 241.312294 198.39705 
L 244.296252 199.852561 
L 247.280209 201.294527 
L 250.264166 202.724402 
L 253.248123 204.14334 
L 256.232081 205.552185 
L 259.216038 206.951487 
L 262.199995 208.341513 
L 265.183952 209.722286 
L 268.167909 211.093619 
L 271.151867 212.455169 
L 274.135824 213.806486 
L 277.119781 215.147075 
L 280.103738 216.476443 
L 283.087696 217.794152 
L 286.071653 219.099858 
L 289.05561 220.39334 
L 292.039567 221.67452 
L 295.023524 222.94347 
L 298.007482 224.200409 
L 300.991439 225.44569 
L 303.975396 226.679782 
L 306.959353 227.903242 
L 309.94331 229.116688 
L 312.927268 230.320772 
L 315.911225 231.516147 
L 318.895182 232.703447 
L 321.879139 233.883262 
L 324.863097 235.056122 
L 327.847054 236.222486 
L 330.831011 237.382732 
L 333.814968 238.537158 
L 336.798925 239.68598 
L 339.782883 240.829341 
L 342.76684 241.967315 
L 345.750797 243.099921 
L 348.734754 244.227129 
L 351.718712 245.348875 
L 354.702669 246.465069 
L 357.686626 247.57561 
L 360.670583 248.68039 
L 363.65454 249.779307 
L 366.638498 250.87227 
L 369.622455 251.959207 
L 372.606412 253.040071 
L 375.590369 254.114842 
L 378.574327 255.183535 
L 381.558284 256.246199 
L 384.542241 257.302921 
L 387.526198 258.353829 
L 390.510155 259.399087 
L 393.494113 260.438898 
L 396.47807 261.473499 
L 399.462027 262.503159 
L 402.445984 263.528171 
L 405.429942 264.548848 
L 408.413899 265.565512 
L 411.397856 266.578486 
L 414.381813 267.588087 
L 417.36577 268.594612 
L 420.349728 269.598332 
L 423.333685 270.59948 
L 426.317642 271.598244 
" clip-path="url(#pce82da7ea4)" style="fill: none; stroke: #1f77b4; stroke-width: 1.5; stroke-linecap: square"/>
   </g>
   <g id="line2d_17">
    <path d="M 71.226733 20.092068 
L 74.21069 20.737475 
L 77.194647 21.385743 
L 80.178605 22.037034 
L 83.162562 22.691539 
L 86.146519 23.349493 
L 89.130476 24.01118 
L 92.114433 24.676945 
L 95.098391 25.347209 
L 98.082348 26.022488 
L 101.066305 26.703414 
L 104.050262 27.390767 
L 107.03422 28.085514 
L 110.018177 28.788861 
L 113.002134 29.502318 
L 115.986091 30.227802 
L 118.970048 30.967759 
L 121.954006 31.725358 
L 124.937963 32.504752 
L 127.92192 33.311467 
L 130.905877 34.15297 
L 133.889835 35.0395 
L 136.873792 35.985297 
L 139.857749 37.010418 
L 142.841706 38.143376 
L 145.825663 39.42493 
L 148.809621 40.913328 
L 151.793578 42.691112 
L 154.777535 44.872889 
L 157.761492 47.611699 
L 160.74545 51.098226 
L 163.729407 55.54222 
L 166.713364 61.122979 
L 169.697321 67.90528 
L 172.681278 75.748867 
L 175.665236 84.278193 
L 178.649193 92.969261 
L 181.63315 101.322474 
L 184.617107 109.0086 
L 187.601065 115.904607 
L 190.585022 122.036061 
L 193.568979 127.495213 
L 196.552936 132.383373 
L 199.536893 136.78662 
L 202.520851 140.773049 
L 205.504808 144.398077 
L 208.488765 147.70986 
L 211.472722 150.752271 
L 214.456679 153.565652 
L 217.440637 156.186458 
L 220.424594 158.646676 
L 223.408551 160.973517 
L 226.392508 163.189486 
L 229.376466 165.312766 
L 232.360423 167.357799 
L 235.34438 169.33592 
L 238.328337 171.255976 
L 241.312294 173.124873 
L 244.296252 174.948019 
L 247.280209 176.729687 
L 250.264166 178.473279 
L 253.248123 180.18153 
L 256.232081 181.856657 
L 259.216038 183.500471 
L 262.199995 185.114466 
L 265.183952 186.699891 
L 268.167909 188.257813 
L 271.151867 189.789176 
L 274.135824 191.294855 
L 277.119781 192.7757 
L 280.103738 194.232588 
L 283.087696 195.666451 
L 286.071653 197.078306 
L 289.05561 198.469272 
L 292.039567 199.84058 
L 295.023524 201.193564 
L 298.007482 202.529652 
L 300.991439 203.850338 
L 303.975396 205.157157 
L 306.959353 206.451645 
L 309.94331 207.735302 
L 312.927268 209.009551 
L 315.911225 210.2757 
L 318.895182 211.534908 
L 321.879139 212.788155 
L 324.863097 214.036222 
L 327.847054 215.279679 
L 330.831011 216.518883 
L 333.814968 217.753985 
L 336.798925 218.984947 
L 339.782883 220.211566 
L 342.76684 221.433505 
L 345.750797 222.650327 
L 348.734754 223.861533 
L 351.718712 225.066595 
L 354.702669 226.264993 
L 357.686626 227.456241 
L 360.670583 228.639909 
L 363.65454 229.815643 
L 366.638498 230.983173 
L 369.622455 232.142316 
L 372.606412 233.292979 
L 375.590369 234.435147 
L 378.574327 235.568882 
L 381.558284 236.694308 
L 384.542241 237.811603 
L 387.526198 238.92099 
L 390.510155 240.022726 
L 393.494113 241.117096 
L 396.47807 242.204407 
L 399.462027 243.284985 
L 402.445984 244.359173 
L 405.429942 245.427325 
L 408.413899 246.489812 
L 411.397856 247.547014 
L 414.381813 248.599322 
L 417.36577 249.647136 
L 420.349728 250.690862 
L 423.333685 251.730907 
L 426.317642 252.767676 
" clip-path="url(#pce82da7ea4)" style="fill: none; stroke: #ff7f0e; stroke-width: 1.5; stroke-linecap: square"/>
   </g>
   <g id="patch_3">
    <path d="M 53.472188 284.4 
L 53.472188 7.2 
" style="fill: none; stroke: #000000; stroke-width: 0.8; stroke-linejoin: miter; stroke-linecap: square"/>
   </g>
   <g id="patch_4">
    <path d="M 444.072188 284.4 
L 444.072188 7.2 
" style="fill: none; stroke: #000000; stroke-width: 0.8; stroke-linejoin: miter; stroke-linecap: square"/>
   </g>
   <g id="patch_5">
    <path d="M 53.472187 284.4 
L 444.072187 284.4 
" style="fill: none; stroke: #000000; stroke-width: 0.8; stroke-linejoin: miter; stroke-linecap: square"/>
   </g>
   <g id="patch_6">
    <path d="M 53.472187 7.2 
L 444.072187 7.2 
" style="fill: none; stroke: #000000; stroke-width: 0.8; stroke-linejoin: miter; stroke-linecap: square"/>
   </g>
   <g id="legend_1">
    <g id="patch_7">
     <path d="M 361.063438 48.291875 
L 436.372188 48.291875 
Q 438.572188 48.291875 438.572188 46.091875 
L 438.572188 14.9 
Q 438.572188 12.7 436.372188 12.7 
L 361.063438 12.7 
Q 358.863438 12.7 358.863438 14.9 
L 358.863438 46.091875 
Q 358.863438 48.291875 361.063438 48.291875 
z
" style="fill: #ffffff; opacity: 0.8; stroke: #cccccc; stroke-linejoin: miter"/>
    </g>
    <g id="LineCollection_3">
     <path d="M 374.263438 27.108281 
L 374.263438 16.108281 
" style="fill: none; stroke: #ff0000; stroke-width: 1.5"/>
    </g>
    <g id="line2d_18">
     <path d="M 363.263438 21.608281 
L 385.263438 21.608281 
" style="fill: none; stroke: #1f77b4; stroke-width: 1.5; stroke-linecap: square"/>
    </g>
    <g id="line2d_19"/>
    <g id="text_18">
     <!-- notwist -->
     <g transform="translate(394.063438 25.458281) scale(0.11 -0.11)">
      <defs>
       <path id="DejaVuSans-6e" d="M 3513 2113 
L 3513 0 
L 2938 0 
L 2938 2094 
Q 2938 2591 2744 2837 
Q 2550 3084 2163 3084 
Q 1697 3084 1428 2787 
Q 1159 2491 1159 1978 
L 1159 0 
L 581 0 
L 581 3500 
L 1159 3500 
L 1159 2956 
Q 1366 3272 1645 3428 
Q 1925 3584 2291 3584 
Q 2894 3584 3203 3211 
Q 3513 2838 3513 2113 
z
" transform="scale(0.015625)"/>
       <path id="DejaVuSans-6f" d="M 1959 3097 
Q 1497 3097 1228 2736 
Q 959 2375 959 1747 
Q 959 1119 1226 758 
Q 1494 397 1959 397 
Q 2419 397 2687 759 
Q 2956 1122 2956 1747 
Q 2956 2369 2687 2733 
Q 2419 3097 1959 3097 
z
M 1959 3584 
Q 2709 3584 3137 3096 
Q 3566 2609 3566 1747 
Q 3566 888 3137 398 
Q 2709 -91 1959 -91 
Q 1206 -91 779 398 
Q 353 888 353 1747 
Q 353 2609 779 3096 
Q 1206 3584 1959 3584 
z
" transform="scale(0.015625)"/>
       <path id="DejaVuSans-74" d="M 1172 4494 
L 1172 3500 
L 2356 3500 
L 2356 3053 
L 1172 3053 
L 1172 1153 
Q 1172 725 1289 603 
Q 1406 481 1766 481 
L 2356 481 
L 2356 0 
L 1766 0 
Q 1100 0 847 248 
Q 594 497 594 1153 
L 594 3053 
L 172 3053 
L 172 3500 
L 594 3500 
L 594 4494 
L 1172 4494 
z
" transform="scale(0.015625)"/>
       <path id="DejaVuSans-77" d="M 269 3500 
L 844 3500 
L 1563 769 
L 2278 3500 
L 2956 3500 
L 3675 769 
L 4391 3500 
L 4966 3500 
L 4050 0 
L 3372 0 
L 2619 2869 
L 1863 0 
L 1184 0 
L 269 3500 
z
" transform="scale(0.015625)"/>
       <path id="DejaVuSans-69" d="M 603 3500 
L 1178 3500 
L 1178 0 
L 603 0 
L 603 3500 
z
M 603 4863 
L 1178 4863 
L 1178 4134 
L 603 4134 
L 603 4863 
z
" transform="scale(0.015625)"/>
       <path id="DejaVuSans-73" d="M 2834 3397 
L 2834 2853 
Q 2591 2978 2328 3040 
Q 2066 3103 1784 3103 
Q 1356 3103 1142 2972 
Q 928 2841 928 2578 
Q 928 2378 1081 2264 
Q 1234 2150 1697 2047 
L 1894 2003 
Q 2506 1872 2764 1633 
Q 3022 1394 3022 966 
Q 3022 478 2636 193 
Q 2250 -91 1575 -91 
Q 1294 -91 989 -36 
Q 684 19 347 128 
L 347 722 
Q 666 556 975 473 
Q 1284 391 1588 391 
Q 1994 391 2212 530 
Q 2431 669 2431 922 
Q 2431 1156 2273 1281 
Q 2116 1406 1581 1522 
L 1381 1569 
Q 847 1681 609 1914 
Q 372 2147 372 2553 
Q 372 3047 722 3315 
Q 1072 3584 1716 3584 
Q 2034 3584 2315 3537 
Q 2597 3491 2834 3397 
z
" transform="scale(0.015625)"/>
      </defs>
      <use xlink:href="#DejaVuSans-6e"/>
      <use xlink:href="#DejaVuSans-6f" x="63.378906"/>
      <use xlink:href="#DejaVuSans-74" x="124.560547"/>
      <use xlink:href="#DejaVuSans-77" x="163.769531"/>
      <use xlink:href="#DejaVuSans-69" x="245.556641"/>
      <use xlink:href="#DejaVuSans-73" x="273.339844"/>
      <use xlink:href="#DejaVuSans-74" x="325.439453"/>
     </g>
    </g>
    <g id="LineCollection_4">
     <path d="M 374.263438 43.254219 
L 374.263438 32.254219 
" style="fill: none; stroke: #ff0000; stroke-width: 1.5"/>
    </g>
    <g id="line2d_20">
     <path d="M 363.263438 37.754219 
L 385.263438 37.754219 
" style="fill: none; stroke: #ff7f0e; stroke-width: 1.5; stroke-linecap: square"/>
    </g>
    <g id="line2d_21"/>
    <g id="text_19">
     <!-- twist -->
     <g transform="translate(394.063438 41.604219) scale(0.11 -0.11)">
      <use xlink:href="#DejaVuSans-74"/>
      <use xlink:href="#DejaVuSans-77" x="39.208984"/>
      <use xlink:href="#DejaVuSans-69" x="120.996094"/>
      <use xlink:href="#DejaVuSans-73" x="148.779297"/>
      <use xlink:href="#DejaVuSans-74" x="200.878906"/>
     </g>
    </g>
   </g>
  </g>
  <g id="text_20">
   <!-- M=10 Jackknife bins -->
   <g transform="translate(40.872188 327.6) scale(0.11 -0.11)">
    <defs>
     <path id="DejaVuSans-Oblique-4d" d="M 1081 4666 
L 2028 4666 
L 2572 1522 
L 4378 4666 
L 5350 4666 
L 4441 0 
L 3828 0 
L 4622 4091 
L 2791 897 
L 2175 897 
L 1581 4103 
L 788 0 
L 172 0 
L 1081 4666 
z
" transform="scale(0.015625)"/>
     <path id="DejaVuSans-Oblique-3d" d="M 678 2906 
L 4684 2906 
L 4684 2381 
L 678 2381 
L 678 2906 
z
M 678 1631 
L 4684 1631 
L 4684 1100 
L 678 1100 
L 678 1631 
z
" transform="scale(0.015625)"/>
     <path id="DejaVuSans-Oblique-31" d="M 416 531 
L 1447 531 
L 2144 4122 
L 978 3897 
L 1088 4441 
L 2247 4666 
L 2881 4666 
L 2075 531 
L 3103 531 
L 3003 0 
L 313 0 
L 416 531 
z
" transform="scale(0.015625)"/>
     <path id="DejaVuSans-Oblique-30" d="M 2444 4750 
Q 3078 4750 3414 4328 
Q 3750 3906 3750 3116 
Q 3750 2516 3592 1923 
Q 3434 1331 3150 863 
Q 2859 394 2467 151 
Q 2075 -91 1600 -91 
Q 988 -91 653 334 
Q 319 759 319 1544 
Q 319 2138 480 2733 
Q 641 3328 928 3794 
Q 1216 4263 1602 4506 
Q 1988 4750 2444 4750 
z
M 2406 4250 
Q 2169 4250 1955 4123 
Q 1741 3997 1569 3750 
Q 1281 3338 1111 2720 
Q 941 2103 941 1453 
Q 941 938 1123 673 
Q 1306 409 1663 409 
Q 1913 409 2125 536 
Q 2338 663 2509 909 
Q 2794 1319 2961 1936 
Q 3128 2553 3128 3206 
Q 3128 3722 2945 3986 
Q 2763 4250 2406 4250 
z
" transform="scale(0.015625)"/>
     <path id="DejaVuSans-Oblique-20" transform="scale(0.015625)"/>
     <path id="DejaVuSans-Oblique-4a" d="M 1069 4666 
L 1703 4666 
L 856 325 
Q 691 -522 298 -901 
Q -94 -1281 -800 -1281 
L -1050 -1281 
L -947 -750 
L -750 -750 
Q -328 -750 -109 -509 
Q 109 -269 225 325 
L 1069 4666 
z
" transform="scale(0.015625)"/>
     <path id="DejaVuSans-Oblique-61" d="M 3438 1997 
L 3047 0 
L 2472 0 
L 2578 531 
Q 2325 219 2001 64 
Q 1678 -91 1281 -91 
Q 834 -91 548 182 
Q 263 456 263 884 
Q 263 1497 752 1853 
Q 1241 2209 2100 2209 
L 2900 2209 
L 2931 2363 
Q 2938 2388 2941 2417 
Q 2944 2447 2944 2509 
Q 2944 2788 2717 2942 
Q 2491 3097 2081 3097 
Q 1800 3097 1504 3025 
Q 1209 2953 897 2809 
L 997 3341 
Q 1322 3463 1633 3523 
Q 1944 3584 2234 3584 
Q 2853 3584 3176 3315 
Q 3500 3047 3500 2534 
Q 3500 2431 3484 2292 
Q 3469 2153 3438 1997 
z
M 2816 1759 
L 2241 1759 
Q 1534 1759 1195 1570 
Q 856 1381 856 984 
Q 856 709 1029 553 
Q 1203 397 1509 397 
Q 1978 397 2328 733 
Q 2678 1069 2791 1631 
L 2816 1759 
z
" transform="scale(0.015625)"/>
     <path id="DejaVuSans-Oblique-63" d="M 3431 3366 
L 3316 2797 
Q 3109 2947 2876 3022 
Q 2644 3097 2394 3097 
Q 2119 3097 1870 3000 
Q 1622 2903 1453 2725 
Q 1184 2453 1037 2087 
Q 891 1722 891 1331 
Q 891 859 1127 628 
Q 1363 397 1844 397 
Q 2081 397 2348 469 
Q 2616 541 2906 684 
L 2797 116 
Q 2547 13 2283 -39 
Q 2019 -91 1741 -91 
Q 1044 -91 669 257 
Q 294 606 294 1253 
Q 294 1797 489 2255 
Q 684 2713 1069 3078 
Q 1331 3328 1684 3456 
Q 2038 3584 2456 3584 
Q 2700 3584 2940 3529 
Q 3181 3475 3431 3366 
z
" transform="scale(0.015625)"/>
     <path id="DejaVuSans-Oblique-6b" d="M 1172 4863 
L 1747 4863 
L 1197 2028 
L 3169 3500 
L 3916 3500 
L 1716 1825 
L 3322 0 
L 2625 0 
L 1131 1709 
L 800 0 
L 225 0 
L 1172 4863 
z
" transform="scale(0.015625)"/>
     <path id="DejaVuSans-Oblique-6e" d="M 3566 2113 
L 3156 0 
L 2578 0 
L 2988 2091 
Q 3016 2238 3031 2350 
Q 3047 2463 3047 2528 
Q 3047 2791 2881 2937 
Q 2716 3084 2419 3084 
Q 1956 3084 1622 2776 
Q 1288 2469 1184 1941 
L 800 0 
L 225 0 
L 903 3500 
L 1478 3500 
L 1363 2950 
Q 1603 3253 1940 3418 
Q 2278 3584 2650 3584 
Q 3113 3584 3367 3334 
Q 3622 3084 3622 2631 
Q 3622 2519 3608 2391 
Q 3594 2263 3566 2113 
z
" transform="scale(0.015625)"/>
     <path id="DejaVuSans-Oblique-69" d="M 1172 4863 
L 1747 4863 
L 1606 4134 
L 1031 4134 
L 1172 4863 
z
M 909 3500 
L 1484 3500 
L 800 0 
L 225 0 
L 909 3500 
z
" transform="scale(0.015625)"/>
     <path id="DejaVuSans-Oblique-66" d="M 3059 4863 
L 2969 4384 
L 2419 4384 
Q 2106 4384 1964 4261 
Q 1822 4138 1753 3809 
L 1691 3500 
L 2638 3500 
L 2553 3053 
L 1606 3053 
L 1013 0 
L 434 0 
L 1031 3053 
L 481 3053 
L 563 3500 
L 1113 3500 
L 1159 3744 
Q 1278 4363 1576 4613 
Q 1875 4863 2516 4863 
L 3059 4863 
z
" transform="scale(0.015625)"/>
     <path id="DejaVuSans-Oblique-65" d="M 3078 2063 
Q 3088 2113 3092 2166 
Q 3097 2219 3097 2272 
Q 3097 2653 2873 2875 
Q 2650 3097 2266 3097 
Q 1838 3097 1509 2826 
Q 1181 2556 1013 2059 
L 3078 2063 
z
M 3578 1613 
L 903 1613 
Q 884 1494 878 1425 
Q 872 1356 872 1306 
Q 872 872 1139 634 
Q 1406 397 1894 397 
Q 2269 397 2603 481 
Q 2938 566 3225 728 
L 3116 159 
Q 2806 34 2476 -28 
Q 2147 -91 1806 -91 
Q 1078 -91 686 257 
Q 294 606 294 1247 
Q 294 1794 489 2264 
Q 684 2734 1063 3103 
Q 1306 3334 1642 3459 
Q 1978 3584 2356 3584 
Q 2950 3584 3301 3228 
Q 3653 2872 3653 2272 
Q 3653 2128 3634 1964 
Q 3616 1800 3578 1613 
z
" transform="scale(0.015625)"/>
     <path id="DejaVuSans-Oblique-62" d="M 3169 2138 
Q 3169 2591 2961 2847 
Q 2753 3103 2388 3103 
Q 2122 3103 1889 2973 
Q 1656 2844 1484 2597 
Q 1303 2338 1198 1995 
Q 1094 1653 1094 1313 
Q 1094 881 1298 636 
Q 1503 391 1863 391 
Q 2134 391 2365 517 
Q 2597 644 2772 891 
Q 2950 1147 3059 1487 
Q 3169 1828 3169 2138 
z
M 1381 2969 
Q 1594 3256 1914 3420 
Q 2234 3584 2584 3584 
Q 3122 3584 3439 3221 
Q 3756 2859 3756 2241 
Q 3756 1734 3570 1259 
Q 3384 784 3041 416 
Q 2816 172 2522 40 
Q 2228 -91 1906 -91 
Q 1566 -91 1316 65 
Q 1066 222 909 531 
L 806 0 
L 231 0 
L 1178 4863 
L 1753 4863 
L 1381 2969 
z
" transform="scale(0.015625)"/>
     <path id="DejaVuSans-Oblique-73" d="M 3200 3397 
L 3091 2853 
Q 2863 2978 2609 3040 
Q 2356 3103 2088 3103 
Q 1634 3103 1373 2948 
Q 1113 2794 1113 2528 
Q 1113 2219 1719 2053 
Q 1766 2041 1788 2034 
L 1972 1978 
Q 2547 1819 2739 1644 
Q 2931 1469 2931 1166 
Q 2931 609 2489 259 
Q 2047 -91 1331 -91 
Q 1053 -91 747 -37 
Q 441 16 72 128 
L 184 722 
Q 500 559 806 475 
Q 1113 391 1394 391 
Q 1816 391 2080 572 
Q 2344 753 2344 1031 
Q 2344 1331 1650 1516 
L 1591 1531 
L 1394 1581 
Q 956 1697 753 1886 
Q 550 2075 550 2369 
Q 550 2928 970 3256 
Q 1391 3584 2113 3584 
Q 2397 3584 2667 3537 
Q 2938 3491 3200 3397 
z
" transform="scale(0.015625)"/>
    </defs>
    <use xlink:href="#DejaVuSans-Oblique-4d"/>
    <use xlink:href="#DejaVuSans-Oblique-3d" x="86.279297"/>
    <use xlink:href="#DejaVuSans-Oblique-31" x="170.068359"/>
    <use xlink:href="#DejaVuSans-Oblique-30" x="233.691406"/>
    <use xlink:href="#DejaVuSans-Oblique-20" x="297.314453"/>
    <use xlink:href="#DejaVuSans-Oblique-4a" x="329.101562"/>
    <use xlink:href="#DejaVuSans-Oblique-61" x="358.59375"/>
    <use xlink:href="#DejaVuSans-Oblique-63" x="419.873047"/>
    <use xlink:href="#DejaVuSans-Oblique-6b" x="474.853516"/>
    <use xlink:href="#DejaVuSans-Oblique-6b" x="532.763672"/>
    <use xlink:href="#DejaVuSans-Oblique-6e" x="590.673828"/>
    <use xlink:href="#DejaVuSans-Oblique-69" x="654.052734"/>
    <use xlink:href="#DejaVuSans-Oblique-66" x="681.835938"/>
    <use xlink:href="#DejaVuSans-Oblique-65" x="717.041016"/>
    <use xlink:href="#DejaVuSans-Oblique-20" x="778.564453"/>
    <use xlink:href="#DejaVuSans-Oblique-62" x="810.351562"/>
    <use xlink:href="#DejaVuSans-Oblique-69" x="873.828125"/>
    <use xlink:href="#DejaVuSans-Oblique-6e" x="901.611328"/>
    <use xlink:href="#DejaVuSans-Oblique-73" x="964.990234"/>
   </g>
  </g>
 </g>
 <defs>
  <clipPath id="pce82da7ea4">
   <rect x="53.472188" y="7.2" width="390.6" height="277.2"/>
  </clipPath>
 </defs>
</svg>
