<?xml version="1.0" encoding="utf-8" standalone="no"?>
<!DOCTYPE svg PUBLIC "-//W3C//DTD SVG 1.1//EN"
  "http://www.w3.org/Graphics/SVG/1.1/DTD/svg11.dtd">
<svg xmlns:xlink="http://www.w3.org/1999/xlink" width="720pt" height="432pt" viewBox="0 0 720 432" xmlns="http://www.w3.org/2000/svg" version="1.1">
 <metadata>
  <rdf:RDF xmlns:dc="http://purl.org/dc/elements/1.1/" xmlns:cc="http://creativecommons.org/ns#" xmlns:rdf="http://www.w3.org/1999/02/22-rdf-syntax-ns#">
   <cc:Work>
    <dc:type rdf:resource="http://purl.org/dc/dcmitype/StillImage"/>
    <dc:date>2025-03-24T12:07:28.107026</dc:date>
    <dc:format>image/svg+xml</dc:format>
    <dc:creator>
     <cc:Agent>
      <dc:title>Matplotlib v3.8.0, https://matplotlib.org/</dc:title>
     </cc:Agent>
    </dc:creator>
   </cc:Work>
  </rdf:RDF>
 </metadata>
 <defs>
  <style type="text/css">*{stroke-linejoin: round; stroke-linecap: butt}</style>
 </defs>
 <g id="figure_1">
  <g id="patch_1">
   <path d="M 0 432 
L 720 432 
L 720 0 
L 0 0 
z
" style="fill: #ffffff"/>
  </g>
  <g id="axes_1">
   <g id="patch_2">
    <path d="M 90 384.48 
L 504 384.48 
L 504 51.84 
L 90 51.84 
z
" style="fill: #ffffff"/>
   </g>
   <g id="PolyCollection_1">
    <path d="M 108.818182 369.08689 
L 108.818182 369.08689 
L 110.7 369.08524 
L 112.581818 369.086015 
L 114.463636 369.088648 
L 116.345455 369.091648 
L 118.227273 369.098402 
L 120.109091 369.110373 
L 121.990909 369.123005 
L 123.872727 369.135006 
L 125.754545 369.146847 
L 127.636364 369.157384 
L 129.518182 369.165083 
L 131.4 369.170309 
L 133.281818 369.176121 
L 135.163636 369.187305 
L 137.045455 369.205858 
L 138.927273 369.225882 
L 140.809091 369.237329 
L 142.690909 369.236794 
L 144.572727 369.231351 
L 146.454545 369.230409 
L 148.336364 369.23652 
L 150.218182 369.246215 
L 152.1 369.256567 
L 153.981818 369.268053 
L 155.863636 369.281424 
L 157.745455 369.293284 
L 159.627273 369.298086 
L 161.509091 369.294835 
L 163.390909 369.287788 
L 165.272727 369.280094 
L 167.154545 369.271073 
L 169.036364 369.260532 
L 170.918182 369.252739 
L 172.8 369.257274 
L 174.681818 369.291204 
L 176.563636 369.36 
L 178.445455 369.039132 
L 180.327273 366.155665 
L 182.209091 360.626816 
L 184.090909 354.515685 
L 185.972727 348.289127 
L 187.854545 341.988344 
L 189.736364 335.644807 
L 191.618182 329.284424 
L 193.5 322.951261 
L 195.381818 316.978271 
L 197.263636 312.344344 
L 199.145455 309.291636 
L 201.027273 306.902974 
L 202.909091 304.651233 
L 204.790909 302.464231 
L 206.672727 300.34137 
L 208.554545 298.28524 
L 210.436364 296.294345 
L 212.318182 294.362073 
L 214.2 292.479496 
L 216.081818 290.64038 
L 217.963636 288.843542 
L 219.845455 287.089767 
L 221.727273 285.37728 
L 223.609091 283.700781 
L 225.490909 282.053225 
L 227.372727 280.427894 
L 229.254545 278.82092 
L 231.136364 277.232796 
L 233.018182 275.666643 
L 234.9 274.125735 
L 236.781818 272.613082 
L 238.663636 271.130678 
L 240.545455 269.677104 
L 242.427273 268.247179 
L 244.309091 266.835249 
L 246.190909 265.437388 
L 248.072727 264.050045 
L 249.954545 262.670175 
L 251.836364 261.298071 
L 253.718182 259.936619 
L 255.6 258.587595 
L 257.481818 257.251981 
L 259.363636 255.932284 
L 261.245455 254.630813 
L 263.127273 253.34719 
L 265.009091 252.080184 
L 266.890909 250.8302 
L 268.772727 249.598174 
L 270.654545 248.383316 
L 272.536364 247.18297 
L 274.418182 245.9941 
L 276.3 244.814878 
L 278.181818 243.64531 
L 280.063636 242.485693 
L 281.945455 241.333614 
L 283.827273 240.183525 
L 285.709091 239.031543 
L 287.590909 237.880624 
L 289.472727 236.738391 
L 291.354545 235.609439 
L 293.236364 234.491968 
L 295.118182 233.382275 
L 297 232.280366 
L 298.881818 231.189574 
L 300.763636 230.111684 
L 302.645455 229.045342 
L 304.527273 227.989184 
L 306.409091 226.942826 
L 308.290909 225.904046 
L 310.172727 224.867908 
L 312.054545 223.829639 
L 313.936364 222.787902 
L 315.818182 221.74595 
L 317.7 220.709659 
L 319.581818 219.683512 
L 321.463636 218.6682 
L 323.345455 217.66146 
L 325.227273 216.659986 
L 327.109091 215.660788 
L 328.990909 214.662265 
L 330.872727 213.664692 
L 332.754545 212.669299 
L 334.636364 211.676911 
L 336.518182 210.687808 
L 338.4 209.702514 
L 340.281818 208.722618 
L 342.163636 207.7513 
L 344.045455 206.791999 
L 345.927273 205.845064 
L 347.809091 204.906628 
L 349.690909 203.971488 
L 351.572727 203.035727 
L 353.454545 202.097153 
L 355.336364 201.156122 
L 357.218182 200.216576 
L 359.1 199.284486 
L 360.981818 198.364291 
L 362.863636 197.456401 
L 364.745455 196.557124 
L 366.627273 195.661103 
L 368.509091 194.764958 
L 370.390909 193.869101 
L 372.272727 192.976589 
L 374.154545 192.090526 
L 376.036364 191.211765 
L 377.918182 190.338277 
L 379.8 189.466621 
L 381.681818 188.594346 
L 383.563636 187.721557 
L 385.445455 186.850636 
L 387.327273 185.984239 
L 389.209091 185.1227 
L 391.090909 184.262969 
L 392.972727 183.400751 
L 394.854545 182.53453 
L 396.736364 181.668138 
L 398.618182 180.809367 
L 400.5 179.965231 
L 402.381818 179.137964 
L 404.263636 178.325057 
L 406.145455 177.521539 
L 408.027273 176.721958 
L 409.909091 175.92245 
L 411.790909 175.122143 
L 413.672727 174.321782 
L 415.554545 173.521475 
L 417.436364 172.72052 
L 419.318182 171.917936 
L 421.2 171.112267 
L 423.081818 170.302108 
L 424.963636 169.487539 
L 426.845455 168.670919 
L 428.727273 167.856647 
L 430.609091 167.049932 
L 432.490909 166.254744 
L 434.372727 165.472172 
L 436.254545 164.70017 
L 438.136364 163.934843 
L 440.018182 163.172815 
L 441.9 162.412791 
L 443.781818 161.654633 
L 445.663636 160.897282 
L 447.545455 160.138262 
L 449.427273 159.375349 
L 451.309091 158.60838 
L 453.190909 157.839519 
L 455.072727 157.072386 
L 456.954545 156.310723 
L 458.836364 155.55642 
L 460.718182 154.808225 
L 462.6 154.063211 
L 464.481818 153.319592 
L 466.363636 152.577311 
L 468.245455 151.836506 
L 470.127273 151.097082 
L 472.009091 150.360098 
L 473.890909 149.62822 
L 475.772727 148.903664 
L 477.654545 148.185663 
L 479.536364 147.470389 
L 481.418182 146.753659 
L 483.3 146.034092 
L 485.181818 145.313851 
L 485.181818 143.657837 
L 485.181818 143.657837 
L 483.3 144.36988 
L 481.418182 145.08637 
L 479.536364 145.805614 
L 477.654545 146.526571 
L 475.772727 147.250713 
L 473.890909 147.98076 
L 472.009091 148.717222 
L 470.127273 149.457073 
L 468.245455 150.196636 
L 466.363636 150.935339 
L 464.481818 151.67576 
L 462.6 152.42024 
L 460.718182 153.168908 
L 458.836364 153.9215 
L 456.954545 154.679434 
L 455.072727 155.44424 
L 453.190909 156.214329 
L 451.309091 156.984959 
L 449.427273 157.75164 
L 447.545455 158.512946 
L 445.663636 159.270568 
L 443.781818 160.027629 
L 441.9 160.786893 
L 440.018182 161.549805 
L 438.136364 162.316546 
L 436.254545 163.086672 
L 434.372727 163.860015 
L 432.490909 164.637739 
L 430.609091 165.422565 
L 428.727273 166.217313 
L 426.845455 167.022814 
L 424.963636 167.836874 
L 423.081818 168.654746 
L 421.2 169.471179 
L 419.318182 170.283451 
L 417.436364 171.092666 
L 415.554545 171.901446 
L 413.672727 172.710998 
L 411.790909 173.521016 
L 409.909091 174.331266 
L 408.027273 175.142278 
L 406.145455 175.955365 
L 404.263636 176.772713 
L 402.381818 177.596715 
L 400.5 178.428518 
L 398.618182 179.267516 
L 396.736364 180.112379 
L 394.854545 180.962288 
L 392.972727 181.816956 
L 391.090909 182.675479 
L 389.209091 183.535871 
L 387.327273 184.396388 
L 385.445455 185.256934 
L 383.563636 186.11849 
L 381.681818 186.981729 
L 379.8 187.847066 
L 377.918182 188.715284 
L 376.036364 189.587383 
L 374.154545 190.46447 
L 372.272727 191.347431 
L 370.390909 192.235863 
L 368.509091 193.128097 
L 366.627273 194.022896 
L 364.745455 194.920857 
L 362.863636 195.824597 
L 360.981818 196.737862 
L 359.1 197.663211 
L 357.218182 198.59926 
L 355.336364 199.540266 
L 353.454545 200.479896 
L 351.572727 201.4164 
L 349.690909 202.353463 
L 347.809091 203.295778 
L 345.927273 204.24511 
L 344.045455 205.200973 
L 342.163636 206.163489 
L 340.281818 207.134261 
L 338.4 208.115141 
L 336.518182 209.106708 
L 334.636364 210.10675 
L 332.754545 211.11013 
L 330.872727 212.111712 
L 328.990909 213.109816 
L 327.109091 214.106324 
L 325.227273 215.104179 
L 323.345455 216.105919 
L 321.463636 217.11378 
L 319.581818 218.129449 
L 317.7 219.153408 
L 315.818182 220.184629 
L 313.936364 221.220637 
L 312.054545 222.258716 
L 310.172727 223.298352 
L 308.290909 224.342532 
L 306.409091 225.395999 
L 304.527273 226.461642 
L 302.645455 227.538594 
L 300.763636 228.624275 
L 298.881818 229.717389 
L 297 230.817489 
L 295.118182 231.923072 
L 293.236364 233.03291 
L 291.354545 234.14898 
L 289.472727 235.275714 
L 287.590909 236.415437 
L 285.709091 237.565298 
L 283.827273 238.719508 
L 281.945455 239.87436 
L 280.063636 241.030384 
L 278.181818 242.19067 
L 276.3 243.358521 
L 274.418182 244.536597 
L 272.536364 245.728132 
L 270.654545 246.937812 
L 268.772727 248.169219 
L 266.890909 249.421748 
L 265.009091 250.691302 
L 263.127273 251.973591 
L 261.245455 253.266869 
L 259.363636 254.572307 
L 257.481818 255.892009 
L 255.6 257.227561 
L 253.718182 258.580272 
L 251.836364 259.949901 
L 249.954545 261.332412 
L 248.072727 262.721653 
L 246.190909 264.114399 
L 244.309091 265.513208 
L 242.427273 266.924868 
L 240.545455 268.356043 
L 238.663636 269.809468 
L 236.781818 271.285174 
L 234.9 272.785148 
L 233.018182 274.313398 
L 231.136364 275.870796 
L 229.254545 277.453227 
L 227.372727 279.05685 
L 225.490909 280.683931 
L 223.609091 282.342071 
L 221.727273 284.038628 
L 219.845455 285.776598 
L 217.963636 287.553963 
L 216.081818 289.365428 
L 214.2 291.206825 
L 212.318182 293.080128 
L 210.436364 294.994319 
L 208.554545 296.961928 
L 206.672727 298.994292 
L 204.790909 301.097956 
L 202.909091 303.273996 
L 201.027273 305.523573 
L 199.145455 307.909551 
L 197.263636 310.892842 
L 195.381818 315.324713 
L 193.5 321.073277 
L 191.618182 327.128357 
L 189.736364 332.990863 
L 187.854545 338.586384 
L 185.972727 344.033556 
L 184.090909 349.541117 
L 182.209091 355.237168 
L 180.327273 361.13975 
L 178.445455 366.276989 
L 176.563636 368.629258 
L 174.681818 368.835185 
L 172.8 368.833499 
L 170.918182 368.833447 
L 169.036364 368.839348 
L 167.154545 368.848108 
L 165.272727 368.859276 
L 163.390909 368.873523 
L 161.509091 368.889424 
L 159.627273 368.902682 
L 157.745455 368.909344 
L 155.863636 368.909995 
L 153.981818 368.909849 
L 152.1 368.914576 
L 150.218182 368.926752 
L 148.336364 368.945371 
L 146.454545 368.967746 
L 144.572727 368.991699 
L 142.690909 369.015183 
L 140.809091 369.034001 
L 138.927273 369.043398 
L 137.045455 369.043306 
L 135.163636 369.038227 
L 133.281818 369.031794 
L 131.4 369.024556 
L 129.518182 369.016788 
L 127.636364 369.010574 
L 125.754545 369.008852 
L 123.872727 369.014005 
L 121.990909 369.025449 
L 120.109091 369.038189 
L 118.227273 369.0457 
L 116.345455 369.045342 
L 114.463636 369.045163 
L 112.581818 369.053232 
L 110.7 369.068424 
L 108.818182 369.08689 
z
" clip-path="url(#p8ba58c3308)" style="fill: #1f77b4; fill-opacity: 0.4"/>
   </g>
   <g id="PolyCollection_2">
    <path d="M 108.818182 369.08689 
L 108.818182 369.08689 
L 110.7 369.079689 
L 112.581818 369.071998 
L 114.463636 369.068368 
L 116.345455 369.069621 
L 118.227273 369.075164 
L 120.109091 369.085326 
L 121.990909 369.099128 
L 123.872727 369.115879 
L 125.754545 369.135265 
L 127.636364 369.153317 
L 129.518182 369.164142 
L 131.4 369.165543 
L 133.281818 369.160656 
L 135.163636 369.155693 
L 137.045455 369.15437 
L 138.927273 369.154526 
L 140.809091 369.152058 
L 142.690909 369.14634 
L 144.572727 369.139383 
L 146.454545 369.131799 
L 148.336364 369.122917 
L 150.218182 369.113417 
L 152.1 369.10518 
L 153.981818 369.099797 
L 155.863636 369.097713 
L 157.745455 369.097097 
L 159.627273 369.094886 
L 161.509091 369.090137 
L 163.390909 369.083914 
L 165.272727 369.076415 
L 167.154545 369.06737 
L 169.036364 369.057981 
L 170.918182 369.051369 
L 172.8 369.054737 
L 174.681818 369.081906 
L 176.563636 369.120015 
L 178.445455 368.762113 
L 180.327273 365.883204 
L 182.209091 360.373599 
L 184.090909 354.299426 
L 185.972727 348.127942 
L 187.854545 341.885163 
L 189.736364 335.576161 
L 191.618182 329.207037 
L 193.5 322.781612 
L 195.381818 316.297462 
L 197.263636 309.760731 
L 199.145455 303.298279 
L 201.027273 297.559721 
L 202.909091 293.328773 
L 204.790909 290.254216 
L 206.672727 287.522633 
L 208.554545 284.886887 
L 210.436364 282.320824 
L 212.318182 279.823785 
L 214.2 277.39115 
L 216.081818 275.01646 
L 217.963636 272.694466 
L 219.845455 270.419471 
L 221.727273 268.184443 
L 223.609091 265.984653 
L 225.490909 263.820893 
L 227.372727 261.697291 
L 229.254545 259.616459 
L 231.136364 257.57676 
L 233.018182 255.572518 
L 234.9 253.596734 
L 236.781818 251.645253 
L 238.663636 249.71891 
L 240.545455 247.821599 
L 242.427273 245.956072 
L 244.309091 244.120529 
L 246.190909 242.308008 
L 248.072727 240.509343 
L 249.954545 238.7186 
L 251.836364 236.936423 
L 253.718182 235.167393 
L 255.6 233.414435 
L 257.481818 231.676901 
L 259.363636 229.953523 
L 261.245455 228.244826 
L 263.127273 226.551787 
L 265.009091 224.87416 
L 266.890909 223.211337 
L 268.772727 221.56361 
L 270.654545 219.931333 
L 272.536364 218.313352 
L 274.418182 216.708093 
L 276.3 215.116878 
L 278.181818 213.544465 
L 280.063636 211.994343 
L 281.945455 210.463289 
L 283.827273 208.94213 
L 285.709091 207.422604 
L 287.590909 205.90239 
L 289.472727 204.383997 
L 291.354545 202.871314 
L 293.236364 201.36777 
L 295.118182 199.876379 
L 297 198.400424 
L 298.881818 196.942346 
L 300.763636 195.500543 
L 302.645455 194.069014 
L 304.527273 192.642181 
L 306.409091 191.218708 
L 308.290909 189.799649 
L 310.172727 188.384982 
L 312.054545 186.973552 
L 313.936364 185.56571 
L 315.818182 184.164479 
L 317.7 182.773368 
L 319.581818 181.393912 
L 321.463636 180.026107 
L 323.345455 178.669514 
L 325.227273 177.322163 
L 327.109091 175.979787 
L 328.990909 174.638369 
L 330.872727 173.297273 
L 332.754545 171.95883 
L 334.636364 170.625627 
L 336.518182 169.299205 
L 338.4 167.980403 
L 340.281818 166.670109 
L 342.163636 165.370153 
L 344.045455 164.082862 
L 345.927273 162.808309 
L 347.809091 161.542502 
L 349.690909 160.279545 
L 351.572727 159.014968 
L 353.454545 157.746938 
L 355.336364 156.4769 
L 357.218182 155.210248 
L 359.1 153.953855 
L 360.981818 152.711353 
L 362.863636 151.481451 
L 364.745455 150.260383 
L 366.627273 149.044754 
L 368.509091 147.832223 
L 370.390909 146.620904 
L 372.272727 145.409919 
L 374.154545 144.200777 
L 376.036364 142.996907 
L 377.918182 141.801159 
L 379.8 140.614053 
L 381.681818 139.434209 
L 383.563636 138.259412 
L 385.445455 137.087298 
L 387.327273 135.916355 
L 389.209091 134.746712 
L 391.090909 133.579406 
L 392.972727 132.414938 
L 394.854545 131.252928 
L 396.736364 130.093545 
L 398.618182 128.939036 
L 400.5 127.792974 
L 402.381818 126.657704 
L 404.263636 125.532949 
L 406.145455 124.416611 
L 408.027273 123.306602 
L 409.909091 122.202324 
L 411.790909 121.104542 
L 413.672727 120.013596 
L 415.554545 118.928043 
L 417.436364 117.845082 
L 419.318182 116.761909 
L 421.2 115.676968 
L 423.081818 114.59067 
L 424.963636 113.505039 
L 426.845455 112.422696 
L 428.727273 111.346244 
L 430.609091 110.277519 
L 432.490909 109.216434 
L 434.372727 108.161211 
L 436.254545 107.110343 
L 438.136364 106.063658 
L 440.018182 105.021383 
L 441.9 103.983416 
L 443.781818 102.949601 
L 445.663636 101.919411 
L 447.545455 100.891207 
L 449.427273 99.863081 
L 451.309091 98.834681 
L 453.190909 97.807408 
L 455.072727 96.782622 
L 456.954545 95.760408 
L 458.836364 94.740549 
L 460.718182 93.72434 
L 462.6 92.714424 
L 464.481818 91.712065 
L 466.363636 90.715059 
L 468.245455 89.719666 
L 470.127273 88.724828 
L 472.009091 87.733509 
L 473.890909 86.749057 
L 475.772727 85.770601 
L 477.654545 84.792979 
L 479.536364 83.811519 
L 481.418182 82.826325 
L 483.3 81.841367 
L 485.181818 80.860135 
L 485.181818 77.460513 
L 485.181818 77.460513 
L 483.3 78.434825 
L 481.418182 79.407799 
L 479.536364 80.378129 
L 477.654545 81.344082 
L 475.772727 82.305889 
L 473.890909 83.267802 
L 472.009091 84.2362 
L 470.127273 85.214409 
L 468.245455 86.200298 
L 466.363636 87.189901 
L 464.481818 88.182373 
L 462.6 89.180662 
L 460.718182 90.188558 
L 458.836364 91.208034 
L 456.954545 92.238347 
L 455.072727 93.27633 
L 453.190909 94.317744 
L 451.309091 95.359104 
L 449.427273 96.398583 
L 447.545455 97.435922 
L 445.663636 98.472144 
L 443.781818 99.508936 
L 441.9 100.547889 
L 440.018182 101.590448 
L 438.136364 102.637904 
L 436.254545 103.690319 
L 434.372727 104.74605 
L 432.490909 105.803892 
L 430.609091 106.865332 
L 428.727273 107.933448 
L 426.845455 109.009871 
L 424.963636 110.093404 
L 423.081818 111.180917 
L 421.2 112.269414 
L 419.318182 113.358157 
L 417.436364 114.448964 
L 415.554545 115.544037 
L 413.672727 116.643748 
L 411.790909 117.746676 
L 409.909091 118.851108 
L 408.027273 119.956451 
L 406.145455 121.064264 
L 404.263636 122.17791 
L 402.381818 123.300129 
L 400.5 124.430927 
L 398.618182 125.568094 
L 396.736364 126.709354 
L 394.854545 127.85437 
L 392.972727 129.005212 
L 391.090909 130.164485 
L 389.209091 131.332722 
L 387.327273 132.50774 
L 385.445455 133.686423 
L 383.563636 134.866909 
L 381.681818 136.049419 
L 379.8 137.235783 
L 377.918182 138.427848 
L 376.036364 139.625325 
L 374.154545 140.825601 
L 372.272727 142.026391 
L 370.390909 143.228107 
L 368.509091 144.433454 
L 366.627273 145.645215 
L 364.745455 146.864582 
L 362.863636 148.091368 
L 360.981818 149.325389 
L 359.1 150.567091 
L 357.218182 151.816582 
L 355.336364 153.072286 
L 353.454545 154.331202 
L 351.572727 155.591011 
L 349.690909 156.851955 
L 347.809091 158.116935 
L 345.927273 159.390345 
L 344.045455 160.676354 
L 342.163636 161.977026 
L 340.281818 163.291703 
L 338.4 164.618235 
L 336.518182 165.95394 
L 334.636364 167.295477 
L 332.754545 168.639471 
L 330.872727 169.983654 
L 328.990909 171.326929 
L 327.109091 172.669635 
L 325.227273 174.014515 
L 323.345455 175.3655 
L 321.463636 176.724477 
L 319.581818 178.090484 
L 317.7 179.462401 
L 315.818182 180.84078 
L 313.936364 182.226534 
L 312.054545 183.619955 
L 310.172727 185.022178 
L 308.290909 186.43578 
L 306.409091 187.862326 
L 304.527273 189.299865 
L 302.645455 190.743704 
L 300.763636 192.190347 
L 298.881818 193.641047 
L 297 195.100801 
L 295.118182 196.573652 
L 293.236364 198.059893 
L 291.354545 199.557499 
L 289.472727 201.064523 
L 287.590909 202.579506 
L 285.709091 204.100742 
L 283.827273 205.627021 
L 281.945455 207.159809 
L 280.063636 208.703381 
L 278.181818 210.261666 
L 276.3 211.835149 
L 274.418182 213.420641 
L 272.536364 215.014448 
L 270.654545 216.61687 
L 268.772727 218.233102 
L 266.890909 219.869348 
L 265.009091 221.529438 
L 263.127273 223.214964 
L 261.245455 224.926025 
L 259.363636 226.660531 
L 257.481818 228.41403 
L 255.6 230.182081 
L 253.718182 231.962461 
L 251.836364 233.753369 
L 249.954545 235.550268 
L 248.072727 237.346938 
L 246.190909 239.140429 
L 244.309091 240.934946 
L 242.427273 242.74182 
L 240.545455 244.575678 
L 238.663636 246.447764 
L 236.781818 248.360428 
L 234.9 250.308562 
L 233.018182 252.287073 
L 231.136364 254.296173 
L 229.254545 256.339622 
L 227.372727 258.420204 
L 225.490909 260.538581 
L 223.609091 262.695104 
L 221.727273 264.890305 
L 219.845455 267.123525 
L 217.963636 269.393047 
L 216.081818 271.6994 
L 214.2 274.048341 
L 212.318182 276.449298 
L 210.436364 278.910358 
L 208.554545 281.434788 
L 206.672727 284.023057 
L 204.790909 286.688103 
L 202.909091 289.536656 
L 201.027273 293.093546 
L 199.145455 298.062273 
L 197.263636 304.170021 
L 195.381818 310.605342 
L 193.5 317.064666 
L 191.618182 323.491086 
L 189.736364 329.87121 
L 187.854545 336.196513 
L 185.972727 342.458933 
L 184.090909 348.650662 
L 182.209091 354.764602 
L 180.327273 360.850482 
L 178.445455 366.039338 
L 176.563636 368.358353 
L 174.681818 368.528543 
L 172.8 368.517907 
L 170.918182 368.519616 
L 169.036364 368.536942 
L 167.154545 368.566618 
L 165.272727 368.602207 
L 163.390909 368.635456 
L 161.509091 368.660581 
L 159.627273 368.675774 
L 157.745455 368.684049 
L 155.863636 368.692979 
L 153.981818 368.708661 
L 152.1 368.730158 
L 150.218182 368.752621 
L 148.336364 368.773016 
L 146.454545 368.791581 
L 144.572727 368.81068 
L 142.690909 368.832419 
L 140.809091 368.856288 
L 138.927273 368.880551 
L 137.045455 368.90543 
L 135.163636 368.93156 
L 133.281818 368.956307 
L 131.4 368.97604 
L 129.518182 368.99039 
L 127.636364 369.000522 
L 125.754545 369.005663 
L 123.872727 369.004609 
L 121.990909 369.000025 
L 120.109091 368.996728 
L 118.227273 368.996599 
L 116.345455 369.000646 
L 114.463636 369.011939 
L 112.581818 369.03164 
L 110.7 369.057812 
L 108.818182 369.08689 
z
" clip-path="url(#p8ba58c3308)" style="fill: #ff7f0e; fill-opacity: 0.4"/>
   </g>
   <g id="matplotlib.axis_1">
    <g id="xtick_1">
     <g id="line2d_1">
      <defs>
       <path id="mfd0a73331a" d="M 0 0 
L 0 3.5 
" style="stroke: #000000; stroke-width: 0.8"/>
      </defs>
      <g>
       <use xlink:href="#mfd0a73331a" x="108.818182" y="384.48" style="stroke: #000000; stroke-width: 0.8"/>
      </g>
     </g>
     <g id="text_1">
      <!-- 10.750 -->
      <g transform="translate(89.573338 399.838281) scale(0.11 -0.11)">
       <defs>
        <path id="DejaVuSans-31" d="M 794 531 
L 1825 531 
L 1825 4091 
L 703 3866 
L 703 4441 
L 1819 4666 
L 2450 4666 
L 2450 531 
L 3481 531 
L 3481 0 
L 794 0 
L 794 531 
z
" transform="scale(0.015625)"/>
        <path id="DejaVuSans-30" d="M 2034 4250 
Q 1547 4250 1301 3770 
Q 1056 3291 1056 2328 
Q 1056 1369 1301 889 
Q 1547 409 2034 409 
Q 2525 409 2770 889 
Q 3016 1369 3016 2328 
Q 3016 3291 2770 3770 
Q 2525 4250 2034 4250 
z
M 2034 4750 
Q 2819 4750 3233 4129 
Q 3647 3509 3647 2328 
Q 3647 1150 3233 529 
Q 2819 -91 2034 -91 
Q 1250 -91 836 529 
Q 422 1150 422 2328 
Q 422 3509 836 4129 
Q 1250 4750 2034 4750 
z
" transform="scale(0.015625)"/>
        <path id="DejaVuSans-2e" d="M 684 794 
L 1344 794 
L 1344 0 
L 684 0 
L 684 794 
z
" transform="scale(0.015625)"/>
        <path id="DejaVuSans-37" d="M 525 4666 
L 3525 4666 
L 3525 4397 
L 1831 0 
L 1172 0 
L 2766 4134 
L 525 4134 
L 525 4666 
z
" transform="scale(0.015625)"/>
        <path id="DejaVuSans-35" d="M 691 4666 
L 3169 4666 
L 3169 4134 
L 1269 4134 
L 1269 2991 
Q 1406 3038 1543 3061 
Q 1681 3084 1819 3084 
Q 2600 3084 3056 2656 
Q 3513 2228 3513 1497 
Q 3513 744 3044 326 
Q 2575 -91 1722 -91 
Q 1428 -91 1123 -41 
Q 819 9 494 109 
L 494 744 
Q 775 591 1075 516 
Q 1375 441 1709 441 
Q 2250 441 2565 725 
Q 2881 1009 2881 1497 
Q 2881 1984 2565 2268 
Q 2250 2553 1709 2553 
Q 1456 2553 1204 2497 
Q 953 2441 691 2322 
L 691 4666 
z
" transform="scale(0.015625)"/>
       </defs>
       <use xlink:href="#DejaVuSans-31"/>
       <use xlink:href="#DejaVuSans-30" x="63.623047"/>
       <use xlink:href="#DejaVuSans-2e" x="127.246094"/>
       <use xlink:href="#DejaVuSans-37" x="159.033203"/>
       <use xlink:href="#DejaVuSans-35" x="222.65625"/>
       <use xlink:href="#DejaVuSans-30" x="286.279297"/>
      </g>
     </g>
    </g>
    <g id="xtick_2">
     <g id="line2d_2">
      <g>
       <use xlink:href="#mfd0a73331a" x="155.863636" y="384.48" style="stroke: #000000; stroke-width: 0.8"/>
      </g>
     </g>
     <g id="text_2">
      <!-- 10.775 -->
      <g transform="translate(136.618793 399.838281) scale(0.11 -0.11)">
       <use xlink:href="#DejaVuSans-31"/>
       <use xlink:href="#DejaVuSans-30" x="63.623047"/>
       <use xlink:href="#DejaVuSans-2e" x="127.246094"/>
       <use xlink:href="#DejaVuSans-37" x="159.033203"/>
       <use xlink:href="#DejaVuSans-37" x="222.65625"/>
       <use xlink:href="#DejaVuSans-35" x="286.279297"/>
      </g>
     </g>
    </g>
    <g id="xtick_3">
     <g id="line2d_3">
      <g>
       <use xlink:href="#mfd0a73331a" x="202.909091" y="384.48" style="stroke: #000000; stroke-width: 0.8"/>
      </g>
     </g>
     <g id="text_3">
      <!-- 10.800 -->
      <g transform="translate(183.664247 399.838281) scale(0.11 -0.11)">
       <defs>
        <path id="DejaVuSans-38" d="M 2034 2216 
Q 1584 2216 1326 1975 
Q 1069 1734 1069 1313 
Q 1069 891 1326 650 
Q 1584 409 2034 409 
Q 2484 409 2743 651 
Q 3003 894 3003 1313 
Q 3003 1734 2745 1975 
Q 2488 2216 2034 2216 
z
M 1403 2484 
Q 997 2584 770 2862 
Q 544 3141 544 3541 
Q 544 4100 942 4425 
Q 1341 4750 2034 4750 
Q 2731 4750 3128 4425 
Q 3525 4100 3525 3541 
Q 3525 3141 3298 2862 
Q 3072 2584 2669 2484 
Q 3125 2378 3379 2068 
Q 3634 1759 3634 1313 
Q 3634 634 3220 271 
Q 2806 -91 2034 -91 
Q 1263 -91 848 271 
Q 434 634 434 1313 
Q 434 1759 690 2068 
Q 947 2378 1403 2484 
z
M 1172 3481 
Q 1172 3119 1398 2916 
Q 1625 2713 2034 2713 
Q 2441 2713 2670 2916 
Q 2900 3119 2900 3481 
Q 2900 3844 2670 4047 
Q 2441 4250 2034 4250 
Q 1625 4250 1398 4047 
Q 1172 3844 1172 3481 
z
" transform="scale(0.015625)"/>
       </defs>
       <use xlink:href="#DejaVuSans-31"/>
       <use xlink:href="#DejaVuSans-30" x="63.623047"/>
       <use xlink:href="#DejaVuSans-2e" x="127.246094"/>
       <use xlink:href="#DejaVuSans-38" x="159.033203"/>
       <use xlink:href="#DejaVuSans-30" x="222.65625"/>
       <use xlink:href="#DejaVuSans-30" x="286.279297"/>
      </g>
     </g>
    </g>
    <g id="xtick_4">
     <g id="line2d_4">
      <g>
       <use xlink:href="#mfd0a73331a" x="249.954545" y="384.48" style="stroke: #000000; stroke-width: 0.8"/>
      </g>
     </g>
     <g id="text_4">
      <!-- 10.825 -->
      <g transform="translate(230.709702 399.838281) scale(0.11 -0.11)">
       <defs>
        <path id="DejaVuSans-32" d="M 1228 531 
L 3431 531 
L 3431 0 
L 469 0 
L 469 531 
Q 828 903 1448 1529 
Q 2069 2156 2228 2338 
Q 2531 2678 2651 2914 
Q 2772 3150 2772 3378 
Q 2772 3750 2511 3984 
Q 2250 4219 1831 4219 
Q 1534 4219 1204 4116 
Q 875 4013 500 3803 
L 500 4441 
Q 881 4594 1212 4672 
Q 1544 4750 1819 4750 
Q 2544 4750 2975 4387 
Q 3406 4025 3406 3419 
Q 3406 3131 3298 2873 
Q 3191 2616 2906 2266 
Q 2828 2175 2409 1742 
Q 1991 1309 1228 531 
z
" transform="scale(0.015625)"/>
       </defs>
       <use xlink:href="#DejaVuSans-31"/>
       <use xlink:href="#DejaVuSans-30" x="63.623047"/>
       <use xlink:href="#DejaVuSans-2e" x="127.246094"/>
       <use xlink:href="#DejaVuSans-38" x="159.033203"/>
       <use xlink:href="#DejaVuSans-32" x="222.65625"/>
       <use xlink:href="#DejaVuSans-35" x="286.279297"/>
      </g>
     </g>
    </g>
    <g id="xtick_5">
     <g id="line2d_5">
      <g>
       <use xlink:href="#mfd0a73331a" x="297" y="384.48" style="stroke: #000000; stroke-width: 0.8"/>
      </g>
     </g>
     <g id="text_5">
      <!-- 10.850 -->
      <g transform="translate(277.755156 399.838281) scale(0.11 -0.11)">
       <use xlink:href="#DejaVuSans-31"/>
       <use xlink:href="#DejaVuSans-30" x="63.623047"/>
       <use xlink:href="#DejaVuSans-2e" x="127.246094"/>
       <use xlink:href="#DejaVuSans-38" x="159.033203"/>
       <use xlink:href="#DejaVuSans-35" x="222.65625"/>
       <use xlink:href="#DejaVuSans-30" x="286.279297"/>
      </g>
     </g>
    </g>
    <g id="xtick_6">
     <g id="line2d_6">
      <g>
       <use xlink:href="#mfd0a73331a" x="344.045455" y="384.48" style="stroke: #000000; stroke-width: 0.8"/>
      </g>
     </g>
     <g id="text_6">
      <!-- 10.875 -->
      <g transform="translate(324.800611 399.838281) scale(0.11 -0.11)">
       <use xlink:href="#DejaVuSans-31"/>
       <use xlink:href="#DejaVuSans-30" x="63.623047"/>
       <use xlink:href="#DejaVuSans-2e" x="127.246094"/>
       <use xlink:href="#DejaVuSans-38" x="159.033203"/>
       <use xlink:href="#DejaVuSans-37" x="222.65625"/>
       <use xlink:href="#DejaVuSans-35" x="286.279297"/>
      </g>
     </g>
    </g>
    <g id="xtick_7">
     <g id="line2d_7">
      <g>
       <use xlink:href="#mfd0a73331a" x="391.090909" y="384.48" style="stroke: #000000; stroke-width: 0.8"/>
      </g>
     </g>
     <g id="text_7">
      <!-- 10.900 -->
      <g transform="translate(371.846065 399.838281) scale(0.11 -0.11)">
       <defs>
        <path id="DejaVuSans-39" d="M 703 97 
L 703 672 
Q 941 559 1184 500 
Q 1428 441 1663 441 
Q 2288 441 2617 861 
Q 2947 1281 2994 2138 
Q 2813 1869 2534 1725 
Q 2256 1581 1919 1581 
Q 1219 1581 811 2004 
Q 403 2428 403 3163 
Q 403 3881 828 4315 
Q 1253 4750 1959 4750 
Q 2769 4750 3195 4129 
Q 3622 3509 3622 2328 
Q 3622 1225 3098 567 
Q 2575 -91 1691 -91 
Q 1453 -91 1209 -44 
Q 966 3 703 97 
z
M 1959 2075 
Q 2384 2075 2632 2365 
Q 2881 2656 2881 3163 
Q 2881 3666 2632 3958 
Q 2384 4250 1959 4250 
Q 1534 4250 1286 3958 
Q 1038 3666 1038 3163 
Q 1038 2656 1286 2365 
Q 1534 2075 1959 2075 
z
" transform="scale(0.015625)"/>
       </defs>
       <use xlink:href="#DejaVuSans-31"/>
       <use xlink:href="#DejaVuSans-30" x="63.623047"/>
       <use xlink:href="#DejaVuSans-2e" x="127.246094"/>
       <use xlink:href="#DejaVuSans-39" x="159.033203"/>
       <use xlink:href="#DejaVuSans-30" x="222.65625"/>
       <use xlink:href="#DejaVuSans-30" x="286.279297"/>
      </g>
     </g>
    </g>
    <g id="xtick_8">
     <g id="line2d_8">
      <g>
       <use xlink:href="#mfd0a73331a" x="438.136364" y="384.48" style="stroke: #000000; stroke-width: 0.8"/>
      </g>
     </g>
     <g id="text_8">
      <!-- 10.925 -->
      <g transform="translate(418.89152 399.838281) scale(0.11 -0.11)">
       <use xlink:href="#DejaVuSans-31"/>
       <use xlink:href="#DejaVuSans-30" x="63.623047"/>
       <use xlink:href="#DejaVuSans-2e" x="127.246094"/>
       <use xlink:href="#DejaVuSans-39" x="159.033203"/>
       <use xlink:href="#DejaVuSans-32" x="222.65625"/>
       <use xlink:href="#DejaVuSans-35" x="286.279297"/>
      </g>
     </g>
    </g>
    <g id="xtick_9">
     <g id="line2d_9">
      <g>
       <use xlink:href="#mfd0a73331a" x="485.181818" y="384.48" style="stroke: #000000; stroke-width: 0.8"/>
      </g>
     </g>
     <g id="text_9">
      <!-- 10.950 -->
      <g transform="translate(465.936974 399.838281) scale(0.11 -0.11)">
       <use xlink:href="#DejaVuSans-31"/>
       <use xlink:href="#DejaVuSans-30" x="63.623047"/>
       <use xlink:href="#DejaVuSans-2e" x="127.246094"/>
       <use xlink:href="#DejaVuSans-39" x="159.033203"/>
       <use xlink:href="#DejaVuSans-35" x="222.65625"/>
       <use xlink:href="#DejaVuSans-30" x="286.279297"/>
      </g>
     </g>
    </g>
    <g id="text_10">
     <!-- $\beta$ -->
     <g transform="translate(293.48 414.595937) scale(0.11 -0.11)">
      <defs>
       <path id="DejaVuSans-Oblique-3b2" d="M 872 216 
L 572 -1331 
L -6 -1331 
L 928 3478 
Q 1206 4903 2538 4903 
Q 3888 4903 3659 3700 
Q 3503 2844 2894 2531 
Q 3713 2250 3553 1416 
Q 3272 -69 1759 -66 
Q 1097 -63 872 216 
z
M 1019 966 
Q 1259 422 1875 425 
Q 2775 425 2966 1406 
Q 3138 2288 1675 2219 
L 1778 2750 
Q 2909 2731 3106 3750 
Q 3241 4438 2509 4434 
Q 1691 4434 1503 3459 
L 1019 966 
z
" transform="scale(0.015625)"/>
      </defs>
      <use xlink:href="#DejaVuSans-Oblique-3b2" transform="translate(0 0.390625)"/>
     </g>
    </g>
   </g>
   <g id="matplotlib.axis_2">
    <g id="ytick_1">
     <g id="line2d_10">
      <defs>
       <path id="m7441258853" d="M 0 0 
L -3.5 0 
" style="stroke: #000000; stroke-width: 0.8"/>
      </defs>
      <g>
       <use xlink:href="#m7441258853" x="90" y="369.08689" style="stroke: #000000; stroke-width: 0.8"/>
      </g>
     </g>
     <g id="text_11">
      <!-- 0.0 -->
      <g transform="translate(65.506563 373.266031) scale(0.11 -0.11)">
       <use xlink:href="#DejaVuSans-30"/>
       <use xlink:href="#DejaVuSans-2e" x="63.623047"/>
       <use xlink:href="#DejaVuSans-30" x="95.410156"/>
      </g>
     </g>
    </g>
    <g id="ytick_2">
     <g id="line2d_11">
      <g>
       <use xlink:href="#m7441258853" x="90" y="313.257663" style="stroke: #000000; stroke-width: 0.8"/>
      </g>
     </g>
     <g id="text_12">
      <!-- 0.5 -->
      <g transform="translate(65.506563 317.436804) scale(0.11 -0.11)">
       <use xlink:href="#DejaVuSans-30"/>
       <use xlink:href="#DejaVuSans-2e" x="63.623047"/>
       <use xlink:href="#DejaVuSans-35" x="95.410156"/>
      </g>
     </g>
    </g>
    <g id="ytick_3">
     <g id="line2d_12">
      <g>
       <use xlink:href="#m7441258853" x="90" y="257.428437" style="stroke: #000000; stroke-width: 0.8"/>
      </g>
     </g>
     <g id="text_13">
      <!-- 1.0 -->
      <g transform="translate(65.506563 261.607578) scale(0.11 -0.11)">
       <use xlink:href="#DejaVuSans-31"/>
       <use xlink:href="#DejaVuSans-2e" x="63.623047"/>
       <use xlink:href="#DejaVuSans-30" x="95.410156"/>
      </g>
     </g>
    </g>
    <g id="ytick_4">
     <g id="line2d_13">
      <g>
       <use xlink:href="#m7441258853" x="90" y="201.599211" style="stroke: #000000; stroke-width: 0.8"/>
      </g>
     </g>
     <g id="text_14">
      <!-- 1.5 -->
      <g transform="translate(65.506563 205.778351) scale(0.11 -0.11)">
       <use xlink:href="#DejaVuSans-31"/>
       <use xlink:href="#DejaVuSans-2e" x="63.623047"/>
       <use xlink:href="#DejaVuSans-35" x="95.410156"/>
      </g>
     </g>
    </g>
    <g id="ytick_5">
     <g id="line2d_14">
      <g>
       <use xlink:href="#m7441258853" x="90" y="145.769984" style="stroke: #000000; stroke-width: 0.8"/>
      </g>
     </g>
     <g id="text_15">
      <!-- 2.0 -->
      <g transform="translate(65.506563 149.949125) scale(0.11 -0.11)">
       <use xlink:href="#DejaVuSans-32"/>
       <use xlink:href="#DejaVuSans-2e" x="63.623047"/>
       <use xlink:href="#DejaVuSans-30" x="95.410156"/>
      </g>
     </g>
    </g>
    <g id="ytick_6">
     <g id="line2d_15">
      <g>
       <use xlink:href="#m7441258853" x="90" y="89.940758" style="stroke: #000000; stroke-width: 0.8"/>
      </g>
     </g>
     <g id="text_16">
      <!-- 2.5 -->
      <g transform="translate(65.506563 94.119898) scale(0.11 -0.11)">
       <use xlink:href="#DejaVuSans-32"/>
       <use xlink:href="#DejaVuSans-2e" x="63.623047"/>
       <use xlink:href="#DejaVuSans-35" x="95.410156"/>
      </g>
     </g>
    </g>
    <g id="text_17">
     <!-- $\alpha_{o-o}/T^3$ -->
     <g transform="translate(59.218906 239.61) rotate(-90) scale(0.11 -0.11)">
      <defs>
       <path id="DejaVuSans-Oblique-3b1" d="M 2619 1628 
L 2622 2350 
Q 2625 3088 2069 3091 
Q 1653 3094 1394 2747 
Q 1069 2319 959 1747 
Q 825 1059 994 731 
Q 1169 397 1547 397 
Q 1966 397 2319 1063 
L 2619 1628 
z
M 2166 3578 
Q 3141 3594 3128 2584 
Q 3128 2584 3616 3500 
L 4128 3500 
L 3119 1603 
L 3109 919 
Q 3109 766 3194 638 
Q 3291 488 3391 488 
L 3669 488 
L 3575 0 
L 3228 0 
Q 2934 0 2722 263 
Q 2622 394 2619 669 
Q 2416 334 2066 50 
Q 1900 -81 1453 -78 
Q 722 -72 456 397 
Q 184 884 353 1747 
Q 534 2675 1009 3097 
Q 1544 3569 2166 3578 
z
" transform="scale(0.015625)"/>
       <path id="DejaVuSans-Oblique-6f" d="M 1625 -91 
Q 1009 -91 651 289 
Q 294 669 294 1325 
Q 294 1706 417 2101 
Q 541 2497 738 2766 
Q 1047 3184 1428 3384 
Q 1809 3584 2291 3584 
Q 2888 3584 3255 3212 
Q 3622 2841 3622 2241 
Q 3622 1825 3500 1412 
Q 3378 1000 3181 728 
Q 2875 309 2494 109 
Q 2113 -91 1625 -91 
z
M 891 1344 
Q 891 869 1089 633 
Q 1288 397 1691 397 
Q 2269 397 2648 901 
Q 3028 1406 3028 2181 
Q 3028 2634 2825 2865 
Q 2622 3097 2228 3097 
Q 1903 3097 1650 2945 
Q 1397 2794 1197 2484 
Q 1050 2253 970 1956 
Q 891 1659 891 1344 
z
" transform="scale(0.015625)"/>
       <path id="DejaVuSans-2212" d="M 678 2272 
L 4684 2272 
L 4684 1741 
L 678 1741 
L 678 2272 
z
" transform="scale(0.015625)"/>
       <path id="DejaVuSans-2f" d="M 1625 4666 
L 2156 4666 
L 531 -594 
L 0 -594 
L 1625 4666 
z
" transform="scale(0.015625)"/>
       <path id="DejaVuSans-Oblique-54" d="M 378 4666 
L 4325 4666 
L 4225 4134 
L 2559 4134 
L 1759 0 
L 1125 0 
L 1925 4134 
L 275 4134 
L 378 4666 
z
" transform="scale(0.015625)"/>
       <path id="DejaVuSans-33" d="M 2597 2516 
Q 3050 2419 3304 2112 
Q 3559 1806 3559 1356 
Q 3559 666 3084 287 
Q 2609 -91 1734 -91 
Q 1441 -91 1130 -33 
Q 819 25 488 141 
L 488 750 
Q 750 597 1062 519 
Q 1375 441 1716 441 
Q 2309 441 2620 675 
Q 2931 909 2931 1356 
Q 2931 1769 2642 2001 
Q 2353 2234 1838 2234 
L 1294 2234 
L 1294 2753 
L 1863 2753 
Q 2328 2753 2575 2939 
Q 2822 3125 2822 3475 
Q 2822 3834 2567 4026 
Q 2313 4219 1838 4219 
Q 1578 4219 1281 4162 
Q 984 4106 628 3988 
L 628 4550 
Q 988 4650 1302 4700 
Q 1616 4750 1894 4750 
Q 2613 4750 3031 4423 
Q 3450 4097 3450 3541 
Q 3450 3153 3228 2886 
Q 3006 2619 2597 2516 
z
" transform="scale(0.015625)"/>
      </defs>
      <use xlink:href="#DejaVuSans-Oblique-3b1" transform="translate(0 0.765625)"/>
      <use xlink:href="#DejaVuSans-Oblique-6f" transform="translate(65.917969 -15.640625) scale(0.7)"/>
      <use xlink:href="#DejaVuSans-2212" transform="translate(122.382812 -15.640625) scale(0.7)"/>
      <use xlink:href="#DejaVuSans-Oblique-6f" transform="translate(194.672852 -15.640625) scale(0.7)"/>
      <use xlink:href="#DejaVuSans-2f" transform="translate(240.234375 0.765625)"/>
      <use xlink:href="#DejaVuSans-Oblique-54" transform="translate(273.925781 0.765625)"/>
      <use xlink:href="#DejaVuSans-33" transform="translate(342.026536 39.046875) scale(0.7)"/>
     </g>
    </g>
   </g>
   <g id="line2d_16">
    <path d="M 108.818182 369.08689 
L 127.636364 369.083979 
L 159.627273 369.100384 
L 176.563636 368.994629 
L 178.445455 367.658061 
L 180.327273 363.647707 
L 185.972727 346.161342 
L 191.618182 328.206391 
L 195.381818 316.151492 
L 197.263636 311.618593 
L 199.145455 308.600594 
L 202.909091 303.962614 
L 206.672727 299.667831 
L 210.436364 295.644332 
L 216.081818 290.002904 
L 221.727273 284.707954 
L 227.372727 279.742372 
L 234.9 273.455442 
L 240.545455 269.016574 
L 249.954545 262.001294 
L 259.363636 255.252296 
L 266.890909 250.125974 
L 274.418182 245.265349 
L 285.709091 238.29842 
L 295.118182 232.652674 
L 304.527273 227.225413 
L 317.7 219.931534 
L 328.990909 213.88604 
L 344.045455 205.996486 
L 360.981818 197.551076 
L 374.154545 191.277498 
L 392.972727 182.608853 
L 404.263636 177.548885 
L 434.372727 164.666094 
L 458.836364 154.73896 
L 475.772727 148.077188 
L 485.181818 144.485844 
L 485.181818 144.485844 
" clip-path="url(#p8ba58c3308)" style="fill: none; stroke: #1f77b4; stroke-width: 1.5; stroke-linecap: square"/>
   </g>
   <g id="line2d_17">
    <path d="M 108.818182 369.08689 
L 121.990909 369.049577 
L 137.045455 369.0299 
L 176.563636 368.739184 
L 178.445455 367.400726 
L 180.327273 363.366843 
L 184.090909 351.475044 
L 189.736364 332.723686 
L 199.145455 300.680276 
L 201.027273 295.326634 
L 202.909091 291.432715 
L 204.790909 288.47116 
L 208.554545 283.160838 
L 212.318182 278.136541 
L 217.963636 271.043757 
L 223.609091 264.339878 
L 229.254545 257.978041 
L 234.9 251.952648 
L 240.545455 246.198639 
L 248.072727 238.928141 
L 259.363636 228.307027 
L 266.890909 221.540342 
L 276.3 213.476014 
L 283.827273 207.284575 
L 297 196.750612 
L 308.290909 188.117715 
L 319.581818 179.742198 
L 332.754545 170.29915 
L 344.045455 162.379608 
L 359.1 152.260473 
L 370.390909 144.924506 
L 385.445455 135.38686 
L 400.5 126.111951 
L 411.790909 119.425609 
L 430.609091 108.571425 
L 445.663636 100.195777 
L 466.363636 88.95248 
L 483.3 80.138096 
L 485.181818 79.160324 
L 485.181818 79.160324 
" clip-path="url(#p8ba58c3308)" style="fill: none; stroke: #ff7f0e; stroke-width: 1.5; stroke-linecap: square"/>
   </g>
   <g id="LineCollection_1">
    <path d="M 485.181818 97.052504 
L 485.181818 74.952121 
" clip-path="url(#p8ba58c3308)" style="fill: none; stroke: #7f5033; stroke-width: 1.5"/>
   </g>
   <g id="line2d_18">
    <defs>
     <path id="m66e8ceeafc" d="M 5 0 
L -5 -0 
" style="stroke: #7f5033"/>
    </defs>
    <g clip-path="url(#p8ba58c3308)">
     <use xlink:href="#m66e8ceeafc" x="485.181818" y="97.052504" style="fill: #7f5033; stroke: #7f5033"/>
    </g>
   </g>
   <g id="line2d_19">
    <g clip-path="url(#p8ba58c3308)">
     <use xlink:href="#m66e8ceeafc" x="485.181818" y="74.952121" style="fill: #7f5033; stroke: #7f5033"/>
    </g>
   </g>
   <g id="LineCollection_2">
    <path d="M 485.181818 93.864822 
L 485.181818 73.090929 
" clip-path="url(#p8ba58c3308)" style="fill: none; stroke: #bf794d; stroke-width: 1.5"/>
   </g>
   <g id="line2d_20">
    <defs>
     <path id="m30960ab53c" d="M 5 0 
L -5 -0 
" style="stroke: #bf794d"/>
    </defs>
    <g clip-path="url(#p8ba58c3308)">
     <use xlink:href="#m30960ab53c" x="485.181818" y="93.864822" style="fill: #bf794d; stroke: #bf794d"/>
    </g>
   </g>
   <g id="line2d_21">
    <g clip-path="url(#p8ba58c3308)">
     <use xlink:href="#m30960ab53c" x="485.181818" y="73.090929" style="fill: #bf794d; stroke: #bf794d"/>
    </g>
   </g>
   <g id="LineCollection_3">
    <path d="M 485.181818 87.585789 
L 485.181818 66.96 
" clip-path="url(#p8ba58c3308)" style="fill: none; stroke: #ffa167; stroke-width: 1.5"/>
   </g>
   <g id="line2d_22">
    <defs>
     <path id="mae95b4aa1f" d="M 5 0 
L -5 -0 
" style="stroke: #ffa167"/>
    </defs>
    <g clip-path="url(#p8ba58c3308)">
     <use xlink:href="#mae95b4aa1f" x="485.181818" y="87.585789" style="fill: #ffa167; stroke: #ffa167"/>
    </g>
   </g>
   <g id="line2d_23">
    <g clip-path="url(#p8ba58c3308)">
     <use xlink:href="#mae95b4aa1f" x="485.181818" y="66.96" style="fill: #ffa167; stroke: #ffa167"/>
    </g>
   </g>
   <g id="LineCollection_4">
    <path d="M 485.181818 152.872922 
L 485.181818 148.872451 
" clip-path="url(#p8ba58c3308)" style="fill: none; stroke: #0067cb; stroke-width: 1.5"/>
   </g>
   <g id="line2d_24">
    <defs>
     <path id="ma0d968e0b9" d="M 5 0 
L -5 -0 
" style="stroke: #0067cb"/>
    </defs>
    <g clip-path="url(#p8ba58c3308)">
     <use xlink:href="#ma0d968e0b9" x="485.181818" y="152.872922" style="fill: #0067cb; stroke: #0067cb"/>
    </g>
   </g>
   <g id="line2d_25">
    <g clip-path="url(#p8ba58c3308)">
     <use xlink:href="#ma0d968e0b9" x="485.181818" y="148.872451" style="fill: #0067cb; stroke: #0067cb"/>
    </g>
   </g>
   <g id="LineCollection_5">
    <path d="M 485.181818 156.049504 
L 485.181818 152.74952 
" clip-path="url(#p8ba58c3308)" style="fill: none; stroke: #009bb2; stroke-width: 1.5"/>
   </g>
   <g id="line2d_26">
    <defs>
     <path id="mb6ee84e654" d="M 5 0 
L -5 -0 
" style="stroke: #009bb2"/>
    </defs>
    <g clip-path="url(#p8ba58c3308)">
     <use xlink:href="#mb6ee84e654" x="485.181818" y="156.049504" style="fill: #009bb2; stroke: #009bb2"/>
    </g>
   </g>
   <g id="line2d_27">
    <g clip-path="url(#p8ba58c3308)">
     <use xlink:href="#mb6ee84e654" x="485.181818" y="152.74952" style="fill: #009bb2; stroke: #009bb2"/>
    </g>
   </g>
   <g id="LineCollection_6">
    <path d="M 485.181818 150.618796 
L 485.181818 147.210055 
" clip-path="url(#p8ba58c3308)" style="fill: none; stroke: #00ce98; stroke-width: 1.5"/>
   </g>
   <g id="line2d_28">
    <defs>
     <path id="m397b6a2413" d="M 5 0 
L -5 -0 
" style="stroke: #00ce98"/>
    </defs>
    <g clip-path="url(#p8ba58c3308)">
     <use xlink:href="#m397b6a2413" x="485.181818" y="150.618796" style="fill: #00ce98; stroke: #00ce98"/>
    </g>
   </g>
   <g id="line2d_29">
    <g clip-path="url(#p8ba58c3308)">
     <use xlink:href="#m397b6a2413" x="485.181818" y="147.210055" style="fill: #00ce98; stroke: #00ce98"/>
    </g>
   </g>
   <g id="LineCollection_7">
    <path d="M 391.090909 140.256456 
L 391.090909 133.117371 
" clip-path="url(#p8ba58c3308)" style="fill: none; stroke: #7f5033; stroke-width: 1.5"/>
   </g>
   <g id="line2d_30">
    <g clip-path="url(#p8ba58c3308)">
     <use xlink:href="#m66e8ceeafc" x="391.090909" y="140.256456" style="fill: #7f5033; stroke: #7f5033"/>
    </g>
   </g>
   <g id="line2d_31">
    <g clip-path="url(#p8ba58c3308)">
     <use xlink:href="#m66e8ceeafc" x="391.090909" y="133.117371" style="fill: #7f5033; stroke: #7f5033"/>
    </g>
   </g>
   <g id="LineCollection_8">
    <path d="M 391.090909 141.038278 
L 391.090909 133.518638 
" clip-path="url(#p8ba58c3308)" style="fill: none; stroke: #bf794d; stroke-width: 1.5"/>
   </g>
   <g id="line2d_32">
    <g clip-path="url(#p8ba58c3308)">
     <use xlink:href="#m30960ab53c" x="391.090909" y="141.038278" style="fill: #bf794d; stroke: #bf794d"/>
    </g>
   </g>
   <g id="line2d_33">
    <g clip-path="url(#p8ba58c3308)">
     <use xlink:href="#m30960ab53c" x="391.090909" y="133.518638" style="fill: #bf794d; stroke: #bf794d"/>
    </g>
   </g>
   <g id="LineCollection_9">
    <path d="M 391.090909 137.450657 
L 391.090909 128.973183 
" clip-path="url(#p8ba58c3308)" style="fill: none; stroke: #ffa167; stroke-width: 1.5"/>
   </g>
   <g id="line2d_34">
    <g clip-path="url(#p8ba58c3308)">
     <use xlink:href="#mae95b4aa1f" x="391.090909" y="137.450657" style="fill: #ffa167; stroke: #ffa167"/>
    </g>
   </g>
   <g id="line2d_35">
    <g clip-path="url(#p8ba58c3308)">
     <use xlink:href="#mae95b4aa1f" x="391.090909" y="128.973183" style="fill: #ffa167; stroke: #ffa167"/>
    </g>
   </g>
   <g id="LineCollection_10">
    <path d="M 391.090909 182.638789 
L 391.090909 177.017693 
" clip-path="url(#p8ba58c3308)" style="fill: none; stroke: #0067cb; stroke-width: 1.5"/>
   </g>
   <g id="line2d_36">
    <g clip-path="url(#p8ba58c3308)">
     <use xlink:href="#ma0d968e0b9" x="391.090909" y="182.638789" style="fill: #0067cb; stroke: #0067cb"/>
    </g>
   </g>
   <g id="line2d_37">
    <g clip-path="url(#p8ba58c3308)">
     <use xlink:href="#ma0d968e0b9" x="391.090909" y="177.017693" style="fill: #0067cb; stroke: #0067cb"/>
    </g>
   </g>
   <g id="LineCollection_11">
    <path d="M 391.090909 187.368708 
L 391.090909 181.246879 
" clip-path="url(#p8ba58c3308)" style="fill: none; stroke: #009bb2; stroke-width: 1.5"/>
   </g>
   <g id="line2d_38">
    <g clip-path="url(#p8ba58c3308)">
     <use xlink:href="#mb6ee84e654" x="391.090909" y="187.368708" style="fill: #009bb2; stroke: #009bb2"/>
    </g>
   </g>
   <g id="line2d_39">
    <g clip-path="url(#p8ba58c3308)">
     <use xlink:href="#mb6ee84e654" x="391.090909" y="181.246879" style="fill: #009bb2; stroke: #009bb2"/>
    </g>
   </g>
   <g id="LineCollection_12">
    <path d="M 391.090909 180.710281 
L 391.090909 173.691066 
" clip-path="url(#p8ba58c3308)" style="fill: none; stroke: #00ce98; stroke-width: 1.5"/>
   </g>
   <g id="line2d_40">
    <g clip-path="url(#p8ba58c3308)">
     <use xlink:href="#m397b6a2413" x="391.090909" y="180.710281" style="fill: #00ce98; stroke: #00ce98"/>
    </g>
   </g>
   <g id="line2d_41">
    <g clip-path="url(#p8ba58c3308)">
     <use xlink:href="#m397b6a2413" x="391.090909" y="173.691066" style="fill: #00ce98; stroke: #00ce98"/>
    </g>
   </g>
   <g id="LineCollection_13">
    <path d="M 297 231.449147 
L 297 230.29994 
" clip-path="url(#p8ba58c3308)" style="fill: none; stroke: #0067cb; stroke-width: 1.5"/>
   </g>
   <g id="line2d_42">
    <g clip-path="url(#p8ba58c3308)">
     <use xlink:href="#ma0d968e0b9" x="297" y="231.449147" style="fill: #0067cb; stroke: #0067cb"/>
    </g>
   </g>
   <g id="line2d_43">
    <g clip-path="url(#p8ba58c3308)">
     <use xlink:href="#ma0d968e0b9" x="297" y="230.29994" style="fill: #0067cb; stroke: #0067cb"/>
    </g>
   </g>
   <g id="LineCollection_14">
    <path d="M 297 231.409205 
L 297 229.128853 
" clip-path="url(#p8ba58c3308)" style="fill: none; stroke: #009bb2; stroke-width: 1.5"/>
   </g>
   <g id="line2d_44">
    <g clip-path="url(#p8ba58c3308)">
     <use xlink:href="#mb6ee84e654" x="297" y="231.409205" style="fill: #009bb2; stroke: #009bb2"/>
    </g>
   </g>
   <g id="line2d_45">
    <g clip-path="url(#p8ba58c3308)">
     <use xlink:href="#mb6ee84e654" x="297" y="229.128853" style="fill: #009bb2; stroke: #009bb2"/>
    </g>
   </g>
   <g id="LineCollection_15">
    <path d="M 297 215.576685 
L 297 210.24365 
" clip-path="url(#p8ba58c3308)" style="fill: none; stroke: #00ce98; stroke-width: 1.5"/>
   </g>
   <g id="line2d_46">
    <g clip-path="url(#p8ba58c3308)">
     <use xlink:href="#m397b6a2413" x="297" y="215.576685" style="fill: #00ce98; stroke: #00ce98"/>
    </g>
   </g>
   <g id="line2d_47">
    <g clip-path="url(#p8ba58c3308)">
     <use xlink:href="#m397b6a2413" x="297" y="210.24365" style="fill: #00ce98; stroke: #00ce98"/>
    </g>
   </g>
   <g id="LineCollection_16">
    <path d="M 297 201.00569 
L 297 198.282974 
" clip-path="url(#p8ba58c3308)" style="fill: none; stroke: #7f5033; stroke-width: 1.5"/>
   </g>
   <g id="line2d_48">
    <g clip-path="url(#p8ba58c3308)">
     <use xlink:href="#m66e8ceeafc" x="297" y="201.00569" style="fill: #7f5033; stroke: #7f5033"/>
    </g>
   </g>
   <g id="line2d_49">
    <g clip-path="url(#p8ba58c3308)">
     <use xlink:href="#m66e8ceeafc" x="297" y="198.282974" style="fill: #7f5033; stroke: #7f5033"/>
    </g>
   </g>
   <g id="LineCollection_17">
    <path d="M 297 207.928594 
L 297 205.01073 
" clip-path="url(#p8ba58c3308)" style="fill: none; stroke: #bf794d; stroke-width: 1.5"/>
   </g>
   <g id="line2d_50">
    <g clip-path="url(#p8ba58c3308)">
     <use xlink:href="#m30960ab53c" x="297" y="207.928594" style="fill: #bf794d; stroke: #bf794d"/>
    </g>
   </g>
   <g id="line2d_51">
    <g clip-path="url(#p8ba58c3308)">
     <use xlink:href="#m30960ab53c" x="297" y="205.01073" style="fill: #bf794d; stroke: #bf794d"/>
    </g>
   </g>
   <g id="LineCollection_18">
    <path d="M 297 204.784264 
L 297 200.940482 
" clip-path="url(#p8ba58c3308)" style="fill: none; stroke: #ffa167; stroke-width: 1.5"/>
   </g>
   <g id="line2d_52">
    <g clip-path="url(#p8ba58c3308)">
     <use xlink:href="#mae95b4aa1f" x="297" y="204.784264" style="fill: #ffa167; stroke: #ffa167"/>
    </g>
   </g>
   <g id="line2d_53">
    <g clip-path="url(#p8ba58c3308)">
     <use xlink:href="#mae95b4aa1f" x="297" y="200.940482" style="fill: #ffa167; stroke: #ffa167"/>
    </g>
   </g>
   <g id="LineCollection_19">
    <path d="M 202.909091 266.149293 
L 202.909091 260.220428 
" clip-path="url(#p8ba58c3308)" style="fill: none; stroke: #0067cb; stroke-width: 1.5"/>
   </g>
   <g id="line2d_54">
    <g clip-path="url(#p8ba58c3308)">
     <use xlink:href="#ma0d968e0b9" x="202.909091" y="266.149293" style="fill: #0067cb; stroke: #0067cb"/>
    </g>
   </g>
   <g id="line2d_55">
    <g clip-path="url(#p8ba58c3308)">
     <use xlink:href="#ma0d968e0b9" x="202.909091" y="260.220428" style="fill: #0067cb; stroke: #0067cb"/>
    </g>
   </g>
   <g id="LineCollection_20">
    <path d="M 202.909091 299.687079 
L 202.909091 298.18468 
" clip-path="url(#p8ba58c3308)" style="fill: none; stroke: #009bb2; stroke-width: 1.5"/>
   </g>
   <g id="line2d_56">
    <g clip-path="url(#p8ba58c3308)">
     <use xlink:href="#mb6ee84e654" x="202.909091" y="299.687079" style="fill: #009bb2; stroke: #009bb2"/>
    </g>
   </g>
   <g id="line2d_57">
    <g clip-path="url(#p8ba58c3308)">
     <use xlink:href="#mb6ee84e654" x="202.909091" y="298.18468" style="fill: #009bb2; stroke: #009bb2"/>
    </g>
   </g>
   <g id="LineCollection_21">
    <path d="M 202.909091 306.570894 
L 202.909091 305.240441 
" clip-path="url(#p8ba58c3308)" style="fill: none; stroke: #00ce98; stroke-width: 1.5"/>
   </g>
   <g id="line2d_58">
    <g clip-path="url(#p8ba58c3308)">
     <use xlink:href="#m397b6a2413" x="202.909091" y="306.570894" style="fill: #00ce98; stroke: #00ce98"/>
    </g>
   </g>
   <g id="line2d_59">
    <g clip-path="url(#p8ba58c3308)">
     <use xlink:href="#m397b6a2413" x="202.909091" y="305.240441" style="fill: #00ce98; stroke: #00ce98"/>
    </g>
   </g>
   <g id="LineCollection_22">
    <path d="M 202.909091 239.660788 
L 202.909091 230.569268 
" clip-path="url(#p8ba58c3308)" style="fill: none; stroke: #7f5033; stroke-width: 1.5"/>
   </g>
   <g id="line2d_60">
    <g clip-path="url(#p8ba58c3308)">
     <use xlink:href="#m66e8ceeafc" x="202.909091" y="239.660788" style="fill: #7f5033; stroke: #7f5033"/>
    </g>
   </g>
   <g id="line2d_61">
    <g clip-path="url(#p8ba58c3308)">
     <use xlink:href="#m66e8ceeafc" x="202.909091" y="230.569268" style="fill: #7f5033; stroke: #7f5033"/>
    </g>
   </g>
   <g id="LineCollection_23">
    <path d="M 202.909091 293.816566 
L 202.909091 290.638301 
" clip-path="url(#p8ba58c3308)" style="fill: none; stroke: #bf794d; stroke-width: 1.5"/>
   </g>
   <g id="line2d_62">
    <g clip-path="url(#p8ba58c3308)">
     <use xlink:href="#m30960ab53c" x="202.909091" y="293.816566" style="fill: #bf794d; stroke: #bf794d"/>
    </g>
   </g>
   <g id="line2d_63">
    <g clip-path="url(#p8ba58c3308)">
     <use xlink:href="#m30960ab53c" x="202.909091" y="290.638301" style="fill: #bf794d; stroke: #bf794d"/>
    </g>
   </g>
   <g id="LineCollection_24">
    <path d="M 202.909091 306.683483 
L 202.909091 304.920512 
" clip-path="url(#p8ba58c3308)" style="fill: none; stroke: #ffa167; stroke-width: 1.5"/>
   </g>
   <g id="line2d_64">
    <g clip-path="url(#p8ba58c3308)">
     <use xlink:href="#mae95b4aa1f" x="202.909091" y="306.683483" style="fill: #ffa167; stroke: #ffa167"/>
    </g>
   </g>
   <g id="line2d_65">
    <g clip-path="url(#p8ba58c3308)">
     <use xlink:href="#mae95b4aa1f" x="202.909091" y="304.920512" style="fill: #ffa167; stroke: #ffa167"/>
    </g>
   </g>
   <g id="line2d_66">
    <defs>
     <path id="m7f2833e13d" d="M 0 -3 
L -3 3 
L 3 3 
z
" style="stroke: #7f5033; stroke-linejoin: miter"/>
    </defs>
    <g clip-path="url(#p8ba58c3308)">
     <use xlink:href="#m7f2833e13d" x="485.181818" y="86.002313" style="fill: #7f5033; stroke: #7f5033; stroke-linejoin: miter"/>
    </g>
   </g>
   <g id="line2d_67">
    <defs>
     <path id="mcd94fd95e5" d="M -0 3 
L 3 -3 
L -3 -3 
z
" style="stroke: #bf794d; stroke-linejoin: miter"/>
    </defs>
    <g clip-path="url(#p8ba58c3308)">
     <use xlink:href="#mcd94fd95e5" x="485.181818" y="83.477875" style="fill: #bf794d; stroke: #bf794d; stroke-linejoin: miter"/>
    </g>
   </g>
   <g id="line2d_68">
    <defs>
     <path id="ma2b699ed48" d="M -3 -0 
L 3 3 
L 3 -3 
z
" style="stroke: #ffa167; stroke-linejoin: miter"/>
    </defs>
    <g clip-path="url(#p8ba58c3308)">
     <use xlink:href="#ma2b699ed48" x="485.181818" y="77.272895" style="fill: #ffa167; stroke: #ffa167; stroke-linejoin: miter"/>
    </g>
   </g>
   <g id="line2d_69">
    <defs>
     <path id="m62f2b5ae47" d="M 0 -3 
L -3 3 
L 3 3 
z
" style="stroke: #0067cb; stroke-linejoin: miter"/>
    </defs>
    <g clip-path="url(#p8ba58c3308)">
     <use xlink:href="#m62f2b5ae47" x="485.181818" y="150.872686" style="fill: #0067cb; stroke: #0067cb; stroke-linejoin: miter"/>
    </g>
   </g>
   <g id="line2d_70">
    <defs>
     <path id="m96ee7e2de1" d="M -0 3 
L 3 -3 
L -3 -3 
z
" style="stroke: #009bb2; stroke-linejoin: miter"/>
    </defs>
    <g clip-path="url(#p8ba58c3308)">
     <use xlink:href="#m96ee7e2de1" x="485.181818" y="154.399512" style="fill: #009bb2; stroke: #009bb2; stroke-linejoin: miter"/>
    </g>
   </g>
   <g id="line2d_71">
    <defs>
     <path id="ma49f1caba8" d="M -3 -0 
L 3 3 
L 3 -3 
z
" style="stroke: #00ce98; stroke-linejoin: miter"/>
    </defs>
    <g clip-path="url(#p8ba58c3308)">
     <use xlink:href="#ma49f1caba8" x="485.181818" y="148.914425" style="fill: #00ce98; stroke: #00ce98; stroke-linejoin: miter"/>
    </g>
   </g>
   <g id="line2d_72">
    <g clip-path="url(#p8ba58c3308)">
     <use xlink:href="#m7f2833e13d" x="391.090909" y="136.686913" style="fill: #7f5033; stroke: #7f5033; stroke-linejoin: miter"/>
    </g>
   </g>
   <g id="line2d_73">
    <g clip-path="url(#p8ba58c3308)">
     <use xlink:href="#mcd94fd95e5" x="391.090909" y="137.278458" style="fill: #bf794d; stroke: #bf794d; stroke-linejoin: miter"/>
    </g>
   </g>
   <g id="line2d_74">
    <g clip-path="url(#p8ba58c3308)">
     <use xlink:href="#ma2b699ed48" x="391.090909" y="133.21192" style="fill: #ffa167; stroke: #ffa167; stroke-linejoin: miter"/>
    </g>
   </g>
   <g id="line2d_75">
    <g clip-path="url(#p8ba58c3308)">
     <use xlink:href="#m62f2b5ae47" x="391.090909" y="179.828241" style="fill: #0067cb; stroke: #0067cb; stroke-linejoin: miter"/>
    </g>
   </g>
   <g id="line2d_76">
    <g clip-path="url(#p8ba58c3308)">
     <use xlink:href="#m96ee7e2de1" x="391.090909" y="184.307793" style="fill: #009bb2; stroke: #009bb2; stroke-linejoin: miter"/>
    </g>
   </g>
   <g id="line2d_77">
    <g clip-path="url(#p8ba58c3308)">
     <use xlink:href="#ma49f1caba8" x="391.090909" y="177.200674" style="fill: #00ce98; stroke: #00ce98; stroke-linejoin: miter"/>
    </g>
   </g>
   <g id="line2d_78">
    <g clip-path="url(#p8ba58c3308)">
     <use xlink:href="#m62f2b5ae47" x="297" y="230.874543" style="fill: #0067cb; stroke: #0067cb; stroke-linejoin: miter"/>
    </g>
   </g>
   <g id="line2d_79">
    <g clip-path="url(#p8ba58c3308)">
     <use xlink:href="#m96ee7e2de1" x="297" y="230.269029" style="fill: #009bb2; stroke: #009bb2; stroke-linejoin: miter"/>
    </g>
   </g>
   <g id="line2d_80">
    <g clip-path="url(#p8ba58c3308)">
     <use xlink:href="#ma49f1caba8" x="297" y="212.910167" style="fill: #00ce98; stroke: #00ce98; stroke-linejoin: miter"/>
    </g>
   </g>
   <g id="line2d_81">
    <g clip-path="url(#p8ba58c3308)">
     <use xlink:href="#m7f2833e13d" x="297" y="199.644332" style="fill: #7f5033; stroke: #7f5033; stroke-linejoin: miter"/>
    </g>
   </g>
   <g id="line2d_82">
    <g clip-path="url(#p8ba58c3308)">
     <use xlink:href="#mcd94fd95e5" x="297" y="206.469662" style="fill: #bf794d; stroke: #bf794d; stroke-linejoin: miter"/>
    </g>
   </g>
   <g id="line2d_83">
    <g clip-path="url(#p8ba58c3308)">
     <use xlink:href="#ma2b699ed48" x="297" y="202.862373" style="fill: #ffa167; stroke: #ffa167; stroke-linejoin: miter"/>
    </g>
   </g>
   <g id="line2d_84">
    <defs>
     <path id="m7996157ca3" d="M -3 3 
L 3 3 
L 3 -3 
L -3 -3 
z
" style="stroke: #0067cb; stroke-linejoin: miter"/>
    </defs>
    <g clip-path="url(#p8ba58c3308)">
     <use xlink:href="#m7996157ca3" x="202.909091" y="263.184861" style="fill: #0067cb; stroke: #0067cb; stroke-linejoin: miter"/>
    </g>
   </g>
   <g id="line2d_85">
    <defs>
     <path id="m816b813887" d="M -0 4.242641 
L 4.242641 0 
L 0 -4.242641 
L -4.242641 -0 
z
" style="stroke: #009bb2; stroke-linejoin: miter"/>
    </defs>
    <g clip-path="url(#p8ba58c3308)">
     <use xlink:href="#m816b813887" x="202.909091" y="298.935879" style="fill: #009bb2; stroke: #009bb2; stroke-linejoin: miter"/>
    </g>
   </g>
   <g id="line2d_86">
    <defs>
     <path id="m32321c57b3" d="M 0 -3 
L -3 3 
L 3 3 
z
" style="stroke: #00ce98; stroke-linejoin: miter"/>
    </defs>
    <g clip-path="url(#p8ba58c3308)">
     <use xlink:href="#m32321c57b3" x="202.909091" y="305.905668" style="fill: #00ce98; stroke: #00ce98; stroke-linejoin: miter"/>
    </g>
   </g>
   <g id="line2d_87">
    <defs>
     <path id="m26d45d712f" d="M -3 3 
L 3 3 
L 3 -3 
L -3 -3 
z
" style="stroke: #7f5033; stroke-linejoin: miter"/>
    </defs>
    <g clip-path="url(#p8ba58c3308)">
     <use xlink:href="#m26d45d712f" x="202.909091" y="235.115028" style="fill: #7f5033; stroke: #7f5033; stroke-linejoin: miter"/>
    </g>
   </g>
   <g id="line2d_88">
    <defs>
     <path id="mdcb7a80464" d="M -0 4.242641 
L 4.242641 0 
L 0 -4.242641 
L -4.242641 -0 
z
" style="stroke: #bf794d; stroke-linejoin: miter"/>
    </defs>
    <g clip-path="url(#p8ba58c3308)">
     <use xlink:href="#mdcb7a80464" x="202.909091" y="292.227433" style="fill: #bf794d; stroke: #bf794d; stroke-linejoin: miter"/>
    </g>
   </g>
   <g id="line2d_89">
    <defs>
     <path id="m2eecea2faf" d="M 0 -3 
L -3 3 
L 3 3 
z
" style="stroke: #ffa167; stroke-linejoin: miter"/>
    </defs>
    <g clip-path="url(#p8ba58c3308)">
     <use xlink:href="#m2eecea2faf" x="202.909091" y="305.801998" style="fill: #ffa167; stroke: #ffa167; stroke-linejoin: miter"/>
    </g>
   </g>
   <g id="patch_3">
    <path d="M 90 384.48 
L 90 51.84 
" style="fill: none; stroke: #000000; stroke-width: 0.8; stroke-linejoin: miter; stroke-linecap: square"/>
   </g>
   <g id="patch_4">
    <path d="M 504 384.48 
L 504 51.84 
" style="fill: none; stroke: #000000; stroke-width: 0.8; stroke-linejoin: miter; stroke-linecap: square"/>
   </g>
   <g id="patch_5">
    <path d="M 90 384.48 
L 504 384.48 
" style="fill: none; stroke: #000000; stroke-width: 0.8; stroke-linejoin: miter; stroke-linecap: square"/>
   </g>
   <g id="patch_6">
    <path d="M 90 51.84 
L 504 51.84 
" style="fill: none; stroke: #000000; stroke-width: 0.8; stroke-linejoin: miter; stroke-linecap: square"/>
   </g>
   <g id="legend_1">
    <g id="patch_7">
     <path d="M 510.4141 166.766927 
L 617.170209 166.766927 
Q 619.002809 166.766927 619.002809 164.934327 
L 619.002809 58.2541 
Q 619.002809 56.4215 617.170209 56.4215 
L 510.4141 56.4215 
Q 508.5815 56.4215 508.5815 58.2541 
L 508.5815 164.934327 
Q 508.5815 166.766927 510.4141 166.766927 
z
" style="fill: #ffffff; opacity: 0.8; stroke: #cccccc; stroke-linejoin: miter"/>
    </g>
    <g id="line2d_90">
     <path d="M 512.2467 63.842098 
L 521.4097 63.842098 
L 530.5727 63.842098 
" style="fill: none; stroke: #1f77b4; stroke-width: 1.5; stroke-linecap: square"/>
    </g>
    <g id="text_18">
     <!-- Twist: 1 -->
     <g transform="translate(537.9031 67.049148) scale(0.09163 -0.09163)">
      <defs>
       <path id="DejaVuSans-54" d="M -19 4666 
L 3928 4666 
L 3928 4134 
L 2272 4134 
L 2272 0 
L 1638 0 
L 1638 4134 
L -19 4134 
L -19 4666 
z
" transform="scale(0.015625)"/>
       <path id="DejaVuSans-77" d="M 269 3500 
L 844 3500 
L 1563 769 
L 2278 3500 
L 2956 3500 
L 3675 769 
L 4391 3500 
L 4966 3500 
L 4050 0 
L 3372 0 
L 2619 2869 
L 1863 0 
L 1184 0 
L 269 3500 
z
" transform="scale(0.015625)"/>
       <path id="DejaVuSans-69" d="M 603 3500 
L 1178 3500 
L 1178 0 
L 603 0 
L 603 3500 
z
M 603 4863 
L 1178 4863 
L 1178 4134 
L 603 4134 
L 603 4863 
z
" transform="scale(0.015625)"/>
       <path id="DejaVuSans-73" d="M 2834 3397 
L 2834 2853 
Q 2591 2978 2328 3040 
Q 2066 3103 1784 3103 
Q 1356 3103 1142 2972 
Q 928 2841 928 2578 
Q 928 2378 1081 2264 
Q 1234 2150 1697 2047 
L 1894 2003 
Q 2506 1872 2764 1633 
Q 3022 1394 3022 966 
Q 3022 478 2636 193 
Q 2250 -91 1575 -91 
Q 1294 -91 989 -36 
Q 684 19 347 128 
L 347 722 
Q 666 556 975 473 
Q 1284 391 1588 391 
Q 1994 391 2212 530 
Q 2431 669 2431 922 
Q 2431 1156 2273 1281 
Q 2116 1406 1581 1522 
L 1381 1569 
Q 847 1681 609 1914 
Q 372 2147 372 2553 
Q 372 3047 722 3315 
Q 1072 3584 1716 3584 
Q 2034 3584 2315 3537 
Q 2597 3491 2834 3397 
z
" transform="scale(0.015625)"/>
       <path id="DejaVuSans-74" d="M 1172 4494 
L 1172 3500 
L 2356 3500 
L 2356 3053 
L 1172 3053 
L 1172 1153 
Q 1172 725 1289 603 
Q 1406 481 1766 481 
L 2356 481 
L 2356 0 
L 1766 0 
Q 1100 0 847 248 
Q 594 497 594 1153 
L 594 3053 
L 172 3053 
L 172 3500 
L 594 3500 
L 594 4494 
L 1172 4494 
z
" transform="scale(0.015625)"/>
       <path id="DejaVuSans-3a" d="M 750 794 
L 1409 794 
L 1409 0 
L 750 0 
L 750 794 
z
M 750 3309 
L 1409 3309 
L 1409 2516 
L 750 2516 
L 750 3309 
z
" transform="scale(0.015625)"/>
       <path id="DejaVuSans-20" transform="scale(0.015625)"/>
      </defs>
      <use xlink:href="#DejaVuSans-54"/>
      <use xlink:href="#DejaVuSans-77" x="44.583984"/>
      <use xlink:href="#DejaVuSans-69" x="126.371094"/>
      <use xlink:href="#DejaVuSans-73" x="154.154297"/>
      <use xlink:href="#DejaVuSans-74" x="206.253906"/>
      <use xlink:href="#DejaVuSans-3a" x="245.462891"/>
      <use xlink:href="#DejaVuSans-20" x="279.154297"/>
      <use xlink:href="#DejaVuSans-31" x="310.941406"/>
     </g>
    </g>
    <g id="line2d_91">
     <path d="M 512.2467 77.291664 
L 521.4097 77.291664 
L 530.5727 77.291664 
" style="fill: none; stroke: #ff7f0e; stroke-width: 1.5; stroke-linecap: square"/>
    </g>
    <g id="text_19">
     <!-- Twist: 2 -->
     <g transform="translate(537.9031 80.498714) scale(0.09163 -0.09163)">
      <use xlink:href="#DejaVuSans-54"/>
      <use xlink:href="#DejaVuSans-77" x="44.583984"/>
      <use xlink:href="#DejaVuSans-69" x="126.371094"/>
      <use xlink:href="#DejaVuSans-73" x="154.154297"/>
      <use xlink:href="#DejaVuSans-74" x="206.253906"/>
      <use xlink:href="#DejaVuSans-3a" x="245.462891"/>
      <use xlink:href="#DejaVuSans-20" x="279.154297"/>
      <use xlink:href="#DejaVuSans-32" x="310.941406"/>
     </g>
    </g>
    <g id="LineCollection_25">
     <path d="M 521.4097 95.32273 
L 521.4097 86.15973 
" style="fill: none; stroke: #7f5033; stroke-width: 1.5"/>
    </g>
    <g id="line2d_92">
     <g>
      <use xlink:href="#m66e8ceeafc" x="521.4097" y="95.32273" style="fill: #7f5033; stroke: #7f5033"/>
     </g>
    </g>
    <g id="line2d_93">
     <g>
      <use xlink:href="#m66e8ceeafc" x="521.4097" y="86.15973" style="fill: #7f5033; stroke: #7f5033"/>
     </g>
    </g>
    <g id="line2d_94"/>
    <g id="line2d_95">
     <g>
      <use xlink:href="#m7f2833e13d" x="521.4097" y="90.74123" style="fill: #7f5033; stroke: #7f5033; stroke-linejoin: miter"/>
     </g>
    </g>
    <g id="text_20">
     <!-- Twist 2 smear 20 -->
     <g transform="translate(537.9031 93.94828) scale(0.09163 -0.09163)">
      <defs>
       <path id="DejaVuSans-6d" d="M 3328 2828 
Q 3544 3216 3844 3400 
Q 4144 3584 4550 3584 
Q 5097 3584 5394 3201 
Q 5691 2819 5691 2113 
L 5691 0 
L 5113 0 
L 5113 2094 
Q 5113 2597 4934 2840 
Q 4756 3084 4391 3084 
Q 3944 3084 3684 2787 
Q 3425 2491 3425 1978 
L 3425 0 
L 2847 0 
L 2847 2094 
Q 2847 2600 2669 2842 
Q 2491 3084 2119 3084 
Q 1678 3084 1418 2786 
Q 1159 2488 1159 1978 
L 1159 0 
L 581 0 
L 581 3500 
L 1159 3500 
L 1159 2956 
Q 1356 3278 1631 3431 
Q 1906 3584 2284 3584 
Q 2666 3584 2933 3390 
Q 3200 3197 3328 2828 
z
" transform="scale(0.015625)"/>
       <path id="DejaVuSans-65" d="M 3597 1894 
L 3597 1613 
L 953 1613 
Q 991 1019 1311 708 
Q 1631 397 2203 397 
Q 2534 397 2845 478 
Q 3156 559 3463 722 
L 3463 178 
Q 3153 47 2828 -22 
Q 2503 -91 2169 -91 
Q 1331 -91 842 396 
Q 353 884 353 1716 
Q 353 2575 817 3079 
Q 1281 3584 2069 3584 
Q 2775 3584 3186 3129 
Q 3597 2675 3597 1894 
z
M 3022 2063 
Q 3016 2534 2758 2815 
Q 2500 3097 2075 3097 
Q 1594 3097 1305 2825 
Q 1016 2553 972 2059 
L 3022 2063 
z
" transform="scale(0.015625)"/>
       <path id="DejaVuSans-61" d="M 2194 1759 
Q 1497 1759 1228 1600 
Q 959 1441 959 1056 
Q 959 750 1161 570 
Q 1363 391 1709 391 
Q 2188 391 2477 730 
Q 2766 1069 2766 1631 
L 2766 1759 
L 2194 1759 
z
M 3341 1997 
L 3341 0 
L 2766 0 
L 2766 531 
Q 2569 213 2275 61 
Q 1981 -91 1556 -91 
Q 1019 -91 701 211 
Q 384 513 384 1019 
Q 384 1609 779 1909 
Q 1175 2209 1959 2209 
L 2766 2209 
L 2766 2266 
Q 2766 2663 2505 2880 
Q 2244 3097 1772 3097 
Q 1472 3097 1187 3025 
Q 903 2953 641 2809 
L 641 3341 
Q 956 3463 1253 3523 
Q 1550 3584 1831 3584 
Q 2591 3584 2966 3190 
Q 3341 2797 3341 1997 
z
" transform="scale(0.015625)"/>
       <path id="DejaVuSans-72" d="M 2631 2963 
Q 2534 3019 2420 3045 
Q 2306 3072 2169 3072 
Q 1681 3072 1420 2755 
Q 1159 2438 1159 1844 
L 1159 0 
L 581 0 
L 581 3500 
L 1159 3500 
L 1159 2956 
Q 1341 3275 1631 3429 
Q 1922 3584 2338 3584 
Q 2397 3584 2469 3576 
Q 2541 3569 2628 3553 
L 2631 2963 
z
" transform="scale(0.015625)"/>
      </defs>
      <use xlink:href="#DejaVuSans-54"/>
      <use xlink:href="#DejaVuSans-77" x="44.583984"/>
      <use xlink:href="#DejaVuSans-69" x="126.371094"/>
      <use xlink:href="#DejaVuSans-73" x="154.154297"/>
      <use xlink:href="#DejaVuSans-74" x="206.253906"/>
      <use xlink:href="#DejaVuSans-20" x="245.462891"/>
      <use xlink:href="#DejaVuSans-32" x="277.25"/>
      <use xlink:href="#DejaVuSans-20" x="340.873047"/>
      <use xlink:href="#DejaVuSans-73" x="372.660156"/>
      <use xlink:href="#DejaVuSans-6d" x="424.759766"/>
      <use xlink:href="#DejaVuSans-65" x="522.171875"/>
      <use xlink:href="#DejaVuSans-61" x="583.695312"/>
      <use xlink:href="#DejaVuSans-72" x="644.974609"/>
      <use xlink:href="#DejaVuSans-20" x="686.087891"/>
      <use xlink:href="#DejaVuSans-32" x="717.875"/>
      <use xlink:href="#DejaVuSans-30" x="781.498047"/>
     </g>
    </g>
    <g id="LineCollection_26">
     <path d="M 521.4097 108.772296 
L 521.4097 99.609296 
" style="fill: none; stroke: #bf794d; stroke-width: 1.5"/>
    </g>
    <g id="line2d_96">
     <g>
      <use xlink:href="#m30960ab53c" x="521.4097" y="108.772296" style="fill: #bf794d; stroke: #bf794d"/>
     </g>
    </g>
    <g id="line2d_97">
     <g>
      <use xlink:href="#m30960ab53c" x="521.4097" y="99.609296" style="fill: #bf794d; stroke: #bf794d"/>
     </g>
    </g>
    <g id="line2d_98"/>
    <g id="line2d_99">
     <g>
      <use xlink:href="#mcd94fd95e5" x="521.4097" y="104.190796" style="fill: #bf794d; stroke: #bf794d; stroke-linejoin: miter"/>
     </g>
    </g>
    <g id="text_21">
     <!-- Twist 2 smear 30 -->
     <g transform="translate(537.9031 107.397846) scale(0.09163 -0.09163)">
      <use xlink:href="#DejaVuSans-54"/>
      <use xlink:href="#DejaVuSans-77" x="44.583984"/>
      <use xlink:href="#DejaVuSans-69" x="126.371094"/>
      <use xlink:href="#DejaVuSans-73" x="154.154297"/>
      <use xlink:href="#DejaVuSans-74" x="206.253906"/>
      <use xlink:href="#DejaVuSans-20" x="245.462891"/>
      <use xlink:href="#DejaVuSans-32" x="277.25"/>
      <use xlink:href="#DejaVuSans-20" x="340.873047"/>
      <use xlink:href="#DejaVuSans-73" x="372.660156"/>
      <use xlink:href="#DejaVuSans-6d" x="424.759766"/>
      <use xlink:href="#DejaVuSans-65" x="522.171875"/>
      <use xlink:href="#DejaVuSans-61" x="583.695312"/>
      <use xlink:href="#DejaVuSans-72" x="644.974609"/>
      <use xlink:href="#DejaVuSans-20" x="686.087891"/>
      <use xlink:href="#DejaVuSans-33" x="717.875"/>
      <use xlink:href="#DejaVuSans-30" x="781.498047"/>
     </g>
    </g>
    <g id="LineCollection_27">
     <path d="M 521.4097 122.221862 
L 521.4097 113.058862 
" style="fill: none; stroke: #ffa167; stroke-width: 1.5"/>
    </g>
    <g id="line2d_100">
     <g>
      <use xlink:href="#mae95b4aa1f" x="521.4097" y="122.221862" style="fill: #ffa167; stroke: #ffa167"/>
     </g>
    </g>
    <g id="line2d_101">
     <g>
      <use xlink:href="#mae95b4aa1f" x="521.4097" y="113.058862" style="fill: #ffa167; stroke: #ffa167"/>
     </g>
    </g>
    <g id="line2d_102"/>
    <g id="line2d_103">
     <g>
      <use xlink:href="#ma2b699ed48" x="521.4097" y="117.640362" style="fill: #ffa167; stroke: #ffa167; stroke-linejoin: miter"/>
     </g>
    </g>
    <g id="text_22">
     <!-- Twist 2 smear 40 -->
     <g transform="translate(537.9031 120.847412) scale(0.09163 -0.09163)">
      <defs>
       <path id="DejaVuSans-34" d="M 2419 4116 
L 825 1625 
L 2419 1625 
L 2419 4116 
z
M 2253 4666 
L 3047 4666 
L 3047 1625 
L 3713 1625 
L 3713 1100 
L 3047 1100 
L 3047 0 
L 2419 0 
L 2419 1100 
L 313 1100 
L 313 1709 
L 2253 4666 
z
" transform="scale(0.015625)"/>
      </defs>
      <use xlink:href="#DejaVuSans-54"/>
      <use xlink:href="#DejaVuSans-77" x="44.583984"/>
      <use xlink:href="#DejaVuSans-69" x="126.371094"/>
      <use xlink:href="#DejaVuSans-73" x="154.154297"/>
      <use xlink:href="#DejaVuSans-74" x="206.253906"/>
      <use xlink:href="#DejaVuSans-20" x="245.462891"/>
      <use xlink:href="#DejaVuSans-32" x="277.25"/>
      <use xlink:href="#DejaVuSans-20" x="340.873047"/>
      <use xlink:href="#DejaVuSans-73" x="372.660156"/>
      <use xlink:href="#DejaVuSans-6d" x="424.759766"/>
      <use xlink:href="#DejaVuSans-65" x="522.171875"/>
      <use xlink:href="#DejaVuSans-61" x="583.695312"/>
      <use xlink:href="#DejaVuSans-72" x="644.974609"/>
      <use xlink:href="#DejaVuSans-20" x="686.087891"/>
      <use xlink:href="#DejaVuSans-34" x="717.875"/>
      <use xlink:href="#DejaVuSans-30" x="781.498047"/>
     </g>
    </g>
    <g id="LineCollection_28">
     <path d="M 521.4097 135.671428 
L 521.4097 126.508428 
" style="fill: none; stroke: #0067cb; stroke-width: 1.5"/>
    </g>
    <g id="line2d_104">
     <g>
      <use xlink:href="#ma0d968e0b9" x="521.4097" y="135.671428" style="fill: #0067cb; stroke: #0067cb"/>
     </g>
    </g>
    <g id="line2d_105">
     <g>
      <use xlink:href="#ma0d968e0b9" x="521.4097" y="126.508428" style="fill: #0067cb; stroke: #0067cb"/>
     </g>
    </g>
    <g id="line2d_106"/>
    <g id="line2d_107">
     <g>
      <use xlink:href="#m62f2b5ae47" x="521.4097" y="131.089928" style="fill: #0067cb; stroke: #0067cb; stroke-linejoin: miter"/>
     </g>
    </g>
    <g id="text_23">
     <!-- Twist 1 smear 20 -->
     <g transform="translate(537.9031 134.296978) scale(0.09163 -0.09163)">
      <use xlink:href="#DejaVuSans-54"/>
      <use xlink:href="#DejaVuSans-77" x="44.583984"/>
      <use xlink:href="#DejaVuSans-69" x="126.371094"/>
      <use xlink:href="#DejaVuSans-73" x="154.154297"/>
      <use xlink:href="#DejaVuSans-74" x="206.253906"/>
      <use xlink:href="#DejaVuSans-20" x="245.462891"/>
      <use xlink:href="#DejaVuSans-31" x="277.25"/>
      <use xlink:href="#DejaVuSans-20" x="340.873047"/>
      <use xlink:href="#DejaVuSans-73" x="372.660156"/>
      <use xlink:href="#DejaVuSans-6d" x="424.759766"/>
      <use xlink:href="#DejaVuSans-65" x="522.171875"/>
      <use xlink:href="#DejaVuSans-61" x="583.695312"/>
      <use xlink:href="#DejaVuSans-72" x="644.974609"/>
      <use xlink:href="#DejaVuSans-20" x="686.087891"/>
      <use xlink:href="#DejaVuSans-32" x="717.875"/>
      <use xlink:href="#DejaVuSans-30" x="781.498047"/>
     </g>
    </g>
    <g id="LineCollection_29">
     <path d="M 521.4097 149.120994 
L 521.4097 139.957994 
" style="fill: none; stroke: #009bb2; stroke-width: 1.5"/>
    </g>
    <g id="line2d_108">
     <g>
      <use xlink:href="#mb6ee84e654" x="521.4097" y="149.120994" style="fill: #009bb2; stroke: #009bb2"/>
     </g>
    </g>
    <g id="line2d_109">
     <g>
      <use xlink:href="#mb6ee84e654" x="521.4097" y="139.957994" style="fill: #009bb2; stroke: #009bb2"/>
     </g>
    </g>
    <g id="line2d_110"/>
    <g id="line2d_111">
     <g>
      <use xlink:href="#m96ee7e2de1" x="521.4097" y="144.539494" style="fill: #009bb2; stroke: #009bb2; stroke-linejoin: miter"/>
     </g>
    </g>
    <g id="text_24">
     <!-- Twist 1 smear 30 -->
     <g transform="translate(537.9031 147.746544) scale(0.09163 -0.09163)">
      <use xlink:href="#DejaVuSans-54"/>
      <use xlink:href="#DejaVuSans-77" x="44.583984"/>
      <use xlink:href="#DejaVuSans-69" x="126.371094"/>
      <use xlink:href="#DejaVuSans-73" x="154.154297"/>
      <use xlink:href="#DejaVuSans-74" x="206.253906"/>
      <use xlink:href="#DejaVuSans-20" x="245.462891"/>
      <use xlink:href="#DejaVuSans-31" x="277.25"/>
      <use xlink:href="#DejaVuSans-20" x="340.873047"/>
      <use xlink:href="#DejaVuSans-73" x="372.660156"/>
      <use xlink:href="#DejaVuSans-6d" x="424.759766"/>
      <use xlink:href="#DejaVuSans-65" x="522.171875"/>
      <use xlink:href="#DejaVuSans-61" x="583.695312"/>
      <use xlink:href="#DejaVuSans-72" x="644.974609"/>
      <use xlink:href="#DejaVuSans-20" x="686.087891"/>
      <use xlink:href="#DejaVuSans-33" x="717.875"/>
      <use xlink:href="#DejaVuSans-30" x="781.498047"/>
     </g>
    </g>
    <g id="LineCollection_30">
     <path d="M 521.4097 162.57056 
L 521.4097 153.40756 
" style="fill: none; stroke: #00ce98; stroke-width: 1.5"/>
    </g>
    <g id="line2d_112">
     <g>
      <use xlink:href="#m397b6a2413" x="521.4097" y="162.57056" style="fill: #00ce98; stroke: #00ce98"/>
     </g>
    </g>
    <g id="line2d_113">
     <g>
      <use xlink:href="#m397b6a2413" x="521.4097" y="153.40756" style="fill: #00ce98; stroke: #00ce98"/>
     </g>
    </g>
    <g id="line2d_114"/>
    <g id="line2d_115">
     <g>
      <use xlink:href="#ma49f1caba8" x="521.4097" y="157.98906" style="fill: #00ce98; stroke: #00ce98; stroke-linejoin: miter"/>
     </g>
    </g>
    <g id="text_25">
     <!-- Twist 1 smear 40 -->
     <g transform="translate(537.9031 161.19611) scale(0.09163 -0.09163)">
      <use xlink:href="#DejaVuSans-54"/>
      <use xlink:href="#DejaVuSans-77" x="44.583984"/>
      <use xlink:href="#DejaVuSans-69" x="126.371094"/>
      <use xlink:href="#DejaVuSans-73" x="154.154297"/>
      <use xlink:href="#DejaVuSans-74" x="206.253906"/>
      <use xlink:href="#DejaVuSans-20" x="245.462891"/>
      <use xlink:href="#DejaVuSans-31" x="277.25"/>
      <use xlink:href="#DejaVuSans-20" x="340.873047"/>
      <use xlink:href="#DejaVuSans-73" x="372.660156"/>
      <use xlink:href="#DejaVuSans-6d" x="424.759766"/>
      <use xlink:href="#DejaVuSans-65" x="522.171875"/>
      <use xlink:href="#DejaVuSans-61" x="583.695312"/>
      <use xlink:href="#DejaVuSans-72" x="644.974609"/>
      <use xlink:href="#DejaVuSans-20" x="686.087891"/>
      <use xlink:href="#DejaVuSans-34" x="717.875"/>
      <use xlink:href="#DejaVuSans-30" x="781.498047"/>
     </g>
    </g>
   </g>
  </g>
 </g>
 <defs>
  <clipPath id="p8ba58c3308">
   <rect x="90" y="51.84" width="414" height="332.64"/>
  </clipPath>
 </defs>
</svg>
