<?xml version="1.0" encoding="utf-8" standalone="no"?>
<!DOCTYPE svg PUBLIC "-//W3C//DTD SVG 1.1//EN"
  "http://www.w3.org/Graphics/SVG/1.1/DTD/svg11.dtd">
<svg xmlns:xlink="http://www.w3.org/1999/xlink" width="451.272187pt" height="337.087656pt" viewBox="0 0 451.272187 337.087656" xmlns="http://www.w3.org/2000/svg" version="1.1">
 <metadata>
  <rdf:RDF xmlns:dc="http://purl.org/dc/elements/1.1/" xmlns:cc="http://creativecommons.org/ns#" xmlns:rdf="http://www.w3.org/1999/02/22-rdf-syntax-ns#">
   <cc:Work>
    <dc:type rdf:resource="http://purl.org/dc/dcmitype/StillImage"/>
    <dc:date>2024-05-10T14:49:26.799159</dc:date>
    <dc:format>image/svg+xml</dc:format>
    <dc:creator>
     <cc:Agent>
      <dc:title>Matplotlib v3.8.0, https://matplotlib.org/</dc:title>
     </cc:Agent>
    </dc:creator>
   </cc:Work>
  </rdf:RDF>
 </metadata>
 <defs>
  <style type="text/css">*{stroke-linejoin: round; stroke-linecap: butt}</style>
 </defs>
 <g id="figure_1">
  <g id="patch_1">
   <path d="M 0 337.087656 
L 451.272187 337.087656 
L 451.272187 0 
L 0 0 
z
" style="fill: #ffffff"/>
  </g>
  <g id="axes_1">
   <g id="patch_2">
    <path d="M 53.472188 284.4 
L 444.072188 284.4 
L 444.072188 7.2 
L 53.472188 7.2 
z
" style="fill: #ffffff"/>
   </g>
   <g id="matplotlib.axis_1">
    <g id="xtick_1">
     <g id="line2d_1">
      <defs>
       <path id="m5ea2ef4030" d="M 0 0 
L 0 3.5 
" style="stroke: #000000; stroke-width: 0.8"/>
      </defs>
      <g>
       <use xlink:href="#m5ea2ef4030" x="71.226733" y="284.4" style="stroke: #000000; stroke-width: 0.8"/>
      </g>
     </g>
     <g id="text_1">
      <!-- 5.06 -->
      <g transform="translate(58.980639 299.758281) scale(0.11 -0.11)">
       <defs>
        <path id="DejaVuSans-35" d="M 691 4666 
L 3169 4666 
L 3169 4134 
L 1269 4134 
L 1269 2991 
Q 1406 3038 1543 3061 
Q 1681 3084 1819 3084 
Q 2600 3084 3056 2656 
Q 3513 2228 3513 1497 
Q 3513 744 3044 326 
Q 2575 -91 1722 -91 
Q 1428 -91 1123 -41 
Q 819 9 494 109 
L 494 744 
Q 775 591 1075 516 
Q 1375 441 1709 441 
Q 2250 441 2565 725 
Q 2881 1009 2881 1497 
Q 2881 1984 2565 2268 
Q 2250 2553 1709 2553 
Q 1456 2553 1204 2497 
Q 953 2441 691 2322 
L 691 4666 
z
" transform="scale(0.015625)"/>
        <path id="DejaVuSans-2e" d="M 684 794 
L 1344 794 
L 1344 0 
L 684 0 
L 684 794 
z
" transform="scale(0.015625)"/>
        <path id="DejaVuSans-30" d="M 2034 4250 
Q 1547 4250 1301 3770 
Q 1056 3291 1056 2328 
Q 1056 1369 1301 889 
Q 1547 409 2034 409 
Q 2525 409 2770 889 
Q 3016 1369 3016 2328 
Q 3016 3291 2770 3770 
Q 2525 4250 2034 4250 
z
M 2034 4750 
Q 2819 4750 3233 4129 
Q 3647 3509 3647 2328 
Q 3647 1150 3233 529 
Q 2819 -91 2034 -91 
Q 1250 -91 836 529 
Q 422 1150 422 2328 
Q 422 3509 836 4129 
Q 1250 4750 2034 4750 
z
" transform="scale(0.015625)"/>
        <path id="DejaVuSans-36" d="M 2113 2584 
Q 1688 2584 1439 2293 
Q 1191 2003 1191 1497 
Q 1191 994 1439 701 
Q 1688 409 2113 409 
Q 2538 409 2786 701 
Q 3034 994 3034 1497 
Q 3034 2003 2786 2293 
Q 2538 2584 2113 2584 
z
M 3366 4563 
L 3366 3988 
Q 3128 4100 2886 4159 
Q 2644 4219 2406 4219 
Q 1781 4219 1451 3797 
Q 1122 3375 1075 2522 
Q 1259 2794 1537 2939 
Q 1816 3084 2150 3084 
Q 2853 3084 3261 2657 
Q 3669 2231 3669 1497 
Q 3669 778 3244 343 
Q 2819 -91 2113 -91 
Q 1303 -91 875 529 
Q 447 1150 447 2328 
Q 447 3434 972 4092 
Q 1497 4750 2381 4750 
Q 2619 4750 2861 4703 
Q 3103 4656 3366 4563 
z
" transform="scale(0.015625)"/>
       </defs>
       <use xlink:href="#DejaVuSans-35"/>
       <use xlink:href="#DejaVuSans-2e" x="63.623047"/>
       <use xlink:href="#DejaVuSans-30" x="95.410156"/>
       <use xlink:href="#DejaVuSans-36" x="159.033203"/>
      </g>
     </g>
    </g>
    <g id="xtick_2">
     <g id="line2d_2">
      <g>
       <use xlink:href="#m5ea2ef4030" x="130.905877" y="284.4" style="stroke: #000000; stroke-width: 0.8"/>
      </g>
     </g>
     <g id="text_2">
      <!-- 5.08 -->
      <g transform="translate(118.659784 299.758281) scale(0.11 -0.11)">
       <defs>
        <path id="DejaVuSans-38" d="M 2034 2216 
Q 1584 2216 1326 1975 
Q 1069 1734 1069 1313 
Q 1069 891 1326 650 
Q 1584 409 2034 409 
Q 2484 409 2743 651 
Q 3003 894 3003 1313 
Q 3003 1734 2745 1975 
Q 2488 2216 2034 2216 
z
M 1403 2484 
Q 997 2584 770 2862 
Q 544 3141 544 3541 
Q 544 4100 942 4425 
Q 1341 4750 2034 4750 
Q 2731 4750 3128 4425 
Q 3525 4100 3525 3541 
Q 3525 3141 3298 2862 
Q 3072 2584 2669 2484 
Q 3125 2378 3379 2068 
Q 3634 1759 3634 1313 
Q 3634 634 3220 271 
Q 2806 -91 2034 -91 
Q 1263 -91 848 271 
Q 434 634 434 1313 
Q 434 1759 690 2068 
Q 947 2378 1403 2484 
z
M 1172 3481 
Q 1172 3119 1398 2916 
Q 1625 2713 2034 2713 
Q 2441 2713 2670 2916 
Q 2900 3119 2900 3481 
Q 2900 3844 2670 4047 
Q 2441 4250 2034 4250 
Q 1625 4250 1398 4047 
Q 1172 3844 1172 3481 
z
" transform="scale(0.015625)"/>
       </defs>
       <use xlink:href="#DejaVuSans-35"/>
       <use xlink:href="#DejaVuSans-2e" x="63.623047"/>
       <use xlink:href="#DejaVuSans-30" x="95.410156"/>
       <use xlink:href="#DejaVuSans-38" x="159.033203"/>
      </g>
     </g>
    </g>
    <g id="xtick_3">
     <g id="line2d_3">
      <g>
       <use xlink:href="#m5ea2ef4030" x="190.585022" y="284.4" style="stroke: #000000; stroke-width: 0.8"/>
      </g>
     </g>
     <g id="text_3">
      <!-- 5.10 -->
      <g transform="translate(178.338928 299.758281) scale(0.11 -0.11)">
       <defs>
        <path id="DejaVuSans-31" d="M 794 531 
L 1825 531 
L 1825 4091 
L 703 3866 
L 703 4441 
L 1819 4666 
L 2450 4666 
L 2450 531 
L 3481 531 
L 3481 0 
L 794 0 
L 794 531 
z
" transform="scale(0.015625)"/>
       </defs>
       <use xlink:href="#DejaVuSans-35"/>
       <use xlink:href="#DejaVuSans-2e" x="63.623047"/>
       <use xlink:href="#DejaVuSans-31" x="95.410156"/>
       <use xlink:href="#DejaVuSans-30" x="159.033203"/>
      </g>
     </g>
    </g>
    <g id="xtick_4">
     <g id="line2d_4">
      <g>
       <use xlink:href="#m5ea2ef4030" x="250.264166" y="284.4" style="stroke: #000000; stroke-width: 0.8"/>
      </g>
     </g>
     <g id="text_4">
      <!-- 5.12 -->
      <g transform="translate(238.018072 299.758281) scale(0.11 -0.11)">
       <defs>
        <path id="DejaVuSans-32" d="M 1228 531 
L 3431 531 
L 3431 0 
L 469 0 
L 469 531 
Q 828 903 1448 1529 
Q 2069 2156 2228 2338 
Q 2531 2678 2651 2914 
Q 2772 3150 2772 3378 
Q 2772 3750 2511 3984 
Q 2250 4219 1831 4219 
Q 1534 4219 1204 4116 
Q 875 4013 500 3803 
L 500 4441 
Q 881 4594 1212 4672 
Q 1544 4750 1819 4750 
Q 2544 4750 2975 4387 
Q 3406 4025 3406 3419 
Q 3406 3131 3298 2873 
Q 3191 2616 2906 2266 
Q 2828 2175 2409 1742 
Q 1991 1309 1228 531 
z
" transform="scale(0.015625)"/>
       </defs>
       <use xlink:href="#DejaVuSans-35"/>
       <use xlink:href="#DejaVuSans-2e" x="63.623047"/>
       <use xlink:href="#DejaVuSans-31" x="95.410156"/>
       <use xlink:href="#DejaVuSans-32" x="159.033203"/>
      </g>
     </g>
    </g>
    <g id="xtick_5">
     <g id="line2d_5">
      <g>
       <use xlink:href="#m5ea2ef4030" x="309.94331" y="284.4" style="stroke: #000000; stroke-width: 0.8"/>
      </g>
     </g>
     <g id="text_5">
      <!-- 5.14 -->
      <g transform="translate(297.697217 299.758281) scale(0.11 -0.11)">
       <defs>
        <path id="DejaVuSans-34" d="M 2419 4116 
L 825 1625 
L 2419 1625 
L 2419 4116 
z
M 2253 4666 
L 3047 4666 
L 3047 1625 
L 3713 1625 
L 3713 1100 
L 3047 1100 
L 3047 0 
L 2419 0 
L 2419 1100 
L 313 1100 
L 313 1709 
L 2253 4666 
z
" transform="scale(0.015625)"/>
       </defs>
       <use xlink:href="#DejaVuSans-35"/>
       <use xlink:href="#DejaVuSans-2e" x="63.623047"/>
       <use xlink:href="#DejaVuSans-31" x="95.410156"/>
       <use xlink:href="#DejaVuSans-34" x="159.033203"/>
      </g>
     </g>
    </g>
    <g id="xtick_6">
     <g id="line2d_6">
      <g>
       <use xlink:href="#m5ea2ef4030" x="369.622455" y="284.4" style="stroke: #000000; stroke-width: 0.8"/>
      </g>
     </g>
     <g id="text_6">
      <!-- 5.16 -->
      <g transform="translate(357.376361 299.758281) scale(0.11 -0.11)">
       <use xlink:href="#DejaVuSans-35"/>
       <use xlink:href="#DejaVuSans-2e" x="63.623047"/>
       <use xlink:href="#DejaVuSans-31" x="95.410156"/>
       <use xlink:href="#DejaVuSans-36" x="159.033203"/>
      </g>
     </g>
    </g>
    <g id="xtick_7">
     <g id="line2d_7">
      <g>
       <use xlink:href="#m5ea2ef4030" x="429.301599" y="284.4" style="stroke: #000000; stroke-width: 0.8"/>
      </g>
     </g>
     <g id="text_7">
      <!-- 5.18 -->
      <g transform="translate(417.055506 299.758281) scale(0.11 -0.11)">
       <use xlink:href="#DejaVuSans-35"/>
       <use xlink:href="#DejaVuSans-2e" x="63.623047"/>
       <use xlink:href="#DejaVuSans-31" x="95.410156"/>
       <use xlink:href="#DejaVuSans-38" x="159.033203"/>
      </g>
     </g>
    </g>
    <g id="text_8">
     <!-- $\beta$ -->
     <g transform="translate(245.252188 314.515938) scale(0.11 -0.11)">
      <defs>
       <path id="DejaVuSans-Oblique-3b2" d="M 872 216 
L 572 -1331 
L -6 -1331 
L 928 3478 
Q 1206 4903 2538 4903 
Q 3888 4903 3659 3700 
Q 3503 2844 2894 2531 
Q 3713 2250 3553 1416 
Q 3272 -69 1759 -66 
Q 1097 -63 872 216 
z
M 1019 966 
Q 1259 422 1875 425 
Q 2775 425 2966 1406 
Q 3138 2288 1675 2219 
L 1778 2750 
Q 2909 2731 3106 3750 
Q 3241 4438 2509 4434 
Q 1691 4434 1503 3459 
L 1019 966 
z
" transform="scale(0.015625)"/>
      </defs>
      <use xlink:href="#DejaVuSans-Oblique-3b2" transform="translate(0 0.390625)"/>
     </g>
    </g>
   </g>
   <g id="matplotlib.axis_2">
    <g id="ytick_1">
     <g id="line2d_8">
      <defs>
       <path id="m457b9c43b9" d="M 0 0 
L -3.5 0 
" style="stroke: #000000; stroke-width: 0.8"/>
      </defs>
      <g>
       <use xlink:href="#m457b9c43b9" x="53.472188" y="283.003444" style="stroke: #000000; stroke-width: 0.8"/>
      </g>
     </g>
     <g id="text_9">
      <!-- 0.52 -->
      <g transform="translate(21.98 287.182584) scale(0.11 -0.11)">
       <use xlink:href="#DejaVuSans-30"/>
       <use xlink:href="#DejaVuSans-2e" x="63.623047"/>
       <use xlink:href="#DejaVuSans-35" x="95.410156"/>
       <use xlink:href="#DejaVuSans-32" x="159.033203"/>
      </g>
     </g>
    </g>
    <g id="ytick_2">
     <g id="line2d_9">
      <g>
       <use xlink:href="#m457b9c43b9" x="53.472188" y="244.901215" style="stroke: #000000; stroke-width: 0.8"/>
      </g>
     </g>
     <g id="text_10">
      <!-- 0.53 -->
      <g transform="translate(21.98 249.080355) scale(0.11 -0.11)">
       <defs>
        <path id="DejaVuSans-33" d="M 2597 2516 
Q 3050 2419 3304 2112 
Q 3559 1806 3559 1356 
Q 3559 666 3084 287 
Q 2609 -91 1734 -91 
Q 1441 -91 1130 -33 
Q 819 25 488 141 
L 488 750 
Q 750 597 1062 519 
Q 1375 441 1716 441 
Q 2309 441 2620 675 
Q 2931 909 2931 1356 
Q 2931 1769 2642 2001 
Q 2353 2234 1838 2234 
L 1294 2234 
L 1294 2753 
L 1863 2753 
Q 2328 2753 2575 2939 
Q 2822 3125 2822 3475 
Q 2822 3834 2567 4026 
Q 2313 4219 1838 4219 
Q 1578 4219 1281 4162 
Q 984 4106 628 3988 
L 628 4550 
Q 988 4650 1302 4700 
Q 1616 4750 1894 4750 
Q 2613 4750 3031 4423 
Q 3450 4097 3450 3541 
Q 3450 3153 3228 2886 
Q 3006 2619 2597 2516 
z
" transform="scale(0.015625)"/>
       </defs>
       <use xlink:href="#DejaVuSans-30"/>
       <use xlink:href="#DejaVuSans-2e" x="63.623047"/>
       <use xlink:href="#DejaVuSans-35" x="95.410156"/>
       <use xlink:href="#DejaVuSans-33" x="159.033203"/>
      </g>
     </g>
    </g>
    <g id="ytick_3">
     <g id="line2d_10">
      <g>
       <use xlink:href="#m457b9c43b9" x="53.472188" y="206.798985" style="stroke: #000000; stroke-width: 0.8"/>
      </g>
     </g>
     <g id="text_11">
      <!-- 0.54 -->
      <g transform="translate(21.98 210.978126) scale(0.11 -0.11)">
       <use xlink:href="#DejaVuSans-30"/>
       <use xlink:href="#DejaVuSans-2e" x="63.623047"/>
       <use xlink:href="#DejaVuSans-35" x="95.410156"/>
       <use xlink:href="#DejaVuSans-34" x="159.033203"/>
      </g>
     </g>
    </g>
    <g id="ytick_4">
     <g id="line2d_11">
      <g>
       <use xlink:href="#m457b9c43b9" x="53.472188" y="168.696756" style="stroke: #000000; stroke-width: 0.8"/>
      </g>
     </g>
     <g id="text_12">
      <!-- 0.55 -->
      <g transform="translate(21.98 172.875897) scale(0.11 -0.11)">
       <use xlink:href="#DejaVuSans-30"/>
       <use xlink:href="#DejaVuSans-2e" x="63.623047"/>
       <use xlink:href="#DejaVuSans-35" x="95.410156"/>
       <use xlink:href="#DejaVuSans-35" x="159.033203"/>
      </g>
     </g>
    </g>
    <g id="ytick_5">
     <g id="line2d_12">
      <g>
       <use xlink:href="#m457b9c43b9" x="53.472188" y="130.594527" style="stroke: #000000; stroke-width: 0.8"/>
      </g>
     </g>
     <g id="text_13">
      <!-- 0.56 -->
      <g transform="translate(21.98 134.773667) scale(0.11 -0.11)">
       <use xlink:href="#DejaVuSans-30"/>
       <use xlink:href="#DejaVuSans-2e" x="63.623047"/>
       <use xlink:href="#DejaVuSans-35" x="95.410156"/>
       <use xlink:href="#DejaVuSans-36" x="159.033203"/>
      </g>
     </g>
    </g>
    <g id="ytick_6">
     <g id="line2d_13">
      <g>
       <use xlink:href="#m457b9c43b9" x="53.472188" y="92.492297" style="stroke: #000000; stroke-width: 0.8"/>
      </g>
     </g>
     <g id="text_14">
      <!-- 0.57 -->
      <g transform="translate(21.98 96.671438) scale(0.11 -0.11)">
       <defs>
        <path id="DejaVuSans-37" d="M 525 4666 
L 3525 4666 
L 3525 4397 
L 1831 0 
L 1172 0 
L 2766 4134 
L 525 4134 
L 525 4666 
z
" transform="scale(0.015625)"/>
       </defs>
       <use xlink:href="#DejaVuSans-30"/>
       <use xlink:href="#DejaVuSans-2e" x="63.623047"/>
       <use xlink:href="#DejaVuSans-35" x="95.410156"/>
       <use xlink:href="#DejaVuSans-37" x="159.033203"/>
      </g>
     </g>
    </g>
    <g id="ytick_7">
     <g id="line2d_14">
      <g>
       <use xlink:href="#m457b9c43b9" x="53.472188" y="54.390068" style="stroke: #000000; stroke-width: 0.8"/>
      </g>
     </g>
     <g id="text_15">
      <!-- 0.58 -->
      <g transform="translate(21.98 58.569209) scale(0.11 -0.11)">
       <use xlink:href="#DejaVuSans-30"/>
       <use xlink:href="#DejaVuSans-2e" x="63.623047"/>
       <use xlink:href="#DejaVuSans-35" x="95.410156"/>
       <use xlink:href="#DejaVuSans-38" x="159.033203"/>
      </g>
     </g>
    </g>
    <g id="ytick_8">
     <g id="line2d_15">
      <g>
       <use xlink:href="#m457b9c43b9" x="53.472188" y="16.287839" style="stroke: #000000; stroke-width: 0.8"/>
      </g>
     </g>
     <g id="text_16">
      <!-- 0.59 -->
      <g transform="translate(21.98 20.46698) scale(0.11 -0.11)">
       <defs>
        <path id="DejaVuSans-39" d="M 703 97 
L 703 672 
Q 941 559 1184 500 
Q 1428 441 1663 441 
Q 2288 441 2617 861 
Q 2947 1281 2994 2138 
Q 2813 1869 2534 1725 
Q 2256 1581 1919 1581 
Q 1219 1581 811 2004 
Q 403 2428 403 3163 
Q 403 3881 828 4315 
Q 1253 4750 1959 4750 
Q 2769 4750 3195 4129 
Q 3622 3509 3622 2328 
Q 3622 1225 3098 567 
Q 2575 -91 1691 -91 
Q 1453 -91 1209 -44 
Q 966 3 703 97 
z
M 1959 2075 
Q 2384 2075 2632 2365 
Q 2881 2656 2881 3163 
Q 2881 3666 2632 3958 
Q 2384 4250 1959 4250 
Q 1534 4250 1286 3958 
Q 1038 3666 1038 3163 
Q 1038 2656 1286 2365 
Q 1534 2075 1959 2075 
z
" transform="scale(0.015625)"/>
       </defs>
       <use xlink:href="#DejaVuSans-30"/>
       <use xlink:href="#DejaVuSans-2e" x="63.623047"/>
       <use xlink:href="#DejaVuSans-35" x="95.410156"/>
       <use xlink:href="#DejaVuSans-39" x="159.033203"/>
      </g>
     </g>
    </g>
    <g id="text_17">
     <!-- $\langle$ S $\rangle / (6\cdot V \cdot\beta)$ -->
     <g transform="translate(15.67 181.825) rotate(-90) scale(0.11 -0.11)">
      <defs>
       <path id="DejaVuSans-27e8" d="M 572 2006 
L 1453 4856 
L 1984 4856 
L 1103 2006 
L 1984 -844 
L 1453 -844 
L 572 2006 
z
" transform="scale(0.015625)"/>
       <path id="DejaVuSans-20" transform="scale(0.015625)"/>
       <path id="DejaVuSans-53" d="M 3425 4513 
L 3425 3897 
Q 3066 4069 2747 4153 
Q 2428 4238 2131 4238 
Q 1616 4238 1336 4038 
Q 1056 3838 1056 3469 
Q 1056 3159 1242 3001 
Q 1428 2844 1947 2747 
L 2328 2669 
Q 3034 2534 3370 2195 
Q 3706 1856 3706 1288 
Q 3706 609 3251 259 
Q 2797 -91 1919 -91 
Q 1588 -91 1214 -16 
Q 841 59 441 206 
L 441 856 
Q 825 641 1194 531 
Q 1563 422 1919 422 
Q 2459 422 2753 634 
Q 3047 847 3047 1241 
Q 3047 1584 2836 1778 
Q 2625 1972 2144 2069 
L 1759 2144 
Q 1053 2284 737 2584 
Q 422 2884 422 3419 
Q 422 4038 858 4394 
Q 1294 4750 2059 4750 
Q 2388 4750 2728 4690 
Q 3069 4631 3425 4513 
z
" transform="scale(0.015625)"/>
       <path id="DejaVuSans-27e9" d="M 1925 2006 
L 1044 -844 
L 513 -844 
L 1394 2006 
L 513 4856 
L 1044 4856 
L 1925 2006 
z
" transform="scale(0.015625)"/>
       <path id="DejaVuSans-2f" d="M 1625 4666 
L 2156 4666 
L 531 -594 
L 0 -594 
L 1625 4666 
z
" transform="scale(0.015625)"/>
       <path id="DejaVuSans-28" d="M 1984 4856 
Q 1566 4138 1362 3434 
Q 1159 2731 1159 2009 
Q 1159 1288 1364 580 
Q 1569 -128 1984 -844 
L 1484 -844 
Q 1016 -109 783 600 
Q 550 1309 550 2009 
Q 550 2706 781 3412 
Q 1013 4119 1484 4856 
L 1984 4856 
z
" transform="scale(0.015625)"/>
       <path id="DejaVuSans-22c5" d="M 684 2619 
L 1344 2619 
L 1344 1825 
L 684 1825 
L 684 2619 
z
" transform="scale(0.015625)"/>
       <path id="DejaVuSans-Oblique-56" d="M 1319 0 
L 500 4666 
L 1119 4666 
L 1797 653 
L 4063 4666 
L 4750 4666 
L 2053 0 
L 1319 0 
z
" transform="scale(0.015625)"/>
       <path id="DejaVuSans-29" d="M 513 4856 
L 1013 4856 
Q 1481 4119 1714 3412 
Q 1947 2706 1947 2009 
Q 1947 1309 1714 600 
Q 1481 -109 1013 -844 
L 513 -844 
Q 928 -128 1133 580 
Q 1338 1288 1338 2009 
Q 1338 2731 1133 3434 
Q 928 4138 513 4856 
z
" transform="scale(0.015625)"/>
      </defs>
      <use xlink:href="#DejaVuSans-27e8" transform="translate(0 0.390625)"/>
      <use xlink:href="#DejaVuSans-20" transform="translate(39.013672 0.390625)"/>
      <use xlink:href="#DejaVuSans-53" transform="translate(70.800781 0.390625)"/>
      <use xlink:href="#DejaVuSans-20" transform="translate(134.277344 0.390625)"/>
      <use xlink:href="#DejaVuSans-27e9" transform="translate(166.064453 0.390625)"/>
      <use xlink:href="#DejaVuSans-2f" transform="translate(205.078125 0.390625)"/>
      <use xlink:href="#DejaVuSans-28" transform="translate(238.769531 0.390625)"/>
      <use xlink:href="#DejaVuSans-36" transform="translate(277.783203 0.390625)"/>
      <use xlink:href="#DejaVuSans-22c5" transform="translate(360.888672 0.390625)"/>
      <use xlink:href="#DejaVuSans-Oblique-56" transform="translate(412.158203 0.390625)"/>
      <use xlink:href="#DejaVuSans-22c5" transform="translate(500.048828 0.390625)"/>
      <use xlink:href="#DejaVuSans-Oblique-3b2" transform="translate(551.318359 0.390625)"/>
      <use xlink:href="#DejaVuSans-29" transform="translate(615.136719 0.390625)"/>
     </g>
    </g>
   </g>
   <g id="LineCollection_1">
    <path d="M 71.226733 19.824968 
L 71.226733 19.8 
" clip-path="url(#p1ec8308fc3)" style="fill: none; stroke: #ff0000; stroke-width: 1.5"/>
    <path d="M 74.21069 20.287816 
L 74.21069 20.262928 
" clip-path="url(#p1ec8308fc3)" style="fill: none; stroke: #ff0000; stroke-width: 1.5"/>
    <path d="M 77.194647 20.752264 
L 77.194647 20.727302 
" clip-path="url(#p1ec8308fc3)" style="fill: none; stroke: #ff0000; stroke-width: 1.5"/>
    <path d="M 80.178605 21.218338 
L 80.178605 21.19312 
" clip-path="url(#p1ec8308fc3)" style="fill: none; stroke: #ff0000; stroke-width: 1.5"/>
    <path d="M 83.162562 21.686069 
L 83.162562 21.660387 
" clip-path="url(#p1ec8308fc3)" style="fill: none; stroke: #ff0000; stroke-width: 1.5"/>
    <path d="M 86.146519 22.155494 
L 86.146519 22.129115 
" clip-path="url(#p1ec8308fc3)" style="fill: none; stroke: #ff0000; stroke-width: 1.5"/>
    <path d="M 89.130476 22.62666 
L 89.130476 22.599331 
" clip-path="url(#p1ec8308fc3)" style="fill: none; stroke: #ff0000; stroke-width: 1.5"/>
    <path d="M 92.114433 23.099628 
L 92.114433 23.07108 
" clip-path="url(#p1ec8308fc3)" style="fill: none; stroke: #ff0000; stroke-width: 1.5"/>
    <path d="M 95.098391 23.574481 
L 95.098391 23.544431 
" clip-path="url(#p1ec8308fc3)" style="fill: none; stroke: #ff0000; stroke-width: 1.5"/>
    <path d="M 98.082348 24.051336 
L 98.082348 24.019488 
" clip-path="url(#p1ec8308fc3)" style="fill: none; stroke: #ff0000; stroke-width: 1.5"/>
    <path d="M 101.066305 24.530362 
L 101.066305 24.496405 
" clip-path="url(#p1ec8308fc3)" style="fill: none; stroke: #ff0000; stroke-width: 1.5"/>
    <path d="M 104.050262 25.011806 
L 104.050262 24.975411 
" clip-path="url(#p1ec8308fc3)" style="fill: none; stroke: #ff0000; stroke-width: 1.5"/>
    <path d="M 107.03422 25.496038 
L 107.03422 25.456847 
" clip-path="url(#p1ec8308fc3)" style="fill: none; stroke: #ff0000; stroke-width: 1.5"/>
    <path d="M 110.018177 25.983615 
L 110.018177 25.941233 
" clip-path="url(#p1ec8308fc3)" style="fill: none; stroke: #ff0000; stroke-width: 1.5"/>
    <path d="M 113.002134 26.475391 
L 113.002134 26.429361 
" clip-path="url(#p1ec8308fc3)" style="fill: none; stroke: #ff0000; stroke-width: 1.5"/>
    <path d="M 115.986091 26.972679 
L 115.986091 26.922453 
" clip-path="url(#p1ec8308fc3)" style="fill: none; stroke: #ff0000; stroke-width: 1.5"/>
    <path d="M 118.970048 27.47753 
L 118.970048 27.42242 
" clip-path="url(#p1ec8308fc3)" style="fill: none; stroke: #ff0000; stroke-width: 1.5"/>
    <path d="M 121.954006 27.993173 
L 121.954006 27.932268 
" clip-path="url(#p1ec8308fc3)" style="fill: none; stroke: #ff0000; stroke-width: 1.5"/>
    <path d="M 124.937963 28.524735 
L 124.937963 28.456758 
" clip-path="url(#p1ec8308fc3)" style="fill: none; stroke: #ff0000; stroke-width: 1.5"/>
    <path d="M 127.92192 29.080427 
L 127.92192 29.00349 
" clip-path="url(#p1ec8308fc3)" style="fill: none; stroke: #ff0000; stroke-width: 1.5"/>
    <path d="M 130.905877 29.67349 
L 130.905877 29.584644 
" clip-path="url(#p1ec8308fc3)" style="fill: none; stroke: #ff0000; stroke-width: 1.5"/>
    <path d="M 133.889835 30.325376 
L 133.889835 30.219841 
" clip-path="url(#p1ec8308fc3)" style="fill: none; stroke: #ff0000; stroke-width: 1.5"/>
    <path d="M 136.873792 31.070948 
L 136.873792 30.940796 
" clip-path="url(#p1ec8308fc3)" style="fill: none; stroke: #ff0000; stroke-width: 1.5"/>
    <path d="M 139.857749 31.96683 
L 139.857749 31.798903 
" clip-path="url(#p1ec8308fc3)" style="fill: none; stroke: #ff0000; stroke-width: 1.5"/>
    <path d="M 142.841706 33.104621 
L 142.841706 32.877394 
" clip-path="url(#p1ec8308fc3)" style="fill: none; stroke: #ff0000; stroke-width: 1.5"/>
    <path d="M 145.825663 34.631124 
L 145.825663 34.310283 
" clip-path="url(#p1ec8308fc3)" style="fill: none; stroke: #ff0000; stroke-width: 1.5"/>
    <path d="M 148.809621 36.777559 
L 148.809621 36.310164 
" clip-path="url(#p1ec8308fc3)" style="fill: none; stroke: #ff0000; stroke-width: 1.5"/>
    <path d="M 151.793578 39.896716 
L 151.793578 39.204761 
" clip-path="url(#p1ec8308fc3)" style="fill: none; stroke: #ff0000; stroke-width: 1.5"/>
    <path d="M 154.777535 44.496844 
L 154.777535 43.473773 
" clip-path="url(#p1ec8308fc3)" style="fill: none; stroke: #ff0000; stroke-width: 1.5"/>
    <path d="M 157.761492 51.237354 
L 157.761492 49.756726 
" clip-path="url(#p1ec8308fc3)" style="fill: none; stroke: #ff0000; stroke-width: 1.5"/>
    <path d="M 160.74545 60.814522 
L 160.74545 58.766414 
" clip-path="url(#p1ec8308fc3)" style="fill: none; stroke: #ff0000; stroke-width: 1.5"/>
    <path d="M 163.729407 73.653702 
L 163.729407 71.01912 
" clip-path="url(#p1ec8308fc3)" style="fill: none; stroke: #ff0000; stroke-width: 1.5"/>
    <path d="M 166.713364 89.44334 
L 166.713364 86.37813 
" clip-path="url(#p1ec8308fc3)" style="fill: none; stroke: #ff0000; stroke-width: 1.5"/>
    <path d="M 169.697321 106.843001 
L 169.697321 103.685078 
" clip-path="url(#p1ec8308fc3)" style="fill: none; stroke: #ff0000; stroke-width: 1.5"/>
    <path d="M 172.681278 123.827754 
L 172.681278 120.966844 
" clip-path="url(#p1ec8308fc3)" style="fill: none; stroke: #ff0000; stroke-width: 1.5"/>
    <path d="M 175.665236 138.594871 
L 175.665236 136.292739 
" clip-path="url(#p1ec8308fc3)" style="fill: none; stroke: #ff0000; stroke-width: 1.5"/>
    <path d="M 178.649193 150.276006 
L 178.649193 148.592579 
" clip-path="url(#p1ec8308fc3)" style="fill: none; stroke: #ff0000; stroke-width: 1.5"/>
    <path d="M 181.63315 158.94772 
L 181.63315 157.797247 
" clip-path="url(#p1ec8308fc3)" style="fill: none; stroke: #ff0000; stroke-width: 1.5"/>
    <path d="M 184.617107 165.198898 
L 184.617107 164.443497 
" clip-path="url(#p1ec8308fc3)" style="fill: none; stroke: #ff0000; stroke-width: 1.5"/>
    <path d="M 187.601065 169.71867 
L 187.601065 169.229806 
" clip-path="url(#p1ec8308fc3)" style="fill: none; stroke: #ff0000; stroke-width: 1.5"/>
    <path d="M 190.585022 173.086714 
L 190.585022 172.767197 
" clip-path="url(#p1ec8308fc3)" style="fill: none; stroke: #ff0000; stroke-width: 1.5"/>
    <path d="M 193.568979 175.721898 
L 193.568979 175.505872 
" clip-path="url(#p1ec8308fc3)" style="fill: none; stroke: #ff0000; stroke-width: 1.5"/>
    <path d="M 196.552936 177.902759 
L 196.552936 177.748468 
" clip-path="url(#p1ec8308fc3)" style="fill: none; stroke: #ff0000; stroke-width: 1.5"/>
    <path d="M 199.536893 179.80578 
L 199.536893 179.68799 
" clip-path="url(#p1ec8308fc3)" style="fill: none; stroke: #ff0000; stroke-width: 1.5"/>
    <path d="M 202.520851 181.53965 
L 202.520851 181.443704 
" clip-path="url(#p1ec8308fc3)" style="fill: none; stroke: #ff0000; stroke-width: 1.5"/>
    <path d="M 205.504808 183.17025 
L 205.504808 183.087856 
" clip-path="url(#p1ec8308fc3)" style="fill: none; stroke: #ff0000; stroke-width: 1.5"/>
    <path d="M 208.488765 184.737179 
L 208.488765 184.663655 
" clip-path="url(#p1ec8308fc3)" style="fill: none; stroke: #ff0000; stroke-width: 1.5"/>
    <path d="M 211.472722 186.264142 
L 211.472722 186.196756 
" clip-path="url(#p1ec8308fc3)" style="fill: none; stroke: #ff0000; stroke-width: 1.5"/>
    <path d="M 214.456679 187.765301 
L 214.456679 187.702345 
" clip-path="url(#p1ec8308fc3)" style="fill: none; stroke: #ff0000; stroke-width: 1.5"/>
    <path d="M 217.440637 189.249114 
L 217.440637 189.189407 
" clip-path="url(#p1ec8308fc3)" style="fill: none; stroke: #ff0000; stroke-width: 1.5"/>
    <path d="M 220.424594 190.72064 
L 220.424594 190.663262 
" clip-path="url(#p1ec8308fc3)" style="fill: none; stroke: #ff0000; stroke-width: 1.5"/>
    <path d="M 223.408551 192.182899 
L 223.408551 192.127068 
" clip-path="url(#p1ec8308fc3)" style="fill: none; stroke: #ff0000; stroke-width: 1.5"/>
    <path d="M 226.392508 193.637678 
L 226.392508 193.582694 
" clip-path="url(#p1ec8308fc3)" style="fill: none; stroke: #ff0000; stroke-width: 1.5"/>
    <path d="M 229.376466 195.086009 
L 229.376466 195.031248 
" clip-path="url(#p1ec8308fc3)" style="fill: none; stroke: #ff0000; stroke-width: 1.5"/>
    <path d="M 232.360423 196.528448 
L 232.360423 196.473372 
" clip-path="url(#p1ec8308fc3)" style="fill: none; stroke: #ff0000; stroke-width: 1.5"/>
    <path d="M 235.34438 197.965248 
L 235.34438 197.909429 
" clip-path="url(#p1ec8308fc3)" style="fill: none; stroke: #ff0000; stroke-width: 1.5"/>
    <path d="M 238.328337 199.396465 
L 238.328337 199.339598 
" clip-path="url(#p1ec8308fc3)" style="fill: none; stroke: #ff0000; stroke-width: 1.5"/>
    <path d="M 241.312294 200.822027 
L 241.312294 200.76394 
" clip-path="url(#p1ec8308fc3)" style="fill: none; stroke: #ff0000; stroke-width: 1.5"/>
    <path d="M 244.296252 202.24178 
L 244.296252 202.182432 
" clip-path="url(#p1ec8308fc3)" style="fill: none; stroke: #ff0000; stroke-width: 1.5"/>
    <path d="M 247.280209 203.655521 
L 247.280209 203.594992 
" clip-path="url(#p1ec8308fc3)" style="fill: none; stroke: #ff0000; stroke-width: 1.5"/>
    <path d="M 250.264166 205.06302 
L 250.264166 205.001496 
" clip-path="url(#p1ec8308fc3)" style="fill: none; stroke: #ff0000; stroke-width: 1.5"/>
    <path d="M 253.248123 206.464032 
L 253.248123 206.401785 
" clip-path="url(#p1ec8308fc3)" style="fill: none; stroke: #ff0000; stroke-width: 1.5"/>
    <path d="M 256.232081 207.858314 
L 256.232081 207.795684 
" clip-path="url(#p1ec8308fc3)" style="fill: none; stroke: #ff0000; stroke-width: 1.5"/>
    <path d="M 259.216038 209.245628 
L 259.216038 209.183001 
" clip-path="url(#p1ec8308fc3)" style="fill: none; stroke: #ff0000; stroke-width: 1.5"/>
    <path d="M 262.199995 210.625752 
L 262.199995 210.563539 
" clip-path="url(#p1ec8308fc3)" style="fill: none; stroke: #ff0000; stroke-width: 1.5"/>
    <path d="M 265.183952 211.998478 
L 265.183952 211.937098 
" clip-path="url(#p1ec8308fc3)" style="fill: none; stroke: #ff0000; stroke-width: 1.5"/>
    <path d="M 268.167909 213.36362 
L 268.167909 213.303479 
" clip-path="url(#p1ec8308fc3)" style="fill: none; stroke: #ff0000; stroke-width: 1.5"/>
    <path d="M 271.151867 214.721012 
L 271.151867 214.662489 
" clip-path="url(#p1ec8308fc3)" style="fill: none; stroke: #ff0000; stroke-width: 1.5"/>
    <path d="M 274.135824 216.070511 
L 274.135824 216.013938 
" clip-path="url(#p1ec8308fc3)" style="fill: none; stroke: #ff0000; stroke-width: 1.5"/>
    <path d="M 277.119781 217.411991 
L 277.119781 217.357645 
" clip-path="url(#p1ec8308fc3)" style="fill: none; stroke: #ff0000; stroke-width: 1.5"/>
    <path d="M 280.103738 218.745346 
L 280.103738 218.693435 
" clip-path="url(#p1ec8308fc3)" style="fill: none; stroke: #ff0000; stroke-width: 1.5"/>
    <path d="M 283.087696 220.070485 
L 283.087696 220.021138 
" clip-path="url(#p1ec8308fc3)" style="fill: none; stroke: #ff0000; stroke-width: 1.5"/>
    <path d="M 286.071653 221.387328 
L 286.071653 221.340591 
" clip-path="url(#p1ec8308fc3)" style="fill: none; stroke: #ff0000; stroke-width: 1.5"/>
    <path d="M 289.05561 222.695806 
L 289.05561 222.651634 
" clip-path="url(#p1ec8308fc3)" style="fill: none; stroke: #ff0000; stroke-width: 1.5"/>
    <path d="M 292.039567 223.99585 
L 292.039567 223.954114 
" clip-path="url(#p1ec8308fc3)" style="fill: none; stroke: #ff0000; stroke-width: 1.5"/>
    <path d="M 295.023524 225.287392 
L 295.023524 225.247879 
" clip-path="url(#p1ec8308fc3)" style="fill: none; stroke: #ff0000; stroke-width: 1.5"/>
    <path d="M 298.007482 226.570357 
L 298.007482 226.532785 
" clip-path="url(#p1ec8308fc3)" style="fill: none; stroke: #ff0000; stroke-width: 1.5"/>
    <path d="M 300.991439 227.844657 
L 300.991439 227.808691 
" clip-path="url(#p1ec8308fc3)" style="fill: none; stroke: #ff0000; stroke-width: 1.5"/>
    <path d="M 303.975396 229.110189 
L 303.975396 229.075463 
" clip-path="url(#p1ec8308fc3)" style="fill: none; stroke: #ff0000; stroke-width: 1.5"/>
    <path d="M 306.959353 230.36683 
L 306.959353 230.332973 
" clip-path="url(#p1ec8308fc3)" style="fill: none; stroke: #ff0000; stroke-width: 1.5"/>
    <path d="M 309.94331 231.614438 
L 309.94331 231.581099 
" clip-path="url(#p1ec8308fc3)" style="fill: none; stroke: #ff0000; stroke-width: 1.5"/>
    <path d="M 312.927268 232.852852 
L 312.927268 232.819718 
" clip-path="url(#p1ec8308fc3)" style="fill: none; stroke: #ff0000; stroke-width: 1.5"/>
    <path d="M 315.911225 234.081899 
L 315.911225 234.048702 
" clip-path="url(#p1ec8308fc3)" style="fill: none; stroke: #ff0000; stroke-width: 1.5"/>
    <path d="M 318.895182 235.301397 
L 318.895182 235.267916 
" clip-path="url(#p1ec8308fc3)" style="fill: none; stroke: #ff0000; stroke-width: 1.5"/>
    <path d="M 321.879139 236.511162 
L 321.879139 236.477213 
" clip-path="url(#p1ec8308fc3)" style="fill: none; stroke: #ff0000; stroke-width: 1.5"/>
    <path d="M 324.863097 237.711008 
L 324.863097 237.676435 
" clip-path="url(#p1ec8308fc3)" style="fill: none; stroke: #ff0000; stroke-width: 1.5"/>
    <path d="M 327.847054 238.900751 
L 327.847054 238.865409 
" clip-path="url(#p1ec8308fc3)" style="fill: none; stroke: #ff0000; stroke-width: 1.5"/>
    <path d="M 330.831011 240.080209 
L 330.831011 240.043955 
" clip-path="url(#p1ec8308fc3)" style="fill: none; stroke: #ff0000; stroke-width: 1.5"/>
    <path d="M 333.814968 241.249205 
L 333.814968 241.211884 
" clip-path="url(#p1ec8308fc3)" style="fill: none; stroke: #ff0000; stroke-width: 1.5"/>
    <path d="M 336.798925 242.407566 
L 336.798925 242.369007 
" clip-path="url(#p1ec8308fc3)" style="fill: none; stroke: #ff0000; stroke-width: 1.5"/>
    <path d="M 339.782883 243.555121 
L 339.782883 243.515136 
" clip-path="url(#p1ec8308fc3)" style="fill: none; stroke: #ff0000; stroke-width: 1.5"/>
    <path d="M 342.76684 244.691703 
L 342.76684 244.650092 
" clip-path="url(#p1ec8308fc3)" style="fill: none; stroke: #ff0000; stroke-width: 1.5"/>
    <path d="M 345.750797 245.81715 
L 345.750797 245.773705 
" clip-path="url(#p1ec8308fc3)" style="fill: none; stroke: #ff0000; stroke-width: 1.5"/>
    <path d="M 348.734754 246.931307 
L 348.734754 246.88582 
" clip-path="url(#p1ec8308fc3)" style="fill: none; stroke: #ff0000; stroke-width: 1.5"/>
    <path d="M 351.718712 248.034022 
L 351.718712 247.986299 
" clip-path="url(#p1ec8308fc3)" style="fill: none; stroke: #ff0000; stroke-width: 1.5"/>
    <path d="M 354.702669 249.125158 
L 354.702669 249.075023 
" clip-path="url(#p1ec8308fc3)" style="fill: none; stroke: #ff0000; stroke-width: 1.5"/>
    <path d="M 357.686626 250.204586 
L 357.686626 250.151893 
" clip-path="url(#p1ec8308fc3)" style="fill: none; stroke: #ff0000; stroke-width: 1.5"/>
    <path d="M 360.670583 251.272193 
L 360.670583 251.21683 
" clip-path="url(#p1ec8308fc3)" style="fill: none; stroke: #ff0000; stroke-width: 1.5"/>
    <path d="M 363.65454 252.327883 
L 363.65454 252.269778 
" clip-path="url(#p1ec8308fc3)" style="fill: none; stroke: #ff0000; stroke-width: 1.5"/>
    <path d="M 366.638498 253.371578 
L 366.638498 253.3107 
" clip-path="url(#p1ec8308fc3)" style="fill: none; stroke: #ff0000; stroke-width: 1.5"/>
    <path d="M 369.622455 254.403222 
L 369.622455 254.339584 
" clip-path="url(#p1ec8308fc3)" style="fill: none; stroke: #ff0000; stroke-width: 1.5"/>
    <path d="M 372.606412 255.42278 
L 372.606412 255.356435 
" clip-path="url(#p1ec8308fc3)" style="fill: none; stroke: #ff0000; stroke-width: 1.5"/>
    <path d="M 375.590369 256.430239 
L 375.590369 256.361285 
" clip-path="url(#p1ec8308fc3)" style="fill: none; stroke: #ff0000; stroke-width: 1.5"/>
    <path d="M 378.574327 257.425611 
L 378.574327 257.354182 
" clip-path="url(#p1ec8308fc3)" style="fill: none; stroke: #ff0000; stroke-width: 1.5"/>
    <path d="M 381.558284 258.408929 
L 381.558284 258.335197 
" clip-path="url(#p1ec8308fc3)" style="fill: none; stroke: #ff0000; stroke-width: 1.5"/>
    <path d="M 384.542241 259.380251 
L 384.542241 259.304423 
" clip-path="url(#p1ec8308fc3)" style="fill: none; stroke: #ff0000; stroke-width: 1.5"/>
    <path d="M 387.526198 260.339658 
L 387.526198 260.261969 
" clip-path="url(#p1ec8308fc3)" style="fill: none; stroke: #ff0000; stroke-width: 1.5"/>
    <path d="M 390.510155 261.287251 
L 390.510155 261.207966 
" clip-path="url(#p1ec8308fc3)" style="fill: none; stroke: #ff0000; stroke-width: 1.5"/>
    <path d="M 393.494113 262.223154 
L 393.494113 262.14256 
" clip-path="url(#p1ec8308fc3)" style="fill: none; stroke: #ff0000; stroke-width: 1.5"/>
    <path d="M 396.47807 263.147511 
L 396.47807 263.065915 
" clip-path="url(#p1ec8308fc3)" style="fill: none; stroke: #ff0000; stroke-width: 1.5"/>
    <path d="M 399.462027 264.060484 
L 399.462027 263.978212 
" clip-path="url(#p1ec8308fc3)" style="fill: none; stroke: #ff0000; stroke-width: 1.5"/>
    <path d="M 402.445984 264.962255 
L 402.445984 264.879643 
" clip-path="url(#p1ec8308fc3)" style="fill: none; stroke: #ff0000; stroke-width: 1.5"/>
    <path d="M 405.429942 265.853021 
L 405.429942 265.770415 
" clip-path="url(#p1ec8308fc3)" style="fill: none; stroke: #ff0000; stroke-width: 1.5"/>
    <path d="M 408.413899 266.732995 
L 408.413899 266.650744 
" clip-path="url(#p1ec8308fc3)" style="fill: none; stroke: #ff0000; stroke-width: 1.5"/>
    <path d="M 411.397856 267.602406 
L 411.397856 267.520857 
" clip-path="url(#p1ec8308fc3)" style="fill: none; stroke: #ff0000; stroke-width: 1.5"/>
    <path d="M 414.381813 268.461497 
L 414.381813 268.380987 
" clip-path="url(#p1ec8308fc3)" style="fill: none; stroke: #ff0000; stroke-width: 1.5"/>
    <path d="M 417.36577 269.310523 
L 417.36577 269.23137 
" clip-path="url(#p1ec8308fc3)" style="fill: none; stroke: #ff0000; stroke-width: 1.5"/>
    <path d="M 420.349728 270.149756 
L 420.349728 270.072244 
" clip-path="url(#p1ec8308fc3)" style="fill: none; stroke: #ff0000; stroke-width: 1.5"/>
    <path d="M 423.333685 270.979481 
L 423.333685 270.903847 
" clip-path="url(#p1ec8308fc3)" style="fill: none; stroke: #ff0000; stroke-width: 1.5"/>
    <path d="M 426.317642 271.8 
L 426.317642 271.726406 
" clip-path="url(#p1ec8308fc3)" style="fill: none; stroke: #ff0000; stroke-width: 1.5"/>
   </g>
   <g id="LineCollection_2">
    <path d="M 71.226733 20.144916 
L 71.226733 20.101201 
" clip-path="url(#p1ec8308fc3)" style="fill: none; stroke: #ff0000; stroke-width: 1.5"/>
    <path d="M 74.21069 20.633783 
L 74.21069 20.589637 
" clip-path="url(#p1ec8308fc3)" style="fill: none; stroke: #ff0000; stroke-width: 1.5"/>
    <path d="M 77.194647 21.125061 
L 77.194647 21.080461 
" clip-path="url(#p1ec8308fc3)" style="fill: none; stroke: #ff0000; stroke-width: 1.5"/>
    <path d="M 80.178605 21.618757 
L 80.178605 21.573692 
" clip-path="url(#p1ec8308fc3)" style="fill: none; stroke: #ff0000; stroke-width: 1.5"/>
    <path d="M 83.162562 22.114882 
L 83.162562 22.069354 
" clip-path="url(#p1ec8308fc3)" style="fill: none; stroke: #ff0000; stroke-width: 1.5"/>
    <path d="M 86.146519 22.613448 
L 86.146519 22.567468 
" clip-path="url(#p1ec8308fc3)" style="fill: none; stroke: #ff0000; stroke-width: 1.5"/>
    <path d="M 89.130476 23.114477 
L 89.130476 23.068064 
" clip-path="url(#p1ec8308fc3)" style="fill: none; stroke: #ff0000; stroke-width: 1.5"/>
    <path d="M 92.114433 23.617994 
L 92.114433 23.571173 
" clip-path="url(#p1ec8308fc3)" style="fill: none; stroke: #ff0000; stroke-width: 1.5"/>
    <path d="M 95.098391 24.124037 
L 95.098391 24.076835 
" clip-path="url(#p1ec8308fc3)" style="fill: none; stroke: #ff0000; stroke-width: 1.5"/>
    <path d="M 98.082348 24.632651 
L 98.082348 24.585099 
" clip-path="url(#p1ec8308fc3)" style="fill: none; stroke: #ff0000; stroke-width: 1.5"/>
    <path d="M 101.066305 25.1439 
L 101.066305 25.096029 
" clip-path="url(#p1ec8308fc3)" style="fill: none; stroke: #ff0000; stroke-width: 1.5"/>
    <path d="M 104.050262 25.657864 
L 104.050262 25.609705 
" clip-path="url(#p1ec8308fc3)" style="fill: none; stroke: #ff0000; stroke-width: 1.5"/>
    <path d="M 107.03422 26.174647 
L 107.03422 26.126229 
" clip-path="url(#p1ec8308fc3)" style="fill: none; stroke: #ff0000; stroke-width: 1.5"/>
    <path d="M 110.018177 26.694384 
L 110.018177 26.645732 
" clip-path="url(#p1ec8308fc3)" style="fill: none; stroke: #ff0000; stroke-width: 1.5"/>
    <path d="M 113.002134 27.217249 
L 113.002134 27.168384 
" clip-path="url(#p1ec8308fc3)" style="fill: none; stroke: #ff0000; stroke-width: 1.5"/>
    <path d="M 115.986091 27.743464 
L 115.986091 27.694402 
" clip-path="url(#p1ec8308fc3)" style="fill: none; stroke: #ff0000; stroke-width: 1.5"/>
    <path d="M 118.970048 28.273316 
L 118.970048 28.224067 
" clip-path="url(#p1ec8308fc3)" style="fill: none; stroke: #ff0000; stroke-width: 1.5"/>
    <path d="M 121.954006 28.807177 
L 121.954006 28.757742 
" clip-path="url(#p1ec8308fc3)" style="fill: none; stroke: #ff0000; stroke-width: 1.5"/>
    <path d="M 124.937963 29.345524 
L 124.937963 29.295901 
" clip-path="url(#p1ec8308fc3)" style="fill: none; stroke: #ff0000; stroke-width: 1.5"/>
    <path d="M 127.92192 29.888977 
L 127.92192 29.839157 
" clip-path="url(#p1ec8308fc3)" style="fill: none; stroke: #ff0000; stroke-width: 1.5"/>
    <path d="M 130.905877 30.438346 
L 130.905877 30.388313 
" clip-path="url(#p1ec8308fc3)" style="fill: none; stroke: #ff0000; stroke-width: 1.5"/>
    <path d="M 133.889835 30.994685 
L 133.889835 30.944423 
" clip-path="url(#p1ec8308fc3)" style="fill: none; stroke: #ff0000; stroke-width: 1.5"/>
    <path d="M 136.873792 31.559384 
L 136.873792 31.508876 
" clip-path="url(#p1ec8308fc3)" style="fill: none; stroke: #ff0000; stroke-width: 1.5"/>
    <path d="M 139.857749 32.134274 
L 139.857749 32.083513 
" clip-path="url(#p1ec8308fc3)" style="fill: none; stroke: #ff0000; stroke-width: 1.5"/>
    <path d="M 142.841706 32.721787 
L 142.841706 32.670783 
" clip-path="url(#p1ec8308fc3)" style="fill: none; stroke: #ff0000; stroke-width: 1.5"/>
    <path d="M 145.825663 33.325168 
L 145.825663 33.273958 
" clip-path="url(#p1ec8308fc3)" style="fill: none; stroke: #ff0000; stroke-width: 1.5"/>
    <path d="M 148.809621 33.948771 
L 148.809621 33.897436 
" clip-path="url(#p1ec8308fc3)" style="fill: none; stroke: #ff0000; stroke-width: 1.5"/>
    <path d="M 151.793578 34.598461 
L 151.793578 34.547142 
" clip-path="url(#p1ec8308fc3)" style="fill: none; stroke: #ff0000; stroke-width: 1.5"/>
    <path d="M 154.777535 35.282179 
L 154.777535 35.231089 
" clip-path="url(#p1ec8308fc3)" style="fill: none; stroke: #ff0000; stroke-width: 1.5"/>
    <path d="M 157.761492 36.010725 
L 157.761492 35.960138 
" clip-path="url(#p1ec8308fc3)" style="fill: none; stroke: #ff0000; stroke-width: 1.5"/>
    <path d="M 160.74545 36.798836 
L 160.74545 36.749012 
" clip-path="url(#p1ec8308fc3)" style="fill: none; stroke: #ff0000; stroke-width: 1.5"/>
    <path d="M 163.729407 37.666696 
L 163.729407 37.617636 
" clip-path="url(#p1ec8308fc3)" style="fill: none; stroke: #ff0000; stroke-width: 1.5"/>
    <path d="M 166.713364 38.642012 
L 166.713364 38.592843 
" clip-path="url(#p1ec8308fc3)" style="fill: none; stroke: #ff0000; stroke-width: 1.5"/>
    <path d="M 169.697321 39.762782 
L 169.697321 39.710539 
" clip-path="url(#p1ec8308fc3)" style="fill: none; stroke: #ff0000; stroke-width: 1.5"/>
    <path d="M 172.681278 41.080486 
L 172.681278 41.018659 
" clip-path="url(#p1ec8308fc3)" style="fill: none; stroke: #ff0000; stroke-width: 1.5"/>
    <path d="M 175.665236 42.663127 
L 175.665236 42.581337 
" clip-path="url(#p1ec8308fc3)" style="fill: none; stroke: #ff0000; stroke-width: 1.5"/>
    <path d="M 178.649193 44.598318 
L 178.649193 44.483253 
" clip-path="url(#p1ec8308fc3)" style="fill: none; stroke: #ff0000; stroke-width: 1.5"/>
    <path d="M 181.63315 46.996279 
L 181.63315 46.832334 
" clip-path="url(#p1ec8308fc3)" style="fill: none; stroke: #ff0000; stroke-width: 1.5"/>
    <path d="M 184.617107 49.990037 
L 184.617107 49.759574 
" clip-path="url(#p1ec8308fc3)" style="fill: none; stroke: #ff0000; stroke-width: 1.5"/>
    <path d="M 187.601065 53.729019 
L 187.601065 53.413299 
" clip-path="url(#p1ec8308fc3)" style="fill: none; stroke: #ff0000; stroke-width: 1.5"/>
    <path d="M 190.585022 58.361823 
L 190.585022 57.943422 
" clip-path="url(#p1ec8308fc3)" style="fill: none; stroke: #ff0000; stroke-width: 1.5"/>
    <path d="M 193.568979 64.004532 
L 193.568979 63.471634 
" clip-path="url(#p1ec8308fc3)" style="fill: none; stroke: #ff0000; stroke-width: 1.5"/>
    <path d="M 196.552936 70.695505 
L 196.552936 70.047601 
" clip-path="url(#p1ec8308fc3)" style="fill: none; stroke: #ff0000; stroke-width: 1.5"/>
    <path d="M 199.536893 78.347535 
L 199.536893 77.600659 
" clip-path="url(#p1ec8308fc3)" style="fill: none; stroke: #ff0000; stroke-width: 1.5"/>
    <path d="M 202.520851 86.719991 
L 202.520851 85.908403 
" clip-path="url(#p1ec8308fc3)" style="fill: none; stroke: #ff0000; stroke-width: 1.5"/>
    <path d="M 205.504808 95.436156 
L 205.504808 94.607871 
" clip-path="url(#p1ec8308fc3)" style="fill: none; stroke: #ff0000; stroke-width: 1.5"/>
    <path d="M 208.488765 104.053477 
L 208.488765 103.26004 
" clip-path="url(#p1ec8308fc3)" style="fill: none; stroke: #ff0000; stroke-width: 1.5"/>
    <path d="M 211.472722 112.16267 
L 211.472722 111.447385 
" clip-path="url(#p1ec8308fc3)" style="fill: none; stroke: #ff0000; stroke-width: 1.5"/>
    <path d="M 214.456679 119.471477 
L 214.456679 118.861344 
" clip-path="url(#p1ec8308fc3)" style="fill: none; stroke: #ff0000; stroke-width: 1.5"/>
    <path d="M 217.440637 125.83983 
L 217.440637 125.343808 
" clip-path="url(#p1ec8308fc3)" style="fill: none; stroke: #ff0000; stroke-width: 1.5"/>
    <path d="M 220.424594 131.264455 
L 220.424594 130.876889 
" clip-path="url(#p1ec8308fc3)" style="fill: none; stroke: #ff0000; stroke-width: 1.5"/>
    <path d="M 223.408551 135.834884 
L 223.408551 135.541017 
" clip-path="url(#p1ec8308fc3)" style="fill: none; stroke: #ff0000; stroke-width: 1.5"/>
    <path d="M 226.392508 139.685956 
L 226.392508 139.466972 
" clip-path="url(#p1ec8308fc3)" style="fill: none; stroke: #ff0000; stroke-width: 1.5"/>
    <path d="M 229.376466 142.961625 
L 229.376466 142.798118 
" clip-path="url(#p1ec8308fc3)" style="fill: none; stroke: #ff0000; stroke-width: 1.5"/>
    <path d="M 232.360423 145.793543 
L 232.360423 145.667605 
" clip-path="url(#p1ec8308fc3)" style="fill: none; stroke: #ff0000; stroke-width: 1.5"/>
    <path d="M 235.34438 148.291531 
L 235.34438 148.188257 
" clip-path="url(#p1ec8308fc3)" style="fill: none; stroke: #ff0000; stroke-width: 1.5"/>
    <path d="M 238.328337 150.541738 
L 238.328337 150.450485 
" clip-path="url(#p1ec8308fc3)" style="fill: none; stroke: #ff0000; stroke-width: 1.5"/>
    <path d="M 241.312294 152.609207 
L 241.312294 152.523865 
" clip-path="url(#p1ec8308fc3)" style="fill: none; stroke: #ff0000; stroke-width: 1.5"/>
    <path d="M 244.296252 154.542155 
L 244.296252 154.460075 
" clip-path="url(#p1ec8308fc3)" style="fill: none; stroke: #ff0000; stroke-width: 1.5"/>
    <path d="M 247.280209 156.375977 
L 247.280209 156.296463 
" clip-path="url(#p1ec8308fc3)" style="fill: none; stroke: #ff0000; stroke-width: 1.5"/>
    <path d="M 250.264166 158.136388 
L 250.264166 158.05959 
" clip-path="url(#p1ec8308fc3)" style="fill: none; stroke: #ff0000; stroke-width: 1.5"/>
    <path d="M 253.248123 159.841897 
L 253.248123 159.768182 
" clip-path="url(#p1ec8308fc3)" style="fill: none; stroke: #ff0000; stroke-width: 1.5"/>
    <path d="M 256.232081 161.505735 
L 256.232081 161.435375 
" clip-path="url(#p1ec8308fc3)" style="fill: none; stroke: #ff0000; stroke-width: 1.5"/>
    <path d="M 259.216038 163.137327 
L 259.216038 163.070359 
" clip-path="url(#p1ec8308fc3)" style="fill: none; stroke: #ff0000; stroke-width: 1.5"/>
    <path d="M 262.199995 164.743388 
L 262.199995 164.679547 
" clip-path="url(#p1ec8308fc3)" style="fill: none; stroke: #ff0000; stroke-width: 1.5"/>
    <path d="M 265.183952 166.328704 
L 265.183952 166.267419 
" clip-path="url(#p1ec8308fc3)" style="fill: none; stroke: #ff0000; stroke-width: 1.5"/>
    <path d="M 268.167909 167.896687 
L 268.167909 167.837114 
" clip-path="url(#p1ec8308fc3)" style="fill: none; stroke: #ff0000; stroke-width: 1.5"/>
    <path d="M 271.151867 169.449758 
L 271.151867 169.390865 
" clip-path="url(#p1ec8308fc3)" style="fill: none; stroke: #ff0000; stroke-width: 1.5"/>
    <path d="M 274.135824 170.989607 
L 274.135824 170.930296 
" clip-path="url(#p1ec8308fc3)" style="fill: none; stroke: #ff0000; stroke-width: 1.5"/>
    <path d="M 277.119781 172.517384 
L 277.119781 172.456624 
" clip-path="url(#p1ec8308fc3)" style="fill: none; stroke: #ff0000; stroke-width: 1.5"/>
    <path d="M 280.103738 174.033849 
L 280.103738 173.970781 
" clip-path="url(#p1ec8308fc3)" style="fill: none; stroke: #ff0000; stroke-width: 1.5"/>
    <path d="M 283.087696 175.539491 
L 283.087696 175.473487 
" clip-path="url(#p1ec8308fc3)" style="fill: none; stroke: #ff0000; stroke-width: 1.5"/>
    <path d="M 286.071653 177.034609 
L 286.071653 176.96529 
" clip-path="url(#p1ec8308fc3)" style="fill: none; stroke: #ff0000; stroke-width: 1.5"/>
    <path d="M 289.05561 178.519379 
L 289.05561 178.446597 
" clip-path="url(#p1ec8308fc3)" style="fill: none; stroke: #ff0000; stroke-width: 1.5"/>
    <path d="M 292.039567 179.99389 
L 292.039567 179.917695 
" clip-path="url(#p1ec8308fc3)" style="fill: none; stroke: #ff0000; stroke-width: 1.5"/>
    <path d="M 295.023524 181.458167 
L 295.023524 181.378772 
" clip-path="url(#p1ec8308fc3)" style="fill: none; stroke: #ff0000; stroke-width: 1.5"/>
    <path d="M 298.007482 182.912189 
L 298.007482 182.829933 
" clip-path="url(#p1ec8308fc3)" style="fill: none; stroke: #ff0000; stroke-width: 1.5"/>
    <path d="M 300.991439 184.355893 
L 300.991439 184.271212 
" clip-path="url(#p1ec8308fc3)" style="fill: none; stroke: #ff0000; stroke-width: 1.5"/>
    <path d="M 303.975396 185.789187 
L 303.975396 185.702582 
" clip-path="url(#p1ec8308fc3)" style="fill: none; stroke: #ff0000; stroke-width: 1.5"/>
    <path d="M 306.959353 187.21195 
L 306.959353 187.123963 
" clip-path="url(#p1ec8308fc3)" style="fill: none; stroke: #ff0000; stroke-width: 1.5"/>
    <path d="M 309.94331 188.624038 
L 309.94331 188.535229 
" clip-path="url(#p1ec8308fc3)" style="fill: none; stroke: #ff0000; stroke-width: 1.5"/>
    <path d="M 312.927268 190.025286 
L 312.927268 189.936209 
" clip-path="url(#p1ec8308fc3)" style="fill: none; stroke: #ff0000; stroke-width: 1.5"/>
    <path d="M 315.911225 191.415515 
L 315.911225 191.326698 
" clip-path="url(#p1ec8308fc3)" style="fill: none; stroke: #ff0000; stroke-width: 1.5"/>
    <path d="M 318.895182 192.794528 
L 318.895182 192.706456 
" clip-path="url(#p1ec8308fc3)" style="fill: none; stroke: #ff0000; stroke-width: 1.5"/>
    <path d="M 321.879139 194.16212 
L 321.879139 194.075217 
" clip-path="url(#p1ec8308fc3)" style="fill: none; stroke: #ff0000; stroke-width: 1.5"/>
    <path d="M 324.863097 195.518077 
L 324.863097 195.432692 
" clip-path="url(#p1ec8308fc3)" style="fill: none; stroke: #ff0000; stroke-width: 1.5"/>
    <path d="M 327.847054 196.862179 
L 327.847054 196.77857 
" clip-path="url(#p1ec8308fc3)" style="fill: none; stroke: #ff0000; stroke-width: 1.5"/>
    <path d="M 330.831011 198.194201 
L 330.831011 198.112531 
" clip-path="url(#p1ec8308fc3)" style="fill: none; stroke: #ff0000; stroke-width: 1.5"/>
    <path d="M 333.814968 199.513918 
L 333.814968 199.434246 
" clip-path="url(#p1ec8308fc3)" style="fill: none; stroke: #ff0000; stroke-width: 1.5"/>
    <path d="M 336.798925 200.821104 
L 336.798925 200.743386 
" clip-path="url(#p1ec8308fc3)" style="fill: none; stroke: #ff0000; stroke-width: 1.5"/>
    <path d="M 339.782883 202.115534 
L 339.782883 202.039629 
" clip-path="url(#p1ec8308fc3)" style="fill: none; stroke: #ff0000; stroke-width: 1.5"/>
    <path d="M 342.76684 203.396983 
L 342.76684 203.322667 
" clip-path="url(#p1ec8308fc3)" style="fill: none; stroke: #ff0000; stroke-width: 1.5"/>
    <path d="M 345.750797 204.665225 
L 345.750797 204.592212 
" clip-path="url(#p1ec8308fc3)" style="fill: none; stroke: #ff0000; stroke-width: 1.5"/>
    <path d="M 348.734754 205.920041 
L 348.734754 205.848004 
" clip-path="url(#p1ec8308fc3)" style="fill: none; stroke: #ff0000; stroke-width: 1.5"/>
    <path d="M 351.718712 207.16121 
L 351.718712 207.089815 
" clip-path="url(#p1ec8308fc3)" style="fill: none; stroke: #ff0000; stroke-width: 1.5"/>
    <path d="M 354.702669 208.388522 
L 354.702669 208.317451 
" clip-path="url(#p1ec8308fc3)" style="fill: none; stroke: #ff0000; stroke-width: 1.5"/>
    <path d="M 357.686626 209.601774 
L 357.686626 209.530755 
" clip-path="url(#p1ec8308fc3)" style="fill: none; stroke: #ff0000; stroke-width: 1.5"/>
    <path d="M 360.670583 210.800784 
L 360.670583 210.729605 
" clip-path="url(#p1ec8308fc3)" style="fill: none; stroke: #ff0000; stroke-width: 1.5"/>
    <path d="M 363.65454 211.985389 
L 363.65454 211.913912 
" clip-path="url(#p1ec8308fc3)" style="fill: none; stroke: #ff0000; stroke-width: 1.5"/>
    <path d="M 366.638498 213.155455 
L 366.638498 213.083618 
" clip-path="url(#p1ec8308fc3)" style="fill: none; stroke: #ff0000; stroke-width: 1.5"/>
    <path d="M 369.622455 214.31088 
L 369.622455 214.238695 
" clip-path="url(#p1ec8308fc3)" style="fill: none; stroke: #ff0000; stroke-width: 1.5"/>
    <path d="M 372.606412 215.451598 
L 372.606412 215.379141 
" clip-path="url(#p1ec8308fc3)" style="fill: none; stroke: #ff0000; stroke-width: 1.5"/>
    <path d="M 375.590369 216.57758 
L 375.590369 216.50498 
" clip-path="url(#p1ec8308fc3)" style="fill: none; stroke: #ff0000; stroke-width: 1.5"/>
    <path d="M 378.574327 217.688836 
L 378.574327 217.616263 
" clip-path="url(#p1ec8308fc3)" style="fill: none; stroke: #ff0000; stroke-width: 1.5"/>
    <path d="M 381.558284 218.785413 
L 381.558284 218.713062 
" clip-path="url(#p1ec8308fc3)" style="fill: none; stroke: #ff0000; stroke-width: 1.5"/>
    <path d="M 384.542241 219.867398 
L 384.542241 219.795476 
" clip-path="url(#p1ec8308fc3)" style="fill: none; stroke: #ff0000; stroke-width: 1.5"/>
    <path d="M 387.526198 220.934911 
L 387.526198 220.863627 
" clip-path="url(#p1ec8308fc3)" style="fill: none; stroke: #ff0000; stroke-width: 1.5"/>
    <path d="M 390.510155 221.988108 
L 390.510155 221.917659 
" clip-path="url(#p1ec8308fc3)" style="fill: none; stroke: #ff0000; stroke-width: 1.5"/>
    <path d="M 393.494113 223.027177 
L 393.494113 222.95774 
" clip-path="url(#p1ec8308fc3)" style="fill: none; stroke: #ff0000; stroke-width: 1.5"/>
    <path d="M 396.47807 224.052334 
L 396.47807 223.984057 
" clip-path="url(#p1ec8308fc3)" style="fill: none; stroke: #ff0000; stroke-width: 1.5"/>
    <path d="M 399.462027 225.063822 
L 399.462027 224.996821 
" clip-path="url(#p1ec8308fc3)" style="fill: none; stroke: #ff0000; stroke-width: 1.5"/>
    <path d="M 402.445984 226.061906 
L 402.445984 225.996262 
" clip-path="url(#p1ec8308fc3)" style="fill: none; stroke: #ff0000; stroke-width: 1.5"/>
    <path d="M 405.429942 227.046872 
L 405.429942 226.98263 
" clip-path="url(#p1ec8308fc3)" style="fill: none; stroke: #ff0000; stroke-width: 1.5"/>
    <path d="M 408.413899 228.01902 
L 408.413899 227.956196 
" clip-path="url(#p1ec8308fc3)" style="fill: none; stroke: #ff0000; stroke-width: 1.5"/>
    <path d="M 411.397856 228.978668 
L 411.397856 228.917248 
" clip-path="url(#p1ec8308fc3)" style="fill: none; stroke: #ff0000; stroke-width: 1.5"/>
    <path d="M 414.381813 229.926139 
L 414.381813 229.86609 
" clip-path="url(#p1ec8308fc3)" style="fill: none; stroke: #ff0000; stroke-width: 1.5"/>
    <path d="M 417.36577 230.861767 
L 417.36577 230.803047 
" clip-path="url(#p1ec8308fc3)" style="fill: none; stroke: #ff0000; stroke-width: 1.5"/>
    <path d="M 420.349728 231.785889 
L 420.349728 231.728456 
" clip-path="url(#p1ec8308fc3)" style="fill: none; stroke: #ff0000; stroke-width: 1.5"/>
    <path d="M 423.333685 232.698847 
L 423.333685 232.642669 
" clip-path="url(#p1ec8308fc3)" style="fill: none; stroke: #ff0000; stroke-width: 1.5"/>
    <path d="M 426.317642 233.600986 
L 426.317642 233.54605 
" clip-path="url(#p1ec8308fc3)" style="fill: none; stroke: #ff0000; stroke-width: 1.5"/>
   </g>
   <g id="line2d_16">
    <path d="M 71.226733 19.812484 
L 74.21069 20.275372 
L 77.194647 20.739783 
L 80.178605 21.205729 
L 83.162562 21.673228 
L 86.146519 22.142304 
L 89.130476 22.612996 
L 92.114433 23.085354 
L 95.098391 23.559456 
L 98.082348 24.035412 
L 101.066305 24.513383 
L 104.050262 24.993608 
L 107.03422 25.476442 
L 110.018177 25.962424 
L 113.002134 26.452376 
L 115.986091 26.947566 
L 118.970048 27.449975 
L 121.954006 27.96272 
L 124.937963 28.490747 
L 127.92192 29.041959 
L 130.905877 29.629067 
L 133.889835 30.272608 
L 136.873792 31.005872 
L 139.857749 31.882866 
L 142.841706 32.991008 
L 145.825663 34.470703 
L 148.809621 36.543861 
L 151.793578 39.550738 
L 154.777535 43.985309 
L 157.761492 50.49704 
L 160.74545 59.790468 
L 163.729407 72.336411 
L 166.713364 87.910735 
L 169.697321 105.26404 
L 172.681278 122.397299 
L 175.665236 137.443805 
L 178.649193 149.434293 
L 181.63315 158.372484 
L 184.617107 164.821197 
L 187.601065 169.474238 
L 190.585022 172.926955 
L 193.568979 175.613885 
L 196.552936 177.825613 
L 199.536893 179.746885 
L 202.520851 181.491677 
L 205.504808 183.129053 
L 208.488765 184.700417 
L 211.472722 186.230449 
L 214.456679 187.733823 
L 217.440637 189.21926 
L 220.424594 190.691951 
L 223.408551 192.154983 
L 226.392508 193.610186 
L 229.376466 195.058628 
L 232.360423 196.50091 
L 235.34438 197.937338 
L 238.328337 199.368031 
L 241.312294 200.792983 
L 244.296252 202.212106 
L 247.280209 203.625257 
L 250.264166 205.032258 
L 253.248123 206.432909 
L 256.232081 207.826999 
L 259.216038 209.214315 
L 262.199995 210.594646 
L 265.183952 211.967788 
L 268.167909 213.333549 
L 271.151867 214.69175 
L 274.135824 216.042224 
L 277.119781 217.384818 
L 280.103738 218.71939 
L 283.087696 220.045811 
L 286.071653 221.363959 
L 289.05561 222.67372 
L 292.039567 223.974982 
L 295.023524 225.267636 
L 298.007482 226.551571 
L 300.991439 227.826674 
L 303.975396 229.092826 
L 306.959353 230.349902 
L 309.94331 231.597769 
L 312.927268 232.836285 
L 315.911225 234.0653 
L 318.895182 235.284656 
L 321.879139 236.494188 
L 324.863097 237.693722 
L 327.847054 238.88308 
L 330.831011 240.062082 
L 333.814968 241.230545 
L 336.798925 242.388286 
L 339.782883 243.535129 
L 342.76684 244.670898 
L 345.750797 245.795428 
L 348.734754 246.908563 
L 351.718712 248.010161 
L 354.702669 249.100091 
L 357.686626 250.178239 
L 360.670583 251.244511 
L 363.65454 252.29883 
L 366.638498 253.341139 
L 369.622455 254.371403 
L 372.606412 255.389608 
L 375.590369 256.395762 
L 378.574327 257.389896 
L 381.558284 258.372063 
L 384.542241 259.342337 
L 387.526198 260.300814 
L 390.510155 261.247608 
L 393.494113 262.182857 
L 396.47807 263.106713 
L 399.462027 264.019348 
L 402.445984 264.920949 
L 405.429942 265.811718 
L 408.413899 266.691869 
L 411.397856 267.561632 
L 414.381813 268.421242 
L 417.36577 269.270946 
L 420.349728 270.111 
L 423.333685 270.941664 
L 426.317642 271.763203 
" clip-path="url(#p1ec8308fc3)" style="fill: none; stroke: #1f77b4; stroke-width: 1.5; stroke-linecap: square"/>
   </g>
   <g id="line2d_17">
    <path d="M 71.226733 20.123058 
L 74.21069 20.61171 
L 77.194647 21.102761 
L 80.178605 21.596225 
L 83.162562 22.092118 
L 86.146519 22.590458 
L 89.130476 23.09127 
L 92.114433 23.594584 
L 95.098391 24.100436 
L 98.082348 24.608875 
L 101.066305 25.119965 
L 104.050262 25.633785 
L 107.03422 26.150438 
L 110.018177 26.670058 
L 113.002134 27.192816 
L 115.986091 27.718933 
L 118.970048 28.248691 
L 121.954006 28.78246 
L 124.937963 29.320712 
L 127.92192 29.864067 
L 130.905877 30.413329 
L 133.889835 30.969554 
L 136.873792 31.53413 
L 139.857749 32.108893 
L 142.841706 32.696285 
L 145.825663 33.299563 
L 148.809621 33.923104 
L 151.793578 34.572801 
L 154.777535 35.256634 
L 157.761492 35.985432 
L 160.74545 36.773924 
L 163.729407 37.642166 
L 166.713364 38.617428 
L 169.697321 39.736661 
L 172.681278 41.049573 
L 175.665236 42.622232 
L 178.649193 44.540786 
L 181.63315 46.914307 
L 184.617107 49.874805 
L 187.601065 53.571159 
L 190.585022 58.152623 
L 193.568979 63.738083 
L 196.552936 70.371553 
L 199.536893 77.974097 
L 202.520851 86.314197 
L 205.504808 95.022014 
L 208.488765 103.656758 
L 211.472722 111.805027 
L 214.456679 119.166411 
L 217.440637 125.591819 
L 220.424594 131.070672 
L 223.408551 135.687951 
L 226.392508 139.576464 
L 229.376466 142.879872 
L 232.360423 145.730574 
L 235.34438 148.239894 
L 238.328337 150.496111 
L 241.312294 152.566536 
L 244.296252 154.501115 
L 247.280209 156.33622 
L 250.264166 158.097989 
L 253.248123 159.805039 
L 256.232081 161.470555 
L 259.216038 163.103843 
L 262.199995 164.711468 
L 265.183952 166.298061 
L 268.167909 167.866901 
L 271.151867 169.420312 
L 274.135824 170.959952 
L 277.119781 172.487004 
L 280.103738 174.002315 
L 283.087696 175.506489 
L 286.071653 176.999949 
L 289.05561 178.482988 
L 292.039567 179.955792 
L 295.023524 181.418469 
L 298.007482 182.871061 
L 300.991439 184.313552 
L 303.975396 185.745884 
L 306.959353 187.167957 
L 309.94331 188.579633 
L 312.927268 189.980748 
L 315.911225 191.371106 
L 318.895182 192.750492 
L 321.879139 194.118669 
L 324.863097 195.475384 
L 327.847054 196.820374 
L 330.831011 198.153366 
L 333.814968 199.474082 
L 336.798925 200.782245 
L 339.782883 202.077582 
L 342.76684 203.359825 
L 345.750797 204.628719 
L 348.734754 205.884022 
L 351.718712 207.125512 
L 354.702669 208.352986 
L 357.686626 209.566265 
L 360.670583 210.765194 
L 363.65454 211.94965 
L 366.638498 213.119537 
L 369.622455 214.274788 
L 372.606412 215.41537 
L 375.590369 216.54128 
L 378.574327 217.652549 
L 381.558284 218.749238 
L 384.542241 219.831437 
L 387.526198 220.899269 
L 390.510155 221.952884 
L 393.494113 222.992458 
L 396.47807 224.018195 
L 399.462027 225.030321 
L 402.445984 226.029084 
L 405.429942 227.014751 
L 408.413899 227.987608 
L 411.397856 228.947958 
L 414.381813 229.896115 
L 417.36577 230.832407 
L 420.349728 231.757172 
L 423.333685 232.670758 
L 426.317642 233.573518 
" clip-path="url(#p1ec8308fc3)" style="fill: none; stroke: #ff7f0e; stroke-width: 1.5; stroke-linecap: square"/>
   </g>
   <g id="patch_3">
    <path d="M 53.472188 284.4 
L 53.472188 7.2 
" style="fill: none; stroke: #000000; stroke-width: 0.8; stroke-linejoin: miter; stroke-linecap: square"/>
   </g>
   <g id="patch_4">
    <path d="M 444.072188 284.4 
L 444.072188 7.2 
" style="fill: none; stroke: #000000; stroke-width: 0.8; stroke-linejoin: miter; stroke-linecap: square"/>
   </g>
   <g id="patch_5">
    <path d="M 53.472187 284.4 
L 444.072187 284.4 
" style="fill: none; stroke: #000000; stroke-width: 0.8; stroke-linejoin: miter; stroke-linecap: square"/>
   </g>
   <g id="patch_6">
    <path d="M 53.472187 7.2 
L 444.072187 7.2 
" style="fill: none; stroke: #000000; stroke-width: 0.8; stroke-linejoin: miter; stroke-linecap: square"/>
   </g>
   <g id="legend_1">
    <g id="patch_7">
     <path d="M 361.063438 48.291875 
L 436.372188 48.291875 
Q 438.572188 48.291875 438.572188 46.091875 
L 438.572188 14.9 
Q 438.572188 12.7 436.372188 12.7 
L 361.063438 12.7 
Q 358.863438 12.7 358.863438 14.9 
L 358.863438 46.091875 
Q 358.863438 48.291875 361.063438 48.291875 
z
" style="fill: #ffffff; opacity: 0.8; stroke: #cccccc; stroke-linejoin: miter"/>
    </g>
    <g id="LineCollection_3">
     <path d="M 374.263438 27.108281 
L 374.263438 16.108281 
" style="fill: none; stroke: #ff0000; stroke-width: 1.5"/>
    </g>
    <g id="line2d_18">
     <path d="M 363.263438 21.608281 
L 385.263438 21.608281 
" style="fill: none; stroke: #1f77b4; stroke-width: 1.5; stroke-linecap: square"/>
    </g>
    <g id="line2d_19"/>
    <g id="text_18">
     <!-- notwist -->
     <g transform="translate(394.063438 25.458281) scale(0.11 -0.11)">
      <defs>
       <path id="DejaVuSans-6e" d="M 3513 2113 
L 3513 0 
L 2938 0 
L 2938 2094 
Q 2938 2591 2744 2837 
Q 2550 3084 2163 3084 
Q 1697 3084 1428 2787 
Q 1159 2491 1159 1978 
L 1159 0 
L 581 0 
L 581 3500 
L 1159 3500 
L 1159 2956 
Q 1366 3272 1645 3428 
Q 1925 3584 2291 3584 
Q 2894 3584 3203 3211 
Q 3513 2838 3513 2113 
z
" transform="scale(0.015625)"/>
       <path id="DejaVuSans-6f" d="M 1959 3097 
Q 1497 3097 1228 2736 
Q 959 2375 959 1747 
Q 959 1119 1226 758 
Q 1494 397 1959 397 
Q 2419 397 2687 759 
Q 2956 1122 2956 1747 
Q 2956 2369 2687 2733 
Q 2419 3097 1959 3097 
z
M 1959 3584 
Q 2709 3584 3137 3096 
Q 3566 2609 3566 1747 
Q 3566 888 3137 398 
Q 2709 -91 1959 -91 
Q 1206 -91 779 398 
Q 353 888 353 1747 
Q 353 2609 779 3096 
Q 1206 3584 1959 3584 
z
" transform="scale(0.015625)"/>
       <path id="DejaVuSans-74" d="M 1172 4494 
L 1172 3500 
L 2356 3500 
L 2356 3053 
L 1172 3053 
L 1172 1153 
Q 1172 725 1289 603 
Q 1406 481 1766 481 
L 2356 481 
L 2356 0 
L 1766 0 
Q 1100 0 847 248 
Q 594 497 594 1153 
L 594 3053 
L 172 3053 
L 172 3500 
L 594 3500 
L 594 4494 
L 1172 4494 
z
" transform="scale(0.015625)"/>
       <path id="DejaVuSans-77" d="M 269 3500 
L 844 3500 
L 1563 769 
L 2278 3500 
L 2956 3500 
L 3675 769 
L 4391 3500 
L 4966 3500 
L 4050 0 
L 3372 0 
L 2619 2869 
L 1863 0 
L 1184 0 
L 269 3500 
z
" transform="scale(0.015625)"/>
       <path id="DejaVuSans-69" d="M 603 3500 
L 1178 3500 
L 1178 0 
L 603 0 
L 603 3500 
z
M 603 4863 
L 1178 4863 
L 1178 4134 
L 603 4134 
L 603 4863 
z
" transform="scale(0.015625)"/>
       <path id="DejaVuSans-73" d="M 2834 3397 
L 2834 2853 
Q 2591 2978 2328 3040 
Q 2066 3103 1784 3103 
Q 1356 3103 1142 2972 
Q 928 2841 928 2578 
Q 928 2378 1081 2264 
Q 1234 2150 1697 2047 
L 1894 2003 
Q 2506 1872 2764 1633 
Q 3022 1394 3022 966 
Q 3022 478 2636 193 
Q 2250 -91 1575 -91 
Q 1294 -91 989 -36 
Q 684 19 347 128 
L 347 722 
Q 666 556 975 473 
Q 1284 391 1588 391 
Q 1994 391 2212 530 
Q 2431 669 2431 922 
Q 2431 1156 2273 1281 
Q 2116 1406 1581 1522 
L 1381 1569 
Q 847 1681 609 1914 
Q 372 2147 372 2553 
Q 372 3047 722 3315 
Q 1072 3584 1716 3584 
Q 2034 3584 2315 3537 
Q 2597 3491 2834 3397 
z
" transform="scale(0.015625)"/>
      </defs>
      <use xlink:href="#DejaVuSans-6e"/>
      <use xlink:href="#DejaVuSans-6f" x="63.378906"/>
      <use xlink:href="#DejaVuSans-74" x="124.560547"/>
      <use xlink:href="#DejaVuSans-77" x="163.769531"/>
      <use xlink:href="#DejaVuSans-69" x="245.556641"/>
      <use xlink:href="#DejaVuSans-73" x="273.339844"/>
      <use xlink:href="#DejaVuSans-74" x="325.439453"/>
     </g>
    </g>
    <g id="LineCollection_4">
     <path d="M 374.263438 43.254219 
L 374.263438 32.254219 
" style="fill: none; stroke: #ff0000; stroke-width: 1.5"/>
    </g>
    <g id="line2d_20">
     <path d="M 363.263438 37.754219 
L 385.263438 37.754219 
" style="fill: none; stroke: #ff7f0e; stroke-width: 1.5; stroke-linecap: square"/>
    </g>
    <g id="line2d_21"/>
    <g id="text_19">
     <!-- twist -->
     <g transform="translate(394.063438 41.604219) scale(0.11 -0.11)">
      <use xlink:href="#DejaVuSans-74"/>
      <use xlink:href="#DejaVuSans-77" x="39.208984"/>
      <use xlink:href="#DejaVuSans-69" x="120.996094"/>
      <use xlink:href="#DejaVuSans-73" x="148.779297"/>
      <use xlink:href="#DejaVuSans-74" x="200.878906"/>
     </g>
    </g>
   </g>
  </g>
  <g id="text_20">
   <!-- M=5 Jackknife bins -->
   <g transform="translate(40.872188 327.6) scale(0.11 -0.11)">
    <defs>
     <path id="DejaVuSans-Oblique-4d" d="M 1081 4666 
L 2028 4666 
L 2572 1522 
L 4378 4666 
L 5350 4666 
L 4441 0 
L 3828 0 
L 4622 4091 
L 2791 897 
L 2175 897 
L 1581 4103 
L 788 0 
L 172 0 
L 1081 4666 
z
" transform="scale(0.015625)"/>
     <path id="DejaVuSans-Oblique-3d" d="M 678 2906 
L 4684 2906 
L 4684 2381 
L 678 2381 
L 678 2906 
z
M 678 1631 
L 4684 1631 
L 4684 1100 
L 678 1100 
L 678 1631 
z
" transform="scale(0.015625)"/>
     <path id="DejaVuSans-Oblique-35" d="M 3719 4666 
L 3622 4141 
L 1691 4141 
L 1466 2988 
Q 1609 3034 1757 3056 
Q 1906 3078 2059 3078 
Q 2706 3078 3081 2731 
Q 3456 2384 3456 1791 
Q 3456 1375 3264 994 
Q 3072 613 2719 325 
Q 2469 125 2108 17 
Q 1747 -91 1319 -91 
Q 1038 -91 744 -41 
Q 450 9 128 109 
L 244 697 
Q 531 556 820 486 
Q 1109 416 1403 416 
Q 2013 416 2411 781 
Q 2809 1147 2809 1697 
Q 2809 2103 2548 2328 
Q 2288 2553 1819 2553 
Q 1572 2553 1305 2495 
Q 1038 2438 756 2322 
L 1209 4666 
L 3719 4666 
z
" transform="scale(0.015625)"/>
     <path id="DejaVuSans-Oblique-20" transform="scale(0.015625)"/>
     <path id="DejaVuSans-Oblique-4a" d="M 1069 4666 
L 1703 4666 
L 856 325 
Q 691 -522 298 -901 
Q -94 -1281 -800 -1281 
L -1050 -1281 
L -947 -750 
L -750 -750 
Q -328 -750 -109 -509 
Q 109 -269 225 325 
L 1069 4666 
z
" transform="scale(0.015625)"/>
     <path id="DejaVuSans-Oblique-61" d="M 3438 1997 
L 3047 0 
L 2472 0 
L 2578 531 
Q 2325 219 2001 64 
Q 1678 -91 1281 -91 
Q 834 -91 548 182 
Q 263 456 263 884 
Q 263 1497 752 1853 
Q 1241 2209 2100 2209 
L 2900 2209 
L 2931 2363 
Q 2938 2388 2941 2417 
Q 2944 2447 2944 2509 
Q 2944 2788 2717 2942 
Q 2491 3097 2081 3097 
Q 1800 3097 1504 3025 
Q 1209 2953 897 2809 
L 997 3341 
Q 1322 3463 1633 3523 
Q 1944 3584 2234 3584 
Q 2853 3584 3176 3315 
Q 3500 3047 3500 2534 
Q 3500 2431 3484 2292 
Q 3469 2153 3438 1997 
z
M 2816 1759 
L 2241 1759 
Q 1534 1759 1195 1570 
Q 856 1381 856 984 
Q 856 709 1029 553 
Q 1203 397 1509 397 
Q 1978 397 2328 733 
Q 2678 1069 2791 1631 
L 2816 1759 
z
" transform="scale(0.015625)"/>
     <path id="DejaVuSans-Oblique-63" d="M 3431 3366 
L 3316 2797 
Q 3109 2947 2876 3022 
Q 2644 3097 2394 3097 
Q 2119 3097 1870 3000 
Q 1622 2903 1453 2725 
Q 1184 2453 1037 2087 
Q 891 1722 891 1331 
Q 891 859 1127 628 
Q 1363 397 1844 397 
Q 2081 397 2348 469 
Q 2616 541 2906 684 
L 2797 116 
Q 2547 13 2283 -39 
Q 2019 -91 1741 -91 
Q 1044 -91 669 257 
Q 294 606 294 1253 
Q 294 1797 489 2255 
Q 684 2713 1069 3078 
Q 1331 3328 1684 3456 
Q 2038 3584 2456 3584 
Q 2700 3584 2940 3529 
Q 3181 3475 3431 3366 
z
" transform="scale(0.015625)"/>
     <path id="DejaVuSans-Oblique-6b" d="M 1172 4863 
L 1747 4863 
L 1197 2028 
L 3169 3500 
L 3916 3500 
L 1716 1825 
L 3322 0 
L 2625 0 
L 1131 1709 
L 800 0 
L 225 0 
L 1172 4863 
z
" transform="scale(0.015625)"/>
     <path id="DejaVuSans-Oblique-6e" d="M 3566 2113 
L 3156 0 
L 2578 0 
L 2988 2091 
Q 3016 2238 3031 2350 
Q 3047 2463 3047 2528 
Q 3047 2791 2881 2937 
Q 2716 3084 2419 3084 
Q 1956 3084 1622 2776 
Q 1288 2469 1184 1941 
L 800 0 
L 225 0 
L 903 3500 
L 1478 3500 
L 1363 2950 
Q 1603 3253 1940 3418 
Q 2278 3584 2650 3584 
Q 3113 3584 3367 3334 
Q 3622 3084 3622 2631 
Q 3622 2519 3608 2391 
Q 3594 2263 3566 2113 
z
" transform="scale(0.015625)"/>
     <path id="DejaVuSans-Oblique-69" d="M 1172 4863 
L 1747 4863 
L 1606 4134 
L 1031 4134 
L 1172 4863 
z
M 909 3500 
L 1484 3500 
L 800 0 
L 225 0 
L 909 3500 
z
" transform="scale(0.015625)"/>
     <path id="DejaVuSans-Oblique-66" d="M 3059 4863 
L 2969 4384 
L 2419 4384 
Q 2106 4384 1964 4261 
Q 1822 4138 1753 3809 
L 1691 3500 
L 2638 3500 
L 2553 3053 
L 1606 3053 
L 1013 0 
L 434 0 
L 1031 3053 
L 481 3053 
L 563 3500 
L 1113 3500 
L 1159 3744 
Q 1278 4363 1576 4613 
Q 1875 4863 2516 4863 
L 3059 4863 
z
" transform="scale(0.015625)"/>
     <path id="DejaVuSans-Oblique-65" d="M 3078 2063 
Q 3088 2113 3092 2166 
Q 3097 2219 3097 2272 
Q 3097 2653 2873 2875 
Q 2650 3097 2266 3097 
Q 1838 3097 1509 2826 
Q 1181 2556 1013 2059 
L 3078 2063 
z
M 3578 1613 
L 903 1613 
Q 884 1494 878 1425 
Q 872 1356 872 1306 
Q 872 872 1139 634 
Q 1406 397 1894 397 
Q 2269 397 2603 481 
Q 2938 566 3225 728 
L 3116 159 
Q 2806 34 2476 -28 
Q 2147 -91 1806 -91 
Q 1078 -91 686 257 
Q 294 606 294 1247 
Q 294 1794 489 2264 
Q 684 2734 1063 3103 
Q 1306 3334 1642 3459 
Q 1978 3584 2356 3584 
Q 2950 3584 3301 3228 
Q 3653 2872 3653 2272 
Q 3653 2128 3634 1964 
Q 3616 1800 3578 1613 
z
" transform="scale(0.015625)"/>
     <path id="DejaVuSans-Oblique-62" d="M 3169 2138 
Q 3169 2591 2961 2847 
Q 2753 3103 2388 3103 
Q 2122 3103 1889 2973 
Q 1656 2844 1484 2597 
Q 1303 2338 1198 1995 
Q 1094 1653 1094 1313 
Q 1094 881 1298 636 
Q 1503 391 1863 391 
Q 2134 391 2365 517 
Q 2597 644 2772 891 
Q 2950 1147 3059 1487 
Q 3169 1828 3169 2138 
z
M 1381 2969 
Q 1594 3256 1914 3420 
Q 2234 3584 2584 3584 
Q 3122 3584 3439 3221 
Q 3756 2859 3756 2241 
Q 3756 1734 3570 1259 
Q 3384 784 3041 416 
Q 2816 172 2522 40 
Q 2228 -91 1906 -91 
Q 1566 -91 1316 65 
Q 1066 222 909 531 
L 806 0 
L 231 0 
L 1178 4863 
L 1753 4863 
L 1381 2969 
z
" transform="scale(0.015625)"/>
     <path id="DejaVuSans-Oblique-73" d="M 3200 3397 
L 3091 2853 
Q 2863 2978 2609 3040 
Q 2356 3103 2088 3103 
Q 1634 3103 1373 2948 
Q 1113 2794 1113 2528 
Q 1113 2219 1719 2053 
Q 1766 2041 1788 2034 
L 1972 1978 
Q 2547 1819 2739 1644 
Q 2931 1469 2931 1166 
Q 2931 609 2489 259 
Q 2047 -91 1331 -91 
Q 1053 -91 747 -37 
Q 441 16 72 128 
L 184 722 
Q 500 559 806 475 
Q 1113 391 1394 391 
Q 1816 391 2080 572 
Q 2344 753 2344 1031 
Q 2344 1331 1650 1516 
L 1591 1531 
L 1394 1581 
Q 956 1697 753 1886 
Q 550 2075 550 2369 
Q 550 2928 970 3256 
Q 1391 3584 2113 3584 
Q 2397 3584 2667 3537 
Q 2938 3491 3200 3397 
z
" transform="scale(0.015625)"/>
    </defs>
    <use xlink:href="#DejaVuSans-Oblique-4d"/>
    <use xlink:href="#DejaVuSans-Oblique-3d" x="86.279297"/>
    <use xlink:href="#DejaVuSans-Oblique-35" x="170.068359"/>
    <use xlink:href="#DejaVuSans-Oblique-20" x="233.691406"/>
    <use xlink:href="#DejaVuSans-Oblique-4a" x="265.478516"/>
    <use xlink:href="#DejaVuSans-Oblique-61" x="294.970703"/>
    <use xlink:href="#DejaVuSans-Oblique-63" x="356.25"/>
    <use xlink:href="#DejaVuSans-Oblique-6b" x="411.230469"/>
    <use xlink:href="#DejaVuSans-Oblique-6b" x="469.140625"/>
    <use xlink:href="#DejaVuSans-Oblique-6e" x="527.050781"/>
    <use xlink:href="#DejaVuSans-Oblique-69" x="590.429688"/>
    <use xlink:href="#DejaVuSans-Oblique-66" x="618.212891"/>
    <use xlink:href="#DejaVuSans-Oblique-65" x="653.417969"/>
    <use xlink:href="#DejaVuSans-Oblique-20" x="714.941406"/>
    <use xlink:href="#DejaVuSans-Oblique-62" x="746.728516"/>
    <use xlink:href="#DejaVuSans-Oblique-69" x="810.205078"/>
    <use xlink:href="#DejaVuSans-Oblique-6e" x="837.988281"/>
    <use xlink:href="#DejaVuSans-Oblique-73" x="901.367188"/>
   </g>
  </g>
 </g>
 <defs>
  <clipPath id="p1ec8308fc3">
   <rect x="53.472188" y="7.2" width="390.6" height="277.2"/>
  </clipPath>
 </defs>
</svg>
