<?xml version="1.0" encoding="utf-8" standalone="no"?>
<!DOCTYPE svg PUBLIC "-//W3C//DTD SVG 1.1//EN"
  "http://www.w3.org/Graphics/SVG/1.1/DTD/svg11.dtd">
<svg xmlns:xlink="http://www.w3.org/1999/xlink" width="491.639437pt" height="368.407656pt" viewBox="0 0 491.639437 368.407656" xmlns="http://www.w3.org/2000/svg" version="1.1">
 <metadata>
  <rdf:RDF xmlns:dc="http://purl.org/dc/elements/1.1/" xmlns:cc="http://creativecommons.org/ns#" xmlns:rdf="http://www.w3.org/1999/02/22-rdf-syntax-ns#">
   <cc:Work>
    <dc:type rdf:resource="http://purl.org/dc/dcmitype/StillImage"/>
    <dc:date>2024-05-10T14:50:37.022667</dc:date>
    <dc:format>image/svg+xml</dc:format>
    <dc:creator>
     <cc:Agent>
      <dc:title>Matplotlib v3.8.0, https://matplotlib.org/</dc:title>
     </cc:Agent>
    </dc:creator>
   </cc:Work>
  </rdf:RDF>
 </metadata>
 <defs>
  <style type="text/css">*{stroke-linejoin: round; stroke-linecap: butt}</style>
 </defs>
 <g id="figure_1">
  <g id="patch_1">
   <path d="M 0 368.407656 
L 491.639437 368.407656 
L 491.639437 0 
L 0 0 
z
" style="fill: #ffffff"/>
  </g>
  <g id="axes_1">
   <g id="patch_2">
    <path d="M 66.300938 307.96 
L 484.439438 307.96 
L 484.439438 7.2 
L 66.300938 7.2 
z
" style="fill: #ffffff"/>
   </g>
   <g id="matplotlib.axis_1">
    <g id="xtick_1">
     <g id="line2d_1">
      <defs>
       <path id="m674a695725" d="M 0 0 
L 0 3.5 
" style="stroke: #000000; stroke-width: 0.8"/>
      </defs>
      <g>
       <use xlink:href="#m674a695725" x="85.307233" y="307.96" style="stroke: #000000; stroke-width: 0.8"/>
      </g>
     </g>
     <g id="text_1">
      <!-- 5.06 -->
      <g transform="translate(73.061139 323.318281) scale(0.11 -0.11)">
       <defs>
        <path id="DejaVuSans-35" d="M 691 4666 
L 3169 4666 
L 3169 4134 
L 1269 4134 
L 1269 2991 
Q 1406 3038 1543 3061 
Q 1681 3084 1819 3084 
Q 2600 3084 3056 2656 
Q 3513 2228 3513 1497 
Q 3513 744 3044 326 
Q 2575 -91 1722 -91 
Q 1428 -91 1123 -41 
Q 819 9 494 109 
L 494 744 
Q 775 591 1075 516 
Q 1375 441 1709 441 
Q 2250 441 2565 725 
Q 2881 1009 2881 1497 
Q 2881 1984 2565 2268 
Q 2250 2553 1709 2553 
Q 1456 2553 1204 2497 
Q 953 2441 691 2322 
L 691 4666 
z
" transform="scale(0.015625)"/>
        <path id="DejaVuSans-2e" d="M 684 794 
L 1344 794 
L 1344 0 
L 684 0 
L 684 794 
z
" transform="scale(0.015625)"/>
        <path id="DejaVuSans-30" d="M 2034 4250 
Q 1547 4250 1301 3770 
Q 1056 3291 1056 2328 
Q 1056 1369 1301 889 
Q 1547 409 2034 409 
Q 2525 409 2770 889 
Q 3016 1369 3016 2328 
Q 3016 3291 2770 3770 
Q 2525 4250 2034 4250 
z
M 2034 4750 
Q 2819 4750 3233 4129 
Q 3647 3509 3647 2328 
Q 3647 1150 3233 529 
Q 2819 -91 2034 -91 
Q 1250 -91 836 529 
Q 422 1150 422 2328 
Q 422 3509 836 4129 
Q 1250 4750 2034 4750 
z
" transform="scale(0.015625)"/>
        <path id="DejaVuSans-36" d="M 2113 2584 
Q 1688 2584 1439 2293 
Q 1191 2003 1191 1497 
Q 1191 994 1439 701 
Q 1688 409 2113 409 
Q 2538 409 2786 701 
Q 3034 994 3034 1497 
Q 3034 2003 2786 2293 
Q 2538 2584 2113 2584 
z
M 3366 4563 
L 3366 3988 
Q 3128 4100 2886 4159 
Q 2644 4219 2406 4219 
Q 1781 4219 1451 3797 
Q 1122 3375 1075 2522 
Q 1259 2794 1537 2939 
Q 1816 3084 2150 3084 
Q 2853 3084 3261 2657 
Q 3669 2231 3669 1497 
Q 3669 778 3244 343 
Q 2819 -91 2113 -91 
Q 1303 -91 875 529 
Q 447 1150 447 2328 
Q 447 3434 972 4092 
Q 1497 4750 2381 4750 
Q 2619 4750 2861 4703 
Q 3103 4656 3366 4563 
z
" transform="scale(0.015625)"/>
       </defs>
       <use xlink:href="#DejaVuSans-35"/>
       <use xlink:href="#DejaVuSans-2e" x="63.623047"/>
       <use xlink:href="#DejaVuSans-30" x="95.410156"/>
       <use xlink:href="#DejaVuSans-36" x="159.033203"/>
      </g>
     </g>
    </g>
    <g id="xtick_2">
     <g id="line2d_2">
      <g>
       <use xlink:href="#m674a695725" x="149.19394" y="307.96" style="stroke: #000000; stroke-width: 0.8"/>
      </g>
     </g>
     <g id="text_2">
      <!-- 5.08 -->
      <g transform="translate(136.947847 323.318281) scale(0.11 -0.11)">
       <defs>
        <path id="DejaVuSans-38" d="M 2034 2216 
Q 1584 2216 1326 1975 
Q 1069 1734 1069 1313 
Q 1069 891 1326 650 
Q 1584 409 2034 409 
Q 2484 409 2743 651 
Q 3003 894 3003 1313 
Q 3003 1734 2745 1975 
Q 2488 2216 2034 2216 
z
M 1403 2484 
Q 997 2584 770 2862 
Q 544 3141 544 3541 
Q 544 4100 942 4425 
Q 1341 4750 2034 4750 
Q 2731 4750 3128 4425 
Q 3525 4100 3525 3541 
Q 3525 3141 3298 2862 
Q 3072 2584 2669 2484 
Q 3125 2378 3379 2068 
Q 3634 1759 3634 1313 
Q 3634 634 3220 271 
Q 2806 -91 2034 -91 
Q 1263 -91 848 271 
Q 434 634 434 1313 
Q 434 1759 690 2068 
Q 947 2378 1403 2484 
z
M 1172 3481 
Q 1172 3119 1398 2916 
Q 1625 2713 2034 2713 
Q 2441 2713 2670 2916 
Q 2900 3119 2900 3481 
Q 2900 3844 2670 4047 
Q 2441 4250 2034 4250 
Q 1625 4250 1398 4047 
Q 1172 3844 1172 3481 
z
" transform="scale(0.015625)"/>
       </defs>
       <use xlink:href="#DejaVuSans-35"/>
       <use xlink:href="#DejaVuSans-2e" x="63.623047"/>
       <use xlink:href="#DejaVuSans-30" x="95.410156"/>
       <use xlink:href="#DejaVuSans-38" x="159.033203"/>
      </g>
     </g>
    </g>
    <g id="xtick_3">
     <g id="line2d_3">
      <g>
       <use xlink:href="#m674a695725" x="213.080648" y="307.96" style="stroke: #000000; stroke-width: 0.8"/>
      </g>
     </g>
     <g id="text_3">
      <!-- 5.10 -->
      <g transform="translate(200.834554 323.318281) scale(0.11 -0.11)">
       <defs>
        <path id="DejaVuSans-31" d="M 794 531 
L 1825 531 
L 1825 4091 
L 703 3866 
L 703 4441 
L 1819 4666 
L 2450 4666 
L 2450 531 
L 3481 531 
L 3481 0 
L 794 0 
L 794 531 
z
" transform="scale(0.015625)"/>
       </defs>
       <use xlink:href="#DejaVuSans-35"/>
       <use xlink:href="#DejaVuSans-2e" x="63.623047"/>
       <use xlink:href="#DejaVuSans-31" x="95.410156"/>
       <use xlink:href="#DejaVuSans-30" x="159.033203"/>
      </g>
     </g>
    </g>
    <g id="xtick_4">
     <g id="line2d_4">
      <g>
       <use xlink:href="#m674a695725" x="276.967355" y="307.96" style="stroke: #000000; stroke-width: 0.8"/>
      </g>
     </g>
     <g id="text_4">
      <!-- 5.12 -->
      <g transform="translate(264.721261 323.318281) scale(0.11 -0.11)">
       <defs>
        <path id="DejaVuSans-32" d="M 1228 531 
L 3431 531 
L 3431 0 
L 469 0 
L 469 531 
Q 828 903 1448 1529 
Q 2069 2156 2228 2338 
Q 2531 2678 2651 2914 
Q 2772 3150 2772 3378 
Q 2772 3750 2511 3984 
Q 2250 4219 1831 4219 
Q 1534 4219 1204 4116 
Q 875 4013 500 3803 
L 500 4441 
Q 881 4594 1212 4672 
Q 1544 4750 1819 4750 
Q 2544 4750 2975 4387 
Q 3406 4025 3406 3419 
Q 3406 3131 3298 2873 
Q 3191 2616 2906 2266 
Q 2828 2175 2409 1742 
Q 1991 1309 1228 531 
z
" transform="scale(0.015625)"/>
       </defs>
       <use xlink:href="#DejaVuSans-35"/>
       <use xlink:href="#DejaVuSans-2e" x="63.623047"/>
       <use xlink:href="#DejaVuSans-31" x="95.410156"/>
       <use xlink:href="#DejaVuSans-32" x="159.033203"/>
      </g>
     </g>
    </g>
    <g id="xtick_5">
     <g id="line2d_5">
      <g>
       <use xlink:href="#m674a695725" x="340.854063" y="307.96" style="stroke: #000000; stroke-width: 0.8"/>
      </g>
     </g>
     <g id="text_5">
      <!-- 5.14 -->
      <g transform="translate(328.607969 323.318281) scale(0.11 -0.11)">
       <defs>
        <path id="DejaVuSans-34" d="M 2419 4116 
L 825 1625 
L 2419 1625 
L 2419 4116 
z
M 2253 4666 
L 3047 4666 
L 3047 1625 
L 3713 1625 
L 3713 1100 
L 3047 1100 
L 3047 0 
L 2419 0 
L 2419 1100 
L 313 1100 
L 313 1709 
L 2253 4666 
z
" transform="scale(0.015625)"/>
       </defs>
       <use xlink:href="#DejaVuSans-35"/>
       <use xlink:href="#DejaVuSans-2e" x="63.623047"/>
       <use xlink:href="#DejaVuSans-31" x="95.410156"/>
       <use xlink:href="#DejaVuSans-34" x="159.033203"/>
      </g>
     </g>
    </g>
    <g id="xtick_6">
     <g id="line2d_6">
      <g>
       <use xlink:href="#m674a695725" x="404.74077" y="307.96" style="stroke: #000000; stroke-width: 0.8"/>
      </g>
     </g>
     <g id="text_6">
      <!-- 5.16 -->
      <g transform="translate(392.494676 323.318281) scale(0.11 -0.11)">
       <use xlink:href="#DejaVuSans-35"/>
       <use xlink:href="#DejaVuSans-2e" x="63.623047"/>
       <use xlink:href="#DejaVuSans-31" x="95.410156"/>
       <use xlink:href="#DejaVuSans-36" x="159.033203"/>
      </g>
     </g>
    </g>
    <g id="xtick_7">
     <g id="line2d_7">
      <g>
       <use xlink:href="#m674a695725" x="468.627477" y="307.96" style="stroke: #000000; stroke-width: 0.8"/>
      </g>
     </g>
     <g id="text_7">
      <!-- 5.18 -->
      <g transform="translate(456.381384 323.318281) scale(0.11 -0.11)">
       <use xlink:href="#DejaVuSans-35"/>
       <use xlink:href="#DejaVuSans-2e" x="63.623047"/>
       <use xlink:href="#DejaVuSans-31" x="95.410156"/>
       <use xlink:href="#DejaVuSans-38" x="159.033203"/>
      </g>
     </g>
    </g>
    <g id="text_8">
     <!-- $\beta$ -->
     <g transform="translate(271.850188 338.075938) scale(0.11 -0.11)">
      <defs>
       <path id="DejaVuSans-Oblique-3b2" d="M 872 216 
L 572 -1331 
L -6 -1331 
L 928 3478 
Q 1206 4903 2538 4903 
Q 3888 4903 3659 3700 
Q 3503 2844 2894 2531 
Q 3713 2250 3553 1416 
Q 3272 -69 1759 -66 
Q 1097 -63 872 216 
z
M 1019 966 
Q 1259 422 1875 425 
Q 2775 425 2966 1406 
Q 3138 2288 1675 2219 
L 1778 2750 
Q 2909 2731 3106 3750 
Q 3241 4438 2509 4434 
Q 1691 4434 1503 3459 
L 1019 966 
z
" transform="scale(0.015625)"/>
      </defs>
      <use xlink:href="#DejaVuSans-Oblique-3b2" transform="translate(0 0.390625)"/>
     </g>
    </g>
   </g>
   <g id="matplotlib.axis_2">
    <g id="ytick_1">
     <g id="line2d_8">
      <defs>
       <path id="m3802ae112a" d="M 0 0 
L -3.5 0 
" style="stroke: #000000; stroke-width: 0.8"/>
      </defs>
      <g>
       <use xlink:href="#m3802ae112a" x="66.300938" y="292.273026" style="stroke: #000000; stroke-width: 0.8"/>
      </g>
     </g>
     <g id="text_9">
      <!-- 0.000 -->
      <g transform="translate(27.81 296.452167) scale(0.11 -0.11)">
       <use xlink:href="#DejaVuSans-30"/>
       <use xlink:href="#DejaVuSans-2e" x="63.623047"/>
       <use xlink:href="#DejaVuSans-30" x="95.410156"/>
       <use xlink:href="#DejaVuSans-30" x="159.033203"/>
       <use xlink:href="#DejaVuSans-30" x="222.65625"/>
      </g>
     </g>
    </g>
    <g id="ytick_2">
     <g id="line2d_9">
      <g>
       <use xlink:href="#m3802ae112a" x="66.300938" y="247.814464" style="stroke: #000000; stroke-width: 0.8"/>
      </g>
     </g>
     <g id="text_10">
      <!-- 0.005 -->
      <g transform="translate(27.81 251.993605) scale(0.11 -0.11)">
       <use xlink:href="#DejaVuSans-30"/>
       <use xlink:href="#DejaVuSans-2e" x="63.623047"/>
       <use xlink:href="#DejaVuSans-30" x="95.410156"/>
       <use xlink:href="#DejaVuSans-30" x="159.033203"/>
       <use xlink:href="#DejaVuSans-35" x="222.65625"/>
      </g>
     </g>
    </g>
    <g id="ytick_3">
     <g id="line2d_10">
      <g>
       <use xlink:href="#m3802ae112a" x="66.300938" y="203.355903" style="stroke: #000000; stroke-width: 0.8"/>
      </g>
     </g>
     <g id="text_11">
      <!-- 0.010 -->
      <g transform="translate(27.81 207.535043) scale(0.11 -0.11)">
       <use xlink:href="#DejaVuSans-30"/>
       <use xlink:href="#DejaVuSans-2e" x="63.623047"/>
       <use xlink:href="#DejaVuSans-30" x="95.410156"/>
       <use xlink:href="#DejaVuSans-31" x="159.033203"/>
       <use xlink:href="#DejaVuSans-30" x="222.65625"/>
      </g>
     </g>
    </g>
    <g id="ytick_4">
     <g id="line2d_11">
      <g>
       <use xlink:href="#m3802ae112a" x="66.300938" y="158.897341" style="stroke: #000000; stroke-width: 0.8"/>
      </g>
     </g>
     <g id="text_12">
      <!-- 0.015 -->
      <g transform="translate(27.81 163.076482) scale(0.11 -0.11)">
       <use xlink:href="#DejaVuSans-30"/>
       <use xlink:href="#DejaVuSans-2e" x="63.623047"/>
       <use xlink:href="#DejaVuSans-30" x="95.410156"/>
       <use xlink:href="#DejaVuSans-31" x="159.033203"/>
       <use xlink:href="#DejaVuSans-35" x="222.65625"/>
      </g>
     </g>
    </g>
    <g id="ytick_5">
     <g id="line2d_12">
      <g>
       <use xlink:href="#m3802ae112a" x="66.300938" y="114.438779" style="stroke: #000000; stroke-width: 0.8"/>
      </g>
     </g>
     <g id="text_13">
      <!-- 0.020 -->
      <g transform="translate(27.81 118.61792) scale(0.11 -0.11)">
       <use xlink:href="#DejaVuSans-30"/>
       <use xlink:href="#DejaVuSans-2e" x="63.623047"/>
       <use xlink:href="#DejaVuSans-30" x="95.410156"/>
       <use xlink:href="#DejaVuSans-32" x="159.033203"/>
       <use xlink:href="#DejaVuSans-30" x="222.65625"/>
      </g>
     </g>
    </g>
    <g id="ytick_6">
     <g id="line2d_13">
      <g>
       <use xlink:href="#m3802ae112a" x="66.300938" y="69.980218" style="stroke: #000000; stroke-width: 0.8"/>
      </g>
     </g>
     <g id="text_14">
      <!-- 0.025 -->
      <g transform="translate(27.81 74.159358) scale(0.11 -0.11)">
       <use xlink:href="#DejaVuSans-30"/>
       <use xlink:href="#DejaVuSans-2e" x="63.623047"/>
       <use xlink:href="#DejaVuSans-30" x="95.410156"/>
       <use xlink:href="#DejaVuSans-32" x="159.033203"/>
       <use xlink:href="#DejaVuSans-35" x="222.65625"/>
      </g>
     </g>
    </g>
    <g id="ytick_7">
     <g id="line2d_14">
      <g>
       <use xlink:href="#m3802ae112a" x="66.300938" y="25.521656" style="stroke: #000000; stroke-width: 0.8"/>
      </g>
     </g>
     <g id="text_15">
      <!-- 0.030 -->
      <g transform="translate(27.81 29.700797) scale(0.11 -0.11)">
       <defs>
        <path id="DejaVuSans-33" d="M 2597 2516 
Q 3050 2419 3304 2112 
Q 3559 1806 3559 1356 
Q 3559 666 3084 287 
Q 2609 -91 1734 -91 
Q 1441 -91 1130 -33 
Q 819 25 488 141 
L 488 750 
Q 750 597 1062 519 
Q 1375 441 1716 441 
Q 2309 441 2620 675 
Q 2931 909 2931 1356 
Q 2931 1769 2642 2001 
Q 2353 2234 1838 2234 
L 1294 2234 
L 1294 2753 
L 1863 2753 
Q 2328 2753 2575 2939 
Q 2822 3125 2822 3475 
Q 2822 3834 2567 4026 
Q 2313 4219 1838 4219 
Q 1578 4219 1281 4162 
Q 984 4106 628 3988 
L 628 4550 
Q 988 4650 1302 4700 
Q 1616 4750 1894 4750 
Q 2613 4750 3031 4423 
Q 3450 4097 3450 3541 
Q 3450 3153 3228 2886 
Q 3006 2619 2597 2516 
z
" transform="scale(0.015625)"/>
       </defs>
       <use xlink:href="#DejaVuSans-30"/>
       <use xlink:href="#DejaVuSans-2e" x="63.623047"/>
       <use xlink:href="#DejaVuSans-30" x="95.410156"/>
       <use xlink:href="#DejaVuSans-33" x="159.033203"/>
       <use xlink:href="#DejaVuSans-30" x="222.65625"/>
      </g>
     </g>
    </g>
    <g id="text_16">
     <!-- $\frac{1}{6\cdot V\cdot \beta}\langle S_{t} - S_{nt} \rangle$ -->
     <g transform="translate(17.65 195.09) rotate(-90) scale(0.11 -0.11)">
      <defs>
       <path id="DejaVuSans-22c5" d="M 684 2619 
L 1344 2619 
L 1344 1825 
L 684 1825 
L 684 2619 
z
" transform="scale(0.015625)"/>
       <path id="DejaVuSans-Oblique-56" d="M 1319 0 
L 500 4666 
L 1119 4666 
L 1797 653 
L 4063 4666 
L 4750 4666 
L 2053 0 
L 1319 0 
z
" transform="scale(0.015625)"/>
       <path id="DejaVuSans-27e8" d="M 572 2006 
L 1453 4856 
L 1984 4856 
L 1103 2006 
L 1984 -844 
L 1453 -844 
L 572 2006 
z
" transform="scale(0.015625)"/>
       <path id="DejaVuSans-Oblique-53" d="M 3859 4513 
L 3738 3897 
Q 3422 4066 3111 4152 
Q 2800 4238 2509 4238 
Q 1944 4238 1609 3991 
Q 1275 3744 1275 3334 
Q 1275 3109 1398 2989 
Q 1522 2869 2034 2731 
L 2413 2638 
Q 3053 2472 3303 2217 
Q 3553 1963 3553 1503 
Q 3553 797 2998 353 
Q 2444 -91 1538 -91 
Q 1166 -91 791 -17 
Q 416 56 38 206 
L 166 856 
Q 513 641 861 531 
Q 1209 422 1556 422 
Q 2147 422 2503 684 
Q 2859 947 2859 1369 
Q 2859 1650 2717 1795 
Q 2575 1941 2106 2059 
L 1728 2156 
Q 1081 2325 845 2545 
Q 609 2766 609 3163 
Q 609 3859 1145 4304 
Q 1681 4750 2541 4750 
Q 2875 4750 3203 4690 
Q 3531 4631 3859 4513 
z
" transform="scale(0.015625)"/>
       <path id="DejaVuSans-Oblique-74" d="M 2706 3500 
L 2619 3053 
L 1472 3053 
L 1100 1153 
Q 1081 1047 1072 975 
Q 1063 903 1063 863 
Q 1063 663 1183 572 
Q 1303 481 1569 481 
L 2150 481 
L 2053 0 
L 1503 0 
Q 991 0 739 200 
Q 488 400 488 806 
Q 488 878 497 964 
Q 506 1050 525 1153 
L 897 3053 
L 409 3053 
L 500 3500 
L 978 3500 
L 1172 4494 
L 1747 4494 
L 1556 3500 
L 2706 3500 
z
" transform="scale(0.015625)"/>
       <path id="DejaVuSans-2212" d="M 678 2272 
L 4684 2272 
L 4684 1741 
L 678 1741 
L 678 2272 
z
" transform="scale(0.015625)"/>
       <path id="DejaVuSans-Oblique-6e" d="M 3566 2113 
L 3156 0 
L 2578 0 
L 2988 2091 
Q 3016 2238 3031 2350 
Q 3047 2463 3047 2528 
Q 3047 2791 2881 2937 
Q 2716 3084 2419 3084 
Q 1956 3084 1622 2776 
Q 1288 2469 1184 1941 
L 800 0 
L 225 0 
L 903 3500 
L 1478 3500 
L 1363 2950 
Q 1603 3253 1940 3418 
Q 2278 3584 2650 3584 
Q 3113 3584 3367 3334 
Q 3622 3084 3622 2631 
Q 3622 2519 3608 2391 
Q 3594 2263 3566 2113 
z
" transform="scale(0.015625)"/>
       <path id="DejaVuSans-27e9" d="M 1925 2006 
L 1044 -844 
L 513 -844 
L 1394 2006 
L 513 4856 
L 1044 4856 
L 1925 2006 
z
" transform="scale(0.015625)"/>
      </defs>
      <use xlink:href="#DejaVuSans-31" transform="translate(96 43.965625) scale(0.7)"/>
      <use xlink:href="#DejaVuSans-36" transform="translate(0 -40.910937) scale(0.7)"/>
      <use xlink:href="#DejaVuSans-22c5" transform="translate(58.173828 -40.910937) scale(0.7)"/>
      <use xlink:href="#DejaVuSans-Oblique-56" transform="translate(94.0625 -40.910937) scale(0.7)"/>
      <use xlink:href="#DejaVuSans-22c5" transform="translate(155.585938 -40.910937) scale(0.7)"/>
      <use xlink:href="#DejaVuSans-Oblique-3b2" transform="translate(191.474609 -40.910937) scale(0.7)"/>
      <use xlink:href="#DejaVuSans-27e8" transform="translate(248.647461 0.16875)"/>
      <use xlink:href="#DejaVuSans-Oblique-53" transform="translate(287.661133 0.16875)"/>
      <use xlink:href="#DejaVuSans-Oblique-74" transform="translate(351.137695 -16.2375) scale(0.7)"/>
      <use xlink:href="#DejaVuSans-2212" transform="translate(400.800781 0.16875)"/>
      <use xlink:href="#DejaVuSans-Oblique-53" transform="translate(504.072266 0.16875)"/>
      <use xlink:href="#DejaVuSans-Oblique-6e" transform="translate(567.548828 -16.2375) scale(0.7)"/>
      <use xlink:href="#DejaVuSans-Oblique-74" transform="translate(611.914062 -16.2375) scale(0.7)"/>
      <use xlink:href="#DejaVuSans-27e9" transform="translate(642.094727 0.16875)"/>
      <path d="M 0 18.965625 
L 0 25.215625 
L 236.147461 25.215625 
L 236.147461 18.965625 
L 0 18.965625 
z
"/>
     </g>
    </g>
   </g>
   <g id="LineCollection_1">
    <path d="M 85.307233 293.060287 
L 85.307233 292.935305 
" clip-path="url(#p1ff6d41190)" style="fill: none; stroke: #ff0000; stroke-width: 1.5"/>
    <path d="M 88.501568 293.119295 
L 88.501568 292.996546 
" clip-path="url(#p1ff6d41190)" style="fill: none; stroke: #ff0000; stroke-width: 1.5"/>
    <path d="M 91.695904 293.180425 
L 91.695904 293.059751 
" clip-path="url(#p1ff6d41190)" style="fill: none; stroke: #ff0000; stroke-width: 1.5"/>
    <path d="M 94.890239 293.243684 
L 94.890239 293.124926 
" clip-path="url(#p1ff6d41190)" style="fill: none; stroke: #ff0000; stroke-width: 1.5"/>
    <path d="M 98.084574 293.309071 
L 98.084574 293.192062 
" clip-path="url(#p1ff6d41190)" style="fill: none; stroke: #ff0000; stroke-width: 1.5"/>
    <path d="M 101.27891 293.376583 
L 101.27891 293.261134 
" clip-path="url(#p1ff6d41190)" style="fill: none; stroke: #ff0000; stroke-width: 1.5"/>
    <path d="M 104.473245 293.446207 
L 104.473245 293.332093 
" clip-path="url(#p1ff6d41190)" style="fill: none; stroke: #ff0000; stroke-width: 1.5"/>
    <path d="M 107.667581 293.517912 
L 107.667581 293.404862 
" clip-path="url(#p1ff6d41190)" style="fill: none; stroke: #ff0000; stroke-width: 1.5"/>
    <path d="M 110.861916 293.591642 
L 110.861916 293.479319 
" clip-path="url(#p1ff6d41190)" style="fill: none; stroke: #ff0000; stroke-width: 1.5"/>
    <path d="M 114.056251 293.667296 
L 114.056251 293.555276 
" clip-path="url(#p1ff6d41190)" style="fill: none; stroke: #ff0000; stroke-width: 1.5"/>
    <path d="M 117.250587 293.744695 
L 117.250587 293.632449 
" clip-path="url(#p1ff6d41190)" style="fill: none; stroke: #ff0000; stroke-width: 1.5"/>
    <path d="M 120.444922 293.823537 
L 120.444922 293.710406 
" clip-path="url(#p1ff6d41190)" style="fill: none; stroke: #ff0000; stroke-width: 1.5"/>
    <path d="M 123.639257 293.90331 
L 123.639257 293.788476 
" clip-path="url(#p1ff6d41190)" style="fill: none; stroke: #ff0000; stroke-width: 1.5"/>
    <path d="M 126.833593 293.983168 
L 126.833593 293.865619 
" clip-path="url(#p1ff6d41190)" style="fill: none; stroke: #ff0000; stroke-width: 1.5"/>
    <path d="M 130.027928 294.06171 
L 130.027928 293.940195 
" clip-path="url(#p1ff6d41190)" style="fill: none; stroke: #ff0000; stroke-width: 1.5"/>
    <path d="M 133.222264 294.136644 
L 133.222264 294.009602 
" clip-path="url(#p1ff6d41190)" style="fill: none; stroke: #ff0000; stroke-width: 1.5"/>
    <path d="M 136.416599 294.204226 
L 136.416599 294.069668 
" clip-path="url(#p1ff6d41190)" style="fill: none; stroke: #ff0000; stroke-width: 1.5"/>
    <path d="M 139.610934 294.258352 
L 139.610934 294.113663 
" clip-path="url(#p1ff6d41190)" style="fill: none; stroke: #ff0000; stroke-width: 1.5"/>
    <path d="M 142.80527 294.289091 
L 142.80527 294.130654 
" clip-path="url(#p1ff6d41190)" style="fill: none; stroke: #ff0000; stroke-width: 1.5"/>
    <path d="M 145.999605 294.280272 
L 145.999605 294.102801 
" clip-path="url(#p1ff6d41190)" style="fill: none; stroke: #ff0000; stroke-width: 1.5"/>
    <path d="M 149.19394 294.205553 
L 149.19394 294.000881 
" clip-path="url(#p1ff6d41190)" style="fill: none; stroke: #ff0000; stroke-width: 1.5"/>
    <path d="M 152.388276 294.021958 
L 152.388276 293.776943 
" clip-path="url(#p1ff6d41190)" style="fill: none; stroke: #ff0000; stroke-width: 1.5"/>
    <path d="M 155.582611 293.659261 
L 155.582611 293.352327 
" clip-path="url(#p1ff6d41190)" style="fill: none; stroke: #ff0000; stroke-width: 1.5"/>
    <path d="M 158.776946 293.002603 
L 158.776946 292.598383 
" clip-path="url(#p1ff6d41190)" style="fill: none; stroke: #ff0000; stroke-width: 1.5"/>
    <path d="M 161.971282 291.864541 
L 161.971282 291.305952 
" clip-path="url(#p1ff6d41190)" style="fill: none; stroke: #ff0000; stroke-width: 1.5"/>
    <path d="M 165.165617 289.94153 
L 165.165617 289.138469 
" clip-path="url(#p1ff6d41190)" style="fill: none; stroke: #ff0000; stroke-width: 1.5"/>
    <path d="M 168.359953 286.749983 
L 168.359953 285.564226 
" clip-path="url(#p1ff6d41190)" style="fill: none; stroke: #ff0000; stroke-width: 1.5"/>
    <path d="M 171.554288 281.542114 
L 171.554288 279.770449 
" clip-path="url(#p1ff6d41190)" style="fill: none; stroke: #ff0000; stroke-width: 1.5"/>
    <path d="M 174.748623 273.220915 
L 174.748623 270.585861 
" clip-path="url(#p1ff6d41190)" style="fill: none; stroke: #ff0000; stroke-width: 1.5"/>
    <path d="M 177.942959 260.32203 
L 177.942959 256.4941 
" clip-path="url(#p1ff6d41190)" style="fill: none; stroke: #ff0000; stroke-width: 1.5"/>
    <path d="M 181.137294 241.214545 
L 181.137294 235.906566 
" clip-path="url(#p1ff6d41190)" style="fill: none; stroke: #ff0000; stroke-width: 1.5"/>
    <path d="M 184.331629 214.728863 
L 184.331629 207.889001 
" clip-path="url(#p1ff6d41190)" style="fill: none; stroke: #ff0000; stroke-width: 1.5"/>
    <path d="M 187.525965 181.225199 
L 187.525965 173.254572 
" clip-path="url(#p1ff6d41190)" style="fill: none; stroke: #ff0000; stroke-width: 1.5"/>
    <path d="M 190.7203 143.469843 
L 190.7203 135.240769 
" clip-path="url(#p1ff6d41190)" style="fill: none; stroke: #ff0000; stroke-width: 1.5"/>
    <path d="M 193.914636 106.177835 
L 193.914636 98.694589 
" clip-path="url(#p1ff6d41190)" style="fill: none; stroke: #ff0000; stroke-width: 1.5"/>
    <path d="M 197.108971 74.027802 
L 197.108971 67.958239 
" clip-path="url(#p1ff6d41190)" style="fill: none; stroke: #ff0000; stroke-width: 1.5"/>
    <path d="M 200.303306 49.748107 
L 200.303306 45.229272 
" clip-path="url(#p1ff6d41190)" style="fill: none; stroke: #ff0000; stroke-width: 1.5"/>
    <path d="M 203.497642 33.779501 
L 203.497642 30.558644 
" clip-path="url(#p1ff6d41190)" style="fill: none; stroke: #ff0000; stroke-width: 1.5"/>
    <path d="M 206.691977 25.194283 
L 206.691977 22.863344 
" clip-path="url(#p1ff6d41190)" style="fill: none; stroke: #ff0000; stroke-width: 1.5"/>
    <path d="M 209.886312 22.721579 
L 209.886312 20.870909 
" clip-path="url(#p1ff6d41190)" style="fill: none; stroke: #ff0000; stroke-width: 1.5"/>
    <path d="M 213.080648 25.283629 
L 213.080648 23.577049 
" clip-path="url(#p1ff6d41190)" style="fill: none; stroke: #ff0000; stroke-width: 1.5"/>
    <path d="M 216.274983 32.086661 
L 216.274983 30.302306 
" clip-path="url(#p1ff6d41190)" style="fill: none; stroke: #ff0000; stroke-width: 1.5"/>
    <path d="M 219.469319 42.496998 
L 219.469319 40.529531 
" clip-path="url(#p1ff6d41190)" style="fill: none; stroke: #ff0000; stroke-width: 1.5"/>
    <path d="M 222.663654 55.85182 
L 222.663654 53.690869 
" clip-path="url(#p1ff6d41190)" style="fill: none; stroke: #ff0000; stroke-width: 1.5"/>
    <path d="M 225.857989 71.308247 
L 225.857989 69.016671 
" clip-path="url(#p1ff6d41190)" style="fill: none; stroke: #ff0000; stroke-width: 1.5"/>
    <path d="M 229.052325 87.817852 
L 229.052325 85.506881 
" clip-path="url(#p1ff6d41190)" style="fill: none; stroke: #ff0000; stroke-width: 1.5"/>
    <path d="M 232.24666 104.247573 
L 232.24666 102.044023 
" clip-path="url(#p1ff6d41190)" style="fill: none; stroke: #ff0000; stroke-width: 1.5"/>
    <path d="M 235.440995 119.584147 
L 235.440995 117.596696 
" clip-path="url(#p1ff6d41190)" style="fill: none; stroke: #ff0000; stroke-width: 1.5"/>
    <path d="M 238.635331 133.112678 
L 238.635331 131.40921 
" clip-path="url(#p1ff6d41190)" style="fill: none; stroke: #ff0000; stroke-width: 1.5"/>
    <path d="M 241.829666 144.488058 
L 241.829666 143.090118 
" clip-path="url(#p1ff6d41190)" style="fill: none; stroke: #ff0000; stroke-width: 1.5"/>
    <path d="M 245.024001 153.692564 
L 245.024001 152.583542 
" clip-path="url(#p1ff6d41190)" style="fill: none; stroke: #ff0000; stroke-width: 1.5"/>
    <path d="M 248.218337 160.929476 
L 248.218337 160.068422 
" clip-path="url(#p1ff6d41190)" style="fill: none; stroke: #ff0000; stroke-width: 1.5"/>
    <path d="M 251.412672 166.510218 
L 251.412672 165.844652 
" clip-path="url(#p1ff6d41190)" style="fill: none; stroke: #ff0000; stroke-width: 1.5"/>
    <path d="M 254.607008 170.768676 
L 254.607008 170.24386 
" clip-path="url(#p1ff6d41190)" style="fill: none; stroke: #ff0000; stroke-width: 1.5"/>
    <path d="M 257.801343 174.010224 
L 257.801343 173.575822 
" clip-path="url(#p1ff6d41190)" style="fill: none; stroke: #ff0000; stroke-width: 1.5"/>
    <path d="M 260.995678 176.488943 
L 260.995678 176.104602 
" clip-path="url(#p1ff6d41190)" style="fill: none; stroke: #ff0000; stroke-width: 1.5"/>
    <path d="M 264.190014 178.403878 
L 264.190014 178.042632 
" clip-path="url(#p1ff6d41190)" style="fill: none; stroke: #ff0000; stroke-width: 1.5"/>
    <path d="M 267.384349 179.905847 
L 267.384349 179.553272 
" clip-path="url(#p1ff6d41190)" style="fill: none; stroke: #ff0000; stroke-width: 1.5"/>
    <path d="M 270.578684 181.107267 
L 270.578684 180.757638 
" clip-path="url(#p1ff6d41190)" style="fill: none; stroke: #ff0000; stroke-width: 1.5"/>
    <path d="M 273.77302 182.090936 
L 273.77302 181.743352 
" clip-path="url(#p1ff6d41190)" style="fill: none; stroke: #ff0000; stroke-width: 1.5"/>
    <path d="M 276.967355 182.917158 
L 276.967355 182.572936 
" clip-path="url(#p1ff6d41190)" style="fill: none; stroke: #ff0000; stroke-width: 1.5"/>
    <path d="M 280.161691 183.629466 
L 280.161691 183.290683 
" clip-path="url(#p1ff6d41190)" style="fill: none; stroke: #ff0000; stroke-width: 1.5"/>
    <path d="M 283.356026 184.259112 
L 283.356026 183.927857 
" clip-path="url(#p1ff6d41190)" style="fill: none; stroke: #ff0000; stroke-width: 1.5"/>
    <path d="M 286.550361 184.828494 
L 286.550361 184.506501 
" clip-path="url(#p1ff6d41190)" style="fill: none; stroke: #ff0000; stroke-width: 1.5"/>
    <path d="M 289.744697 185.353683 
L 289.744697 185.04216 
" clip-path="url(#p1ff6d41190)" style="fill: none; stroke: #ff0000; stroke-width: 1.5"/>
    <path d="M 292.939032 185.846262 
L 292.939032 185.545821 
" clip-path="url(#p1ff6d41190)" style="fill: none; stroke: #ff0000; stroke-width: 1.5"/>
    <path d="M 296.133367 186.31463 
L 296.133367 186.025276 
" clip-path="url(#p1ff6d41190)" style="fill: none; stroke: #ff0000; stroke-width: 1.5"/>
    <path d="M 299.327703 186.764919 
L 299.327703 186.48609 
" clip-path="url(#p1ff6d41190)" style="fill: none; stroke: #ff0000; stroke-width: 1.5"/>
    <path d="M 302.522038 187.201635 
L 302.522038 186.932266 
" clip-path="url(#p1ff6d41190)" style="fill: none; stroke: #ff0000; stroke-width: 1.5"/>
    <path d="M 305.716374 187.628092 
L 305.716374 187.366731 
" clip-path="url(#p1ff6d41190)" style="fill: none; stroke: #ff0000; stroke-width: 1.5"/>
    <path d="M 308.910709 188.046719 
L 308.910709 187.791665 
" clip-path="url(#p1ff6d41190)" style="fill: none; stroke: #ff0000; stroke-width: 1.5"/>
    <path d="M 312.105044 188.459271 
L 312.105044 188.208738 
" clip-path="url(#p1ff6d41190)" style="fill: none; stroke: #ff0000; stroke-width: 1.5"/>
    <path d="M 315.29938 188.866981 
L 315.29938 188.619263 
" clip-path="url(#p1ff6d41190)" style="fill: none; stroke: #ff0000; stroke-width: 1.5"/>
    <path d="M 318.493715 189.270683 
L 318.493715 189.0243 
" clip-path="url(#p1ff6d41190)" style="fill: none; stroke: #ff0000; stroke-width: 1.5"/>
    <path d="M 321.68805 189.670907 
L 321.68805 189.424715 
" clip-path="url(#p1ff6d41190)" style="fill: none; stroke: #ff0000; stroke-width: 1.5"/>
    <path d="M 324.882386 190.067957 
L 324.882386 189.821213 
" clip-path="url(#p1ff6d41190)" style="fill: none; stroke: #ff0000; stroke-width: 1.5"/>
    <path d="M 328.076721 190.461981 
L 328.076721 190.214357 
" clip-path="url(#p1ff6d41190)" style="fill: none; stroke: #ff0000; stroke-width: 1.5"/>
    <path d="M 331.271056 190.853015 
L 331.271056 190.604574 
" clip-path="url(#p1ff6d41190)" style="fill: none; stroke: #ff0000; stroke-width: 1.5"/>
    <path d="M 334.465392 191.241026 
L 334.465392 190.992173 
" clip-path="url(#p1ff6d41190)" style="fill: none; stroke: #ff0000; stroke-width: 1.5"/>
    <path d="M 337.659727 191.625938 
L 337.659727 191.377348 
" clip-path="url(#p1ff6d41190)" style="fill: none; stroke: #ff0000; stroke-width: 1.5"/>
    <path d="M 340.854063 192.007649 
L 340.854063 191.760185 
" clip-path="url(#p1ff6d41190)" style="fill: none; stroke: #ff0000; stroke-width: 1.5"/>
    <path d="M 344.048398 192.386047 
L 344.048398 192.140681 
" clip-path="url(#p1ff6d41190)" style="fill: none; stroke: #ff0000; stroke-width: 1.5"/>
    <path d="M 347.242733 192.761021 
L 347.242733 192.518742 
" clip-path="url(#p1ff6d41190)" style="fill: none; stroke: #ff0000; stroke-width: 1.5"/>
    <path d="M 350.437069 193.132465 
L 350.437069 192.894203 
" clip-path="url(#p1ff6d41190)" style="fill: none; stroke: #ff0000; stroke-width: 1.5"/>
    <path d="M 353.631404 193.500285 
L 353.631404 193.266828 
" clip-path="url(#p1ff6d41190)" style="fill: none; stroke: #ff0000; stroke-width: 1.5"/>
    <path d="M 356.825739 193.864401 
L 356.825739 193.636325 
" clip-path="url(#p1ff6d41190)" style="fill: none; stroke: #ff0000; stroke-width: 1.5"/>
    <path d="M 360.020075 194.224748 
L 360.020075 194.002356 
" clip-path="url(#p1ff6d41190)" style="fill: none; stroke: #ff0000; stroke-width: 1.5"/>
    <path d="M 363.21441 194.581271 
L 363.21441 194.364548 
" clip-path="url(#p1ff6d41190)" style="fill: none; stroke: #ff0000; stroke-width: 1.5"/>
    <path d="M 366.408746 194.933925 
L 366.408746 194.722505 
" clip-path="url(#p1ff6d41190)" style="fill: none; stroke: #ff0000; stroke-width: 1.5"/>
    <path d="M 369.603081 195.282662 
L 369.603081 195.075828 
" clip-path="url(#p1ff6d41190)" style="fill: none; stroke: #ff0000; stroke-width: 1.5"/>
    <path d="M 372.797416 195.627419 
L 372.797416 195.424138 
" clip-path="url(#p1ff6d41190)" style="fill: none; stroke: #ff0000; stroke-width: 1.5"/>
    <path d="M 375.991752 195.968105 
L 375.991752 195.767089 
" clip-path="url(#p1ff6d41190)" style="fill: none; stroke: #ff0000; stroke-width: 1.5"/>
    <path d="M 379.186087 196.304586 
L 379.186087 196.104397 
" clip-path="url(#p1ff6d41190)" style="fill: none; stroke: #ff0000; stroke-width: 1.5"/>
    <path d="M 382.380422 196.63668 
L 382.380422 196.435843 
" clip-path="url(#p1ff6d41190)" style="fill: none; stroke: #ff0000; stroke-width: 1.5"/>
    <path d="M 385.574758 196.964155 
L 385.574758 196.761287 
" clip-path="url(#p1ff6d41190)" style="fill: none; stroke: #ff0000; stroke-width: 1.5"/>
    <path d="M 388.769093 197.286743 
L 388.769093 197.080657 
" clip-path="url(#p1ff6d41190)" style="fill: none; stroke: #ff0000; stroke-width: 1.5"/>
    <path d="M 391.963429 197.604155 
L 391.963429 197.393934 
" clip-path="url(#p1ff6d41190)" style="fill: none; stroke: #ff0000; stroke-width: 1.5"/>
    <path d="M 395.157764 197.916099 
L 395.157764 197.701143 
" clip-path="url(#p1ff6d41190)" style="fill: none; stroke: #ff0000; stroke-width: 1.5"/>
    <path d="M 398.352099 198.222297 
L 398.352099 198.002333 
" clip-path="url(#p1ff6d41190)" style="fill: none; stroke: #ff0000; stroke-width: 1.5"/>
    <path d="M 401.546435 198.522503 
L 401.546435 198.297568 
" clip-path="url(#p1ff6d41190)" style="fill: none; stroke: #ff0000; stroke-width: 1.5"/>
    <path d="M 404.74077 198.816507 
L 404.74077 198.586916 
" clip-path="url(#p1ff6d41190)" style="fill: none; stroke: #ff0000; stroke-width: 1.5"/>
    <path d="M 407.935105 199.104145 
L 407.935105 198.870448 
" clip-path="url(#p1ff6d41190)" style="fill: none; stroke: #ff0000; stroke-width: 1.5"/>
    <path d="M 411.129441 199.385297 
L 411.129441 199.148234 
" clip-path="url(#p1ff6d41190)" style="fill: none; stroke: #ff0000; stroke-width: 1.5"/>
    <path d="M 414.323776 199.659889 
L 414.323776 199.420344 
" clip-path="url(#p1ff6d41190)" style="fill: none; stroke: #ff0000; stroke-width: 1.5"/>
    <path d="M 417.518111 199.927891 
L 417.518111 199.686847 
" clip-path="url(#p1ff6d41190)" style="fill: none; stroke: #ff0000; stroke-width: 1.5"/>
    <path d="M 420.712447 200.189315 
L 420.712447 199.947811 
" clip-path="url(#p1ff6d41190)" style="fill: none; stroke: #ff0000; stroke-width: 1.5"/>
    <path d="M 423.906782 200.444211 
L 423.906782 200.20331 
" clip-path="url(#p1ff6d41190)" style="fill: none; stroke: #ff0000; stroke-width: 1.5"/>
    <path d="M 427.101118 200.692665 
L 427.101118 200.453416 
" clip-path="url(#p1ff6d41190)" style="fill: none; stroke: #ff0000; stroke-width: 1.5"/>
    <path d="M 430.295453 200.934793 
L 430.295453 200.698208 
" clip-path="url(#p1ff6d41190)" style="fill: none; stroke: #ff0000; stroke-width: 1.5"/>
    <path d="M 433.489788 201.170739 
L 433.489788 200.937771 
" clip-path="url(#p1ff6d41190)" style="fill: none; stroke: #ff0000; stroke-width: 1.5"/>
    <path d="M 436.684124 201.40067 
L 436.684124 201.172193 
" clip-path="url(#p1ff6d41190)" style="fill: none; stroke: #ff0000; stroke-width: 1.5"/>
    <path d="M 439.878459 201.624775 
L 439.878459 201.401569 
" clip-path="url(#p1ff6d41190)" style="fill: none; stroke: #ff0000; stroke-width: 1.5"/>
    <path d="M 443.072794 201.84326 
L 443.072794 201.626004 
" clip-path="url(#p1ff6d41190)" style="fill: none; stroke: #ff0000; stroke-width: 1.5"/>
    <path d="M 446.26713 202.056342 
L 446.26713 201.845605 
" clip-path="url(#p1ff6d41190)" style="fill: none; stroke: #ff0000; stroke-width: 1.5"/>
    <path d="M 449.461465 202.264255 
L 449.461465 202.060489 
" clip-path="url(#p1ff6d41190)" style="fill: none; stroke: #ff0000; stroke-width: 1.5"/>
    <path d="M 452.655801 202.467241 
L 452.655801 202.270777 
" clip-path="url(#p1ff6d41190)" style="fill: none; stroke: #ff0000; stroke-width: 1.5"/>
    <path d="M 455.850136 202.665552 
L 455.850136 202.476595 
" clip-path="url(#p1ff6d41190)" style="fill: none; stroke: #ff0000; stroke-width: 1.5"/>
    <path d="M 459.044471 202.859454 
L 459.044471 202.678066 
" clip-path="url(#p1ff6d41190)" style="fill: none; stroke: #ff0000; stroke-width: 1.5"/>
    <path d="M 462.238807 203.049226 
L 462.238807 202.875316 
" clip-path="url(#p1ff6d41190)" style="fill: none; stroke: #ff0000; stroke-width: 1.5"/>
    <path d="M 465.433142 203.235167 
L 465.433142 203.068456 
" clip-path="url(#p1ff6d41190)" style="fill: none; stroke: #ff0000; stroke-width: 1.5"/>
   </g>
   <g id="line2d_15">
    <path d="M 85.307233 292.997796 
L 88.501568 293.05792 
L 91.695904 293.120088 
L 94.890239 293.184305 
L 98.084574 293.250567 
L 101.27891 293.318859 
L 104.473245 293.38915 
L 107.667581 293.461387 
L 110.861916 293.53548 
L 114.056251 293.611286 
L 117.250587 293.688572 
L 120.444922 293.766971 
L 123.639257 293.845893 
L 126.833593 293.924393 
L 130.027928 294.000953 
L 133.222264 294.073123 
L 136.416599 294.136947 
L 139.610934 294.186008 
L 142.80527 294.209873 
L 145.999605 294.191536 
L 149.19394 294.103217 
L 152.388276 293.899451 
L 155.582611 293.505794 
L 158.776946 292.800493 
L 161.971282 291.585246 
L 165.165617 289.54 
L 168.359953 286.157104 
L 171.554288 280.656282 
L 174.748623 271.903388 
L 177.942959 258.408065 
L 181.137294 238.560555 
L 184.331629 211.308932 
L 187.525965 177.239885 
L 190.7203 139.355306 
L 193.914636 102.436212 
L 197.108971 70.993021 
L 200.303306 47.48869 
L 203.497642 32.169073 
L 206.691977 24.028813 
L 209.886312 21.796244 
L 213.080648 24.430339 
L 216.274983 31.194484 
L 219.469319 41.513265 
L 222.663654 54.771345 
L 225.857989 70.162459 
L 229.052325 86.662366 
L 232.24666 103.145798 
L 235.440995 118.590421 
L 238.635331 132.260944 
L 241.829666 143.789088 
L 245.024001 153.138053 
L 248.218337 160.498949 
L 251.412672 166.177435 
L 254.607008 170.506268 
L 257.801343 173.793023 
L 260.995678 176.296772 
L 264.190014 178.223255 
L 267.384349 179.72956 
L 270.578684 180.932453 
L 273.77302 181.917144 
L 276.967355 182.745047 
L 280.161691 183.460074 
L 283.356026 184.093485 
L 286.550361 184.667498 
L 289.744697 185.197921 
L 292.939032 185.696041 
L 296.133367 186.169953 
L 299.327703 186.625504 
L 302.522038 187.06695 
L 305.716374 187.497412 
L 308.910709 187.919192 
L 312.105044 188.334004 
L 315.29938 188.743122 
L 318.493715 189.147492 
L 321.68805 189.547811 
L 324.882386 189.944585 
L 328.076721 190.338169 
L 331.271056 190.728795 
L 334.465392 191.1166 
L 337.659727 191.501643 
L 340.854063 191.883917 
L 344.048398 192.263364 
L 347.242733 192.639882 
L 350.437069 193.013334 
L 353.631404 193.383556 
L 356.825739 193.750363 
L 360.020075 194.113552 
L 363.21441 194.472909 
L 366.408746 194.828215 
L 369.603081 195.179245 
L 372.797416 195.525778 
L 375.991752 195.867597 
L 379.186087 196.204491 
L 382.380422 196.536261 
L 385.574758 196.862721 
L 388.769093 197.1837 
L 391.963429 197.499045 
L 395.157764 197.808621 
L 398.352099 198.112315 
L 401.546435 198.410035 
L 404.74077 198.701711 
L 407.935105 198.987296 
L 411.129441 199.266766 
L 414.323776 199.540116 
L 417.518111 199.807369 
L 420.712447 200.068563 
L 423.906782 200.323761 
L 427.101118 200.573041 
L 430.295453 200.816501 
L 433.489788 201.054255 
L 436.684124 201.286431 
L 439.878459 201.513172 
L 443.072794 201.734632 
L 446.26713 201.950974 
L 449.461465 202.162372 
L 452.655801 202.369009 
L 455.850136 202.571073 
L 459.044471 202.76876 
L 462.238807 202.962271 
L 465.433142 203.151812 
" clip-path="url(#p1ff6d41190)" style="fill: none; stroke: #1f77b4; stroke-width: 1.5; stroke-linecap: square"/>
   </g>
   <g id="patch_3">
    <path d="M 66.300938 307.96 
L 66.300938 7.2 
" style="fill: none; stroke: #000000; stroke-width: 0.8; stroke-linejoin: miter; stroke-linecap: square"/>
   </g>
   <g id="patch_4">
    <path d="M 484.439438 307.96 
L 484.439438 7.2 
" style="fill: none; stroke: #000000; stroke-width: 0.8; stroke-linejoin: miter; stroke-linecap: square"/>
   </g>
   <g id="patch_5">
    <path d="M 66.300937 307.96 
L 484.439437 307.96 
" style="fill: none; stroke: #000000; stroke-width: 0.8; stroke-linejoin: miter; stroke-linecap: square"/>
   </g>
   <g id="patch_6">
    <path d="M 66.300937 7.2 
L 484.439437 7.2 
" style="fill: none; stroke: #000000; stroke-width: 0.8; stroke-linejoin: miter; stroke-linecap: square"/>
   </g>
  </g>
  <g id="text_17">
   <!-- M=5 Jackknife bins -->
   <g transform="translate(42.719438 358.92) scale(0.11 -0.11)">
    <defs>
     <path id="DejaVuSans-Oblique-4d" d="M 1081 4666 
L 2028 4666 
L 2572 1522 
L 4378 4666 
L 5350 4666 
L 4441 0 
L 3828 0 
L 4622 4091 
L 2791 897 
L 2175 897 
L 1581 4103 
L 788 0 
L 172 0 
L 1081 4666 
z
" transform="scale(0.015625)"/>
     <path id="DejaVuSans-Oblique-3d" d="M 678 2906 
L 4684 2906 
L 4684 2381 
L 678 2381 
L 678 2906 
z
M 678 1631 
L 4684 1631 
L 4684 1100 
L 678 1100 
L 678 1631 
z
" transform="scale(0.015625)"/>
     <path id="DejaVuSans-Oblique-35" d="M 3719 4666 
L 3622 4141 
L 1691 4141 
L 1466 2988 
Q 1609 3034 1757 3056 
Q 1906 3078 2059 3078 
Q 2706 3078 3081 2731 
Q 3456 2384 3456 1791 
Q 3456 1375 3264 994 
Q 3072 613 2719 325 
Q 2469 125 2108 17 
Q 1747 -91 1319 -91 
Q 1038 -91 744 -41 
Q 450 9 128 109 
L 244 697 
Q 531 556 820 486 
Q 1109 416 1403 416 
Q 2013 416 2411 781 
Q 2809 1147 2809 1697 
Q 2809 2103 2548 2328 
Q 2288 2553 1819 2553 
Q 1572 2553 1305 2495 
Q 1038 2438 756 2322 
L 1209 4666 
L 3719 4666 
z
" transform="scale(0.015625)"/>
     <path id="DejaVuSans-Oblique-20" transform="scale(0.015625)"/>
     <path id="DejaVuSans-Oblique-4a" d="M 1069 4666 
L 1703 4666 
L 856 325 
Q 691 -522 298 -901 
Q -94 -1281 -800 -1281 
L -1050 -1281 
L -947 -750 
L -750 -750 
Q -328 -750 -109 -509 
Q 109 -269 225 325 
L 1069 4666 
z
" transform="scale(0.015625)"/>
     <path id="DejaVuSans-Oblique-61" d="M 3438 1997 
L 3047 0 
L 2472 0 
L 2578 531 
Q 2325 219 2001 64 
Q 1678 -91 1281 -91 
Q 834 -91 548 182 
Q 263 456 263 884 
Q 263 1497 752 1853 
Q 1241 2209 2100 2209 
L 2900 2209 
L 2931 2363 
Q 2938 2388 2941 2417 
Q 2944 2447 2944 2509 
Q 2944 2788 2717 2942 
Q 2491 3097 2081 3097 
Q 1800 3097 1504 3025 
Q 1209 2953 897 2809 
L 997 3341 
Q 1322 3463 1633 3523 
Q 1944 3584 2234 3584 
Q 2853 3584 3176 3315 
Q 3500 3047 3500 2534 
Q 3500 2431 3484 2292 
Q 3469 2153 3438 1997 
z
M 2816 1759 
L 2241 1759 
Q 1534 1759 1195 1570 
Q 856 1381 856 984 
Q 856 709 1029 553 
Q 1203 397 1509 397 
Q 1978 397 2328 733 
Q 2678 1069 2791 1631 
L 2816 1759 
z
" transform="scale(0.015625)"/>
     <path id="DejaVuSans-Oblique-63" d="M 3431 3366 
L 3316 2797 
Q 3109 2947 2876 3022 
Q 2644 3097 2394 3097 
Q 2119 3097 1870 3000 
Q 1622 2903 1453 2725 
Q 1184 2453 1037 2087 
Q 891 1722 891 1331 
Q 891 859 1127 628 
Q 1363 397 1844 397 
Q 2081 397 2348 469 
Q 2616 541 2906 684 
L 2797 116 
Q 2547 13 2283 -39 
Q 2019 -91 1741 -91 
Q 1044 -91 669 257 
Q 294 606 294 1253 
Q 294 1797 489 2255 
Q 684 2713 1069 3078 
Q 1331 3328 1684 3456 
Q 2038 3584 2456 3584 
Q 2700 3584 2940 3529 
Q 3181 3475 3431 3366 
z
" transform="scale(0.015625)"/>
     <path id="DejaVuSans-Oblique-6b" d="M 1172 4863 
L 1747 4863 
L 1197 2028 
L 3169 3500 
L 3916 3500 
L 1716 1825 
L 3322 0 
L 2625 0 
L 1131 1709 
L 800 0 
L 225 0 
L 1172 4863 
z
" transform="scale(0.015625)"/>
     <path id="DejaVuSans-Oblique-69" d="M 1172 4863 
L 1747 4863 
L 1606 4134 
L 1031 4134 
L 1172 4863 
z
M 909 3500 
L 1484 3500 
L 800 0 
L 225 0 
L 909 3500 
z
" transform="scale(0.015625)"/>
     <path id="DejaVuSans-Oblique-66" d="M 3059 4863 
L 2969 4384 
L 2419 4384 
Q 2106 4384 1964 4261 
Q 1822 4138 1753 3809 
L 1691 3500 
L 2638 3500 
L 2553 3053 
L 1606 3053 
L 1013 0 
L 434 0 
L 1031 3053 
L 481 3053 
L 563 3500 
L 1113 3500 
L 1159 3744 
Q 1278 4363 1576 4613 
Q 1875 4863 2516 4863 
L 3059 4863 
z
" transform="scale(0.015625)"/>
     <path id="DejaVuSans-Oblique-65" d="M 3078 2063 
Q 3088 2113 3092 2166 
Q 3097 2219 3097 2272 
Q 3097 2653 2873 2875 
Q 2650 3097 2266 3097 
Q 1838 3097 1509 2826 
Q 1181 2556 1013 2059 
L 3078 2063 
z
M 3578 1613 
L 903 1613 
Q 884 1494 878 1425 
Q 872 1356 872 1306 
Q 872 872 1139 634 
Q 1406 397 1894 397 
Q 2269 397 2603 481 
Q 2938 566 3225 728 
L 3116 159 
Q 2806 34 2476 -28 
Q 2147 -91 1806 -91 
Q 1078 -91 686 257 
Q 294 606 294 1247 
Q 294 1794 489 2264 
Q 684 2734 1063 3103 
Q 1306 3334 1642 3459 
Q 1978 3584 2356 3584 
Q 2950 3584 3301 3228 
Q 3653 2872 3653 2272 
Q 3653 2128 3634 1964 
Q 3616 1800 3578 1613 
z
" transform="scale(0.015625)"/>
     <path id="DejaVuSans-Oblique-62" d="M 3169 2138 
Q 3169 2591 2961 2847 
Q 2753 3103 2388 3103 
Q 2122 3103 1889 2973 
Q 1656 2844 1484 2597 
Q 1303 2338 1198 1995 
Q 1094 1653 1094 1313 
Q 1094 881 1298 636 
Q 1503 391 1863 391 
Q 2134 391 2365 517 
Q 2597 644 2772 891 
Q 2950 1147 3059 1487 
Q 3169 1828 3169 2138 
z
M 1381 2969 
Q 1594 3256 1914 3420 
Q 2234 3584 2584 3584 
Q 3122 3584 3439 3221 
Q 3756 2859 3756 2241 
Q 3756 1734 3570 1259 
Q 3384 784 3041 416 
Q 2816 172 2522 40 
Q 2228 -91 1906 -91 
Q 1566 -91 1316 65 
Q 1066 222 909 531 
L 806 0 
L 231 0 
L 1178 4863 
L 1753 4863 
L 1381 2969 
z
" transform="scale(0.015625)"/>
     <path id="DejaVuSans-Oblique-73" d="M 3200 3397 
L 3091 2853 
Q 2863 2978 2609 3040 
Q 2356 3103 2088 3103 
Q 1634 3103 1373 2948 
Q 1113 2794 1113 2528 
Q 1113 2219 1719 2053 
Q 1766 2041 1788 2034 
L 1972 1978 
Q 2547 1819 2739 1644 
Q 2931 1469 2931 1166 
Q 2931 609 2489 259 
Q 2047 -91 1331 -91 
Q 1053 -91 747 -37 
Q 441 16 72 128 
L 184 722 
Q 500 559 806 475 
Q 1113 391 1394 391 
Q 1816 391 2080 572 
Q 2344 753 2344 1031 
Q 2344 1331 1650 1516 
L 1591 1531 
L 1394 1581 
Q 956 1697 753 1886 
Q 550 2075 550 2369 
Q 550 2928 970 3256 
Q 1391 3584 2113 3584 
Q 2397 3584 2667 3537 
Q 2938 3491 3200 3397 
z
" transform="scale(0.015625)"/>
    </defs>
    <use xlink:href="#DejaVuSans-Oblique-4d"/>
    <use xlink:href="#DejaVuSans-Oblique-3d" x="86.279297"/>
    <use xlink:href="#DejaVuSans-Oblique-35" x="170.068359"/>
    <use xlink:href="#DejaVuSans-Oblique-20" x="233.691406"/>
    <use xlink:href="#DejaVuSans-Oblique-4a" x="265.478516"/>
    <use xlink:href="#DejaVuSans-Oblique-61" x="294.970703"/>
    <use xlink:href="#DejaVuSans-Oblique-63" x="356.25"/>
    <use xlink:href="#DejaVuSans-Oblique-6b" x="411.230469"/>
    <use xlink:href="#DejaVuSans-Oblique-6b" x="469.140625"/>
    <use xlink:href="#DejaVuSans-Oblique-6e" x="527.050781"/>
    <use xlink:href="#DejaVuSans-Oblique-69" x="590.429688"/>
    <use xlink:href="#DejaVuSans-Oblique-66" x="618.212891"/>
    <use xlink:href="#DejaVuSans-Oblique-65" x="653.417969"/>
    <use xlink:href="#DejaVuSans-Oblique-20" x="714.941406"/>
    <use xlink:href="#DejaVuSans-Oblique-62" x="746.728516"/>
    <use xlink:href="#DejaVuSans-Oblique-69" x="810.205078"/>
    <use xlink:href="#DejaVuSans-Oblique-6e" x="837.988281"/>
    <use xlink:href="#DejaVuSans-Oblique-73" x="901.367188"/>
   </g>
  </g>
 </g>
 <defs>
  <clipPath id="p1ff6d41190">
   <rect x="66.300938" y="7.2" width="418.1385" height="300.76"/>
  </clipPath>
 </defs>
</svg>
