<?xml version="1.0" encoding="utf-8" standalone="no"?>
<!DOCTYPE svg PUBLIC "-//W3C//DTD SVG 1.1//EN"
  "http://www.w3.org/Graphics/SVG/1.1/DTD/svg11.dtd">
<svg xmlns:xlink="http://www.w3.org/1999/xlink" width="465.530937pt" height="337.11pt" viewBox="0 0 465.530937 337.11" xmlns="http://www.w3.org/2000/svg" version="1.1">
 <metadata>
  <rdf:RDF xmlns:dc="http://purl.org/dc/elements/1.1/" xmlns:cc="http://creativecommons.org/ns#" xmlns:rdf="http://www.w3.org/1999/02/22-rdf-syntax-ns#">
   <cc:Work>
    <dc:type rdf:resource="http://purl.org/dc/dcmitype/StillImage"/>
    <dc:date>2024-05-08T12:32:12.190491</dc:date>
    <dc:format>image/svg+xml</dc:format>
    <dc:creator>
     <cc:Agent>
      <dc:title>Matplotlib v3.8.0, https://matplotlib.org/</dc:title>
     </cc:Agent>
    </dc:creator>
   </cc:Work>
  </rdf:RDF>
 </metadata>
 <defs>
  <style type="text/css">*{stroke-linejoin: round; stroke-linecap: butt}</style>
 </defs>
 <g id="figure_1">
  <g id="patch_1">
   <path d="M 0 337.11 
L 465.530937 337.11 
L 465.530937 0 
L 0 0 
z
" style="fill: #ffffff"/>
  </g>
  <g id="axes_1">
   <g id="patch_2">
    <path d="M 67.730938 284.4 
L 458.330938 284.4 
L 458.330938 7.2 
L 67.730938 7.2 
z
" style="fill: #ffffff"/>
   </g>
   <g id="matplotlib.axis_1">
    <g id="xtick_1">
     <g id="line2d_1">
      <defs>
       <path id="mfe622914b1" d="M 0 0 
L 0 3.5 
" style="stroke: #000000; stroke-width: 0.8"/>
      </defs>
      <g>
       <use xlink:href="#mfe622914b1" x="120.994574" y="284.4" style="stroke: #000000; stroke-width: 0.8"/>
      </g>
     </g>
     <g id="text_1">
      <!-- 10.76 -->
      <g transform="translate(105.249105 299.758281) scale(0.11 -0.11)">
       <defs>
        <path id="DejaVuSans-31" d="M 794 531 
L 1825 531 
L 1825 4091 
L 703 3866 
L 703 4441 
L 1819 4666 
L 2450 4666 
L 2450 531 
L 3481 531 
L 3481 0 
L 794 0 
L 794 531 
z
" transform="scale(0.015625)"/>
        <path id="DejaVuSans-30" d="M 2034 4250 
Q 1547 4250 1301 3770 
Q 1056 3291 1056 2328 
Q 1056 1369 1301 889 
Q 1547 409 2034 409 
Q 2525 409 2770 889 
Q 3016 1369 3016 2328 
Q 3016 3291 2770 3770 
Q 2525 4250 2034 4250 
z
M 2034 4750 
Q 2819 4750 3233 4129 
Q 3647 3509 3647 2328 
Q 3647 1150 3233 529 
Q 2819 -91 2034 -91 
Q 1250 -91 836 529 
Q 422 1150 422 2328 
Q 422 3509 836 4129 
Q 1250 4750 2034 4750 
z
" transform="scale(0.015625)"/>
        <path id="DejaVuSans-2e" d="M 684 794 
L 1344 794 
L 1344 0 
L 684 0 
L 684 794 
z
" transform="scale(0.015625)"/>
        <path id="DejaVuSans-37" d="M 525 4666 
L 3525 4666 
L 3525 4397 
L 1831 0 
L 1172 0 
L 2766 4134 
L 525 4134 
L 525 4666 
z
" transform="scale(0.015625)"/>
        <path id="DejaVuSans-36" d="M 2113 2584 
Q 1688 2584 1439 2293 
Q 1191 2003 1191 1497 
Q 1191 994 1439 701 
Q 1688 409 2113 409 
Q 2538 409 2786 701 
Q 3034 994 3034 1497 
Q 3034 2003 2786 2293 
Q 2538 2584 2113 2584 
z
M 3366 4563 
L 3366 3988 
Q 3128 4100 2886 4159 
Q 2644 4219 2406 4219 
Q 1781 4219 1451 3797 
Q 1122 3375 1075 2522 
Q 1259 2794 1537 2939 
Q 1816 3084 2150 3084 
Q 2853 3084 3261 2657 
Q 3669 2231 3669 1497 
Q 3669 778 3244 343 
Q 2819 -91 2113 -91 
Q 1303 -91 875 529 
Q 447 1150 447 2328 
Q 447 3434 972 4092 
Q 1497 4750 2381 4750 
Q 2619 4750 2861 4703 
Q 3103 4656 3366 4563 
z
" transform="scale(0.015625)"/>
       </defs>
       <use xlink:href="#DejaVuSans-31"/>
       <use xlink:href="#DejaVuSans-30" x="63.623047"/>
       <use xlink:href="#DejaVuSans-2e" x="127.246094"/>
       <use xlink:href="#DejaVuSans-37" x="159.033203"/>
       <use xlink:href="#DejaVuSans-36" x="222.65625"/>
      </g>
     </g>
    </g>
    <g id="xtick_2">
     <g id="line2d_2">
      <g>
       <use xlink:href="#mfe622914b1" x="192.012756" y="284.4" style="stroke: #000000; stroke-width: 0.8"/>
      </g>
     </g>
     <g id="text_2">
      <!-- 10.78 -->
      <g transform="translate(176.267287 299.758281) scale(0.11 -0.11)">
       <defs>
        <path id="DejaVuSans-38" d="M 2034 2216 
Q 1584 2216 1326 1975 
Q 1069 1734 1069 1313 
Q 1069 891 1326 650 
Q 1584 409 2034 409 
Q 2484 409 2743 651 
Q 3003 894 3003 1313 
Q 3003 1734 2745 1975 
Q 2488 2216 2034 2216 
z
M 1403 2484 
Q 997 2584 770 2862 
Q 544 3141 544 3541 
Q 544 4100 942 4425 
Q 1341 4750 2034 4750 
Q 2731 4750 3128 4425 
Q 3525 4100 3525 3541 
Q 3525 3141 3298 2862 
Q 3072 2584 2669 2484 
Q 3125 2378 3379 2068 
Q 3634 1759 3634 1313 
Q 3634 634 3220 271 
Q 2806 -91 2034 -91 
Q 1263 -91 848 271 
Q 434 634 434 1313 
Q 434 1759 690 2068 
Q 947 2378 1403 2484 
z
M 1172 3481 
Q 1172 3119 1398 2916 
Q 1625 2713 2034 2713 
Q 2441 2713 2670 2916 
Q 2900 3119 2900 3481 
Q 2900 3844 2670 4047 
Q 2441 4250 2034 4250 
Q 1625 4250 1398 4047 
Q 1172 3844 1172 3481 
z
" transform="scale(0.015625)"/>
       </defs>
       <use xlink:href="#DejaVuSans-31"/>
       <use xlink:href="#DejaVuSans-30" x="63.623047"/>
       <use xlink:href="#DejaVuSans-2e" x="127.246094"/>
       <use xlink:href="#DejaVuSans-37" x="159.033203"/>
       <use xlink:href="#DejaVuSans-38" x="222.65625"/>
      </g>
     </g>
    </g>
    <g id="xtick_3">
     <g id="line2d_3">
      <g>
       <use xlink:href="#mfe622914b1" x="263.030937" y="284.4" style="stroke: #000000; stroke-width: 0.8"/>
      </g>
     </g>
     <g id="text_3">
      <!-- 10.80 -->
      <g transform="translate(247.285469 299.758281) scale(0.11 -0.11)">
       <use xlink:href="#DejaVuSans-31"/>
       <use xlink:href="#DejaVuSans-30" x="63.623047"/>
       <use xlink:href="#DejaVuSans-2e" x="127.246094"/>
       <use xlink:href="#DejaVuSans-38" x="159.033203"/>
       <use xlink:href="#DejaVuSans-30" x="222.65625"/>
      </g>
     </g>
    </g>
    <g id="xtick_4">
     <g id="line2d_4">
      <g>
       <use xlink:href="#mfe622914b1" x="334.049119" y="284.4" style="stroke: #000000; stroke-width: 0.8"/>
      </g>
     </g>
     <g id="text_4">
      <!-- 10.82 -->
      <g transform="translate(318.303651 299.758281) scale(0.11 -0.11)">
       <defs>
        <path id="DejaVuSans-32" d="M 1228 531 
L 3431 531 
L 3431 0 
L 469 0 
L 469 531 
Q 828 903 1448 1529 
Q 2069 2156 2228 2338 
Q 2531 2678 2651 2914 
Q 2772 3150 2772 3378 
Q 2772 3750 2511 3984 
Q 2250 4219 1831 4219 
Q 1534 4219 1204 4116 
Q 875 4013 500 3803 
L 500 4441 
Q 881 4594 1212 4672 
Q 1544 4750 1819 4750 
Q 2544 4750 2975 4387 
Q 3406 4025 3406 3419 
Q 3406 3131 3298 2873 
Q 3191 2616 2906 2266 
Q 2828 2175 2409 1742 
Q 1991 1309 1228 531 
z
" transform="scale(0.015625)"/>
       </defs>
       <use xlink:href="#DejaVuSans-31"/>
       <use xlink:href="#DejaVuSans-30" x="63.623047"/>
       <use xlink:href="#DejaVuSans-2e" x="127.246094"/>
       <use xlink:href="#DejaVuSans-38" x="159.033203"/>
       <use xlink:href="#DejaVuSans-32" x="222.65625"/>
      </g>
     </g>
    </g>
    <g id="xtick_5">
     <g id="line2d_5">
      <g>
       <use xlink:href="#mfe622914b1" x="405.067301" y="284.4" style="stroke: #000000; stroke-width: 0.8"/>
      </g>
     </g>
     <g id="text_5">
      <!-- 10.84 -->
      <g transform="translate(389.321832 299.758281) scale(0.11 -0.11)">
       <defs>
        <path id="DejaVuSans-34" d="M 2419 4116 
L 825 1625 
L 2419 1625 
L 2419 4116 
z
M 2253 4666 
L 3047 4666 
L 3047 1625 
L 3713 1625 
L 3713 1100 
L 3047 1100 
L 3047 0 
L 2419 0 
L 2419 1100 
L 313 1100 
L 313 1709 
L 2253 4666 
z
" transform="scale(0.015625)"/>
       </defs>
       <use xlink:href="#DejaVuSans-31"/>
       <use xlink:href="#DejaVuSans-30" x="63.623047"/>
       <use xlink:href="#DejaVuSans-2e" x="127.246094"/>
       <use xlink:href="#DejaVuSans-38" x="159.033203"/>
       <use xlink:href="#DejaVuSans-34" x="222.65625"/>
      </g>
     </g>
    </g>
    <g id="text_6">
     <!-- $\beta$ -->
     <g transform="translate(259.510938 314.515937) scale(0.11 -0.11)">
      <defs>
       <path id="DejaVuSans-Oblique-3b2" d="M 872 216 
L 572 -1331 
L -6 -1331 
L 928 3478 
Q 1206 4903 2538 4903 
Q 3888 4903 3659 3700 
Q 3503 2844 2894 2531 
Q 3713 2250 3553 1416 
Q 3272 -69 1759 -66 
Q 1097 -63 872 216 
z
M 1019 966 
Q 1259 422 1875 425 
Q 2775 425 2966 1406 
Q 3138 2288 1675 2219 
L 1778 2750 
Q 2909 2731 3106 3750 
Q 3241 4438 2509 4434 
Q 1691 4434 1503 3459 
L 1019 966 
z
" transform="scale(0.015625)"/>
      </defs>
      <use xlink:href="#DejaVuSans-Oblique-3b2" transform="translate(0 0.390625)"/>
     </g>
    </g>
   </g>
   <g id="matplotlib.axis_2">
    <g id="ytick_1">
     <g id="line2d_6">
      <defs>
       <path id="m741db1e587" d="M 0 0 
L -3.5 0 
" style="stroke: #000000; stroke-width: 0.8"/>
      </defs>
      <g>
       <use xlink:href="#m741db1e587" x="67.730938" y="271.187952" style="stroke: #000000; stroke-width: 0.8"/>
      </g>
     </g>
     <g id="text_7">
      <!-- 0.000 -->
      <g transform="translate(29.24 275.367093) scale(0.11 -0.11)">
       <use xlink:href="#DejaVuSans-30"/>
       <use xlink:href="#DejaVuSans-2e" x="63.623047"/>
       <use xlink:href="#DejaVuSans-30" x="95.410156"/>
       <use xlink:href="#DejaVuSans-30" x="159.033203"/>
       <use xlink:href="#DejaVuSans-30" x="222.65625"/>
      </g>
     </g>
    </g>
    <g id="ytick_2">
     <g id="line2d_7">
      <g>
       <use xlink:href="#m741db1e587" x="67.730938" y="228.308482" style="stroke: #000000; stroke-width: 0.8"/>
      </g>
     </g>
     <g id="text_8">
      <!-- 0.005 -->
      <g transform="translate(29.24 232.487623) scale(0.11 -0.11)">
       <defs>
        <path id="DejaVuSans-35" d="M 691 4666 
L 3169 4666 
L 3169 4134 
L 1269 4134 
L 1269 2991 
Q 1406 3038 1543 3061 
Q 1681 3084 1819 3084 
Q 2600 3084 3056 2656 
Q 3513 2228 3513 1497 
Q 3513 744 3044 326 
Q 2575 -91 1722 -91 
Q 1428 -91 1123 -41 
Q 819 9 494 109 
L 494 744 
Q 775 591 1075 516 
Q 1375 441 1709 441 
Q 2250 441 2565 725 
Q 2881 1009 2881 1497 
Q 2881 1984 2565 2268 
Q 2250 2553 1709 2553 
Q 1456 2553 1204 2497 
Q 953 2441 691 2322 
L 691 4666 
z
" transform="scale(0.015625)"/>
       </defs>
       <use xlink:href="#DejaVuSans-30"/>
       <use xlink:href="#DejaVuSans-2e" x="63.623047"/>
       <use xlink:href="#DejaVuSans-30" x="95.410156"/>
       <use xlink:href="#DejaVuSans-30" x="159.033203"/>
       <use xlink:href="#DejaVuSans-35" x="222.65625"/>
      </g>
     </g>
    </g>
    <g id="ytick_3">
     <g id="line2d_8">
      <g>
       <use xlink:href="#m741db1e587" x="67.730938" y="185.429013" style="stroke: #000000; stroke-width: 0.8"/>
      </g>
     </g>
     <g id="text_9">
      <!-- 0.010 -->
      <g transform="translate(29.24 189.608153) scale(0.11 -0.11)">
       <use xlink:href="#DejaVuSans-30"/>
       <use xlink:href="#DejaVuSans-2e" x="63.623047"/>
       <use xlink:href="#DejaVuSans-30" x="95.410156"/>
       <use xlink:href="#DejaVuSans-31" x="159.033203"/>
       <use xlink:href="#DejaVuSans-30" x="222.65625"/>
      </g>
     </g>
    </g>
    <g id="ytick_4">
     <g id="line2d_9">
      <g>
       <use xlink:href="#m741db1e587" x="67.730938" y="142.549543" style="stroke: #000000; stroke-width: 0.8"/>
      </g>
     </g>
     <g id="text_10">
      <!-- 0.015 -->
      <g transform="translate(29.24 146.728683) scale(0.11 -0.11)">
       <use xlink:href="#DejaVuSans-30"/>
       <use xlink:href="#DejaVuSans-2e" x="63.623047"/>
       <use xlink:href="#DejaVuSans-30" x="95.410156"/>
       <use xlink:href="#DejaVuSans-31" x="159.033203"/>
       <use xlink:href="#DejaVuSans-35" x="222.65625"/>
      </g>
     </g>
    </g>
    <g id="ytick_5">
     <g id="line2d_10">
      <g>
       <use xlink:href="#m741db1e587" x="67.730938" y="99.670073" style="stroke: #000000; stroke-width: 0.8"/>
      </g>
     </g>
     <g id="text_11">
      <!-- 0.020 -->
      <g transform="translate(29.24 103.849214) scale(0.11 -0.11)">
       <use xlink:href="#DejaVuSans-30"/>
       <use xlink:href="#DejaVuSans-2e" x="63.623047"/>
       <use xlink:href="#DejaVuSans-30" x="95.410156"/>
       <use xlink:href="#DejaVuSans-32" x="159.033203"/>
       <use xlink:href="#DejaVuSans-30" x="222.65625"/>
      </g>
     </g>
    </g>
    <g id="ytick_6">
     <g id="line2d_11">
      <g>
       <use xlink:href="#m741db1e587" x="67.730938" y="56.790603" style="stroke: #000000; stroke-width: 0.8"/>
      </g>
     </g>
     <g id="text_12">
      <!-- 0.025 -->
      <g transform="translate(29.24 60.969744) scale(0.11 -0.11)">
       <use xlink:href="#DejaVuSans-30"/>
       <use xlink:href="#DejaVuSans-2e" x="63.623047"/>
       <use xlink:href="#DejaVuSans-30" x="95.410156"/>
       <use xlink:href="#DejaVuSans-32" x="159.033203"/>
       <use xlink:href="#DejaVuSans-35" x="222.65625"/>
      </g>
     </g>
    </g>
    <g id="ytick_7">
     <g id="line2d_12">
      <g>
       <use xlink:href="#m741db1e587" x="67.730938" y="13.911133" style="stroke: #000000; stroke-width: 0.8"/>
      </g>
     </g>
     <g id="text_13">
      <!-- 0.030 -->
      <g transform="translate(29.24 18.090274) scale(0.11 -0.11)">
       <defs>
        <path id="DejaVuSans-33" d="M 2597 2516 
Q 3050 2419 3304 2112 
Q 3559 1806 3559 1356 
Q 3559 666 3084 287 
Q 2609 -91 1734 -91 
Q 1441 -91 1130 -33 
Q 819 25 488 141 
L 488 750 
Q 750 597 1062 519 
Q 1375 441 1716 441 
Q 2309 441 2620 675 
Q 2931 909 2931 1356 
Q 2931 1769 2642 2001 
Q 2353 2234 1838 2234 
L 1294 2234 
L 1294 2753 
L 1863 2753 
Q 2328 2753 2575 2939 
Q 2822 3125 2822 3475 
Q 2822 3834 2567 4026 
Q 2313 4219 1838 4219 
Q 1578 4219 1281 4162 
Q 984 4106 628 3988 
L 628 4550 
Q 988 4650 1302 4700 
Q 1616 4750 1894 4750 
Q 2613 4750 3031 4423 
Q 3450 4097 3450 3541 
Q 3450 3153 3228 2886 
Q 3006 2619 2597 2516 
z
" transform="scale(0.015625)"/>
       </defs>
       <use xlink:href="#DejaVuSans-30"/>
       <use xlink:href="#DejaVuSans-2e" x="63.623047"/>
       <use xlink:href="#DejaVuSans-30" x="95.410156"/>
       <use xlink:href="#DejaVuSans-33" x="159.033203"/>
       <use xlink:href="#DejaVuSans-30" x="222.65625"/>
      </g>
     </g>
    </g>
    <g id="text_14">
     <!-- $\frac{1}{A}\int d\beta \frac{1}{\beta}\langle S_{t} - S_{nt} \rangle $ -->
     <g transform="translate(19.08 187.105) rotate(-90) scale(0.11 -0.11)">
      <defs>
       <path id="DejaVuSans-Oblique-41" d="M 2356 4666 
L 3072 4666 
L 3938 0 
L 3278 0 
L 3084 1197 
L 984 1197 
L 325 0 
L -341 0 
L 2356 4666 
z
M 2584 4044 
L 1275 1722 
L 2988 1722 
L 2584 4044 
z
" transform="scale(0.015625)"/>
       <path id="DejaVuSansDisplay-222b" d="M 2134 5525 
Q 2172 6263 2528 6556 
Q 2884 6850 3218 6850 
Q 3553 6850 3833 6575 
Q 4113 6300 4200 5678 
L 3544 5613 
Q 3469 6188 3219 6188 
Q 2906 6188 2869 5413 
L 2581 -597 
Q 2547 -1334 2187 -1628 
Q 1828 -1922 1497 -1922 
Q 1163 -1922 883 -1647 
Q 603 -1372 516 -750 
L 1172 -684 
Q 1247 -1259 1497 -1259 
Q 1809 -1259 1847 -488 
L 2134 5525 
z
" transform="scale(0.015625)"/>
       <path id="DejaVuSans-Oblique-64" d="M 2675 525 
Q 2444 222 2128 65 
Q 1813 -91 1428 -91 
Q 903 -91 598 267 
Q 294 625 294 1247 
Q 294 1766 478 2236 
Q 663 2706 1013 3078 
Q 1244 3325 1534 3454 
Q 1825 3584 2144 3584 
Q 2481 3584 2739 3421 
Q 2997 3259 3138 2956 
L 3513 4863 
L 4091 4863 
L 3144 0 
L 2566 0 
L 2675 525 
z
M 891 1350 
Q 891 897 1095 644 
Q 1300 391 1663 391 
Q 1931 391 2161 520 
Q 2391 650 2566 903 
Q 2750 1166 2856 1509 
Q 2963 1853 2963 2188 
Q 2963 2622 2758 2865 
Q 2553 3109 2194 3109 
Q 1922 3109 1687 2981 
Q 1453 2853 1288 2613 
Q 1106 2353 998 2009 
Q 891 1666 891 1350 
z
" transform="scale(0.015625)"/>
       <path id="DejaVuSans-27e8" d="M 572 2006 
L 1453 4856 
L 1984 4856 
L 1103 2006 
L 1984 -844 
L 1453 -844 
L 572 2006 
z
" transform="scale(0.015625)"/>
       <path id="DejaVuSans-Oblique-53" d="M 3859 4513 
L 3738 3897 
Q 3422 4066 3111 4152 
Q 2800 4238 2509 4238 
Q 1944 4238 1609 3991 
Q 1275 3744 1275 3334 
Q 1275 3109 1398 2989 
Q 1522 2869 2034 2731 
L 2413 2638 
Q 3053 2472 3303 2217 
Q 3553 1963 3553 1503 
Q 3553 797 2998 353 
Q 2444 -91 1538 -91 
Q 1166 -91 791 -17 
Q 416 56 38 206 
L 166 856 
Q 513 641 861 531 
Q 1209 422 1556 422 
Q 2147 422 2503 684 
Q 2859 947 2859 1369 
Q 2859 1650 2717 1795 
Q 2575 1941 2106 2059 
L 1728 2156 
Q 1081 2325 845 2545 
Q 609 2766 609 3163 
Q 609 3859 1145 4304 
Q 1681 4750 2541 4750 
Q 2875 4750 3203 4690 
Q 3531 4631 3859 4513 
z
" transform="scale(0.015625)"/>
       <path id="DejaVuSans-Oblique-74" d="M 2706 3500 
L 2619 3053 
L 1472 3053 
L 1100 1153 
Q 1081 1047 1072 975 
Q 1063 903 1063 863 
Q 1063 663 1183 572 
Q 1303 481 1569 481 
L 2150 481 
L 2053 0 
L 1503 0 
Q 991 0 739 200 
Q 488 400 488 806 
Q 488 878 497 964 
Q 506 1050 525 1153 
L 897 3053 
L 409 3053 
L 500 3500 
L 978 3500 
L 1172 4494 
L 1747 4494 
L 1556 3500 
L 2706 3500 
z
" transform="scale(0.015625)"/>
       <path id="DejaVuSans-2212" d="M 678 2272 
L 4684 2272 
L 4684 1741 
L 678 1741 
L 678 2272 
z
" transform="scale(0.015625)"/>
       <path id="DejaVuSans-Oblique-6e" d="M 3566 2113 
L 3156 0 
L 2578 0 
L 2988 2091 
Q 3016 2238 3031 2350 
Q 3047 2463 3047 2528 
Q 3047 2791 2881 2937 
Q 2716 3084 2419 3084 
Q 1956 3084 1622 2776 
Q 1288 2469 1184 1941 
L 800 0 
L 225 0 
L 903 3500 
L 1478 3500 
L 1363 2950 
Q 1603 3253 1940 3418 
Q 2278 3584 2650 3584 
Q 3113 3584 3367 3334 
Q 3622 3084 3622 2631 
Q 3622 2519 3608 2391 
Q 3594 2263 3566 2113 
z
" transform="scale(0.015625)"/>
       <path id="DejaVuSans-27e9" d="M 1925 2006 
L 1044 -844 
L 513 -844 
L 1394 2006 
L 513 4856 
L 1044 4856 
L 1925 2006 
z
" transform="scale(0.015625)"/>
      </defs>
      <use xlink:href="#DejaVuSans-31" transform="translate(2 44.765625) scale(0.7)"/>
      <use xlink:href="#DejaVuSans-Oblique-41" transform="translate(0 -37.51875) scale(0.7)"/>
      <use xlink:href="#DejaVuSansDisplay-222b" transform="translate(60.385742 0.96875)"/>
      <use xlink:href="#DejaVuSans-Oblique-64" transform="translate(134.018555 0.96875)"/>
      <use xlink:href="#DejaVuSans-Oblique-3b2" transform="translate(197.495117 0.96875)"/>
      <use xlink:href="#DejaVuSans-31" transform="translate(261.313477 44.765625) scale(0.7)"/>
      <use xlink:href="#DejaVuSans-Oblique-3b2" transform="translate(261.313477 -40.110938) scale(0.7)"/>
      <use xlink:href="#DejaVuSans-27e8" transform="translate(318.486328 0.96875)"/>
      <use xlink:href="#DejaVuSans-Oblique-53" transform="translate(357.5 0.96875)"/>
      <use xlink:href="#DejaVuSans-Oblique-74" transform="translate(420.976562 -15.4375) scale(0.7)"/>
      <use xlink:href="#DejaVuSans-2212" transform="translate(470.639648 0.96875)"/>
      <use xlink:href="#DejaVuSans-Oblique-53" transform="translate(573.911133 0.96875)"/>
      <use xlink:href="#DejaVuSans-Oblique-6e" transform="translate(637.387695 -15.4375) scale(0.7)"/>
      <use xlink:href="#DejaVuSans-Oblique-74" transform="translate(681.75293 -15.4375) scale(0.7)"/>
      <use xlink:href="#DejaVuSans-27e9" transform="translate(711.933594 0.96875)"/>
      <path d="M 0 19.765625 
L 0 26.015625 
L 47.885742 26.015625 
L 47.885742 19.765625 
L 0 19.765625 
z
"/>
      <path d="M 261.313477 19.765625 
L 261.313477 26.015625 
L 305.986328 26.015625 
L 305.986328 19.765625 
L 261.313477 19.765625 
z
"/>
     </g>
    </g>
   </g>
   <g id="LineCollection_1">
    <path d="M 85.485483 271.187952 
L 85.485483 271.187952 
" clip-path="url(#pfbe0390eac)" style="fill: none; stroke: #ff0000; stroke-width: 1.5"/>
    <path d="M 89.036392 271.20008 
L 89.036392 271.115491 
" clip-path="url(#pfbe0390eac)" style="fill: none; stroke: #ff0000; stroke-width: 1.5"/>
    <path d="M 92.587301 271.205739 
L 92.587301 271.085207 
" clip-path="url(#pfbe0390eac)" style="fill: none; stroke: #ff0000; stroke-width: 1.5"/>
    <path d="M 96.13821 271.208785 
L 96.13821 271.088608 
" clip-path="url(#pfbe0390eac)" style="fill: none; stroke: #ff0000; stroke-width: 1.5"/>
    <path d="M 99.689119 271.219834 
L 99.689119 271.110423 
" clip-path="url(#pfbe0390eac)" style="fill: none; stroke: #ff0000; stroke-width: 1.5"/>
    <path d="M 103.240028 271.260125 
L 103.240028 271.12494 
" clip-path="url(#pfbe0390eac)" style="fill: none; stroke: #ff0000; stroke-width: 1.5"/>
    <path d="M 106.790938 271.334162 
L 106.790938 271.122866 
" clip-path="url(#pfbe0390eac)" style="fill: none; stroke: #ff0000; stroke-width: 1.5"/>
    <path d="M 110.341847 271.426326 
L 110.341847 271.114073 
" clip-path="url(#pfbe0390eac)" style="fill: none; stroke: #ff0000; stroke-width: 1.5"/>
    <path d="M 113.892756 271.523322 
L 113.892756 271.104877 
" clip-path="url(#pfbe0390eac)" style="fill: none; stroke: #ff0000; stroke-width: 1.5"/>
    <path d="M 117.443665 271.614732 
L 117.443665 271.097846 
" clip-path="url(#pfbe0390eac)" style="fill: none; stroke: #ff0000; stroke-width: 1.5"/>
    <path d="M 120.994574 271.692143 
L 120.994574 271.093643 
" clip-path="url(#pfbe0390eac)" style="fill: none; stroke: #ff0000; stroke-width: 1.5"/>
    <path d="M 124.545483 271.749787 
L 124.545483 271.091649 
" clip-path="url(#pfbe0390eac)" style="fill: none; stroke: #ff0000; stroke-width: 1.5"/>
    <path d="M 128.096392 271.785317 
L 128.096392 271.090289 
" clip-path="url(#pfbe0390eac)" style="fill: none; stroke: #ff0000; stroke-width: 1.5"/>
    <path d="M 131.647301 271.8 
L 131.647301 271.087366 
" clip-path="url(#pfbe0390eac)" style="fill: none; stroke: #ff0000; stroke-width: 1.5"/>
    <path d="M 135.19821 271.798039 
L 135.19821 271.080477 
" clip-path="url(#pfbe0390eac)" style="fill: none; stroke: #ff0000; stroke-width: 1.5"/>
    <path d="M 138.749119 271.785147 
L 138.749119 271.067515 
" clip-path="url(#pfbe0390eac)" style="fill: none; stroke: #ff0000; stroke-width: 1.5"/>
    <path d="M 142.300028 271.766826 
L 142.300028 271.047171 
" clip-path="url(#pfbe0390eac)" style="fill: none; stroke: #ff0000; stroke-width: 1.5"/>
    <path d="M 145.850937 271.747032 
L 145.850937 271.019255 
" clip-path="url(#pfbe0390eac)" style="fill: none; stroke: #ff0000; stroke-width: 1.5"/>
    <path d="M 149.401847 271.727743 
L 149.401847 270.98464 
" clip-path="url(#pfbe0390eac)" style="fill: none; stroke: #ff0000; stroke-width: 1.5"/>
    <path d="M 152.952756 271.709422 
L 152.952756 270.944948 
" clip-path="url(#pfbe0390eac)" style="fill: none; stroke: #ff0000; stroke-width: 1.5"/>
    <path d="M 156.503665 271.691844 
L 156.503665 270.902224 
" clip-path="url(#pfbe0390eac)" style="fill: none; stroke: #ff0000; stroke-width: 1.5"/>
    <path d="M 160.054574 271.674762 
L 160.054574 270.858785 
" clip-path="url(#pfbe0390eac)" style="fill: none; stroke: #ff0000; stroke-width: 1.5"/>
    <path d="M 163.605483 271.658165 
L 163.605483 270.817125 
" clip-path="url(#pfbe0390eac)" style="fill: none; stroke: #ff0000; stroke-width: 1.5"/>
    <path d="M 167.156392 271.642213 
L 167.156392 270.7797 
" clip-path="url(#pfbe0390eac)" style="fill: none; stroke: #ff0000; stroke-width: 1.5"/>
    <path d="M 170.707301 271.627029 
L 170.707301 270.748498 
" clip-path="url(#pfbe0390eac)" style="fill: none; stroke: #ff0000; stroke-width: 1.5"/>
    <path d="M 174.25821 271.612507 
L 174.25821 270.724509 
" clip-path="url(#pfbe0390eac)" style="fill: none; stroke: #ff0000; stroke-width: 1.5"/>
    <path d="M 177.809119 271.598193 
L 177.809119 270.70722 
" clip-path="url(#pfbe0390eac)" style="fill: none; stroke: #ff0000; stroke-width: 1.5"/>
    <path d="M 181.360028 271.583217 
L 181.360028 270.694221 
" clip-path="url(#pfbe0390eac)" style="fill: none; stroke: #ff0000; stroke-width: 1.5"/>
    <path d="M 184.910938 271.566214 
L 184.910938 270.680846 
" clip-path="url(#pfbe0390eac)" style="fill: none; stroke: #ff0000; stroke-width: 1.5"/>
    <path d="M 188.461847 271.545063 
L 188.461847 270.65968 
" clip-path="url(#pfbe0390eac)" style="fill: none; stroke: #ff0000; stroke-width: 1.5"/>
    <path d="M 192.012756 271.516243 
L 192.012756 270.619704 
" clip-path="url(#pfbe0390eac)" style="fill: none; stroke: #ff0000; stroke-width: 1.5"/>
    <path d="M 195.563665 271.473403 
L 195.563665 270.544806 
" clip-path="url(#pfbe0390eac)" style="fill: none; stroke: #ff0000; stroke-width: 1.5"/>
    <path d="M 199.114574 271.404685 
L 199.114574 270.411174 
" clip-path="url(#pfbe0390eac)" style="fill: none; stroke: #ff0000; stroke-width: 1.5"/>
    <path d="M 202.665483 271.288297 
L 202.665483 270.182672 
" clip-path="url(#pfbe0390eac)" style="fill: none; stroke: #ff0000; stroke-width: 1.5"/>
    <path d="M 206.216392 271.085911 
L 206.216392 269.802998 
" clip-path="url(#pfbe0390eac)" style="fill: none; stroke: #ff0000; stroke-width: 1.5"/>
    <path d="M 209.767301 270.733411 
L 209.767301 269.184356 
" clip-path="url(#pfbe0390eac)" style="fill: none; stroke: #ff0000; stroke-width: 1.5"/>
    <path d="M 213.31821 270.128958 
L 213.31821 268.195813 
" clip-path="url(#pfbe0390eac)" style="fill: none; stroke: #ff0000; stroke-width: 1.5"/>
    <path d="M 216.869119 269.121325 
L 216.869119 266.660928 
" clip-path="url(#pfbe0390eac)" style="fill: none; stroke: #ff0000; stroke-width: 1.5"/>
    <path d="M 220.420028 267.509396 
L 220.420028 264.379526 
" clip-path="url(#pfbe0390eac)" style="fill: none; stroke: #ff0000; stroke-width: 1.5"/>
    <path d="M 223.970937 265.071956 
L 223.970937 261.181777 
" clip-path="url(#pfbe0390eac)" style="fill: none; stroke: #ff0000; stroke-width: 1.5"/>
    <path d="M 227.521847 261.636825 
L 227.521847 256.995438 
" clip-path="url(#pfbe0390eac)" style="fill: none; stroke: #ff0000; stroke-width: 1.5"/>
    <path d="M 231.072756 257.158335 
L 231.072756 251.880616 
" clip-path="url(#pfbe0390eac)" style="fill: none; stroke: #ff0000; stroke-width: 1.5"/>
    <path d="M 234.623665 251.74315 
L 234.623665 246.003234 
" clip-path="url(#pfbe0390eac)" style="fill: none; stroke: #ff0000; stroke-width: 1.5"/>
    <path d="M 238.174574 245.601599 
L 238.174574 239.570256 
" clip-path="url(#pfbe0390eac)" style="fill: none; stroke: #ff0000; stroke-width: 1.5"/>
    <path d="M 241.725483 238.967644 
L 241.725483 232.773036 
" clip-path="url(#pfbe0390eac)" style="fill: none; stroke: #ff0000; stroke-width: 1.5"/>
    <path d="M 245.276392 232.041581 
L 245.276392 225.761693 
" clip-path="url(#pfbe0390eac)" style="fill: none; stroke: #ff0000; stroke-width: 1.5"/>
    <path d="M 248.827301 224.971142 
L 248.827301 218.644624 
" clip-path="url(#pfbe0390eac)" style="fill: none; stroke: #ff0000; stroke-width: 1.5"/>
    <path d="M 252.37821 217.857368 
L 252.37821 211.499022 
" clip-path="url(#pfbe0390eac)" style="fill: none; stroke: #ff0000; stroke-width: 1.5"/>
    <path d="M 255.929119 210.768817 
L 255.929119 204.382761 
" clip-path="url(#pfbe0390eac)" style="fill: none; stroke: #ff0000; stroke-width: 1.5"/>
    <path d="M 259.480028 203.755168 
L 259.480028 197.343669 
" clip-path="url(#pfbe0390eac)" style="fill: none; stroke: #ff0000; stroke-width: 1.5"/>
    <path d="M 263.030937 196.85724 
L 263.030937 190.425324 
" clip-path="url(#pfbe0390eac)" style="fill: none; stroke: #ff0000; stroke-width: 1.5"/>
    <path d="M 266.581847 190.112929 
L 266.581847 183.669615 
" clip-path="url(#pfbe0390eac)" style="fill: none; stroke: #ff0000; stroke-width: 1.5"/>
    <path d="M 270.132756 183.559365 
L 270.132756 177.116692 
" clip-path="url(#pfbe0390eac)" style="fill: none; stroke: #ff0000; stroke-width: 1.5"/>
    <path d="M 273.683665 177.231838 
L 273.683665 170.802989 
" clip-path="url(#pfbe0390eac)" style="fill: none; stroke: #ff0000; stroke-width: 1.5"/>
    <path d="M 277.234574 171.160491 
L 277.234574 164.758254 
" clip-path="url(#pfbe0390eac)" style="fill: none; stroke: #ff0000; stroke-width: 1.5"/>
    <path d="M 280.785483 165.366299 
L 280.785483 159.00265 
" clip-path="url(#pfbe0390eac)" style="fill: none; stroke: #ff0000; stroke-width: 1.5"/>
    <path d="M 284.336392 159.858122 
L 284.336392 153.544995 
" clip-path="url(#pfbe0390eac)" style="fill: none; stroke: #ff0000; stroke-width: 1.5"/>
    <path d="M 287.887301 154.632246 
L 287.887301 148.382761 
" clip-path="url(#pfbe0390eac)" style="fill: none; stroke: #ff0000; stroke-width: 1.5"/>
    <path d="M 291.43821 149.674745 
L 291.43821 143.503781 
" clip-path="url(#pfbe0390eac)" style="fill: none; stroke: #ff0000; stroke-width: 1.5"/>
    <path d="M 294.989119 144.965708 
L 294.989119 138.888992 
" clip-path="url(#pfbe0390eac)" style="fill: none; stroke: #ff0000; stroke-width: 1.5"/>
    <path d="M 298.540028 140.483656 
L 298.540028 134.515342 
" clip-path="url(#pfbe0390eac)" style="fill: none; stroke: #ff0000; stroke-width: 1.5"/>
    <path d="M 302.090937 136.208612 
L 302.090937 130.358165 
" clip-path="url(#pfbe0390eac)" style="fill: none; stroke: #ff0000; stroke-width: 1.5"/>
    <path d="M 305.641847 132.123204 
L 305.641847 126.39276 
" clip-path="url(#pfbe0390eac)" style="fill: none; stroke: #ff0000; stroke-width: 1.5"/>
    <path d="M 309.192756 128.212121 
L 309.192756 122.595275 
" clip-path="url(#pfbe0390eac)" style="fill: none; stroke: #ff0000; stroke-width: 1.5"/>
    <path d="M 312.743665 124.460856 
L 312.743665 118.94315 
" clip-path="url(#pfbe0390eac)" style="fill: none; stroke: #ff0000; stroke-width: 1.5"/>
    <path d="M 316.294574 120.85466 
L 316.294574 115.415414 
" clip-path="url(#pfbe0390eac)" style="fill: none; stroke: #ff0000; stroke-width: 1.5"/>
    <path d="M 319.845483 117.378217 
L 319.845483 111.992997 
" clip-path="url(#pfbe0390eac)" style="fill: none; stroke: #ff0000; stroke-width: 1.5"/>
    <path d="M 323.396392 114.016065 
L 323.396392 108.659072 
" clip-path="url(#pfbe0390eac)" style="fill: none; stroke: #ff0000; stroke-width: 1.5"/>
    <path d="M 326.947301 110.753431 
L 326.947301 105.399371 
" clip-path="url(#pfbe0390eac)" style="fill: none; stroke: #ff0000; stroke-width: 1.5"/>
    <path d="M 330.49821 107.577046 
L 330.49821 102.202352 
" clip-path="url(#pfbe0390eac)" style="fill: none; stroke: #ff0000; stroke-width: 1.5"/>
    <path d="M 334.049119 104.475614 
L 334.049119 99.059177 
" clip-path="url(#pfbe0390eac)" style="fill: none; stroke: #ff0000; stroke-width: 1.5"/>
    <path d="M 337.600028 101.439811 
L 337.600028 95.963485 
" clip-path="url(#pfbe0390eac)" style="fill: none; stroke: #ff0000; stroke-width: 1.5"/>
    <path d="M 341.150937 98.461875 
L 341.150937 92.91102 
" clip-path="url(#pfbe0390eac)" style="fill: none; stroke: #ff0000; stroke-width: 1.5"/>
    <path d="M 344.701847 95.535009 
L 344.701847 89.89917 
" clip-path="url(#pfbe0390eac)" style="fill: none; stroke: #ff0000; stroke-width: 1.5"/>
    <path d="M 348.252756 92.652854 
L 348.252756 86.92649 
" clip-path="url(#pfbe0390eac)" style="fill: none; stroke: #ff0000; stroke-width: 1.5"/>
    <path d="M 351.803665 89.809201 
L 351.803665 83.992239 
" clip-path="url(#pfbe0390eac)" style="fill: none; stroke: #ff0000; stroke-width: 1.5"/>
    <path d="M 355.354574 86.998013 
L 355.354574 81.095971 
" clip-path="url(#pfbe0390eac)" style="fill: none; stroke: #ff0000; stroke-width: 1.5"/>
    <path d="M 358.905483 84.213676 
L 358.905483 78.23721 
" clip-path="url(#pfbe0390eac)" style="fill: none; stroke: #ff0000; stroke-width: 1.5"/>
    <path d="M 362.456392 81.451333 
L 362.456392 75.415232 
" clip-path="url(#pfbe0390eac)" style="fill: none; stroke: #ff0000; stroke-width: 1.5"/>
    <path d="M 366.007301 78.707146 
L 366.007301 72.628943 
" clip-path="url(#pfbe0390eac)" style="fill: none; stroke: #ff0000; stroke-width: 1.5"/>
    <path d="M 369.55821 75.97843 
L 369.55821 69.876876 
" clip-path="url(#pfbe0390eac)" style="fill: none; stroke: #ff0000; stroke-width: 1.5"/>
    <path d="M 373.109119 73.26363 
L 373.109119 67.157256 
" clip-path="url(#pfbe0390eac)" style="fill: none; stroke: #ff0000; stroke-width: 1.5"/>
    <path d="M 376.660028 70.562255 
L 376.660028 64.468127 
" clip-path="url(#pfbe0390eac)" style="fill: none; stroke: #ff0000; stroke-width: 1.5"/>
    <path d="M 380.210938 67.874806 
L 380.210938 61.807513 
" clip-path="url(#pfbe0390eac)" style="fill: none; stroke: #ff0000; stroke-width: 1.5"/>
    <path d="M 383.761847 65.202742 
L 383.761847 59.173585 
" clip-path="url(#pfbe0390eac)" style="fill: none; stroke: #ff0000; stroke-width: 1.5"/>
    <path d="M 387.312756 62.548433 
L 387.312756 56.564801 
" clip-path="url(#pfbe0390eac)" style="fill: none; stroke: #ff0000; stroke-width: 1.5"/>
    <path d="M 390.863665 59.914985 
L 390.863665 53.979979 
" clip-path="url(#pfbe0390eac)" style="fill: none; stroke: #ff0000; stroke-width: 1.5"/>
    <path d="M 394.414574 57.305883 
L 394.414574 51.418259 
" clip-path="url(#pfbe0390eac)" style="fill: none; stroke: #ff0000; stroke-width: 1.5"/>
    <path d="M 397.965483 54.724432 
L 397.965483 48.878955 
" clip-path="url(#pfbe0390eac)" style="fill: none; stroke: #ff0000; stroke-width: 1.5"/>
    <path d="M 401.516392 52.173137 
L 401.516392 46.361318 
" clip-path="url(#pfbe0390eac)" style="fill: none; stroke: #ff0000; stroke-width: 1.5"/>
    <path d="M 405.067301 49.6532 
L 405.067301 43.864334 
" clip-path="url(#pfbe0390eac)" style="fill: none; stroke: #ff0000; stroke-width: 1.5"/>
    <path d="M 408.61821 47.16431 
L 408.61821 41.386633 
" clip-path="url(#pfbe0390eac)" style="fill: none; stroke: #ff0000; stroke-width: 1.5"/>
    <path d="M 412.169119 44.704828 
L 412.169119 38.926591 
" clip-path="url(#pfbe0390eac)" style="fill: none; stroke: #ff0000; stroke-width: 1.5"/>
    <path d="M 415.720028 42.272299 
L 415.720028 36.4826 
" clip-path="url(#pfbe0390eac)" style="fill: none; stroke: #ff0000; stroke-width: 1.5"/>
    <path d="M 419.270937 39.864116 
L 419.270937 34.053399 
" clip-path="url(#pfbe0390eac)" style="fill: none; stroke: #ff0000; stroke-width: 1.5"/>
    <path d="M 422.821847 37.4781 
L 422.821847 31.638356 
" clip-path="url(#pfbe0390eac)" style="fill: none; stroke: #ff0000; stroke-width: 1.5"/>
    <path d="M 426.372756 35.112811 
L 426.372756 29.237587 
" clip-path="url(#pfbe0390eac)" style="fill: none; stroke: #ff0000; stroke-width: 1.5"/>
    <path d="M 429.923665 32.767523 
L 429.923665 26.851919 
" clip-path="url(#pfbe0390eac)" style="fill: none; stroke: #ff0000; stroke-width: 1.5"/>
    <path d="M 433.474574 30.441942 
L 433.474574 24.482694 
" clip-path="url(#pfbe0390eac)" style="fill: none; stroke: #ff0000; stroke-width: 1.5"/>
    <path d="M 437.025483 28.135828 
L 437.025483 22.131522 
" clip-path="url(#pfbe0390eac)" style="fill: none; stroke: #ff0000; stroke-width: 1.5"/>
    <path d="M 440.576392 25.848681 
L 440.576392 19.8 
" clip-path="url(#pfbe0390eac)" style="fill: none; stroke: #ff0000; stroke-width: 1.5"/>
   </g>
   <g id="line2d_13">
    <defs>
     <path id="mfb8eb40d7d" d="M 1 0 
L -1 -0 
" style="stroke: #ff0000"/>
    </defs>
    <g clip-path="url(#pfbe0390eac)">
     <use xlink:href="#mfb8eb40d7d" x="85.485483" y="271.187952" style="fill: #ff0000; stroke: #ff0000"/>
     <use xlink:href="#mfb8eb40d7d" x="89.036392" y="271.20008" style="fill: #ff0000; stroke: #ff0000"/>
     <use xlink:href="#mfb8eb40d7d" x="92.587301" y="271.205739" style="fill: #ff0000; stroke: #ff0000"/>
     <use xlink:href="#mfb8eb40d7d" x="96.13821" y="271.208785" style="fill: #ff0000; stroke: #ff0000"/>
     <use xlink:href="#mfb8eb40d7d" x="99.689119" y="271.219834" style="fill: #ff0000; stroke: #ff0000"/>
     <use xlink:href="#mfb8eb40d7d" x="103.240028" y="271.260125" style="fill: #ff0000; stroke: #ff0000"/>
     <use xlink:href="#mfb8eb40d7d" x="106.790938" y="271.334162" style="fill: #ff0000; stroke: #ff0000"/>
     <use xlink:href="#mfb8eb40d7d" x="110.341847" y="271.426326" style="fill: #ff0000; stroke: #ff0000"/>
     <use xlink:href="#mfb8eb40d7d" x="113.892756" y="271.523322" style="fill: #ff0000; stroke: #ff0000"/>
     <use xlink:href="#mfb8eb40d7d" x="117.443665" y="271.614732" style="fill: #ff0000; stroke: #ff0000"/>
     <use xlink:href="#mfb8eb40d7d" x="120.994574" y="271.692143" style="fill: #ff0000; stroke: #ff0000"/>
     <use xlink:href="#mfb8eb40d7d" x="124.545483" y="271.749787" style="fill: #ff0000; stroke: #ff0000"/>
     <use xlink:href="#mfb8eb40d7d" x="128.096392" y="271.785317" style="fill: #ff0000; stroke: #ff0000"/>
     <use xlink:href="#mfb8eb40d7d" x="131.647301" y="271.8" style="fill: #ff0000; stroke: #ff0000"/>
     <use xlink:href="#mfb8eb40d7d" x="135.19821" y="271.798039" style="fill: #ff0000; stroke: #ff0000"/>
     <use xlink:href="#mfb8eb40d7d" x="138.749119" y="271.785147" style="fill: #ff0000; stroke: #ff0000"/>
     <use xlink:href="#mfb8eb40d7d" x="142.300028" y="271.766826" style="fill: #ff0000; stroke: #ff0000"/>
     <use xlink:href="#mfb8eb40d7d" x="145.850937" y="271.747032" style="fill: #ff0000; stroke: #ff0000"/>
     <use xlink:href="#mfb8eb40d7d" x="149.401847" y="271.727743" style="fill: #ff0000; stroke: #ff0000"/>
     <use xlink:href="#mfb8eb40d7d" x="152.952756" y="271.709422" style="fill: #ff0000; stroke: #ff0000"/>
     <use xlink:href="#mfb8eb40d7d" x="156.503665" y="271.691844" style="fill: #ff0000; stroke: #ff0000"/>
     <use xlink:href="#mfb8eb40d7d" x="160.054574" y="271.674762" style="fill: #ff0000; stroke: #ff0000"/>
     <use xlink:href="#mfb8eb40d7d" x="163.605483" y="271.658165" style="fill: #ff0000; stroke: #ff0000"/>
     <use xlink:href="#mfb8eb40d7d" x="167.156392" y="271.642213" style="fill: #ff0000; stroke: #ff0000"/>
     <use xlink:href="#mfb8eb40d7d" x="170.707301" y="271.627029" style="fill: #ff0000; stroke: #ff0000"/>
     <use xlink:href="#mfb8eb40d7d" x="174.25821" y="271.612507" style="fill: #ff0000; stroke: #ff0000"/>
     <use xlink:href="#mfb8eb40d7d" x="177.809119" y="271.598193" style="fill: #ff0000; stroke: #ff0000"/>
     <use xlink:href="#mfb8eb40d7d" x="181.360028" y="271.583217" style="fill: #ff0000; stroke: #ff0000"/>
     <use xlink:href="#mfb8eb40d7d" x="184.910938" y="271.566214" style="fill: #ff0000; stroke: #ff0000"/>
     <use xlink:href="#mfb8eb40d7d" x="188.461847" y="271.545063" style="fill: #ff0000; stroke: #ff0000"/>
     <use xlink:href="#mfb8eb40d7d" x="192.012756" y="271.516243" style="fill: #ff0000; stroke: #ff0000"/>
     <use xlink:href="#mfb8eb40d7d" x="195.563665" y="271.473403" style="fill: #ff0000; stroke: #ff0000"/>
     <use xlink:href="#mfb8eb40d7d" x="199.114574" y="271.404685" style="fill: #ff0000; stroke: #ff0000"/>
     <use xlink:href="#mfb8eb40d7d" x="202.665483" y="271.288297" style="fill: #ff0000; stroke: #ff0000"/>
     <use xlink:href="#mfb8eb40d7d" x="206.216392" y="271.085911" style="fill: #ff0000; stroke: #ff0000"/>
     <use xlink:href="#mfb8eb40d7d" x="209.767301" y="270.733411" style="fill: #ff0000; stroke: #ff0000"/>
     <use xlink:href="#mfb8eb40d7d" x="213.31821" y="270.128958" style="fill: #ff0000; stroke: #ff0000"/>
     <use xlink:href="#mfb8eb40d7d" x="216.869119" y="269.121325" style="fill: #ff0000; stroke: #ff0000"/>
     <use xlink:href="#mfb8eb40d7d" x="220.420028" y="267.509396" style="fill: #ff0000; stroke: #ff0000"/>
     <use xlink:href="#mfb8eb40d7d" x="223.970937" y="265.071956" style="fill: #ff0000; stroke: #ff0000"/>
     <use xlink:href="#mfb8eb40d7d" x="227.521847" y="261.636825" style="fill: #ff0000; stroke: #ff0000"/>
     <use xlink:href="#mfb8eb40d7d" x="231.072756" y="257.158335" style="fill: #ff0000; stroke: #ff0000"/>
     <use xlink:href="#mfb8eb40d7d" x="234.623665" y="251.74315" style="fill: #ff0000; stroke: #ff0000"/>
     <use xlink:href="#mfb8eb40d7d" x="238.174574" y="245.601599" style="fill: #ff0000; stroke: #ff0000"/>
     <use xlink:href="#mfb8eb40d7d" x="241.725483" y="238.967644" style="fill: #ff0000; stroke: #ff0000"/>
     <use xlink:href="#mfb8eb40d7d" x="245.276392" y="232.041581" style="fill: #ff0000; stroke: #ff0000"/>
     <use xlink:href="#mfb8eb40d7d" x="248.827301" y="224.971142" style="fill: #ff0000; stroke: #ff0000"/>
     <use xlink:href="#mfb8eb40d7d" x="252.37821" y="217.857368" style="fill: #ff0000; stroke: #ff0000"/>
     <use xlink:href="#mfb8eb40d7d" x="255.929119" y="210.768817" style="fill: #ff0000; stroke: #ff0000"/>
     <use xlink:href="#mfb8eb40d7d" x="259.480028" y="203.755168" style="fill: #ff0000; stroke: #ff0000"/>
     <use xlink:href="#mfb8eb40d7d" x="263.030937" y="196.85724" style="fill: #ff0000; stroke: #ff0000"/>
     <use xlink:href="#mfb8eb40d7d" x="266.581847" y="190.112929" style="fill: #ff0000; stroke: #ff0000"/>
     <use xlink:href="#mfb8eb40d7d" x="270.132756" y="183.559365" style="fill: #ff0000; stroke: #ff0000"/>
     <use xlink:href="#mfb8eb40d7d" x="273.683665" y="177.231838" style="fill: #ff0000; stroke: #ff0000"/>
     <use xlink:href="#mfb8eb40d7d" x="277.234574" y="171.160491" style="fill: #ff0000; stroke: #ff0000"/>
     <use xlink:href="#mfb8eb40d7d" x="280.785483" y="165.366299" style="fill: #ff0000; stroke: #ff0000"/>
     <use xlink:href="#mfb8eb40d7d" x="284.336392" y="159.858122" style="fill: #ff0000; stroke: #ff0000"/>
     <use xlink:href="#mfb8eb40d7d" x="287.887301" y="154.632246" style="fill: #ff0000; stroke: #ff0000"/>
     <use xlink:href="#mfb8eb40d7d" x="291.43821" y="149.674745" style="fill: #ff0000; stroke: #ff0000"/>
     <use xlink:href="#mfb8eb40d7d" x="294.989119" y="144.965708" style="fill: #ff0000; stroke: #ff0000"/>
     <use xlink:href="#mfb8eb40d7d" x="298.540028" y="140.483656" style="fill: #ff0000; stroke: #ff0000"/>
     <use xlink:href="#mfb8eb40d7d" x="302.090937" y="136.208612" style="fill: #ff0000; stroke: #ff0000"/>
     <use xlink:href="#mfb8eb40d7d" x="305.641847" y="132.123204" style="fill: #ff0000; stroke: #ff0000"/>
     <use xlink:href="#mfb8eb40d7d" x="309.192756" y="128.212121" style="fill: #ff0000; stroke: #ff0000"/>
     <use xlink:href="#mfb8eb40d7d" x="312.743665" y="124.460856" style="fill: #ff0000; stroke: #ff0000"/>
     <use xlink:href="#mfb8eb40d7d" x="316.294574" y="120.85466" style="fill: #ff0000; stroke: #ff0000"/>
     <use xlink:href="#mfb8eb40d7d" x="319.845483" y="117.378217" style="fill: #ff0000; stroke: #ff0000"/>
     <use xlink:href="#mfb8eb40d7d" x="323.396392" y="114.016065" style="fill: #ff0000; stroke: #ff0000"/>
     <use xlink:href="#mfb8eb40d7d" x="326.947301" y="110.753431" style="fill: #ff0000; stroke: #ff0000"/>
     <use xlink:href="#mfb8eb40d7d" x="330.49821" y="107.577046" style="fill: #ff0000; stroke: #ff0000"/>
     <use xlink:href="#mfb8eb40d7d" x="334.049119" y="104.475614" style="fill: #ff0000; stroke: #ff0000"/>
     <use xlink:href="#mfb8eb40d7d" x="337.600028" y="101.439811" style="fill: #ff0000; stroke: #ff0000"/>
     <use xlink:href="#mfb8eb40d7d" x="341.150937" y="98.461875" style="fill: #ff0000; stroke: #ff0000"/>
     <use xlink:href="#mfb8eb40d7d" x="344.701847" y="95.535009" style="fill: #ff0000; stroke: #ff0000"/>
     <use xlink:href="#mfb8eb40d7d" x="348.252756" y="92.652854" style="fill: #ff0000; stroke: #ff0000"/>
     <use xlink:href="#mfb8eb40d7d" x="351.803665" y="89.809201" style="fill: #ff0000; stroke: #ff0000"/>
     <use xlink:href="#mfb8eb40d7d" x="355.354574" y="86.998013" style="fill: #ff0000; stroke: #ff0000"/>
     <use xlink:href="#mfb8eb40d7d" x="358.905483" y="84.213676" style="fill: #ff0000; stroke: #ff0000"/>
     <use xlink:href="#mfb8eb40d7d" x="362.456392" y="81.451333" style="fill: #ff0000; stroke: #ff0000"/>
     <use xlink:href="#mfb8eb40d7d" x="366.007301" y="78.707146" style="fill: #ff0000; stroke: #ff0000"/>
     <use xlink:href="#mfb8eb40d7d" x="369.55821" y="75.97843" style="fill: #ff0000; stroke: #ff0000"/>
     <use xlink:href="#mfb8eb40d7d" x="373.109119" y="73.26363" style="fill: #ff0000; stroke: #ff0000"/>
     <use xlink:href="#mfb8eb40d7d" x="376.660028" y="70.562255" style="fill: #ff0000; stroke: #ff0000"/>
     <use xlink:href="#mfb8eb40d7d" x="380.210938" y="67.874806" style="fill: #ff0000; stroke: #ff0000"/>
     <use xlink:href="#mfb8eb40d7d" x="383.761847" y="65.202742" style="fill: #ff0000; stroke: #ff0000"/>
     <use xlink:href="#mfb8eb40d7d" x="387.312756" y="62.548433" style="fill: #ff0000; stroke: #ff0000"/>
     <use xlink:href="#mfb8eb40d7d" x="390.863665" y="59.914985" style="fill: #ff0000; stroke: #ff0000"/>
     <use xlink:href="#mfb8eb40d7d" x="394.414574" y="57.305883" style="fill: #ff0000; stroke: #ff0000"/>
     <use xlink:href="#mfb8eb40d7d" x="397.965483" y="54.724432" style="fill: #ff0000; stroke: #ff0000"/>
     <use xlink:href="#mfb8eb40d7d" x="401.516392" y="52.173137" style="fill: #ff0000; stroke: #ff0000"/>
     <use xlink:href="#mfb8eb40d7d" x="405.067301" y="49.6532" style="fill: #ff0000; stroke: #ff0000"/>
     <use xlink:href="#mfb8eb40d7d" x="408.61821" y="47.16431" style="fill: #ff0000; stroke: #ff0000"/>
     <use xlink:href="#mfb8eb40d7d" x="412.169119" y="44.704828" style="fill: #ff0000; stroke: #ff0000"/>
     <use xlink:href="#mfb8eb40d7d" x="415.720028" y="42.272299" style="fill: #ff0000; stroke: #ff0000"/>
     <use xlink:href="#mfb8eb40d7d" x="419.270937" y="39.864116" style="fill: #ff0000; stroke: #ff0000"/>
     <use xlink:href="#mfb8eb40d7d" x="422.821847" y="37.4781" style="fill: #ff0000; stroke: #ff0000"/>
     <use xlink:href="#mfb8eb40d7d" x="426.372756" y="35.112811" style="fill: #ff0000; stroke: #ff0000"/>
     <use xlink:href="#mfb8eb40d7d" x="429.923665" y="32.767523" style="fill: #ff0000; stroke: #ff0000"/>
     <use xlink:href="#mfb8eb40d7d" x="433.474574" y="30.441942" style="fill: #ff0000; stroke: #ff0000"/>
     <use xlink:href="#mfb8eb40d7d" x="437.025483" y="28.135828" style="fill: #ff0000; stroke: #ff0000"/>
     <use xlink:href="#mfb8eb40d7d" x="440.576392" y="25.848681" style="fill: #ff0000; stroke: #ff0000"/>
    </g>
   </g>
   <g id="line2d_14">
    <g clip-path="url(#pfbe0390eac)">
     <use xlink:href="#mfb8eb40d7d" x="85.485483" y="271.187952" style="fill: #ff0000; stroke: #ff0000"/>
     <use xlink:href="#mfb8eb40d7d" x="89.036392" y="271.115491" style="fill: #ff0000; stroke: #ff0000"/>
     <use xlink:href="#mfb8eb40d7d" x="92.587301" y="271.085207" style="fill: #ff0000; stroke: #ff0000"/>
     <use xlink:href="#mfb8eb40d7d" x="96.13821" y="271.088608" style="fill: #ff0000; stroke: #ff0000"/>
     <use xlink:href="#mfb8eb40d7d" x="99.689119" y="271.110423" style="fill: #ff0000; stroke: #ff0000"/>
     <use xlink:href="#mfb8eb40d7d" x="103.240028" y="271.12494" style="fill: #ff0000; stroke: #ff0000"/>
     <use xlink:href="#mfb8eb40d7d" x="106.790938" y="271.122866" style="fill: #ff0000; stroke: #ff0000"/>
     <use xlink:href="#mfb8eb40d7d" x="110.341847" y="271.114073" style="fill: #ff0000; stroke: #ff0000"/>
     <use xlink:href="#mfb8eb40d7d" x="113.892756" y="271.104877" style="fill: #ff0000; stroke: #ff0000"/>
     <use xlink:href="#mfb8eb40d7d" x="117.443665" y="271.097846" style="fill: #ff0000; stroke: #ff0000"/>
     <use xlink:href="#mfb8eb40d7d" x="120.994574" y="271.093643" style="fill: #ff0000; stroke: #ff0000"/>
     <use xlink:href="#mfb8eb40d7d" x="124.545483" y="271.091649" style="fill: #ff0000; stroke: #ff0000"/>
     <use xlink:href="#mfb8eb40d7d" x="128.096392" y="271.090289" style="fill: #ff0000; stroke: #ff0000"/>
     <use xlink:href="#mfb8eb40d7d" x="131.647301" y="271.087366" style="fill: #ff0000; stroke: #ff0000"/>
     <use xlink:href="#mfb8eb40d7d" x="135.19821" y="271.080477" style="fill: #ff0000; stroke: #ff0000"/>
     <use xlink:href="#mfb8eb40d7d" x="138.749119" y="271.067515" style="fill: #ff0000; stroke: #ff0000"/>
     <use xlink:href="#mfb8eb40d7d" x="142.300028" y="271.047171" style="fill: #ff0000; stroke: #ff0000"/>
     <use xlink:href="#mfb8eb40d7d" x="145.850937" y="271.019255" style="fill: #ff0000; stroke: #ff0000"/>
     <use xlink:href="#mfb8eb40d7d" x="149.401847" y="270.98464" style="fill: #ff0000; stroke: #ff0000"/>
     <use xlink:href="#mfb8eb40d7d" x="152.952756" y="270.944948" style="fill: #ff0000; stroke: #ff0000"/>
     <use xlink:href="#mfb8eb40d7d" x="156.503665" y="270.902224" style="fill: #ff0000; stroke: #ff0000"/>
     <use xlink:href="#mfb8eb40d7d" x="160.054574" y="270.858785" style="fill: #ff0000; stroke: #ff0000"/>
     <use xlink:href="#mfb8eb40d7d" x="163.605483" y="270.817125" style="fill: #ff0000; stroke: #ff0000"/>
     <use xlink:href="#mfb8eb40d7d" x="167.156392" y="270.7797" style="fill: #ff0000; stroke: #ff0000"/>
     <use xlink:href="#mfb8eb40d7d" x="170.707301" y="270.748498" style="fill: #ff0000; stroke: #ff0000"/>
     <use xlink:href="#mfb8eb40d7d" x="174.25821" y="270.724509" style="fill: #ff0000; stroke: #ff0000"/>
     <use xlink:href="#mfb8eb40d7d" x="177.809119" y="270.70722" style="fill: #ff0000; stroke: #ff0000"/>
     <use xlink:href="#mfb8eb40d7d" x="181.360028" y="270.694221" style="fill: #ff0000; stroke: #ff0000"/>
     <use xlink:href="#mfb8eb40d7d" x="184.910938" y="270.680846" style="fill: #ff0000; stroke: #ff0000"/>
     <use xlink:href="#mfb8eb40d7d" x="188.461847" y="270.65968" style="fill: #ff0000; stroke: #ff0000"/>
     <use xlink:href="#mfb8eb40d7d" x="192.012756" y="270.619704" style="fill: #ff0000; stroke: #ff0000"/>
     <use xlink:href="#mfb8eb40d7d" x="195.563665" y="270.544806" style="fill: #ff0000; stroke: #ff0000"/>
     <use xlink:href="#mfb8eb40d7d" x="199.114574" y="270.411174" style="fill: #ff0000; stroke: #ff0000"/>
     <use xlink:href="#mfb8eb40d7d" x="202.665483" y="270.182672" style="fill: #ff0000; stroke: #ff0000"/>
     <use xlink:href="#mfb8eb40d7d" x="206.216392" y="269.802998" style="fill: #ff0000; stroke: #ff0000"/>
     <use xlink:href="#mfb8eb40d7d" x="209.767301" y="269.184356" style="fill: #ff0000; stroke: #ff0000"/>
     <use xlink:href="#mfb8eb40d7d" x="213.31821" y="268.195813" style="fill: #ff0000; stroke: #ff0000"/>
     <use xlink:href="#mfb8eb40d7d" x="216.869119" y="266.660928" style="fill: #ff0000; stroke: #ff0000"/>
     <use xlink:href="#mfb8eb40d7d" x="220.420028" y="264.379526" style="fill: #ff0000; stroke: #ff0000"/>
     <use xlink:href="#mfb8eb40d7d" x="223.970937" y="261.181777" style="fill: #ff0000; stroke: #ff0000"/>
     <use xlink:href="#mfb8eb40d7d" x="227.521847" y="256.995438" style="fill: #ff0000; stroke: #ff0000"/>
     <use xlink:href="#mfb8eb40d7d" x="231.072756" y="251.880616" style="fill: #ff0000; stroke: #ff0000"/>
     <use xlink:href="#mfb8eb40d7d" x="234.623665" y="246.003234" style="fill: #ff0000; stroke: #ff0000"/>
     <use xlink:href="#mfb8eb40d7d" x="238.174574" y="239.570256" style="fill: #ff0000; stroke: #ff0000"/>
     <use xlink:href="#mfb8eb40d7d" x="241.725483" y="232.773036" style="fill: #ff0000; stroke: #ff0000"/>
     <use xlink:href="#mfb8eb40d7d" x="245.276392" y="225.761693" style="fill: #ff0000; stroke: #ff0000"/>
     <use xlink:href="#mfb8eb40d7d" x="248.827301" y="218.644624" style="fill: #ff0000; stroke: #ff0000"/>
     <use xlink:href="#mfb8eb40d7d" x="252.37821" y="211.499022" style="fill: #ff0000; stroke: #ff0000"/>
     <use xlink:href="#mfb8eb40d7d" x="255.929119" y="204.382761" style="fill: #ff0000; stroke: #ff0000"/>
     <use xlink:href="#mfb8eb40d7d" x="259.480028" y="197.343669" style="fill: #ff0000; stroke: #ff0000"/>
     <use xlink:href="#mfb8eb40d7d" x="263.030937" y="190.425324" style="fill: #ff0000; stroke: #ff0000"/>
     <use xlink:href="#mfb8eb40d7d" x="266.581847" y="183.669615" style="fill: #ff0000; stroke: #ff0000"/>
     <use xlink:href="#mfb8eb40d7d" x="270.132756" y="177.116692" style="fill: #ff0000; stroke: #ff0000"/>
     <use xlink:href="#mfb8eb40d7d" x="273.683665" y="170.802989" style="fill: #ff0000; stroke: #ff0000"/>
     <use xlink:href="#mfb8eb40d7d" x="277.234574" y="164.758254" style="fill: #ff0000; stroke: #ff0000"/>
     <use xlink:href="#mfb8eb40d7d" x="280.785483" y="159.00265" style="fill: #ff0000; stroke: #ff0000"/>
     <use xlink:href="#mfb8eb40d7d" x="284.336392" y="153.544995" style="fill: #ff0000; stroke: #ff0000"/>
     <use xlink:href="#mfb8eb40d7d" x="287.887301" y="148.382761" style="fill: #ff0000; stroke: #ff0000"/>
     <use xlink:href="#mfb8eb40d7d" x="291.43821" y="143.503781" style="fill: #ff0000; stroke: #ff0000"/>
     <use xlink:href="#mfb8eb40d7d" x="294.989119" y="138.888992" style="fill: #ff0000; stroke: #ff0000"/>
     <use xlink:href="#mfb8eb40d7d" x="298.540028" y="134.515342" style="fill: #ff0000; stroke: #ff0000"/>
     <use xlink:href="#mfb8eb40d7d" x="302.090937" y="130.358165" style="fill: #ff0000; stroke: #ff0000"/>
     <use xlink:href="#mfb8eb40d7d" x="305.641847" y="126.39276" style="fill: #ff0000; stroke: #ff0000"/>
     <use xlink:href="#mfb8eb40d7d" x="309.192756" y="122.595275" style="fill: #ff0000; stroke: #ff0000"/>
     <use xlink:href="#mfb8eb40d7d" x="312.743665" y="118.94315" style="fill: #ff0000; stroke: #ff0000"/>
     <use xlink:href="#mfb8eb40d7d" x="316.294574" y="115.415414" style="fill: #ff0000; stroke: #ff0000"/>
     <use xlink:href="#mfb8eb40d7d" x="319.845483" y="111.992997" style="fill: #ff0000; stroke: #ff0000"/>
     <use xlink:href="#mfb8eb40d7d" x="323.396392" y="108.659072" style="fill: #ff0000; stroke: #ff0000"/>
     <use xlink:href="#mfb8eb40d7d" x="326.947301" y="105.399371" style="fill: #ff0000; stroke: #ff0000"/>
     <use xlink:href="#mfb8eb40d7d" x="330.49821" y="102.202352" style="fill: #ff0000; stroke: #ff0000"/>
     <use xlink:href="#mfb8eb40d7d" x="334.049119" y="99.059177" style="fill: #ff0000; stroke: #ff0000"/>
     <use xlink:href="#mfb8eb40d7d" x="337.600028" y="95.963485" style="fill: #ff0000; stroke: #ff0000"/>
     <use xlink:href="#mfb8eb40d7d" x="341.150937" y="92.91102" style="fill: #ff0000; stroke: #ff0000"/>
     <use xlink:href="#mfb8eb40d7d" x="344.701847" y="89.89917" style="fill: #ff0000; stroke: #ff0000"/>
     <use xlink:href="#mfb8eb40d7d" x="348.252756" y="86.92649" style="fill: #ff0000; stroke: #ff0000"/>
     <use xlink:href="#mfb8eb40d7d" x="351.803665" y="83.992239" style="fill: #ff0000; stroke: #ff0000"/>
     <use xlink:href="#mfb8eb40d7d" x="355.354574" y="81.095971" style="fill: #ff0000; stroke: #ff0000"/>
     <use xlink:href="#mfb8eb40d7d" x="358.905483" y="78.23721" style="fill: #ff0000; stroke: #ff0000"/>
     <use xlink:href="#mfb8eb40d7d" x="362.456392" y="75.415232" style="fill: #ff0000; stroke: #ff0000"/>
     <use xlink:href="#mfb8eb40d7d" x="366.007301" y="72.628943" style="fill: #ff0000; stroke: #ff0000"/>
     <use xlink:href="#mfb8eb40d7d" x="369.55821" y="69.876876" style="fill: #ff0000; stroke: #ff0000"/>
     <use xlink:href="#mfb8eb40d7d" x="373.109119" y="67.157256" style="fill: #ff0000; stroke: #ff0000"/>
     <use xlink:href="#mfb8eb40d7d" x="376.660028" y="64.468127" style="fill: #ff0000; stroke: #ff0000"/>
     <use xlink:href="#mfb8eb40d7d" x="380.210938" y="61.807513" style="fill: #ff0000; stroke: #ff0000"/>
     <use xlink:href="#mfb8eb40d7d" x="383.761847" y="59.173585" style="fill: #ff0000; stroke: #ff0000"/>
     <use xlink:href="#mfb8eb40d7d" x="387.312756" y="56.564801" style="fill: #ff0000; stroke: #ff0000"/>
     <use xlink:href="#mfb8eb40d7d" x="390.863665" y="53.979979" style="fill: #ff0000; stroke: #ff0000"/>
     <use xlink:href="#mfb8eb40d7d" x="394.414574" y="51.418259" style="fill: #ff0000; stroke: #ff0000"/>
     <use xlink:href="#mfb8eb40d7d" x="397.965483" y="48.878955" style="fill: #ff0000; stroke: #ff0000"/>
     <use xlink:href="#mfb8eb40d7d" x="401.516392" y="46.361318" style="fill: #ff0000; stroke: #ff0000"/>
     <use xlink:href="#mfb8eb40d7d" x="405.067301" y="43.864334" style="fill: #ff0000; stroke: #ff0000"/>
     <use xlink:href="#mfb8eb40d7d" x="408.61821" y="41.386633" style="fill: #ff0000; stroke: #ff0000"/>
     <use xlink:href="#mfb8eb40d7d" x="412.169119" y="38.926591" style="fill: #ff0000; stroke: #ff0000"/>
     <use xlink:href="#mfb8eb40d7d" x="415.720028" y="36.4826" style="fill: #ff0000; stroke: #ff0000"/>
     <use xlink:href="#mfb8eb40d7d" x="419.270937" y="34.053399" style="fill: #ff0000; stroke: #ff0000"/>
     <use xlink:href="#mfb8eb40d7d" x="422.821847" y="31.638356" style="fill: #ff0000; stroke: #ff0000"/>
     <use xlink:href="#mfb8eb40d7d" x="426.372756" y="29.237587" style="fill: #ff0000; stroke: #ff0000"/>
     <use xlink:href="#mfb8eb40d7d" x="429.923665" y="26.851919" style="fill: #ff0000; stroke: #ff0000"/>
     <use xlink:href="#mfb8eb40d7d" x="433.474574" y="24.482694" style="fill: #ff0000; stroke: #ff0000"/>
     <use xlink:href="#mfb8eb40d7d" x="437.025483" y="22.131522" style="fill: #ff0000; stroke: #ff0000"/>
     <use xlink:href="#mfb8eb40d7d" x="440.576392" y="19.8" style="fill: #ff0000; stroke: #ff0000"/>
    </g>
   </g>
   <g id="line2d_15">
    <path d="M 85.485483 271.187952 
L 89.036392 271.157785 
L 92.587301 271.145473 
L 96.13821 271.148697 
L 99.689119 271.165128 
L 103.240028 271.192533 
L 106.790938 271.228514 
L 110.341847 271.2702 
L 113.892756 271.314099 
L 117.443665 271.356289 
L 120.994574 271.392893 
L 124.545483 271.420718 
L 128.096392 271.437803 
L 131.647301 271.443683 
L 135.19821 271.439258 
L 138.749119 271.426331 
L 142.300028 271.406999 
L 145.850937 271.383143 
L 149.401847 271.356192 
L 152.952756 271.327185 
L 156.503665 271.297034 
L 160.054574 271.266773 
L 163.605483 271.237645 
L 167.156392 271.210956 
L 170.707301 271.187763 
L 174.25821 271.168508 
L 177.809119 271.152706 
L 181.360028 271.138719 
L 184.910938 271.12353 
L 188.461847 271.102372 
L 192.012756 271.067974 
L 195.563665 271.009104 
L 199.114574 270.907929 
L 202.665483 270.735484 
L 206.216392 270.444455 
L 209.767301 269.958883 
L 213.31821 269.162386 
L 216.869119 267.891127 
L 220.420028 265.944461 
L 223.970937 263.126867 
L 227.521847 259.316131 
L 231.072756 254.519475 
L 234.623665 248.873192 
L 238.174574 242.585928 
L 241.725483 235.87034 
L 245.276392 228.901637 
L 248.827301 221.807883 
L 252.37821 214.678195 
L 255.929119 207.575789 
L 259.480028 200.549419 
L 263.030937 193.641282 
L 266.581847 186.891272 
L 270.132756 180.338028 
L 273.683665 174.017413 
L 277.234574 167.959373 
L 280.785483 162.184475 
L 284.336392 156.701558 
L 287.887301 151.507503 
L 291.43821 146.589263 
L 294.989119 141.92735 
L 298.540028 137.499499 
L 302.090937 133.283388 
L 305.641847 129.257982 
L 309.192756 125.403698 
L 312.743665 121.702003 
L 316.294574 118.135037 
L 319.845483 114.685607 
L 323.396392 111.337568 
L 326.947301 108.076401 
L 330.49821 104.889699 
L 334.049119 101.767395 
L 337.600028 98.701648 
L 341.150937 95.686447 
L 344.701847 92.717089 
L 348.252756 89.789672 
L 351.803665 86.90072 
L 355.354574 84.046992 
L 358.905483 81.225443 
L 362.456392 78.433282 
L 366.007301 75.668045 
L 369.55821 72.927653 
L 373.109119 70.210443 
L 376.660028 67.515191 
L 380.210938 64.841159 
L 383.761847 62.188164 
L 387.312756 59.556617 
L 390.863665 56.947482 
L 394.414574 54.362071 
L 397.965483 51.801693 
L 401.516392 49.267227 
L 405.067301 46.758767 
L 408.61821 44.275471 
L 412.169119 41.81571 
L 415.720028 39.377449 
L 419.270937 36.958758 
L 422.821847 34.558228 
L 426.372756 32.175199 
L 429.923665 29.809721 
L 433.474574 27.462318 
L 437.025483 25.133675 
L 440.576392 22.824341 
" clip-path="url(#pfbe0390eac)" style="fill: none; stroke: #1f77b4; stroke-width: 1.5; stroke-linecap: square"/>
   </g>
   <g id="patch_3">
    <path d="M 67.730938 284.4 
L 67.730938 7.2 
" style="fill: none; stroke: #000000; stroke-width: 0.8; stroke-linejoin: miter; stroke-linecap: square"/>
   </g>
   <g id="patch_4">
    <path d="M 458.330938 284.4 
L 458.330938 7.2 
" style="fill: none; stroke: #000000; stroke-width: 0.8; stroke-linejoin: miter; stroke-linecap: square"/>
   </g>
   <g id="patch_5">
    <path d="M 67.730937 284.4 
L 458.330937 284.4 
" style="fill: none; stroke: #000000; stroke-width: 0.8; stroke-linejoin: miter; stroke-linecap: square"/>
   </g>
   <g id="patch_6">
    <path d="M 67.730937 7.2 
L 458.330937 7.2 
" style="fill: none; stroke: #000000; stroke-width: 0.8; stroke-linejoin: miter; stroke-linecap: square"/>
   </g>
  </g>
  <g id="text_15">
   <!-- Twist coefficients $z_0$ and $z_1$. M=5 Jackknife bins -->
   <g transform="translate(55.130938 327.6) scale(0.11 -0.11)">
    <defs>
     <path id="DejaVuSans-Oblique-54" d="M 378 4666 
L 4325 4666 
L 4225 4134 
L 2559 4134 
L 1759 0 
L 1125 0 
L 1925 4134 
L 275 4134 
L 378 4666 
z
" transform="scale(0.015625)"/>
     <path id="DejaVuSans-Oblique-77" d="M 544 3500 
L 1113 3500 
L 1259 684 
L 2566 3500 
L 3231 3500 
L 3425 684 
L 4666 3500 
L 5241 3500 
L 3641 0 
L 2969 0 
L 2797 2900 
L 1459 0 
L 781 0 
L 544 3500 
z
" transform="scale(0.015625)"/>
     <path id="DejaVuSans-Oblique-69" d="M 1172 4863 
L 1747 4863 
L 1606 4134 
L 1031 4134 
L 1172 4863 
z
M 909 3500 
L 1484 3500 
L 800 0 
L 225 0 
L 909 3500 
z
" transform="scale(0.015625)"/>
     <path id="DejaVuSans-Oblique-73" d="M 3200 3397 
L 3091 2853 
Q 2863 2978 2609 3040 
Q 2356 3103 2088 3103 
Q 1634 3103 1373 2948 
Q 1113 2794 1113 2528 
Q 1113 2219 1719 2053 
Q 1766 2041 1788 2034 
L 1972 1978 
Q 2547 1819 2739 1644 
Q 2931 1469 2931 1166 
Q 2931 609 2489 259 
Q 2047 -91 1331 -91 
Q 1053 -91 747 -37 
Q 441 16 72 128 
L 184 722 
Q 500 559 806 475 
Q 1113 391 1394 391 
Q 1816 391 2080 572 
Q 2344 753 2344 1031 
Q 2344 1331 1650 1516 
L 1591 1531 
L 1394 1581 
Q 956 1697 753 1886 
Q 550 2075 550 2369 
Q 550 2928 970 3256 
Q 1391 3584 2113 3584 
Q 2397 3584 2667 3537 
Q 2938 3491 3200 3397 
z
" transform="scale(0.015625)"/>
     <path id="DejaVuSans-Oblique-20" transform="scale(0.015625)"/>
     <path id="DejaVuSans-Oblique-63" d="M 3431 3366 
L 3316 2797 
Q 3109 2947 2876 3022 
Q 2644 3097 2394 3097 
Q 2119 3097 1870 3000 
Q 1622 2903 1453 2725 
Q 1184 2453 1037 2087 
Q 891 1722 891 1331 
Q 891 859 1127 628 
Q 1363 397 1844 397 
Q 2081 397 2348 469 
Q 2616 541 2906 684 
L 2797 116 
Q 2547 13 2283 -39 
Q 2019 -91 1741 -91 
Q 1044 -91 669 257 
Q 294 606 294 1253 
Q 294 1797 489 2255 
Q 684 2713 1069 3078 
Q 1331 3328 1684 3456 
Q 2038 3584 2456 3584 
Q 2700 3584 2940 3529 
Q 3181 3475 3431 3366 
z
" transform="scale(0.015625)"/>
     <path id="DejaVuSans-Oblique-6f" d="M 1625 -91 
Q 1009 -91 651 289 
Q 294 669 294 1325 
Q 294 1706 417 2101 
Q 541 2497 738 2766 
Q 1047 3184 1428 3384 
Q 1809 3584 2291 3584 
Q 2888 3584 3255 3212 
Q 3622 2841 3622 2241 
Q 3622 1825 3500 1412 
Q 3378 1000 3181 728 
Q 2875 309 2494 109 
Q 2113 -91 1625 -91 
z
M 891 1344 
Q 891 869 1089 633 
Q 1288 397 1691 397 
Q 2269 397 2648 901 
Q 3028 1406 3028 2181 
Q 3028 2634 2825 2865 
Q 2622 3097 2228 3097 
Q 1903 3097 1650 2945 
Q 1397 2794 1197 2484 
Q 1050 2253 970 1956 
Q 891 1659 891 1344 
z
" transform="scale(0.015625)"/>
     <path id="DejaVuSans-Oblique-65" d="M 3078 2063 
Q 3088 2113 3092 2166 
Q 3097 2219 3097 2272 
Q 3097 2653 2873 2875 
Q 2650 3097 2266 3097 
Q 1838 3097 1509 2826 
Q 1181 2556 1013 2059 
L 3078 2063 
z
M 3578 1613 
L 903 1613 
Q 884 1494 878 1425 
Q 872 1356 872 1306 
Q 872 872 1139 634 
Q 1406 397 1894 397 
Q 2269 397 2603 481 
Q 2938 566 3225 728 
L 3116 159 
Q 2806 34 2476 -28 
Q 2147 -91 1806 -91 
Q 1078 -91 686 257 
Q 294 606 294 1247 
Q 294 1794 489 2264 
Q 684 2734 1063 3103 
Q 1306 3334 1642 3459 
Q 1978 3584 2356 3584 
Q 2950 3584 3301 3228 
Q 3653 2872 3653 2272 
Q 3653 2128 3634 1964 
Q 3616 1800 3578 1613 
z
" transform="scale(0.015625)"/>
     <path id="DejaVuSans-Oblique-66" d="M 3059 4863 
L 2969 4384 
L 2419 4384 
Q 2106 4384 1964 4261 
Q 1822 4138 1753 3809 
L 1691 3500 
L 2638 3500 
L 2553 3053 
L 1606 3053 
L 1013 0 
L 434 0 
L 1031 3053 
L 481 3053 
L 563 3500 
L 1113 3500 
L 1159 3744 
Q 1278 4363 1576 4613 
Q 1875 4863 2516 4863 
L 3059 4863 
z
" transform="scale(0.015625)"/>
     <path id="DejaVuSans-Oblique-7a" d="M 744 3500 
L 3475 3500 
L 3372 2975 
L 738 459 
L 2913 459 
L 2822 0 
L -19 0 
L 84 525 
L 2719 3041 
L 653 3041 
L 744 3500 
z
" transform="scale(0.015625)"/>
     <path id="DejaVuSans-Oblique-61" d="M 3438 1997 
L 3047 0 
L 2472 0 
L 2578 531 
Q 2325 219 2001 64 
Q 1678 -91 1281 -91 
Q 834 -91 548 182 
Q 263 456 263 884 
Q 263 1497 752 1853 
Q 1241 2209 2100 2209 
L 2900 2209 
L 2931 2363 
Q 2938 2388 2941 2417 
Q 2944 2447 2944 2509 
Q 2944 2788 2717 2942 
Q 2491 3097 2081 3097 
Q 1800 3097 1504 3025 
Q 1209 2953 897 2809 
L 997 3341 
Q 1322 3463 1633 3523 
Q 1944 3584 2234 3584 
Q 2853 3584 3176 3315 
Q 3500 3047 3500 2534 
Q 3500 2431 3484 2292 
Q 3469 2153 3438 1997 
z
M 2816 1759 
L 2241 1759 
Q 1534 1759 1195 1570 
Q 856 1381 856 984 
Q 856 709 1029 553 
Q 1203 397 1509 397 
Q 1978 397 2328 733 
Q 2678 1069 2791 1631 
L 2816 1759 
z
" transform="scale(0.015625)"/>
     <path id="DejaVuSans-Oblique-2e" d="M 525 794 
L 1184 794 
L 1031 0 
L 372 0 
L 525 794 
z
" transform="scale(0.015625)"/>
     <path id="DejaVuSans-Oblique-4d" d="M 1081 4666 
L 2028 4666 
L 2572 1522 
L 4378 4666 
L 5350 4666 
L 4441 0 
L 3828 0 
L 4622 4091 
L 2791 897 
L 2175 897 
L 1581 4103 
L 788 0 
L 172 0 
L 1081 4666 
z
" transform="scale(0.015625)"/>
     <path id="DejaVuSans-Oblique-3d" d="M 678 2906 
L 4684 2906 
L 4684 2381 
L 678 2381 
L 678 2906 
z
M 678 1631 
L 4684 1631 
L 4684 1100 
L 678 1100 
L 678 1631 
z
" transform="scale(0.015625)"/>
     <path id="DejaVuSans-Oblique-35" d="M 3719 4666 
L 3622 4141 
L 1691 4141 
L 1466 2988 
Q 1609 3034 1757 3056 
Q 1906 3078 2059 3078 
Q 2706 3078 3081 2731 
Q 3456 2384 3456 1791 
Q 3456 1375 3264 994 
Q 3072 613 2719 325 
Q 2469 125 2108 17 
Q 1747 -91 1319 -91 
Q 1038 -91 744 -41 
Q 450 9 128 109 
L 244 697 
Q 531 556 820 486 
Q 1109 416 1403 416 
Q 2013 416 2411 781 
Q 2809 1147 2809 1697 
Q 2809 2103 2548 2328 
Q 2288 2553 1819 2553 
Q 1572 2553 1305 2495 
Q 1038 2438 756 2322 
L 1209 4666 
L 3719 4666 
z
" transform="scale(0.015625)"/>
     <path id="DejaVuSans-Oblique-4a" d="M 1069 4666 
L 1703 4666 
L 856 325 
Q 691 -522 298 -901 
Q -94 -1281 -800 -1281 
L -1050 -1281 
L -947 -750 
L -750 -750 
Q -328 -750 -109 -509 
Q 109 -269 225 325 
L 1069 4666 
z
" transform="scale(0.015625)"/>
     <path id="DejaVuSans-Oblique-6b" d="M 1172 4863 
L 1747 4863 
L 1197 2028 
L 3169 3500 
L 3916 3500 
L 1716 1825 
L 3322 0 
L 2625 0 
L 1131 1709 
L 800 0 
L 225 0 
L 1172 4863 
z
" transform="scale(0.015625)"/>
     <path id="DejaVuSans-Oblique-62" d="M 3169 2138 
Q 3169 2591 2961 2847 
Q 2753 3103 2388 3103 
Q 2122 3103 1889 2973 
Q 1656 2844 1484 2597 
Q 1303 2338 1198 1995 
Q 1094 1653 1094 1313 
Q 1094 881 1298 636 
Q 1503 391 1863 391 
Q 2134 391 2365 517 
Q 2597 644 2772 891 
Q 2950 1147 3059 1487 
Q 3169 1828 3169 2138 
z
M 1381 2969 
Q 1594 3256 1914 3420 
Q 2234 3584 2584 3584 
Q 3122 3584 3439 3221 
Q 3756 2859 3756 2241 
Q 3756 1734 3570 1259 
Q 3384 784 3041 416 
Q 2816 172 2522 40 
Q 2228 -91 1906 -91 
Q 1566 -91 1316 65 
Q 1066 222 909 531 
L 806 0 
L 231 0 
L 1178 4863 
L 1753 4863 
L 1381 2969 
z
" transform="scale(0.015625)"/>
    </defs>
    <use xlink:href="#DejaVuSans-Oblique-54" transform="translate(0 0.015625)"/>
    <use xlink:href="#DejaVuSans-Oblique-77" transform="translate(61.083984 0.015625)"/>
    <use xlink:href="#DejaVuSans-Oblique-69" transform="translate(142.871094 0.015625)"/>
    <use xlink:href="#DejaVuSans-Oblique-73" transform="translate(170.654297 0.015625)"/>
    <use xlink:href="#DejaVuSans-Oblique-74" transform="translate(222.753906 0.015625)"/>
    <use xlink:href="#DejaVuSans-Oblique-20" transform="translate(261.962891 0.015625)"/>
    <use xlink:href="#DejaVuSans-Oblique-63" transform="translate(293.75 0.015625)"/>
    <use xlink:href="#DejaVuSans-Oblique-6f" transform="translate(348.730469 0.015625)"/>
    <use xlink:href="#DejaVuSans-Oblique-65" transform="translate(409.912109 0.015625)"/>
    <use xlink:href="#DejaVuSans-Oblique-66" transform="translate(471.435547 0.015625)"/>
    <use xlink:href="#DejaVuSans-Oblique-66" transform="translate(506.640625 0.015625)"/>
    <use xlink:href="#DejaVuSans-Oblique-69" transform="translate(541.845703 0.015625)"/>
    <use xlink:href="#DejaVuSans-Oblique-63" transform="translate(569.628906 0.015625)"/>
    <use xlink:href="#DejaVuSans-Oblique-69" transform="translate(624.609375 0.015625)"/>
    <use xlink:href="#DejaVuSans-Oblique-65" transform="translate(652.392578 0.015625)"/>
    <use xlink:href="#DejaVuSans-Oblique-6e" transform="translate(713.916016 0.015625)"/>
    <use xlink:href="#DejaVuSans-Oblique-74" transform="translate(777.294922 0.015625)"/>
    <use xlink:href="#DejaVuSans-Oblique-73" transform="translate(816.503906 0.015625)"/>
    <use xlink:href="#DejaVuSans-Oblique-20" transform="translate(868.603516 0.015625)"/>
    <use xlink:href="#DejaVuSans-Oblique-7a" transform="translate(900.390625 0.015625)"/>
    <use xlink:href="#DejaVuSans-30" transform="translate(952.880859 -16.390625) scale(0.7)"/>
    <use xlink:href="#DejaVuSans-Oblique-20" transform="translate(1000.151367 0.015625)"/>
    <use xlink:href="#DejaVuSans-Oblique-61" transform="translate(1031.938477 0.015625)"/>
    <use xlink:href="#DejaVuSans-Oblique-6e" transform="translate(1093.217773 0.015625)"/>
    <use xlink:href="#DejaVuSans-Oblique-64" transform="translate(1156.59668 0.015625)"/>
    <use xlink:href="#DejaVuSans-Oblique-20" transform="translate(1220.073242 0.015625)"/>
    <use xlink:href="#DejaVuSans-Oblique-7a" transform="translate(1251.860352 0.015625)"/>
    <use xlink:href="#DejaVuSans-31" transform="translate(1304.350586 -16.390625) scale(0.7)"/>
    <use xlink:href="#DejaVuSans-Oblique-2e" transform="translate(1351.621094 0.015625)"/>
    <use xlink:href="#DejaVuSans-Oblique-20" transform="translate(1383.408203 0.015625)"/>
    <use xlink:href="#DejaVuSans-Oblique-4d" transform="translate(1415.195312 0.015625)"/>
    <use xlink:href="#DejaVuSans-Oblique-3d" transform="translate(1501.474609 0.015625)"/>
    <use xlink:href="#DejaVuSans-Oblique-35" transform="translate(1585.263672 0.015625)"/>
    <use xlink:href="#DejaVuSans-Oblique-20" transform="translate(1648.886719 0.015625)"/>
    <use xlink:href="#DejaVuSans-Oblique-4a" transform="translate(1680.673828 0.015625)"/>
    <use xlink:href="#DejaVuSans-Oblique-61" transform="translate(1710.166016 0.015625)"/>
    <use xlink:href="#DejaVuSans-Oblique-63" transform="translate(1771.445312 0.015625)"/>
    <use xlink:href="#DejaVuSans-Oblique-6b" transform="translate(1826.425781 0.015625)"/>
    <use xlink:href="#DejaVuSans-Oblique-6b" transform="translate(1884.335938 0.015625)"/>
    <use xlink:href="#DejaVuSans-Oblique-6e" transform="translate(1942.246094 0.015625)"/>
    <use xlink:href="#DejaVuSans-Oblique-69" transform="translate(2005.625 0.015625)"/>
    <use xlink:href="#DejaVuSans-Oblique-66" transform="translate(2033.408203 0.015625)"/>
    <use xlink:href="#DejaVuSans-Oblique-65" transform="translate(2068.613281 0.015625)"/>
    <use xlink:href="#DejaVuSans-Oblique-20" transform="translate(2130.136719 0.015625)"/>
    <use xlink:href="#DejaVuSans-Oblique-62" transform="translate(2161.923828 0.015625)"/>
    <use xlink:href="#DejaVuSans-Oblique-69" transform="translate(2225.400391 0.015625)"/>
    <use xlink:href="#DejaVuSans-Oblique-6e" transform="translate(2253.183594 0.015625)"/>
    <use xlink:href="#DejaVuSans-Oblique-73" transform="translate(2316.5625 0.015625)"/>
   </g>
  </g>
 </g>
 <defs>
  <clipPath id="pfbe0390eac">
   <rect x="67.730938" y="7.2" width="390.6" height="277.2"/>
  </clipPath>
 </defs>
</svg>
