<?xml version="1.0" encoding="utf-8" standalone="no"?>
<!DOCTYPE svg PUBLIC "-//W3C//DTD SVG 1.1//EN"
  "http://www.w3.org/Graphics/SVG/1.1/DTD/svg11.dtd">
<svg xmlns:xlink="http://www.w3.org/1999/xlink" width="491.708187pt" height="368.259132pt" viewBox="0 0 491.708187 368.259132" xmlns="http://www.w3.org/2000/svg" version="1.1">
 <metadata>
  <rdf:RDF xmlns:dc="http://purl.org/dc/elements/1.1/" xmlns:cc="http://creativecommons.org/ns#" xmlns:rdf="http://www.w3.org/1999/02/22-rdf-syntax-ns#">
   <cc:Work>
    <dc:type rdf:resource="http://purl.org/dc/dcmitype/StillImage"/>
    <dc:date>2024-05-10T14:17:07.152073</dc:date>
    <dc:format>image/svg+xml</dc:format>
    <dc:creator>
     <cc:Agent>
      <dc:title>Matplotlib v3.8.0, https://matplotlib.org/</dc:title>
     </cc:Agent>
    </dc:creator>
   </cc:Work>
  </rdf:RDF>
 </metadata>
 <defs>
  <style type="text/css">*{stroke-linejoin: round; stroke-linecap: butt}</style>
 </defs>
 <g id="figure_1">
  <g id="patch_1">
   <path d="M 0 368.259132 
L 491.708187 368.259132 
L 491.708187 -0 
L 0 -0 
z
" style="fill: #ffffff"/>
  </g>
  <g id="axes_1">
   <g id="patch_2">
    <path d="M 73.299688 307.811476 
L 484.508187 307.811476 
L 484.508187 11.261672 
L 73.299688 11.261672 
z
" style="fill: #ffffff"/>
   </g>
   <g id="matplotlib.axis_1">
    <g id="xtick_1">
     <g id="line2d_1">
      <defs>
       <path id="md7b47c9e54" d="M 0 0 
L 0 3.5 
" style="stroke: #000000; stroke-width: 0.8"/>
      </defs>
      <g>
       <use xlink:href="#md7b47c9e54" x="129.373574" y="307.811476" style="stroke: #000000; stroke-width: 0.8"/>
      </g>
     </g>
     <g id="text_1">
      <!-- 10.76 -->
      <g transform="translate(113.628105 323.169757) scale(0.11 -0.11)">
       <defs>
        <path id="DejaVuSans-31" d="M 794 531 
L 1825 531 
L 1825 4091 
L 703 3866 
L 703 4441 
L 1819 4666 
L 2450 4666 
L 2450 531 
L 3481 531 
L 3481 0 
L 794 0 
L 794 531 
z
" transform="scale(0.015625)"/>
        <path id="DejaVuSans-30" d="M 2034 4250 
Q 1547 4250 1301 3770 
Q 1056 3291 1056 2328 
Q 1056 1369 1301 889 
Q 1547 409 2034 409 
Q 2525 409 2770 889 
Q 3016 1369 3016 2328 
Q 3016 3291 2770 3770 
Q 2525 4250 2034 4250 
z
M 2034 4750 
Q 2819 4750 3233 4129 
Q 3647 3509 3647 2328 
Q 3647 1150 3233 529 
Q 2819 -91 2034 -91 
Q 1250 -91 836 529 
Q 422 1150 422 2328 
Q 422 3509 836 4129 
Q 1250 4750 2034 4750 
z
" transform="scale(0.015625)"/>
        <path id="DejaVuSans-2e" d="M 684 794 
L 1344 794 
L 1344 0 
L 684 0 
L 684 794 
z
" transform="scale(0.015625)"/>
        <path id="DejaVuSans-37" d="M 525 4666 
L 3525 4666 
L 3525 4397 
L 1831 0 
L 1172 0 
L 2766 4134 
L 525 4134 
L 525 4666 
z
" transform="scale(0.015625)"/>
        <path id="DejaVuSans-36" d="M 2113 2584 
Q 1688 2584 1439 2293 
Q 1191 2003 1191 1497 
Q 1191 994 1439 701 
Q 1688 409 2113 409 
Q 2538 409 2786 701 
Q 3034 994 3034 1497 
Q 3034 2003 2786 2293 
Q 2538 2584 2113 2584 
z
M 3366 4563 
L 3366 3988 
Q 3128 4100 2886 4159 
Q 2644 4219 2406 4219 
Q 1781 4219 1451 3797 
Q 1122 3375 1075 2522 
Q 1259 2794 1537 2939 
Q 1816 3084 2150 3084 
Q 2853 3084 3261 2657 
Q 3669 2231 3669 1497 
Q 3669 778 3244 343 
Q 2819 -91 2113 -91 
Q 1303 -91 875 529 
Q 447 1150 447 2328 
Q 447 3434 972 4092 
Q 1497 4750 2381 4750 
Q 2619 4750 2861 4703 
Q 3103 4656 3366 4563 
z
" transform="scale(0.015625)"/>
       </defs>
       <use xlink:href="#DejaVuSans-31"/>
       <use xlink:href="#DejaVuSans-30" x="63.623047"/>
       <use xlink:href="#DejaVuSans-2e" x="127.246094"/>
       <use xlink:href="#DejaVuSans-37" x="159.033203"/>
       <use xlink:href="#DejaVuSans-36" x="222.65625"/>
      </g>
     </g>
    </g>
    <g id="xtick_2">
     <g id="line2d_2">
      <g>
       <use xlink:href="#md7b47c9e54" x="204.138756" y="307.811476" style="stroke: #000000; stroke-width: 0.8"/>
      </g>
     </g>
     <g id="text_2">
      <!-- 10.78 -->
      <g transform="translate(188.393287 323.169757) scale(0.11 -0.11)">
       <defs>
        <path id="DejaVuSans-38" d="M 2034 2216 
Q 1584 2216 1326 1975 
Q 1069 1734 1069 1313 
Q 1069 891 1326 650 
Q 1584 409 2034 409 
Q 2484 409 2743 651 
Q 3003 894 3003 1313 
Q 3003 1734 2745 1975 
Q 2488 2216 2034 2216 
z
M 1403 2484 
Q 997 2584 770 2862 
Q 544 3141 544 3541 
Q 544 4100 942 4425 
Q 1341 4750 2034 4750 
Q 2731 4750 3128 4425 
Q 3525 4100 3525 3541 
Q 3525 3141 3298 2862 
Q 3072 2584 2669 2484 
Q 3125 2378 3379 2068 
Q 3634 1759 3634 1313 
Q 3634 634 3220 271 
Q 2806 -91 2034 -91 
Q 1263 -91 848 271 
Q 434 634 434 1313 
Q 434 1759 690 2068 
Q 947 2378 1403 2484 
z
M 1172 3481 
Q 1172 3119 1398 2916 
Q 1625 2713 2034 2713 
Q 2441 2713 2670 2916 
Q 2900 3119 2900 3481 
Q 2900 3844 2670 4047 
Q 2441 4250 2034 4250 
Q 1625 4250 1398 4047 
Q 1172 3844 1172 3481 
z
" transform="scale(0.015625)"/>
       </defs>
       <use xlink:href="#DejaVuSans-31"/>
       <use xlink:href="#DejaVuSans-30" x="63.623047"/>
       <use xlink:href="#DejaVuSans-2e" x="127.246094"/>
       <use xlink:href="#DejaVuSans-37" x="159.033203"/>
       <use xlink:href="#DejaVuSans-38" x="222.65625"/>
      </g>
     </g>
    </g>
    <g id="xtick_3">
     <g id="line2d_3">
      <g>
       <use xlink:href="#md7b47c9e54" x="278.903938" y="307.811476" style="stroke: #000000; stroke-width: 0.8"/>
      </g>
     </g>
     <g id="text_3">
      <!-- 10.80 -->
      <g transform="translate(263.158469 323.169757) scale(0.11 -0.11)">
       <use xlink:href="#DejaVuSans-31"/>
       <use xlink:href="#DejaVuSans-30" x="63.623047"/>
       <use xlink:href="#DejaVuSans-2e" x="127.246094"/>
       <use xlink:href="#DejaVuSans-38" x="159.033203"/>
       <use xlink:href="#DejaVuSans-30" x="222.65625"/>
      </g>
     </g>
    </g>
    <g id="xtick_4">
     <g id="line2d_4">
      <g>
       <use xlink:href="#md7b47c9e54" x="353.669119" y="307.811476" style="stroke: #000000; stroke-width: 0.8"/>
      </g>
     </g>
     <g id="text_4">
      <!-- 10.82 -->
      <g transform="translate(337.923651 323.169757) scale(0.11 -0.11)">
       <defs>
        <path id="DejaVuSans-32" d="M 1228 531 
L 3431 531 
L 3431 0 
L 469 0 
L 469 531 
Q 828 903 1448 1529 
Q 2069 2156 2228 2338 
Q 2531 2678 2651 2914 
Q 2772 3150 2772 3378 
Q 2772 3750 2511 3984 
Q 2250 4219 1831 4219 
Q 1534 4219 1204 4116 
Q 875 4013 500 3803 
L 500 4441 
Q 881 4594 1212 4672 
Q 1544 4750 1819 4750 
Q 2544 4750 2975 4387 
Q 3406 4025 3406 3419 
Q 3406 3131 3298 2873 
Q 3191 2616 2906 2266 
Q 2828 2175 2409 1742 
Q 1991 1309 1228 531 
z
" transform="scale(0.015625)"/>
       </defs>
       <use xlink:href="#DejaVuSans-31"/>
       <use xlink:href="#DejaVuSans-30" x="63.623047"/>
       <use xlink:href="#DejaVuSans-2e" x="127.246094"/>
       <use xlink:href="#DejaVuSans-38" x="159.033203"/>
       <use xlink:href="#DejaVuSans-32" x="222.65625"/>
      </g>
     </g>
    </g>
    <g id="xtick_5">
     <g id="line2d_5">
      <g>
       <use xlink:href="#md7b47c9e54" x="428.434301" y="307.811476" style="stroke: #000000; stroke-width: 0.8"/>
      </g>
     </g>
     <g id="text_5">
      <!-- 10.84 -->
      <g transform="translate(412.688832 323.169757) scale(0.11 -0.11)">
       <defs>
        <path id="DejaVuSans-34" d="M 2419 4116 
L 825 1625 
L 2419 1625 
L 2419 4116 
z
M 2253 4666 
L 3047 4666 
L 3047 1625 
L 3713 1625 
L 3713 1100 
L 3047 1100 
L 3047 0 
L 2419 0 
L 2419 1100 
L 313 1100 
L 313 1709 
L 2253 4666 
z
" transform="scale(0.015625)"/>
       </defs>
       <use xlink:href="#DejaVuSans-31"/>
       <use xlink:href="#DejaVuSans-30" x="63.623047"/>
       <use xlink:href="#DejaVuSans-2e" x="127.246094"/>
       <use xlink:href="#DejaVuSans-38" x="159.033203"/>
       <use xlink:href="#DejaVuSans-34" x="222.65625"/>
      </g>
     </g>
    </g>
    <g id="text_6">
     <!-- $\beta$ -->
     <g transform="translate(275.383937 337.927413) scale(0.11 -0.11)">
      <defs>
       <path id="DejaVuSans-Oblique-3b2" d="M 872 216 
L 572 -1331 
L -6 -1331 
L 928 3478 
Q 1206 4903 2538 4903 
Q 3888 4903 3659 3700 
Q 3503 2844 2894 2531 
Q 3713 2250 3553 1416 
Q 3272 -69 1759 -66 
Q 1097 -63 872 216 
z
M 1019 966 
Q 1259 422 1875 425 
Q 2775 425 2966 1406 
Q 3138 2288 1675 2219 
L 1778 2750 
Q 2909 2731 3106 3750 
Q 3241 4438 2509 4434 
Q 1691 4434 1503 3459 
L 1019 966 
z
" transform="scale(0.015625)"/>
      </defs>
      <use xlink:href="#DejaVuSans-Oblique-3b2" transform="translate(0 0.390625)"/>
     </g>
    </g>
   </g>
   <g id="matplotlib.axis_2">
    <g id="ytick_1">
     <g id="line2d_6">
      <defs>
       <path id="m94a4419b04" d="M 0 0 
L -3.5 0 
" style="stroke: #000000; stroke-width: 0.8"/>
      </defs>
      <g>
       <use xlink:href="#m94a4419b04" x="73.299688" y="290.468148" style="stroke: #000000; stroke-width: 0.8"/>
      </g>
     </g>
     <g id="text_7">
      <!-- 0.0000 -->
      <g transform="translate(27.81 294.647289) scale(0.11 -0.11)">
       <use xlink:href="#DejaVuSans-30"/>
       <use xlink:href="#DejaVuSans-2e" x="63.623047"/>
       <use xlink:href="#DejaVuSans-30" x="95.410156"/>
       <use xlink:href="#DejaVuSans-30" x="159.033203"/>
       <use xlink:href="#DejaVuSans-30" x="222.65625"/>
       <use xlink:href="#DejaVuSans-30" x="286.279297"/>
      </g>
     </g>
    </g>
    <g id="ytick_2">
     <g id="line2d_7">
      <g>
       <use xlink:href="#m94a4419b04" x="73.299688" y="250.59829" style="stroke: #000000; stroke-width: 0.8"/>
      </g>
     </g>
     <g id="text_8">
      <!-- 0.0001 -->
      <g transform="translate(27.81 254.77743) scale(0.11 -0.11)">
       <use xlink:href="#DejaVuSans-30"/>
       <use xlink:href="#DejaVuSans-2e" x="63.623047"/>
       <use xlink:href="#DejaVuSans-30" x="95.410156"/>
       <use xlink:href="#DejaVuSans-30" x="159.033203"/>
       <use xlink:href="#DejaVuSans-30" x="222.65625"/>
       <use xlink:href="#DejaVuSans-31" x="286.279297"/>
      </g>
     </g>
    </g>
    <g id="ytick_3">
     <g id="line2d_8">
      <g>
       <use xlink:href="#m94a4419b04" x="73.299688" y="210.728432" style="stroke: #000000; stroke-width: 0.8"/>
      </g>
     </g>
     <g id="text_9">
      <!-- 0.0002 -->
      <g transform="translate(27.81 214.907572) scale(0.11 -0.11)">
       <use xlink:href="#DejaVuSans-30"/>
       <use xlink:href="#DejaVuSans-2e" x="63.623047"/>
       <use xlink:href="#DejaVuSans-30" x="95.410156"/>
       <use xlink:href="#DejaVuSans-30" x="159.033203"/>
       <use xlink:href="#DejaVuSans-30" x="222.65625"/>
       <use xlink:href="#DejaVuSans-32" x="286.279297"/>
      </g>
     </g>
    </g>
    <g id="ytick_4">
     <g id="line2d_9">
      <g>
       <use xlink:href="#m94a4419b04" x="73.299688" y="170.858573" style="stroke: #000000; stroke-width: 0.8"/>
      </g>
     </g>
     <g id="text_10">
      <!-- 0.0003 -->
      <g transform="translate(27.81 175.037714) scale(0.11 -0.11)">
       <defs>
        <path id="DejaVuSans-33" d="M 2597 2516 
Q 3050 2419 3304 2112 
Q 3559 1806 3559 1356 
Q 3559 666 3084 287 
Q 2609 -91 1734 -91 
Q 1441 -91 1130 -33 
Q 819 25 488 141 
L 488 750 
Q 750 597 1062 519 
Q 1375 441 1716 441 
Q 2309 441 2620 675 
Q 2931 909 2931 1356 
Q 2931 1769 2642 2001 
Q 2353 2234 1838 2234 
L 1294 2234 
L 1294 2753 
L 1863 2753 
Q 2328 2753 2575 2939 
Q 2822 3125 2822 3475 
Q 2822 3834 2567 4026 
Q 2313 4219 1838 4219 
Q 1578 4219 1281 4162 
Q 984 4106 628 3988 
L 628 4550 
Q 988 4650 1302 4700 
Q 1616 4750 1894 4750 
Q 2613 4750 3031 4423 
Q 3450 4097 3450 3541 
Q 3450 3153 3228 2886 
Q 3006 2619 2597 2516 
z
" transform="scale(0.015625)"/>
       </defs>
       <use xlink:href="#DejaVuSans-30"/>
       <use xlink:href="#DejaVuSans-2e" x="63.623047"/>
       <use xlink:href="#DejaVuSans-30" x="95.410156"/>
       <use xlink:href="#DejaVuSans-30" x="159.033203"/>
       <use xlink:href="#DejaVuSans-30" x="222.65625"/>
       <use xlink:href="#DejaVuSans-33" x="286.279297"/>
      </g>
     </g>
    </g>
    <g id="ytick_5">
     <g id="line2d_10">
      <g>
       <use xlink:href="#m94a4419b04" x="73.299688" y="130.988715" style="stroke: #000000; stroke-width: 0.8"/>
      </g>
     </g>
     <g id="text_11">
      <!-- 0.0004 -->
      <g transform="translate(27.81 135.167856) scale(0.11 -0.11)">
       <use xlink:href="#DejaVuSans-30"/>
       <use xlink:href="#DejaVuSans-2e" x="63.623047"/>
       <use xlink:href="#DejaVuSans-30" x="95.410156"/>
       <use xlink:href="#DejaVuSans-30" x="159.033203"/>
       <use xlink:href="#DejaVuSans-30" x="222.65625"/>
       <use xlink:href="#DejaVuSans-34" x="286.279297"/>
      </g>
     </g>
    </g>
    <g id="ytick_6">
     <g id="line2d_11">
      <g>
       <use xlink:href="#m94a4419b04" x="73.299688" y="91.118857" style="stroke: #000000; stroke-width: 0.8"/>
      </g>
     </g>
     <g id="text_12">
      <!-- 0.0005 -->
      <g transform="translate(27.81 95.297998) scale(0.11 -0.11)">
       <defs>
        <path id="DejaVuSans-35" d="M 691 4666 
L 3169 4666 
L 3169 4134 
L 1269 4134 
L 1269 2991 
Q 1406 3038 1543 3061 
Q 1681 3084 1819 3084 
Q 2600 3084 3056 2656 
Q 3513 2228 3513 1497 
Q 3513 744 3044 326 
Q 2575 -91 1722 -91 
Q 1428 -91 1123 -41 
Q 819 9 494 109 
L 494 744 
Q 775 591 1075 516 
Q 1375 441 1709 441 
Q 2250 441 2565 725 
Q 2881 1009 2881 1497 
Q 2881 1984 2565 2268 
Q 2250 2553 1709 2553 
Q 1456 2553 1204 2497 
Q 953 2441 691 2322 
L 691 4666 
z
" transform="scale(0.015625)"/>
       </defs>
       <use xlink:href="#DejaVuSans-30"/>
       <use xlink:href="#DejaVuSans-2e" x="63.623047"/>
       <use xlink:href="#DejaVuSans-30" x="95.410156"/>
       <use xlink:href="#DejaVuSans-30" x="159.033203"/>
       <use xlink:href="#DejaVuSans-30" x="222.65625"/>
       <use xlink:href="#DejaVuSans-35" x="286.279297"/>
      </g>
     </g>
    </g>
    <g id="ytick_7">
     <g id="line2d_12">
      <g>
       <use xlink:href="#m94a4419b04" x="73.299688" y="51.248999" style="stroke: #000000; stroke-width: 0.8"/>
      </g>
     </g>
     <g id="text_13">
      <!-- 0.0006 -->
      <g transform="translate(27.81 55.428139) scale(0.11 -0.11)">
       <use xlink:href="#DejaVuSans-30"/>
       <use xlink:href="#DejaVuSans-2e" x="63.623047"/>
       <use xlink:href="#DejaVuSans-30" x="95.410156"/>
       <use xlink:href="#DejaVuSans-30" x="159.033203"/>
       <use xlink:href="#DejaVuSans-30" x="222.65625"/>
       <use xlink:href="#DejaVuSans-36" x="286.279297"/>
      </g>
     </g>
    </g>
    <g id="ytick_8">
     <g id="line2d_13">
      <g>
       <use xlink:href="#m94a4419b04" x="73.299688" y="11.379141" style="stroke: #000000; stroke-width: 0.8"/>
      </g>
     </g>
     <g id="text_14">
      <!-- 0.0007 -->
      <g transform="translate(27.81 15.558281) scale(0.11 -0.11)">
       <use xlink:href="#DejaVuSans-30"/>
       <use xlink:href="#DejaVuSans-2e" x="63.623047"/>
       <use xlink:href="#DejaVuSans-30" x="95.410156"/>
       <use xlink:href="#DejaVuSans-30" x="159.033203"/>
       <use xlink:href="#DejaVuSans-30" x="222.65625"/>
       <use xlink:href="#DejaVuSans-37" x="286.279297"/>
      </g>
     </g>
    </g>
    <g id="text_15">
     <!-- $\frac{1}{6\cdot V \cdot\beta}\langle S_{t} - S_{nt} \rangle$ -->
     <g transform="translate(17.65 197.046574) rotate(-90) scale(0.11 -0.11)">
      <defs>
       <path id="DejaVuSans-22c5" d="M 684 2619 
L 1344 2619 
L 1344 1825 
L 684 1825 
L 684 2619 
z
" transform="scale(0.015625)"/>
       <path id="DejaVuSans-Oblique-56" d="M 1319 0 
L 500 4666 
L 1119 4666 
L 1797 653 
L 4063 4666 
L 4750 4666 
L 2053 0 
L 1319 0 
z
" transform="scale(0.015625)"/>
       <path id="DejaVuSans-27e8" d="M 572 2006 
L 1453 4856 
L 1984 4856 
L 1103 2006 
L 1984 -844 
L 1453 -844 
L 572 2006 
z
" transform="scale(0.015625)"/>
       <path id="DejaVuSans-Oblique-53" d="M 3859 4513 
L 3738 3897 
Q 3422 4066 3111 4152 
Q 2800 4238 2509 4238 
Q 1944 4238 1609 3991 
Q 1275 3744 1275 3334 
Q 1275 3109 1398 2989 
Q 1522 2869 2034 2731 
L 2413 2638 
Q 3053 2472 3303 2217 
Q 3553 1963 3553 1503 
Q 3553 797 2998 353 
Q 2444 -91 1538 -91 
Q 1166 -91 791 -17 
Q 416 56 38 206 
L 166 856 
Q 513 641 861 531 
Q 1209 422 1556 422 
Q 2147 422 2503 684 
Q 2859 947 2859 1369 
Q 2859 1650 2717 1795 
Q 2575 1941 2106 2059 
L 1728 2156 
Q 1081 2325 845 2545 
Q 609 2766 609 3163 
Q 609 3859 1145 4304 
Q 1681 4750 2541 4750 
Q 2875 4750 3203 4690 
Q 3531 4631 3859 4513 
z
" transform="scale(0.015625)"/>
       <path id="DejaVuSans-Oblique-74" d="M 2706 3500 
L 2619 3053 
L 1472 3053 
L 1100 1153 
Q 1081 1047 1072 975 
Q 1063 903 1063 863 
Q 1063 663 1183 572 
Q 1303 481 1569 481 
L 2150 481 
L 2053 0 
L 1503 0 
Q 991 0 739 200 
Q 488 400 488 806 
Q 488 878 497 964 
Q 506 1050 525 1153 
L 897 3053 
L 409 3053 
L 500 3500 
L 978 3500 
L 1172 4494 
L 1747 4494 
L 1556 3500 
L 2706 3500 
z
" transform="scale(0.015625)"/>
       <path id="DejaVuSans-2212" d="M 678 2272 
L 4684 2272 
L 4684 1741 
L 678 1741 
L 678 2272 
z
" transform="scale(0.015625)"/>
       <path id="DejaVuSans-Oblique-6e" d="M 3566 2113 
L 3156 0 
L 2578 0 
L 2988 2091 
Q 3016 2238 3031 2350 
Q 3047 2463 3047 2528 
Q 3047 2791 2881 2937 
Q 2716 3084 2419 3084 
Q 1956 3084 1622 2776 
Q 1288 2469 1184 1941 
L 800 0 
L 225 0 
L 903 3500 
L 1478 3500 
L 1363 2950 
Q 1603 3253 1940 3418 
Q 2278 3584 2650 3584 
Q 3113 3584 3367 3334 
Q 3622 3084 3622 2631 
Q 3622 2519 3608 2391 
Q 3594 2263 3566 2113 
z
" transform="scale(0.015625)"/>
       <path id="DejaVuSans-27e9" d="M 1925 2006 
L 1044 -844 
L 513 -844 
L 1394 2006 
L 513 4856 
L 1044 4856 
L 1925 2006 
z
" transform="scale(0.015625)"/>
      </defs>
      <use xlink:href="#DejaVuSans-31" transform="translate(96 43.965625) scale(0.7)"/>
      <use xlink:href="#DejaVuSans-36" transform="translate(0 -40.910937) scale(0.7)"/>
      <use xlink:href="#DejaVuSans-22c5" transform="translate(58.173828 -40.910937) scale(0.7)"/>
      <use xlink:href="#DejaVuSans-Oblique-56" transform="translate(94.0625 -40.910937) scale(0.7)"/>
      <use xlink:href="#DejaVuSans-22c5" transform="translate(155.585938 -40.910937) scale(0.7)"/>
      <use xlink:href="#DejaVuSans-Oblique-3b2" transform="translate(191.474609 -40.910937) scale(0.7)"/>
      <use xlink:href="#DejaVuSans-27e8" transform="translate(248.647461 0.16875)"/>
      <use xlink:href="#DejaVuSans-Oblique-53" transform="translate(287.661133 0.16875)"/>
      <use xlink:href="#DejaVuSans-Oblique-74" transform="translate(351.137695 -16.2375) scale(0.7)"/>
      <use xlink:href="#DejaVuSans-2212" transform="translate(400.800781 0.16875)"/>
      <use xlink:href="#DejaVuSans-Oblique-53" transform="translate(504.072266 0.16875)"/>
      <use xlink:href="#DejaVuSans-Oblique-6e" transform="translate(567.548828 -16.2375) scale(0.7)"/>
      <use xlink:href="#DejaVuSans-Oblique-74" transform="translate(611.914062 -16.2375) scale(0.7)"/>
      <use xlink:href="#DejaVuSans-27e9" transform="translate(642.094727 0.16875)"/>
      <path d="M 0 18.965625 
L 0 25.215625 
L 236.147461 25.215625 
L 236.147461 18.965625 
L 0 18.965625 
z
"/>
     </g>
    </g>
   </g>
   <g id="LineCollection_1">
    <path d="M 91.990983 291.2668 
L 91.990983 286.824754 
" clip-path="url(#p33dba19be2)" style="fill: none; stroke: #1f77b4; stroke-width: 1.5"/>
    <path d="M 95.729242 290.907906 
L 95.729242 288.544518 
" clip-path="url(#p33dba19be2)" style="fill: none; stroke: #1f77b4; stroke-width: 1.5"/>
    <path d="M 99.467501 290.87506 
L 99.467501 289.778425 
" clip-path="url(#p33dba19be2)" style="fill: none; stroke: #1f77b4; stroke-width: 1.5"/>
    <path d="M 103.20576 291.766056 
L 103.20576 289.915599 
" clip-path="url(#p33dba19be2)" style="fill: none; stroke: #1f77b4; stroke-width: 1.5"/>
    <path d="M 106.944019 292.777439 
L 106.944019 289.771273 
" clip-path="url(#p33dba19be2)" style="fill: none; stroke: #1f77b4; stroke-width: 1.5"/>
    <path d="M 110.682278 293.580679 
L 110.682278 289.675414 
" clip-path="url(#p33dba19be2)" style="fill: none; stroke: #1f77b4; stroke-width: 1.5"/>
    <path d="M 114.420538 294.113139 
L 114.420538 289.666362 
" clip-path="url(#p33dba19be2)" style="fill: none; stroke: #1f77b4; stroke-width: 1.5"/>
    <path d="M 118.158797 294.331939 
L 118.158797 289.742584 
" clip-path="url(#p33dba19be2)" style="fill: none; stroke: #1f77b4; stroke-width: 1.5"/>
    <path d="M 121.897056 294.214344 
L 121.897056 289.882865 
" clip-path="url(#p33dba19be2)" style="fill: none; stroke: #1f77b4; stroke-width: 1.5"/>
    <path d="M 125.635315 293.780233 
L 125.635315 290.048917 
" clip-path="url(#p33dba19be2)" style="fill: none; stroke: #1f77b4; stroke-width: 1.5"/>
    <path d="M 129.373574 293.11391 
L 129.373574 290.181863 
" clip-path="url(#p33dba19be2)" style="fill: none; stroke: #1f77b4; stroke-width: 1.5"/>
    <path d="M 133.111833 292.38632 
L 133.111833 290.183083 
" clip-path="url(#p33dba19be2)" style="fill: none; stroke: #1f77b4; stroke-width: 1.5"/>
    <path d="M 136.850092 291.848033 
L 136.850092 289.906676 
" clip-path="url(#p33dba19be2)" style="fill: none; stroke: #1f77b4; stroke-width: 1.5"/>
    <path d="M 140.588351 291.602235 
L 140.588351 289.359339 
" clip-path="url(#p33dba19be2)" style="fill: none; stroke: #1f77b4; stroke-width: 1.5"/>
    <path d="M 144.32661 291.497319 
L 144.32661 288.778777 
" clip-path="url(#p33dba19be2)" style="fill: none; stroke: #1f77b4; stroke-width: 1.5"/>
    <path d="M 148.064869 291.413846 
L 148.064869 288.32774 
" clip-path="url(#p33dba19be2)" style="fill: none; stroke: #1f77b4; stroke-width: 1.5"/>
    <path d="M 151.803128 291.311586 
L 151.803128 288.045455 
" clip-path="url(#p33dba19be2)" style="fill: none; stroke: #1f77b4; stroke-width: 1.5"/>
    <path d="M 155.541388 291.1826 
L 155.541388 287.90991 
" clip-path="url(#p33dba19be2)" style="fill: none; stroke: #1f77b4; stroke-width: 1.5"/>
    <path d="M 159.279647 291.030243 
L 159.279647 287.882577 
" clip-path="url(#p33dba19be2)" style="fill: none; stroke: #1f77b4; stroke-width: 1.5"/>
    <path d="M 163.017906 290.861726 
L 163.017906 287.935913 
" clip-path="url(#p33dba19be2)" style="fill: none; stroke: #1f77b4; stroke-width: 1.5"/>
    <path d="M 166.756165 290.68465 
L 166.756165 288.063976 
" clip-path="url(#p33dba19be2)" style="fill: none; stroke: #1f77b4; stroke-width: 1.5"/>
    <path d="M 170.494424 290.504465 
L 170.494424 288.277375 
" clip-path="url(#p33dba19be2)" style="fill: none; stroke: #1f77b4; stroke-width: 1.5"/>
    <path d="M 174.232683 290.323022 
L 174.232683 288.588103 
" clip-path="url(#p33dba19be2)" style="fill: none; stroke: #1f77b4; stroke-width: 1.5"/>
    <path d="M 177.970942 290.140517 
L 177.970942 288.99138 
" clip-path="url(#p33dba19be2)" style="fill: none; stroke: #1f77b4; stroke-width: 1.5"/>
    <path d="M 181.709201 289.981816 
L 181.709201 289.430973 
" clip-path="url(#p33dba19be2)" style="fill: none; stroke: #1f77b4; stroke-width: 1.5"/>
    <path d="M 185.44746 290.152398 
L 185.44746 289.544473 
" clip-path="url(#p33dba19be2)" style="fill: none; stroke: #1f77b4; stroke-width: 1.5"/>
    <path d="M 189.185719 290.62841 
L 189.185719 289.279909 
" clip-path="url(#p33dba19be2)" style="fill: none; stroke: #1f77b4; stroke-width: 1.5"/>
    <path d="M 192.923978 291.075015 
L 192.923978 288.882235 
" clip-path="url(#p33dba19be2)" style="fill: none; stroke: #1f77b4; stroke-width: 1.5"/>
    <path d="M 196.662238 291.402255 
L 196.662238 288.333616 
" clip-path="url(#p33dba19be2)" style="fill: none; stroke: #1f77b4; stroke-width: 1.5"/>
    <path d="M 200.400497 291.53535 
L 200.400497 287.565394 
" clip-path="url(#p33dba19be2)" style="fill: none; stroke: #1f77b4; stroke-width: 1.5"/>
    <path d="M 204.138756 291.37721 
L 204.138756 286.458853 
" clip-path="url(#p33dba19be2)" style="fill: none; stroke: #1f77b4; stroke-width: 1.5"/>
    <path d="M 207.877015 290.781499 
L 207.877015 284.8079 
" clip-path="url(#p33dba19be2)" style="fill: none; stroke: #1f77b4; stroke-width: 1.5"/>
    <path d="M 211.615274 289.514913 
L 211.615274 282.25073 
" clip-path="url(#p33dba19be2)" style="fill: none; stroke: #1f77b4; stroke-width: 1.5"/>
    <path d="M 215.353533 287.196967 
L 215.353533 278.165933 
" clip-path="url(#p33dba19be2)" style="fill: none; stroke: #1f77b4; stroke-width: 1.5"/>
    <path d="M 219.091792 283.197724 
L 219.091792 271.552233 
" clip-path="url(#p33dba19be2)" style="fill: none; stroke: #1f77b4; stroke-width: 1.5"/>
    <path d="M 222.830051 276.481488 
L 222.830051 260.966748 
" clip-path="url(#p33dba19be2)" style="fill: none; stroke: #1f77b4; stroke-width: 1.5"/>
    <path d="M 226.56831 265.462114 
L 226.56831 244.673137 
" clip-path="url(#p33dba19be2)" style="fill: none; stroke: #1f77b4; stroke-width: 1.5"/>
    <path d="M 230.306569 248.103306 
L 230.306569 221.22171 
" clip-path="url(#p33dba19be2)" style="fill: none; stroke: #1f77b4; stroke-width: 1.5"/>
    <path d="M 234.044828 222.651811 
L 234.044828 190.569548 
" clip-path="url(#p33dba19be2)" style="fill: none; stroke: #1f77b4; stroke-width: 1.5"/>
    <path d="M 237.783087 189.175674 
L 237.783087 155.180184 
" clip-path="url(#p33dba19be2)" style="fill: none; stroke: #1f77b4; stroke-width: 1.5"/>
    <path d="M 241.521347 150.973168 
L 241.521347 119.742905 
" clip-path="url(#p33dba19be2)" style="fill: none; stroke: #1f77b4; stroke-width: 1.5"/>
    <path d="M 245.259606 113.875094 
L 245.259606 89.011405 
" clip-path="url(#p33dba19be2)" style="fill: none; stroke: #1f77b4; stroke-width: 1.5"/>
    <path d="M 248.997865 83.214817 
L 248.997865 65.588577 
" clip-path="url(#p33dba19be2)" style="fill: none; stroke: #1f77b4; stroke-width: 1.5"/>
    <path d="M 252.736124 61.327414 
L 252.736124 49.585049 
" clip-path="url(#p33dba19be2)" style="fill: none; stroke: #1f77b4; stroke-width: 1.5"/>
    <path d="M 256.474383 47.607338 
L 256.474383 39.736151 
" clip-path="url(#p33dba19be2)" style="fill: none; stroke: #1f77b4; stroke-width: 1.5"/>
    <path d="M 260.212642 40.077756 
L 260.212642 34.515244 
" clip-path="url(#p33dba19be2)" style="fill: none; stroke: #1f77b4; stroke-width: 1.5"/>
    <path d="M 263.950901 36.80116 
L 263.950901 32.598873 
" clip-path="url(#p33dba19be2)" style="fill: none; stroke: #1f77b4; stroke-width: 1.5"/>
    <path d="M 267.68916 36.464785 
L 267.68916 32.972075 
" clip-path="url(#p33dba19be2)" style="fill: none; stroke: #1f77b4; stroke-width: 1.5"/>
    <path d="M 271.427419 38.298085 
L 271.427419 35.016488 
" clip-path="url(#p33dba19be2)" style="fill: none; stroke: #1f77b4; stroke-width: 1.5"/>
    <path d="M 275.165678 41.837172 
L 275.165678 38.51022 
" clip-path="url(#p33dba19be2)" style="fill: none; stroke: #1f77b4; stroke-width: 1.5"/>
    <path d="M 278.903938 46.833498 
L 278.903938 43.44626 
" clip-path="url(#p33dba19be2)" style="fill: none; stroke: #1f77b4; stroke-width: 1.5"/>
    <path d="M 282.642197 53.18357 
L 282.642197 49.853362 
" clip-path="url(#p33dba19be2)" style="fill: none; stroke: #1f77b4; stroke-width: 1.5"/>
    <path d="M 286.380456 60.812942 
L 286.380456 57.700681 
" clip-path="url(#p33dba19be2)" style="fill: none; stroke: #1f77b4; stroke-width: 1.5"/>
    <path d="M 290.118715 69.58309 
L 290.118715 66.833697 
" clip-path="url(#p33dba19be2)" style="fill: none; stroke: #1f77b4; stroke-width: 1.5"/>
    <path d="M 293.856974 79.262899 
L 293.856974 76.927368 
" clip-path="url(#p33dba19be2)" style="fill: none; stroke: #1f77b4; stroke-width: 1.5"/>
    <path d="M 297.595233 89.568343 
L 297.595233 87.476465 
" clip-path="url(#p33dba19be2)" style="fill: none; stroke: #1f77b4; stroke-width: 1.5"/>
    <path d="M 301.333492 100.1911 
L 301.333492 97.895467 
" clip-path="url(#p33dba19be2)" style="fill: none; stroke: #1f77b4; stroke-width: 1.5"/>
    <path d="M 305.071751 110.72829 
L 305.071751 107.765113 
" clip-path="url(#p33dba19be2)" style="fill: none; stroke: #1f77b4; stroke-width: 1.5"/>
    <path d="M 308.81001 120.769397 
L 308.81001 116.89363 
" clip-path="url(#p33dba19be2)" style="fill: none; stroke: #1f77b4; stroke-width: 1.5"/>
    <path d="M 312.548269 130.043543 
L 312.548269 125.230298 
" clip-path="url(#p33dba19be2)" style="fill: none; stroke: #1f77b4; stroke-width: 1.5"/>
    <path d="M 316.286528 138.415864 
L 316.286528 132.832511 
" clip-path="url(#p33dba19be2)" style="fill: none; stroke: #1f77b4; stroke-width: 1.5"/>
    <path d="M 320.024787 145.842301 
L 320.024787 139.814052 
" clip-path="url(#p33dba19be2)" style="fill: none; stroke: #1f77b4; stroke-width: 1.5"/>
    <path d="M 323.763047 152.335361 
L 323.763047 146.277114 
" clip-path="url(#p33dba19be2)" style="fill: none; stroke: #1f77b4; stroke-width: 1.5"/>
    <path d="M 327.501306 157.94335 
L 327.501306 152.267264 
" clip-path="url(#p33dba19be2)" style="fill: none; stroke: #1f77b4; stroke-width: 1.5"/>
    <path d="M 331.239565 162.739693 
L 331.239565 157.767749 
" clip-path="url(#p33dba19be2)" style="fill: none; stroke: #1f77b4; stroke-width: 1.5"/>
    <path d="M 334.977824 166.81886 
L 334.977824 162.723976 
" clip-path="url(#p33dba19be2)" style="fill: none; stroke: #1f77b4; stroke-width: 1.5"/>
    <path d="M 338.716083 170.296877 
L 338.716083 167.07567 
" clip-path="url(#p33dba19be2)" style="fill: none; stroke: #1f77b4; stroke-width: 1.5"/>
    <path d="M 342.454342 173.315099 
L 342.454342 170.776431 
" clip-path="url(#p33dba19be2)" style="fill: none; stroke: #1f77b4; stroke-width: 1.5"/>
    <path d="M 346.192601 176.029922 
L 346.192601 173.807645 
" clip-path="url(#p33dba19be2)" style="fill: none; stroke: #1f77b4; stroke-width: 1.5"/>
    <path d="M 349.93086 178.545523 
L 349.93086 176.231044 
" clip-path="url(#p33dba19be2)" style="fill: none; stroke: #1f77b4; stroke-width: 1.5"/>
    <path d="M 353.669119 180.869513 
L 353.669119 178.20864 
" clip-path="url(#p33dba19be2)" style="fill: none; stroke: #1f77b4; stroke-width: 1.5"/>
    <path d="M 357.407378 182.984952 
L 357.407378 179.906797 
" clip-path="url(#p33dba19be2)" style="fill: none; stroke: #1f77b4; stroke-width: 1.5"/>
    <path d="M 361.145637 184.888301 
L 361.145637 181.442678 
" clip-path="url(#p33dba19be2)" style="fill: none; stroke: #1f77b4; stroke-width: 1.5"/>
    <path d="M 364.883897 186.577974 
L 364.883897 182.891806 
" clip-path="url(#p33dba19be2)" style="fill: none; stroke: #1f77b4; stroke-width: 1.5"/>
    <path d="M 368.622156 188.049593 
L 368.622156 184.299427 
" clip-path="url(#p33dba19be2)" style="fill: none; stroke: #1f77b4; stroke-width: 1.5"/>
    <path d="M 372.360415 189.302942 
L 372.360415 185.686201 
" clip-path="url(#p33dba19be2)" style="fill: none; stroke: #1f77b4; stroke-width: 1.5"/>
    <path d="M 376.098674 190.351964 
L 376.098674 187.051318 
" clip-path="url(#p33dba19be2)" style="fill: none; stroke: #1f77b4; stroke-width: 1.5"/>
    <path d="M 379.836933 191.232373 
L 379.836933 188.374209 
" clip-path="url(#p33dba19be2)" style="fill: none; stroke: #1f77b4; stroke-width: 1.5"/>
    <path d="M 383.575192 192.00629 
L 383.575192 189.613748 
" clip-path="url(#p33dba19be2)" style="fill: none; stroke: #1f77b4; stroke-width: 1.5"/>
    <path d="M 387.313451 192.762885 
L 387.313451 190.706987 
" clip-path="url(#p33dba19be2)" style="fill: none; stroke: #1f77b4; stroke-width: 1.5"/>
    <path d="M 391.05171 193.591653 
L 391.05171 191.593473 
" clip-path="url(#p33dba19be2)" style="fill: none; stroke: #1f77b4; stroke-width: 1.5"/>
    <path d="M 394.789969 194.511042 
L 394.789969 192.285192 
" clip-path="url(#p33dba19be2)" style="fill: none; stroke: #1f77b4; stroke-width: 1.5"/>
    <path d="M 398.528228 195.466082 
L 398.528228 192.869783 
" clip-path="url(#p33dba19be2)" style="fill: none; stroke: #1f77b4; stroke-width: 1.5"/>
    <path d="M 402.266487 196.403143 
L 402.266487 193.437995 
" clip-path="url(#p33dba19be2)" style="fill: none; stroke: #1f77b4; stroke-width: 1.5"/>
    <path d="M 406.004747 197.295281 
L 406.004747 194.05902 
" clip-path="url(#p33dba19be2)" style="fill: none; stroke: #1f77b4; stroke-width: 1.5"/>
    <path d="M 409.743006 198.133346 
L 409.743006 194.785509 
" clip-path="url(#p33dba19be2)" style="fill: none; stroke: #1f77b4; stroke-width: 1.5"/>
    <path d="M 413.481265 198.916903 
L 413.481265 195.653237 
" clip-path="url(#p33dba19be2)" style="fill: none; stroke: #1f77b4; stroke-width: 1.5"/>
    <path d="M 417.219524 199.649279 
L 417.219524 196.673706 
" clip-path="url(#p33dba19be2)" style="fill: none; stroke: #1f77b4; stroke-width: 1.5"/>
    <path d="M 420.957783 200.335129 
L 420.957783 197.826968 
" clip-path="url(#p33dba19be2)" style="fill: none; stroke: #1f77b4; stroke-width: 1.5"/>
    <path d="M 424.696042 200.979677 
L 424.696042 199.061484 
" clip-path="url(#p33dba19be2)" style="fill: none; stroke: #1f77b4; stroke-width: 1.5"/>
    <path d="M 428.434301 201.590541 
L 428.434301 200.303009 
" clip-path="url(#p33dba19be2)" style="fill: none; stroke: #1f77b4; stroke-width: 1.5"/>
    <path d="M 432.17256 202.190173 
L 432.17256 201.4619 
" clip-path="url(#p33dba19be2)" style="fill: none; stroke: #1f77b4; stroke-width: 1.5"/>
    <path d="M 435.910819 202.880313 
L 435.910819 202.390087 
" clip-path="url(#p33dba19be2)" style="fill: none; stroke: #1f77b4; stroke-width: 1.5"/>
    <path d="M 439.649078 203.73371 
L 439.649078 203.003635 
" clip-path="url(#p33dba19be2)" style="fill: none; stroke: #1f77b4; stroke-width: 1.5"/>
    <path d="M 443.387337 204.574747 
L 443.387337 203.503491 
" clip-path="url(#p33dba19be2)" style="fill: none; stroke: #1f77b4; stroke-width: 1.5"/>
    <path d="M 447.125597 205.361912 
L 447.125597 203.981494 
" clip-path="url(#p33dba19be2)" style="fill: none; stroke: #1f77b4; stroke-width: 1.5"/>
    <path d="M 450.863856 206.114942 
L 450.863856 204.474547 
" clip-path="url(#p33dba19be2)" style="fill: none; stroke: #1f77b4; stroke-width: 1.5"/>
    <path d="M 454.602115 206.852042 
L 454.602115 205.009634 
" clip-path="url(#p33dba19be2)" style="fill: none; stroke: #1f77b4; stroke-width: 1.5"/>
    <path d="M 458.340374 207.579286 
L 458.340374 205.603868 
" clip-path="url(#p33dba19be2)" style="fill: none; stroke: #1f77b4; stroke-width: 1.5"/>
    <path d="M 462.078633 208.29883 
L 462.078633 206.254692 
" clip-path="url(#p33dba19be2)" style="fill: none; stroke: #1f77b4; stroke-width: 1.5"/>
    <path d="M 465.816892 209.029369 
L 465.816892 206.924284 
" clip-path="url(#p33dba19be2)" style="fill: none; stroke: #1f77b4; stroke-width: 1.5"/>
   </g>
   <g id="LineCollection_2">
    <path d="M 91.990983 291.829874 
L 91.990983 287.744504 
" clip-path="url(#p33dba19be2)" style="fill: none; stroke: #ff7f0e; stroke-width: 1.5"/>
    <path d="M 95.729242 291.573112 
L 95.729242 287.832074 
" clip-path="url(#p33dba19be2)" style="fill: none; stroke: #ff7f0e; stroke-width: 1.5"/>
    <path d="M 99.467501 291.398353 
L 99.467501 288.261072 
" clip-path="url(#p33dba19be2)" style="fill: none; stroke: #ff7f0e; stroke-width: 1.5"/>
    <path d="M 103.20576 291.269491 
L 103.20576 288.914841 
" clip-path="url(#p33dba19be2)" style="fill: none; stroke: #ff7f0e; stroke-width: 1.5"/>
    <path d="M 106.944019 291.235965 
L 106.944019 289.582272 
" clip-path="url(#p33dba19be2)" style="fill: none; stroke: #ff7f0e; stroke-width: 1.5"/>
    <path d="M 110.682278 291.426296 
L 110.682278 289.98917 
" clip-path="url(#p33dba19be2)" style="fill: none; stroke: #ff7f0e; stroke-width: 1.5"/>
    <path d="M 114.420538 291.76866 
L 114.420538 290.094739 
" clip-path="url(#p33dba19be2)" style="fill: none; stroke: #ff7f0e; stroke-width: 1.5"/>
    <path d="M 118.158797 291.982149 
L 118.158797 290.108469 
" clip-path="url(#p33dba19be2)" style="fill: none; stroke: #ff7f0e; stroke-width: 1.5"/>
    <path d="M 121.897056 291.928796 
L 121.897056 290.139418 
" clip-path="url(#p33dba19be2)" style="fill: none; stroke: #ff7f0e; stroke-width: 1.5"/>
    <path d="M 125.635315 291.611497 
L 125.635315 290.195382 
" clip-path="url(#p33dba19be2)" style="fill: none; stroke: #ff7f0e; stroke-width: 1.5"/>
    <path d="M 129.373574 291.15077 
L 129.373574 290.200333 
" clip-path="url(#p33dba19be2)" style="fill: none; stroke: #ff7f0e; stroke-width: 1.5"/>
    <path d="M 133.111833 290.844197 
L 133.111833 289.925981 
" clip-path="url(#p33dba19be2)" style="fill: none; stroke: #ff7f0e; stroke-width: 1.5"/>
    <path d="M 136.850092 290.780198 
L 136.850092 289.365336 
" clip-path="url(#p33dba19be2)" style="fill: none; stroke: #ff7f0e; stroke-width: 1.5"/>
    <path d="M 140.588351 290.744825 
L 140.588351 288.810627 
" clip-path="url(#p33dba19be2)" style="fill: none; stroke: #ff7f0e; stroke-width: 1.5"/>
    <path d="M 144.32661 290.665686 
L 144.32661 288.394882 
" clip-path="url(#p33dba19be2)" style="fill: none; stroke: #ff7f0e; stroke-width: 1.5"/>
    <path d="M 148.064869 290.539509 
L 148.064869 288.155111 
" clip-path="url(#p33dba19be2)" style="fill: none; stroke: #ff7f0e; stroke-width: 1.5"/>
    <path d="M 151.803128 290.385573 
L 151.803128 288.078012 
" clip-path="url(#p33dba19be2)" style="fill: none; stroke: #ff7f0e; stroke-width: 1.5"/>
    <path d="M 155.541388 290.229607 
L 155.541388 288.123343 
" clip-path="url(#p33dba19be2)" style="fill: none; stroke: #ff7f0e; stroke-width: 1.5"/>
    <path d="M 159.279647 290.094245 
L 159.279647 288.245033 
" clip-path="url(#p33dba19be2)" style="fill: none; stroke: #ff7f0e; stroke-width: 1.5"/>
    <path d="M 163.017906 289.993762 
L 163.017906 288.406835 
" clip-path="url(#p33dba19be2)" style="fill: none; stroke: #ff7f0e; stroke-width: 1.5"/>
    <path d="M 166.756165 289.933406 
L 166.756165 288.588186 
" clip-path="url(#p33dba19be2)" style="fill: none; stroke: #ff7f0e; stroke-width: 1.5"/>
    <path d="M 170.494424 289.913167 
L 170.494424 288.779706 
" clip-path="url(#p33dba19be2)" style="fill: none; stroke: #ff7f0e; stroke-width: 1.5"/>
    <path d="M 174.232683 289.935841 
L 174.232683 288.970836 
" clip-path="url(#p33dba19be2)" style="fill: none; stroke: #ff7f0e; stroke-width: 1.5"/>
    <path d="M 177.970942 290.01824 
L 177.970942 289.133807 
" clip-path="url(#p33dba19be2)" style="fill: none; stroke: #ff7f0e; stroke-width: 1.5"/>
    <path d="M 181.709201 290.189274 
L 181.709201 289.221622 
" clip-path="url(#p33dba19be2)" style="fill: none; stroke: #ff7f0e; stroke-width: 1.5"/>
    <path d="M 185.44746 290.451408 
L 185.44746 289.202568 
" clip-path="url(#p33dba19be2)" style="fill: none; stroke: #ff7f0e; stroke-width: 1.5"/>
    <path d="M 189.185719 290.765051 
L 189.185719 289.069608 
" clip-path="url(#p33dba19be2)" style="fill: none; stroke: #ff7f0e; stroke-width: 1.5"/>
    <path d="M 192.923978 291.072529 
L 192.923978 288.806633 
" clip-path="url(#p33dba19be2)" style="fill: none; stroke: #ff7f0e; stroke-width: 1.5"/>
    <path d="M 196.662238 291.301394 
L 196.662238 288.371655 
" clip-path="url(#p33dba19be2)" style="fill: none; stroke: #ff7f0e; stroke-width: 1.5"/>
    <path d="M 200.400497 291.354889 
L 200.400497 287.6882 
" clip-path="url(#p33dba19be2)" style="fill: none; stroke: #ff7f0e; stroke-width: 1.5"/>
    <path d="M 204.138756 291.10308 
L 204.138756 286.626469 
" clip-path="url(#p33dba19be2)" style="fill: none; stroke: #ff7f0e; stroke-width: 1.5"/>
    <path d="M 207.877015 290.371616 
L 207.877015 284.965168 
" clip-path="url(#p33dba19be2)" style="fill: none; stroke: #ff7f0e; stroke-width: 1.5"/>
    <path d="M 211.615274 288.916958 
L 211.615274 282.325581 
" clip-path="url(#p33dba19be2)" style="fill: none; stroke: #ff7f0e; stroke-width: 1.5"/>
    <path d="M 215.353533 286.36961 
L 215.353533 278.07507 
" clip-path="url(#p33dba19be2)" style="fill: none; stroke: #ff7f0e; stroke-width: 1.5"/>
    <path d="M 219.091792 282.122374 
L 219.091792 271.219355 
" clip-path="url(#p33dba19be2)" style="fill: none; stroke: #ff7f0e; stroke-width: 1.5"/>
    <path d="M 222.830051 275.161894 
L 222.830051 260.347072 
" clip-path="url(#p33dba19be2)" style="fill: none; stroke: #ff7f0e; stroke-width: 1.5"/>
    <path d="M 226.56831 263.923021 
L 226.56831 243.765128 
" clip-path="url(#p33dba19be2)" style="fill: none; stroke: #ff7f0e; stroke-width: 1.5"/>
    <path d="M 230.306569 246.390845 
L 230.306569 220.058223 
" clip-path="url(#p33dba19be2)" style="fill: none; stroke: #ff7f0e; stroke-width: 1.5"/>
    <path d="M 234.044828 220.824652 
L 234.044828 189.198621 
" clip-path="url(#p33dba19be2)" style="fill: none; stroke: #ff7f0e; stroke-width: 1.5"/>
    <path d="M 237.783087 187.281994 
L 237.783087 153.644894 
" clip-path="url(#p33dba19be2)" style="fill: none; stroke: #ff7f0e; stroke-width: 1.5"/>
    <path d="M 241.521347 149.019909 
L 241.521347 118.062805 
" clip-path="url(#p33dba19be2)" style="fill: none; stroke: #ff7f0e; stroke-width: 1.5"/>
    <path d="M 245.259606 111.799752 
L 245.259606 87.166123 
" clip-path="url(#p33dba19be2)" style="fill: none; stroke: #ff7f0e; stroke-width: 1.5"/>
    <path d="M 248.997865 80.868994 
L 248.997865 63.502919 
" clip-path="url(#p33dba19be2)" style="fill: none; stroke: #ff7f0e; stroke-width: 1.5"/>
    <path d="M 252.736124 58.479366 
L 252.736124 47.110532 
" clip-path="url(#p33dba19be2)" style="fill: none; stroke: #ff7f0e; stroke-width: 1.5"/>
    <path d="M 256.474383 43.962541 
L 256.474383 36.624227 
" clip-path="url(#p33dba19be2)" style="fill: none; stroke: #ff7f0e; stroke-width: 1.5"/>
    <path d="M 260.212642 35.286257 
L 260.212642 30.40231 
" clip-path="url(#p33dba19be2)" style="fill: none; stroke: #ff7f0e; stroke-width: 1.5"/>
    <path d="M 263.950901 30.417553 
L 263.950901 27.027136 
" clip-path="url(#p33dba19be2)" style="fill: none; stroke: #ff7f0e; stroke-width: 1.5"/>
    <path d="M 267.68916 27.90891 
L 267.68916 25.396782 
" clip-path="url(#p33dba19be2)" style="fill: none; stroke: #ff7f0e; stroke-width: 1.5"/>
    <path d="M 271.427419 26.86861 
L 271.427419 24.759813 
" clip-path="url(#p33dba19be2)" style="fill: none; stroke: #ff7f0e; stroke-width: 1.5"/>
    <path d="M 275.165678 26.724483 
L 275.165678 24.741208 
" clip-path="url(#p33dba19be2)" style="fill: none; stroke: #ff7f0e; stroke-width: 1.5"/>
    <path d="M 278.903938 27.12875 
L 278.903938 25.222531 
" clip-path="url(#p33dba19be2)" style="fill: none; stroke: #ff7f0e; stroke-width: 1.5"/>
    <path d="M 282.642197 27.961591 
L 282.642197 26.174486 
" clip-path="url(#p33dba19be2)" style="fill: none; stroke: #ff7f0e; stroke-width: 1.5"/>
    <path d="M 286.380456 29.286759 
L 286.380456 27.583593 
" clip-path="url(#p33dba19be2)" style="fill: none; stroke: #ff7f0e; stroke-width: 1.5"/>
    <path d="M 290.118715 31.28276 
L 290.118715 29.431811 
" clip-path="url(#p33dba19be2)" style="fill: none; stroke: #ff7f0e; stroke-width: 1.5"/>
    <path d="M 293.856974 34.12696 
L 293.856974 31.738827 
" clip-path="url(#p33dba19be2)" style="fill: none; stroke: #ff7f0e; stroke-width: 1.5"/>
    <path d="M 297.595233 37.899666 
L 297.595233 34.594899 
" clip-path="url(#p33dba19be2)" style="fill: none; stroke: #ff7f0e; stroke-width: 1.5"/>
    <path d="M 301.333492 42.599115 
L 301.333492 38.094284 
" clip-path="url(#p33dba19be2)" style="fill: none; stroke: #ff7f0e; stroke-width: 1.5"/>
    <path d="M 305.071751 48.151185 
L 305.071751 42.290438 
" clip-path="url(#p33dba19be2)" style="fill: none; stroke: #ff7f0e; stroke-width: 1.5"/>
    <path d="M 308.81001 54.40233 
L 308.81001 47.191446 
" clip-path="url(#p33dba19be2)" style="fill: none; stroke: #ff7f0e; stroke-width: 1.5"/>
    <path d="M 312.548269 61.133918 
L 312.548269 52.762852 
" clip-path="url(#p33dba19be2)" style="fill: none; stroke: #ff7f0e; stroke-width: 1.5"/>
    <path d="M 316.286528 68.100237 
L 316.286528 58.934102 
" clip-path="url(#p33dba19be2)" style="fill: none; stroke: #ff7f0e; stroke-width: 1.5"/>
    <path d="M 320.024787 75.077838 
L 320.024787 65.608394 
" clip-path="url(#p33dba19be2)" style="fill: none; stroke: #ff7f0e; stroke-width: 1.5"/>
    <path d="M 323.763047 81.910372 
L 323.763047 72.67056 
" clip-path="url(#p33dba19be2)" style="fill: none; stroke: #ff7f0e; stroke-width: 1.5"/>
    <path d="M 327.501306 88.534943 
L 327.501306 79.986765 
" clip-path="url(#p33dba19be2)" style="fill: none; stroke: #ff7f0e; stroke-width: 1.5"/>
    <path d="M 331.239565 94.982252 
L 331.239565 87.396016 
" clip-path="url(#p33dba19be2)" style="fill: none; stroke: #ff7f0e; stroke-width: 1.5"/>
    <path d="M 334.977824 101.347508 
L 334.977824 94.705985 
" clip-path="url(#p33dba19be2)" style="fill: none; stroke: #ff7f0e; stroke-width: 1.5"/>
    <path d="M 338.716083 107.723371 
L 338.716083 101.722551 
" clip-path="url(#p33dba19be2)" style="fill: none; stroke: #ff7f0e; stroke-width: 1.5"/>
    <path d="M 342.454342 114.099331 
L 342.454342 108.328046 
" clip-path="url(#p33dba19be2)" style="fill: none; stroke: #ff7f0e; stroke-width: 1.5"/>
    <path d="M 346.192601 120.321789 
L 346.192601 114.521941 
" clip-path="url(#p33dba19be2)" style="fill: none; stroke: #ff7f0e; stroke-width: 1.5"/>
    <path d="M 349.93086 126.187832 
L 349.93086 120.345834 
" clip-path="url(#p33dba19be2)" style="fill: none; stroke: #ff7f0e; stroke-width: 1.5"/>
    <path d="M 353.669119 131.549134 
L 353.669119 125.80424 
" clip-path="url(#p33dba19be2)" style="fill: none; stroke: #ff7f0e; stroke-width: 1.5"/>
    <path d="M 357.407378 136.337129 
L 357.407378 130.859558 
" clip-path="url(#p33dba19be2)" style="fill: none; stroke: #ff7f0e; stroke-width: 1.5"/>
    <path d="M 361.145637 140.543637 
L 361.145637 135.462539 
" clip-path="url(#p33dba19be2)" style="fill: none; stroke: #ff7f0e; stroke-width: 1.5"/>
    <path d="M 364.883897 144.195388 
L 364.883897 139.58047 
" clip-path="url(#p33dba19be2)" style="fill: none; stroke: #ff7f0e; stroke-width: 1.5"/>
    <path d="M 368.622156 147.337966 
L 368.622156 143.209719 
" clip-path="url(#p33dba19be2)" style="fill: none; stroke: #ff7f0e; stroke-width: 1.5"/>
    <path d="M 372.360415 150.03187 
L 372.360415 146.371243 
" clip-path="url(#p33dba19be2)" style="fill: none; stroke: #ff7f0e; stroke-width: 1.5"/>
    <path d="M 376.098674 152.354944 
L 376.098674 149.095627 
" clip-path="url(#p33dba19be2)" style="fill: none; stroke: #ff7f0e; stroke-width: 1.5"/>
    <path d="M 379.836933 154.401391 
L 379.836933 151.409095 
" clip-path="url(#p33dba19be2)" style="fill: none; stroke: #ff7f0e; stroke-width: 1.5"/>
    <path d="M 383.575192 156.267566 
L 383.575192 153.333605 
" clip-path="url(#p33dba19be2)" style="fill: none; stroke: #ff7f0e; stroke-width: 1.5"/>
    <path d="M 387.313451 158.023496 
L 387.313451 154.905987 
" clip-path="url(#p33dba19be2)" style="fill: none; stroke: #ff7f0e; stroke-width: 1.5"/>
    <path d="M 391.05171 159.695457 
L 391.05171 156.193183 
" clip-path="url(#p33dba19be2)" style="fill: none; stroke: #ff7f0e; stroke-width: 1.5"/>
    <path d="M 394.789969 161.279802 
L 394.789969 157.282641 
" clip-path="url(#p33dba19be2)" style="fill: none; stroke: #ff7f0e; stroke-width: 1.5"/>
    <path d="M 398.528228 162.764778 
L 398.528228 158.267147 
" clip-path="url(#p33dba19be2)" style="fill: none; stroke: #ff7f0e; stroke-width: 1.5"/>
    <path d="M 402.266487 164.141647 
L 402.266487 159.237508 
" clip-path="url(#p33dba19be2)" style="fill: none; stroke: #ff7f0e; stroke-width: 1.5"/>
    <path d="M 406.004747 165.408865 
L 406.004747 160.275513 
" clip-path="url(#p33dba19be2)" style="fill: none; stroke: #ff7f0e; stroke-width: 1.5"/>
    <path d="M 409.743006 166.573768 
L 409.743006 161.442553 
" clip-path="url(#p33dba19be2)" style="fill: none; stroke: #ff7f0e; stroke-width: 1.5"/>
    <path d="M 413.481265 167.652146 
L 413.481265 162.767135 
" clip-path="url(#p33dba19be2)" style="fill: none; stroke: #ff7f0e; stroke-width: 1.5"/>
    <path d="M 417.219524 168.665399 
L 417.219524 164.237395 
" clip-path="url(#p33dba19be2)" style="fill: none; stroke: #ff7f0e; stroke-width: 1.5"/>
    <path d="M 420.957783 169.635566 
L 420.957783 165.803596 
" clip-path="url(#p33dba19be2)" style="fill: none; stroke: #ff7f0e; stroke-width: 1.5"/>
    <path d="M 424.696042 170.579184 
L 424.696042 167.392254 
" clip-path="url(#p33dba19be2)" style="fill: none; stroke: #ff7f0e; stroke-width: 1.5"/>
    <path d="M 428.434301 171.50163 
L 428.434301 168.928969 
" clip-path="url(#p33dba19be2)" style="fill: none; stroke: #ff7f0e; stroke-width: 1.5"/>
    <path d="M 432.17256 172.39545 
L 432.17256 170.361613 
" clip-path="url(#p33dba19be2)" style="fill: none; stroke: #ff7f0e; stroke-width: 1.5"/>
    <path d="M 435.910819 173.247823 
L 435.910819 171.671659 
" clip-path="url(#p33dba19be2)" style="fill: none; stroke: #ff7f0e; stroke-width: 1.5"/>
    <path d="M 439.649078 174.056991 
L 439.649078 172.866974 
" clip-path="url(#p33dba19be2)" style="fill: none; stroke: #ff7f0e; stroke-width: 1.5"/>
    <path d="M 443.387337 174.845467 
L 443.387337 173.964423 
" clip-path="url(#p33dba19be2)" style="fill: none; stroke: #ff7f0e; stroke-width: 1.5"/>
    <path d="M 447.125597 175.655767 
L 447.125597 174.977988 
" clip-path="url(#p33dba19be2)" style="fill: none; stroke: #ff7f0e; stroke-width: 1.5"/>
    <path d="M 450.863856 176.524888 
L 450.863856 175.923134 
" clip-path="url(#p33dba19be2)" style="fill: none; stroke: #ff7f0e; stroke-width: 1.5"/>
    <path d="M 454.602115 177.459693 
L 454.602115 176.825069 
" clip-path="url(#p33dba19be2)" style="fill: none; stroke: #ff7f0e; stroke-width: 1.5"/>
    <path d="M 458.340374 178.454029 
L 458.340374 177.69794 
" clip-path="url(#p33dba19be2)" style="fill: none; stroke: #ff7f0e; stroke-width: 1.5"/>
    <path d="M 462.078633 179.510856 
L 462.078633 178.533297 
" clip-path="url(#p33dba19be2)" style="fill: none; stroke: #ff7f0e; stroke-width: 1.5"/>
    <path d="M 465.816892 180.639794 
L 465.816892 179.32161 
" clip-path="url(#p33dba19be2)" style="fill: none; stroke: #ff7f0e; stroke-width: 1.5"/>
   </g>
   <g id="line2d_14">
    <path d="M 91.990983 289.045777 
L 95.729242 289.726212 
L 99.467501 290.326742 
L 103.20576 290.840827 
L 106.944019 291.274356 
L 110.682278 291.628047 
L 114.420538 291.88975 
L 118.158797 292.037262 
L 121.897056 292.048605 
L 125.635315 291.914575 
L 129.373574 291.647887 
L 133.111833 291.284702 
L 136.850092 290.877355 
L 140.588351 290.480787 
L 144.32661 290.138048 
L 148.064869 289.870793 
L 151.803128 289.678521 
L 155.541388 289.546255 
L 159.279647 289.45641 
L 163.017906 289.398819 
L 166.756165 289.374313 
L 170.494424 289.39092 
L 174.232683 289.455562 
L 177.970942 289.565949 
L 181.709201 289.706395 
L 185.44746 289.848436 
L 189.185719 289.954159 
L 192.923978 289.978625 
L 196.662238 289.867936 
L 200.400497 289.550372 
L 204.138756 288.918032 
L 207.877015 287.7947 
L 211.615274 285.882822 
L 215.353533 282.68145 
L 219.091792 277.374979 
L 222.830051 268.724118 
L 226.56831 255.067625 
L 230.306569 234.662508 
L 234.044828 206.61068 
L 237.783087 172.177929 
L 241.521347 135.358036 
L 245.259606 101.44325 
L 248.997865 74.401697 
L 252.736124 55.456231 
L 256.474383 43.671744 
L 260.212642 37.2965 
L 263.950901 34.700016 
L 267.68916 34.71843 
L 271.427419 36.657287 
L 275.165678 40.173696 
L 278.903938 45.139879 
L 282.642197 51.518466 
L 286.380456 59.256811 
L 290.118715 68.208394 
L 293.856974 78.095134 
L 297.595233 88.522404 
L 301.333492 99.043283 
L 305.071751 109.246701 
L 308.81001 118.831513 
L 312.548269 127.636921 
L 316.286528 135.624187 
L 320.024787 142.828176 
L 323.763047 149.306237 
L 327.501306 155.105307 
L 331.239565 160.253721 
L 334.977824 164.771418 
L 338.716083 168.686273 
L 342.454342 172.045765 
L 346.192601 174.918783 
L 349.93086 177.388283 
L 353.669119 179.539077 
L 357.407378 181.445874 
L 361.145637 183.16549 
L 364.883897 184.73489 
L 368.622156 186.17451 
L 372.360415 187.494571 
L 376.098674 188.701641 
L 379.836933 189.803291 
L 383.575192 190.810019 
L 387.313451 191.734936 
L 391.05171 192.592563 
L 394.789969 193.398117 
L 398.528228 194.167932 
L 402.266487 194.920569 
L 406.004747 195.677151 
L 409.743006 196.459428 
L 413.481265 197.28507 
L 417.219524 198.161492 
L 420.957783 199.081048 
L 424.696042 200.02058 
L 428.434301 200.946775 
L 432.17256 201.826037 
L 435.910819 202.6352 
L 439.649078 203.368673 
L 443.387337 204.039119 
L 447.125597 204.671703 
L 450.863856 205.294744 
L 454.602115 205.930838 
L 458.340374 206.591577 
L 462.078633 207.276761 
L 465.816892 207.976826 
" clip-path="url(#p33dba19be2)" style="fill: none; stroke: #1f77b4; stroke-width: 1.5; stroke-linecap: square"/>
   </g>
   <g id="line2d_15">
    <path d="M 91.990983 289.787189 
L 95.729242 289.702593 
L 99.467501 289.829712 
L 103.20576 290.092166 
L 106.944019 290.409119 
L 110.682278 290.707733 
L 114.420538 290.9317 
L 118.158797 291.045309 
L 121.897056 291.034107 
L 125.635315 290.90344 
L 129.373574 290.675551 
L 133.111833 290.385089 
L 136.850092 290.072767 
L 140.588351 289.777726 
L 144.32661 289.530284 
L 148.064869 289.34731 
L 151.803128 289.231792 
L 155.541388 289.176475 
L 159.279647 289.169639 
L 163.017906 289.200299 
L 166.756165 289.260796 
L 170.494424 289.346436 
L 174.232683 289.453339 
L 177.970942 289.576024 
L 181.709201 289.705448 
L 185.44746 289.826988 
L 189.185719 289.917329 
L 192.923978 289.939581 
L 196.662238 289.836524 
L 200.400497 289.521544 
L 204.138756 288.864775 
L 207.877015 287.668392 
L 211.615274 285.621269 
L 215.353533 282.22234 
L 219.091792 276.670864 
L 222.830051 267.754483 
L 226.56831 253.844075 
L 230.306569 233.224534 
L 234.044828 205.011637 
L 237.783087 170.463444 
L 241.521347 133.541357 
L 245.259606 99.482938 
L 248.997865 72.185956 
L 252.736124 52.794949 
L 256.474383 40.293384 
L 260.212642 32.844284 
L 263.950901 28.722345 
L 267.68916 26.652846 
L 271.427419 25.814211 
L 275.165678 25.732845 
L 278.903938 26.175641 
L 282.642197 27.068039 
L 286.380456 28.435176 
L 290.118715 30.357285 
L 293.856974 32.932893 
L 297.595233 36.247283 
L 301.333492 40.346699 
L 305.071751 45.220812 
L 308.81001 50.796888 
L 312.548269 56.948385 
L 316.286528 63.51717 
L 320.024787 70.343116 
L 323.763047 77.290466 
L 327.501306 84.260854 
L 331.239565 91.189134 
L 334.977824 98.026746 
L 338.716083 104.722961 
L 342.454342 111.213689 
L 346.192601 117.421865 
L 349.93086 123.266833 
L 353.669119 128.676687 
L 357.407378 133.598343 
L 361.145637 138.003088 
L 364.883897 141.887929 
L 368.622156 145.273843 
L 372.360415 148.201557 
L 376.098674 150.725286 
L 379.836933 152.905243 
L 383.575192 154.800585 
L 387.313451 156.464741 
L 391.05171 157.94432 
L 394.789969 159.281222 
L 398.528228 160.515963 
L 402.266487 161.689577 
L 406.004747 162.842189 
L 409.743006 164.00816 
L 413.481265 165.20964 
L 417.219524 166.451397 
L 420.957783 167.719581 
L 424.696042 168.985719 
L 428.434301 170.215299 
L 432.17256 171.378531 
L 435.910819 172.459741 
L 439.649078 173.461982 
L 443.387337 174.404945 
L 447.125597 175.316878 
L 450.863856 176.224011 
L 454.602115 177.142381 
L 458.340374 178.075985 
L 462.078633 179.022076 
L 465.816892 179.980702 
" clip-path="url(#p33dba19be2)" style="fill: none; stroke: #ff7f0e; stroke-width: 1.5; stroke-linecap: square"/>
   </g>
   <g id="patch_3">
    <path d="M 73.299688 307.811476 
L 73.299688 11.261672 
" style="fill: none; stroke: #000000; stroke-width: 0.8; stroke-linejoin: miter; stroke-linecap: square"/>
   </g>
   <g id="patch_4">
    <path d="M 484.508187 307.811476 
L 484.508187 11.261672 
" style="fill: none; stroke: #000000; stroke-width: 0.8; stroke-linejoin: miter; stroke-linecap: square"/>
   </g>
   <g id="patch_5">
    <path d="M 73.299688 307.811476 
L 484.508187 307.811476 
" style="fill: none; stroke: #000000; stroke-width: 0.8; stroke-linejoin: miter; stroke-linecap: square"/>
   </g>
   <g id="patch_6">
    <path d="M 73.299688 11.261672 
L 484.508187 11.261672 
" style="fill: none; stroke: #000000; stroke-width: 0.8; stroke-linejoin: miter; stroke-linecap: square"/>
   </g>
   <g id="legend_1">
    <g id="patch_7">
     <path d="M 430.608187 52.353547 
L 476.808187 52.353547 
Q 479.008187 52.353547 479.008187 50.153547 
L 479.008187 18.961672 
Q 479.008187 16.761672 476.808187 16.761672 
L 430.608187 16.761672 
Q 428.408187 16.761672 428.408187 18.961672 
L 428.408187 50.153547 
Q 428.408187 52.353547 430.608187 52.353547 
z
" style="fill: #ffffff; opacity: 0.8; stroke: #cccccc; stroke-linejoin: miter"/>
    </g>
    <g id="LineCollection_3">
     <path d="M 443.808187 31.169953 
L 443.808187 20.169953 
" style="fill: none; stroke: #1f77b4; stroke-width: 1.5"/>
    </g>
    <g id="line2d_16">
     <path d="M 432.808187 25.669953 
L 454.808187 25.669953 
" style="fill: none; stroke: #1f77b4; stroke-width: 1.5; stroke-linecap: square"/>
    </g>
    <g id="line2d_17"/>
    <g id="text_16">
     <!-- $z_1$ -->
     <g transform="translate(463.608187 29.519953) scale(0.11 -0.11)">
      <defs>
       <path id="DejaVuSans-Oblique-7a" d="M 744 3500 
L 3475 3500 
L 3372 2975 
L 738 459 
L 2913 459 
L 2822 0 
L -19 0 
L 84 525 
L 2719 3041 
L 653 3041 
L 744 3500 
z
" transform="scale(0.015625)"/>
      </defs>
      <use xlink:href="#DejaVuSans-Oblique-7a" transform="translate(0 0.3125)"/>
      <use xlink:href="#DejaVuSans-31" transform="translate(52.490234 -16.09375) scale(0.7)"/>
     </g>
    </g>
    <g id="LineCollection_4">
     <path d="M 443.808187 47.31589 
L 443.808187 36.31589 
" style="fill: none; stroke: #ff7f0e; stroke-width: 1.5"/>
    </g>
    <g id="line2d_18">
     <path d="M 432.808187 41.81589 
L 454.808187 41.81589 
" style="fill: none; stroke: #ff7f0e; stroke-width: 1.5; stroke-linecap: square"/>
    </g>
    <g id="line2d_19"/>
    <g id="text_17">
     <!-- $z_2$ -->
     <g transform="translate(463.608187 45.66589) scale(0.11 -0.11)">
      <use xlink:href="#DejaVuSans-Oblique-7a" transform="translate(0 0.3125)"/>
      <use xlink:href="#DejaVuSans-32" transform="translate(52.490234 -16.09375) scale(0.7)"/>
     </g>
    </g>
   </g>
  </g>
  <g id="text_18">
   <!--  M=5 Jackknife bins -->
   <g transform="translate(42.788188 358.771476) scale(0.11 -0.11)">
    <defs>
     <path id="DejaVuSans-Oblique-20" transform="scale(0.015625)"/>
     <path id="DejaVuSans-Oblique-4d" d="M 1081 4666 
L 2028 4666 
L 2572 1522 
L 4378 4666 
L 5350 4666 
L 4441 0 
L 3828 0 
L 4622 4091 
L 2791 897 
L 2175 897 
L 1581 4103 
L 788 0 
L 172 0 
L 1081 4666 
z
" transform="scale(0.015625)"/>
     <path id="DejaVuSans-Oblique-3d" d="M 678 2906 
L 4684 2906 
L 4684 2381 
L 678 2381 
L 678 2906 
z
M 678 1631 
L 4684 1631 
L 4684 1100 
L 678 1100 
L 678 1631 
z
" transform="scale(0.015625)"/>
     <path id="DejaVuSans-Oblique-35" d="M 3719 4666 
L 3622 4141 
L 1691 4141 
L 1466 2988 
Q 1609 3034 1757 3056 
Q 1906 3078 2059 3078 
Q 2706 3078 3081 2731 
Q 3456 2384 3456 1791 
Q 3456 1375 3264 994 
Q 3072 613 2719 325 
Q 2469 125 2108 17 
Q 1747 -91 1319 -91 
Q 1038 -91 744 -41 
Q 450 9 128 109 
L 244 697 
Q 531 556 820 486 
Q 1109 416 1403 416 
Q 2013 416 2411 781 
Q 2809 1147 2809 1697 
Q 2809 2103 2548 2328 
Q 2288 2553 1819 2553 
Q 1572 2553 1305 2495 
Q 1038 2438 756 2322 
L 1209 4666 
L 3719 4666 
z
" transform="scale(0.015625)"/>
     <path id="DejaVuSans-Oblique-4a" d="M 1069 4666 
L 1703 4666 
L 856 325 
Q 691 -522 298 -901 
Q -94 -1281 -800 -1281 
L -1050 -1281 
L -947 -750 
L -750 -750 
Q -328 -750 -109 -509 
Q 109 -269 225 325 
L 1069 4666 
z
" transform="scale(0.015625)"/>
     <path id="DejaVuSans-Oblique-61" d="M 3438 1997 
L 3047 0 
L 2472 0 
L 2578 531 
Q 2325 219 2001 64 
Q 1678 -91 1281 -91 
Q 834 -91 548 182 
Q 263 456 263 884 
Q 263 1497 752 1853 
Q 1241 2209 2100 2209 
L 2900 2209 
L 2931 2363 
Q 2938 2388 2941 2417 
Q 2944 2447 2944 2509 
Q 2944 2788 2717 2942 
Q 2491 3097 2081 3097 
Q 1800 3097 1504 3025 
Q 1209 2953 897 2809 
L 997 3341 
Q 1322 3463 1633 3523 
Q 1944 3584 2234 3584 
Q 2853 3584 3176 3315 
Q 3500 3047 3500 2534 
Q 3500 2431 3484 2292 
Q 3469 2153 3438 1997 
z
M 2816 1759 
L 2241 1759 
Q 1534 1759 1195 1570 
Q 856 1381 856 984 
Q 856 709 1029 553 
Q 1203 397 1509 397 
Q 1978 397 2328 733 
Q 2678 1069 2791 1631 
L 2816 1759 
z
" transform="scale(0.015625)"/>
     <path id="DejaVuSans-Oblique-63" d="M 3431 3366 
L 3316 2797 
Q 3109 2947 2876 3022 
Q 2644 3097 2394 3097 
Q 2119 3097 1870 3000 
Q 1622 2903 1453 2725 
Q 1184 2453 1037 2087 
Q 891 1722 891 1331 
Q 891 859 1127 628 
Q 1363 397 1844 397 
Q 2081 397 2348 469 
Q 2616 541 2906 684 
L 2797 116 
Q 2547 13 2283 -39 
Q 2019 -91 1741 -91 
Q 1044 -91 669 257 
Q 294 606 294 1253 
Q 294 1797 489 2255 
Q 684 2713 1069 3078 
Q 1331 3328 1684 3456 
Q 2038 3584 2456 3584 
Q 2700 3584 2940 3529 
Q 3181 3475 3431 3366 
z
" transform="scale(0.015625)"/>
     <path id="DejaVuSans-Oblique-6b" d="M 1172 4863 
L 1747 4863 
L 1197 2028 
L 3169 3500 
L 3916 3500 
L 1716 1825 
L 3322 0 
L 2625 0 
L 1131 1709 
L 800 0 
L 225 0 
L 1172 4863 
z
" transform="scale(0.015625)"/>
     <path id="DejaVuSans-Oblique-69" d="M 1172 4863 
L 1747 4863 
L 1606 4134 
L 1031 4134 
L 1172 4863 
z
M 909 3500 
L 1484 3500 
L 800 0 
L 225 0 
L 909 3500 
z
" transform="scale(0.015625)"/>
     <path id="DejaVuSans-Oblique-66" d="M 3059 4863 
L 2969 4384 
L 2419 4384 
Q 2106 4384 1964 4261 
Q 1822 4138 1753 3809 
L 1691 3500 
L 2638 3500 
L 2553 3053 
L 1606 3053 
L 1013 0 
L 434 0 
L 1031 3053 
L 481 3053 
L 563 3500 
L 1113 3500 
L 1159 3744 
Q 1278 4363 1576 4613 
Q 1875 4863 2516 4863 
L 3059 4863 
z
" transform="scale(0.015625)"/>
     <path id="DejaVuSans-Oblique-65" d="M 3078 2063 
Q 3088 2113 3092 2166 
Q 3097 2219 3097 2272 
Q 3097 2653 2873 2875 
Q 2650 3097 2266 3097 
Q 1838 3097 1509 2826 
Q 1181 2556 1013 2059 
L 3078 2063 
z
M 3578 1613 
L 903 1613 
Q 884 1494 878 1425 
Q 872 1356 872 1306 
Q 872 872 1139 634 
Q 1406 397 1894 397 
Q 2269 397 2603 481 
Q 2938 566 3225 728 
L 3116 159 
Q 2806 34 2476 -28 
Q 2147 -91 1806 -91 
Q 1078 -91 686 257 
Q 294 606 294 1247 
Q 294 1794 489 2264 
Q 684 2734 1063 3103 
Q 1306 3334 1642 3459 
Q 1978 3584 2356 3584 
Q 2950 3584 3301 3228 
Q 3653 2872 3653 2272 
Q 3653 2128 3634 1964 
Q 3616 1800 3578 1613 
z
" transform="scale(0.015625)"/>
     <path id="DejaVuSans-Oblique-62" d="M 3169 2138 
Q 3169 2591 2961 2847 
Q 2753 3103 2388 3103 
Q 2122 3103 1889 2973 
Q 1656 2844 1484 2597 
Q 1303 2338 1198 1995 
Q 1094 1653 1094 1313 
Q 1094 881 1298 636 
Q 1503 391 1863 391 
Q 2134 391 2365 517 
Q 2597 644 2772 891 
Q 2950 1147 3059 1487 
Q 3169 1828 3169 2138 
z
M 1381 2969 
Q 1594 3256 1914 3420 
Q 2234 3584 2584 3584 
Q 3122 3584 3439 3221 
Q 3756 2859 3756 2241 
Q 3756 1734 3570 1259 
Q 3384 784 3041 416 
Q 2816 172 2522 40 
Q 2228 -91 1906 -91 
Q 1566 -91 1316 65 
Q 1066 222 909 531 
L 806 0 
L 231 0 
L 1178 4863 
L 1753 4863 
L 1381 2969 
z
" transform="scale(0.015625)"/>
     <path id="DejaVuSans-Oblique-73" d="M 3200 3397 
L 3091 2853 
Q 2863 2978 2609 3040 
Q 2356 3103 2088 3103 
Q 1634 3103 1373 2948 
Q 1113 2794 1113 2528 
Q 1113 2219 1719 2053 
Q 1766 2041 1788 2034 
L 1972 1978 
Q 2547 1819 2739 1644 
Q 2931 1469 2931 1166 
Q 2931 609 2489 259 
Q 2047 -91 1331 -91 
Q 1053 -91 747 -37 
Q 441 16 72 128 
L 184 722 
Q 500 559 806 475 
Q 1113 391 1394 391 
Q 1816 391 2080 572 
Q 2344 753 2344 1031 
Q 2344 1331 1650 1516 
L 1591 1531 
L 1394 1581 
Q 956 1697 753 1886 
Q 550 2075 550 2369 
Q 550 2928 970 3256 
Q 1391 3584 2113 3584 
Q 2397 3584 2667 3537 
Q 2938 3491 3200 3397 
z
" transform="scale(0.015625)"/>
    </defs>
    <use xlink:href="#DejaVuSans-Oblique-20"/>
    <use xlink:href="#DejaVuSans-Oblique-4d" x="31.787109"/>
    <use xlink:href="#DejaVuSans-Oblique-3d" x="118.066406"/>
    <use xlink:href="#DejaVuSans-Oblique-35" x="201.855469"/>
    <use xlink:href="#DejaVuSans-Oblique-20" x="265.478516"/>
    <use xlink:href="#DejaVuSans-Oblique-4a" x="297.265625"/>
    <use xlink:href="#DejaVuSans-Oblique-61" x="326.757812"/>
    <use xlink:href="#DejaVuSans-Oblique-63" x="388.037109"/>
    <use xlink:href="#DejaVuSans-Oblique-6b" x="443.017578"/>
    <use xlink:href="#DejaVuSans-Oblique-6b" x="500.927734"/>
    <use xlink:href="#DejaVuSans-Oblique-6e" x="558.837891"/>
    <use xlink:href="#DejaVuSans-Oblique-69" x="622.216797"/>
    <use xlink:href="#DejaVuSans-Oblique-66" x="650"/>
    <use xlink:href="#DejaVuSans-Oblique-65" x="685.205078"/>
    <use xlink:href="#DejaVuSans-Oblique-20" x="746.728516"/>
    <use xlink:href="#DejaVuSans-Oblique-62" x="778.515625"/>
    <use xlink:href="#DejaVuSans-Oblique-69" x="841.992188"/>
    <use xlink:href="#DejaVuSans-Oblique-6e" x="869.775391"/>
    <use xlink:href="#DejaVuSans-Oblique-73" x="933.154297"/>
   </g>
  </g>
 </g>
 <defs>
  <clipPath id="p33dba19be2">
   <rect x="73.299688" y="11.261672" width="411.2085" height="296.549804"/>
  </clipPath>
 </defs>
</svg>
