<?xml version="1.0" encoding="utf-8" standalone="no"?>
<!DOCTYPE svg PUBLIC "-//W3C//DTD SVG 1.1//EN"
  "http://www.w3.org/Graphics/SVG/1.1/DTD/svg11.dtd">
<svg xmlns:xlink="http://www.w3.org/1999/xlink" width="465.530937pt" height="337.087656pt" viewBox="0 0 465.530937 337.087656" xmlns="http://www.w3.org/2000/svg" version="1.1">
 <metadata>
  <rdf:RDF xmlns:dc="http://purl.org/dc/elements/1.1/" xmlns:cc="http://creativecommons.org/ns#" xmlns:rdf="http://www.w3.org/1999/02/22-rdf-syntax-ns#">
   <cc:Work>
    <dc:type rdf:resource="http://purl.org/dc/dcmitype/StillImage"/>
    <dc:date>2024-05-06T14:37:34.877694</dc:date>
    <dc:format>image/svg+xml</dc:format>
    <dc:creator>
     <cc:Agent>
      <dc:title>Matplotlib v3.8.0, https://matplotlib.org/</dc:title>
     </cc:Agent>
    </dc:creator>
   </cc:Work>
  </rdf:RDF>
 </metadata>
 <defs>
  <style type="text/css">*{stroke-linejoin: round; stroke-linecap: butt}</style>
 </defs>
 <g id="figure_1">
  <g id="patch_1">
   <path d="M 0 337.087656 
L 465.530937 337.087656 
L 465.530937 0 
L 0 0 
z
" style="fill: #ffffff"/>
  </g>
  <g id="axes_1">
   <g id="patch_2">
    <path d="M 67.730938 284.4 
L 458.330938 284.4 
L 458.330938 7.2 
L 67.730938 7.2 
z
" style="fill: #ffffff"/>
   </g>
   <g id="matplotlib.axis_1">
    <g id="xtick_1">
     <g id="line2d_1">
      <defs>
       <path id="m9eb83a47d3" d="M 0 0 
L 0 3.5 
" style="stroke: #000000; stroke-width: 0.8"/>
      </defs>
      <g>
       <use xlink:href="#m9eb83a47d3" x="120.994574" y="284.4" style="stroke: #000000; stroke-width: 0.8"/>
      </g>
     </g>
     <g id="text_1">
      <!-- 10.76 -->
      <g transform="translate(105.249105 299.758281) scale(0.11 -0.11)">
       <defs>
        <path id="DejaVuSans-31" d="M 794 531 
L 1825 531 
L 1825 4091 
L 703 3866 
L 703 4441 
L 1819 4666 
L 2450 4666 
L 2450 531 
L 3481 531 
L 3481 0 
L 794 0 
L 794 531 
z
" transform="scale(0.015625)"/>
        <path id="DejaVuSans-30" d="M 2034 4250 
Q 1547 4250 1301 3770 
Q 1056 3291 1056 2328 
Q 1056 1369 1301 889 
Q 1547 409 2034 409 
Q 2525 409 2770 889 
Q 3016 1369 3016 2328 
Q 3016 3291 2770 3770 
Q 2525 4250 2034 4250 
z
M 2034 4750 
Q 2819 4750 3233 4129 
Q 3647 3509 3647 2328 
Q 3647 1150 3233 529 
Q 2819 -91 2034 -91 
Q 1250 -91 836 529 
Q 422 1150 422 2328 
Q 422 3509 836 4129 
Q 1250 4750 2034 4750 
z
" transform="scale(0.015625)"/>
        <path id="DejaVuSans-2e" d="M 684 794 
L 1344 794 
L 1344 0 
L 684 0 
L 684 794 
z
" transform="scale(0.015625)"/>
        <path id="DejaVuSans-37" d="M 525 4666 
L 3525 4666 
L 3525 4397 
L 1831 0 
L 1172 0 
L 2766 4134 
L 525 4134 
L 525 4666 
z
" transform="scale(0.015625)"/>
        <path id="DejaVuSans-36" d="M 2113 2584 
Q 1688 2584 1439 2293 
Q 1191 2003 1191 1497 
Q 1191 994 1439 701 
Q 1688 409 2113 409 
Q 2538 409 2786 701 
Q 3034 994 3034 1497 
Q 3034 2003 2786 2293 
Q 2538 2584 2113 2584 
z
M 3366 4563 
L 3366 3988 
Q 3128 4100 2886 4159 
Q 2644 4219 2406 4219 
Q 1781 4219 1451 3797 
Q 1122 3375 1075 2522 
Q 1259 2794 1537 2939 
Q 1816 3084 2150 3084 
Q 2853 3084 3261 2657 
Q 3669 2231 3669 1497 
Q 3669 778 3244 343 
Q 2819 -91 2113 -91 
Q 1303 -91 875 529 
Q 447 1150 447 2328 
Q 447 3434 972 4092 
Q 1497 4750 2381 4750 
Q 2619 4750 2861 4703 
Q 3103 4656 3366 4563 
z
" transform="scale(0.015625)"/>
       </defs>
       <use xlink:href="#DejaVuSans-31"/>
       <use xlink:href="#DejaVuSans-30" x="63.623047"/>
       <use xlink:href="#DejaVuSans-2e" x="127.246094"/>
       <use xlink:href="#DejaVuSans-37" x="159.033203"/>
       <use xlink:href="#DejaVuSans-36" x="222.65625"/>
      </g>
     </g>
    </g>
    <g id="xtick_2">
     <g id="line2d_2">
      <g>
       <use xlink:href="#m9eb83a47d3" x="192.012756" y="284.4" style="stroke: #000000; stroke-width: 0.8"/>
      </g>
     </g>
     <g id="text_2">
      <!-- 10.78 -->
      <g transform="translate(176.267287 299.758281) scale(0.11 -0.11)">
       <defs>
        <path id="DejaVuSans-38" d="M 2034 2216 
Q 1584 2216 1326 1975 
Q 1069 1734 1069 1313 
Q 1069 891 1326 650 
Q 1584 409 2034 409 
Q 2484 409 2743 651 
Q 3003 894 3003 1313 
Q 3003 1734 2745 1975 
Q 2488 2216 2034 2216 
z
M 1403 2484 
Q 997 2584 770 2862 
Q 544 3141 544 3541 
Q 544 4100 942 4425 
Q 1341 4750 2034 4750 
Q 2731 4750 3128 4425 
Q 3525 4100 3525 3541 
Q 3525 3141 3298 2862 
Q 3072 2584 2669 2484 
Q 3125 2378 3379 2068 
Q 3634 1759 3634 1313 
Q 3634 634 3220 271 
Q 2806 -91 2034 -91 
Q 1263 -91 848 271 
Q 434 634 434 1313 
Q 434 1759 690 2068 
Q 947 2378 1403 2484 
z
M 1172 3481 
Q 1172 3119 1398 2916 
Q 1625 2713 2034 2713 
Q 2441 2713 2670 2916 
Q 2900 3119 2900 3481 
Q 2900 3844 2670 4047 
Q 2441 4250 2034 4250 
Q 1625 4250 1398 4047 
Q 1172 3844 1172 3481 
z
" transform="scale(0.015625)"/>
       </defs>
       <use xlink:href="#DejaVuSans-31"/>
       <use xlink:href="#DejaVuSans-30" x="63.623047"/>
       <use xlink:href="#DejaVuSans-2e" x="127.246094"/>
       <use xlink:href="#DejaVuSans-37" x="159.033203"/>
       <use xlink:href="#DejaVuSans-38" x="222.65625"/>
      </g>
     </g>
    </g>
    <g id="xtick_3">
     <g id="line2d_3">
      <g>
       <use xlink:href="#m9eb83a47d3" x="263.030937" y="284.4" style="stroke: #000000; stroke-width: 0.8"/>
      </g>
     </g>
     <g id="text_3">
      <!-- 10.80 -->
      <g transform="translate(247.285469 299.758281) scale(0.11 -0.11)">
       <use xlink:href="#DejaVuSans-31"/>
       <use xlink:href="#DejaVuSans-30" x="63.623047"/>
       <use xlink:href="#DejaVuSans-2e" x="127.246094"/>
       <use xlink:href="#DejaVuSans-38" x="159.033203"/>
       <use xlink:href="#DejaVuSans-30" x="222.65625"/>
      </g>
     </g>
    </g>
    <g id="xtick_4">
     <g id="line2d_4">
      <g>
       <use xlink:href="#m9eb83a47d3" x="334.049119" y="284.4" style="stroke: #000000; stroke-width: 0.8"/>
      </g>
     </g>
     <g id="text_4">
      <!-- 10.82 -->
      <g transform="translate(318.303651 299.758281) scale(0.11 -0.11)">
       <defs>
        <path id="DejaVuSans-32" d="M 1228 531 
L 3431 531 
L 3431 0 
L 469 0 
L 469 531 
Q 828 903 1448 1529 
Q 2069 2156 2228 2338 
Q 2531 2678 2651 2914 
Q 2772 3150 2772 3378 
Q 2772 3750 2511 3984 
Q 2250 4219 1831 4219 
Q 1534 4219 1204 4116 
Q 875 4013 500 3803 
L 500 4441 
Q 881 4594 1212 4672 
Q 1544 4750 1819 4750 
Q 2544 4750 2975 4387 
Q 3406 4025 3406 3419 
Q 3406 3131 3298 2873 
Q 3191 2616 2906 2266 
Q 2828 2175 2409 1742 
Q 1991 1309 1228 531 
z
" transform="scale(0.015625)"/>
       </defs>
       <use xlink:href="#DejaVuSans-31"/>
       <use xlink:href="#DejaVuSans-30" x="63.623047"/>
       <use xlink:href="#DejaVuSans-2e" x="127.246094"/>
       <use xlink:href="#DejaVuSans-38" x="159.033203"/>
       <use xlink:href="#DejaVuSans-32" x="222.65625"/>
      </g>
     </g>
    </g>
    <g id="xtick_5">
     <g id="line2d_5">
      <g>
       <use xlink:href="#m9eb83a47d3" x="405.067301" y="284.4" style="stroke: #000000; stroke-width: 0.8"/>
      </g>
     </g>
     <g id="text_5">
      <!-- 10.84 -->
      <g transform="translate(389.321832 299.758281) scale(0.11 -0.11)">
       <defs>
        <path id="DejaVuSans-34" d="M 2419 4116 
L 825 1625 
L 2419 1625 
L 2419 4116 
z
M 2253 4666 
L 3047 4666 
L 3047 1625 
L 3713 1625 
L 3713 1100 
L 3047 1100 
L 3047 0 
L 2419 0 
L 2419 1100 
L 313 1100 
L 313 1709 
L 2253 4666 
z
" transform="scale(0.015625)"/>
       </defs>
       <use xlink:href="#DejaVuSans-31"/>
       <use xlink:href="#DejaVuSans-30" x="63.623047"/>
       <use xlink:href="#DejaVuSans-2e" x="127.246094"/>
       <use xlink:href="#DejaVuSans-38" x="159.033203"/>
       <use xlink:href="#DejaVuSans-34" x="222.65625"/>
      </g>
     </g>
    </g>
    <g id="text_6">
     <!-- $\beta$ -->
     <g transform="translate(259.510938 314.515938) scale(0.11 -0.11)">
      <defs>
       <path id="DejaVuSans-Oblique-3b2" d="M 872 216 
L 572 -1331 
L -6 -1331 
L 928 3478 
Q 1206 4903 2538 4903 
Q 3888 4903 3659 3700 
Q 3503 2844 2894 2531 
Q 3713 2250 3553 1416 
Q 3272 -69 1759 -66 
Q 1097 -63 872 216 
z
M 1019 966 
Q 1259 422 1875 425 
Q 2775 425 2966 1406 
Q 3138 2288 1675 2219 
L 1778 2750 
Q 2909 2731 3106 3750 
Q 3241 4438 2509 4434 
Q 1691 4434 1503 3459 
L 1019 966 
z
" transform="scale(0.015625)"/>
      </defs>
      <use xlink:href="#DejaVuSans-Oblique-3b2" transform="translate(0 0.390625)"/>
     </g>
    </g>
   </g>
   <g id="matplotlib.axis_2">
    <g id="ytick_1">
     <g id="line2d_6">
      <defs>
       <path id="mb9db40a78a" d="M 0 0 
L -3.5 0 
" style="stroke: #000000; stroke-width: 0.8"/>
      </defs>
      <g>
       <use xlink:href="#mb9db40a78a" x="67.730938" y="271.650719" style="stroke: #000000; stroke-width: 0.8"/>
      </g>
     </g>
     <g id="text_7">
      <!-- 0.000 -->
      <g transform="translate(29.24 275.829859) scale(0.11 -0.11)">
       <use xlink:href="#DejaVuSans-30"/>
       <use xlink:href="#DejaVuSans-2e" x="63.623047"/>
       <use xlink:href="#DejaVuSans-30" x="95.410156"/>
       <use xlink:href="#DejaVuSans-30" x="159.033203"/>
       <use xlink:href="#DejaVuSans-30" x="222.65625"/>
      </g>
     </g>
    </g>
    <g id="ytick_2">
     <g id="line2d_7">
      <g>
       <use xlink:href="#mb9db40a78a" x="67.730938" y="237.264887" style="stroke: #000000; stroke-width: 0.8"/>
      </g>
     </g>
     <g id="text_8">
      <!-- 0.005 -->
      <g transform="translate(29.24 241.444028) scale(0.11 -0.11)">
       <defs>
        <path id="DejaVuSans-35" d="M 691 4666 
L 3169 4666 
L 3169 4134 
L 1269 4134 
L 1269 2991 
Q 1406 3038 1543 3061 
Q 1681 3084 1819 3084 
Q 2600 3084 3056 2656 
Q 3513 2228 3513 1497 
Q 3513 744 3044 326 
Q 2575 -91 1722 -91 
Q 1428 -91 1123 -41 
Q 819 9 494 109 
L 494 744 
Q 775 591 1075 516 
Q 1375 441 1709 441 
Q 2250 441 2565 725 
Q 2881 1009 2881 1497 
Q 2881 1984 2565 2268 
Q 2250 2553 1709 2553 
Q 1456 2553 1204 2497 
Q 953 2441 691 2322 
L 691 4666 
z
" transform="scale(0.015625)"/>
       </defs>
       <use xlink:href="#DejaVuSans-30"/>
       <use xlink:href="#DejaVuSans-2e" x="63.623047"/>
       <use xlink:href="#DejaVuSans-30" x="95.410156"/>
       <use xlink:href="#DejaVuSans-30" x="159.033203"/>
       <use xlink:href="#DejaVuSans-35" x="222.65625"/>
      </g>
     </g>
    </g>
    <g id="ytick_3">
     <g id="line2d_8">
      <g>
       <use xlink:href="#mb9db40a78a" x="67.730938" y="202.879056" style="stroke: #000000; stroke-width: 0.8"/>
      </g>
     </g>
     <g id="text_9">
      <!-- 0.010 -->
      <g transform="translate(29.24 207.058197) scale(0.11 -0.11)">
       <use xlink:href="#DejaVuSans-30"/>
       <use xlink:href="#DejaVuSans-2e" x="63.623047"/>
       <use xlink:href="#DejaVuSans-30" x="95.410156"/>
       <use xlink:href="#DejaVuSans-31" x="159.033203"/>
       <use xlink:href="#DejaVuSans-30" x="222.65625"/>
      </g>
     </g>
    </g>
    <g id="ytick_4">
     <g id="line2d_9">
      <g>
       <use xlink:href="#mb9db40a78a" x="67.730938" y="168.493225" style="stroke: #000000; stroke-width: 0.8"/>
      </g>
     </g>
     <g id="text_10">
      <!-- 0.015 -->
      <g transform="translate(29.24 172.672365) scale(0.11 -0.11)">
       <use xlink:href="#DejaVuSans-30"/>
       <use xlink:href="#DejaVuSans-2e" x="63.623047"/>
       <use xlink:href="#DejaVuSans-30" x="95.410156"/>
       <use xlink:href="#DejaVuSans-31" x="159.033203"/>
       <use xlink:href="#DejaVuSans-35" x="222.65625"/>
      </g>
     </g>
    </g>
    <g id="ytick_5">
     <g id="line2d_10">
      <g>
       <use xlink:href="#mb9db40a78a" x="67.730938" y="134.107393" style="stroke: #000000; stroke-width: 0.8"/>
      </g>
     </g>
     <g id="text_11">
      <!-- 0.020 -->
      <g transform="translate(29.24 138.286534) scale(0.11 -0.11)">
       <use xlink:href="#DejaVuSans-30"/>
       <use xlink:href="#DejaVuSans-2e" x="63.623047"/>
       <use xlink:href="#DejaVuSans-30" x="95.410156"/>
       <use xlink:href="#DejaVuSans-32" x="159.033203"/>
       <use xlink:href="#DejaVuSans-30" x="222.65625"/>
      </g>
     </g>
    </g>
    <g id="ytick_6">
     <g id="line2d_11">
      <g>
       <use xlink:href="#mb9db40a78a" x="67.730938" y="99.721562" style="stroke: #000000; stroke-width: 0.8"/>
      </g>
     </g>
     <g id="text_12">
      <!-- 0.025 -->
      <g transform="translate(29.24 103.900703) scale(0.11 -0.11)">
       <use xlink:href="#DejaVuSans-30"/>
       <use xlink:href="#DejaVuSans-2e" x="63.623047"/>
       <use xlink:href="#DejaVuSans-30" x="95.410156"/>
       <use xlink:href="#DejaVuSans-32" x="159.033203"/>
       <use xlink:href="#DejaVuSans-35" x="222.65625"/>
      </g>
     </g>
    </g>
    <g id="ytick_7">
     <g id="line2d_12">
      <g>
       <use xlink:href="#mb9db40a78a" x="67.730938" y="65.335731" style="stroke: #000000; stroke-width: 0.8"/>
      </g>
     </g>
     <g id="text_13">
      <!-- 0.030 -->
      <g transform="translate(29.24 69.514872) scale(0.11 -0.11)">
       <defs>
        <path id="DejaVuSans-33" d="M 2597 2516 
Q 3050 2419 3304 2112 
Q 3559 1806 3559 1356 
Q 3559 666 3084 287 
Q 2609 -91 1734 -91 
Q 1441 -91 1130 -33 
Q 819 25 488 141 
L 488 750 
Q 750 597 1062 519 
Q 1375 441 1716 441 
Q 2309 441 2620 675 
Q 2931 909 2931 1356 
Q 2931 1769 2642 2001 
Q 2353 2234 1838 2234 
L 1294 2234 
L 1294 2753 
L 1863 2753 
Q 2328 2753 2575 2939 
Q 2822 3125 2822 3475 
Q 2822 3834 2567 4026 
Q 2313 4219 1838 4219 
Q 1578 4219 1281 4162 
Q 984 4106 628 3988 
L 628 4550 
Q 988 4650 1302 4700 
Q 1616 4750 1894 4750 
Q 2613 4750 3031 4423 
Q 3450 4097 3450 3541 
Q 3450 3153 3228 2886 
Q 3006 2619 2597 2516 
z
" transform="scale(0.015625)"/>
       </defs>
       <use xlink:href="#DejaVuSans-30"/>
       <use xlink:href="#DejaVuSans-2e" x="63.623047"/>
       <use xlink:href="#DejaVuSans-30" x="95.410156"/>
       <use xlink:href="#DejaVuSans-33" x="159.033203"/>
       <use xlink:href="#DejaVuSans-30" x="222.65625"/>
      </g>
     </g>
    </g>
    <g id="ytick_8">
     <g id="line2d_13">
      <g>
       <use xlink:href="#mb9db40a78a" x="67.730938" y="30.9499" style="stroke: #000000; stroke-width: 0.8"/>
      </g>
     </g>
     <g id="text_14">
      <!-- 0.035 -->
      <g transform="translate(29.24 35.12904) scale(0.11 -0.11)">
       <use xlink:href="#DejaVuSans-30"/>
       <use xlink:href="#DejaVuSans-2e" x="63.623047"/>
       <use xlink:href="#DejaVuSans-30" x="95.410156"/>
       <use xlink:href="#DejaVuSans-33" x="159.033203"/>
       <use xlink:href="#DejaVuSans-35" x="222.65625"/>
      </g>
     </g>
    </g>
    <g id="text_15">
     <!-- $\frac{6\cdot V}{A}\int d\beta \frac{1}{\beta}\langle S_{t} - S_{nt} \rangle $ -->
     <g transform="translate(19.08 192.33) rotate(-90) scale(0.11 -0.11)">
      <defs>
       <path id="DejaVuSans-22c5" d="M 684 2619 
L 1344 2619 
L 1344 1825 
L 684 1825 
L 684 2619 
z
" transform="scale(0.015625)"/>
       <path id="DejaVuSans-Oblique-56" d="M 1319 0 
L 500 4666 
L 1119 4666 
L 1797 653 
L 4063 4666 
L 4750 4666 
L 2053 0 
L 1319 0 
z
" transform="scale(0.015625)"/>
       <path id="DejaVuSans-Oblique-41" d="M 2356 4666 
L 3072 4666 
L 3938 0 
L 3278 0 
L 3084 1197 
L 984 1197 
L 325 0 
L -341 0 
L 2356 4666 
z
M 2584 4044 
L 1275 1722 
L 2988 1722 
L 2584 4044 
z
" transform="scale(0.015625)"/>
       <path id="DejaVuSansDisplay-222b" d="M 2134 5525 
Q 2172 6263 2528 6556 
Q 2884 6850 3218 6850 
Q 3553 6850 3833 6575 
Q 4113 6300 4200 5678 
L 3544 5613 
Q 3469 6188 3219 6188 
Q 2906 6188 2869 5413 
L 2581 -597 
Q 2547 -1334 2187 -1628 
Q 1828 -1922 1497 -1922 
Q 1163 -1922 883 -1647 
Q 603 -1372 516 -750 
L 1172 -684 
Q 1247 -1259 1497 -1259 
Q 1809 -1259 1847 -488 
L 2134 5525 
z
" transform="scale(0.015625)"/>
       <path id="DejaVuSans-Oblique-64" d="M 2675 525 
Q 2444 222 2128 65 
Q 1813 -91 1428 -91 
Q 903 -91 598 267 
Q 294 625 294 1247 
Q 294 1766 478 2236 
Q 663 2706 1013 3078 
Q 1244 3325 1534 3454 
Q 1825 3584 2144 3584 
Q 2481 3584 2739 3421 
Q 2997 3259 3138 2956 
L 3513 4863 
L 4091 4863 
L 3144 0 
L 2566 0 
L 2675 525 
z
M 891 1350 
Q 891 897 1095 644 
Q 1300 391 1663 391 
Q 1931 391 2161 520 
Q 2391 650 2566 903 
Q 2750 1166 2856 1509 
Q 2963 1853 2963 2188 
Q 2963 2622 2758 2865 
Q 2553 3109 2194 3109 
Q 1922 3109 1687 2981 
Q 1453 2853 1288 2613 
Q 1106 2353 998 2009 
Q 891 1666 891 1350 
z
" transform="scale(0.015625)"/>
       <path id="DejaVuSans-27e8" d="M 572 2006 
L 1453 4856 
L 1984 4856 
L 1103 2006 
L 1984 -844 
L 1453 -844 
L 572 2006 
z
" transform="scale(0.015625)"/>
       <path id="DejaVuSans-Oblique-53" d="M 3859 4513 
L 3738 3897 
Q 3422 4066 3111 4152 
Q 2800 4238 2509 4238 
Q 1944 4238 1609 3991 
Q 1275 3744 1275 3334 
Q 1275 3109 1398 2989 
Q 1522 2869 2034 2731 
L 2413 2638 
Q 3053 2472 3303 2217 
Q 3553 1963 3553 1503 
Q 3553 797 2998 353 
Q 2444 -91 1538 -91 
Q 1166 -91 791 -17 
Q 416 56 38 206 
L 166 856 
Q 513 641 861 531 
Q 1209 422 1556 422 
Q 2147 422 2503 684 
Q 2859 947 2859 1369 
Q 2859 1650 2717 1795 
Q 2575 1941 2106 2059 
L 1728 2156 
Q 1081 2325 845 2545 
Q 609 2766 609 3163 
Q 609 3859 1145 4304 
Q 1681 4750 2541 4750 
Q 2875 4750 3203 4690 
Q 3531 4631 3859 4513 
z
" transform="scale(0.015625)"/>
       <path id="DejaVuSans-Oblique-74" d="M 2706 3500 
L 2619 3053 
L 1472 3053 
L 1100 1153 
Q 1081 1047 1072 975 
Q 1063 903 1063 863 
Q 1063 663 1183 572 
Q 1303 481 1569 481 
L 2150 481 
L 2053 0 
L 1503 0 
Q 991 0 739 200 
Q 488 400 488 806 
Q 488 878 497 964 
Q 506 1050 525 1153 
L 897 3053 
L 409 3053 
L 500 3500 
L 978 3500 
L 1172 4494 
L 1747 4494 
L 1556 3500 
L 2706 3500 
z
" transform="scale(0.015625)"/>
       <path id="DejaVuSans-2212" d="M 678 2272 
L 4684 2272 
L 4684 1741 
L 678 1741 
L 678 2272 
z
" transform="scale(0.015625)"/>
       <path id="DejaVuSans-Oblique-6e" d="M 3566 2113 
L 3156 0 
L 2578 0 
L 2988 2091 
Q 3016 2238 3031 2350 
Q 3047 2463 3047 2528 
Q 3047 2791 2881 2937 
Q 2716 3084 2419 3084 
Q 1956 3084 1622 2776 
Q 1288 2469 1184 1941 
L 800 0 
L 225 0 
L 903 3500 
L 1478 3500 
L 1363 2950 
Q 1603 3253 1940 3418 
Q 2278 3584 2650 3584 
Q 3113 3584 3367 3334 
Q 3622 3084 3622 2631 
Q 3622 2519 3608 2391 
Q 3594 2263 3566 2113 
z
" transform="scale(0.015625)"/>
       <path id="DejaVuSans-27e9" d="M 1925 2006 
L 1044 -844 
L 513 -844 
L 1394 2006 
L 513 4856 
L 1044 4856 
L 1925 2006 
z
" transform="scale(0.015625)"/>
      </defs>
      <use xlink:href="#DejaVuSans-36" transform="translate(0 45.760937) scale(0.7)"/>
      <use xlink:href="#DejaVuSans-22c5" transform="translate(58.173828 45.760937) scale(0.7)"/>
      <use xlink:href="#DejaVuSans-Oblique-56" transform="translate(94.0625 45.760937) scale(0.7)"/>
      <use xlink:href="#DejaVuSans-Oblique-41" transform="translate(47 -37.51875) scale(0.7)"/>
      <use xlink:href="#DejaVuSansDisplay-222b" transform="translate(154.448242 0.96875)"/>
      <use xlink:href="#DejaVuSans-Oblique-64" transform="translate(228.081055 0.96875)"/>
      <use xlink:href="#DejaVuSans-Oblique-3b2" transform="translate(291.557617 0.96875)"/>
      <use xlink:href="#DejaVuSans-31" transform="translate(355.375977 44.765625) scale(0.7)"/>
      <use xlink:href="#DejaVuSans-Oblique-3b2" transform="translate(355.375977 -40.110938) scale(0.7)"/>
      <use xlink:href="#DejaVuSans-27e8" transform="translate(412.548828 0.96875)"/>
      <use xlink:href="#DejaVuSans-Oblique-53" transform="translate(451.5625 0.96875)"/>
      <use xlink:href="#DejaVuSans-Oblique-74" transform="translate(515.039062 -15.4375) scale(0.7)"/>
      <use xlink:href="#DejaVuSans-2212" transform="translate(564.702148 0.96875)"/>
      <use xlink:href="#DejaVuSans-Oblique-53" transform="translate(667.973633 0.96875)"/>
      <use xlink:href="#DejaVuSans-Oblique-6e" transform="translate(731.450195 -15.4375) scale(0.7)"/>
      <use xlink:href="#DejaVuSans-Oblique-74" transform="translate(775.81543 -15.4375) scale(0.7)"/>
      <use xlink:href="#DejaVuSans-27e9" transform="translate(805.996094 0.96875)"/>
      <path d="M 0 19.765625 
L 0 26.015625 
L 141.948242 26.015625 
L 141.948242 19.765625 
L 0 19.765625 
z
"/>
      <path d="M 355.375977 19.765625 
L 355.375977 26.015625 
L 400.048828 26.015625 
L 400.048828 19.765625 
L 355.375977 19.765625 
z
"/>
     </g>
    </g>
   </g>
   <g id="LineCollection_1">
    <path d="M 85.485483 271.650719 
L 85.485483 271.650719 
" clip-path="url(#pae96d11513)" style="fill: none; stroke: #ff0000; stroke-width: 1.5"/>
    <path d="M 89.036392 271.679622 
L 89.036392 271.657274 
" clip-path="url(#pae96d11513)" style="fill: none; stroke: #ff0000; stroke-width: 1.5"/>
    <path d="M 92.587301 271.705757 
L 92.587301 271.660781 
" clip-path="url(#pae96d11513)" style="fill: none; stroke: #ff0000; stroke-width: 1.5"/>
    <path d="M 96.13821 271.729892 
L 96.13821 271.661156 
" clip-path="url(#pae96d11513)" style="fill: none; stroke: #ff0000; stroke-width: 1.5"/>
    <path d="M 99.689119 271.751347 
L 99.689119 271.658734 
" clip-path="url(#pae96d11513)" style="fill: none; stroke: #ff0000; stroke-width: 1.5"/>
    <path d="M 103.240028 271.769249 
L 103.240028 271.653866 
" clip-path="url(#pae96d11513)" style="fill: none; stroke: #ff0000; stroke-width: 1.5"/>
    <path d="M 106.790938 271.783067 
L 106.790938 271.647009 
" clip-path="url(#pae96d11513)" style="fill: none; stroke: #ff0000; stroke-width: 1.5"/>
    <path d="M 110.341847 271.792684 
L 110.341847 271.638905 
" clip-path="url(#pae96d11513)" style="fill: none; stroke: #ff0000; stroke-width: 1.5"/>
    <path d="M 113.892756 271.798248 
L 113.892756 271.630567 
" clip-path="url(#pae96d11513)" style="fill: none; stroke: #ff0000; stroke-width: 1.5"/>
    <path d="M 117.443665 271.8 
L 117.443665 271.623018 
" clip-path="url(#pae96d11513)" style="fill: none; stroke: #ff0000; stroke-width: 1.5"/>
    <path d="M 120.994574 271.798175 
L 120.994574 271.616901 
" clip-path="url(#pae96d11513)" style="fill: none; stroke: #ff0000; stroke-width: 1.5"/>
    <path d="M 124.545483 271.792992 
L 124.545483 271.612166 
" clip-path="url(#pae96d11513)" style="fill: none; stroke: #ff0000; stroke-width: 1.5"/>
    <path d="M 128.096392 271.784725 
L 128.096392 271.607992 
" clip-path="url(#pae96d11513)" style="fill: none; stroke: #ff0000; stroke-width: 1.5"/>
    <path d="M 131.647301 271.77378 
L 131.647301 271.602982 
" clip-path="url(#pae96d11513)" style="fill: none; stroke: #ff0000; stroke-width: 1.5"/>
    <path d="M 135.19821 271.760701 
L 135.19821 271.595606 
" clip-path="url(#pae96d11513)" style="fill: none; stroke: #ff0000; stroke-width: 1.5"/>
    <path d="M 138.749119 271.746052 
L 138.749119 271.584747 
" clip-path="url(#pae96d11513)" style="fill: none; stroke: #ff0000; stroke-width: 1.5"/>
    <path d="M 142.300028 271.730231 
L 142.300028 271.570116 
" clip-path="url(#pae96d11513)" style="fill: none; stroke: #ff0000; stroke-width: 1.5"/>
    <path d="M 145.850937 271.713413 
L 145.850937 271.5523 
" clip-path="url(#pae96d11513)" style="fill: none; stroke: #ff0000; stroke-width: 1.5"/>
    <path d="M 149.401847 271.695666 
L 149.401847 271.532411 
" clip-path="url(#pae96d11513)" style="fill: none; stroke: #ff0000; stroke-width: 1.5"/>
    <path d="M 152.952756 271.677134 
L 152.952756 271.511562 
" clip-path="url(#pae96d11513)" style="fill: none; stroke: #ff0000; stroke-width: 1.5"/>
    <path d="M 156.503665 271.658101 
L 156.503665 271.490485 
" clip-path="url(#pae96d11513)" style="fill: none; stroke: #ff0000; stroke-width: 1.5"/>
    <path d="M 160.054574 271.638935 
L 160.054574 271.469384 
" clip-path="url(#pae96d11513)" style="fill: none; stroke: #ff0000; stroke-width: 1.5"/>
    <path d="M 163.605483 271.619965 
L 163.605483 271.447989 
" clip-path="url(#pae96d11513)" style="fill: none; stroke: #ff0000; stroke-width: 1.5"/>
    <path d="M 167.156392 271.601347 
L 167.156392 271.425725 
" clip-path="url(#pae96d11513)" style="fill: none; stroke: #ff0000; stroke-width: 1.5"/>
    <path d="M 170.707301 271.582945 
L 170.707301 271.401879 
" clip-path="url(#pae96d11513)" style="fill: none; stroke: #ff0000; stroke-width: 1.5"/>
    <path d="M 174.25821 271.564225 
L 174.25821 271.375675 
" clip-path="url(#pae96d11513)" style="fill: none; stroke: #ff0000; stroke-width: 1.5"/>
    <path d="M 177.809119 271.544152 
L 177.809119 271.346204 
" clip-path="url(#pae96d11513)" style="fill: none; stroke: #ff0000; stroke-width: 1.5"/>
    <path d="M 181.360028 271.521062 
L 181.360028 271.312205 
" clip-path="url(#pae96d11513)" style="fill: none; stroke: #ff0000; stroke-width: 1.5"/>
    <path d="M 184.910938 271.492479 
L 184.910938 271.271692 
" clip-path="url(#pae96d11513)" style="fill: none; stroke: #ff0000; stroke-width: 1.5"/>
    <path d="M 188.461847 271.45485 
L 188.461847 271.221367 
" clip-path="url(#pae96d11513)" style="fill: none; stroke: #ff0000; stroke-width: 1.5"/>
    <path d="M 192.012756 271.403175 
L 192.012756 271.155637 
" clip-path="url(#pae96d11513)" style="fill: none; stroke: #ff0000; stroke-width: 1.5"/>
    <path d="M 195.563665 271.330521 
L 195.563665 271.064765 
" clip-path="url(#pae96d11513)" style="fill: none; stroke: #ff0000; stroke-width: 1.5"/>
    <path d="M 199.114574 271.227334 
L 199.114574 270.931455 
" clip-path="url(#pae96d11513)" style="fill: none; stroke: #ff0000; stroke-width: 1.5"/>
    <path d="M 202.665483 271.079796 
L 202.665483 270.725447 
" clip-path="url(#pae96d11513)" style="fill: none; stroke: #ff0000; stroke-width: 1.5"/>
    <path d="M 206.216392 270.864774 
L 206.216392 270.397247 
" clip-path="url(#pae96d11513)" style="fill: none; stroke: #ff0000; stroke-width: 1.5"/>
    <path d="M 209.767301 270.539322 
L 209.767301 269.872368 
" clip-path="url(#pae96d11513)" style="fill: none; stroke: #ff0000; stroke-width: 1.5"/>
    <path d="M 213.31821 270.027876 
L 213.31821 269.045274 
" clip-path="url(#pae96d11513)" style="fill: none; stroke: #ff0000; stroke-width: 1.5"/>
    <path d="M 216.869119 269.212135 
L 216.869119 267.777494 
" clip-path="url(#pae96d11513)" style="fill: none; stroke: #ff0000; stroke-width: 1.5"/>
    <path d="M 220.420028 267.93065 
L 220.420028 265.912835 
" clip-path="url(#pae96d11513)" style="fill: none; stroke: #ff0000; stroke-width: 1.5"/>
    <path d="M 223.970937 266.002186 
L 223.970937 263.317675 
" clip-path="url(#pae96d11513)" style="fill: none; stroke: #ff0000; stroke-width: 1.5"/>
    <path d="M 227.521847 263.280724 
L 227.521847 259.932781 
" clip-path="url(#pae96d11513)" style="fill: none; stroke: #ff0000; stroke-width: 1.5"/>
    <path d="M 231.072756 259.718879 
L 231.072756 255.801639 
" clip-path="url(#pae96d11513)" style="fill: none; stroke: #ff0000; stroke-width: 1.5"/>
    <path d="M 234.623665 255.39159 
L 234.623665 251.051387 
" clip-path="url(#pae96d11513)" style="fill: none; stroke: #ff0000; stroke-width: 1.5"/>
    <path d="M 238.174574 250.459226 
L 238.174574 245.842535 
" clip-path="url(#pae96d11513)" style="fill: none; stroke: #ff0000; stroke-width: 1.5"/>
    <path d="M 241.725483 245.103088 
L 241.725483 240.323493 
" clip-path="url(#pae96d11513)" style="fill: none; stroke: #ff0000; stroke-width: 1.5"/>
    <path d="M 245.276392 239.477914 
L 245.276392 234.608923 
" clip-path="url(#pae96d11513)" style="fill: none; stroke: #ff0000; stroke-width: 1.5"/>
    <path d="M 248.827301 233.695557 
L 248.827301 228.778151 
" clip-path="url(#pae96d11513)" style="fill: none; stroke: #ff0000; stroke-width: 1.5"/>
    <path d="M 252.37821 227.829135 
L 252.37821 222.882764 
" clip-path="url(#pae96d11513)" style="fill: none; stroke: #ff0000; stroke-width: 1.5"/>
    <path d="M 255.929119 221.924009 
L 255.929119 216.9557 
" clip-path="url(#pae96d11513)" style="fill: none; stroke: #ff0000; stroke-width: 1.5"/>
    <path d="M 259.480028 216.008188 
L 259.480028 211.018598 
" clip-path="url(#pae96d11513)" style="fill: none; stroke: #ff0000; stroke-width: 1.5"/>
    <path d="M 263.030937 210.099945 
L 263.030937 205.086853 
" clip-path="url(#pae96d11513)" style="fill: none; stroke: #ff0000; stroke-width: 1.5"/>
    <path d="M 266.581847 204.212785 
L 266.581847 199.172802 
" clip-path="url(#pae96d11513)" style="fill: none; stroke: #ff0000; stroke-width: 1.5"/>
    <path d="M 270.132756 198.358532 
L 270.132756 193.287668 
" clip-path="url(#pae96d11513)" style="fill: none; stroke: #ff0000; stroke-width: 1.5"/>
    <path d="M 273.683665 192.549189 
L 273.683665 187.442755 
" clip-path="url(#pae96d11513)" style="fill: none; stroke: #ff0000; stroke-width: 1.5"/>
    <path d="M 277.234574 186.798003 
L 277.234574 181.650157 
" clip-path="url(#pae96d11513)" style="fill: none; stroke: #ff0000; stroke-width: 1.5"/>
    <path d="M 280.785483 181.119901 
L 280.785483 175.923073 
" clip-path="url(#pae96d11513)" style="fill: none; stroke: #ff0000; stroke-width: 1.5"/>
    <path d="M 284.336392 175.531312 
L 284.336392 170.275722 
" clip-path="url(#pae96d11513)" style="fill: none; stroke: #ff0000; stroke-width: 1.5"/>
    <path d="M 287.887301 170.049371 
L 287.887301 164.722892 
" clip-path="url(#pae96d11513)" style="fill: none; stroke: #ff0000; stroke-width: 1.5"/>
    <path d="M 291.43821 164.690574 
L 291.43821 159.279233 
" clip-path="url(#pae96d11513)" style="fill: none; stroke: #ff0000; stroke-width: 1.5"/>
    <path d="M 294.989119 159.469167 
L 294.989119 153.958497 
" clip-path="url(#pae96d11513)" style="fill: none; stroke: #ff0000; stroke-width: 1.5"/>
    <path d="M 298.540028 154.395676 
L 298.540028 148.772936 
" clip-path="url(#pae96d11513)" style="fill: none; stroke: #ff0000; stroke-width: 1.5"/>
    <path d="M 302.090937 149.476034 
L 302.090937 143.732941 
" clip-path="url(#pae96d11513)" style="fill: none; stroke: #ff0000; stroke-width: 1.5"/>
    <path d="M 305.641847 144.711569 
L 305.641847 138.846885 
" clip-path="url(#pae96d11513)" style="fill: none; stroke: #ff0000; stroke-width: 1.5"/>
    <path d="M 309.192756 140.099798 
L 309.192756 134.121006 
" clip-path="url(#pae96d11513)" style="fill: none; stroke: #ff0000; stroke-width: 1.5"/>
    <path d="M 312.743665 135.635704 
L 312.743665 129.559198 
" clip-path="url(#pae96d11513)" style="fill: none; stroke: #ff0000; stroke-width: 1.5"/>
    <path d="M 316.294574 131.313011 
L 316.294574 125.162676 
" clip-path="url(#pae96d11513)" style="fill: none; stroke: #ff0000; stroke-width: 1.5"/>
    <path d="M 319.845483 127.125131 
L 319.845483 120.929632 
" clip-path="url(#pae96d11513)" style="fill: none; stroke: #ff0000; stroke-width: 1.5"/>
    <path d="M 323.396392 123.065594 
L 323.396392 116.855046 
" clip-path="url(#pae96d11513)" style="fill: none; stroke: #ff0000; stroke-width: 1.5"/>
    <path d="M 326.947301 119.128065 
L 326.947301 112.930838 
" clip-path="url(#pae96d11513)" style="fill: none; stroke: #ff0000; stroke-width: 1.5"/>
    <path d="M 330.49821 115.306102 
L 330.49821 109.146404 
" clip-path="url(#pae96d11513)" style="fill: none; stroke: #ff0000; stroke-width: 1.5"/>
    <path d="M 334.049119 111.592899 
L 334.049119 105.489452 
" clip-path="url(#pae96d11513)" style="fill: none; stroke: #ff0000; stroke-width: 1.5"/>
    <path d="M 337.600028 107.981146 
L 337.600028 101.946956 
" clip-path="url(#pae96d11513)" style="fill: none; stroke: #ff0000; stroke-width: 1.5"/>
    <path d="M 341.150937 104.463073 
L 341.150937 98.506061 
" clip-path="url(#pae96d11513)" style="fill: none; stroke: #ff0000; stroke-width: 1.5"/>
    <path d="M 344.701847 101.030672 
L 344.701847 95.154767 
" clip-path="url(#pae96d11513)" style="fill: none; stroke: #ff0000; stroke-width: 1.5"/>
    <path d="M 348.252756 97.676045 
L 348.252756 91.882363 
" clip-path="url(#pae96d11513)" style="fill: none; stroke: #ff0000; stroke-width: 1.5"/>
    <path d="M 351.803665 94.391802 
L 351.803665 88.67959 
" clip-path="url(#pae96d11513)" style="fill: none; stroke: #ff0000; stroke-width: 1.5"/>
    <path d="M 355.354574 91.171411 
L 355.354574 85.538593 
" clip-path="url(#pae96d11513)" style="fill: none; stroke: #ff0000; stroke-width: 1.5"/>
    <path d="M 358.905483 88.009422 
L 358.905483 82.452743 
" clip-path="url(#pae96d11513)" style="fill: none; stroke: #ff0000; stroke-width: 1.5"/>
    <path d="M 362.456392 84.901495 
L 362.456392 79.416398 
" clip-path="url(#pae96d11513)" style="fill: none; stroke: #ff0000; stroke-width: 1.5"/>
    <path d="M 366.007301 81.844218 
L 366.007301 76.424674 
" clip-path="url(#pae96d11513)" style="fill: none; stroke: #ff0000; stroke-width: 1.5"/>
    <path d="M 369.55821 78.834782 
L 369.55821 73.473271 
" clip-path="url(#pae96d11513)" style="fill: none; stroke: #ff0000; stroke-width: 1.5"/>
    <path d="M 373.109119 75.87059 
L 373.109119 70.55836 
" clip-path="url(#pae96d11513)" style="fill: none; stroke: #ff0000; stroke-width: 1.5"/>
    <path d="M 376.660028 72.948938 
L 376.660028 67.676518 
" clip-path="url(#pae96d11513)" style="fill: none; stroke: #ff0000; stroke-width: 1.5"/>
    <path d="M 380.210938 70.066849 
L 380.210938 64.824721 
" clip-path="url(#pae96d11513)" style="fill: none; stroke: #ff0000; stroke-width: 1.5"/>
    <path d="M 383.761847 67.221093 
L 383.761847 62.000362 
" clip-path="url(#pae96d11513)" style="fill: none; stroke: #ff0000; stroke-width: 1.5"/>
    <path d="M 387.312756 64.408361 
L 387.312756 59.201283 
" clip-path="url(#pae96d11513)" style="fill: none; stroke: #ff0000; stroke-width: 1.5"/>
    <path d="M 390.863665 61.625515 
L 390.863665 56.425811 
" clip-path="url(#pae96d11513)" style="fill: none; stroke: #ff0000; stroke-width: 1.5"/>
    <path d="M 394.414574 58.869818 
L 394.414574 53.672765 
" clip-path="url(#pae96d11513)" style="fill: none; stroke: #ff0000; stroke-width: 1.5"/>
    <path d="M 397.965483 56.139066 
L 397.965483 50.941429 
" clip-path="url(#pae96d11513)" style="fill: none; stroke: #ff0000; stroke-width: 1.5"/>
    <path d="M 401.516392 53.43161 
L 401.516392 48.231476 
" clip-path="url(#pae96d11513)" style="fill: none; stroke: #ff0000; stroke-width: 1.5"/>
    <path d="M 405.067301 50.746286 
L 405.067301 45.54285 
" clip-path="url(#pae96d11513)" style="fill: none; stroke: #ff0000; stroke-width: 1.5"/>
    <path d="M 408.61821 48.082288 
L 408.61821 42.875625 
" clip-path="url(#pae96d11513)" style="fill: none; stroke: #ff0000; stroke-width: 1.5"/>
    <path d="M 412.169119 45.439056 
L 412.169119 40.229862 
" clip-path="url(#pae96d11513)" style="fill: none; stroke: #ff0000; stroke-width: 1.5"/>
    <path d="M 415.720028 42.816168 
L 415.720028 37.605495 
" clip-path="url(#pae96d11513)" style="fill: none; stroke: #ff0000; stroke-width: 1.5"/>
    <path d="M 419.270937 40.213289 
L 419.270937 35.002265 
" clip-path="url(#pae96d11513)" style="fill: none; stroke: #ff0000; stroke-width: 1.5"/>
    <path d="M 422.821847 37.630124 
L 422.821847 32.419715 
" clip-path="url(#pae96d11513)" style="fill: none; stroke: #ff0000; stroke-width: 1.5"/>
    <path d="M 426.372756 35.066419 
L 426.372756 29.857255 
" clip-path="url(#pae96d11513)" style="fill: none; stroke: #ff0000; stroke-width: 1.5"/>
    <path d="M 429.923665 32.521969 
L 429.923665 27.314284 
" clip-path="url(#pae96d11513)" style="fill: none; stroke: #ff0000; stroke-width: 1.5"/>
    <path d="M 433.474574 29.996677 
L 433.474574 24.790367 
" clip-path="url(#pae96d11513)" style="fill: none; stroke: #ff0000; stroke-width: 1.5"/>
    <path d="M 437.025483 27.490638 
L 437.025483 22.285436 
" clip-path="url(#pae96d11513)" style="fill: none; stroke: #ff0000; stroke-width: 1.5"/>
    <path d="M 440.576392 25.00423 
L 440.576392 19.8 
" clip-path="url(#pae96d11513)" style="fill: none; stroke: #ff0000; stroke-width: 1.5"/>
   </g>
   <g id="line2d_14">
    <defs>
     <path id="medec19b427" d="M 1 0 
L -1 -0 
" style="stroke: #ff0000"/>
    </defs>
    <g clip-path="url(#pae96d11513)">
     <use xlink:href="#medec19b427" x="85.485483" y="271.650719" style="fill: #ff0000; stroke: #ff0000"/>
     <use xlink:href="#medec19b427" x="89.036392" y="271.679622" style="fill: #ff0000; stroke: #ff0000"/>
     <use xlink:href="#medec19b427" x="92.587301" y="271.705757" style="fill: #ff0000; stroke: #ff0000"/>
     <use xlink:href="#medec19b427" x="96.13821" y="271.729892" style="fill: #ff0000; stroke: #ff0000"/>
     <use xlink:href="#medec19b427" x="99.689119" y="271.751347" style="fill: #ff0000; stroke: #ff0000"/>
     <use xlink:href="#medec19b427" x="103.240028" y="271.769249" style="fill: #ff0000; stroke: #ff0000"/>
     <use xlink:href="#medec19b427" x="106.790938" y="271.783067" style="fill: #ff0000; stroke: #ff0000"/>
     <use xlink:href="#medec19b427" x="110.341847" y="271.792684" style="fill: #ff0000; stroke: #ff0000"/>
     <use xlink:href="#medec19b427" x="113.892756" y="271.798248" style="fill: #ff0000; stroke: #ff0000"/>
     <use xlink:href="#medec19b427" x="117.443665" y="271.8" style="fill: #ff0000; stroke: #ff0000"/>
     <use xlink:href="#medec19b427" x="120.994574" y="271.798175" style="fill: #ff0000; stroke: #ff0000"/>
     <use xlink:href="#medec19b427" x="124.545483" y="271.792992" style="fill: #ff0000; stroke: #ff0000"/>
     <use xlink:href="#medec19b427" x="128.096392" y="271.784725" style="fill: #ff0000; stroke: #ff0000"/>
     <use xlink:href="#medec19b427" x="131.647301" y="271.77378" style="fill: #ff0000; stroke: #ff0000"/>
     <use xlink:href="#medec19b427" x="135.19821" y="271.760701" style="fill: #ff0000; stroke: #ff0000"/>
     <use xlink:href="#medec19b427" x="138.749119" y="271.746052" style="fill: #ff0000; stroke: #ff0000"/>
     <use xlink:href="#medec19b427" x="142.300028" y="271.730231" style="fill: #ff0000; stroke: #ff0000"/>
     <use xlink:href="#medec19b427" x="145.850937" y="271.713413" style="fill: #ff0000; stroke: #ff0000"/>
     <use xlink:href="#medec19b427" x="149.401847" y="271.695666" style="fill: #ff0000; stroke: #ff0000"/>
     <use xlink:href="#medec19b427" x="152.952756" y="271.677134" style="fill: #ff0000; stroke: #ff0000"/>
     <use xlink:href="#medec19b427" x="156.503665" y="271.658101" style="fill: #ff0000; stroke: #ff0000"/>
     <use xlink:href="#medec19b427" x="160.054574" y="271.638935" style="fill: #ff0000; stroke: #ff0000"/>
     <use xlink:href="#medec19b427" x="163.605483" y="271.619965" style="fill: #ff0000; stroke: #ff0000"/>
     <use xlink:href="#medec19b427" x="167.156392" y="271.601347" style="fill: #ff0000; stroke: #ff0000"/>
     <use xlink:href="#medec19b427" x="170.707301" y="271.582945" style="fill: #ff0000; stroke: #ff0000"/>
     <use xlink:href="#medec19b427" x="174.25821" y="271.564225" style="fill: #ff0000; stroke: #ff0000"/>
     <use xlink:href="#medec19b427" x="177.809119" y="271.544152" style="fill: #ff0000; stroke: #ff0000"/>
     <use xlink:href="#medec19b427" x="181.360028" y="271.521062" style="fill: #ff0000; stroke: #ff0000"/>
     <use xlink:href="#medec19b427" x="184.910938" y="271.492479" style="fill: #ff0000; stroke: #ff0000"/>
     <use xlink:href="#medec19b427" x="188.461847" y="271.45485" style="fill: #ff0000; stroke: #ff0000"/>
     <use xlink:href="#medec19b427" x="192.012756" y="271.403175" style="fill: #ff0000; stroke: #ff0000"/>
     <use xlink:href="#medec19b427" x="195.563665" y="271.330521" style="fill: #ff0000; stroke: #ff0000"/>
     <use xlink:href="#medec19b427" x="199.114574" y="271.227334" style="fill: #ff0000; stroke: #ff0000"/>
     <use xlink:href="#medec19b427" x="202.665483" y="271.079796" style="fill: #ff0000; stroke: #ff0000"/>
     <use xlink:href="#medec19b427" x="206.216392" y="270.864774" style="fill: #ff0000; stroke: #ff0000"/>
     <use xlink:href="#medec19b427" x="209.767301" y="270.539322" style="fill: #ff0000; stroke: #ff0000"/>
     <use xlink:href="#medec19b427" x="213.31821" y="270.027876" style="fill: #ff0000; stroke: #ff0000"/>
     <use xlink:href="#medec19b427" x="216.869119" y="269.212135" style="fill: #ff0000; stroke: #ff0000"/>
     <use xlink:href="#medec19b427" x="220.420028" y="267.93065" style="fill: #ff0000; stroke: #ff0000"/>
     <use xlink:href="#medec19b427" x="223.970937" y="266.002186" style="fill: #ff0000; stroke: #ff0000"/>
     <use xlink:href="#medec19b427" x="227.521847" y="263.280724" style="fill: #ff0000; stroke: #ff0000"/>
     <use xlink:href="#medec19b427" x="231.072756" y="259.718879" style="fill: #ff0000; stroke: #ff0000"/>
     <use xlink:href="#medec19b427" x="234.623665" y="255.39159" style="fill: #ff0000; stroke: #ff0000"/>
     <use xlink:href="#medec19b427" x="238.174574" y="250.459226" style="fill: #ff0000; stroke: #ff0000"/>
     <use xlink:href="#medec19b427" x="241.725483" y="245.103088" style="fill: #ff0000; stroke: #ff0000"/>
     <use xlink:href="#medec19b427" x="245.276392" y="239.477914" style="fill: #ff0000; stroke: #ff0000"/>
     <use xlink:href="#medec19b427" x="248.827301" y="233.695557" style="fill: #ff0000; stroke: #ff0000"/>
     <use xlink:href="#medec19b427" x="252.37821" y="227.829135" style="fill: #ff0000; stroke: #ff0000"/>
     <use xlink:href="#medec19b427" x="255.929119" y="221.924009" style="fill: #ff0000; stroke: #ff0000"/>
     <use xlink:href="#medec19b427" x="259.480028" y="216.008188" style="fill: #ff0000; stroke: #ff0000"/>
     <use xlink:href="#medec19b427" x="263.030937" y="210.099945" style="fill: #ff0000; stroke: #ff0000"/>
     <use xlink:href="#medec19b427" x="266.581847" y="204.212785" style="fill: #ff0000; stroke: #ff0000"/>
     <use xlink:href="#medec19b427" x="270.132756" y="198.358532" style="fill: #ff0000; stroke: #ff0000"/>
     <use xlink:href="#medec19b427" x="273.683665" y="192.549189" style="fill: #ff0000; stroke: #ff0000"/>
     <use xlink:href="#medec19b427" x="277.234574" y="186.798003" style="fill: #ff0000; stroke: #ff0000"/>
     <use xlink:href="#medec19b427" x="280.785483" y="181.119901" style="fill: #ff0000; stroke: #ff0000"/>
     <use xlink:href="#medec19b427" x="284.336392" y="175.531312" style="fill: #ff0000; stroke: #ff0000"/>
     <use xlink:href="#medec19b427" x="287.887301" y="170.049371" style="fill: #ff0000; stroke: #ff0000"/>
     <use xlink:href="#medec19b427" x="291.43821" y="164.690574" style="fill: #ff0000; stroke: #ff0000"/>
     <use xlink:href="#medec19b427" x="294.989119" y="159.469167" style="fill: #ff0000; stroke: #ff0000"/>
     <use xlink:href="#medec19b427" x="298.540028" y="154.395676" style="fill: #ff0000; stroke: #ff0000"/>
     <use xlink:href="#medec19b427" x="302.090937" y="149.476034" style="fill: #ff0000; stroke: #ff0000"/>
     <use xlink:href="#medec19b427" x="305.641847" y="144.711569" style="fill: #ff0000; stroke: #ff0000"/>
     <use xlink:href="#medec19b427" x="309.192756" y="140.099798" style="fill: #ff0000; stroke: #ff0000"/>
     <use xlink:href="#medec19b427" x="312.743665" y="135.635704" style="fill: #ff0000; stroke: #ff0000"/>
     <use xlink:href="#medec19b427" x="316.294574" y="131.313011" style="fill: #ff0000; stroke: #ff0000"/>
     <use xlink:href="#medec19b427" x="319.845483" y="127.125131" style="fill: #ff0000; stroke: #ff0000"/>
     <use xlink:href="#medec19b427" x="323.396392" y="123.065594" style="fill: #ff0000; stroke: #ff0000"/>
     <use xlink:href="#medec19b427" x="326.947301" y="119.128065" style="fill: #ff0000; stroke: #ff0000"/>
     <use xlink:href="#medec19b427" x="330.49821" y="115.306102" style="fill: #ff0000; stroke: #ff0000"/>
     <use xlink:href="#medec19b427" x="334.049119" y="111.592899" style="fill: #ff0000; stroke: #ff0000"/>
     <use xlink:href="#medec19b427" x="337.600028" y="107.981146" style="fill: #ff0000; stroke: #ff0000"/>
     <use xlink:href="#medec19b427" x="341.150937" y="104.463073" style="fill: #ff0000; stroke: #ff0000"/>
     <use xlink:href="#medec19b427" x="344.701847" y="101.030672" style="fill: #ff0000; stroke: #ff0000"/>
     <use xlink:href="#medec19b427" x="348.252756" y="97.676045" style="fill: #ff0000; stroke: #ff0000"/>
     <use xlink:href="#medec19b427" x="351.803665" y="94.391802" style="fill: #ff0000; stroke: #ff0000"/>
     <use xlink:href="#medec19b427" x="355.354574" y="91.171411" style="fill: #ff0000; stroke: #ff0000"/>
     <use xlink:href="#medec19b427" x="358.905483" y="88.009422" style="fill: #ff0000; stroke: #ff0000"/>
     <use xlink:href="#medec19b427" x="362.456392" y="84.901495" style="fill: #ff0000; stroke: #ff0000"/>
     <use xlink:href="#medec19b427" x="366.007301" y="81.844218" style="fill: #ff0000; stroke: #ff0000"/>
     <use xlink:href="#medec19b427" x="369.55821" y="78.834782" style="fill: #ff0000; stroke: #ff0000"/>
     <use xlink:href="#medec19b427" x="373.109119" y="75.87059" style="fill: #ff0000; stroke: #ff0000"/>
     <use xlink:href="#medec19b427" x="376.660028" y="72.948938" style="fill: #ff0000; stroke: #ff0000"/>
     <use xlink:href="#medec19b427" x="380.210938" y="70.066849" style="fill: #ff0000; stroke: #ff0000"/>
     <use xlink:href="#medec19b427" x="383.761847" y="67.221093" style="fill: #ff0000; stroke: #ff0000"/>
     <use xlink:href="#medec19b427" x="387.312756" y="64.408361" style="fill: #ff0000; stroke: #ff0000"/>
     <use xlink:href="#medec19b427" x="390.863665" y="61.625515" style="fill: #ff0000; stroke: #ff0000"/>
     <use xlink:href="#medec19b427" x="394.414574" y="58.869818" style="fill: #ff0000; stroke: #ff0000"/>
     <use xlink:href="#medec19b427" x="397.965483" y="56.139066" style="fill: #ff0000; stroke: #ff0000"/>
     <use xlink:href="#medec19b427" x="401.516392" y="53.43161" style="fill: #ff0000; stroke: #ff0000"/>
     <use xlink:href="#medec19b427" x="405.067301" y="50.746286" style="fill: #ff0000; stroke: #ff0000"/>
     <use xlink:href="#medec19b427" x="408.61821" y="48.082288" style="fill: #ff0000; stroke: #ff0000"/>
     <use xlink:href="#medec19b427" x="412.169119" y="45.439056" style="fill: #ff0000; stroke: #ff0000"/>
     <use xlink:href="#medec19b427" x="415.720028" y="42.816168" style="fill: #ff0000; stroke: #ff0000"/>
     <use xlink:href="#medec19b427" x="419.270937" y="40.213289" style="fill: #ff0000; stroke: #ff0000"/>
     <use xlink:href="#medec19b427" x="422.821847" y="37.630124" style="fill: #ff0000; stroke: #ff0000"/>
     <use xlink:href="#medec19b427" x="426.372756" y="35.066419" style="fill: #ff0000; stroke: #ff0000"/>
     <use xlink:href="#medec19b427" x="429.923665" y="32.521969" style="fill: #ff0000; stroke: #ff0000"/>
     <use xlink:href="#medec19b427" x="433.474574" y="29.996677" style="fill: #ff0000; stroke: #ff0000"/>
     <use xlink:href="#medec19b427" x="437.025483" y="27.490638" style="fill: #ff0000; stroke: #ff0000"/>
     <use xlink:href="#medec19b427" x="440.576392" y="25.00423" style="fill: #ff0000; stroke: #ff0000"/>
    </g>
   </g>
   <g id="line2d_15">
    <g clip-path="url(#pae96d11513)">
     <use xlink:href="#medec19b427" x="85.485483" y="271.650719" style="fill: #ff0000; stroke: #ff0000"/>
     <use xlink:href="#medec19b427" x="89.036392" y="271.657274" style="fill: #ff0000; stroke: #ff0000"/>
     <use xlink:href="#medec19b427" x="92.587301" y="271.660781" style="fill: #ff0000; stroke: #ff0000"/>
     <use xlink:href="#medec19b427" x="96.13821" y="271.661156" style="fill: #ff0000; stroke: #ff0000"/>
     <use xlink:href="#medec19b427" x="99.689119" y="271.658734" style="fill: #ff0000; stroke: #ff0000"/>
     <use xlink:href="#medec19b427" x="103.240028" y="271.653866" style="fill: #ff0000; stroke: #ff0000"/>
     <use xlink:href="#medec19b427" x="106.790938" y="271.647009" style="fill: #ff0000; stroke: #ff0000"/>
     <use xlink:href="#medec19b427" x="110.341847" y="271.638905" style="fill: #ff0000; stroke: #ff0000"/>
     <use xlink:href="#medec19b427" x="113.892756" y="271.630567" style="fill: #ff0000; stroke: #ff0000"/>
     <use xlink:href="#medec19b427" x="117.443665" y="271.623018" style="fill: #ff0000; stroke: #ff0000"/>
     <use xlink:href="#medec19b427" x="120.994574" y="271.616901" style="fill: #ff0000; stroke: #ff0000"/>
     <use xlink:href="#medec19b427" x="124.545483" y="271.612166" style="fill: #ff0000; stroke: #ff0000"/>
     <use xlink:href="#medec19b427" x="128.096392" y="271.607992" style="fill: #ff0000; stroke: #ff0000"/>
     <use xlink:href="#medec19b427" x="131.647301" y="271.602982" style="fill: #ff0000; stroke: #ff0000"/>
     <use xlink:href="#medec19b427" x="135.19821" y="271.595606" style="fill: #ff0000; stroke: #ff0000"/>
     <use xlink:href="#medec19b427" x="138.749119" y="271.584747" style="fill: #ff0000; stroke: #ff0000"/>
     <use xlink:href="#medec19b427" x="142.300028" y="271.570116" style="fill: #ff0000; stroke: #ff0000"/>
     <use xlink:href="#medec19b427" x="145.850937" y="271.5523" style="fill: #ff0000; stroke: #ff0000"/>
     <use xlink:href="#medec19b427" x="149.401847" y="271.532411" style="fill: #ff0000; stroke: #ff0000"/>
     <use xlink:href="#medec19b427" x="152.952756" y="271.511562" style="fill: #ff0000; stroke: #ff0000"/>
     <use xlink:href="#medec19b427" x="156.503665" y="271.490485" style="fill: #ff0000; stroke: #ff0000"/>
     <use xlink:href="#medec19b427" x="160.054574" y="271.469384" style="fill: #ff0000; stroke: #ff0000"/>
     <use xlink:href="#medec19b427" x="163.605483" y="271.447989" style="fill: #ff0000; stroke: #ff0000"/>
     <use xlink:href="#medec19b427" x="167.156392" y="271.425725" style="fill: #ff0000; stroke: #ff0000"/>
     <use xlink:href="#medec19b427" x="170.707301" y="271.401879" style="fill: #ff0000; stroke: #ff0000"/>
     <use xlink:href="#medec19b427" x="174.25821" y="271.375675" style="fill: #ff0000; stroke: #ff0000"/>
     <use xlink:href="#medec19b427" x="177.809119" y="271.346204" style="fill: #ff0000; stroke: #ff0000"/>
     <use xlink:href="#medec19b427" x="181.360028" y="271.312205" style="fill: #ff0000; stroke: #ff0000"/>
     <use xlink:href="#medec19b427" x="184.910938" y="271.271692" style="fill: #ff0000; stroke: #ff0000"/>
     <use xlink:href="#medec19b427" x="188.461847" y="271.221367" style="fill: #ff0000; stroke: #ff0000"/>
     <use xlink:href="#medec19b427" x="192.012756" y="271.155637" style="fill: #ff0000; stroke: #ff0000"/>
     <use xlink:href="#medec19b427" x="195.563665" y="271.064765" style="fill: #ff0000; stroke: #ff0000"/>
     <use xlink:href="#medec19b427" x="199.114574" y="270.931455" style="fill: #ff0000; stroke: #ff0000"/>
     <use xlink:href="#medec19b427" x="202.665483" y="270.725447" style="fill: #ff0000; stroke: #ff0000"/>
     <use xlink:href="#medec19b427" x="206.216392" y="270.397247" style="fill: #ff0000; stroke: #ff0000"/>
     <use xlink:href="#medec19b427" x="209.767301" y="269.872368" style="fill: #ff0000; stroke: #ff0000"/>
     <use xlink:href="#medec19b427" x="213.31821" y="269.045274" style="fill: #ff0000; stroke: #ff0000"/>
     <use xlink:href="#medec19b427" x="216.869119" y="267.777494" style="fill: #ff0000; stroke: #ff0000"/>
     <use xlink:href="#medec19b427" x="220.420028" y="265.912835" style="fill: #ff0000; stroke: #ff0000"/>
     <use xlink:href="#medec19b427" x="223.970937" y="263.317675" style="fill: #ff0000; stroke: #ff0000"/>
     <use xlink:href="#medec19b427" x="227.521847" y="259.932781" style="fill: #ff0000; stroke: #ff0000"/>
     <use xlink:href="#medec19b427" x="231.072756" y="255.801639" style="fill: #ff0000; stroke: #ff0000"/>
     <use xlink:href="#medec19b427" x="234.623665" y="251.051387" style="fill: #ff0000; stroke: #ff0000"/>
     <use xlink:href="#medec19b427" x="238.174574" y="245.842535" style="fill: #ff0000; stroke: #ff0000"/>
     <use xlink:href="#medec19b427" x="241.725483" y="240.323493" style="fill: #ff0000; stroke: #ff0000"/>
     <use xlink:href="#medec19b427" x="245.276392" y="234.608923" style="fill: #ff0000; stroke: #ff0000"/>
     <use xlink:href="#medec19b427" x="248.827301" y="228.778151" style="fill: #ff0000; stroke: #ff0000"/>
     <use xlink:href="#medec19b427" x="252.37821" y="222.882764" style="fill: #ff0000; stroke: #ff0000"/>
     <use xlink:href="#medec19b427" x="255.929119" y="216.9557" style="fill: #ff0000; stroke: #ff0000"/>
     <use xlink:href="#medec19b427" x="259.480028" y="211.018598" style="fill: #ff0000; stroke: #ff0000"/>
     <use xlink:href="#medec19b427" x="263.030937" y="205.086853" style="fill: #ff0000; stroke: #ff0000"/>
     <use xlink:href="#medec19b427" x="266.581847" y="199.172802" style="fill: #ff0000; stroke: #ff0000"/>
     <use xlink:href="#medec19b427" x="270.132756" y="193.287668" style="fill: #ff0000; stroke: #ff0000"/>
     <use xlink:href="#medec19b427" x="273.683665" y="187.442755" style="fill: #ff0000; stroke: #ff0000"/>
     <use xlink:href="#medec19b427" x="277.234574" y="181.650157" style="fill: #ff0000; stroke: #ff0000"/>
     <use xlink:href="#medec19b427" x="280.785483" y="175.923073" style="fill: #ff0000; stroke: #ff0000"/>
     <use xlink:href="#medec19b427" x="284.336392" y="170.275722" style="fill: #ff0000; stroke: #ff0000"/>
     <use xlink:href="#medec19b427" x="287.887301" y="164.722892" style="fill: #ff0000; stroke: #ff0000"/>
     <use xlink:href="#medec19b427" x="291.43821" y="159.279233" style="fill: #ff0000; stroke: #ff0000"/>
     <use xlink:href="#medec19b427" x="294.989119" y="153.958497" style="fill: #ff0000; stroke: #ff0000"/>
     <use xlink:href="#medec19b427" x="298.540028" y="148.772936" style="fill: #ff0000; stroke: #ff0000"/>
     <use xlink:href="#medec19b427" x="302.090937" y="143.732941" style="fill: #ff0000; stroke: #ff0000"/>
     <use xlink:href="#medec19b427" x="305.641847" y="138.846885" style="fill: #ff0000; stroke: #ff0000"/>
     <use xlink:href="#medec19b427" x="309.192756" y="134.121006" style="fill: #ff0000; stroke: #ff0000"/>
     <use xlink:href="#medec19b427" x="312.743665" y="129.559198" style="fill: #ff0000; stroke: #ff0000"/>
     <use xlink:href="#medec19b427" x="316.294574" y="125.162676" style="fill: #ff0000; stroke: #ff0000"/>
     <use xlink:href="#medec19b427" x="319.845483" y="120.929632" style="fill: #ff0000; stroke: #ff0000"/>
     <use xlink:href="#medec19b427" x="323.396392" y="116.855046" style="fill: #ff0000; stroke: #ff0000"/>
     <use xlink:href="#medec19b427" x="326.947301" y="112.930838" style="fill: #ff0000; stroke: #ff0000"/>
     <use xlink:href="#medec19b427" x="330.49821" y="109.146404" style="fill: #ff0000; stroke: #ff0000"/>
     <use xlink:href="#medec19b427" x="334.049119" y="105.489452" style="fill: #ff0000; stroke: #ff0000"/>
     <use xlink:href="#medec19b427" x="337.600028" y="101.946956" style="fill: #ff0000; stroke: #ff0000"/>
     <use xlink:href="#medec19b427" x="341.150937" y="98.506061" style="fill: #ff0000; stroke: #ff0000"/>
     <use xlink:href="#medec19b427" x="344.701847" y="95.154767" style="fill: #ff0000; stroke: #ff0000"/>
     <use xlink:href="#medec19b427" x="348.252756" y="91.882363" style="fill: #ff0000; stroke: #ff0000"/>
     <use xlink:href="#medec19b427" x="351.803665" y="88.67959" style="fill: #ff0000; stroke: #ff0000"/>
     <use xlink:href="#medec19b427" x="355.354574" y="85.538593" style="fill: #ff0000; stroke: #ff0000"/>
     <use xlink:href="#medec19b427" x="358.905483" y="82.452743" style="fill: #ff0000; stroke: #ff0000"/>
     <use xlink:href="#medec19b427" x="362.456392" y="79.416398" style="fill: #ff0000; stroke: #ff0000"/>
     <use xlink:href="#medec19b427" x="366.007301" y="76.424674" style="fill: #ff0000; stroke: #ff0000"/>
     <use xlink:href="#medec19b427" x="369.55821" y="73.473271" style="fill: #ff0000; stroke: #ff0000"/>
     <use xlink:href="#medec19b427" x="373.109119" y="70.55836" style="fill: #ff0000; stroke: #ff0000"/>
     <use xlink:href="#medec19b427" x="376.660028" y="67.676518" style="fill: #ff0000; stroke: #ff0000"/>
     <use xlink:href="#medec19b427" x="380.210938" y="64.824721" style="fill: #ff0000; stroke: #ff0000"/>
     <use xlink:href="#medec19b427" x="383.761847" y="62.000362" style="fill: #ff0000; stroke: #ff0000"/>
     <use xlink:href="#medec19b427" x="387.312756" y="59.201283" style="fill: #ff0000; stroke: #ff0000"/>
     <use xlink:href="#medec19b427" x="390.863665" y="56.425811" style="fill: #ff0000; stroke: #ff0000"/>
     <use xlink:href="#medec19b427" x="394.414574" y="53.672765" style="fill: #ff0000; stroke: #ff0000"/>
     <use xlink:href="#medec19b427" x="397.965483" y="50.941429" style="fill: #ff0000; stroke: #ff0000"/>
     <use xlink:href="#medec19b427" x="401.516392" y="48.231476" style="fill: #ff0000; stroke: #ff0000"/>
     <use xlink:href="#medec19b427" x="405.067301" y="45.54285" style="fill: #ff0000; stroke: #ff0000"/>
     <use xlink:href="#medec19b427" x="408.61821" y="42.875625" style="fill: #ff0000; stroke: #ff0000"/>
     <use xlink:href="#medec19b427" x="412.169119" y="40.229862" style="fill: #ff0000; stroke: #ff0000"/>
     <use xlink:href="#medec19b427" x="415.720028" y="37.605495" style="fill: #ff0000; stroke: #ff0000"/>
     <use xlink:href="#medec19b427" x="419.270937" y="35.002265" style="fill: #ff0000; stroke: #ff0000"/>
     <use xlink:href="#medec19b427" x="422.821847" y="32.419715" style="fill: #ff0000; stroke: #ff0000"/>
     <use xlink:href="#medec19b427" x="426.372756" y="29.857255" style="fill: #ff0000; stroke: #ff0000"/>
     <use xlink:href="#medec19b427" x="429.923665" y="27.314284" style="fill: #ff0000; stroke: #ff0000"/>
     <use xlink:href="#medec19b427" x="433.474574" y="24.790367" style="fill: #ff0000; stroke: #ff0000"/>
     <use xlink:href="#medec19b427" x="437.025483" y="22.285436" style="fill: #ff0000; stroke: #ff0000"/>
     <use xlink:href="#medec19b427" x="440.576392" y="19.8" style="fill: #ff0000; stroke: #ff0000"/>
    </g>
   </g>
   <g id="line2d_16">
    <path d="M 85.485483 271.650719 
L 89.036392 271.668448 
L 92.587301 271.683269 
L 96.13821 271.695524 
L 99.689119 271.705041 
L 103.240028 271.711558 
L 106.790938 271.715038 
L 110.341847 271.715795 
L 113.892756 271.714408 
L 117.443665 271.711509 
L 120.994574 271.707538 
L 124.545483 271.702579 
L 128.096392 271.696359 
L 131.647301 271.688381 
L 135.19821 271.678154 
L 138.749119 271.6654 
L 142.300028 271.650173 
L 145.850937 271.632856 
L 149.401847 271.614038 
L 152.952756 271.594348 
L 156.503665 271.574293 
L 160.054574 271.554159 
L 163.605483 271.533977 
L 167.156392 271.513536 
L 170.707301 271.492412 
L 174.25821 271.46995 
L 177.809119 271.445178 
L 181.360028 271.416634 
L 184.910938 271.382086 
L 188.461847 271.338109 
L 192.012756 271.279406 
L 195.563665 271.197643 
L 199.114574 271.079395 
L 202.665483 270.902622 
L 206.216392 270.63101 
L 209.767301 270.205845 
L 213.31821 269.536575 
L 216.869119 268.494814 
L 220.420028 266.921743 
L 223.970937 264.659931 
L 227.521847 261.606753 
L 231.072756 257.760259 
L 234.623665 253.221488 
L 238.174574 248.15088 
L 241.725483 242.713291 
L 245.276392 237.043419 
L 248.827301 231.236854 
L 252.37821 225.35595 
L 255.929119 219.439855 
L 259.480028 213.513393 
L 263.030937 207.593399 
L 266.581847 201.692793 
L 270.132756 195.8231 
L 273.683665 189.995972 
L 277.234574 184.22408 
L 280.785483 178.521487 
L 284.336392 172.903517 
L 287.887301 167.386132 
L 291.43821 161.984904 
L 294.989119 156.713832 
L 298.540028 151.584306 
L 302.090937 146.604487 
L 305.641847 141.779227 
L 309.192756 137.110402 
L 312.743665 132.597451 
L 316.294574 128.237844 
L 319.845483 124.027381 
L 323.396392 119.96032 
L 326.947301 116.029451 
L 330.49821 112.226253 
L 334.049119 108.541175 
L 337.600028 104.964051 
L 341.150937 101.484567 
L 344.701847 98.09272 
L 348.252756 94.779204 
L 351.803665 91.535696 
L 355.354574 88.355002 
L 358.905483 85.231083 
L 362.456392 82.158946 
L 366.007301 79.134446 
L 369.55821 76.154027 
L 373.109119 73.214475 
L 376.660028 70.312728 
L 380.210938 67.445785 
L 383.761847 64.610727 
L 387.312756 61.804822 
L 390.863665 59.025663 
L 394.414574 56.271292 
L 397.965483 53.540248 
L 401.516392 50.831543 
L 405.067301 48.144568 
L 408.61821 45.478957 
L 412.169119 42.834459 
L 415.720028 40.210832 
L 419.270937 37.607777 
L 422.821847 35.02492 
L 426.372756 32.461837 
L 429.923665 29.918126 
L 433.474574 27.393522 
L 437.025483 24.888037 
L 440.576392 22.402115 
" clip-path="url(#pae96d11513)" style="fill: none; stroke: #1f77b4; stroke-width: 1.5; stroke-linecap: square"/>
   </g>
   <g id="patch_3">
    <path d="M 67.730938 284.4 
L 67.730938 7.2 
" style="fill: none; stroke: #000000; stroke-width: 0.8; stroke-linejoin: miter; stroke-linecap: square"/>
   </g>
   <g id="patch_4">
    <path d="M 458.330938 284.4 
L 458.330938 7.2 
" style="fill: none; stroke: #000000; stroke-width: 0.8; stroke-linejoin: miter; stroke-linecap: square"/>
   </g>
   <g id="patch_5">
    <path d="M 67.730937 284.4 
L 458.330937 284.4 
" style="fill: none; stroke: #000000; stroke-width: 0.8; stroke-linejoin: miter; stroke-linecap: square"/>
   </g>
   <g id="patch_6">
    <path d="M 67.730937 7.2 
L 458.330937 7.2 
" style="fill: none; stroke: #000000; stroke-width: 0.8; stroke-linejoin: miter; stroke-linecap: square"/>
   </g>
  </g>
  <g id="text_16">
   <!-- Twist coefficients 0 and 2. M=5 Jackknife bins -->
   <g transform="translate(55.130938 327.6) scale(0.11 -0.11)">
    <defs>
     <path id="DejaVuSans-Oblique-54" d="M 378 4666 
L 4325 4666 
L 4225 4134 
L 2559 4134 
L 1759 0 
L 1125 0 
L 1925 4134 
L 275 4134 
L 378 4666 
z
" transform="scale(0.015625)"/>
     <path id="DejaVuSans-Oblique-77" d="M 544 3500 
L 1113 3500 
L 1259 684 
L 2566 3500 
L 3231 3500 
L 3425 684 
L 4666 3500 
L 5241 3500 
L 3641 0 
L 2969 0 
L 2797 2900 
L 1459 0 
L 781 0 
L 544 3500 
z
" transform="scale(0.015625)"/>
     <path id="DejaVuSans-Oblique-69" d="M 1172 4863 
L 1747 4863 
L 1606 4134 
L 1031 4134 
L 1172 4863 
z
M 909 3500 
L 1484 3500 
L 800 0 
L 225 0 
L 909 3500 
z
" transform="scale(0.015625)"/>
     <path id="DejaVuSans-Oblique-73" d="M 3200 3397 
L 3091 2853 
Q 2863 2978 2609 3040 
Q 2356 3103 2088 3103 
Q 1634 3103 1373 2948 
Q 1113 2794 1113 2528 
Q 1113 2219 1719 2053 
Q 1766 2041 1788 2034 
L 1972 1978 
Q 2547 1819 2739 1644 
Q 2931 1469 2931 1166 
Q 2931 609 2489 259 
Q 2047 -91 1331 -91 
Q 1053 -91 747 -37 
Q 441 16 72 128 
L 184 722 
Q 500 559 806 475 
Q 1113 391 1394 391 
Q 1816 391 2080 572 
Q 2344 753 2344 1031 
Q 2344 1331 1650 1516 
L 1591 1531 
L 1394 1581 
Q 956 1697 753 1886 
Q 550 2075 550 2369 
Q 550 2928 970 3256 
Q 1391 3584 2113 3584 
Q 2397 3584 2667 3537 
Q 2938 3491 3200 3397 
z
" transform="scale(0.015625)"/>
     <path id="DejaVuSans-Oblique-20" transform="scale(0.015625)"/>
     <path id="DejaVuSans-Oblique-63" d="M 3431 3366 
L 3316 2797 
Q 3109 2947 2876 3022 
Q 2644 3097 2394 3097 
Q 2119 3097 1870 3000 
Q 1622 2903 1453 2725 
Q 1184 2453 1037 2087 
Q 891 1722 891 1331 
Q 891 859 1127 628 
Q 1363 397 1844 397 
Q 2081 397 2348 469 
Q 2616 541 2906 684 
L 2797 116 
Q 2547 13 2283 -39 
Q 2019 -91 1741 -91 
Q 1044 -91 669 257 
Q 294 606 294 1253 
Q 294 1797 489 2255 
Q 684 2713 1069 3078 
Q 1331 3328 1684 3456 
Q 2038 3584 2456 3584 
Q 2700 3584 2940 3529 
Q 3181 3475 3431 3366 
z
" transform="scale(0.015625)"/>
     <path id="DejaVuSans-Oblique-6f" d="M 1625 -91 
Q 1009 -91 651 289 
Q 294 669 294 1325 
Q 294 1706 417 2101 
Q 541 2497 738 2766 
Q 1047 3184 1428 3384 
Q 1809 3584 2291 3584 
Q 2888 3584 3255 3212 
Q 3622 2841 3622 2241 
Q 3622 1825 3500 1412 
Q 3378 1000 3181 728 
Q 2875 309 2494 109 
Q 2113 -91 1625 -91 
z
M 891 1344 
Q 891 869 1089 633 
Q 1288 397 1691 397 
Q 2269 397 2648 901 
Q 3028 1406 3028 2181 
Q 3028 2634 2825 2865 
Q 2622 3097 2228 3097 
Q 1903 3097 1650 2945 
Q 1397 2794 1197 2484 
Q 1050 2253 970 1956 
Q 891 1659 891 1344 
z
" transform="scale(0.015625)"/>
     <path id="DejaVuSans-Oblique-65" d="M 3078 2063 
Q 3088 2113 3092 2166 
Q 3097 2219 3097 2272 
Q 3097 2653 2873 2875 
Q 2650 3097 2266 3097 
Q 1838 3097 1509 2826 
Q 1181 2556 1013 2059 
L 3078 2063 
z
M 3578 1613 
L 903 1613 
Q 884 1494 878 1425 
Q 872 1356 872 1306 
Q 872 872 1139 634 
Q 1406 397 1894 397 
Q 2269 397 2603 481 
Q 2938 566 3225 728 
L 3116 159 
Q 2806 34 2476 -28 
Q 2147 -91 1806 -91 
Q 1078 -91 686 257 
Q 294 606 294 1247 
Q 294 1794 489 2264 
Q 684 2734 1063 3103 
Q 1306 3334 1642 3459 
Q 1978 3584 2356 3584 
Q 2950 3584 3301 3228 
Q 3653 2872 3653 2272 
Q 3653 2128 3634 1964 
Q 3616 1800 3578 1613 
z
" transform="scale(0.015625)"/>
     <path id="DejaVuSans-Oblique-66" d="M 3059 4863 
L 2969 4384 
L 2419 4384 
Q 2106 4384 1964 4261 
Q 1822 4138 1753 3809 
L 1691 3500 
L 2638 3500 
L 2553 3053 
L 1606 3053 
L 1013 0 
L 434 0 
L 1031 3053 
L 481 3053 
L 563 3500 
L 1113 3500 
L 1159 3744 
Q 1278 4363 1576 4613 
Q 1875 4863 2516 4863 
L 3059 4863 
z
" transform="scale(0.015625)"/>
     <path id="DejaVuSans-Oblique-30" d="M 2444 4750 
Q 3078 4750 3414 4328 
Q 3750 3906 3750 3116 
Q 3750 2516 3592 1923 
Q 3434 1331 3150 863 
Q 2859 394 2467 151 
Q 2075 -91 1600 -91 
Q 988 -91 653 334 
Q 319 759 319 1544 
Q 319 2138 480 2733 
Q 641 3328 928 3794 
Q 1216 4263 1602 4506 
Q 1988 4750 2444 4750 
z
M 2406 4250 
Q 2169 4250 1955 4123 
Q 1741 3997 1569 3750 
Q 1281 3338 1111 2720 
Q 941 2103 941 1453 
Q 941 938 1123 673 
Q 1306 409 1663 409 
Q 1913 409 2125 536 
Q 2338 663 2509 909 
Q 2794 1319 2961 1936 
Q 3128 2553 3128 3206 
Q 3128 3722 2945 3986 
Q 2763 4250 2406 4250 
z
" transform="scale(0.015625)"/>
     <path id="DejaVuSans-Oblique-61" d="M 3438 1997 
L 3047 0 
L 2472 0 
L 2578 531 
Q 2325 219 2001 64 
Q 1678 -91 1281 -91 
Q 834 -91 548 182 
Q 263 456 263 884 
Q 263 1497 752 1853 
Q 1241 2209 2100 2209 
L 2900 2209 
L 2931 2363 
Q 2938 2388 2941 2417 
Q 2944 2447 2944 2509 
Q 2944 2788 2717 2942 
Q 2491 3097 2081 3097 
Q 1800 3097 1504 3025 
Q 1209 2953 897 2809 
L 997 3341 
Q 1322 3463 1633 3523 
Q 1944 3584 2234 3584 
Q 2853 3584 3176 3315 
Q 3500 3047 3500 2534 
Q 3500 2431 3484 2292 
Q 3469 2153 3438 1997 
z
M 2816 1759 
L 2241 1759 
Q 1534 1759 1195 1570 
Q 856 1381 856 984 
Q 856 709 1029 553 
Q 1203 397 1509 397 
Q 1978 397 2328 733 
Q 2678 1069 2791 1631 
L 2816 1759 
z
" transform="scale(0.015625)"/>
     <path id="DejaVuSans-Oblique-32" d="M 2950 2253 
L 934 525 
L 3163 525 
L 3053 0 
L 25 0 
L 128 531 
L 2234 2338 
Q 2656 2703 2832 2979 
Q 3009 3256 3009 3547 
Q 3009 3850 2796 4040 
Q 2584 4231 2241 4231 
Q 1944 4231 1581 4125 
Q 1219 4019 806 3816 
L 922 4441 
Q 1309 4594 1662 4672 
Q 2016 4750 2316 4750 
Q 2928 4750 3301 4425 
Q 3675 4100 3675 3572 
Q 3675 3216 3497 2892 
Q 3319 2569 2950 2253 
z
" transform="scale(0.015625)"/>
     <path id="DejaVuSans-Oblique-2e" d="M 525 794 
L 1184 794 
L 1031 0 
L 372 0 
L 525 794 
z
" transform="scale(0.015625)"/>
     <path id="DejaVuSans-Oblique-4d" d="M 1081 4666 
L 2028 4666 
L 2572 1522 
L 4378 4666 
L 5350 4666 
L 4441 0 
L 3828 0 
L 4622 4091 
L 2791 897 
L 2175 897 
L 1581 4103 
L 788 0 
L 172 0 
L 1081 4666 
z
" transform="scale(0.015625)"/>
     <path id="DejaVuSans-Oblique-3d" d="M 678 2906 
L 4684 2906 
L 4684 2381 
L 678 2381 
L 678 2906 
z
M 678 1631 
L 4684 1631 
L 4684 1100 
L 678 1100 
L 678 1631 
z
" transform="scale(0.015625)"/>
     <path id="DejaVuSans-Oblique-35" d="M 3719 4666 
L 3622 4141 
L 1691 4141 
L 1466 2988 
Q 1609 3034 1757 3056 
Q 1906 3078 2059 3078 
Q 2706 3078 3081 2731 
Q 3456 2384 3456 1791 
Q 3456 1375 3264 994 
Q 3072 613 2719 325 
Q 2469 125 2108 17 
Q 1747 -91 1319 -91 
Q 1038 -91 744 -41 
Q 450 9 128 109 
L 244 697 
Q 531 556 820 486 
Q 1109 416 1403 416 
Q 2013 416 2411 781 
Q 2809 1147 2809 1697 
Q 2809 2103 2548 2328 
Q 2288 2553 1819 2553 
Q 1572 2553 1305 2495 
Q 1038 2438 756 2322 
L 1209 4666 
L 3719 4666 
z
" transform="scale(0.015625)"/>
     <path id="DejaVuSans-Oblique-4a" d="M 1069 4666 
L 1703 4666 
L 856 325 
Q 691 -522 298 -901 
Q -94 -1281 -800 -1281 
L -1050 -1281 
L -947 -750 
L -750 -750 
Q -328 -750 -109 -509 
Q 109 -269 225 325 
L 1069 4666 
z
" transform="scale(0.015625)"/>
     <path id="DejaVuSans-Oblique-6b" d="M 1172 4863 
L 1747 4863 
L 1197 2028 
L 3169 3500 
L 3916 3500 
L 1716 1825 
L 3322 0 
L 2625 0 
L 1131 1709 
L 800 0 
L 225 0 
L 1172 4863 
z
" transform="scale(0.015625)"/>
     <path id="DejaVuSans-Oblique-62" d="M 3169 2138 
Q 3169 2591 2961 2847 
Q 2753 3103 2388 3103 
Q 2122 3103 1889 2973 
Q 1656 2844 1484 2597 
Q 1303 2338 1198 1995 
Q 1094 1653 1094 1313 
Q 1094 881 1298 636 
Q 1503 391 1863 391 
Q 2134 391 2365 517 
Q 2597 644 2772 891 
Q 2950 1147 3059 1487 
Q 3169 1828 3169 2138 
z
M 1381 2969 
Q 1594 3256 1914 3420 
Q 2234 3584 2584 3584 
Q 3122 3584 3439 3221 
Q 3756 2859 3756 2241 
Q 3756 1734 3570 1259 
Q 3384 784 3041 416 
Q 2816 172 2522 40 
Q 2228 -91 1906 -91 
Q 1566 -91 1316 65 
Q 1066 222 909 531 
L 806 0 
L 231 0 
L 1178 4863 
L 1753 4863 
L 1381 2969 
z
" transform="scale(0.015625)"/>
    </defs>
    <use xlink:href="#DejaVuSans-Oblique-54"/>
    <use xlink:href="#DejaVuSans-Oblique-77" x="52.958984"/>
    <use xlink:href="#DejaVuSans-Oblique-69" x="134.746094"/>
    <use xlink:href="#DejaVuSans-Oblique-73" x="162.529297"/>
    <use xlink:href="#DejaVuSans-Oblique-74" x="214.628906"/>
    <use xlink:href="#DejaVuSans-Oblique-20" x="253.837891"/>
    <use xlink:href="#DejaVuSans-Oblique-63" x="285.625"/>
    <use xlink:href="#DejaVuSans-Oblique-6f" x="340.605469"/>
    <use xlink:href="#DejaVuSans-Oblique-65" x="401.787109"/>
    <use xlink:href="#DejaVuSans-Oblique-66" x="463.310547"/>
    <use xlink:href="#DejaVuSans-Oblique-66" x="498.515625"/>
    <use xlink:href="#DejaVuSans-Oblique-69" x="533.720703"/>
    <use xlink:href="#DejaVuSans-Oblique-63" x="561.503906"/>
    <use xlink:href="#DejaVuSans-Oblique-69" x="616.484375"/>
    <use xlink:href="#DejaVuSans-Oblique-65" x="644.267578"/>
    <use xlink:href="#DejaVuSans-Oblique-6e" x="705.791016"/>
    <use xlink:href="#DejaVuSans-Oblique-74" x="769.169922"/>
    <use xlink:href="#DejaVuSans-Oblique-73" x="808.378906"/>
    <use xlink:href="#DejaVuSans-Oblique-20" x="860.478516"/>
    <use xlink:href="#DejaVuSans-Oblique-30" x="892.265625"/>
    <use xlink:href="#DejaVuSans-Oblique-20" x="955.888672"/>
    <use xlink:href="#DejaVuSans-Oblique-61" x="987.675781"/>
    <use xlink:href="#DejaVuSans-Oblique-6e" x="1048.955078"/>
    <use xlink:href="#DejaVuSans-Oblique-64" x="1112.333984"/>
    <use xlink:href="#DejaVuSans-Oblique-20" x="1175.810547"/>
    <use xlink:href="#DejaVuSans-Oblique-32" x="1207.597656"/>
    <use xlink:href="#DejaVuSans-Oblique-2e" x="1271.220703"/>
    <use xlink:href="#DejaVuSans-Oblique-20" x="1303.007812"/>
    <use xlink:href="#DejaVuSans-Oblique-4d" x="1334.794922"/>
    <use xlink:href="#DejaVuSans-Oblique-3d" x="1421.074219"/>
    <use xlink:href="#DejaVuSans-Oblique-35" x="1504.863281"/>
    <use xlink:href="#DejaVuSans-Oblique-20" x="1568.486328"/>
    <use xlink:href="#DejaVuSans-Oblique-4a" x="1600.273438"/>
    <use xlink:href="#DejaVuSans-Oblique-61" x="1629.765625"/>
    <use xlink:href="#DejaVuSans-Oblique-63" x="1691.044922"/>
    <use xlink:href="#DejaVuSans-Oblique-6b" x="1746.025391"/>
    <use xlink:href="#DejaVuSans-Oblique-6b" x="1803.935547"/>
    <use xlink:href="#DejaVuSans-Oblique-6e" x="1861.845703"/>
    <use xlink:href="#DejaVuSans-Oblique-69" x="1925.224609"/>
    <use xlink:href="#DejaVuSans-Oblique-66" x="1953.007812"/>
    <use xlink:href="#DejaVuSans-Oblique-65" x="1988.212891"/>
    <use xlink:href="#DejaVuSans-Oblique-20" x="2049.736328"/>
    <use xlink:href="#DejaVuSans-Oblique-62" x="2081.523438"/>
    <use xlink:href="#DejaVuSans-Oblique-69" x="2145"/>
    <use xlink:href="#DejaVuSans-Oblique-6e" x="2172.783203"/>
    <use xlink:href="#DejaVuSans-Oblique-73" x="2236.162109"/>
   </g>
  </g>
 </g>
 <defs>
  <clipPath id="pae96d11513">
   <rect x="67.730938" y="7.2" width="390.6" height="277.2"/>
  </clipPath>
 </defs>
</svg>
