<?xml version="1.0" encoding="utf-8" standalone="no"?>
<!DOCTYPE svg PUBLIC "-//W3C//DTD SVG 1.1//EN"
  "http://www.w3.org/Graphics/SVG/1.1/DTD/svg11.dtd">
<svg xmlns:xlink="http://www.w3.org/1999/xlink" width="410.156563pt" height="401.61pt" viewBox="0 0 410.156563 401.61" xmlns="http://www.w3.org/2000/svg" version="1.1">
 <metadata>
  <rdf:RDF xmlns:dc="http://purl.org/dc/elements/1.1/" xmlns:cc="http://creativecommons.org/ns#" xmlns:rdf="http://www.w3.org/1999/02/22-rdf-syntax-ns#">
   <cc:Work>
    <dc:type rdf:resource="http://purl.org/dc/dcmitype/StillImage"/>
    <dc:date>2024-05-08T13:46:38.758021</dc:date>
    <dc:format>image/svg+xml</dc:format>
    <dc:creator>
     <cc:Agent>
      <dc:title>Matplotlib v3.8.0, https://matplotlib.org/</dc:title>
     </cc:Agent>
    </dc:creator>
   </cc:Work>
  </rdf:RDF>
 </metadata>
 <defs>
  <style type="text/css">*{stroke-linejoin: round; stroke-linecap: butt}</style>
 </defs>
 <g id="figure_1">
  <g id="patch_1">
   <path d="M 0 401.61 
L 410.156563 401.61 
L 410.156563 0 
L 0 0 
z
" style="fill: #ffffff"/>
  </g>
  <g id="axes_1">
   <g id="patch_2">
    <path d="M 68.156563 339.84 
L 402.956563 339.84 
L 402.956563 7.2 
L 68.156563 7.2 
z
" style="fill: #ffffff"/>
   </g>
   <g id="matplotlib.axis_1">
    <g id="xtick_1">
     <g id="line2d_1">
      <defs>
       <path id="m457982a0dd" d="M 0 0 
L 0 3.5 
" style="stroke: #000000; stroke-width: 0.8"/>
      </defs>
      <g>
       <use xlink:href="#m457982a0dd" x="113.811108" y="339.84" style="stroke: #000000; stroke-width: 0.8"/>
      </g>
     </g>
     <g id="text_1">
      <!-- 10.76 -->
      <g transform="translate(95.202827 356.717969) scale(0.13 -0.13)">
       <defs>
        <path id="DejaVuSans-31" d="M 794 531 
L 1825 531 
L 1825 4091 
L 703 3866 
L 703 4441 
L 1819 4666 
L 2450 4666 
L 2450 531 
L 3481 531 
L 3481 0 
L 794 0 
L 794 531 
z
" transform="scale(0.015625)"/>
        <path id="DejaVuSans-30" d="M 2034 4250 
Q 1547 4250 1301 3770 
Q 1056 3291 1056 2328 
Q 1056 1369 1301 889 
Q 1547 409 2034 409 
Q 2525 409 2770 889 
Q 3016 1369 3016 2328 
Q 3016 3291 2770 3770 
Q 2525 4250 2034 4250 
z
M 2034 4750 
Q 2819 4750 3233 4129 
Q 3647 3509 3647 2328 
Q 3647 1150 3233 529 
Q 2819 -91 2034 -91 
Q 1250 -91 836 529 
Q 422 1150 422 2328 
Q 422 3509 836 4129 
Q 1250 4750 2034 4750 
z
" transform="scale(0.015625)"/>
        <path id="DejaVuSans-2e" d="M 684 794 
L 1344 794 
L 1344 0 
L 684 0 
L 684 794 
z
" transform="scale(0.015625)"/>
        <path id="DejaVuSans-37" d="M 525 4666 
L 3525 4666 
L 3525 4397 
L 1831 0 
L 1172 0 
L 2766 4134 
L 525 4134 
L 525 4666 
z
" transform="scale(0.015625)"/>
        <path id="DejaVuSans-36" d="M 2113 2584 
Q 1688 2584 1439 2293 
Q 1191 2003 1191 1497 
Q 1191 994 1439 701 
Q 1688 409 2113 409 
Q 2538 409 2786 701 
Q 3034 994 3034 1497 
Q 3034 2003 2786 2293 
Q 2538 2584 2113 2584 
z
M 3366 4563 
L 3366 3988 
Q 3128 4100 2886 4159 
Q 2644 4219 2406 4219 
Q 1781 4219 1451 3797 
Q 1122 3375 1075 2522 
Q 1259 2794 1537 2939 
Q 1816 3084 2150 3084 
Q 2853 3084 3261 2657 
Q 3669 2231 3669 1497 
Q 3669 778 3244 343 
Q 2819 -91 2113 -91 
Q 1303 -91 875 529 
Q 447 1150 447 2328 
Q 447 3434 972 4092 
Q 1497 4750 2381 4750 
Q 2619 4750 2861 4703 
Q 3103 4656 3366 4563 
z
" transform="scale(0.015625)"/>
       </defs>
       <use xlink:href="#DejaVuSans-31"/>
       <use xlink:href="#DejaVuSans-30" x="63.623047"/>
       <use xlink:href="#DejaVuSans-2e" x="127.246094"/>
       <use xlink:href="#DejaVuSans-37" x="159.033203"/>
       <use xlink:href="#DejaVuSans-36" x="222.65625"/>
      </g>
     </g>
    </g>
    <g id="xtick_2">
     <g id="line2d_2">
      <g>
       <use xlink:href="#m457982a0dd" x="174.683835" y="339.84" style="stroke: #000000; stroke-width: 0.8"/>
      </g>
     </g>
     <g id="text_2">
      <!-- 10.78 -->
      <g transform="translate(156.075554 356.717969) scale(0.13 -0.13)">
       <defs>
        <path id="DejaVuSans-38" d="M 2034 2216 
Q 1584 2216 1326 1975 
Q 1069 1734 1069 1313 
Q 1069 891 1326 650 
Q 1584 409 2034 409 
Q 2484 409 2743 651 
Q 3003 894 3003 1313 
Q 3003 1734 2745 1975 
Q 2488 2216 2034 2216 
z
M 1403 2484 
Q 997 2584 770 2862 
Q 544 3141 544 3541 
Q 544 4100 942 4425 
Q 1341 4750 2034 4750 
Q 2731 4750 3128 4425 
Q 3525 4100 3525 3541 
Q 3525 3141 3298 2862 
Q 3072 2584 2669 2484 
Q 3125 2378 3379 2068 
Q 3634 1759 3634 1313 
Q 3634 634 3220 271 
Q 2806 -91 2034 -91 
Q 1263 -91 848 271 
Q 434 634 434 1313 
Q 434 1759 690 2068 
Q 947 2378 1403 2484 
z
M 1172 3481 
Q 1172 3119 1398 2916 
Q 1625 2713 2034 2713 
Q 2441 2713 2670 2916 
Q 2900 3119 2900 3481 
Q 2900 3844 2670 4047 
Q 2441 4250 2034 4250 
Q 1625 4250 1398 4047 
Q 1172 3844 1172 3481 
z
" transform="scale(0.015625)"/>
       </defs>
       <use xlink:href="#DejaVuSans-31"/>
       <use xlink:href="#DejaVuSans-30" x="63.623047"/>
       <use xlink:href="#DejaVuSans-2e" x="127.246094"/>
       <use xlink:href="#DejaVuSans-37" x="159.033203"/>
       <use xlink:href="#DejaVuSans-38" x="222.65625"/>
      </g>
     </g>
    </g>
    <g id="xtick_3">
     <g id="line2d_3">
      <g>
       <use xlink:href="#m457982a0dd" x="235.556563" y="339.84" style="stroke: #000000; stroke-width: 0.8"/>
      </g>
     </g>
     <g id="text_3">
      <!-- 10.80 -->
      <g transform="translate(216.948281 356.717969) scale(0.13 -0.13)">
       <use xlink:href="#DejaVuSans-31"/>
       <use xlink:href="#DejaVuSans-30" x="63.623047"/>
       <use xlink:href="#DejaVuSans-2e" x="127.246094"/>
       <use xlink:href="#DejaVuSans-38" x="159.033203"/>
       <use xlink:href="#DejaVuSans-30" x="222.65625"/>
      </g>
     </g>
    </g>
    <g id="xtick_4">
     <g id="line2d_4">
      <g>
       <use xlink:href="#m457982a0dd" x="296.42929" y="339.84" style="stroke: #000000; stroke-width: 0.8"/>
      </g>
     </g>
     <g id="text_4">
      <!-- 10.82 -->
      <g transform="translate(277.821009 356.717969) scale(0.13 -0.13)">
       <defs>
        <path id="DejaVuSans-32" d="M 1228 531 
L 3431 531 
L 3431 0 
L 469 0 
L 469 531 
Q 828 903 1448 1529 
Q 2069 2156 2228 2338 
Q 2531 2678 2651 2914 
Q 2772 3150 2772 3378 
Q 2772 3750 2511 3984 
Q 2250 4219 1831 4219 
Q 1534 4219 1204 4116 
Q 875 4013 500 3803 
L 500 4441 
Q 881 4594 1212 4672 
Q 1544 4750 1819 4750 
Q 2544 4750 2975 4387 
Q 3406 4025 3406 3419 
Q 3406 3131 3298 2873 
Q 3191 2616 2906 2266 
Q 2828 2175 2409 1742 
Q 1991 1309 1228 531 
z
" transform="scale(0.015625)"/>
       </defs>
       <use xlink:href="#DejaVuSans-31"/>
       <use xlink:href="#DejaVuSans-30" x="63.623047"/>
       <use xlink:href="#DejaVuSans-2e" x="127.246094"/>
       <use xlink:href="#DejaVuSans-38" x="159.033203"/>
       <use xlink:href="#DejaVuSans-32" x="222.65625"/>
      </g>
     </g>
    </g>
    <g id="xtick_5">
     <g id="line2d_5">
      <g>
       <use xlink:href="#m457982a0dd" x="357.302017" y="339.84" style="stroke: #000000; stroke-width: 0.8"/>
      </g>
     </g>
     <g id="text_5">
      <!-- 10.84 -->
      <g transform="translate(338.693736 356.717969) scale(0.13 -0.13)">
       <defs>
        <path id="DejaVuSans-34" d="M 2419 4116 
L 825 1625 
L 2419 1625 
L 2419 4116 
z
M 2253 4666 
L 3047 4666 
L 3047 1625 
L 3713 1625 
L 3713 1100 
L 3047 1100 
L 3047 0 
L 2419 0 
L 2419 1100 
L 313 1100 
L 313 1709 
L 2253 4666 
z
" transform="scale(0.015625)"/>
       </defs>
       <use xlink:href="#DejaVuSans-31"/>
       <use xlink:href="#DejaVuSans-30" x="63.623047"/>
       <use xlink:href="#DejaVuSans-2e" x="127.246094"/>
       <use xlink:href="#DejaVuSans-38" x="159.033203"/>
       <use xlink:href="#DejaVuSans-34" x="222.65625"/>
      </g>
     </g>
    </g>
    <g id="text_6">
     <!-- $\beta$ -->
     <g transform="translate(231.396563 373.431563) scale(0.13 -0.13)">
      <defs>
       <path id="DejaVuSans-Oblique-3b2" d="M 872 216 
L 572 -1331 
L -6 -1331 
L 928 3478 
Q 1206 4903 2538 4903 
Q 3888 4903 3659 3700 
Q 3503 2844 2894 2531 
Q 3713 2250 3553 1416 
Q 3272 -69 1759 -66 
Q 1097 -63 872 216 
z
M 1019 966 
Q 1259 422 1875 425 
Q 2775 425 2966 1406 
Q 3138 2288 1675 2219 
L 1778 2750 
Q 2909 2731 3106 3750 
Q 3241 4438 2509 4434 
Q 1691 4434 1503 3459 
L 1019 966 
z
" transform="scale(0.015625)"/>
      </defs>
      <use xlink:href="#DejaVuSans-Oblique-3b2" transform="translate(0 0.390625)"/>
     </g>
    </g>
   </g>
   <g id="matplotlib.axis_2">
    <g id="ytick_1">
     <g id="line2d_6">
      <defs>
       <path id="m424ebbae30" d="M 0 0 
L -3.5 0 
" style="stroke: #000000; stroke-width: 0.8"/>
      </defs>
      <g>
       <use xlink:href="#m424ebbae30" x="68.156563" y="283.505604" style="stroke: #000000; stroke-width: 0.8"/>
      </g>
     </g>
     <g id="text_7">
      <!-- 0.434 -->
      <g transform="translate(23.94 288.444588) scale(0.13 -0.13)">
       <defs>
        <path id="DejaVuSans-33" d="M 2597 2516 
Q 3050 2419 3304 2112 
Q 3559 1806 3559 1356 
Q 3559 666 3084 287 
Q 2609 -91 1734 -91 
Q 1441 -91 1130 -33 
Q 819 25 488 141 
L 488 750 
Q 750 597 1062 519 
Q 1375 441 1716 441 
Q 2309 441 2620 675 
Q 2931 909 2931 1356 
Q 2931 1769 2642 2001 
Q 2353 2234 1838 2234 
L 1294 2234 
L 1294 2753 
L 1863 2753 
Q 2328 2753 2575 2939 
Q 2822 3125 2822 3475 
Q 2822 3834 2567 4026 
Q 2313 4219 1838 4219 
Q 1578 4219 1281 4162 
Q 984 4106 628 3988 
L 628 4550 
Q 988 4650 1302 4700 
Q 1616 4750 1894 4750 
Q 2613 4750 3031 4423 
Q 3450 4097 3450 3541 
Q 3450 3153 3228 2886 
Q 3006 2619 2597 2516 
z
" transform="scale(0.015625)"/>
       </defs>
       <use xlink:href="#DejaVuSans-30"/>
       <use xlink:href="#DejaVuSans-2e" x="63.623047"/>
       <use xlink:href="#DejaVuSans-34" x="95.410156"/>
       <use xlink:href="#DejaVuSans-33" x="159.033203"/>
       <use xlink:href="#DejaVuSans-34" x="222.65625"/>
      </g>
     </g>
    </g>
    <g id="ytick_2">
     <g id="line2d_7">
      <g>
       <use xlink:href="#m424ebbae30" x="68.156563" y="213.840387" style="stroke: #000000; stroke-width: 0.8"/>
      </g>
     </g>
     <g id="text_8">
      <!-- 0.436 -->
      <g transform="translate(23.94 218.779372) scale(0.13 -0.13)">
       <use xlink:href="#DejaVuSans-30"/>
       <use xlink:href="#DejaVuSans-2e" x="63.623047"/>
       <use xlink:href="#DejaVuSans-34" x="95.410156"/>
       <use xlink:href="#DejaVuSans-33" x="159.033203"/>
       <use xlink:href="#DejaVuSans-36" x="222.65625"/>
      </g>
     </g>
    </g>
    <g id="ytick_3">
     <g id="line2d_8">
      <g>
       <use xlink:href="#m424ebbae30" x="68.156563" y="144.175171" style="stroke: #000000; stroke-width: 0.8"/>
      </g>
     </g>
     <g id="text_9">
      <!-- 0.438 -->
      <g transform="translate(23.94 149.114156) scale(0.13 -0.13)">
       <use xlink:href="#DejaVuSans-30"/>
       <use xlink:href="#DejaVuSans-2e" x="63.623047"/>
       <use xlink:href="#DejaVuSans-34" x="95.410156"/>
       <use xlink:href="#DejaVuSans-33" x="159.033203"/>
       <use xlink:href="#DejaVuSans-38" x="222.65625"/>
      </g>
     </g>
    </g>
    <g id="ytick_4">
     <g id="line2d_9">
      <g>
       <use xlink:href="#m424ebbae30" x="68.156563" y="74.509955" style="stroke: #000000; stroke-width: 0.8"/>
      </g>
     </g>
     <g id="text_10">
      <!-- 0.440 -->
      <g transform="translate(23.94 79.448939) scale(0.13 -0.13)">
       <use xlink:href="#DejaVuSans-30"/>
       <use xlink:href="#DejaVuSans-2e" x="63.623047"/>
       <use xlink:href="#DejaVuSans-34" x="95.410156"/>
       <use xlink:href="#DejaVuSans-34" x="159.033203"/>
       <use xlink:href="#DejaVuSans-30" x="222.65625"/>
      </g>
     </g>
    </g>
    <g id="text_11">
     <!-- $\langle$ S $\rangle / (6\cdot V \cdot\beta)$ -->
     <g transform="translate(17.21 216.095) rotate(-90) scale(0.13 -0.13)">
      <defs>
       <path id="DejaVuSans-27e8" d="M 572 2006 
L 1453 4856 
L 1984 4856 
L 1103 2006 
L 1984 -844 
L 1453 -844 
L 572 2006 
z
" transform="scale(0.015625)"/>
       <path id="DejaVuSans-20" transform="scale(0.015625)"/>
       <path id="DejaVuSans-53" d="M 3425 4513 
L 3425 3897 
Q 3066 4069 2747 4153 
Q 2428 4238 2131 4238 
Q 1616 4238 1336 4038 
Q 1056 3838 1056 3469 
Q 1056 3159 1242 3001 
Q 1428 2844 1947 2747 
L 2328 2669 
Q 3034 2534 3370 2195 
Q 3706 1856 3706 1288 
Q 3706 609 3251 259 
Q 2797 -91 1919 -91 
Q 1588 -91 1214 -16 
Q 841 59 441 206 
L 441 856 
Q 825 641 1194 531 
Q 1563 422 1919 422 
Q 2459 422 2753 634 
Q 3047 847 3047 1241 
Q 3047 1584 2836 1778 
Q 2625 1972 2144 2069 
L 1759 2144 
Q 1053 2284 737 2584 
Q 422 2884 422 3419 
Q 422 4038 858 4394 
Q 1294 4750 2059 4750 
Q 2388 4750 2728 4690 
Q 3069 4631 3425 4513 
z
" transform="scale(0.015625)"/>
       <path id="DejaVuSans-27e9" d="M 1925 2006 
L 1044 -844 
L 513 -844 
L 1394 2006 
L 513 4856 
L 1044 4856 
L 1925 2006 
z
" transform="scale(0.015625)"/>
       <path id="DejaVuSans-2f" d="M 1625 4666 
L 2156 4666 
L 531 -594 
L 0 -594 
L 1625 4666 
z
" transform="scale(0.015625)"/>
       <path id="DejaVuSans-28" d="M 1984 4856 
Q 1566 4138 1362 3434 
Q 1159 2731 1159 2009 
Q 1159 1288 1364 580 
Q 1569 -128 1984 -844 
L 1484 -844 
Q 1016 -109 783 600 
Q 550 1309 550 2009 
Q 550 2706 781 3412 
Q 1013 4119 1484 4856 
L 1984 4856 
z
" transform="scale(0.015625)"/>
       <path id="DejaVuSans-22c5" d="M 684 2619 
L 1344 2619 
L 1344 1825 
L 684 1825 
L 684 2619 
z
" transform="scale(0.015625)"/>
       <path id="DejaVuSans-Oblique-56" d="M 1319 0 
L 500 4666 
L 1119 4666 
L 1797 653 
L 4063 4666 
L 4750 4666 
L 2053 0 
L 1319 0 
z
" transform="scale(0.015625)"/>
       <path id="DejaVuSans-29" d="M 513 4856 
L 1013 4856 
Q 1481 4119 1714 3412 
Q 1947 2706 1947 2009 
Q 1947 1309 1714 600 
Q 1481 -109 1013 -844 
L 513 -844 
Q 928 -128 1133 580 
Q 1338 1288 1338 2009 
Q 1338 2731 1133 3434 
Q 928 4138 513 4856 
z
" transform="scale(0.015625)"/>
      </defs>
      <use xlink:href="#DejaVuSans-27e8" transform="translate(0 0.390625)"/>
      <use xlink:href="#DejaVuSans-20" transform="translate(39.013672 0.390625)"/>
      <use xlink:href="#DejaVuSans-53" transform="translate(70.800781 0.390625)"/>
      <use xlink:href="#DejaVuSans-20" transform="translate(134.277344 0.390625)"/>
      <use xlink:href="#DejaVuSans-27e9" transform="translate(166.064453 0.390625)"/>
      <use xlink:href="#DejaVuSans-2f" transform="translate(205.078125 0.390625)"/>
      <use xlink:href="#DejaVuSans-28" transform="translate(238.769531 0.390625)"/>
      <use xlink:href="#DejaVuSans-36" transform="translate(277.783203 0.390625)"/>
      <use xlink:href="#DejaVuSans-22c5" transform="translate(360.888672 0.390625)"/>
      <use xlink:href="#DejaVuSans-Oblique-56" transform="translate(412.158203 0.390625)"/>
      <use xlink:href="#DejaVuSans-22c5" transform="translate(500.048828 0.390625)"/>
      <use xlink:href="#DejaVuSans-Oblique-3b2" transform="translate(551.318359 0.390625)"/>
      <use xlink:href="#DejaVuSans-29" transform="translate(615.136719 0.390625)"/>
     </g>
    </g>
   </g>
   <g id="LineCollection_1">
    <path d="M 83.374744 22.630662 
L 83.374744 22.530978 
" clip-path="url(#pad282e4238)" style="fill: none; stroke: #ff0000; stroke-width: 1.5"/>
    <path d="M 86.418381 25.571736 
L 86.418381 25.515301 
" clip-path="url(#pad282e4238)" style="fill: none; stroke: #ff0000; stroke-width: 1.5"/>
    <path d="M 89.462017 28.507716 
L 89.462017 28.481104 
" clip-path="url(#pad282e4238)" style="fill: none; stroke: #ff0000; stroke-width: 1.5"/>
    <path d="M 92.505653 31.459143 
L 92.505653 31.414393 
" clip-path="url(#pad282e4238)" style="fill: none; stroke: #ff0000; stroke-width: 1.5"/>
    <path d="M 95.54929 34.412422 
L 95.54929 34.336118 
" clip-path="url(#pad282e4238)" style="fill: none; stroke: #ff0000; stroke-width: 1.5"/>
    <path d="M 98.592926 37.360412 
L 98.592926 37.260678 
" clip-path="url(#pad282e4238)" style="fill: none; stroke: #ff0000; stroke-width: 1.5"/>
    <path d="M 101.636563 40.303563 
L 101.636563 40.193508 
" clip-path="url(#pad282e4238)" style="fill: none; stroke: #ff0000; stroke-width: 1.5"/>
    <path d="M 104.680199 43.243921 
L 104.680199 43.135855 
" clip-path="url(#pad282e4238)" style="fill: none; stroke: #ff0000; stroke-width: 1.5"/>
    <path d="M 107.723835 46.18623 
L 107.723835 46.082922 
" clip-path="url(#pad282e4238)" style="fill: none; stroke: #ff0000; stroke-width: 1.5"/>
    <path d="M 110.767472 49.137833 
L 110.767472 49.023927 
" clip-path="url(#pad282e4238)" style="fill: none; stroke: #ff0000; stroke-width: 1.5"/>
    <path d="M 113.811108 52.0996 
L 113.811108 51.951962 
" clip-path="url(#pad282e4238)" style="fill: none; stroke: #ff0000; stroke-width: 1.5"/>
    <path d="M 116.854744 55.062007 
L 116.854744 54.869317 
" clip-path="url(#pad282e4238)" style="fill: none; stroke: #ff0000; stroke-width: 1.5"/>
    <path d="M 119.898381 58.014498 
L 119.898381 57.77981 
" clip-path="url(#pad282e4238)" style="fill: none; stroke: #ff0000; stroke-width: 1.5"/>
    <path d="M 122.942017 60.949889 
L 122.942017 60.685889 
" clip-path="url(#pad282e4238)" style="fill: none; stroke: #ff0000; stroke-width: 1.5"/>
    <path d="M 125.985653 63.864882 
L 125.985653 63.589054 
" clip-path="url(#pad282e4238)" style="fill: none; stroke: #ff0000; stroke-width: 1.5"/>
    <path d="M 129.02929 66.759835 
L 129.02929 66.490213 
" clip-path="url(#pad282e4238)" style="fill: none; stroke: #ff0000; stroke-width: 1.5"/>
    <path d="M 132.072926 69.637987 
L 132.072926 69.389809 
" clip-path="url(#pad282e4238)" style="fill: none; stroke: #ff0000; stroke-width: 1.5"/>
    <path d="M 135.116563 72.504198 
L 135.116563 72.2879 
" clip-path="url(#pad282e4238)" style="fill: none; stroke: #ff0000; stroke-width: 1.5"/>
    <path d="M 138.160199 75.363533 
L 138.160199 75.184257 
" clip-path="url(#pad282e4238)" style="fill: none; stroke: #ff0000; stroke-width: 1.5"/>
    <path d="M 141.203835 78.220094 
L 141.203835 78.078502 
" clip-path="url(#pad282e4238)" style="fill: none; stroke: #ff0000; stroke-width: 1.5"/>
    <path d="M 144.247472 81.076409 
L 144.247472 80.970228 
" clip-path="url(#pad282e4238)" style="fill: none; stroke: #ff0000; stroke-width: 1.5"/>
    <path d="M 147.291108 83.933499 
L 147.291108 83.859059 
" clip-path="url(#pad282e4238)" style="fill: none; stroke: #ff0000; stroke-width: 1.5"/>
    <path d="M 150.334744 86.791723 
L 150.334744 86.744362 
" clip-path="url(#pad282e4238)" style="fill: none; stroke: #ff0000; stroke-width: 1.5"/>
    <path d="M 153.378381 89.653454 
L 153.378381 89.623342 
" clip-path="url(#pad282e4238)" style="fill: none; stroke: #ff0000; stroke-width: 1.5"/>
    <path d="M 156.422017 92.525856 
L 156.422017 92.48903 
" clip-path="url(#pad282e4238)" style="fill: none; stroke: #ff0000; stroke-width: 1.5"/>
    <path d="M 159.465653 95.406302 
L 159.465653 95.345514 
" clip-path="url(#pad282e4238)" style="fill: none; stroke: #ff0000; stroke-width: 1.5"/>
    <path d="M 162.50929 98.29087 
L 162.50929 98.200023 
" clip-path="url(#pad282e4238)" style="fill: none; stroke: #ff0000; stroke-width: 1.5"/>
    <path d="M 165.552926 101.181365 
L 165.552926 101.056498 
" clip-path="url(#pad282e4238)" style="fill: none; stroke: #ff0000; stroke-width: 1.5"/>
    <path d="M 168.596563 104.082443 
L 168.596563 103.919237 
" clip-path="url(#pad282e4238)" style="fill: none; stroke: #ff0000; stroke-width: 1.5"/>
    <path d="M 171.640199 107.001656 
L 171.640199 106.794161 
" clip-path="url(#pad282e4238)" style="fill: none; stroke: #ff0000; stroke-width: 1.5"/>
    <path d="M 174.683835 109.950978 
L 174.683835 109.68979 
" clip-path="url(#pad282e4238)" style="fill: none; stroke: #ff0000; stroke-width: 1.5"/>
    <path d="M 177.727472 112.94996 
L 177.727472 112.618914 
" clip-path="url(#pad282e4238)" style="fill: none; stroke: #ff0000; stroke-width: 1.5"/>
    <path d="M 180.771108 116.031225 
L 180.771108 115.601812 
" clip-path="url(#pad282e4238)" style="fill: none; stroke: #ff0000; stroke-width: 1.5"/>
    <path d="M 183.814744 119.248637 
L 183.814744 118.672246 
" clip-path="url(#pad282e4238)" style="fill: none; stroke: #ff0000; stroke-width: 1.5"/>
    <path d="M 186.858381 122.686852 
L 186.858381 121.887525 
" clip-path="url(#pad282e4238)" style="fill: none; stroke: #ff0000; stroke-width: 1.5"/>
    <path d="M 189.902017 126.467241 
L 189.902017 125.34203 
" clip-path="url(#pad282e4238)" style="fill: none; stroke: #ff0000; stroke-width: 1.5"/>
    <path d="M 192.945653 130.737893 
L 192.945653 129.177485 
" clip-path="url(#pad282e4238)" style="fill: none; stroke: #ff0000; stroke-width: 1.5"/>
    <path d="M 195.98929 135.626691 
L 195.98929 133.571164 
" clip-path="url(#pad282e4238)" style="fill: none; stroke: #ff0000; stroke-width: 1.5"/>
    <path d="M 199.032926 141.145585 
L 199.032926 138.670484 
" clip-path="url(#pad282e4238)" style="fill: none; stroke: #ff0000; stroke-width: 1.5"/>
    <path d="M 202.076563 147.092352 
L 202.076563 144.461446 
" clip-path="url(#pad282e4238)" style="fill: none; stroke: #ff0000; stroke-width: 1.5"/>
    <path d="M 205.120199 153.067428 
L 205.120199 150.653524 
" clip-path="url(#pad282e4238)" style="fill: none; stroke: #ff0000; stroke-width: 1.5"/>
    <path d="M 208.163835 158.656163 
L 208.163835 156.746897 
" clip-path="url(#pad282e4238)" style="fill: none; stroke: #ff0000; stroke-width: 1.5"/>
    <path d="M 211.207472 163.626064 
L 211.207472 162.292659 
" clip-path="url(#pad282e4238)" style="fill: none; stroke: #ff0000; stroke-width: 1.5"/>
    <path d="M 214.251108 167.966494 
L 214.251108 167.100487 
" clip-path="url(#pad282e4238)" style="fill: none; stroke: #ff0000; stroke-width: 1.5"/>
    <path d="M 217.294744 171.79492 
L 217.294744 171.229284 
" clip-path="url(#pad282e4238)" style="fill: none; stroke: #ff0000; stroke-width: 1.5"/>
    <path d="M 220.338381 175.253075 
L 220.338381 174.857033 
" clip-path="url(#pad282e4238)" style="fill: none; stroke: #ff0000; stroke-width: 1.5"/>
    <path d="M 223.382017 178.459929 
L 223.382017 178.165259 
" clip-path="url(#pad282e4238)" style="fill: none; stroke: #ff0000; stroke-width: 1.5"/>
    <path d="M 226.425653 181.507681 
L 226.425653 181.284303 
" clip-path="url(#pad282e4238)" style="fill: none; stroke: #ff0000; stroke-width: 1.5"/>
    <path d="M 229.46929 184.463252 
L 229.46929 184.292207 
" clip-path="url(#pad282e4238)" style="fill: none; stroke: #ff0000; stroke-width: 1.5"/>
    <path d="M 232.512926 187.369306 
L 232.512926 187.233212 
" clip-path="url(#pad282e4238)" style="fill: none; stroke: #ff0000; stroke-width: 1.5"/>
    <path d="M 235.556563 190.248632 
L 235.556563 190.133364 
" clip-path="url(#pad282e4238)" style="fill: none; stroke: #ff0000; stroke-width: 1.5"/>
    <path d="M 238.600199 193.111227 
L 238.600199 193.008563 
" clip-path="url(#pad282e4238)" style="fill: none; stroke: #ff0000; stroke-width: 1.5"/>
    <path d="M 241.643835 195.96137 
L 241.643835 195.867643 
" clip-path="url(#pad282e4238)" style="fill: none; stroke: #ff0000; stroke-width: 1.5"/>
    <path d="M 244.687472 198.801523 
L 244.687472 198.714819 
" clip-path="url(#pad282e4238)" style="fill: none; stroke: #ff0000; stroke-width: 1.5"/>
    <path d="M 247.731108 201.633542 
L 247.731108 201.552062 
" clip-path="url(#pad282e4238)" style="fill: none; stroke: #ff0000; stroke-width: 1.5"/>
    <path d="M 250.774744 204.459053 
L 250.774744 204.380368 
" clip-path="url(#pad282e4238)" style="fill: none; stroke: #ff0000; stroke-width: 1.5"/>
    <path d="M 253.818381 207.279602 
L 253.818381 207.199986 
" clip-path="url(#pad282e4238)" style="fill: none; stroke: #ff0000; stroke-width: 1.5"/>
    <path d="M 256.862017 210.096366 
L 256.862017 210.010469 
" clip-path="url(#pad282e4238)" style="fill: none; stroke: #ff0000; stroke-width: 1.5"/>
    <path d="M 259.905653 212.909485 
L 259.905653 212.811077 
" clip-path="url(#pad282e4238)" style="fill: none; stroke: #ff0000; stroke-width: 1.5"/>
    <path d="M 262.94929 215.717521 
L 262.94929 215.60133 
" clip-path="url(#pad282e4238)" style="fill: none; stroke: #ff0000; stroke-width: 1.5"/>
    <path d="M 265.992926 218.517589 
L 265.992926 218.38127 
" clip-path="url(#pad282e4238)" style="fill: none; stroke: #ff0000; stroke-width: 1.5"/>
    <path d="M 269.036563 221.306024 
L 269.036563 221.151425 
" clip-path="url(#pad282e4238)" style="fill: none; stroke: #ff0000; stroke-width: 1.5"/>
    <path d="M 272.080199 224.079205 
L 272.080199 223.91264 
" clip-path="url(#pad282e4238)" style="fill: none; stroke: #ff0000; stroke-width: 1.5"/>
    <path d="M 275.123835 226.834351 
L 275.123835 226.665829 
" clip-path="url(#pad282e4238)" style="fill: none; stroke: #ff0000; stroke-width: 1.5"/>
    <path d="M 278.167472 229.570171 
L 278.167472 229.411676 
" clip-path="url(#pad282e4238)" style="fill: none; stroke: #ff0000; stroke-width: 1.5"/>
    <path d="M 281.211108 232.28738 
L 281.211108 232.150257 
" clip-path="url(#pad282e4238)" style="fill: none; stroke: #ff0000; stroke-width: 1.5"/>
    <path d="M 284.254744 234.989258 
L 284.254744 234.880391 
" clip-path="url(#pad282e4238)" style="fill: none; stroke: #ff0000; stroke-width: 1.5"/>
    <path d="M 287.298381 237.682918 
L 287.298381 237.598073 
" clip-path="url(#pad282e4238)" style="fill: none; stroke: #ff0000; stroke-width: 1.5"/>
    <path d="M 290.342017 240.379341 
L 290.342017 240.295974 
" clip-path="url(#pad282e4238)" style="fill: none; stroke: #ff0000; stroke-width: 1.5"/>
    <path d="M 293.385653 243.081554 
L 293.385653 242.974748 
" clip-path="url(#pad282e4238)" style="fill: none; stroke: #ff0000; stroke-width: 1.5"/>
    <path d="M 296.42929 245.782442 
L 296.42929 245.644775 
" clip-path="url(#pad282e4238)" style="fill: none; stroke: #ff0000; stroke-width: 1.5"/>
    <path d="M 299.472926 248.477173 
L 299.472926 248.313481 
" clip-path="url(#pad282e4238)" style="fill: none; stroke: #ff0000; stroke-width: 1.5"/>
    <path d="M 302.516563 251.163928 
L 302.516563 250.984608 
" clip-path="url(#pad282e4238)" style="fill: none; stroke: #ff0000; stroke-width: 1.5"/>
    <path d="M 305.560199 253.842398 
L 305.560199 253.659926 
" clip-path="url(#pad282e4238)" style="fill: none; stroke: #ff0000; stroke-width: 1.5"/>
    <path d="M 308.603835 256.513291 
L 308.603835 256.340004 
" clip-path="url(#pad282e4238)" style="fill: none; stroke: #ff0000; stroke-width: 1.5"/>
    <path d="M 311.647472 259.178205 
L 311.647472 259.02453 
" clip-path="url(#pad282e4238)" style="fill: none; stroke: #ff0000; stroke-width: 1.5"/>
    <path d="M 314.691108 261.839695 
L 314.691108 261.712203 
" clip-path="url(#pad282e4238)" style="fill: none; stroke: #ff0000; stroke-width: 1.5"/>
    <path d="M 317.734744 264.501834 
L 317.734744 264.399867 
" clip-path="url(#pad282e4238)" style="fill: none; stroke: #ff0000; stroke-width: 1.5"/>
    <path d="M 320.778381 267.171292 
L 320.778381 267.080969 
" clip-path="url(#pad282e4238)" style="fill: none; stroke: #ff0000; stroke-width: 1.5"/>
    <path d="M 323.822017 269.853346 
L 323.822017 269.749121 
" clip-path="url(#pad282e4238)" style="fill: none; stroke: #ff0000; stroke-width: 1.5"/>
    <path d="M 326.865653 272.543305 
L 326.865653 272.406465 
" clip-path="url(#pad282e4238)" style="fill: none; stroke: #ff0000; stroke-width: 1.5"/>
    <path d="M 329.90929 275.232674 
L 329.90929 275.057644 
" clip-path="url(#pad282e4238)" style="fill: none; stroke: #ff0000; stroke-width: 1.5"/>
    <path d="M 332.952926 277.914792 
L 332.952926 277.704629 
" clip-path="url(#pad282e4238)" style="fill: none; stroke: #ff0000; stroke-width: 1.5"/>
    <path d="M 335.996563 280.584456 
L 335.996563 280.347809 
" clip-path="url(#pad282e4238)" style="fill: none; stroke: #ff0000; stroke-width: 1.5"/>
    <path d="M 339.040199 283.2377 
L 339.040199 282.987024 
" clip-path="url(#pad282e4238)" style="fill: none; stroke: #ff0000; stroke-width: 1.5"/>
    <path d="M 342.083835 285.872157 
L 342.083835 285.62199 
" clip-path="url(#pad282e4238)" style="fill: none; stroke: #ff0000; stroke-width: 1.5"/>
    <path d="M 345.127472 288.487489 
L 345.127472 288.252448 
" clip-path="url(#pad282e4238)" style="fill: none; stroke: #ff0000; stroke-width: 1.5"/>
    <path d="M 348.171108 291.085593 
L 348.171108 290.878242 
" clip-path="url(#pad282e4238)" style="fill: none; stroke: #ff0000; stroke-width: 1.5"/>
    <path d="M 351.214744 293.670423 
L 351.214744 293.499364 
" clip-path="url(#pad282e4238)" style="fill: none; stroke: #ff0000; stroke-width: 1.5"/>
    <path d="M 354.258381 296.247395 
L 354.258381 296.115947 
" clip-path="url(#pad282e4238)" style="fill: none; stroke: #ff0000; stroke-width: 1.5"/>
    <path d="M 357.302017 298.822449 
L 357.302017 298.728205 
" clip-path="url(#pad282e4238)" style="fill: none; stroke: #ff0000; stroke-width: 1.5"/>
    <path d="M 360.345653 301.400954 
L 360.345653 301.336297 
" clip-path="url(#pad282e4238)" style="fill: none; stroke: #ff0000; stroke-width: 1.5"/>
    <path d="M 363.38929 303.986475 
L 363.38929 303.94041 
" clip-path="url(#pad282e4238)" style="fill: none; stroke: #ff0000; stroke-width: 1.5"/>
    <path d="M 366.432926 306.579304 
L 366.432926 306.541482 
" clip-path="url(#pad282e4238)" style="fill: none; stroke: #ff0000; stroke-width: 1.5"/>
    <path d="M 369.476562 309.176568 
L 369.476562 309.14102 
" clip-path="url(#pad282e4238)" style="fill: none; stroke: #ff0000; stroke-width: 1.5"/>
    <path d="M 372.520199 311.775106 
L 372.520199 311.738864 
" clip-path="url(#pad282e4238)" style="fill: none; stroke: #ff0000; stroke-width: 1.5"/>
    <path d="M 375.563835 314.372574 
L 375.563835 314.333214 
" clip-path="url(#pad282e4238)" style="fill: none; stroke: #ff0000; stroke-width: 1.5"/>
    <path d="M 378.607472 316.966822 
L 378.607472 316.922492 
" clip-path="url(#pad282e4238)" style="fill: none; stroke: #ff0000; stroke-width: 1.5"/>
    <path d="M 381.651108 319.556182 
L 381.651108 319.505985 
" clip-path="url(#pad282e4238)" style="fill: none; stroke: #ff0000; stroke-width: 1.5"/>
    <path d="M 384.694744 322.140217 
L 384.694744 322.083498 
" clip-path="url(#pad282e4238)" style="fill: none; stroke: #ff0000; stroke-width: 1.5"/>
    <path d="M 387.738381 324.72 
L 387.738381 324.65495 
" clip-path="url(#pad282e4238)" style="fill: none; stroke: #ff0000; stroke-width: 1.5"/>
   </g>
   <g id="LineCollection_2">
    <path d="M 83.374744 22.593107 
L 83.374744 22.32 
" clip-path="url(#pad282e4238)" style="fill: none; stroke: #ff0000; stroke-width: 1.5"/>
    <path d="M 86.418381 25.548208 
L 86.418381 25.40919 
" clip-path="url(#pad282e4238)" style="fill: none; stroke: #ff0000; stroke-width: 1.5"/>
    <path d="M 89.462017 28.513183 
L 89.462017 28.450929 
" clip-path="url(#pad282e4238)" style="fill: none; stroke: #ff0000; stroke-width: 1.5"/>
    <path d="M 92.505653 31.522999 
L 92.505653 31.415656 
" clip-path="url(#pad282e4238)" style="fill: none; stroke: #ff0000; stroke-width: 1.5"/>
    <path d="M 95.54929 34.530761 
L 95.54929 34.358648 
" clip-path="url(#pad282e4238)" style="fill: none; stroke: #ff0000; stroke-width: 1.5"/>
    <path d="M 98.592926 37.524701 
L 98.592926 37.299059 
" clip-path="url(#pad282e4238)" style="fill: none; stroke: #ff0000; stroke-width: 1.5"/>
    <path d="M 101.636563 40.506155 
L 101.636563 40.239314 
" clip-path="url(#pad282e4238)" style="fill: none; stroke: #ff0000; stroke-width: 1.5"/>
    <path d="M 104.680199 43.474663 
L 104.680199 43.179287 
" clip-path="url(#pad282e4238)" style="fill: none; stroke: #ff0000; stroke-width: 1.5"/>
    <path d="M 107.723835 46.427662 
L 107.723835 46.117645 
" clip-path="url(#pad282e4238)" style="fill: none; stroke: #ff0000; stroke-width: 1.5"/>
    <path d="M 110.767472 49.362042 
L 110.767472 49.052454 
" clip-path="url(#pad282e4238)" style="fill: none; stroke: #ff0000; stroke-width: 1.5"/>
    <path d="M 113.811108 52.275937 
L 113.811108 51.981762 
" clip-path="url(#pad282e4238)" style="fill: none; stroke: #ff0000; stroke-width: 1.5"/>
    <path d="M 116.854744 55.169954 
L 116.854744 54.904048 
" clip-path="url(#pad282e4238)" style="fill: none; stroke: #ff0000; stroke-width: 1.5"/>
    <path d="M 119.898381 58.047378 
L 119.898381 57.818431 
" clip-path="url(#pad282e4238)" style="fill: none; stroke: #ff0000; stroke-width: 1.5"/>
    <path d="M 122.942017 60.913412 
L 122.942017 60.724575 
" clip-path="url(#pad282e4238)" style="fill: none; stroke: #ff0000; stroke-width: 1.5"/>
    <path d="M 125.985653 63.77388 
L 125.985653 63.622377 
" clip-path="url(#pad282e4238)" style="fill: none; stroke: #ff0000; stroke-width: 1.5"/>
    <path d="M 129.02929 66.63401 
L 129.02929 66.511661 
" clip-path="url(#pad282e4238)" style="fill: none; stroke: #ff0000; stroke-width: 1.5"/>
    <path d="M 132.072926 69.497459 
L 132.072926 69.392365 
" clip-path="url(#pad282e4238)" style="fill: none; stroke: #ff0000; stroke-width: 1.5"/>
    <path d="M 135.116563 72.365406 
L 135.116563 72.265608 
" clip-path="url(#pad282e4238)" style="fill: none; stroke: #ff0000; stroke-width: 1.5"/>
    <path d="M 138.160199 75.236675 
L 138.160199 75.134332 
" clip-path="url(#pad282e4238)" style="fill: none; stroke: #ff0000; stroke-width: 1.5"/>
    <path d="M 141.203835 78.109444 
L 141.203835 78.002306 
" clip-path="url(#pad282e4238)" style="fill: none; stroke: #ff0000; stroke-width: 1.5"/>
    <path d="M 144.247472 80.98247 
L 144.247472 80.87304 
" clip-path="url(#pad282e4238)" style="fill: none; stroke: #ff0000; stroke-width: 1.5"/>
    <path d="M 147.291108 83.855036 
L 147.291108 83.749297 
" clip-path="url(#pad282e4238)" style="fill: none; stroke: #ff0000; stroke-width: 1.5"/>
    <path d="M 150.334744 86.726592 
L 150.334744 86.632563 
" clip-path="url(#pad282e4238)" style="fill: none; stroke: #ff0000; stroke-width: 1.5"/>
    <path d="M 153.378381 89.596575 
L 153.378381 89.522579 
" clip-path="url(#pad282e4238)" style="fill: none; stroke: #ff0000; stroke-width: 1.5"/>
    <path d="M 156.422017 92.464446 
L 156.422017 92.417337 
" clip-path="url(#pad282e4238)" style="fill: none; stroke: #ff0000; stroke-width: 1.5"/>
    <path d="M 159.465653 95.33025 
L 159.465653 95.313281 
" clip-path="url(#pad282e4238)" style="fill: none; stroke: #ff0000; stroke-width: 1.5"/>
    <path d="M 162.50929 98.210806 
L 162.50929 98.190277 
" clip-path="url(#pad282e4238)" style="fill: none; stroke: #ff0000; stroke-width: 1.5"/>
    <path d="M 165.552926 101.101996 
L 165.552926 101.050332 
" clip-path="url(#pad282e4238)" style="fill: none; stroke: #ff0000; stroke-width: 1.5"/>
    <path d="M 168.596563 103.988832 
L 168.596563 103.907972 
" clip-path="url(#pad282e4238)" style="fill: none; stroke: #ff0000; stroke-width: 1.5"/>
    <path d="M 171.640199 106.87082 
L 171.640199 106.764633 
" clip-path="url(#pad282e4238)" style="fill: none; stroke: #ff0000; stroke-width: 1.5"/>
    <path d="M 174.683835 109.748339 
L 174.683835 109.621575 
" clip-path="url(#pad282e4238)" style="fill: none; stroke: #ff0000; stroke-width: 1.5"/>
    <path d="M 177.727472 112.621821 
L 177.727472 112.479918 
" clip-path="url(#pad282e4238)" style="fill: none; stroke: #ff0000; stroke-width: 1.5"/>
    <path d="M 180.771108 115.491386 
L 180.771108 115.34045 
" clip-path="url(#pad282e4238)" style="fill: none; stroke: #ff0000; stroke-width: 1.5"/>
    <path d="M 183.814744 118.356805 
L 183.814744 118.203497 
" clip-path="url(#pad282e4238)" style="fill: none; stroke: #ff0000; stroke-width: 1.5"/>
    <path d="M 186.858381 121.217667 
L 186.858381 121.068921 
" clip-path="url(#pad282e4238)" style="fill: none; stroke: #ff0000; stroke-width: 1.5"/>
    <path d="M 189.902017 124.073645 
L 189.902017 123.936257 
" clip-path="url(#pad282e4238)" style="fill: none; stroke: #ff0000; stroke-width: 1.5"/>
    <path d="M 192.945653 126.924806 
L 192.945653 126.804983 
" clip-path="url(#pad282e4238)" style="fill: none; stroke: #ff0000; stroke-width: 1.5"/>
    <path d="M 195.98929 129.772021 
L 195.98929 129.674829 
" clip-path="url(#pad282e4238)" style="fill: none; stroke: #ff0000; stroke-width: 1.5"/>
    <path d="M 199.032926 132.617659 
L 199.032926 132.545866 
" clip-path="url(#pad282e4238)" style="fill: none; stroke: #ff0000; stroke-width: 1.5"/>
    <path d="M 202.076563 135.467247 
L 202.076563 135.41752 
" clip-path="url(#pad282e4238)" style="fill: none; stroke: #ff0000; stroke-width: 1.5"/>
    <path d="M 205.120199 138.332509 
L 205.120199 138.285815 
" clip-path="url(#pad282e4238)" style="fill: none; stroke: #ff0000; stroke-width: 1.5"/>
    <path d="M 208.163835 141.221387 
L 208.163835 141.153062 
" clip-path="url(#pad282e4238)" style="fill: none; stroke: #ff0000; stroke-width: 1.5"/>
    <path d="M 211.207472 144.132372 
L 211.207472 144.032728 
" clip-path="url(#pad282e4238)" style="fill: none; stroke: #ff0000; stroke-width: 1.5"/>
    <path d="M 214.251108 147.068126 
L 214.251108 146.934862 
" clip-path="url(#pad282e4238)" style="fill: none; stroke: #ff0000; stroke-width: 1.5"/>
    <path d="M 217.294744 150.034227 
L 217.294744 149.866862 
" clip-path="url(#pad282e4238)" style="fill: none; stroke: #ff0000; stroke-width: 1.5"/>
    <path d="M 220.338381 153.037251 
L 220.338381 152.835785 
" clip-path="url(#pad282e4238)" style="fill: none; stroke: #ff0000; stroke-width: 1.5"/>
    <path d="M 223.382017 156.084598 
L 223.382017 155.849831 
" clip-path="url(#pad282e4238)" style="fill: none; stroke: #ff0000; stroke-width: 1.5"/>
    <path d="M 226.425653 159.185013 
L 226.425653 158.919429 
" clip-path="url(#pad282e4238)" style="fill: none; stroke: #ff0000; stroke-width: 1.5"/>
    <path d="M 229.46929 162.349101 
L 229.46929 162.057596 
" clip-path="url(#pad282e4238)" style="fill: none; stroke: #ff0000; stroke-width: 1.5"/>
    <path d="M 232.512926 165.588965 
L 232.512926 165.279219 
" clip-path="url(#pad282e4238)" style="fill: none; stroke: #ff0000; stroke-width: 1.5"/>
    <path d="M 235.556563 168.916409 
L 235.556563 168.599001 
" clip-path="url(#pad282e4238)" style="fill: none; stroke: #ff0000; stroke-width: 1.5"/>
    <path d="M 238.600199 172.339777 
L 238.600199 172.027967 
" clip-path="url(#pad282e4238)" style="fill: none; stroke: #ff0000; stroke-width: 1.5"/>
    <path d="M 241.643835 175.860269 
L 241.643835 175.568832 
" clip-path="url(#pad282e4238)" style="fill: none; stroke: #ff0000; stroke-width: 1.5"/>
    <path d="M 244.687472 179.46917 
L 244.687472 179.211383 
" clip-path="url(#pad282e4238)" style="fill: none; stroke: #ff0000; stroke-width: 1.5"/>
    <path d="M 247.731108 183.147691 
L 247.731108 182.92965 
" clip-path="url(#pad282e4238)" style="fill: none; stroke: #ff0000; stroke-width: 1.5"/>
    <path d="M 250.774744 186.870611 
L 250.774744 186.682521 
" clip-path="url(#pad282e4238)" style="fill: none; stroke: #ff0000; stroke-width: 1.5"/>
    <path d="M 253.818381 190.610717 
L 253.818381 190.42091 
" clip-path="url(#pad282e4238)" style="fill: none; stroke: #ff0000; stroke-width: 1.5"/>
    <path d="M 256.862017 194.335899 
L 256.862017 194.105835 
" clip-path="url(#pad282e4238)" style="fill: none; stroke: #ff0000; stroke-width: 1.5"/>
    <path d="M 259.905653 198.011803 
L 259.905653 197.718426 
" clip-path="url(#pad282e4238)" style="fill: none; stroke: #ff0000; stroke-width: 1.5"/>
    <path d="M 262.94929 201.614134 
L 262.94929 201.252966 
" clip-path="url(#pad282e4238)" style="fill: none; stroke: #ff0000; stroke-width: 1.5"/>
    <path d="M 265.992926 205.130698 
L 265.992926 204.712038 
" clip-path="url(#pad282e4238)" style="fill: none; stroke: #ff0000; stroke-width: 1.5"/>
    <path d="M 269.036563 208.557636 
L 269.036563 208.102454 
" clip-path="url(#pad282e4238)" style="fill: none; stroke: #ff0000; stroke-width: 1.5"/>
    <path d="M 272.080199 211.895966 
L 272.080199 211.430442 
" clip-path="url(#pad282e4238)" style="fill: none; stroke: #ff0000; stroke-width: 1.5"/>
    <path d="M 275.123835 215.149285 
L 275.123835 214.698738 
" clip-path="url(#pad282e4238)" style="fill: none; stroke: #ff0000; stroke-width: 1.5"/>
    <path d="M 278.167472 218.322486 
L 278.167472 217.906794 
" clip-path="url(#pad282e4238)" style="fill: none; stroke: #ff0000; stroke-width: 1.5"/>
    <path d="M 281.211108 221.421275 
L 281.211108 221.053179 
" clip-path="url(#pad282e4238)" style="fill: none; stroke: #ff0000; stroke-width: 1.5"/>
    <path d="M 284.254744 224.452305 
L 284.254744 224.13821 
" clip-path="url(#pad282e4238)" style="fill: none; stroke: #ff0000; stroke-width: 1.5"/>
    <path d="M 287.298381 227.423697 
L 287.298381 227.165168 
" clip-path="url(#pad282e4238)" style="fill: none; stroke: #ff0000; stroke-width: 1.5"/>
    <path d="M 290.342017 230.345498 
L 290.342017 230.139699 
" clip-path="url(#pad282e4238)" style="fill: none; stroke: #ff0000; stroke-width: 1.5"/>
    <path d="M 293.385653 233.229613 
L 293.385653 233.068071 
" clip-path="url(#pad282e4238)" style="fill: none; stroke: #ff0000; stroke-width: 1.5"/>
    <path d="M 296.42929 236.088835 
L 296.42929 235.955575 
" clip-path="url(#pad282e4238)" style="fill: none; stroke: #ff0000; stroke-width: 1.5"/>
    <path d="M 299.472926 238.933711 
L 299.472926 238.807313 
" clip-path="url(#pad282e4238)" style="fill: none; stroke: #ff0000; stroke-width: 1.5"/>
    <path d="M 302.516563 241.7681 
L 302.516563 241.631277 
" clip-path="url(#pad282e4238)" style="fill: none; stroke: #ff0000; stroke-width: 1.5"/>
    <path d="M 305.560199 244.590712 
L 305.560199 244.436678 
" clip-path="url(#pad282e4238)" style="fill: none; stroke: #ff0000; stroke-width: 1.5"/>
    <path d="M 308.603835 247.399784 
L 308.603835 247.230124 
" clip-path="url(#pad282e4238)" style="fill: none; stroke: #ff0000; stroke-width: 1.5"/>
    <path d="M 311.647472 250.194487 
L 311.647472 250.015517 
" clip-path="url(#pad282e4238)" style="fill: none; stroke: #ff0000; stroke-width: 1.5"/>
    <path d="M 314.691108 252.974968 
L 314.691108 252.795113 
" clip-path="url(#pad282e4238)" style="fill: none; stroke: #ff0000; stroke-width: 1.5"/>
    <path d="M 317.734744 255.742287 
L 317.734744 255.570089 
" clip-path="url(#pad282e4238)" style="fill: none; stroke: #ff0000; stroke-width: 1.5"/>
    <path d="M 320.778381 258.498095 
L 320.778381 258.340748 
" clip-path="url(#pad282e4238)" style="fill: none; stroke: #ff0000; stroke-width: 1.5"/>
    <path d="M 323.822017 261.244069 
L 323.822017 261.106591 
" clip-path="url(#pad282e4238)" style="fill: none; stroke: #ff0000; stroke-width: 1.5"/>
    <path d="M 326.865653 263.981391 
L 326.865653 263.866427 
" clip-path="url(#pad282e4238)" style="fill: none; stroke: #ff0000; stroke-width: 1.5"/>
    <path d="M 329.90929 266.71051 
L 329.90929 266.618612 
" clip-path="url(#pad282e4238)" style="fill: none; stroke: #ff0000; stroke-width: 1.5"/>
    <path d="M 332.952926 269.431286 
L 332.952926 269.361451 
" clip-path="url(#pad282e4238)" style="fill: none; stroke: #ff0000; stroke-width: 1.5"/>
    <path d="M 335.996563 272.143522 
L 335.996563 272.093567 
" clip-path="url(#pad282e4238)" style="fill: none; stroke: #ff0000; stroke-width: 1.5"/>
    <path d="M 339.040199 274.847991 
L 339.040199 274.813757 
" clip-path="url(#pad282e4238)" style="fill: none; stroke: #ff0000; stroke-width: 1.5"/>
    <path d="M 342.083835 277.547624 
L 342.083835 277.520235 
" clip-path="url(#pad282e4238)" style="fill: none; stroke: #ff0000; stroke-width: 1.5"/>
    <path d="M 345.127472 280.244579 
L 345.127472 280.213335 
" clip-path="url(#pad282e4238)" style="fill: none; stroke: #ff0000; stroke-width: 1.5"/>
    <path d="M 348.171108 282.936425 
L 348.171108 282.898526 
" clip-path="url(#pad282e4238)" style="fill: none; stroke: #ff0000; stroke-width: 1.5"/>
    <path d="M 351.214744 285.621307 
L 351.214744 285.580272 
" clip-path="url(#pad282e4238)" style="fill: none; stroke: #ff0000; stroke-width: 1.5"/>
    <path d="M 354.258381 288.299 
L 354.258381 288.260299 
" clip-path="url(#pad282e4238)" style="fill: none; stroke: #ff0000; stroke-width: 1.5"/>
    <path d="M 357.302017 290.970322 
L 357.302017 290.938124 
" clip-path="url(#pad282e4238)" style="fill: none; stroke: #ff0000; stroke-width: 1.5"/>
    <path d="M 360.345653 293.638115 
L 360.345653 293.610564 
" clip-path="url(#pad282e4238)" style="fill: none; stroke: #ff0000; stroke-width: 1.5"/>
    <path d="M 363.38929 296.307195 
L 363.38929 296.272504 
" clip-path="url(#pad282e4238)" style="fill: none; stroke: #ff0000; stroke-width: 1.5"/>
    <path d="M 366.432926 298.977256 
L 366.432926 298.924504 
" clip-path="url(#pad282e4238)" style="fill: none; stroke: #ff0000; stroke-width: 1.5"/>
    <path d="M 369.476562 301.645462 
L 369.476562 301.570249 
" clip-path="url(#pad282e4238)" style="fill: none; stroke: #ff0000; stroke-width: 1.5"/>
    <path d="M 372.520199 304.310499 
L 372.520199 304.212126 
" clip-path="url(#pad282e4238)" style="fill: none; stroke: #ff0000; stroke-width: 1.5"/>
    <path d="M 375.563835 306.971656 
L 375.563835 306.851653 
" clip-path="url(#pad282e4238)" style="fill: none; stroke: #ff0000; stroke-width: 1.5"/>
    <path d="M 378.607472 309.628295 
L 378.607472 309.489685 
" clip-path="url(#pad282e4238)" style="fill: none; stroke: #ff0000; stroke-width: 1.5"/>
    <path d="M 381.651108 312.279978 
L 381.651108 312.126306 
" clip-path="url(#pad282e4238)" style="fill: none; stroke: #ff0000; stroke-width: 1.5"/>
    <path d="M 384.694744 314.926897 
L 384.694744 314.760658 
" clip-path="url(#pad282e4238)" style="fill: none; stroke: #ff0000; stroke-width: 1.5"/>
    <path d="M 387.738381 317.570195 
L 387.738381 317.390919 
" clip-path="url(#pad282e4238)" style="fill: none; stroke: #ff0000; stroke-width: 1.5"/>
   </g>
   <g id="line2d_10">
    <path d="M 83.374744 22.58082 
L 86.418381 25.543519 
L 89.462017 28.49441 
L 92.505653 31.436768 
L 95.54929 34.37427 
L 98.592926 37.310545 
L 101.636563 40.248536 
L 104.680199 43.189888 
L 107.723835 46.134576 
L 110.767472 49.08088 
L 113.811108 52.025781 
L 116.854744 54.965662 
L 119.898381 57.897154 
L 122.942017 60.817889 
L 125.985653 63.726968 
L 129.02929 66.625024 
L 132.072926 69.513898 
L 135.116563 72.396049 
L 138.160199 75.273895 
L 141.203835 78.149298 
L 144.247472 81.023319 
L 147.291108 83.896279 
L 150.334744 86.768042 
L 153.378381 89.638398 
L 156.422017 92.507443 
L 159.465653 95.375908 
L 162.50929 98.245447 
L 165.552926 101.118932 
L 168.596563 104.00084 
L 171.640199 106.897909 
L 174.683835 109.820384 
L 177.727472 112.784437 
L 180.771108 115.816518 
L 183.814744 118.960442 
L 186.858381 122.287189 
L 189.902017 125.904635 
L 192.945653 129.957689 
L 195.98929 134.598928 
L 199.032926 139.908035 
L 202.076563 145.776899 
L 205.120199 151.860476 
L 208.163835 157.70153 
L 211.207472 162.959361 
L 214.251108 167.53349 
L 217.294744 171.512102 
L 220.338381 175.055054 
L 223.382017 178.312594 
L 226.425653 181.395992 
L 229.46929 184.37773 
L 232.512926 187.301259 
L 235.556563 190.190998 
L 238.600199 193.059895 
L 241.643835 195.914507 
L 244.687472 198.758171 
L 247.731108 201.592802 
L 250.774744 204.419711 
L 253.818381 207.239794 
L 256.862017 210.053418 
L 259.905653 212.860281 
L 262.94929 215.659425 
L 265.992926 218.44943 
L 269.036563 221.228725 
L 272.080199 223.995922 
L 275.123835 226.75009 
L 278.167472 229.490924 
L 281.211108 232.218819 
L 284.254744 234.934825 
L 287.298381 237.640495 
L 290.342017 240.337657 
L 293.385653 243.028151 
L 296.42929 245.713609 
L 299.472926 248.395327 
L 302.516563 251.074268 
L 305.560199 253.751162 
L 308.603835 256.426648 
L 311.647472 259.101368 
L 314.691108 261.775949 
L 317.734744 264.450851 
L 320.778381 267.126131 
L 323.822017 269.801233 
L 326.865653 272.474885 
L 329.90929 275.145159 
L 332.952926 277.809711 
L 335.996563 280.466132 
L 339.040199 283.112362 
L 342.083835 285.747074 
L 345.127472 288.369968 
L 348.171108 290.981918 
L 351.214744 293.584894 
L 354.258381 296.181671 
L 357.302017 298.775327 
L 360.345653 301.368626 
L 363.38929 303.963443 
L 366.432926 306.560393 
L 369.476562 309.158794 
L 372.520199 311.756985 
L 375.563835 314.352894 
L 378.607472 316.944657 
L 381.651108 319.531083 
L 384.694744 322.111857 
L 387.738381 324.687475 
" clip-path="url(#pad282e4238)" style="fill: none; stroke: #1f77b4; stroke-width: 1.5; stroke-linecap: square"/>
   </g>
   <g id="line2d_11">
    <path d="M 83.374744 22.456554 
L 86.418381 25.478699 
L 89.462017 28.482056 
L 92.505653 31.469328 
L 95.54929 34.444705 
L 98.592926 37.41188 
L 101.636563 40.372735 
L 104.680199 43.326975 
L 107.723835 46.272653 
L 110.767472 49.207248 
L 113.811108 52.12885 
L 116.854744 55.037001 
L 119.898381 57.932905 
L 122.942017 60.818993 
L 125.985653 63.698129 
L 129.02929 66.572835 
L 132.072926 69.444912 
L 135.116563 72.315507 
L 138.160199 75.185504 
L 141.203835 78.055875 
L 144.247472 80.927755 
L 147.291108 83.802166 
L 150.334744 86.679577 
L 153.378381 89.559577 
L 156.422017 92.440892 
L 159.465653 95.321766 
L 162.50929 98.200542 
L 165.552926 101.076164 
L 168.596563 103.948402 
L 171.640199 106.817726 
L 174.683835 109.684957 
L 177.727472 112.550869 
L 180.771108 115.415918 
L 183.814744 118.280151 
L 186.858381 121.143294 
L 189.902017 124.004951 
L 192.945653 126.864895 
L 195.98929 129.723425 
L 199.032926 132.581762 
L 202.076563 135.442383 
L 205.120199 138.309162 
L 208.163835 141.187225 
L 211.207472 144.08255 
L 214.251108 147.001494 
L 217.294744 149.950544 
L 220.338381 152.936518 
L 223.382017 155.967214 
L 226.425653 159.052221 
L 229.46929 162.203349 
L 232.512926 165.434092 
L 235.556563 168.757705 
L 238.600199 172.183872 
L 241.643835 175.71455 
L 244.687472 179.340277 
L 247.731108 183.03867 
L 250.774744 186.776566 
L 253.818381 190.515813 
L 256.862017 194.220867 
L 259.905653 197.865115 
L 262.94929 201.43355 
L 265.992926 204.921368 
L 269.036563 208.330045 
L 272.080199 211.663204 
L 275.123835 214.924011 
L 278.167472 218.11464 
L 281.211108 221.237227 
L 284.254744 224.295257 
L 287.298381 227.294433 
L 290.342017 230.242598 
L 293.385653 233.148842 
L 296.42929 236.022205 
L 299.472926 238.870512 
L 302.516563 241.699689 
L 305.560199 244.513695 
L 308.603835 247.314954 
L 311.647472 250.105002 
L 314.691108 252.88504 
L 317.734744 255.656188 
L 320.778381 258.419422 
L 323.822017 261.17533 
L 326.865653 263.923909 
L 329.90929 266.664561 
L 332.952926 269.396368 
L 335.996563 272.118545 
L 339.040199 274.830874 
L 342.083835 277.53393 
L 345.127472 280.228957 
L 348.171108 282.917476 
L 351.214744 285.600789 
L 354.258381 288.27965 
L 357.302017 290.954223 
L 360.345653 293.624339 
L 363.38929 296.28985 
L 366.432926 298.95088 
L 369.476562 301.607855 
L 372.520199 304.261313 
L 375.563835 306.911654 
L 378.607472 309.55899 
L 381.651108 312.203142 
L 384.694744 314.843778 
L 387.738381 317.480557 
" clip-path="url(#pad282e4238)" style="fill: none; stroke: #ff7f0e; stroke-width: 1.5; stroke-linecap: square"/>
   </g>
   <g id="patch_3">
    <path d="M 68.156563 339.84 
L 68.156563 7.2 
" style="fill: none; stroke: #000000; stroke-width: 0.8; stroke-linejoin: miter; stroke-linecap: square"/>
   </g>
   <g id="patch_4">
    <path d="M 402.956563 339.84 
L 402.956563 7.2 
" style="fill: none; stroke: #000000; stroke-width: 0.8; stroke-linejoin: miter; stroke-linecap: square"/>
   </g>
   <g id="patch_5">
    <path d="M 68.156563 339.84 
L 402.956563 339.84 
" style="fill: none; stroke: #000000; stroke-width: 0.8; stroke-linejoin: miter; stroke-linecap: square"/>
   </g>
   <g id="patch_6">
    <path d="M 68.156563 7.2 
L 402.956563 7.2 
" style="fill: none; stroke: #000000; stroke-width: 0.8; stroke-linejoin: miter; stroke-linecap: square"/>
   </g>
   <g id="legend_1">
    <g id="patch_7">
     <path d="M 304.855313 55.763125 
L 393.856562 55.763125 
Q 396.456563 55.763125 396.456563 53.163125 
L 396.456563 16.3 
Q 396.456563 13.7 393.856562 13.7 
L 304.855313 13.7 
Q 302.255313 13.7 302.255313 16.3 
L 302.255313 53.163125 
Q 302.255313 55.763125 304.855313 55.763125 
z
" style="fill: #ffffff; opacity: 0.8; stroke: #cccccc; stroke-linejoin: miter"/>
    </g>
    <g id="LineCollection_3">
     <path d="M 320.455312 30.727969 
L 320.455312 17.727969 
" style="fill: none; stroke: #ff0000; stroke-width: 1.5"/>
    </g>
    <g id="line2d_12">
     <path d="M 307.455312 24.227969 
L 333.455312 24.227969 
" style="fill: none; stroke: #1f77b4; stroke-width: 1.5; stroke-linecap: square"/>
    </g>
    <g id="line2d_13"/>
    <g id="text_12">
     <!-- notwist -->
     <g transform="translate(343.855312 28.777969) scale(0.13 -0.13)">
      <defs>
       <path id="DejaVuSans-6e" d="M 3513 2113 
L 3513 0 
L 2938 0 
L 2938 2094 
Q 2938 2591 2744 2837 
Q 2550 3084 2163 3084 
Q 1697 3084 1428 2787 
Q 1159 2491 1159 1978 
L 1159 0 
L 581 0 
L 581 3500 
L 1159 3500 
L 1159 2956 
Q 1366 3272 1645 3428 
Q 1925 3584 2291 3584 
Q 2894 3584 3203 3211 
Q 3513 2838 3513 2113 
z
" transform="scale(0.015625)"/>
       <path id="DejaVuSans-6f" d="M 1959 3097 
Q 1497 3097 1228 2736 
Q 959 2375 959 1747 
Q 959 1119 1226 758 
Q 1494 397 1959 397 
Q 2419 397 2687 759 
Q 2956 1122 2956 1747 
Q 2956 2369 2687 2733 
Q 2419 3097 1959 3097 
z
M 1959 3584 
Q 2709 3584 3137 3096 
Q 3566 2609 3566 1747 
Q 3566 888 3137 398 
Q 2709 -91 1959 -91 
Q 1206 -91 779 398 
Q 353 888 353 1747 
Q 353 2609 779 3096 
Q 1206 3584 1959 3584 
z
" transform="scale(0.015625)"/>
       <path id="DejaVuSans-74" d="M 1172 4494 
L 1172 3500 
L 2356 3500 
L 2356 3053 
L 1172 3053 
L 1172 1153 
Q 1172 725 1289 603 
Q 1406 481 1766 481 
L 2356 481 
L 2356 0 
L 1766 0 
Q 1100 0 847 248 
Q 594 497 594 1153 
L 594 3053 
L 172 3053 
L 172 3500 
L 594 3500 
L 594 4494 
L 1172 4494 
z
" transform="scale(0.015625)"/>
       <path id="DejaVuSans-77" d="M 269 3500 
L 844 3500 
L 1563 769 
L 2278 3500 
L 2956 3500 
L 3675 769 
L 4391 3500 
L 4966 3500 
L 4050 0 
L 3372 0 
L 2619 2869 
L 1863 0 
L 1184 0 
L 269 3500 
z
" transform="scale(0.015625)"/>
       <path id="DejaVuSans-69" d="M 603 3500 
L 1178 3500 
L 1178 0 
L 603 0 
L 603 3500 
z
M 603 4863 
L 1178 4863 
L 1178 4134 
L 603 4134 
L 603 4863 
z
" transform="scale(0.015625)"/>
       <path id="DejaVuSans-73" d="M 2834 3397 
L 2834 2853 
Q 2591 2978 2328 3040 
Q 2066 3103 1784 3103 
Q 1356 3103 1142 2972 
Q 928 2841 928 2578 
Q 928 2378 1081 2264 
Q 1234 2150 1697 2047 
L 1894 2003 
Q 2506 1872 2764 1633 
Q 3022 1394 3022 966 
Q 3022 478 2636 193 
Q 2250 -91 1575 -91 
Q 1294 -91 989 -36 
Q 684 19 347 128 
L 347 722 
Q 666 556 975 473 
Q 1284 391 1588 391 
Q 1994 391 2212 530 
Q 2431 669 2431 922 
Q 2431 1156 2273 1281 
Q 2116 1406 1581 1522 
L 1381 1569 
Q 847 1681 609 1914 
Q 372 2147 372 2553 
Q 372 3047 722 3315 
Q 1072 3584 1716 3584 
Q 2034 3584 2315 3537 
Q 2597 3491 2834 3397 
z
" transform="scale(0.015625)"/>
      </defs>
      <use xlink:href="#DejaVuSans-6e"/>
      <use xlink:href="#DejaVuSans-6f" x="63.378906"/>
      <use xlink:href="#DejaVuSans-74" x="124.560547"/>
      <use xlink:href="#DejaVuSans-77" x="163.769531"/>
      <use xlink:href="#DejaVuSans-69" x="245.556641"/>
      <use xlink:href="#DejaVuSans-73" x="273.339844"/>
      <use xlink:href="#DejaVuSans-74" x="325.439453"/>
     </g>
    </g>
    <g id="LineCollection_4">
     <path d="M 320.455312 49.809531 
L 320.455312 36.809531 
" style="fill: none; stroke: #ff0000; stroke-width: 1.5"/>
    </g>
    <g id="line2d_14">
     <path d="M 307.455312 43.309531 
L 333.455312 43.309531 
" style="fill: none; stroke: #ff7f0e; stroke-width: 1.5; stroke-linecap: square"/>
    </g>
    <g id="line2d_15"/>
    <g id="text_13">
     <!-- twist -->
     <g transform="translate(343.855312 47.859531) scale(0.13 -0.13)">
      <use xlink:href="#DejaVuSans-74"/>
      <use xlink:href="#DejaVuSans-77" x="39.208984"/>
      <use xlink:href="#DejaVuSans-69" x="120.996094"/>
      <use xlink:href="#DejaVuSans-73" x="148.779297"/>
      <use xlink:href="#DejaVuSans-74" x="200.878906"/>
     </g>
    </g>
   </g>
  </g>
  <g id="text_14">
   <!-- Twist coefficients $z_0$ and $z_1$. M=5 Jackknife bins -->
   <g transform="translate(57.356563 391.68) scale(0.13 -0.13)">
    <defs>
     <path id="DejaVuSans-Oblique-54" d="M 378 4666 
L 4325 4666 
L 4225 4134 
L 2559 4134 
L 1759 0 
L 1125 0 
L 1925 4134 
L 275 4134 
L 378 4666 
z
" transform="scale(0.015625)"/>
     <path id="DejaVuSans-Oblique-77" d="M 544 3500 
L 1113 3500 
L 1259 684 
L 2566 3500 
L 3231 3500 
L 3425 684 
L 4666 3500 
L 5241 3500 
L 3641 0 
L 2969 0 
L 2797 2900 
L 1459 0 
L 781 0 
L 544 3500 
z
" transform="scale(0.015625)"/>
     <path id="DejaVuSans-Oblique-69" d="M 1172 4863 
L 1747 4863 
L 1606 4134 
L 1031 4134 
L 1172 4863 
z
M 909 3500 
L 1484 3500 
L 800 0 
L 225 0 
L 909 3500 
z
" transform="scale(0.015625)"/>
     <path id="DejaVuSans-Oblique-73" d="M 3200 3397 
L 3091 2853 
Q 2863 2978 2609 3040 
Q 2356 3103 2088 3103 
Q 1634 3103 1373 2948 
Q 1113 2794 1113 2528 
Q 1113 2219 1719 2053 
Q 1766 2041 1788 2034 
L 1972 1978 
Q 2547 1819 2739 1644 
Q 2931 1469 2931 1166 
Q 2931 609 2489 259 
Q 2047 -91 1331 -91 
Q 1053 -91 747 -37 
Q 441 16 72 128 
L 184 722 
Q 500 559 806 475 
Q 1113 391 1394 391 
Q 1816 391 2080 572 
Q 2344 753 2344 1031 
Q 2344 1331 1650 1516 
L 1591 1531 
L 1394 1581 
Q 956 1697 753 1886 
Q 550 2075 550 2369 
Q 550 2928 970 3256 
Q 1391 3584 2113 3584 
Q 2397 3584 2667 3537 
Q 2938 3491 3200 3397 
z
" transform="scale(0.015625)"/>
     <path id="DejaVuSans-Oblique-74" d="M 2706 3500 
L 2619 3053 
L 1472 3053 
L 1100 1153 
Q 1081 1047 1072 975 
Q 1063 903 1063 863 
Q 1063 663 1183 572 
Q 1303 481 1569 481 
L 2150 481 
L 2053 0 
L 1503 0 
Q 991 0 739 200 
Q 488 400 488 806 
Q 488 878 497 964 
Q 506 1050 525 1153 
L 897 3053 
L 409 3053 
L 500 3500 
L 978 3500 
L 1172 4494 
L 1747 4494 
L 1556 3500 
L 2706 3500 
z
" transform="scale(0.015625)"/>
     <path id="DejaVuSans-Oblique-20" transform="scale(0.015625)"/>
     <path id="DejaVuSans-Oblique-63" d="M 3431 3366 
L 3316 2797 
Q 3109 2947 2876 3022 
Q 2644 3097 2394 3097 
Q 2119 3097 1870 3000 
Q 1622 2903 1453 2725 
Q 1184 2453 1037 2087 
Q 891 1722 891 1331 
Q 891 859 1127 628 
Q 1363 397 1844 397 
Q 2081 397 2348 469 
Q 2616 541 2906 684 
L 2797 116 
Q 2547 13 2283 -39 
Q 2019 -91 1741 -91 
Q 1044 -91 669 257 
Q 294 606 294 1253 
Q 294 1797 489 2255 
Q 684 2713 1069 3078 
Q 1331 3328 1684 3456 
Q 2038 3584 2456 3584 
Q 2700 3584 2940 3529 
Q 3181 3475 3431 3366 
z
" transform="scale(0.015625)"/>
     <path id="DejaVuSans-Oblique-6f" d="M 1625 -91 
Q 1009 -91 651 289 
Q 294 669 294 1325 
Q 294 1706 417 2101 
Q 541 2497 738 2766 
Q 1047 3184 1428 3384 
Q 1809 3584 2291 3584 
Q 2888 3584 3255 3212 
Q 3622 2841 3622 2241 
Q 3622 1825 3500 1412 
Q 3378 1000 3181 728 
Q 2875 309 2494 109 
Q 2113 -91 1625 -91 
z
M 891 1344 
Q 891 869 1089 633 
Q 1288 397 1691 397 
Q 2269 397 2648 901 
Q 3028 1406 3028 2181 
Q 3028 2634 2825 2865 
Q 2622 3097 2228 3097 
Q 1903 3097 1650 2945 
Q 1397 2794 1197 2484 
Q 1050 2253 970 1956 
Q 891 1659 891 1344 
z
" transform="scale(0.015625)"/>
     <path id="DejaVuSans-Oblique-65" d="M 3078 2063 
Q 3088 2113 3092 2166 
Q 3097 2219 3097 2272 
Q 3097 2653 2873 2875 
Q 2650 3097 2266 3097 
Q 1838 3097 1509 2826 
Q 1181 2556 1013 2059 
L 3078 2063 
z
M 3578 1613 
L 903 1613 
Q 884 1494 878 1425 
Q 872 1356 872 1306 
Q 872 872 1139 634 
Q 1406 397 1894 397 
Q 2269 397 2603 481 
Q 2938 566 3225 728 
L 3116 159 
Q 2806 34 2476 -28 
Q 2147 -91 1806 -91 
Q 1078 -91 686 257 
Q 294 606 294 1247 
Q 294 1794 489 2264 
Q 684 2734 1063 3103 
Q 1306 3334 1642 3459 
Q 1978 3584 2356 3584 
Q 2950 3584 3301 3228 
Q 3653 2872 3653 2272 
Q 3653 2128 3634 1964 
Q 3616 1800 3578 1613 
z
" transform="scale(0.015625)"/>
     <path id="DejaVuSans-Oblique-66" d="M 3059 4863 
L 2969 4384 
L 2419 4384 
Q 2106 4384 1964 4261 
Q 1822 4138 1753 3809 
L 1691 3500 
L 2638 3500 
L 2553 3053 
L 1606 3053 
L 1013 0 
L 434 0 
L 1031 3053 
L 481 3053 
L 563 3500 
L 1113 3500 
L 1159 3744 
Q 1278 4363 1576 4613 
Q 1875 4863 2516 4863 
L 3059 4863 
z
" transform="scale(0.015625)"/>
     <path id="DejaVuSans-Oblique-6e" d="M 3566 2113 
L 3156 0 
L 2578 0 
L 2988 2091 
Q 3016 2238 3031 2350 
Q 3047 2463 3047 2528 
Q 3047 2791 2881 2937 
Q 2716 3084 2419 3084 
Q 1956 3084 1622 2776 
Q 1288 2469 1184 1941 
L 800 0 
L 225 0 
L 903 3500 
L 1478 3500 
L 1363 2950 
Q 1603 3253 1940 3418 
Q 2278 3584 2650 3584 
Q 3113 3584 3367 3334 
Q 3622 3084 3622 2631 
Q 3622 2519 3608 2391 
Q 3594 2263 3566 2113 
z
" transform="scale(0.015625)"/>
     <path id="DejaVuSans-Oblique-7a" d="M 744 3500 
L 3475 3500 
L 3372 2975 
L 738 459 
L 2913 459 
L 2822 0 
L -19 0 
L 84 525 
L 2719 3041 
L 653 3041 
L 744 3500 
z
" transform="scale(0.015625)"/>
     <path id="DejaVuSans-Oblique-61" d="M 3438 1997 
L 3047 0 
L 2472 0 
L 2578 531 
Q 2325 219 2001 64 
Q 1678 -91 1281 -91 
Q 834 -91 548 182 
Q 263 456 263 884 
Q 263 1497 752 1853 
Q 1241 2209 2100 2209 
L 2900 2209 
L 2931 2363 
Q 2938 2388 2941 2417 
Q 2944 2447 2944 2509 
Q 2944 2788 2717 2942 
Q 2491 3097 2081 3097 
Q 1800 3097 1504 3025 
Q 1209 2953 897 2809 
L 997 3341 
Q 1322 3463 1633 3523 
Q 1944 3584 2234 3584 
Q 2853 3584 3176 3315 
Q 3500 3047 3500 2534 
Q 3500 2431 3484 2292 
Q 3469 2153 3438 1997 
z
M 2816 1759 
L 2241 1759 
Q 1534 1759 1195 1570 
Q 856 1381 856 984 
Q 856 709 1029 553 
Q 1203 397 1509 397 
Q 1978 397 2328 733 
Q 2678 1069 2791 1631 
L 2816 1759 
z
" transform="scale(0.015625)"/>
     <path id="DejaVuSans-Oblique-64" d="M 2675 525 
Q 2444 222 2128 65 
Q 1813 -91 1428 -91 
Q 903 -91 598 267 
Q 294 625 294 1247 
Q 294 1766 478 2236 
Q 663 2706 1013 3078 
Q 1244 3325 1534 3454 
Q 1825 3584 2144 3584 
Q 2481 3584 2739 3421 
Q 2997 3259 3138 2956 
L 3513 4863 
L 4091 4863 
L 3144 0 
L 2566 0 
L 2675 525 
z
M 891 1350 
Q 891 897 1095 644 
Q 1300 391 1663 391 
Q 1931 391 2161 520 
Q 2391 650 2566 903 
Q 2750 1166 2856 1509 
Q 2963 1853 2963 2188 
Q 2963 2622 2758 2865 
Q 2553 3109 2194 3109 
Q 1922 3109 1687 2981 
Q 1453 2853 1288 2613 
Q 1106 2353 998 2009 
Q 891 1666 891 1350 
z
" transform="scale(0.015625)"/>
     <path id="DejaVuSans-Oblique-2e" d="M 525 794 
L 1184 794 
L 1031 0 
L 372 0 
L 525 794 
z
" transform="scale(0.015625)"/>
     <path id="DejaVuSans-Oblique-4d" d="M 1081 4666 
L 2028 4666 
L 2572 1522 
L 4378 4666 
L 5350 4666 
L 4441 0 
L 3828 0 
L 4622 4091 
L 2791 897 
L 2175 897 
L 1581 4103 
L 788 0 
L 172 0 
L 1081 4666 
z
" transform="scale(0.015625)"/>
     <path id="DejaVuSans-Oblique-3d" d="M 678 2906 
L 4684 2906 
L 4684 2381 
L 678 2381 
L 678 2906 
z
M 678 1631 
L 4684 1631 
L 4684 1100 
L 678 1100 
L 678 1631 
z
" transform="scale(0.015625)"/>
     <path id="DejaVuSans-Oblique-35" d="M 3719 4666 
L 3622 4141 
L 1691 4141 
L 1466 2988 
Q 1609 3034 1757 3056 
Q 1906 3078 2059 3078 
Q 2706 3078 3081 2731 
Q 3456 2384 3456 1791 
Q 3456 1375 3264 994 
Q 3072 613 2719 325 
Q 2469 125 2108 17 
Q 1747 -91 1319 -91 
Q 1038 -91 744 -41 
Q 450 9 128 109 
L 244 697 
Q 531 556 820 486 
Q 1109 416 1403 416 
Q 2013 416 2411 781 
Q 2809 1147 2809 1697 
Q 2809 2103 2548 2328 
Q 2288 2553 1819 2553 
Q 1572 2553 1305 2495 
Q 1038 2438 756 2322 
L 1209 4666 
L 3719 4666 
z
" transform="scale(0.015625)"/>
     <path id="DejaVuSans-Oblique-4a" d="M 1069 4666 
L 1703 4666 
L 856 325 
Q 691 -522 298 -901 
Q -94 -1281 -800 -1281 
L -1050 -1281 
L -947 -750 
L -750 -750 
Q -328 -750 -109 -509 
Q 109 -269 225 325 
L 1069 4666 
z
" transform="scale(0.015625)"/>
     <path id="DejaVuSans-Oblique-6b" d="M 1172 4863 
L 1747 4863 
L 1197 2028 
L 3169 3500 
L 3916 3500 
L 1716 1825 
L 3322 0 
L 2625 0 
L 1131 1709 
L 800 0 
L 225 0 
L 1172 4863 
z
" transform="scale(0.015625)"/>
     <path id="DejaVuSans-Oblique-62" d="M 3169 2138 
Q 3169 2591 2961 2847 
Q 2753 3103 2388 3103 
Q 2122 3103 1889 2973 
Q 1656 2844 1484 2597 
Q 1303 2338 1198 1995 
Q 1094 1653 1094 1313 
Q 1094 881 1298 636 
Q 1503 391 1863 391 
Q 2134 391 2365 517 
Q 2597 644 2772 891 
Q 2950 1147 3059 1487 
Q 3169 1828 3169 2138 
z
M 1381 2969 
Q 1594 3256 1914 3420 
Q 2234 3584 2584 3584 
Q 3122 3584 3439 3221 
Q 3756 2859 3756 2241 
Q 3756 1734 3570 1259 
Q 3384 784 3041 416 
Q 2816 172 2522 40 
Q 2228 -91 1906 -91 
Q 1566 -91 1316 65 
Q 1066 222 909 531 
L 806 0 
L 231 0 
L 1178 4863 
L 1753 4863 
L 1381 2969 
z
" transform="scale(0.015625)"/>
    </defs>
    <use xlink:href="#DejaVuSans-Oblique-54" transform="translate(0 0.015625)"/>
    <use xlink:href="#DejaVuSans-Oblique-77" transform="translate(61.083984 0.015625)"/>
    <use xlink:href="#DejaVuSans-Oblique-69" transform="translate(142.871094 0.015625)"/>
    <use xlink:href="#DejaVuSans-Oblique-73" transform="translate(170.654297 0.015625)"/>
    <use xlink:href="#DejaVuSans-Oblique-74" transform="translate(222.753906 0.015625)"/>
    <use xlink:href="#DejaVuSans-Oblique-20" transform="translate(261.962891 0.015625)"/>
    <use xlink:href="#DejaVuSans-Oblique-63" transform="translate(293.75 0.015625)"/>
    <use xlink:href="#DejaVuSans-Oblique-6f" transform="translate(348.730469 0.015625)"/>
    <use xlink:href="#DejaVuSans-Oblique-65" transform="translate(409.912109 0.015625)"/>
    <use xlink:href="#DejaVuSans-Oblique-66" transform="translate(471.435547 0.015625)"/>
    <use xlink:href="#DejaVuSans-Oblique-66" transform="translate(506.640625 0.015625)"/>
    <use xlink:href="#DejaVuSans-Oblique-69" transform="translate(541.845703 0.015625)"/>
    <use xlink:href="#DejaVuSans-Oblique-63" transform="translate(569.628906 0.015625)"/>
    <use xlink:href="#DejaVuSans-Oblique-69" transform="translate(624.609375 0.015625)"/>
    <use xlink:href="#DejaVuSans-Oblique-65" transform="translate(652.392578 0.015625)"/>
    <use xlink:href="#DejaVuSans-Oblique-6e" transform="translate(713.916016 0.015625)"/>
    <use xlink:href="#DejaVuSans-Oblique-74" transform="translate(777.294922 0.015625)"/>
    <use xlink:href="#DejaVuSans-Oblique-73" transform="translate(816.503906 0.015625)"/>
    <use xlink:href="#DejaVuSans-Oblique-20" transform="translate(868.603516 0.015625)"/>
    <use xlink:href="#DejaVuSans-Oblique-7a" transform="translate(900.390625 0.015625)"/>
    <use xlink:href="#DejaVuSans-30" transform="translate(952.880859 -16.390625) scale(0.7)"/>
    <use xlink:href="#DejaVuSans-Oblique-20" transform="translate(1000.151367 0.015625)"/>
    <use xlink:href="#DejaVuSans-Oblique-61" transform="translate(1031.938477 0.015625)"/>
    <use xlink:href="#DejaVuSans-Oblique-6e" transform="translate(1093.217773 0.015625)"/>
    <use xlink:href="#DejaVuSans-Oblique-64" transform="translate(1156.59668 0.015625)"/>
    <use xlink:href="#DejaVuSans-Oblique-20" transform="translate(1220.073242 0.015625)"/>
    <use xlink:href="#DejaVuSans-Oblique-7a" transform="translate(1251.860352 0.015625)"/>
    <use xlink:href="#DejaVuSans-31" transform="translate(1304.350586 -16.390625) scale(0.7)"/>
    <use xlink:href="#DejaVuSans-Oblique-2e" transform="translate(1351.621094 0.015625)"/>
    <use xlink:href="#DejaVuSans-Oblique-20" transform="translate(1383.408203 0.015625)"/>
    <use xlink:href="#DejaVuSans-Oblique-4d" transform="translate(1415.195312 0.015625)"/>
    <use xlink:href="#DejaVuSans-Oblique-3d" transform="translate(1501.474609 0.015625)"/>
    <use xlink:href="#DejaVuSans-Oblique-35" transform="translate(1585.263672 0.015625)"/>
    <use xlink:href="#DejaVuSans-Oblique-20" transform="translate(1648.886719 0.015625)"/>
    <use xlink:href="#DejaVuSans-Oblique-4a" transform="translate(1680.673828 0.015625)"/>
    <use xlink:href="#DejaVuSans-Oblique-61" transform="translate(1710.166016 0.015625)"/>
    <use xlink:href="#DejaVuSans-Oblique-63" transform="translate(1771.445312 0.015625)"/>
    <use xlink:href="#DejaVuSans-Oblique-6b" transform="translate(1826.425781 0.015625)"/>
    <use xlink:href="#DejaVuSans-Oblique-6b" transform="translate(1884.335938 0.015625)"/>
    <use xlink:href="#DejaVuSans-Oblique-6e" transform="translate(1942.246094 0.015625)"/>
    <use xlink:href="#DejaVuSans-Oblique-69" transform="translate(2005.625 0.015625)"/>
    <use xlink:href="#DejaVuSans-Oblique-66" transform="translate(2033.408203 0.015625)"/>
    <use xlink:href="#DejaVuSans-Oblique-65" transform="translate(2068.613281 0.015625)"/>
    <use xlink:href="#DejaVuSans-Oblique-20" transform="translate(2130.136719 0.015625)"/>
    <use xlink:href="#DejaVuSans-Oblique-62" transform="translate(2161.923828 0.015625)"/>
    <use xlink:href="#DejaVuSans-Oblique-69" transform="translate(2225.400391 0.015625)"/>
    <use xlink:href="#DejaVuSans-Oblique-6e" transform="translate(2253.183594 0.015625)"/>
    <use xlink:href="#DejaVuSans-Oblique-73" transform="translate(2316.5625 0.015625)"/>
   </g>
  </g>
 </g>
 <defs>
  <clipPath id="pad282e4238">
   <rect x="68.156563" y="7.2" width="334.8" height="332.64"/>
  </clipPath>
 </defs>
</svg>
