<?xml version="1.0" encoding="utf-8" standalone="no"?>
<!DOCTYPE svg PUBLIC "-//W3C//DTD SVG 1.1//EN"
  "http://www.w3.org/Graphics/SVG/1.1/DTD/svg11.dtd">
<svg xmlns:xlink="http://www.w3.org/1999/xlink" width="458.270938pt" height="337.11pt" viewBox="0 0 458.270938 337.11" xmlns="http://www.w3.org/2000/svg" version="1.1">
 <metadata>
  <rdf:RDF xmlns:dc="http://purl.org/dc/elements/1.1/" xmlns:cc="http://creativecommons.org/ns#" xmlns:rdf="http://www.w3.org/1999/02/22-rdf-syntax-ns#">
   <cc:Work>
    <dc:type rdf:resource="http://purl.org/dc/dcmitype/StillImage"/>
    <dc:date>2024-05-08T12:32:55.988579</dc:date>
    <dc:format>image/svg+xml</dc:format>
    <dc:creator>
     <cc:Agent>
      <dc:title>Matplotlib v3.8.0, https://matplotlib.org/</dc:title>
     </cc:Agent>
    </dc:creator>
   </cc:Work>
  </rdf:RDF>
 </metadata>
 <defs>
  <style type="text/css">*{stroke-linejoin: round; stroke-linecap: butt}</style>
 </defs>
 <g id="figure_1">
  <g id="patch_1">
   <path d="M 0 337.11 
L 458.270938 337.11 
L 458.270938 0 
L 0 0 
z
" style="fill: #ffffff"/>
  </g>
  <g id="axes_1">
   <g id="patch_2">
    <path d="M 60.470938 284.4 
L 451.070938 284.4 
L 451.070938 7.2 
L 60.470938 7.2 
z
" style="fill: #ffffff"/>
   </g>
   <g id="matplotlib.axis_1">
    <g id="xtick_1">
     <g id="line2d_1">
      <defs>
       <path id="mcbc7320816" d="M 0 0 
L 0 3.5 
" style="stroke: #000000; stroke-width: 0.8"/>
      </defs>
      <g>
       <use xlink:href="#mcbc7320816" x="113.734574" y="284.4" style="stroke: #000000; stroke-width: 0.8"/>
      </g>
     </g>
     <g id="text_1">
      <!-- 10.76 -->
      <g transform="translate(97.989105 299.758281) scale(0.11 -0.11)">
       <defs>
        <path id="DejaVuSans-31" d="M 794 531 
L 1825 531 
L 1825 4091 
L 703 3866 
L 703 4441 
L 1819 4666 
L 2450 4666 
L 2450 531 
L 3481 531 
L 3481 0 
L 794 0 
L 794 531 
z
" transform="scale(0.015625)"/>
        <path id="DejaVuSans-30" d="M 2034 4250 
Q 1547 4250 1301 3770 
Q 1056 3291 1056 2328 
Q 1056 1369 1301 889 
Q 1547 409 2034 409 
Q 2525 409 2770 889 
Q 3016 1369 3016 2328 
Q 3016 3291 2770 3770 
Q 2525 4250 2034 4250 
z
M 2034 4750 
Q 2819 4750 3233 4129 
Q 3647 3509 3647 2328 
Q 3647 1150 3233 529 
Q 2819 -91 2034 -91 
Q 1250 -91 836 529 
Q 422 1150 422 2328 
Q 422 3509 836 4129 
Q 1250 4750 2034 4750 
z
" transform="scale(0.015625)"/>
        <path id="DejaVuSans-2e" d="M 684 794 
L 1344 794 
L 1344 0 
L 684 0 
L 684 794 
z
" transform="scale(0.015625)"/>
        <path id="DejaVuSans-37" d="M 525 4666 
L 3525 4666 
L 3525 4397 
L 1831 0 
L 1172 0 
L 2766 4134 
L 525 4134 
L 525 4666 
z
" transform="scale(0.015625)"/>
        <path id="DejaVuSans-36" d="M 2113 2584 
Q 1688 2584 1439 2293 
Q 1191 2003 1191 1497 
Q 1191 994 1439 701 
Q 1688 409 2113 409 
Q 2538 409 2786 701 
Q 3034 994 3034 1497 
Q 3034 2003 2786 2293 
Q 2538 2584 2113 2584 
z
M 3366 4563 
L 3366 3988 
Q 3128 4100 2886 4159 
Q 2644 4219 2406 4219 
Q 1781 4219 1451 3797 
Q 1122 3375 1075 2522 
Q 1259 2794 1537 2939 
Q 1816 3084 2150 3084 
Q 2853 3084 3261 2657 
Q 3669 2231 3669 1497 
Q 3669 778 3244 343 
Q 2819 -91 2113 -91 
Q 1303 -91 875 529 
Q 447 1150 447 2328 
Q 447 3434 972 4092 
Q 1497 4750 2381 4750 
Q 2619 4750 2861 4703 
Q 3103 4656 3366 4563 
z
" transform="scale(0.015625)"/>
       </defs>
       <use xlink:href="#DejaVuSans-31"/>
       <use xlink:href="#DejaVuSans-30" x="63.623047"/>
       <use xlink:href="#DejaVuSans-2e" x="127.246094"/>
       <use xlink:href="#DejaVuSans-37" x="159.033203"/>
       <use xlink:href="#DejaVuSans-36" x="222.65625"/>
      </g>
     </g>
    </g>
    <g id="xtick_2">
     <g id="line2d_2">
      <g>
       <use xlink:href="#mcbc7320816" x="184.752756" y="284.4" style="stroke: #000000; stroke-width: 0.8"/>
      </g>
     </g>
     <g id="text_2">
      <!-- 10.78 -->
      <g transform="translate(169.007287 299.758281) scale(0.11 -0.11)">
       <defs>
        <path id="DejaVuSans-38" d="M 2034 2216 
Q 1584 2216 1326 1975 
Q 1069 1734 1069 1313 
Q 1069 891 1326 650 
Q 1584 409 2034 409 
Q 2484 409 2743 651 
Q 3003 894 3003 1313 
Q 3003 1734 2745 1975 
Q 2488 2216 2034 2216 
z
M 1403 2484 
Q 997 2584 770 2862 
Q 544 3141 544 3541 
Q 544 4100 942 4425 
Q 1341 4750 2034 4750 
Q 2731 4750 3128 4425 
Q 3525 4100 3525 3541 
Q 3525 3141 3298 2862 
Q 3072 2584 2669 2484 
Q 3125 2378 3379 2068 
Q 3634 1759 3634 1313 
Q 3634 634 3220 271 
Q 2806 -91 2034 -91 
Q 1263 -91 848 271 
Q 434 634 434 1313 
Q 434 1759 690 2068 
Q 947 2378 1403 2484 
z
M 1172 3481 
Q 1172 3119 1398 2916 
Q 1625 2713 2034 2713 
Q 2441 2713 2670 2916 
Q 2900 3119 2900 3481 
Q 2900 3844 2670 4047 
Q 2441 4250 2034 4250 
Q 1625 4250 1398 4047 
Q 1172 3844 1172 3481 
z
" transform="scale(0.015625)"/>
       </defs>
       <use xlink:href="#DejaVuSans-31"/>
       <use xlink:href="#DejaVuSans-30" x="63.623047"/>
       <use xlink:href="#DejaVuSans-2e" x="127.246094"/>
       <use xlink:href="#DejaVuSans-37" x="159.033203"/>
       <use xlink:href="#DejaVuSans-38" x="222.65625"/>
      </g>
     </g>
    </g>
    <g id="xtick_3">
     <g id="line2d_3">
      <g>
       <use xlink:href="#mcbc7320816" x="255.770938" y="284.4" style="stroke: #000000; stroke-width: 0.8"/>
      </g>
     </g>
     <g id="text_3">
      <!-- 10.80 -->
      <g transform="translate(240.025469 299.758281) scale(0.11 -0.11)">
       <use xlink:href="#DejaVuSans-31"/>
       <use xlink:href="#DejaVuSans-30" x="63.623047"/>
       <use xlink:href="#DejaVuSans-2e" x="127.246094"/>
       <use xlink:href="#DejaVuSans-38" x="159.033203"/>
       <use xlink:href="#DejaVuSans-30" x="222.65625"/>
      </g>
     </g>
    </g>
    <g id="xtick_4">
     <g id="line2d_4">
      <g>
       <use xlink:href="#mcbc7320816" x="326.789119" y="284.4" style="stroke: #000000; stroke-width: 0.8"/>
      </g>
     </g>
     <g id="text_4">
      <!-- 10.82 -->
      <g transform="translate(311.043651 299.758281) scale(0.11 -0.11)">
       <defs>
        <path id="DejaVuSans-32" d="M 1228 531 
L 3431 531 
L 3431 0 
L 469 0 
L 469 531 
Q 828 903 1448 1529 
Q 2069 2156 2228 2338 
Q 2531 2678 2651 2914 
Q 2772 3150 2772 3378 
Q 2772 3750 2511 3984 
Q 2250 4219 1831 4219 
Q 1534 4219 1204 4116 
Q 875 4013 500 3803 
L 500 4441 
Q 881 4594 1212 4672 
Q 1544 4750 1819 4750 
Q 2544 4750 2975 4387 
Q 3406 4025 3406 3419 
Q 3406 3131 3298 2873 
Q 3191 2616 2906 2266 
Q 2828 2175 2409 1742 
Q 1991 1309 1228 531 
z
" transform="scale(0.015625)"/>
       </defs>
       <use xlink:href="#DejaVuSans-31"/>
       <use xlink:href="#DejaVuSans-30" x="63.623047"/>
       <use xlink:href="#DejaVuSans-2e" x="127.246094"/>
       <use xlink:href="#DejaVuSans-38" x="159.033203"/>
       <use xlink:href="#DejaVuSans-32" x="222.65625"/>
      </g>
     </g>
    </g>
    <g id="xtick_5">
     <g id="line2d_5">
      <g>
       <use xlink:href="#mcbc7320816" x="397.807301" y="284.4" style="stroke: #000000; stroke-width: 0.8"/>
      </g>
     </g>
     <g id="text_5">
      <!-- 10.84 -->
      <g transform="translate(382.061832 299.758281) scale(0.11 -0.11)">
       <defs>
        <path id="DejaVuSans-34" d="M 2419 4116 
L 825 1625 
L 2419 1625 
L 2419 4116 
z
M 2253 4666 
L 3047 4666 
L 3047 1625 
L 3713 1625 
L 3713 1100 
L 3047 1100 
L 3047 0 
L 2419 0 
L 2419 1100 
L 313 1100 
L 313 1709 
L 2253 4666 
z
" transform="scale(0.015625)"/>
       </defs>
       <use xlink:href="#DejaVuSans-31"/>
       <use xlink:href="#DejaVuSans-30" x="63.623047"/>
       <use xlink:href="#DejaVuSans-2e" x="127.246094"/>
       <use xlink:href="#DejaVuSans-38" x="159.033203"/>
       <use xlink:href="#DejaVuSans-34" x="222.65625"/>
      </g>
     </g>
    </g>
    <g id="text_6">
     <!-- $\beta$ -->
     <g transform="translate(252.250937 314.515937) scale(0.11 -0.11)">
      <defs>
       <path id="DejaVuSans-Oblique-3b2" d="M 872 216 
L 572 -1331 
L -6 -1331 
L 928 3478 
Q 1206 4903 2538 4903 
Q 3888 4903 3659 3700 
Q 3503 2844 2894 2531 
Q 3713 2250 3553 1416 
Q 3272 -69 1759 -66 
Q 1097 -63 872 216 
z
M 1019 966 
Q 1259 422 1875 425 
Q 2775 425 2966 1406 
Q 3138 2288 1675 2219 
L 1778 2750 
Q 2909 2731 3106 3750 
Q 3241 4438 2509 4434 
Q 1691 4434 1503 3459 
L 1019 966 
z
" transform="scale(0.015625)"/>
      </defs>
      <use xlink:href="#DejaVuSans-Oblique-3b2" transform="translate(0 0.390625)"/>
     </g>
    </g>
   </g>
   <g id="matplotlib.axis_2">
    <g id="ytick_1">
     <g id="line2d_6">
      <defs>
       <path id="mb26c9434c8" d="M 0 0 
L -3.5 0 
" style="stroke: #000000; stroke-width: 0.8"/>
      </defs>
      <g>
       <use xlink:href="#mb26c9434c8" x="60.470938" y="237.413094" style="stroke: #000000; stroke-width: 0.8"/>
      </g>
     </g>
     <g id="text_7">
      <!-- 0.434 -->
      <g transform="translate(21.98 241.592235) scale(0.11 -0.11)">
       <defs>
        <path id="DejaVuSans-33" d="M 2597 2516 
Q 3050 2419 3304 2112 
Q 3559 1806 3559 1356 
Q 3559 666 3084 287 
Q 2609 -91 1734 -91 
Q 1441 -91 1130 -33 
Q 819 25 488 141 
L 488 750 
Q 750 597 1062 519 
Q 1375 441 1716 441 
Q 2309 441 2620 675 
Q 2931 909 2931 1356 
Q 2931 1769 2642 2001 
Q 2353 2234 1838 2234 
L 1294 2234 
L 1294 2753 
L 1863 2753 
Q 2328 2753 2575 2939 
Q 2822 3125 2822 3475 
Q 2822 3834 2567 4026 
Q 2313 4219 1838 4219 
Q 1578 4219 1281 4162 
Q 984 4106 628 3988 
L 628 4550 
Q 988 4650 1302 4700 
Q 1616 4750 1894 4750 
Q 2613 4750 3031 4423 
Q 3450 4097 3450 3541 
Q 3450 3153 3228 2886 
Q 3006 2619 2597 2516 
z
" transform="scale(0.015625)"/>
       </defs>
       <use xlink:href="#DejaVuSans-30"/>
       <use xlink:href="#DejaVuSans-2e" x="63.623047"/>
       <use xlink:href="#DejaVuSans-34" x="95.410156"/>
       <use xlink:href="#DejaVuSans-33" x="159.033203"/>
       <use xlink:href="#DejaVuSans-34" x="222.65625"/>
      </g>
     </g>
    </g>
    <g id="ytick_2">
     <g id="line2d_7">
      <g>
       <use xlink:href="#mb26c9434c8" x="60.470938" y="179.34452" style="stroke: #000000; stroke-width: 0.8"/>
      </g>
     </g>
     <g id="text_8">
      <!-- 0.436 -->
      <g transform="translate(21.98 183.52366) scale(0.11 -0.11)">
       <use xlink:href="#DejaVuSans-30"/>
       <use xlink:href="#DejaVuSans-2e" x="63.623047"/>
       <use xlink:href="#DejaVuSans-34" x="95.410156"/>
       <use xlink:href="#DejaVuSans-33" x="159.033203"/>
       <use xlink:href="#DejaVuSans-36" x="222.65625"/>
      </g>
     </g>
    </g>
    <g id="ytick_3">
     <g id="line2d_8">
      <g>
       <use xlink:href="#mb26c9434c8" x="60.470938" y="121.275945" style="stroke: #000000; stroke-width: 0.8"/>
      </g>
     </g>
     <g id="text_9">
      <!-- 0.438 -->
      <g transform="translate(21.98 125.455085) scale(0.11 -0.11)">
       <use xlink:href="#DejaVuSans-30"/>
       <use xlink:href="#DejaVuSans-2e" x="63.623047"/>
       <use xlink:href="#DejaVuSans-34" x="95.410156"/>
       <use xlink:href="#DejaVuSans-33" x="159.033203"/>
       <use xlink:href="#DejaVuSans-38" x="222.65625"/>
      </g>
     </g>
    </g>
    <g id="ytick_4">
     <g id="line2d_9">
      <g>
       <use xlink:href="#mb26c9434c8" x="60.470938" y="63.20737" style="stroke: #000000; stroke-width: 0.8"/>
      </g>
     </g>
     <g id="text_10">
      <!-- 0.440 -->
      <g transform="translate(21.98 67.386511) scale(0.11 -0.11)">
       <use xlink:href="#DejaVuSans-30"/>
       <use xlink:href="#DejaVuSans-2e" x="63.623047"/>
       <use xlink:href="#DejaVuSans-34" x="95.410156"/>
       <use xlink:href="#DejaVuSans-34" x="159.033203"/>
       <use xlink:href="#DejaVuSans-30" x="222.65625"/>
      </g>
     </g>
    </g>
    <g id="text_11">
     <!-- $\langle$ S $\rangle / (6\cdot V \cdot\beta)$ -->
     <g transform="translate(15.67 181.825) rotate(-90) scale(0.11 -0.11)">
      <defs>
       <path id="DejaVuSans-27e8" d="M 572 2006 
L 1453 4856 
L 1984 4856 
L 1103 2006 
L 1984 -844 
L 1453 -844 
L 572 2006 
z
" transform="scale(0.015625)"/>
       <path id="DejaVuSans-20" transform="scale(0.015625)"/>
       <path id="DejaVuSans-53" d="M 3425 4513 
L 3425 3897 
Q 3066 4069 2747 4153 
Q 2428 4238 2131 4238 
Q 1616 4238 1336 4038 
Q 1056 3838 1056 3469 
Q 1056 3159 1242 3001 
Q 1428 2844 1947 2747 
L 2328 2669 
Q 3034 2534 3370 2195 
Q 3706 1856 3706 1288 
Q 3706 609 3251 259 
Q 2797 -91 1919 -91 
Q 1588 -91 1214 -16 
Q 841 59 441 206 
L 441 856 
Q 825 641 1194 531 
Q 1563 422 1919 422 
Q 2459 422 2753 634 
Q 3047 847 3047 1241 
Q 3047 1584 2836 1778 
Q 2625 1972 2144 2069 
L 1759 2144 
Q 1053 2284 737 2584 
Q 422 2884 422 3419 
Q 422 4038 858 4394 
Q 1294 4750 2059 4750 
Q 2388 4750 2728 4690 
Q 3069 4631 3425 4513 
z
" transform="scale(0.015625)"/>
       <path id="DejaVuSans-27e9" d="M 1925 2006 
L 1044 -844 
L 513 -844 
L 1394 2006 
L 513 4856 
L 1044 4856 
L 1925 2006 
z
" transform="scale(0.015625)"/>
       <path id="DejaVuSans-2f" d="M 1625 4666 
L 2156 4666 
L 531 -594 
L 0 -594 
L 1625 4666 
z
" transform="scale(0.015625)"/>
       <path id="DejaVuSans-28" d="M 1984 4856 
Q 1566 4138 1362 3434 
Q 1159 2731 1159 2009 
Q 1159 1288 1364 580 
Q 1569 -128 1984 -844 
L 1484 -844 
Q 1016 -109 783 600 
Q 550 1309 550 2009 
Q 550 2706 781 3412 
Q 1013 4119 1484 4856 
L 1984 4856 
z
" transform="scale(0.015625)"/>
       <path id="DejaVuSans-22c5" d="M 684 2619 
L 1344 2619 
L 1344 1825 
L 684 1825 
L 684 2619 
z
" transform="scale(0.015625)"/>
       <path id="DejaVuSans-Oblique-56" d="M 1319 0 
L 500 4666 
L 1119 4666 
L 1797 653 
L 4063 4666 
L 4750 4666 
L 2053 0 
L 1319 0 
z
" transform="scale(0.015625)"/>
       <path id="DejaVuSans-29" d="M 513 4856 
L 1013 4856 
Q 1481 4119 1714 3412 
Q 1947 2706 1947 2009 
Q 1947 1309 1714 600 
Q 1481 -109 1013 -844 
L 513 -844 
Q 928 -128 1133 580 
Q 1338 1288 1338 2009 
Q 1338 2731 1133 3434 
Q 928 4138 513 4856 
z
" transform="scale(0.015625)"/>
      </defs>
      <use xlink:href="#DejaVuSans-27e8" transform="translate(0 0.390625)"/>
      <use xlink:href="#DejaVuSans-20" transform="translate(39.013672 0.390625)"/>
      <use xlink:href="#DejaVuSans-53" transform="translate(70.800781 0.390625)"/>
      <use xlink:href="#DejaVuSans-20" transform="translate(134.277344 0.390625)"/>
      <use xlink:href="#DejaVuSans-27e9" transform="translate(166.064453 0.390625)"/>
      <use xlink:href="#DejaVuSans-2f" transform="translate(205.078125 0.390625)"/>
      <use xlink:href="#DejaVuSans-28" transform="translate(238.769531 0.390625)"/>
      <use xlink:href="#DejaVuSans-36" transform="translate(277.783203 0.390625)"/>
      <use xlink:href="#DejaVuSans-22c5" transform="translate(360.888672 0.390625)"/>
      <use xlink:href="#DejaVuSans-Oblique-56" transform="translate(412.158203 0.390625)"/>
      <use xlink:href="#DejaVuSans-22c5" transform="translate(500.048828 0.390625)"/>
      <use xlink:href="#DejaVuSans-Oblique-3b2" transform="translate(551.318359 0.390625)"/>
      <use xlink:href="#DejaVuSans-29" transform="translate(615.136719 0.390625)"/>
     </g>
    </g>
   </g>
   <g id="LineCollection_1">
    <path d="M 78.225483 19.861296 
L 78.225483 19.825762 
" clip-path="url(#pc98cb0a53b)" style="fill: none; stroke: #ff0000; stroke-width: 1.5"/>
    <path d="M 81.776392 22.319999 
L 81.776392 22.28824 
" clip-path="url(#pc98cb0a53b)" style="fill: none; stroke: #ff0000; stroke-width: 1.5"/>
    <path d="M 85.327301 24.756955 
L 85.327301 24.716647 
" clip-path="url(#pc98cb0a53b)" style="fill: none; stroke: #ff0000; stroke-width: 1.5"/>
    <path d="M 88.87821 27.165899 
L 88.87821 27.127957 
" clip-path="url(#pc98cb0a53b)" style="fill: none; stroke: #ff0000; stroke-width: 1.5"/>
    <path d="M 92.429119 29.582625 
L 92.429119 29.53106 
" clip-path="url(#pc98cb0a53b)" style="fill: none; stroke: #ff0000; stroke-width: 1.5"/>
    <path d="M 95.980028 32.021264 
L 95.980028 31.949833 
" clip-path="url(#pc98cb0a53b)" style="fill: none; stroke: #ff0000; stroke-width: 1.5"/>
    <path d="M 99.530938 34.472181 
L 99.530938 34.401252 
" clip-path="url(#pc98cb0a53b)" style="fill: none; stroke: #ff0000; stroke-width: 1.5"/>
    <path d="M 103.081847 36.931799 
L 103.081847 36.874343 
" clip-path="url(#pc98cb0a53b)" style="fill: none; stroke: #ff0000; stroke-width: 1.5"/>
    <path d="M 106.632756 39.399909 
L 106.632756 39.350884 
" clip-path="url(#pc98cb0a53b)" style="fill: none; stroke: #ff0000; stroke-width: 1.5"/>
    <path d="M 110.183665 41.872147 
L 110.183665 41.818361 
" clip-path="url(#pc98cb0a53b)" style="fill: none; stroke: #ff0000; stroke-width: 1.5"/>
    <path d="M 113.734574 44.332909 
L 113.734574 44.273114 
" clip-path="url(#pc98cb0a53b)" style="fill: none; stroke: #ff0000; stroke-width: 1.5"/>
    <path d="M 117.285483 46.770048 
L 117.285483 46.713403 
" clip-path="url(#pc98cb0a53b)" style="fill: none; stroke: #ff0000; stroke-width: 1.5"/>
    <path d="M 120.836392 49.185172 
L 120.836392 49.137175 
" clip-path="url(#pc98cb0a53b)" style="fill: none; stroke: #ff0000; stroke-width: 1.5"/>
    <path d="M 124.387301 51.584636 
L 124.387301 51.53956 
" clip-path="url(#pc98cb0a53b)" style="fill: none; stroke: #ff0000; stroke-width: 1.5"/>
    <path d="M 127.93821 53.973722 
L 127.93821 53.925996 
" clip-path="url(#pc98cb0a53b)" style="fill: none; stroke: #ff0000; stroke-width: 1.5"/>
    <path d="M 131.489119 56.368168 
L 131.489119 56.320122 
" clip-path="url(#pc98cb0a53b)" style="fill: none; stroke: #ff0000; stroke-width: 1.5"/>
    <path d="M 135.040028 58.785855 
L 135.040028 58.739608 
" clip-path="url(#pc98cb0a53b)" style="fill: none; stroke: #ff0000; stroke-width: 1.5"/>
    <path d="M 138.590938 61.221442 
L 138.590938 61.177082 
" clip-path="url(#pc98cb0a53b)" style="fill: none; stroke: #ff0000; stroke-width: 1.5"/>
    <path d="M 142.141847 63.657456 
L 142.141847 63.61393 
" clip-path="url(#pc98cb0a53b)" style="fill: none; stroke: #ff0000; stroke-width: 1.5"/>
    <path d="M 145.692756 66.083337 
L 145.692756 66.048233 
" clip-path="url(#pc98cb0a53b)" style="fill: none; stroke: #ff0000; stroke-width: 1.5"/>
    <path d="M 149.243665 68.499102 
L 149.243665 68.4827 
" clip-path="url(#pc98cb0a53b)" style="fill: none; stroke: #ff0000; stroke-width: 1.5"/>
    <path d="M 152.794574 70.92032 
L 152.794574 70.889852 
" clip-path="url(#pc98cb0a53b)" style="fill: none; stroke: #ff0000; stroke-width: 1.5"/>
    <path d="M 156.345483 73.32085 
L 156.345483 73.277113 
" clip-path="url(#pc98cb0a53b)" style="fill: none; stroke: #ff0000; stroke-width: 1.5"/>
    <path d="M 159.896392 75.693072 
L 159.896392 75.65072 
" clip-path="url(#pc98cb0a53b)" style="fill: none; stroke: #ff0000; stroke-width: 1.5"/>
    <path d="M 163.447301 78.052493 
L 163.447301 78.010553 
" clip-path="url(#pc98cb0a53b)" style="fill: none; stroke: #ff0000; stroke-width: 1.5"/>
    <path d="M 166.99821 80.413801 
L 166.99821 80.366473 
" clip-path="url(#pc98cb0a53b)" style="fill: none; stroke: #ff0000; stroke-width: 1.5"/>
    <path d="M 170.549119 82.786501 
L 170.549119 82.734229 
" clip-path="url(#pc98cb0a53b)" style="fill: none; stroke: #ff0000; stroke-width: 1.5"/>
    <path d="M 174.100028 85.169746 
L 174.100028 85.117111 
" clip-path="url(#pc98cb0a53b)" style="fill: none; stroke: #ff0000; stroke-width: 1.5"/>
    <path d="M 177.650938 87.556884 
L 177.650938 87.503743 
" clip-path="url(#pc98cb0a53b)" style="fill: none; stroke: #ff0000; stroke-width: 1.5"/>
    <path d="M 181.201847 89.947814 
L 181.201847 89.89045 
" clip-path="url(#pc98cb0a53b)" style="fill: none; stroke: #ff0000; stroke-width: 1.5"/>
    <path d="M 184.752756 92.344484 
L 184.752756 92.284437 
" clip-path="url(#pc98cb0a53b)" style="fill: none; stroke: #ff0000; stroke-width: 1.5"/>
    <path d="M 188.303665 94.738288 
L 188.303665 94.683797 
" clip-path="url(#pc98cb0a53b)" style="fill: none; stroke: #ff0000; stroke-width: 1.5"/>
    <path d="M 191.854574 97.113329 
L 191.854574 97.074877 
" clip-path="url(#pc98cb0a53b)" style="fill: none; stroke: #ff0000; stroke-width: 1.5"/>
    <path d="M 195.405483 99.474038 
L 195.405483 99.427923 
" clip-path="url(#pc98cb0a53b)" style="fill: none; stroke: #ff0000; stroke-width: 1.5"/>
    <path d="M 198.956392 101.838473 
L 198.956392 101.700305 
" clip-path="url(#pc98cb0a53b)" style="fill: none; stroke: #ff0000; stroke-width: 1.5"/>
    <path d="M 202.507301 104.263115 
L 202.507301 103.856467 
" clip-path="url(#pc98cb0a53b)" style="fill: none; stroke: #ff0000; stroke-width: 1.5"/>
    <path d="M 206.05821 107.994338 
L 206.05821 106.001388 
" clip-path="url(#pc98cb0a53b)" style="fill: none; stroke: #ff0000; stroke-width: 1.5"/>
    <path d="M 209.609119 121.838247 
L 209.609119 111.588126 
" clip-path="url(#pc98cb0a53b)" style="fill: none; stroke: #ff0000; stroke-width: 1.5"/>
    <path d="M 213.160028 130.133029 
L 213.160028 126.989286 
" clip-path="url(#pc98cb0a53b)" style="fill: none; stroke: #ff0000; stroke-width: 1.5"/>
    <path d="M 216.710938 132.516191 
L 216.710938 132.361299 
" clip-path="url(#pc98cb0a53b)" style="fill: none; stroke: #ff0000; stroke-width: 1.5"/>
    <path d="M 220.261847 135.148255 
L 220.261847 135.06269 
" clip-path="url(#pc98cb0a53b)" style="fill: none; stroke: #ff0000; stroke-width: 1.5"/>
    <path d="M 223.812756 137.744399 
L 223.812756 137.648618 
" clip-path="url(#pc98cb0a53b)" style="fill: none; stroke: #ff0000; stroke-width: 1.5"/>
    <path d="M 227.363665 140.304981 
L 227.363665 140.216822 
" clip-path="url(#pc98cb0a53b)" style="fill: none; stroke: #ff0000; stroke-width: 1.5"/>
    <path d="M 230.914574 142.82876 
L 230.914574 142.746152 
" clip-path="url(#pc98cb0a53b)" style="fill: none; stroke: #ff0000; stroke-width: 1.5"/>
    <path d="M 234.465483 145.327095 
L 234.465483 145.22532 
" clip-path="url(#pc98cb0a53b)" style="fill: none; stroke: #ff0000; stroke-width: 1.5"/>
    <path d="M 238.016392 147.798832 
L 238.016392 147.682753 
" clip-path="url(#pc98cb0a53b)" style="fill: none; stroke: #ff0000; stroke-width: 1.5"/>
    <path d="M 241.567301 150.248287 
L 241.567301 150.13774 
" clip-path="url(#pc98cb0a53b)" style="fill: none; stroke: #ff0000; stroke-width: 1.5"/>
    <path d="M 245.11821 152.680101 
L 245.11821 152.584676 
" clip-path="url(#pc98cb0a53b)" style="fill: none; stroke: #ff0000; stroke-width: 1.5"/>
    <path d="M 248.669119 155.094127 
L 248.669119 155.009198 
" clip-path="url(#pc98cb0a53b)" style="fill: none; stroke: #ff0000; stroke-width: 1.5"/>
    <path d="M 252.220028 157.494719 
L 252.220028 157.407046 
" clip-path="url(#pc98cb0a53b)" style="fill: none; stroke: #ff0000; stroke-width: 1.5"/>
    <path d="M 255.770938 159.885769 
L 255.770938 159.786284 
" clip-path="url(#pc98cb0a53b)" style="fill: none; stroke: #ff0000; stroke-width: 1.5"/>
    <path d="M 259.321847 162.253481 
L 259.321847 162.152967 
" clip-path="url(#pc98cb0a53b)" style="fill: none; stroke: #ff0000; stroke-width: 1.5"/>
    <path d="M 262.872756 164.580686 
L 262.872756 164.500763 
" clip-path="url(#pc98cb0a53b)" style="fill: none; stroke: #ff0000; stroke-width: 1.5"/>
    <path d="M 266.423665 166.873973 
L 266.423665 166.826489 
" clip-path="url(#pc98cb0a53b)" style="fill: none; stroke: #ff0000; stroke-width: 1.5"/>
    <path d="M 269.974574 169.166893 
L 269.974574 169.137411 
" clip-path="url(#pc98cb0a53b)" style="fill: none; stroke: #ff0000; stroke-width: 1.5"/>
    <path d="M 273.525483 171.487973 
L 273.525483 171.447173 
" clip-path="url(#pc98cb0a53b)" style="fill: none; stroke: #ff0000; stroke-width: 1.5"/>
    <path d="M 277.076392 173.831845 
L 277.076392 173.774122 
" clip-path="url(#pc98cb0a53b)" style="fill: none; stroke: #ff0000; stroke-width: 1.5"/>
    <path d="M 280.627301 176.183925 
L 280.627301 176.119355 
" clip-path="url(#pc98cb0a53b)" style="fill: none; stroke: #ff0000; stroke-width: 1.5"/>
    <path d="M 284.17821 178.531999 
L 284.17821 178.475556 
" clip-path="url(#pc98cb0a53b)" style="fill: none; stroke: #ff0000; stroke-width: 1.5"/>
    <path d="M 287.729119 180.872598 
L 287.729119 180.830553 
" clip-path="url(#pc98cb0a53b)" style="fill: none; stroke: #ff0000; stroke-width: 1.5"/>
    <path d="M 291.280028 183.205678 
L 291.280028 183.167271 
" clip-path="url(#pc98cb0a53b)" style="fill: none; stroke: #ff0000; stroke-width: 1.5"/>
    <path d="M 294.830938 185.524212 
L 294.830938 185.47673 
" clip-path="url(#pc98cb0a53b)" style="fill: none; stroke: #ff0000; stroke-width: 1.5"/>
    <path d="M 298.381847 187.819737 
L 298.381847 187.764181 
" clip-path="url(#pc98cb0a53b)" style="fill: none; stroke: #ff0000; stroke-width: 1.5"/>
    <path d="M 301.932756 190.094327 
L 301.932756 190.036165 
" clip-path="url(#pc98cb0a53b)" style="fill: none; stroke: #ff0000; stroke-width: 1.5"/>
    <path d="M 305.483665 192.352797 
L 305.483665 192.298541 
" clip-path="url(#pc98cb0a53b)" style="fill: none; stroke: #ff0000; stroke-width: 1.5"/>
    <path d="M 309.034574 194.601169 
L 309.034574 194.558424 
" clip-path="url(#pc98cb0a53b)" style="fill: none; stroke: #ff0000; stroke-width: 1.5"/>
    <path d="M 312.585483 196.854089 
L 312.585483 196.819696 
" clip-path="url(#pc98cb0a53b)" style="fill: none; stroke: #ff0000; stroke-width: 1.5"/>
    <path d="M 316.136392 199.121346 
L 316.136392 199.084484 
" clip-path="url(#pc98cb0a53b)" style="fill: none; stroke: #ff0000; stroke-width: 1.5"/>
    <path d="M 319.687301 201.396082 
L 319.687301 201.354316 
" clip-path="url(#pc98cb0a53b)" style="fill: none; stroke: #ff0000; stroke-width: 1.5"/>
    <path d="M 323.23821 203.669735 
L 323.23821 203.623176 
" clip-path="url(#pc98cb0a53b)" style="fill: none; stroke: #ff0000; stroke-width: 1.5"/>
    <path d="M 326.789119 205.936894 
L 326.789119 205.88725 
" clip-path="url(#pc98cb0a53b)" style="fill: none; stroke: #ff0000; stroke-width: 1.5"/>
    <path d="M 330.340028 208.196496 
L 330.340028 208.151085 
" clip-path="url(#pc98cb0a53b)" style="fill: none; stroke: #ff0000; stroke-width: 1.5"/>
    <path d="M 333.890938 210.453511 
L 333.890938 210.418904 
" clip-path="url(#pc98cb0a53b)" style="fill: none; stroke: #ff0000; stroke-width: 1.5"/>
    <path d="M 337.441847 212.722393 
L 337.441847 212.674987 
" clip-path="url(#pc98cb0a53b)" style="fill: none; stroke: #ff0000; stroke-width: 1.5"/>
    <path d="M 340.992756 214.992537 
L 340.992756 214.91054 
" clip-path="url(#pc98cb0a53b)" style="fill: none; stroke: #ff0000; stroke-width: 1.5"/>
    <path d="M 344.543665 217.235818 
L 344.543665 217.127832 
" clip-path="url(#pc98cb0a53b)" style="fill: none; stroke: #ff0000; stroke-width: 1.5"/>
    <path d="M 348.094574 219.441492 
L 348.094574 219.331818 
" clip-path="url(#pc98cb0a53b)" style="fill: none; stroke: #ff0000; stroke-width: 1.5"/>
    <path d="M 351.645483 221.624038 
L 351.645483 221.537887 
" clip-path="url(#pc98cb0a53b)" style="fill: none; stroke: #ff0000; stroke-width: 1.5"/>
    <path d="M 355.196392 223.815983 
L 355.196392 223.759686 
" clip-path="url(#pc98cb0a53b)" style="fill: none; stroke: #ff0000; stroke-width: 1.5"/>
    <path d="M 358.747301 226.042285 
L 358.747301 225.99869 
" clip-path="url(#pc98cb0a53b)" style="fill: none; stroke: #ff0000; stroke-width: 1.5"/>
    <path d="M 362.29821 228.294685 
L 362.29821 228.253184 
" clip-path="url(#pc98cb0a53b)" style="fill: none; stroke: #ff0000; stroke-width: 1.5"/>
    <path d="M 365.849119 230.5497 
L 365.849119 230.510058 
" clip-path="url(#pc98cb0a53b)" style="fill: none; stroke: #ff0000; stroke-width: 1.5"/>
    <path d="M 369.400028 232.789339 
L 369.400028 232.747021 
" clip-path="url(#pc98cb0a53b)" style="fill: none; stroke: #ff0000; stroke-width: 1.5"/>
    <path d="M 372.950938 235.002674 
L 372.950938 234.953253 
" clip-path="url(#pc98cb0a53b)" style="fill: none; stroke: #ff0000; stroke-width: 1.5"/>
    <path d="M 376.501847 237.18402 
L 376.501847 237.134828 
" clip-path="url(#pc98cb0a53b)" style="fill: none; stroke: #ff0000; stroke-width: 1.5"/>
    <path d="M 380.052756 239.338001 
L 380.052756 239.299401 
" clip-path="url(#pc98cb0a53b)" style="fill: none; stroke: #ff0000; stroke-width: 1.5"/>
    <path d="M 383.603665 241.483257 
L 383.603665 241.451104 
" clip-path="url(#pc98cb0a53b)" style="fill: none; stroke: #ff0000; stroke-width: 1.5"/>
    <path d="M 387.154574 243.634663 
L 387.154574 243.602467 
" clip-path="url(#pc98cb0a53b)" style="fill: none; stroke: #ff0000; stroke-width: 1.5"/>
    <path d="M 390.705483 245.790194 
L 390.705483 245.766234 
" clip-path="url(#pc98cb0a53b)" style="fill: none; stroke: #ff0000; stroke-width: 1.5"/>
    <path d="M 394.256392 247.953461 
L 394.256392 247.932291 
" clip-path="url(#pc98cb0a53b)" style="fill: none; stroke: #ff0000; stroke-width: 1.5"/>
    <path d="M 397.807301 250.136088 
L 397.807301 250.092263 
" clip-path="url(#pc98cb0a53b)" style="fill: none; stroke: #ff0000; stroke-width: 1.5"/>
    <path d="M 401.35821 252.333826 
L 401.35821 252.270459 
" clip-path="url(#pc98cb0a53b)" style="fill: none; stroke: #ff0000; stroke-width: 1.5"/>
    <path d="M 404.909119 254.543236 
L 404.909119 254.481224 
" clip-path="url(#pc98cb0a53b)" style="fill: none; stroke: #ff0000; stroke-width: 1.5"/>
    <path d="M 408.460028 256.753987 
L 408.460028 256.712965 
" clip-path="url(#pc98cb0a53b)" style="fill: none; stroke: #ff0000; stroke-width: 1.5"/>
    <path d="M 412.010938 258.953099 
L 412.010938 258.930943 
" clip-path="url(#pc98cb0a53b)" style="fill: none; stroke: #ff0000; stroke-width: 1.5"/>
    <path d="M 415.561847 261.134573 
L 415.561847 261.102048 
" clip-path="url(#pc98cb0a53b)" style="fill: none; stroke: #ff0000; stroke-width: 1.5"/>
    <path d="M 419.112756 263.283121 
L 419.112756 263.239312 
" clip-path="url(#pc98cb0a53b)" style="fill: none; stroke: #ff0000; stroke-width: 1.5"/>
    <path d="M 422.663665 265.40684 
L 422.663665 265.365257 
" clip-path="url(#pc98cb0a53b)" style="fill: none; stroke: #ff0000; stroke-width: 1.5"/>
    <path d="M 426.214574 267.527741 
L 426.214574 267.495095 
" clip-path="url(#pc98cb0a53b)" style="fill: none; stroke: #ff0000; stroke-width: 1.5"/>
    <path d="M 429.765483 269.659704 
L 429.765483 269.633049 
" clip-path="url(#pc98cb0a53b)" style="fill: none; stroke: #ff0000; stroke-width: 1.5"/>
    <path d="M 433.316392 271.8 
L 433.316392 271.771558 
" clip-path="url(#pc98cb0a53b)" style="fill: none; stroke: #ff0000; stroke-width: 1.5"/>
   </g>
   <g id="LineCollection_2">
    <path d="M 78.225483 19.818933 
L 78.225483 19.8 
" clip-path="url(#pc98cb0a53b)" style="fill: none; stroke: #ff0000; stroke-width: 1.5"/>
    <path d="M 81.776392 22.288115 
L 81.776392 22.262129 
" clip-path="url(#pc98cb0a53b)" style="fill: none; stroke: #ff0000; stroke-width: 1.5"/>
    <path d="M 85.327301 24.735061 
L 85.327301 24.706137 
" clip-path="url(#pc98cb0a53b)" style="fill: none; stroke: #ff0000; stroke-width: 1.5"/>
    <path d="M 88.87821 27.16516 
L 88.87821 27.127022 
" clip-path="url(#pc98cb0a53b)" style="fill: none; stroke: #ff0000; stroke-width: 1.5"/>
    <path d="M 92.429119 29.591899 
L 92.429119 29.543395 
" clip-path="url(#pc98cb0a53b)" style="fill: none; stroke: #ff0000; stroke-width: 1.5"/>
    <path d="M 95.980028 32.027903 
L 95.980028 31.96618 
" clip-path="url(#pc98cb0a53b)" style="fill: none; stroke: #ff0000; stroke-width: 1.5"/>
    <path d="M 99.530938 34.478608 
L 99.530938 34.399798 
" clip-path="url(#pc98cb0a53b)" style="fill: none; stroke: #ff0000; stroke-width: 1.5"/>
    <path d="M 103.081847 36.939901 
L 103.081847 36.860589 
" clip-path="url(#pc98cb0a53b)" style="fill: none; stroke: #ff0000; stroke-width: 1.5"/>
    <path d="M 106.632756 39.406351 
L 106.632756 39.353595 
" clip-path="url(#pc98cb0a53b)" style="fill: none; stroke: #ff0000; stroke-width: 1.5"/>
    <path d="M 110.183665 41.872973 
L 110.183665 41.850311 
" clip-path="url(#pc98cb0a53b)" style="fill: none; stroke: #ff0000; stroke-width: 1.5"/>
    <path d="M 113.734574 44.343319 
L 113.734574 44.306788 
" clip-path="url(#pc98cb0a53b)" style="fill: none; stroke: #ff0000; stroke-width: 1.5"/>
    <path d="M 117.285483 46.789312 
L 117.285483 46.737289 
" clip-path="url(#pc98cb0a53b)" style="fill: none; stroke: #ff0000; stroke-width: 1.5"/>
    <path d="M 120.836392 49.207071 
L 120.836392 49.153595 
" clip-path="url(#pc98cb0a53b)" style="fill: none; stroke: #ff0000; stroke-width: 1.5"/>
    <path d="M 124.387301 51.606215 
L 124.387301 51.561488 
" clip-path="url(#pc98cb0a53b)" style="fill: none; stroke: #ff0000; stroke-width: 1.5"/>
    <path d="M 127.93821 54.005312 
L 127.93821 53.961359 
" clip-path="url(#pc98cb0a53b)" style="fill: none; stroke: #ff0000; stroke-width: 1.5"/>
    <path d="M 131.489119 56.411928 
L 131.489119 56.357579 
" clip-path="url(#pc98cb0a53b)" style="fill: none; stroke: #ff0000; stroke-width: 1.5"/>
    <path d="M 135.040028 58.815706 
L 135.040028 58.754668 
" clip-path="url(#pc98cb0a53b)" style="fill: none; stroke: #ff0000; stroke-width: 1.5"/>
    <path d="M 138.590938 61.215356 
L 138.590938 61.151114 
" clip-path="url(#pc98cb0a53b)" style="fill: none; stroke: #ff0000; stroke-width: 1.5"/>
    <path d="M 142.141847 63.627282 
L 142.141847 63.554818 
" clip-path="url(#pc98cb0a53b)" style="fill: none; stroke: #ff0000; stroke-width: 1.5"/>
    <path d="M 145.692756 66.061777 
L 145.692756 65.977701 
" clip-path="url(#pc98cb0a53b)" style="fill: none; stroke: #ff0000; stroke-width: 1.5"/>
    <path d="M 149.243665 68.506447 
L 149.243665 68.411363 
" clip-path="url(#pc98cb0a53b)" style="fill: none; stroke: #ff0000; stroke-width: 1.5"/>
    <path d="M 152.794574 70.934133 
L 152.794574 70.838055 
" clip-path="url(#pc98cb0a53b)" style="fill: none; stroke: #ff0000; stroke-width: 1.5"/>
    <path d="M 156.345483 73.32893 
L 156.345483 73.251068 
" clip-path="url(#pc98cb0a53b)" style="fill: none; stroke: #ff0000; stroke-width: 1.5"/>
    <path d="M 159.896392 75.698999 
L 159.896392 75.651317 
" clip-path="url(#pc98cb0a53b)" style="fill: none; stroke: #ff0000; stroke-width: 1.5"/>
    <path d="M 163.447301 78.059425 
L 163.447301 78.039477 
" clip-path="url(#pc98cb0a53b)" style="fill: none; stroke: #ff0000; stroke-width: 1.5"/>
    <path d="M 166.99821 80.42409 
L 166.99821 80.405074 
" clip-path="url(#pc98cb0a53b)" style="fill: none; stroke: #ff0000; stroke-width: 1.5"/>
    <path d="M 170.549119 82.789331 
L 170.549119 82.75279 
" clip-path="url(#pc98cb0a53b)" style="fill: none; stroke: #ff0000; stroke-width: 1.5"/>
    <path d="M 174.100028 85.150284 
L 174.100028 85.103525 
" clip-path="url(#pc98cb0a53b)" style="fill: none; stroke: #ff0000; stroke-width: 1.5"/>
    <path d="M 177.650938 87.518273 
L 177.650938 87.471886 
" clip-path="url(#pc98cb0a53b)" style="fill: none; stroke: #ff0000; stroke-width: 1.5"/>
    <path d="M 181.201847 89.903016 
L 181.201847 89.861836 
" clip-path="url(#pc98cb0a53b)" style="fill: none; stroke: #ff0000; stroke-width: 1.5"/>
    <path d="M 184.752756 92.301093 
L 184.752756 92.263672 
" clip-path="url(#pc98cb0a53b)" style="fill: none; stroke: #ff0000; stroke-width: 1.5"/>
    <path d="M 188.303665 94.697795 
L 188.303665 94.661863 
" clip-path="url(#pc98cb0a53b)" style="fill: none; stroke: #ff0000; stroke-width: 1.5"/>
    <path d="M 191.854574 97.083544 
L 191.854574 97.046078 
" clip-path="url(#pc98cb0a53b)" style="fill: none; stroke: #ff0000; stroke-width: 1.5"/>
    <path d="M 195.405483 99.45501 
L 195.405483 99.41967 
" clip-path="url(#pc98cb0a53b)" style="fill: none; stroke: #ff0000; stroke-width: 1.5"/>
    <path d="M 198.956392 101.813049 
L 198.956392 101.78177 
" clip-path="url(#pc98cb0a53b)" style="fill: none; stroke: #ff0000; stroke-width: 1.5"/>
    <path d="M 202.507301 104.162886 
L 202.507301 104.123968 
" clip-path="url(#pc98cb0a53b)" style="fill: none; stroke: #ff0000; stroke-width: 1.5"/>
    <path d="M 206.05821 106.510988 
L 206.05821 106.457665 
" clip-path="url(#pc98cb0a53b)" style="fill: none; stroke: #ff0000; stroke-width: 1.5"/>
    <path d="M 209.609119 108.898342 
L 209.609119 108.794648 
" clip-path="url(#pc98cb0a53b)" style="fill: none; stroke: #ff0000; stroke-width: 1.5"/>
    <path d="M 213.160028 111.438167 
L 213.160028 111.128041 
" clip-path="url(#pc98cb0a53b)" style="fill: none; stroke: #ff0000; stroke-width: 1.5"/>
    <path d="M 216.710938 114.310486 
L 216.710938 113.448523 
" clip-path="url(#pc98cb0a53b)" style="fill: none; stroke: #ff0000; stroke-width: 1.5"/>
    <path d="M 220.261847 117.543101 
L 220.261847 115.755807 
" clip-path="url(#pc98cb0a53b)" style="fill: none; stroke: #ff0000; stroke-width: 1.5"/>
    <path d="M 223.812756 120.666875 
L 223.812756 118.065753 
" clip-path="url(#pc98cb0a53b)" style="fill: none; stroke: #ff0000; stroke-width: 1.5"/>
    <path d="M 227.363665 123.122102 
L 227.363665 120.400907 
" clip-path="url(#pc98cb0a53b)" style="fill: none; stroke: #ff0000; stroke-width: 1.5"/>
    <path d="M 230.914574 124.944396 
L 230.914574 122.771925 
" clip-path="url(#pc98cb0a53b)" style="fill: none; stroke: #ff0000; stroke-width: 1.5"/>
    <path d="M 234.465483 126.587666 
L 234.465483 125.186355 
" clip-path="url(#pc98cb0a53b)" style="fill: none; stroke: #ff0000; stroke-width: 1.5"/>
    <path d="M 238.016392 128.737206 
L 238.016392 127.849018 
" clip-path="url(#pc98cb0a53b)" style="fill: none; stroke: #ff0000; stroke-width: 1.5"/>
    <path d="M 241.567301 133.492914 
L 241.567301 132.294826 
" clip-path="url(#pc98cb0a53b)" style="fill: none; stroke: #ff0000; stroke-width: 1.5"/>
    <path d="M 245.11821 142.114897 
L 245.11821 140.905999 
" clip-path="url(#pc98cb0a53b)" style="fill: none; stroke: #ff0000; stroke-width: 1.5"/>
    <path d="M 248.669119 147.387485 
L 248.669119 147.11427 
" clip-path="url(#pc98cb0a53b)" style="fill: none; stroke: #ff0000; stroke-width: 1.5"/>
    <path d="M 252.220028 150.299672 
L 252.220028 150.266876 
" clip-path="url(#pc98cb0a53b)" style="fill: none; stroke: #ff0000; stroke-width: 1.5"/>
    <path d="M 255.770938 152.92457 
L 255.770938 152.859623 
" clip-path="url(#pc98cb0a53b)" style="fill: none; stroke: #ff0000; stroke-width: 1.5"/>
    <path d="M 259.321847 155.510752 
L 259.321847 155.427467 
" clip-path="url(#pc98cb0a53b)" style="fill: none; stroke: #ff0000; stroke-width: 1.5"/>
    <path d="M 262.872756 158.071136 
L 262.872756 157.978411 
" clip-path="url(#pc98cb0a53b)" style="fill: none; stroke: #ff0000; stroke-width: 1.5"/>
    <path d="M 266.423665 160.596792 
L 266.423665 160.500893 
" clip-path="url(#pc98cb0a53b)" style="fill: none; stroke: #ff0000; stroke-width: 1.5"/>
    <path d="M 269.974574 163.088216 
L 269.974574 162.999215 
" clip-path="url(#pc98cb0a53b)" style="fill: none; stroke: #ff0000; stroke-width: 1.5"/>
    <path d="M 273.525483 165.556568 
L 273.525483 165.478285 
" clip-path="url(#pc98cb0a53b)" style="fill: none; stroke: #ff0000; stroke-width: 1.5"/>
    <path d="M 277.076392 168.010119 
L 277.076392 167.946932 
" clip-path="url(#pc98cb0a53b)" style="fill: none; stroke: #ff0000; stroke-width: 1.5"/>
    <path d="M 280.627301 170.45932 
L 280.627301 170.416224 
" clip-path="url(#pc98cb0a53b)" style="fill: none; stroke: #ff0000; stroke-width: 1.5"/>
    <path d="M 284.17821 172.926419 
L 284.17821 172.884963 
" clip-path="url(#pc98cb0a53b)" style="fill: none; stroke: #ff0000; stroke-width: 1.5"/>
    <path d="M 287.729119 175.410397 
L 287.729119 175.348829 
" clip-path="url(#pc98cb0a53b)" style="fill: none; stroke: #ff0000; stroke-width: 1.5"/>
    <path d="M 291.280028 177.87662 
L 291.280028 177.806037 
" clip-path="url(#pc98cb0a53b)" style="fill: none; stroke: #ff0000; stroke-width: 1.5"/>
    <path d="M 294.830938 180.304828 
L 294.830938 180.23749 
" clip-path="url(#pc98cb0a53b)" style="fill: none; stroke: #ff0000; stroke-width: 1.5"/>
    <path d="M 298.381847 182.689225 
L 298.381847 182.626742 
" clip-path="url(#pc98cb0a53b)" style="fill: none; stroke: #ff0000; stroke-width: 1.5"/>
    <path d="M 301.932756 185.031811 
L 301.932756 184.97415 
" clip-path="url(#pc98cb0a53b)" style="fill: none; stroke: #ff0000; stroke-width: 1.5"/>
    <path d="M 305.483665 187.347632 
L 305.483665 187.297928 
" clip-path="url(#pc98cb0a53b)" style="fill: none; stroke: #ff0000; stroke-width: 1.5"/>
    <path d="M 309.034574 189.663092 
L 309.034574 189.623037 
" clip-path="url(#pc98cb0a53b)" style="fill: none; stroke: #ff0000; stroke-width: 1.5"/>
    <path d="M 312.585483 192.001603 
L 312.585483 191.961109 
" clip-path="url(#pc98cb0a53b)" style="fill: none; stroke: #ff0000; stroke-width: 1.5"/>
    <path d="M 316.136392 194.360753 
L 316.136392 194.312666 
" clip-path="url(#pc98cb0a53b)" style="fill: none; stroke: #ff0000; stroke-width: 1.5"/>
    <path d="M 319.687301 196.717721 
L 319.687301 196.676043 
" clip-path="url(#pc98cb0a53b)" style="fill: none; stroke: #ff0000; stroke-width: 1.5"/>
    <path d="M 323.23821 199.06719 
L 323.23821 199.03513 
" clip-path="url(#pc98cb0a53b)" style="fill: none; stroke: #ff0000; stroke-width: 1.5"/>
    <path d="M 326.789119 201.410223 
L 326.789119 201.377756 
" clip-path="url(#pc98cb0a53b)" style="fill: none; stroke: #ff0000; stroke-width: 1.5"/>
    <path d="M 330.340028 203.735392 
L 330.340028 203.709377 
" clip-path="url(#pc98cb0a53b)" style="fill: none; stroke: #ff0000; stroke-width: 1.5"/>
    <path d="M 333.890938 206.050061 
L 333.890938 206.021378 
" clip-path="url(#pc98cb0a53b)" style="fill: none; stroke: #ff0000; stroke-width: 1.5"/>
    <path d="M 337.441847 208.350487 
L 337.441847 208.312865 
" clip-path="url(#pc98cb0a53b)" style="fill: none; stroke: #ff0000; stroke-width: 1.5"/>
    <path d="M 340.992756 210.624088 
L 340.992756 210.58198 
" clip-path="url(#pc98cb0a53b)" style="fill: none; stroke: #ff0000; stroke-width: 1.5"/>
    <path d="M 344.543665 212.868562 
L 344.543665 212.829888 
" clip-path="url(#pc98cb0a53b)" style="fill: none; stroke: #ff0000; stroke-width: 1.5"/>
    <path d="M 348.094574 215.096206 
L 348.094574 215.070984 
" clip-path="url(#pc98cb0a53b)" style="fill: none; stroke: #ff0000; stroke-width: 1.5"/>
    <path d="M 351.645483 217.331413 
L 351.645483 217.31287 
" clip-path="url(#pc98cb0a53b)" style="fill: none; stroke: #ff0000; stroke-width: 1.5"/>
    <path d="M 355.196392 219.594136 
L 355.196392 219.559415 
" clip-path="url(#pc98cb0a53b)" style="fill: none; stroke: #ff0000; stroke-width: 1.5"/>
    <path d="M 358.747301 221.880399 
L 358.747301 221.834595 
" clip-path="url(#pc98cb0a53b)" style="fill: none; stroke: #ff0000; stroke-width: 1.5"/>
    <path d="M 362.29821 224.185585 
L 362.29821 224.13935 
" clip-path="url(#pc98cb0a53b)" style="fill: none; stroke: #ff0000; stroke-width: 1.5"/>
    <path d="M 365.849119 226.488044 
L 365.849119 226.449434 
" clip-path="url(#pc98cb0a53b)" style="fill: none; stroke: #ff0000; stroke-width: 1.5"/>
    <path d="M 369.400028 228.766878 
L 369.400028 228.734706 
" clip-path="url(#pc98cb0a53b)" style="fill: none; stroke: #ff0000; stroke-width: 1.5"/>
    <path d="M 372.950938 231.022597 
L 372.950938 230.984131 
" clip-path="url(#pc98cb0a53b)" style="fill: none; stroke: #ff0000; stroke-width: 1.5"/>
    <path d="M 376.501847 233.260514 
L 376.501847 233.210136 
" clip-path="url(#pc98cb0a53b)" style="fill: none; stroke: #ff0000; stroke-width: 1.5"/>
    <path d="M 380.052756 235.483478 
L 380.052756 235.424067 
" clip-path="url(#pc98cb0a53b)" style="fill: none; stroke: #ff0000; stroke-width: 1.5"/>
    <path d="M 383.603665 237.690628 
L 383.603665 237.635613 
" clip-path="url(#pc98cb0a53b)" style="fill: none; stroke: #ff0000; stroke-width: 1.5"/>
    <path d="M 387.154574 239.886618 
L 387.154574 239.847886 
" clip-path="url(#pc98cb0a53b)" style="fill: none; stroke: #ff0000; stroke-width: 1.5"/>
    <path d="M 390.705483 242.081291 
L 390.705483 242.052771 
" clip-path="url(#pc98cb0a53b)" style="fill: none; stroke: #ff0000; stroke-width: 1.5"/>
    <path d="M 394.256392 244.278832 
L 394.256392 244.249261 
" clip-path="url(#pc98cb0a53b)" style="fill: none; stroke: #ff0000; stroke-width: 1.5"/>
    <path d="M 397.807301 246.480046 
L 397.807301 246.45073 
" clip-path="url(#pc98cb0a53b)" style="fill: none; stroke: #ff0000; stroke-width: 1.5"/>
    <path d="M 401.35821 248.692477 
L 401.35821 248.664118 
" clip-path="url(#pc98cb0a53b)" style="fill: none; stroke: #ff0000; stroke-width: 1.5"/>
    <path d="M 404.909119 250.914394 
L 404.909119 250.886241 
" clip-path="url(#pc98cb0a53b)" style="fill: none; stroke: #ff0000; stroke-width: 1.5"/>
    <path d="M 408.460028 253.133233 
L 408.460028 253.104994 
" clip-path="url(#pc98cb0a53b)" style="fill: none; stroke: #ff0000; stroke-width: 1.5"/>
    <path d="M 412.010938 255.342642 
L 412.010938 255.309719 
" clip-path="url(#pc98cb0a53b)" style="fill: none; stroke: #ff0000; stroke-width: 1.5"/>
    <path d="M 415.561847 257.545802 
L 415.561847 257.500732 
" clip-path="url(#pc98cb0a53b)" style="fill: none; stroke: #ff0000; stroke-width: 1.5"/>
    <path d="M 419.112756 259.739857 
L 419.112756 259.680777 
" clip-path="url(#pc98cb0a53b)" style="fill: none; stroke: #ff0000; stroke-width: 1.5"/>
    <path d="M 422.663665 261.912905 
L 422.663665 261.848469 
" clip-path="url(#pc98cb0a53b)" style="fill: none; stroke: #ff0000; stroke-width: 1.5"/>
    <path d="M 426.214574 264.062571 
L 426.214574 264.00553 
" clip-path="url(#pc98cb0a53b)" style="fill: none; stroke: #ff0000; stroke-width: 1.5"/>
    <path d="M 429.765483 266.204833 
L 429.765483 266.158774 
" clip-path="url(#pc98cb0a53b)" style="fill: none; stroke: #ff0000; stroke-width: 1.5"/>
    <path d="M 433.316392 268.357197 
L 433.316392 268.311959 
" clip-path="url(#pc98cb0a53b)" style="fill: none; stroke: #ff0000; stroke-width: 1.5"/>
   </g>
   <g id="line2d_10">
    <path d="M 78.225483 19.843529 
L 81.776392 22.30412 
L 85.327301 24.736801 
L 88.87821 27.146928 
L 92.429119 29.556843 
L 95.980028 31.985548 
L 99.530938 34.436717 
L 103.081847 36.903071 
L 106.632756 39.375397 
L 110.183665 41.845254 
L 113.734574 44.303012 
L 117.285483 46.741726 
L 120.836392 49.161173 
L 124.387301 51.562098 
L 127.93821 53.949859 
L 131.489119 56.344145 
L 135.040028 58.762732 
L 138.590938 61.199262 
L 142.141847 63.635693 
L 145.692756 66.065785 
L 149.243665 68.490901 
L 152.794574 70.905086 
L 156.345483 73.298981 
L 159.896392 75.671896 
L 163.447301 78.031523 
L 166.99821 80.390137 
L 170.549119 82.760365 
L 174.100028 85.143429 
L 177.650938 87.530314 
L 181.201847 89.919132 
L 184.752756 92.314461 
L 188.303665 94.711043 
L 191.854574 97.094103 
L 195.405483 99.45098 
L 198.956392 101.769389 
L 202.507301 104.059791 
L 206.05821 106.997863 
L 209.609119 116.713186 
L 213.160028 128.561157 
L 216.710938 132.438745 
L 220.261847 135.105472 
L 223.812756 137.696509 
L 227.363665 140.260902 
L 230.914574 142.787456 
L 234.465483 145.276208 
L 238.016392 147.740793 
L 241.567301 150.193014 
L 245.11821 152.632388 
L 248.669119 155.051663 
L 252.220028 157.450883 
L 255.770938 159.836027 
L 259.321847 162.203224 
L 262.872756 164.540724 
L 266.423665 166.850231 
L 269.974574 169.152152 
L 273.525483 171.467573 
L 277.076392 173.802984 
L 280.627301 176.15164 
L 284.17821 178.503777 
L 287.729119 180.851575 
L 291.280028 183.186475 
L 294.830938 185.500471 
L 298.381847 187.791959 
L 301.932756 190.065246 
L 305.483665 192.325669 
L 309.034574 194.579797 
L 312.585483 196.836893 
L 316.136392 199.102915 
L 319.687301 201.375199 
L 323.23821 203.646455 
L 326.789119 205.912072 
L 330.340028 208.17379 
L 333.890938 210.436208 
L 337.441847 212.69869 
L 340.992756 214.951539 
L 344.543665 217.181825 
L 348.094574 219.386655 
L 351.645483 221.580963 
L 355.196392 223.787835 
L 358.747301 226.020488 
L 362.29821 228.273935 
L 365.849119 230.529879 
L 369.400028 232.76818 
L 372.950938 234.977963 
L 376.501847 237.159424 
L 380.052756 239.318701 
L 383.603665 241.46718 
L 387.154574 243.618565 
L 390.705483 245.778214 
L 394.256392 247.942876 
L 397.807301 250.114175 
L 401.35821 252.302142 
L 404.909119 254.51223 
L 408.460028 256.733476 
L 412.010938 258.942021 
L 415.561847 261.118311 
L 419.112756 263.261217 
L 422.663665 265.386048 
L 426.214574 267.511418 
L 429.765483 269.646377 
L 433.316392 271.785779 
" clip-path="url(#pc98cb0a53b)" style="fill: none; stroke: #1f77b4; stroke-width: 1.5; stroke-linecap: square"/>
   </g>
   <g id="line2d_11">
    <path d="M 78.225483 19.809467 
L 81.776392 22.275122 
L 85.327301 24.720599 
L 88.87821 27.146091 
L 92.429119 29.567647 
L 95.980028 31.997041 
L 99.530938 34.439203 
L 103.081847 36.900245 
L 106.632756 39.379973 
L 110.183665 41.861642 
L 113.734574 44.325054 
L 117.285483 46.763301 
L 120.836392 49.180333 
L 124.387301 51.583852 
L 127.93821 53.983335 
L 131.489119 56.384753 
L 135.040028 58.785187 
L 138.590938 61.183235 
L 142.141847 63.59105 
L 145.692756 66.019739 
L 149.243665 68.458905 
L 152.794574 70.886094 
L 156.345483 73.289999 
L 159.896392 75.675158 
L 163.447301 78.049451 
L 166.99821 80.414582 
L 170.549119 82.771061 
L 174.100028 85.126904 
L 177.650938 87.49508 
L 181.201847 89.882426 
L 184.752756 92.282383 
L 188.303665 94.679829 
L 191.854574 97.064811 
L 195.405483 99.43734 
L 198.956392 101.797409 
L 202.507301 104.143427 
L 206.05821 106.484327 
L 209.609119 108.846495 
L 213.160028 111.283104 
L 216.710938 113.879504 
L 220.261847 116.649454 
L 223.812756 119.366314 
L 227.363665 121.761505 
L 230.914574 123.85816 
L 234.465483 125.88701 
L 238.016392 128.293112 
L 241.567301 132.89387 
L 245.11821 141.510448 
L 248.669119 147.250878 
L 252.220028 150.283274 
L 255.770938 152.892096 
L 259.321847 155.469109 
L 262.872756 158.024774 
L 266.423665 160.548843 
L 269.974574 163.043716 
L 273.525483 165.517427 
L 277.076392 167.978526 
L 280.627301 170.437772 
L 284.17821 172.905691 
L 287.729119 175.379613 
L 291.280028 177.841328 
L 294.830938 180.271159 
L 298.381847 182.657984 
L 301.932756 185.00298 
L 305.483665 187.32278 
L 309.034574 189.643065 
L 312.585483 191.981356 
L 316.136392 194.336709 
L 319.687301 196.696882 
L 323.23821 199.05116 
L 326.789119 201.39399 
L 330.340028 203.722384 
L 333.890938 206.03572 
L 337.441847 208.331676 
L 340.992756 210.603034 
L 344.543665 212.849225 
L 348.094574 215.083595 
L 351.645483 217.322142 
L 355.196392 219.576775 
L 358.747301 221.857497 
L 362.29821 224.162468 
L 365.849119 226.468739 
L 369.400028 228.750792 
L 372.950938 231.003364 
L 376.501847 233.235325 
L 380.052756 235.453772 
L 383.603665 237.66312 
L 387.154574 239.867252 
L 390.705483 242.067031 
L 394.256392 244.264047 
L 397.807301 246.465388 
L 401.35821 248.678297 
L 404.909119 250.900317 
L 408.460028 253.119113 
L 412.010938 255.32618 
L 415.561847 257.523267 
L 419.112756 259.710317 
L 422.663665 261.880687 
L 426.214574 264.03405 
L 429.765483 266.181803 
L 433.316392 268.334578 
" clip-path="url(#pc98cb0a53b)" style="fill: none; stroke: #ff7f0e; stroke-width: 1.5; stroke-linecap: square"/>
   </g>
   <g id="patch_3">
    <path d="M 60.470938 284.4 
L 60.470938 7.2 
" style="fill: none; stroke: #000000; stroke-width: 0.8; stroke-linejoin: miter; stroke-linecap: square"/>
   </g>
   <g id="patch_4">
    <path d="M 451.070938 284.4 
L 451.070938 7.2 
" style="fill: none; stroke: #000000; stroke-width: 0.8; stroke-linejoin: miter; stroke-linecap: square"/>
   </g>
   <g id="patch_5">
    <path d="M 60.470938 284.4 
L 451.070938 284.4 
" style="fill: none; stroke: #000000; stroke-width: 0.8; stroke-linejoin: miter; stroke-linecap: square"/>
   </g>
   <g id="patch_6">
    <path d="M 60.470938 7.2 
L 451.070938 7.2 
" style="fill: none; stroke: #000000; stroke-width: 0.8; stroke-linejoin: miter; stroke-linecap: square"/>
   </g>
   <g id="legend_1">
    <g id="patch_7">
     <path d="M 368.062187 48.291875 
L 443.370938 48.291875 
Q 445.570938 48.291875 445.570938 46.091875 
L 445.570938 14.9 
Q 445.570938 12.7 443.370938 12.7 
L 368.062187 12.7 
Q 365.862188 12.7 365.862188 14.9 
L 365.862188 46.091875 
Q 365.862188 48.291875 368.062187 48.291875 
z
" style="fill: #ffffff; opacity: 0.8; stroke: #cccccc; stroke-linejoin: miter"/>
    </g>
    <g id="LineCollection_3">
     <path d="M 381.262187 27.108281 
L 381.262187 16.108281 
" style="fill: none; stroke: #ff0000; stroke-width: 1.5"/>
    </g>
    <g id="line2d_12">
     <path d="M 370.262187 21.608281 
L 392.262187 21.608281 
" style="fill: none; stroke: #1f77b4; stroke-width: 1.5; stroke-linecap: square"/>
    </g>
    <g id="line2d_13"/>
    <g id="text_12">
     <!-- notwist -->
     <g transform="translate(401.062187 25.458281) scale(0.11 -0.11)">
      <defs>
       <path id="DejaVuSans-6e" d="M 3513 2113 
L 3513 0 
L 2938 0 
L 2938 2094 
Q 2938 2591 2744 2837 
Q 2550 3084 2163 3084 
Q 1697 3084 1428 2787 
Q 1159 2491 1159 1978 
L 1159 0 
L 581 0 
L 581 3500 
L 1159 3500 
L 1159 2956 
Q 1366 3272 1645 3428 
Q 1925 3584 2291 3584 
Q 2894 3584 3203 3211 
Q 3513 2838 3513 2113 
z
" transform="scale(0.015625)"/>
       <path id="DejaVuSans-6f" d="M 1959 3097 
Q 1497 3097 1228 2736 
Q 959 2375 959 1747 
Q 959 1119 1226 758 
Q 1494 397 1959 397 
Q 2419 397 2687 759 
Q 2956 1122 2956 1747 
Q 2956 2369 2687 2733 
Q 2419 3097 1959 3097 
z
M 1959 3584 
Q 2709 3584 3137 3096 
Q 3566 2609 3566 1747 
Q 3566 888 3137 398 
Q 2709 -91 1959 -91 
Q 1206 -91 779 398 
Q 353 888 353 1747 
Q 353 2609 779 3096 
Q 1206 3584 1959 3584 
z
" transform="scale(0.015625)"/>
       <path id="DejaVuSans-74" d="M 1172 4494 
L 1172 3500 
L 2356 3500 
L 2356 3053 
L 1172 3053 
L 1172 1153 
Q 1172 725 1289 603 
Q 1406 481 1766 481 
L 2356 481 
L 2356 0 
L 1766 0 
Q 1100 0 847 248 
Q 594 497 594 1153 
L 594 3053 
L 172 3053 
L 172 3500 
L 594 3500 
L 594 4494 
L 1172 4494 
z
" transform="scale(0.015625)"/>
       <path id="DejaVuSans-77" d="M 269 3500 
L 844 3500 
L 1563 769 
L 2278 3500 
L 2956 3500 
L 3675 769 
L 4391 3500 
L 4966 3500 
L 4050 0 
L 3372 0 
L 2619 2869 
L 1863 0 
L 1184 0 
L 269 3500 
z
" transform="scale(0.015625)"/>
       <path id="DejaVuSans-69" d="M 603 3500 
L 1178 3500 
L 1178 0 
L 603 0 
L 603 3500 
z
M 603 4863 
L 1178 4863 
L 1178 4134 
L 603 4134 
L 603 4863 
z
" transform="scale(0.015625)"/>
       <path id="DejaVuSans-73" d="M 2834 3397 
L 2834 2853 
Q 2591 2978 2328 3040 
Q 2066 3103 1784 3103 
Q 1356 3103 1142 2972 
Q 928 2841 928 2578 
Q 928 2378 1081 2264 
Q 1234 2150 1697 2047 
L 1894 2003 
Q 2506 1872 2764 1633 
Q 3022 1394 3022 966 
Q 3022 478 2636 193 
Q 2250 -91 1575 -91 
Q 1294 -91 989 -36 
Q 684 19 347 128 
L 347 722 
Q 666 556 975 473 
Q 1284 391 1588 391 
Q 1994 391 2212 530 
Q 2431 669 2431 922 
Q 2431 1156 2273 1281 
Q 2116 1406 1581 1522 
L 1381 1569 
Q 847 1681 609 1914 
Q 372 2147 372 2553 
Q 372 3047 722 3315 
Q 1072 3584 1716 3584 
Q 2034 3584 2315 3537 
Q 2597 3491 2834 3397 
z
" transform="scale(0.015625)"/>
      </defs>
      <use xlink:href="#DejaVuSans-6e"/>
      <use xlink:href="#DejaVuSans-6f" x="63.378906"/>
      <use xlink:href="#DejaVuSans-74" x="124.560547"/>
      <use xlink:href="#DejaVuSans-77" x="163.769531"/>
      <use xlink:href="#DejaVuSans-69" x="245.556641"/>
      <use xlink:href="#DejaVuSans-73" x="273.339844"/>
      <use xlink:href="#DejaVuSans-74" x="325.439453"/>
     </g>
    </g>
    <g id="LineCollection_4">
     <path d="M 381.262187 43.254219 
L 381.262187 32.254219 
" style="fill: none; stroke: #ff0000; stroke-width: 1.5"/>
    </g>
    <g id="line2d_14">
     <path d="M 370.262187 37.754219 
L 392.262187 37.754219 
" style="fill: none; stroke: #ff7f0e; stroke-width: 1.5; stroke-linecap: square"/>
    </g>
    <g id="line2d_15"/>
    <g id="text_13">
     <!-- twist -->
     <g transform="translate(401.062187 41.604219) scale(0.11 -0.11)">
      <use xlink:href="#DejaVuSans-74"/>
      <use xlink:href="#DejaVuSans-77" x="39.208984"/>
      <use xlink:href="#DejaVuSans-69" x="120.996094"/>
      <use xlink:href="#DejaVuSans-73" x="148.779297"/>
      <use xlink:href="#DejaVuSans-74" x="200.878906"/>
     </g>
    </g>
   </g>
  </g>
  <g id="text_14">
   <!-- Twist coefficients $z_0$ and $z_1$. M=5 Jackknife bins -->
   <g transform="translate(47.870938 327.6) scale(0.11 -0.11)">
    <defs>
     <path id="DejaVuSans-Oblique-54" d="M 378 4666 
L 4325 4666 
L 4225 4134 
L 2559 4134 
L 1759 0 
L 1125 0 
L 1925 4134 
L 275 4134 
L 378 4666 
z
" transform="scale(0.015625)"/>
     <path id="DejaVuSans-Oblique-77" d="M 544 3500 
L 1113 3500 
L 1259 684 
L 2566 3500 
L 3231 3500 
L 3425 684 
L 4666 3500 
L 5241 3500 
L 3641 0 
L 2969 0 
L 2797 2900 
L 1459 0 
L 781 0 
L 544 3500 
z
" transform="scale(0.015625)"/>
     <path id="DejaVuSans-Oblique-69" d="M 1172 4863 
L 1747 4863 
L 1606 4134 
L 1031 4134 
L 1172 4863 
z
M 909 3500 
L 1484 3500 
L 800 0 
L 225 0 
L 909 3500 
z
" transform="scale(0.015625)"/>
     <path id="DejaVuSans-Oblique-73" d="M 3200 3397 
L 3091 2853 
Q 2863 2978 2609 3040 
Q 2356 3103 2088 3103 
Q 1634 3103 1373 2948 
Q 1113 2794 1113 2528 
Q 1113 2219 1719 2053 
Q 1766 2041 1788 2034 
L 1972 1978 
Q 2547 1819 2739 1644 
Q 2931 1469 2931 1166 
Q 2931 609 2489 259 
Q 2047 -91 1331 -91 
Q 1053 -91 747 -37 
Q 441 16 72 128 
L 184 722 
Q 500 559 806 475 
Q 1113 391 1394 391 
Q 1816 391 2080 572 
Q 2344 753 2344 1031 
Q 2344 1331 1650 1516 
L 1591 1531 
L 1394 1581 
Q 956 1697 753 1886 
Q 550 2075 550 2369 
Q 550 2928 970 3256 
Q 1391 3584 2113 3584 
Q 2397 3584 2667 3537 
Q 2938 3491 3200 3397 
z
" transform="scale(0.015625)"/>
     <path id="DejaVuSans-Oblique-74" d="M 2706 3500 
L 2619 3053 
L 1472 3053 
L 1100 1153 
Q 1081 1047 1072 975 
Q 1063 903 1063 863 
Q 1063 663 1183 572 
Q 1303 481 1569 481 
L 2150 481 
L 2053 0 
L 1503 0 
Q 991 0 739 200 
Q 488 400 488 806 
Q 488 878 497 964 
Q 506 1050 525 1153 
L 897 3053 
L 409 3053 
L 500 3500 
L 978 3500 
L 1172 4494 
L 1747 4494 
L 1556 3500 
L 2706 3500 
z
" transform="scale(0.015625)"/>
     <path id="DejaVuSans-Oblique-20" transform="scale(0.015625)"/>
     <path id="DejaVuSans-Oblique-63" d="M 3431 3366 
L 3316 2797 
Q 3109 2947 2876 3022 
Q 2644 3097 2394 3097 
Q 2119 3097 1870 3000 
Q 1622 2903 1453 2725 
Q 1184 2453 1037 2087 
Q 891 1722 891 1331 
Q 891 859 1127 628 
Q 1363 397 1844 397 
Q 2081 397 2348 469 
Q 2616 541 2906 684 
L 2797 116 
Q 2547 13 2283 -39 
Q 2019 -91 1741 -91 
Q 1044 -91 669 257 
Q 294 606 294 1253 
Q 294 1797 489 2255 
Q 684 2713 1069 3078 
Q 1331 3328 1684 3456 
Q 2038 3584 2456 3584 
Q 2700 3584 2940 3529 
Q 3181 3475 3431 3366 
z
" transform="scale(0.015625)"/>
     <path id="DejaVuSans-Oblique-6f" d="M 1625 -91 
Q 1009 -91 651 289 
Q 294 669 294 1325 
Q 294 1706 417 2101 
Q 541 2497 738 2766 
Q 1047 3184 1428 3384 
Q 1809 3584 2291 3584 
Q 2888 3584 3255 3212 
Q 3622 2841 3622 2241 
Q 3622 1825 3500 1412 
Q 3378 1000 3181 728 
Q 2875 309 2494 109 
Q 2113 -91 1625 -91 
z
M 891 1344 
Q 891 869 1089 633 
Q 1288 397 1691 397 
Q 2269 397 2648 901 
Q 3028 1406 3028 2181 
Q 3028 2634 2825 2865 
Q 2622 3097 2228 3097 
Q 1903 3097 1650 2945 
Q 1397 2794 1197 2484 
Q 1050 2253 970 1956 
Q 891 1659 891 1344 
z
" transform="scale(0.015625)"/>
     <path id="DejaVuSans-Oblique-65" d="M 3078 2063 
Q 3088 2113 3092 2166 
Q 3097 2219 3097 2272 
Q 3097 2653 2873 2875 
Q 2650 3097 2266 3097 
Q 1838 3097 1509 2826 
Q 1181 2556 1013 2059 
L 3078 2063 
z
M 3578 1613 
L 903 1613 
Q 884 1494 878 1425 
Q 872 1356 872 1306 
Q 872 872 1139 634 
Q 1406 397 1894 397 
Q 2269 397 2603 481 
Q 2938 566 3225 728 
L 3116 159 
Q 2806 34 2476 -28 
Q 2147 -91 1806 -91 
Q 1078 -91 686 257 
Q 294 606 294 1247 
Q 294 1794 489 2264 
Q 684 2734 1063 3103 
Q 1306 3334 1642 3459 
Q 1978 3584 2356 3584 
Q 2950 3584 3301 3228 
Q 3653 2872 3653 2272 
Q 3653 2128 3634 1964 
Q 3616 1800 3578 1613 
z
" transform="scale(0.015625)"/>
     <path id="DejaVuSans-Oblique-66" d="M 3059 4863 
L 2969 4384 
L 2419 4384 
Q 2106 4384 1964 4261 
Q 1822 4138 1753 3809 
L 1691 3500 
L 2638 3500 
L 2553 3053 
L 1606 3053 
L 1013 0 
L 434 0 
L 1031 3053 
L 481 3053 
L 563 3500 
L 1113 3500 
L 1159 3744 
Q 1278 4363 1576 4613 
Q 1875 4863 2516 4863 
L 3059 4863 
z
" transform="scale(0.015625)"/>
     <path id="DejaVuSans-Oblique-6e" d="M 3566 2113 
L 3156 0 
L 2578 0 
L 2988 2091 
Q 3016 2238 3031 2350 
Q 3047 2463 3047 2528 
Q 3047 2791 2881 2937 
Q 2716 3084 2419 3084 
Q 1956 3084 1622 2776 
Q 1288 2469 1184 1941 
L 800 0 
L 225 0 
L 903 3500 
L 1478 3500 
L 1363 2950 
Q 1603 3253 1940 3418 
Q 2278 3584 2650 3584 
Q 3113 3584 3367 3334 
Q 3622 3084 3622 2631 
Q 3622 2519 3608 2391 
Q 3594 2263 3566 2113 
z
" transform="scale(0.015625)"/>
     <path id="DejaVuSans-Oblique-7a" d="M 744 3500 
L 3475 3500 
L 3372 2975 
L 738 459 
L 2913 459 
L 2822 0 
L -19 0 
L 84 525 
L 2719 3041 
L 653 3041 
L 744 3500 
z
" transform="scale(0.015625)"/>
     <path id="DejaVuSans-Oblique-61" d="M 3438 1997 
L 3047 0 
L 2472 0 
L 2578 531 
Q 2325 219 2001 64 
Q 1678 -91 1281 -91 
Q 834 -91 548 182 
Q 263 456 263 884 
Q 263 1497 752 1853 
Q 1241 2209 2100 2209 
L 2900 2209 
L 2931 2363 
Q 2938 2388 2941 2417 
Q 2944 2447 2944 2509 
Q 2944 2788 2717 2942 
Q 2491 3097 2081 3097 
Q 1800 3097 1504 3025 
Q 1209 2953 897 2809 
L 997 3341 
Q 1322 3463 1633 3523 
Q 1944 3584 2234 3584 
Q 2853 3584 3176 3315 
Q 3500 3047 3500 2534 
Q 3500 2431 3484 2292 
Q 3469 2153 3438 1997 
z
M 2816 1759 
L 2241 1759 
Q 1534 1759 1195 1570 
Q 856 1381 856 984 
Q 856 709 1029 553 
Q 1203 397 1509 397 
Q 1978 397 2328 733 
Q 2678 1069 2791 1631 
L 2816 1759 
z
" transform="scale(0.015625)"/>
     <path id="DejaVuSans-Oblique-64" d="M 2675 525 
Q 2444 222 2128 65 
Q 1813 -91 1428 -91 
Q 903 -91 598 267 
Q 294 625 294 1247 
Q 294 1766 478 2236 
Q 663 2706 1013 3078 
Q 1244 3325 1534 3454 
Q 1825 3584 2144 3584 
Q 2481 3584 2739 3421 
Q 2997 3259 3138 2956 
L 3513 4863 
L 4091 4863 
L 3144 0 
L 2566 0 
L 2675 525 
z
M 891 1350 
Q 891 897 1095 644 
Q 1300 391 1663 391 
Q 1931 391 2161 520 
Q 2391 650 2566 903 
Q 2750 1166 2856 1509 
Q 2963 1853 2963 2188 
Q 2963 2622 2758 2865 
Q 2553 3109 2194 3109 
Q 1922 3109 1687 2981 
Q 1453 2853 1288 2613 
Q 1106 2353 998 2009 
Q 891 1666 891 1350 
z
" transform="scale(0.015625)"/>
     <path id="DejaVuSans-Oblique-2e" d="M 525 794 
L 1184 794 
L 1031 0 
L 372 0 
L 525 794 
z
" transform="scale(0.015625)"/>
     <path id="DejaVuSans-Oblique-4d" d="M 1081 4666 
L 2028 4666 
L 2572 1522 
L 4378 4666 
L 5350 4666 
L 4441 0 
L 3828 0 
L 4622 4091 
L 2791 897 
L 2175 897 
L 1581 4103 
L 788 0 
L 172 0 
L 1081 4666 
z
" transform="scale(0.015625)"/>
     <path id="DejaVuSans-Oblique-3d" d="M 678 2906 
L 4684 2906 
L 4684 2381 
L 678 2381 
L 678 2906 
z
M 678 1631 
L 4684 1631 
L 4684 1100 
L 678 1100 
L 678 1631 
z
" transform="scale(0.015625)"/>
     <path id="DejaVuSans-Oblique-35" d="M 3719 4666 
L 3622 4141 
L 1691 4141 
L 1466 2988 
Q 1609 3034 1757 3056 
Q 1906 3078 2059 3078 
Q 2706 3078 3081 2731 
Q 3456 2384 3456 1791 
Q 3456 1375 3264 994 
Q 3072 613 2719 325 
Q 2469 125 2108 17 
Q 1747 -91 1319 -91 
Q 1038 -91 744 -41 
Q 450 9 128 109 
L 244 697 
Q 531 556 820 486 
Q 1109 416 1403 416 
Q 2013 416 2411 781 
Q 2809 1147 2809 1697 
Q 2809 2103 2548 2328 
Q 2288 2553 1819 2553 
Q 1572 2553 1305 2495 
Q 1038 2438 756 2322 
L 1209 4666 
L 3719 4666 
z
" transform="scale(0.015625)"/>
     <path id="DejaVuSans-Oblique-4a" d="M 1069 4666 
L 1703 4666 
L 856 325 
Q 691 -522 298 -901 
Q -94 -1281 -800 -1281 
L -1050 -1281 
L -947 -750 
L -750 -750 
Q -328 -750 -109 -509 
Q 109 -269 225 325 
L 1069 4666 
z
" transform="scale(0.015625)"/>
     <path id="DejaVuSans-Oblique-6b" d="M 1172 4863 
L 1747 4863 
L 1197 2028 
L 3169 3500 
L 3916 3500 
L 1716 1825 
L 3322 0 
L 2625 0 
L 1131 1709 
L 800 0 
L 225 0 
L 1172 4863 
z
" transform="scale(0.015625)"/>
     <path id="DejaVuSans-Oblique-62" d="M 3169 2138 
Q 3169 2591 2961 2847 
Q 2753 3103 2388 3103 
Q 2122 3103 1889 2973 
Q 1656 2844 1484 2597 
Q 1303 2338 1198 1995 
Q 1094 1653 1094 1313 
Q 1094 881 1298 636 
Q 1503 391 1863 391 
Q 2134 391 2365 517 
Q 2597 644 2772 891 
Q 2950 1147 3059 1487 
Q 3169 1828 3169 2138 
z
M 1381 2969 
Q 1594 3256 1914 3420 
Q 2234 3584 2584 3584 
Q 3122 3584 3439 3221 
Q 3756 2859 3756 2241 
Q 3756 1734 3570 1259 
Q 3384 784 3041 416 
Q 2816 172 2522 40 
Q 2228 -91 1906 -91 
Q 1566 -91 1316 65 
Q 1066 222 909 531 
L 806 0 
L 231 0 
L 1178 4863 
L 1753 4863 
L 1381 2969 
z
" transform="scale(0.015625)"/>
    </defs>
    <use xlink:href="#DejaVuSans-Oblique-54" transform="translate(0 0.015625)"/>
    <use xlink:href="#DejaVuSans-Oblique-77" transform="translate(61.083984 0.015625)"/>
    <use xlink:href="#DejaVuSans-Oblique-69" transform="translate(142.871094 0.015625)"/>
    <use xlink:href="#DejaVuSans-Oblique-73" transform="translate(170.654297 0.015625)"/>
    <use xlink:href="#DejaVuSans-Oblique-74" transform="translate(222.753906 0.015625)"/>
    <use xlink:href="#DejaVuSans-Oblique-20" transform="translate(261.962891 0.015625)"/>
    <use xlink:href="#DejaVuSans-Oblique-63" transform="translate(293.75 0.015625)"/>
    <use xlink:href="#DejaVuSans-Oblique-6f" transform="translate(348.730469 0.015625)"/>
    <use xlink:href="#DejaVuSans-Oblique-65" transform="translate(409.912109 0.015625)"/>
    <use xlink:href="#DejaVuSans-Oblique-66" transform="translate(471.435547 0.015625)"/>
    <use xlink:href="#DejaVuSans-Oblique-66" transform="translate(506.640625 0.015625)"/>
    <use xlink:href="#DejaVuSans-Oblique-69" transform="translate(541.845703 0.015625)"/>
    <use xlink:href="#DejaVuSans-Oblique-63" transform="translate(569.628906 0.015625)"/>
    <use xlink:href="#DejaVuSans-Oblique-69" transform="translate(624.609375 0.015625)"/>
    <use xlink:href="#DejaVuSans-Oblique-65" transform="translate(652.392578 0.015625)"/>
    <use xlink:href="#DejaVuSans-Oblique-6e" transform="translate(713.916016 0.015625)"/>
    <use xlink:href="#DejaVuSans-Oblique-74" transform="translate(777.294922 0.015625)"/>
    <use xlink:href="#DejaVuSans-Oblique-73" transform="translate(816.503906 0.015625)"/>
    <use xlink:href="#DejaVuSans-Oblique-20" transform="translate(868.603516 0.015625)"/>
    <use xlink:href="#DejaVuSans-Oblique-7a" transform="translate(900.390625 0.015625)"/>
    <use xlink:href="#DejaVuSans-30" transform="translate(952.880859 -16.390625) scale(0.7)"/>
    <use xlink:href="#DejaVuSans-Oblique-20" transform="translate(1000.151367 0.015625)"/>
    <use xlink:href="#DejaVuSans-Oblique-61" transform="translate(1031.938477 0.015625)"/>
    <use xlink:href="#DejaVuSans-Oblique-6e" transform="translate(1093.217773 0.015625)"/>
    <use xlink:href="#DejaVuSans-Oblique-64" transform="translate(1156.59668 0.015625)"/>
    <use xlink:href="#DejaVuSans-Oblique-20" transform="translate(1220.073242 0.015625)"/>
    <use xlink:href="#DejaVuSans-Oblique-7a" transform="translate(1251.860352 0.015625)"/>
    <use xlink:href="#DejaVuSans-31" transform="translate(1304.350586 -16.390625) scale(0.7)"/>
    <use xlink:href="#DejaVuSans-Oblique-2e" transform="translate(1351.621094 0.015625)"/>
    <use xlink:href="#DejaVuSans-Oblique-20" transform="translate(1383.408203 0.015625)"/>
    <use xlink:href="#DejaVuSans-Oblique-4d" transform="translate(1415.195312 0.015625)"/>
    <use xlink:href="#DejaVuSans-Oblique-3d" transform="translate(1501.474609 0.015625)"/>
    <use xlink:href="#DejaVuSans-Oblique-35" transform="translate(1585.263672 0.015625)"/>
    <use xlink:href="#DejaVuSans-Oblique-20" transform="translate(1648.886719 0.015625)"/>
    <use xlink:href="#DejaVuSans-Oblique-4a" transform="translate(1680.673828 0.015625)"/>
    <use xlink:href="#DejaVuSans-Oblique-61" transform="translate(1710.166016 0.015625)"/>
    <use xlink:href="#DejaVuSans-Oblique-63" transform="translate(1771.445312 0.015625)"/>
    <use xlink:href="#DejaVuSans-Oblique-6b" transform="translate(1826.425781 0.015625)"/>
    <use xlink:href="#DejaVuSans-Oblique-6b" transform="translate(1884.335938 0.015625)"/>
    <use xlink:href="#DejaVuSans-Oblique-6e" transform="translate(1942.246094 0.015625)"/>
    <use xlink:href="#DejaVuSans-Oblique-69" transform="translate(2005.625 0.015625)"/>
    <use xlink:href="#DejaVuSans-Oblique-66" transform="translate(2033.408203 0.015625)"/>
    <use xlink:href="#DejaVuSans-Oblique-65" transform="translate(2068.613281 0.015625)"/>
    <use xlink:href="#DejaVuSans-Oblique-20" transform="translate(2130.136719 0.015625)"/>
    <use xlink:href="#DejaVuSans-Oblique-62" transform="translate(2161.923828 0.015625)"/>
    <use xlink:href="#DejaVuSans-Oblique-69" transform="translate(2225.400391 0.015625)"/>
    <use xlink:href="#DejaVuSans-Oblique-6e" transform="translate(2253.183594 0.015625)"/>
    <use xlink:href="#DejaVuSans-Oblique-73" transform="translate(2316.5625 0.015625)"/>
   </g>
  </g>
 </g>
 <defs>
  <clipPath id="pc98cb0a53b">
   <rect x="60.470938" y="7.2" width="390.6" height="277.2"/>
  </clipPath>
 </defs>
</svg>
